<?xml version="1.0" encoding="UTF-8" standalone="no"?>
<!DOCTYPE svg PUBLIC "-//W3C//DTD SVG 1.1//EN"
 "http://www.w3.org/Graphics/SVG/1.1/DTD/svg11.dtd">
<!-- Generated by graphviz version 2.40.1 (20161225.0304)
 -->
<!-- Title: dependencies Pages: 1 -->
<svg width="504pt" height="284pt"
 viewBox="0.00 0.00 504.00 284.00" xmlns="http://www.w3.org/2000/svg" xmlns:xlink="http://www.w3.org/1999/xlink">
<g id="graph0" class="graph" transform="scale(1 1) rotate(0) translate(4 280)">
<title>dependencies</title>
<polygon fill="#ffffff" stroke="transparent" points="-4,4 -4,-280 500,-280 500,4 -4,4"/>
<text text-anchor="start" x="227.0091" y="-42.4" font-family="sans-serif" font-weight="bold" font-size="14.00" fill="#000000">Legend</text>
<polygon fill="#ffffb3" stroke="transparent" points="14,-10 14,-30 34,-30 34,-10 14,-10"/>
<text text-anchor="start" x="37.629" y="-15.4" font-family="sans-serif" font-size="14.00" fill="#000000"> &#160;Declarations</text>
<polygon fill="#8dd3c7" stroke="transparent" points="127,-10 127,-30 147,-30 147,-10 127,-10"/>
<text text-anchor="start" x="150.7251" y="-15.4" font-family="sans-serif" font-size="14.00" fill="#000000"> &#160;Module</text>
<polygon fill="#80b1d3" stroke="transparent" points="213,-10 213,-30 233,-30 233,-10 213,-10"/>
<text text-anchor="start" x="236.7812" y="-15.4" font-family="sans-serif" font-size="14.00" fill="#000000"> &#160;Bootstrap</text>
<polygon fill="#fdb462" stroke="transparent" points="310,-10 310,-30 330,-30 330,-10 310,-10"/>
<text text-anchor="start" x="333.6732" y="-15.4" font-family="sans-serif" font-size="14.00" fill="#000000"> &#160;Providers</text>
<polygon fill="#fb8072" stroke="transparent" points="406,-10 406,-30 426,-30 426,-10 406,-10"/>
<text text-anchor="start" x="429.7258" y="-15.4" font-family="sans-serif" font-size="14.00" fill="#000000"> &#160;Exports</text>
<g id="clust1" class="cluster">
<title>cluster_I18nModule</title>
<polygon fill="none" stroke="#000000" stroke-dasharray="1,5" points="148,-70 148,-268 348,-268 348,-70 148,-70"/>
</g>
<g id="clust2" class="cluster">
<title>cluster_I18nModule_declarations</title>
<polygon fill="none" stroke="#000000" points="238,-78 238,-130 340,-130 340,-78 238,-78"/>
</g>
<g id="clust5" class="cluster">
<title>cluster_I18nModule_exports</title>
<polygon fill="none" stroke="#000000" points="195,-208 195,-260 301,-260 301,-208 195,-208"/>
</g>
<g id="clust7" class="cluster">
<title>cluster_I18nModule_providers</title>
<polygon fill="none" stroke="#000000" points="156,-78 156,-130 230,-130 230,-78 156,-78"/>
</g>
<!-- ReplacePipe -->
<g id="node1" class="node">
<title>ReplacePipe</title>
<polygon fill="#ffffb3" stroke="#000000" points="331.9734,-122 246.0266,-122 246.0266,-86 331.9734,-86 331.9734,-122"/>
<text text-anchor="middle" x="289" y="-99.8" font-family="Times,serif" font-size="14.00" fill="#000000">ReplacePipe</text>
</g>
<!-- I18nModule -->
<g id="node2" class="node">
<title>I18nModule</title>
<polygon fill="#8dd3c7" stroke="#000000" points="290.7107,-187 287.7107,-191 266.7107,-191 263.7107,-187 205.2893,-187 205.2893,-151 290.7107,-151 290.7107,-187"/>
<text text-anchor="middle" x="248" y="-164.8" font-family="Times,serif" font-size="14.00" fill="#000000">I18nModule</text>
</g>
<!-- ReplacePipe&#45;&gt;I18nModule -->
<g id="edge1" class="edge">
<title>ReplacePipe&#45;&gt;I18nModule</title>
<path fill="none" stroke="#000000" d="M268.3093,-122.1061C268.3093,-122.1061 268.3093,-140.991 268.3093,-140.991"/>
<polygon fill="#000000" stroke="#000000" points="264.8093,-140.9909 268.3093,-150.991 271.8093,-140.991 264.8093,-140.9909"/>
</g>
<!-- ReplacePipe  -->
<g id="node3" class="node">
<title>ReplacePipe </title>
<polygon fill="#fb8072" stroke="#000000" points="292.9747,-252 203.0253,-252 203.0253,-216 292.9747,-216 292.9747,-252"/>
<text text-anchor="middle" x="248" y="-229.8" font-family="Times,serif" font-size="14.00" fill="#000000">ReplacePipe </text>
</g>
<!-- I18nModule&#45;&gt;ReplacePipe  -->
<g id="edge2" class="edge">
<title>I18nModule&#45;&gt;ReplacePipe </title>
<path fill="none" stroke="#000000" stroke-dasharray="5,2" d="M248,-187.1061C248,-187.1061 248,-205.991 248,-205.991"/>
<polygon fill="#000000" stroke="#000000" points="244.5001,-205.9909 248,-215.991 251.5001,-205.991 244.5001,-205.9909"/>
</g>
<!-- I18n -->
<g id="node4" class="node">
<title>I18n</title>
<ellipse fill="#fdb462" stroke="#000000" cx="193" cy="-104" rx="28.9754" ry="18"/>
<text text-anchor="middle" x="193" y="-99.8" font-family="Times,serif" font-size="14.00" fill="#000000">I18n</text>
</g>
<!-- I18n&#45;&gt;I18nModule -->
<g id="edge3" class="edge">
<title>I18n&#45;&gt;I18nModule</title>
<path fill="none" stroke="#000000" d="M213.5658,-116.8419C213.5658,-116.8419 213.5658,-140.5231 213.5658,-140.5231"/>
<polygon fill="#000000" stroke="#000000" points="210.0659,-140.523 213.5658,-150.5231 217.0659,-140.5231 210.0659,-140.523"/>
</g>
</g>
</svg>
