<?xml version="1.0" encoding="UTF-8" standalone="no"?>
<!DOCTYPE svg PUBLIC "-//W3C//DTD SVG 1.1//EN"
 "http://www.w3.org/Graphics/SVG/1.1/DTD/svg11.dtd">
<!-- Generated by graphviz version 2.40.1 (20161225.0304)
 -->
<!-- Title: dependencies Pages: 1 -->
<svg width="504pt" height="396pt"
 viewBox="0.00 0.00 504.00 395.59" xmlns="http://www.w3.org/2000/svg" xmlns:xlink="http://www.w3.org/1999/xlink">
<g id="graph0" class="graph" transform="scale(1 1) rotate(0) translate(4 391.5901)">
<title>dependencies</title>
<polygon fill="#ffffff" stroke="transparent" points="-4,4 -4,-391.5901 500,-391.5901 500,4 -4,4"/>
<text text-anchor="start" x="227.0091" y="-42.4" font-family="sans-serif" font-weight="bold" font-size="14.00" fill="#000000">Legend</text>
<polygon fill="#ffffb3" stroke="transparent" points="14,-10 14,-30 34,-30 34,-10 14,-10"/>
<text text-anchor="start" x="37.629" y="-15.4" font-family="sans-serif" font-size="14.00" fill="#000000"> &#160;Declarations</text>
<polygon fill="#8dd3c7" stroke="transparent" points="127,-10 127,-30 147,-30 147,-10 127,-10"/>
<text text-anchor="start" x="150.7251" y="-15.4" font-family="sans-serif" font-size="14.00" fill="#000000"> &#160;Module</text>
<polygon fill="#80b1d3" stroke="transparent" points="213,-10 213,-30 233,-30 233,-10 213,-10"/>
<text text-anchor="start" x="236.7812" y="-15.4" font-family="sans-serif" font-size="14.00" fill="#000000"> &#160;Bootstrap</text>
<polygon fill="#fdb462" stroke="transparent" points="310,-10 310,-30 330,-30 330,-10 310,-10"/>
<text text-anchor="start" x="333.6732" y="-15.4" font-family="sans-serif" font-size="14.00" fill="#000000"> &#160;Providers</text>
<polygon fill="#fb8072" stroke="transparent" points="406,-10 406,-30 426,-30 426,-10 406,-10"/>
<text text-anchor="start" x="429.7258" y="-15.4" font-family="sans-serif" font-size="14.00" fill="#000000"> &#160;Exports</text>
<g id="clust1" class="cluster">
<title>cluster_ComboBoxModule</title>
<polygon fill="none" stroke="#000000" stroke-dasharray="1,5" points="59,-70 59,-379.5901 437,-379.5901 437,-70 59,-70"/>
</g>
<g id="clust2" class="cluster">
<title>cluster_ComboBoxModule_declarations</title>
<polygon fill="none" stroke="#000000" points="333,-189.5901 333,-241.5901 429,-241.5901 429,-189.5901 333,-189.5901"/>
</g>
<g id="clust3" class="cluster">
<title>cluster_ComboBoxModule_ComboBox_providers</title>
<polygon fill="none" stroke="#000000" points="289,-78 289,-176.5901 429,-176.5901 429,-78 289,-78"/>
</g>
<g id="clust4" class="cluster">
<title>cluster_ComboBoxModule_imports</title>
<polygon fill="none" stroke="#000000" points="67,-189.5901 67,-241.5901 325,-241.5901 325,-189.5901 67,-189.5901"/>
</g>
<g id="clust5" class="cluster">
<title>cluster_ComboBoxModule_exports</title>
<polygon fill="none" stroke="#000000" points="213,-319.5901 213,-371.5901 313,-371.5901 313,-319.5901 213,-319.5901"/>
</g>
<!-- ComboBox -->
<g id="node1" class="node">
<title>ComboBox</title>
<polygon fill="#ffffb3" stroke="#000000" points="421.065,-233.5901 340.935,-233.5901 340.935,-197.5901 421.065,-197.5901 421.065,-233.5901"/>
<text text-anchor="middle" x="381" y="-211.3901" font-family="Times,serif" font-size="14.00" fill="#000000">ComboBox</text>
</g>
<!-- ComboBoxModule -->
<g id="node2" class="node">
<title>ComboBoxModule</title>
<polygon fill="#8dd3c7" stroke="#000000" points="325.1137,-298.5901 322.1137,-302.5901 301.1137,-302.5901 298.1137,-298.5901 200.8863,-298.5901 200.8863,-262.5901 325.1137,-262.5901 325.1137,-298.5901"/>
<text text-anchor="middle" x="263" y="-276.3901" font-family="Times,serif" font-size="14.00" fill="#000000">ComboBoxModule</text>
</g>
<!-- ComboBox&#45;&gt;ComboBoxModule -->
<g id="edge1" class="edge">
<title>ComboBox&#45;&gt;ComboBoxModule</title>
<path fill="none" stroke="#000000" d="M340.7587,-215.5901C329.9355,-215.5901 321.1672,-215.5901 321.1672,-215.5901 321.1672,-215.5901 321.1672,-252.4839 321.1672,-252.4839"/>
<polygon fill="#000000" stroke="#000000" points="317.6673,-252.4839 321.1672,-262.4839 324.6673,-252.484 317.6673,-252.4839"/>
</g>
<!-- ComboBox  -->
<g id="node6" class="node">
<title>ComboBox </title>
<polygon fill="#fb8072" stroke="#000000" points="305.0638,-363.5901 220.9362,-363.5901 220.9362,-327.5901 305.0638,-327.5901 305.0638,-363.5901"/>
<text text-anchor="middle" x="263" y="-341.3901" font-family="Times,serif" font-size="14.00" fill="#000000">ComboBox </text>
</g>
<!-- ComboBoxModule&#45;&gt;ComboBox  -->
<g id="edge5" class="edge">
<title>ComboBoxModule&#45;&gt;ComboBox </title>
<path fill="none" stroke="#000000" stroke-dasharray="5,2" d="M263,-298.6962C263,-298.6962 263,-317.581 263,-317.581"/>
<polygon fill="#000000" stroke="#000000" points="259.5001,-317.581 263,-327.581 266.5001,-317.5811 259.5001,-317.581"/>
</g>
<!-- {
 &#160;&#160;&#160;: , : , : true
} -->
<g id="node3" class="node">
<title>{
 &#160;&#160;&#160;: , : , : true
}</title>
<ellipse fill="#fdb462" stroke="#000000" cx="359" cy="-127.295" rx="62.3631" ry="41.0911"/>
<text text-anchor="middle" x="359" y="-139.895" font-family="Times,serif" font-size="14.00" fill="#000000">{</text>
<text text-anchor="middle" x="359" y="-123.095" font-family="Times,serif" font-size="14.00" fill="#000000"> &#160;&#160;&#160;: , : , : true</text>
<text text-anchor="middle" x="359" y="-106.295" font-family="Times,serif" font-size="14.00" fill="#000000">}</text>
</g>
<!-- {
 &#160;&#160;&#160;: , : , : true
}&#45;&gt;ComboBox -->
<g id="edge2" class="edge">
<title>{
 &#160;&#160;&#160;: , : , : true
}&#45;&gt;ComboBox</title>
<path fill="none" stroke="#000000" d="M380.9497,-166.0225C380.9497,-166.0225 380.9497,-187.4408 380.9497,-187.4408"/>
<polygon fill="#000000" stroke="#000000" points="377.4498,-187.4407 380.9497,-197.4408 384.4498,-187.4408 377.4498,-187.4407"/>
</g>
<!-- PillInputModule -->
<g id="node4" class="node">
<title>PillInputModule</title>
<polygon fill="#8dd3c7" stroke="#000000" points="317.0563,-233.5901 314.0563,-237.5901 293.0563,-237.5901 290.0563,-233.5901 208.9437,-233.5901 208.9437,-197.5901 317.0563,-197.5901 317.0563,-233.5901"/>
<text text-anchor="middle" x="263" y="-211.3901" font-family="Times,serif" font-size="14.00" fill="#000000">PillInputModule</text>
</g>
<!-- PillInputModule&#45;&gt;ComboBoxModule -->
<g id="edge3" class="edge">
<title>PillInputModule&#45;&gt;ComboBoxModule</title>
<path fill="none" stroke="#000000" d="M263,-233.6962C263,-233.6962 263,-252.581 263,-252.581"/>
<polygon fill="#000000" stroke="#000000" points="259.5001,-252.581 263,-262.581 266.5001,-252.5811 259.5001,-252.581"/>
</g>
<!-- StaticIconModule -->
<g id="node5" class="node">
<title>StaticIconModule</title>
<polygon fill="#8dd3c7" stroke="#000000" points="191.309,-233.5901 188.309,-237.5901 167.309,-237.5901 164.309,-233.5901 74.691,-233.5901 74.691,-197.5901 191.309,-197.5901 191.309,-233.5901"/>
<text text-anchor="middle" x="133" y="-211.3901" font-family="Times,serif" font-size="14.00" fill="#000000">StaticIconModule</text>
</g>
<!-- StaticIconModule&#45;&gt;ComboBoxModule -->
<g id="edge4" class="edge">
<title>StaticIconModule&#45;&gt;ComboBoxModule</title>
<path fill="none" stroke="#000000" d="M191.3216,-215.5901C199.3074,-215.5901 204.8328,-215.5901 204.8328,-215.5901 204.8328,-215.5901 204.8328,-252.4839 204.8328,-252.4839"/>
<polygon fill="#000000" stroke="#000000" points="201.3328,-252.4839 204.8328,-262.4839 208.3328,-252.484 201.3328,-252.4839"/>
</g>
</g>
</svg>
