<?xml version="1.0" encoding="UTF-8" standalone="no"?>
<!DOCTYPE svg PUBLIC "-//W3C//DTD SVG 1.1//EN"
 "http://www.w3.org/Graphics/SVG/1.1/DTD/svg11.dtd">
<!-- Generated by graphviz version 2.40.1 (20161225.0304)
 -->
<!-- Title: dependencies Pages: 1 -->
<svg width="684pt" height="396pt"
 viewBox="0.00 0.00 684.00 395.59" xmlns="http://www.w3.org/2000/svg" xmlns:xlink="http://www.w3.org/1999/xlink">
<g id="graph0" class="graph" transform="scale(1 1) rotate(0) translate(4 391.5901)">
<title>dependencies</title>
<polygon fill="#ffffff" stroke="transparent" points="-4,4 -4,-391.5901 680,-391.5901 680,4 -4,4"/>
<text text-anchor="start" x="317.0091" y="-42.4" font-family="sans-serif" font-weight="bold" font-size="14.00" fill="#000000">Legend</text>
<polygon fill="#ffffb3" stroke="transparent" points="104,-10 104,-30 124,-30 124,-10 104,-10"/>
<text text-anchor="start" x="127.629" y="-15.4" font-family="sans-serif" font-size="14.00" fill="#000000"> &#160;Declarations</text>
<polygon fill="#8dd3c7" stroke="transparent" points="217,-10 217,-30 237,-30 237,-10 217,-10"/>
<text text-anchor="start" x="240.7251" y="-15.4" font-family="sans-serif" font-size="14.00" fill="#000000"> &#160;Module</text>
<polygon fill="#80b1d3" stroke="transparent" points="303,-10 303,-30 323,-30 323,-10 303,-10"/>
<text text-anchor="start" x="326.7812" y="-15.4" font-family="sans-serif" font-size="14.00" fill="#000000"> &#160;Bootstrap</text>
<polygon fill="#fdb462" stroke="transparent" points="400,-10 400,-30 420,-30 420,-10 400,-10"/>
<text text-anchor="start" x="423.6732" y="-15.4" font-family="sans-serif" font-size="14.00" fill="#000000"> &#160;Providers</text>
<polygon fill="#fb8072" stroke="transparent" points="496,-10 496,-30 516,-30 516,-10 496,-10"/>
<text text-anchor="start" x="519.7258" y="-15.4" font-family="sans-serif" font-size="14.00" fill="#000000"> &#160;Exports</text>
<g id="clust1" class="cluster">
<title>cluster_ComboBoxModule</title>
<polygon fill="none" stroke="#000000" stroke-dasharray="1,5" points="8,-70 8,-379.5901 668,-379.5901 668,-70 8,-70"/>
</g>
<g id="clust2" class="cluster">
<title>cluster_ComboBoxModule_declarations</title>
<polygon fill="none" stroke="#000000" points="553,-189.5901 553,-241.5901 649,-241.5901 649,-189.5901 553,-189.5901"/>
</g>
<g id="clust3" class="cluster">
<title>cluster_ComboBoxModule_ComboBox_providers</title>
<polygon fill="none" stroke="#000000" points="16,-78 16,-176.5901 660,-176.5901 660,-78 16,-78"/>
</g>
<g id="clust4" class="cluster">
<title>cluster_ComboBoxModule_imports</title>
<polygon fill="none" stroke="#000000" points="202,-189.5901 202,-241.5901 545,-241.5901 545,-189.5901 202,-189.5901"/>
</g>
<g id="clust5" class="cluster">
<title>cluster_ComboBoxModule_exports</title>
<polygon fill="none" stroke="#000000" points="228,-319.5901 228,-371.5901 468,-371.5901 468,-319.5901 228,-319.5901"/>
</g>
<g id="clust7" class="cluster">
<title>cluster_ComboBoxModule_providers</title>
<polygon fill="none" stroke="#000000" points="16,-189.5901 16,-241.5901 194,-241.5901 194,-189.5901 16,-189.5901"/>
</g>
<!-- ComboBox -->
<g id="node1" class="node">
<title>ComboBox</title>
<polygon fill="#ffffb3" stroke="#000000" points="641.065,-233.5901 560.935,-233.5901 560.935,-197.5901 641.065,-197.5901 641.065,-233.5901"/>
<text text-anchor="middle" x="601" y="-211.3901" font-family="Times,serif" font-size="14.00" fill="#000000">ComboBox</text>
</g>
<!-- ComboBoxModule -->
<g id="node2" class="node">
<title>ComboBoxModule</title>
<polygon fill="#8dd3c7" stroke="#000000" points="419.1137,-298.5901 416.1137,-302.5901 395.1137,-302.5901 392.1137,-298.5901 294.8863,-298.5901 294.8863,-262.5901 419.1137,-262.5901 419.1137,-298.5901"/>
<text text-anchor="middle" x="357" y="-276.3901" font-family="Times,serif" font-size="14.00" fill="#000000">ComboBoxModule</text>
</g>
<!-- ComboBox&#45;&gt;ComboBoxModule -->
<g id="edge1" class="edge">
<title>ComboBox&#45;&gt;ComboBoxModule</title>
<path fill="none" stroke="#000000" d="M601,-233.6962C601,-252.9292 601,-280.5901 601,-280.5901 601,-280.5901 429.2028,-280.5901 429.2028,-280.5901"/>
<polygon fill="#000000" stroke="#000000" points="429.2029,-277.0902 419.2028,-280.5901 429.2028,-284.0902 429.2029,-277.0902"/>
</g>
<!-- ComboBox  -->
<g id="node7" class="node">
<title>ComboBox </title>
<polygon fill="#fb8072" stroke="#000000" points="460.0638,-363.5901 375.9362,-363.5901 375.9362,-327.5901 460.0638,-327.5901 460.0638,-363.5901"/>
<text text-anchor="middle" x="418" y="-341.3901" font-family="Times,serif" font-size="14.00" fill="#000000">ComboBox </text>
</g>
<!-- ComboBoxModule&#45;&gt;ComboBox  -->
<g id="edge6" class="edge">
<title>ComboBoxModule&#45;&gt;ComboBox </title>
<path fill="none" stroke="#000000" stroke-dasharray="5,2" d="M397.5125,-298.6962C397.5125,-298.6962 397.5125,-317.581 397.5125,-317.581"/>
<polygon fill="#000000" stroke="#000000" points="394.0125,-317.581 397.5125,-327.581 401.0125,-317.5811 394.0125,-317.581"/>
</g>
<!-- DropdownModule  -->
<g id="node8" class="node">
<title>DropdownModule </title>
<polygon fill="#fb8072" stroke="#000000" points="358.4236,-363.5901 235.5764,-363.5901 235.5764,-327.5901 358.4236,-327.5901 358.4236,-363.5901"/>
<text text-anchor="middle" x="297" y="-341.3901" font-family="Times,serif" font-size="14.00" fill="#000000">DropdownModule </text>
</g>
<!-- ComboBoxModule&#45;&gt;DropdownModule  -->
<g id="edge7" class="edge">
<title>ComboBoxModule&#45;&gt;DropdownModule </title>
<path fill="none" stroke="#000000" stroke-dasharray="5,2" d="M326.7025,-298.6962C326.7025,-298.6962 326.7025,-317.581 326.7025,-317.581"/>
<polygon fill="#000000" stroke="#000000" points="323.2026,-317.581 326.7025,-327.581 330.2026,-317.5811 323.2026,-317.581"/>
</g>
<!-- {
 &#160;&#160;&#160;provide: NG_VALUE_ACCESSOR, useExisting: ComboBox, multi: true
} -->
<g id="node3" class="node">
<title>{
 &#160;&#160;&#160;provide: NG_VALUE_ACCESSOR, useExisting: ComboBox, multi: true
}</title>
<ellipse fill="#fdb462" stroke="#000000" cx="338" cy="-127.295" rx="314.1043" ry="41.0911"/>
<text text-anchor="middle" x="338" y="-139.895" font-family="Times,serif" font-size="14.00" fill="#000000">{</text>
<text text-anchor="middle" x="338" y="-123.095" font-family="Times,serif" font-size="14.00" fill="#000000"> &#160;&#160;&#160;provide: NG_VALUE_ACCESSOR, useExisting: ComboBox, multi: true</text>
<text text-anchor="middle" x="338" y="-106.295" font-family="Times,serif" font-size="14.00" fill="#000000">}</text>
</g>
<!-- {
 &#160;&#160;&#160;provide: NG_VALUE_ACCESSOR, useExisting: ComboBox, multi: true
}&#45;&gt;ComboBox -->
<g id="edge2" class="edge">
<title>{
 &#160;&#160;&#160;provide: NG_VALUE_ACCESSOR, useExisting: ComboBox, multi: true
}&#45;&gt;ComboBox</title>
<path fill="none" stroke="#000000" d="M601,-150.0332C601,-150.0332 601,-187.3756 601,-187.3756"/>
<polygon fill="#000000" stroke="#000000" points="597.5001,-187.3756 601,-197.3756 604.5001,-187.3756 597.5001,-187.3756"/>
</g>
<!-- DropdownModule -->
<g id="node4" class="node">
<title>DropdownModule</title>
<polygon fill="#8dd3c7" stroke="#000000" points="536.9244,-233.5901 533.9244,-237.5901 512.9244,-237.5901 509.9244,-233.5901 417.0756,-233.5901 417.0756,-197.5901 536.9244,-197.5901 536.9244,-233.5901"/>
<text text-anchor="middle" x="477" y="-211.3901" font-family="Times,serif" font-size="14.00" fill="#000000">DropdownModule</text>
</g>
<!-- DropdownModule&#45;&gt;ComboBoxModule -->
<g id="edge3" class="edge">
<title>DropdownModule&#45;&gt;ComboBoxModule</title>
<path fill="none" stroke="#000000" d="M417.129,-215.5901C411.8453,-215.5901 408.4467,-215.5901 408.4467,-215.5901 408.4467,-215.5901 408.4467,-252.4839 408.4467,-252.4839"/>
<polygon fill="#000000" stroke="#000000" points="404.9468,-252.4839 408.4467,-262.4839 411.9468,-252.484 404.9468,-252.4839"/>
</g>
<!-- I18nModule -->
<g id="node5" class="node">
<title>I18nModule</title>
<polygon fill="#8dd3c7" stroke="#000000" points="399.7107,-233.5901 396.7107,-237.5901 375.7107,-237.5901 372.7107,-233.5901 314.2893,-233.5901 314.2893,-197.5901 399.7107,-197.5901 399.7107,-233.5901"/>
<text text-anchor="middle" x="357" y="-211.3901" font-family="Times,serif" font-size="14.00" fill="#000000">I18nModule</text>
</g>
<!-- I18nModule&#45;&gt;ComboBoxModule -->
<g id="edge4" class="edge">
<title>I18nModule&#45;&gt;ComboBoxModule</title>
<path fill="none" stroke="#000000" d="M357,-233.6962C357,-233.6962 357,-252.581 357,-252.581"/>
<polygon fill="#000000" stroke="#000000" points="353.5001,-252.581 357,-262.581 360.5001,-252.5811 353.5001,-252.581"/>
</g>
<!-- UtilsModule -->
<g id="node6" class="node">
<title>UtilsModule</title>
<polygon fill="#8dd3c7" stroke="#000000" points="296.2731,-233.5901 293.2731,-237.5901 272.2731,-237.5901 269.2731,-233.5901 209.7269,-233.5901 209.7269,-197.5901 296.2731,-197.5901 296.2731,-233.5901"/>
<text text-anchor="middle" x="253" y="-211.3901" font-family="Times,serif" font-size="14.00" fill="#000000">UtilsModule</text>
</g>
<!-- UtilsModule&#45;&gt;ComboBoxModule -->
<g id="edge5" class="edge">
<title>UtilsModule&#45;&gt;ComboBoxModule</title>
<path fill="none" stroke="#000000" d="M296.7394,-215.5901C301.9083,-215.5901 305.3906,-215.5901 305.3906,-215.5901 305.3906,-215.5901 305.3906,-252.4839 305.3906,-252.4839"/>
<polygon fill="#000000" stroke="#000000" points="301.8907,-252.4839 305.3906,-262.4839 308.8907,-252.484 301.8907,-252.4839"/>
</g>
<!-- DropdownService -->
<g id="node9" class="node">
<title>DropdownService</title>
<ellipse fill="#fdb462" stroke="#000000" cx="105" cy="-215.5901" rx="81.084" ry="18"/>
<text text-anchor="middle" x="105" y="-211.3901" font-family="Times,serif" font-size="14.00" fill="#000000">DropdownService</text>
</g>
<!-- DropdownService&#45;&gt;ComboBoxModule -->
<g id="edge8" class="edge">
<title>DropdownService&#45;&gt;ComboBoxModule</title>
<path fill="none" stroke="#000000" d="M105,-233.6962C105,-252.9292 105,-280.5901 105,-280.5901 105,-280.5901 284.7078,-280.5901 284.7078,-280.5901"/>
<polygon fill="#000000" stroke="#000000" points="284.7079,-284.0902 294.7078,-280.5901 284.7078,-277.0902 284.7079,-284.0902"/>
</g>
</g>
</svg>
