<?xml version="1.0" encoding="UTF-8" standalone="no"?>
<!DOCTYPE svg PUBLIC "-//W3C//DTD SVG 1.1//EN"
 "http://www.w3.org/Graphics/SVG/1.1/DTD/svg11.dtd">
<!-- Generated by graphviz version 2.40.1 (20161225.0304)
 -->
<!-- Title: dependencies Pages: 1 -->
<svg width="540pt" height="284pt"
 viewBox="0.00 0.00 540.00 284.00" xmlns="http://www.w3.org/2000/svg" xmlns:xlink="http://www.w3.org/1999/xlink">
<g id="graph0" class="graph" transform="scale(1 1) rotate(0) translate(4 280)">
<title>dependencies</title>
<polygon fill="#ffffff" stroke="transparent" points="-4,4 -4,-280 536,-280 536,4 -4,4"/>
<text text-anchor="start" x="245.0091" y="-42.4" font-family="sans-serif" font-weight="bold" font-size="14.00" fill="#000000">Legend</text>
<polygon fill="#ffffb3" stroke="transparent" points="32,-10 32,-30 52,-30 52,-10 32,-10"/>
<text text-anchor="start" x="55.629" y="-15.4" font-family="sans-serif" font-size="14.00" fill="#000000"> &#160;Declarations</text>
<polygon fill="#8dd3c7" stroke="transparent" points="145,-10 145,-30 165,-30 165,-10 145,-10"/>
<text text-anchor="start" x="168.7251" y="-15.4" font-family="sans-serif" font-size="14.00" fill="#000000"> &#160;Module</text>
<polygon fill="#80b1d3" stroke="transparent" points="231,-10 231,-30 251,-30 251,-10 231,-10"/>
<text text-anchor="start" x="254.7812" y="-15.4" font-family="sans-serif" font-size="14.00" fill="#000000"> &#160;Bootstrap</text>
<polygon fill="#fdb462" stroke="transparent" points="328,-10 328,-30 348,-30 348,-10 328,-10"/>
<text text-anchor="start" x="351.6732" y="-15.4" font-family="sans-serif" font-size="14.00" fill="#000000"> &#160;Providers</text>
<polygon fill="#fb8072" stroke="transparent" points="424,-10 424,-30 444,-30 444,-10 424,-10"/>
<text text-anchor="start" x="447.7258" y="-15.4" font-family="sans-serif" font-size="14.00" fill="#000000"> &#160;Exports</text>
<g id="clust1" class="cluster">
<title>cluster_ComboBoxModule</title>
<polygon fill="none" stroke="#000000" stroke-dasharray="1,5" points="8,-70 8,-268 524,-268 524,-70 8,-70"/>
</g>
<g id="clust2" class="cluster">
<title>cluster_ComboBoxModule_declarations</title>
<polygon fill="none" stroke="#000000" points="420,-78 420,-130 516,-130 516,-78 420,-78"/>
</g>
<g id="clust4" class="cluster">
<title>cluster_ComboBoxModule_imports</title>
<polygon fill="none" stroke="#000000" points="16,-78 16,-130 412,-130 412,-78 16,-78"/>
</g>
<g id="clust5" class="cluster">
<title>cluster_ComboBoxModule_exports</title>
<polygon fill="none" stroke="#000000" points="153,-208 153,-260 393,-260 393,-208 153,-208"/>
</g>
<!-- ComboBox -->
<g id="node1" class="node">
<title>ComboBox</title>
<polygon fill="#ffffb3" stroke="#000000" points="508.065,-122 427.935,-122 427.935,-86 508.065,-86 508.065,-122"/>
<text text-anchor="middle" x="468" y="-99.8" font-family="Times,serif" font-size="14.00" fill="#000000">ComboBox</text>
</g>
<!-- ComboBoxModule -->
<g id="node2" class="node">
<title>ComboBoxModule</title>
<polygon fill="#8dd3c7" stroke="#000000" points="344.1137,-187 341.1137,-191 320.1137,-191 317.1137,-187 219.8863,-187 219.8863,-151 344.1137,-151 344.1137,-187"/>
<text text-anchor="middle" x="282" y="-164.8" font-family="Times,serif" font-size="14.00" fill="#000000">ComboBoxModule</text>
</g>
<!-- ComboBox&#45;&gt;ComboBoxModule -->
<g id="edge1" class="edge">
<title>ComboBox&#45;&gt;ComboBoxModule</title>
<path fill="none" stroke="#000000" d="M468,-122.1061C468,-141.3391 468,-169 468,-169 468,-169 354.1939,-169 354.1939,-169"/>
<polygon fill="#000000" stroke="#000000" points="354.1939,-165.5001 344.1939,-169 354.1939,-172.5001 354.1939,-165.5001"/>
</g>
<!-- ComboBox  -->
<g id="node6" class="node">
<title>ComboBox </title>
<polygon fill="#fb8072" stroke="#000000" points="385.0638,-252 300.9362,-252 300.9362,-216 385.0638,-216 385.0638,-252"/>
<text text-anchor="middle" x="343" y="-229.8" font-family="Times,serif" font-size="14.00" fill="#000000">ComboBox </text>
</g>
<!-- ComboBoxModule&#45;&gt;ComboBox  -->
<g id="edge5" class="edge">
<title>ComboBoxModule&#45;&gt;ComboBox </title>
<path fill="none" stroke="#000000" stroke-dasharray="5,2" d="M322.5125,-187.1061C322.5125,-187.1061 322.5125,-205.991 322.5125,-205.991"/>
<polygon fill="#000000" stroke="#000000" points="319.0125,-205.9909 322.5125,-215.991 326.0125,-205.991 319.0125,-205.9909"/>
</g>
<!-- DropdownModule  -->
<g id="node7" class="node">
<title>DropdownModule </title>
<polygon fill="#fb8072" stroke="#000000" points="283.4236,-252 160.5764,-252 160.5764,-216 283.4236,-216 283.4236,-252"/>
<text text-anchor="middle" x="222" y="-229.8" font-family="Times,serif" font-size="14.00" fill="#000000">DropdownModule </text>
</g>
<!-- ComboBoxModule&#45;&gt;DropdownModule  -->
<g id="edge6" class="edge">
<title>ComboBoxModule&#45;&gt;DropdownModule </title>
<path fill="none" stroke="#000000" stroke-dasharray="5,2" d="M251.7025,-187.1061C251.7025,-187.1061 251.7025,-205.991 251.7025,-205.991"/>
<polygon fill="#000000" stroke="#000000" points="248.2026,-205.9909 251.7025,-215.991 255.2026,-205.991 248.2026,-205.9909"/>
</g>
<!-- PillInputModule -->
<g id="node3" class="node">
<title>PillInputModule</title>
<polygon fill="#8dd3c7" stroke="#000000" points="404.0563,-122 401.0563,-126 380.0563,-126 377.0563,-122 295.9437,-122 295.9437,-86 404.0563,-86 404.0563,-122"/>
<text text-anchor="middle" x="350" y="-99.8" font-family="Times,serif" font-size="14.00" fill="#000000">PillInputModule</text>
</g>
<!-- PillInputModule&#45;&gt;ComboBoxModule -->
<g id="edge2" class="edge">
<title>PillInputModule&#45;&gt;ComboBoxModule</title>
<path fill="none" stroke="#000000" d="M319.8896,-122.1061C319.8896,-122.1061 319.8896,-140.991 319.8896,-140.991"/>
<polygon fill="#000000" stroke="#000000" points="316.3896,-140.9909 319.8896,-150.991 323.3896,-140.991 316.3896,-140.9909"/>
</g>
<!-- StaticIconModule -->
<g id="node4" class="node">
<title>StaticIconModule</title>
<polygon fill="#8dd3c7" stroke="#000000" points="278.309,-122 275.309,-126 254.309,-126 251.309,-122 161.691,-122 161.691,-86 278.309,-86 278.309,-122"/>
<text text-anchor="middle" x="220" y="-99.8" font-family="Times,serif" font-size="14.00" fill="#000000">StaticIconModule</text>
</g>
<!-- StaticIconModule&#45;&gt;ComboBoxModule -->
<g id="edge3" class="edge">
<title>StaticIconModule&#45;&gt;ComboBoxModule</title>
<path fill="none" stroke="#000000" d="M249.0488,-122.1061C249.0488,-122.1061 249.0488,-140.991 249.0488,-140.991"/>
<polygon fill="#000000" stroke="#000000" points="245.5488,-140.9909 249.0488,-150.991 252.5488,-140.991 245.5488,-140.9909"/>
</g>
<!-- DropdownModule -->
<g id="node5" class="node">
<title>DropdownModule</title>
<polygon fill="#8dd3c7" stroke="#000000" points="143.9244,-122 140.9244,-126 119.9244,-126 116.9244,-122 24.0756,-122 24.0756,-86 143.9244,-86 143.9244,-122"/>
<text text-anchor="middle" x="84" y="-99.8" font-family="Times,serif" font-size="14.00" fill="#000000">DropdownModule</text>
</g>
<!-- DropdownModule&#45;&gt;ComboBoxModule -->
<g id="edge4" class="edge">
<title>DropdownModule&#45;&gt;ComboBoxModule</title>
<path fill="none" stroke="#000000" d="M84,-122.1061C84,-141.3391 84,-169 84,-169 84,-169 209.8948,-169 209.8948,-169"/>
<polygon fill="#000000" stroke="#000000" points="209.8949,-172.5001 219.8948,-169 209.8948,-165.5001 209.8949,-172.5001"/>
</g>
</g>
</svg>
