<?xml version="1.0" encoding="UTF-8" standalone="no"?>
<!DOCTYPE svg PUBLIC "-//W3C//DTD SVG 1.1//EN"
 "http://www.w3.org/Graphics/SVG/1.1/DTD/svg11.dtd">
<!-- Generated by graphviz version 2.40.1 (20161225.0304)
 -->
<!-- Title: dependencies Pages: 1 -->
<svg width="540pt" height="396pt"
 viewBox="0.00 0.00 540.00 395.59" xmlns="http://www.w3.org/2000/svg" xmlns:xlink="http://www.w3.org/1999/xlink">
<g id="graph0" class="graph" transform="scale(1 1) rotate(0) translate(4 391.5901)">
<title>dependencies</title>
<polygon fill="#ffffff" stroke="transparent" points="-4,4 -4,-391.5901 536,-391.5901 536,4 -4,4"/>
<text text-anchor="start" x="245.0091" y="-42.4" font-family="sans-serif" font-weight="bold" font-size="14.00" fill="#000000">Legend</text>
<polygon fill="#ffffb3" stroke="transparent" points="32,-10 32,-30 52,-30 52,-10 32,-10"/>
<text text-anchor="start" x="55.629" y="-15.4" font-family="sans-serif" font-size="14.00" fill="#000000"> &#160;Declarations</text>
<polygon fill="#8dd3c7" stroke="transparent" points="145,-10 145,-30 165,-30 165,-10 145,-10"/>
<text text-anchor="start" x="168.7251" y="-15.4" font-family="sans-serif" font-size="14.00" fill="#000000"> &#160;Module</text>
<polygon fill="#80b1d3" stroke="transparent" points="231,-10 231,-30 251,-30 251,-10 231,-10"/>
<text text-anchor="start" x="254.7812" y="-15.4" font-family="sans-serif" font-size="14.00" fill="#000000"> &#160;Bootstrap</text>
<polygon fill="#fdb462" stroke="transparent" points="328,-10 328,-30 348,-30 348,-10 328,-10"/>
<text text-anchor="start" x="351.6732" y="-15.4" font-family="sans-serif" font-size="14.00" fill="#000000"> &#160;Providers</text>
<polygon fill="#fb8072" stroke="transparent" points="424,-10 424,-30 444,-30 444,-10 424,-10"/>
<text text-anchor="start" x="447.7258" y="-15.4" font-family="sans-serif" font-size="14.00" fill="#000000"> &#160;Exports</text>
<g id="clust1" class="cluster">
<title>cluster_ComboBoxModule</title>
<polygon fill="none" stroke="#000000" stroke-dasharray="1,5" points="8,-70 8,-379.5901 524,-379.5901 524,-70 8,-70"/>
</g>
<g id="clust2" class="cluster">
<title>cluster_ComboBoxModule_declarations</title>
<polygon fill="none" stroke="#000000" points="420,-189.5901 420,-241.5901 516,-241.5901 516,-189.5901 420,-189.5901"/>
</g>
<g id="clust3" class="cluster">
<title>cluster_ComboBoxModule_ComboBox_providers</title>
<polygon fill="none" stroke="#000000" points="376,-78 376,-176.5901 516,-176.5901 516,-78 376,-78"/>
</g>
<g id="clust4" class="cluster">
<title>cluster_ComboBoxModule_imports</title>
<polygon fill="none" stroke="#000000" points="16,-189.5901 16,-241.5901 412,-241.5901 412,-189.5901 16,-189.5901"/>
</g>
<g id="clust5" class="cluster">
<title>cluster_ComboBoxModule_exports</title>
<polygon fill="none" stroke="#000000" points="153,-319.5901 153,-371.5901 393,-371.5901 393,-319.5901 153,-319.5901"/>
</g>
<!-- ComboBox -->
<g id="node1" class="node">
<title>ComboBox</title>
<polygon fill="#ffffb3" stroke="#000000" points="508.065,-233.5901 427.935,-233.5901 427.935,-197.5901 508.065,-197.5901 508.065,-233.5901"/>
<text text-anchor="middle" x="468" y="-211.3901" font-family="Times,serif" font-size="14.00" fill="#000000">ComboBox</text>
</g>
<!-- ComboBoxModule -->
<g id="node2" class="node">
<title>ComboBoxModule</title>
<polygon fill="#8dd3c7" stroke="#000000" points="344.1137,-298.5901 341.1137,-302.5901 320.1137,-302.5901 317.1137,-298.5901 219.8863,-298.5901 219.8863,-262.5901 344.1137,-262.5901 344.1137,-298.5901"/>
<text text-anchor="middle" x="282" y="-276.3901" font-family="Times,serif" font-size="14.00" fill="#000000">ComboBoxModule</text>
</g>
<!-- ComboBox&#45;&gt;ComboBoxModule -->
<g id="edge1" class="edge">
<title>ComboBox&#45;&gt;ComboBoxModule</title>
<path fill="none" stroke="#000000" d="M468,-233.6962C468,-252.9292 468,-280.5901 468,-280.5901 468,-280.5901 354.1939,-280.5901 354.1939,-280.5901"/>
<polygon fill="#000000" stroke="#000000" points="354.1939,-277.0902 344.1939,-280.5901 354.1939,-284.0902 354.1939,-277.0902"/>
</g>
<!-- ComboBox  -->
<g id="node7" class="node">
<title>ComboBox </title>
<polygon fill="#fb8072" stroke="#000000" points="385.0638,-363.5901 300.9362,-363.5901 300.9362,-327.5901 385.0638,-327.5901 385.0638,-363.5901"/>
<text text-anchor="middle" x="343" y="-341.3901" font-family="Times,serif" font-size="14.00" fill="#000000">ComboBox </text>
</g>
<!-- ComboBoxModule&#45;&gt;ComboBox  -->
<g id="edge6" class="edge">
<title>ComboBoxModule&#45;&gt;ComboBox </title>
<path fill="none" stroke="#000000" stroke-dasharray="5,2" d="M322.5125,-298.6962C322.5125,-298.6962 322.5125,-317.581 322.5125,-317.581"/>
<polygon fill="#000000" stroke="#000000" points="319.0125,-317.581 322.5125,-327.581 326.0125,-317.5811 319.0125,-317.581"/>
</g>
<!-- DropdownModule  -->
<g id="node8" class="node">
<title>DropdownModule </title>
<polygon fill="#fb8072" stroke="#000000" points="283.4236,-363.5901 160.5764,-363.5901 160.5764,-327.5901 283.4236,-327.5901 283.4236,-363.5901"/>
<text text-anchor="middle" x="222" y="-341.3901" font-family="Times,serif" font-size="14.00" fill="#000000">DropdownModule </text>
</g>
<!-- ComboBoxModule&#45;&gt;DropdownModule  -->
<g id="edge7" class="edge">
<title>ComboBoxModule&#45;&gt;DropdownModule </title>
<path fill="none" stroke="#000000" stroke-dasharray="5,2" d="M251.7025,-298.6962C251.7025,-298.6962 251.7025,-317.581 251.7025,-317.581"/>
<polygon fill="#000000" stroke="#000000" points="248.2026,-317.581 251.7025,-327.581 255.2026,-317.5811 248.2026,-317.581"/>
</g>
<!-- {
 &#160;&#160;&#160;: , : , : true
} -->
<g id="node3" class="node">
<title>{
 &#160;&#160;&#160;: , : , : true
}</title>
<ellipse fill="#fdb462" stroke="#000000" cx="446" cy="-127.295" rx="62.3631" ry="41.0911"/>
<text text-anchor="middle" x="446" y="-139.895" font-family="Times,serif" font-size="14.00" fill="#000000">{</text>
<text text-anchor="middle" x="446" y="-123.095" font-family="Times,serif" font-size="14.00" fill="#000000"> &#160;&#160;&#160;: , : , : true</text>
<text text-anchor="middle" x="446" y="-106.295" font-family="Times,serif" font-size="14.00" fill="#000000">}</text>
</g>
<!-- {
 &#160;&#160;&#160;: , : , : true
}&#45;&gt;ComboBox -->
<g id="edge2" class="edge">
<title>{
 &#160;&#160;&#160;: , : , : true
}&#45;&gt;ComboBox</title>
<path fill="none" stroke="#000000" d="M467.9497,-166.0225C467.9497,-166.0225 467.9497,-187.4408 467.9497,-187.4408"/>
<polygon fill="#000000" stroke="#000000" points="464.4498,-187.4407 467.9497,-197.4408 471.4498,-187.4408 464.4498,-187.4407"/>
</g>
<!-- PillInputModule -->
<g id="node4" class="node">
<title>PillInputModule</title>
<polygon fill="#8dd3c7" stroke="#000000" points="404.0563,-233.5901 401.0563,-237.5901 380.0563,-237.5901 377.0563,-233.5901 295.9437,-233.5901 295.9437,-197.5901 404.0563,-197.5901 404.0563,-233.5901"/>
<text text-anchor="middle" x="350" y="-211.3901" font-family="Times,serif" font-size="14.00" fill="#000000">PillInputModule</text>
</g>
<!-- PillInputModule&#45;&gt;ComboBoxModule -->
<g id="edge3" class="edge">
<title>PillInputModule&#45;&gt;ComboBoxModule</title>
<path fill="none" stroke="#000000" d="M319.8896,-233.6962C319.8896,-233.6962 319.8896,-252.581 319.8896,-252.581"/>
<polygon fill="#000000" stroke="#000000" points="316.3896,-252.581 319.8896,-262.581 323.3896,-252.5811 316.3896,-252.581"/>
</g>
<!-- StaticIconModule -->
<g id="node5" class="node">
<title>StaticIconModule</title>
<polygon fill="#8dd3c7" stroke="#000000" points="278.309,-233.5901 275.309,-237.5901 254.309,-237.5901 251.309,-233.5901 161.691,-233.5901 161.691,-197.5901 278.309,-197.5901 278.309,-233.5901"/>
<text text-anchor="middle" x="220" y="-211.3901" font-family="Times,serif" font-size="14.00" fill="#000000">StaticIconModule</text>
</g>
<!-- StaticIconModule&#45;&gt;ComboBoxModule -->
<g id="edge4" class="edge">
<title>StaticIconModule&#45;&gt;ComboBoxModule</title>
<path fill="none" stroke="#000000" d="M249.0488,-233.6962C249.0488,-233.6962 249.0488,-252.581 249.0488,-252.581"/>
<polygon fill="#000000" stroke="#000000" points="245.5488,-252.581 249.0488,-262.581 252.5488,-252.5811 245.5488,-252.581"/>
</g>
<!-- DropdownModule -->
<g id="node6" class="node">
<title>DropdownModule</title>
<polygon fill="#8dd3c7" stroke="#000000" points="143.9244,-233.5901 140.9244,-237.5901 119.9244,-237.5901 116.9244,-233.5901 24.0756,-233.5901 24.0756,-197.5901 143.9244,-197.5901 143.9244,-233.5901"/>
<text text-anchor="middle" x="84" y="-211.3901" font-family="Times,serif" font-size="14.00" fill="#000000">DropdownModule</text>
</g>
<!-- DropdownModule&#45;&gt;ComboBoxModule -->
<g id="edge5" class="edge">
<title>DropdownModule&#45;&gt;ComboBoxModule</title>
<path fill="none" stroke="#000000" d="M84,-233.6962C84,-252.9292 84,-280.5901 84,-280.5901 84,-280.5901 209.8948,-280.5901 209.8948,-280.5901"/>
<polygon fill="#000000" stroke="#000000" points="209.8949,-284.0902 219.8948,-280.5901 209.8948,-277.0902 209.8949,-284.0902"/>
</g>
</g>
</svg>
