<?xml version="1.0" encoding="UTF-8" standalone="no"?>
<!DOCTYPE svg PUBLIC "-//W3C//DTD SVG 1.1//EN"
 "http://www.w3.org/Graphics/SVG/1.1/DTD/svg11.dtd">
<!-- Generated by graphviz version 2.40.1 (20161225.0304)
 -->
<!-- Title: dependencies Pages: 1 -->
<svg width="504pt" height="284pt"
 viewBox="0.00 0.00 504.00 284.00" xmlns="http://www.w3.org/2000/svg" xmlns:xlink="http://www.w3.org/1999/xlink">
<g id="graph0" class="graph" transform="scale(1 1) rotate(0) translate(4 280)">
<title>dependencies</title>
<polygon fill="#ffffff" stroke="transparent" points="-4,4 -4,-280 500,-280 500,4 -4,4"/>
<text text-anchor="start" x="227.0091" y="-42.4" font-family="sans-serif" font-weight="bold" font-size="14.00" fill="#000000">Legend</text>
<polygon fill="#ffffb3" stroke="transparent" points="14,-10 14,-30 34,-30 34,-10 14,-10"/>
<text text-anchor="start" x="37.629" y="-15.4" font-family="sans-serif" font-size="14.00" fill="#000000"> &#160;Declarations</text>
<polygon fill="#8dd3c7" stroke="transparent" points="127,-10 127,-30 147,-30 147,-10 127,-10"/>
<text text-anchor="start" x="150.7251" y="-15.4" font-family="sans-serif" font-size="14.00" fill="#000000"> &#160;Module</text>
<polygon fill="#80b1d3" stroke="transparent" points="213,-10 213,-30 233,-30 233,-10 213,-10"/>
<text text-anchor="start" x="236.7812" y="-15.4" font-family="sans-serif" font-size="14.00" fill="#000000"> &#160;Bootstrap</text>
<polygon fill="#fdb462" stroke="transparent" points="310,-10 310,-30 330,-30 330,-10 310,-10"/>
<text text-anchor="start" x="333.6732" y="-15.4" font-family="sans-serif" font-size="14.00" fill="#000000"> &#160;Providers</text>
<polygon fill="#fb8072" stroke="transparent" points="406,-10 406,-30 426,-30 426,-10 406,-10"/>
<text text-anchor="start" x="429.7258" y="-15.4" font-family="sans-serif" font-size="14.00" fill="#000000"> &#160;Exports</text>
<g id="clust1" class="cluster">
<title>cluster_PlaceholderModule</title>
<polygon fill="none" stroke="#000000" stroke-dasharray="1,5" points="93,-70 93,-268 403,-268 403,-70 93,-70"/>
</g>
<g id="clust2" class="cluster">
<title>cluster_PlaceholderModule_declarations</title>
<polygon fill="none" stroke="#000000" points="297,-78 297,-130 395,-130 395,-78 297,-78"/>
</g>
<g id="clust5" class="cluster">
<title>cluster_PlaceholderModule_exports</title>
<polygon fill="none" stroke="#000000" points="212,-208 212,-260 314,-260 314,-208 212,-208"/>
</g>
<g id="clust7" class="cluster">
<title>cluster_PlaceholderModule_providers</title>
<polygon fill="none" stroke="#000000" points="101,-78 101,-130 289,-130 289,-78 101,-78"/>
</g>
<!-- Placeholder -->
<g id="node1" class="node">
<title>Placeholder</title>
<polygon fill="#ffffb3" stroke="#000000" points="387.0828,-122 304.9172,-122 304.9172,-86 387.0828,-86 387.0828,-122"/>
<text text-anchor="middle" x="346" y="-99.8" font-family="Times,serif" font-size="14.00" fill="#000000">Placeholder</text>
</g>
<!-- PlaceholderModule -->
<g id="node2" class="node">
<title>PlaceholderModule</title>
<polygon fill="#8dd3c7" stroke="#000000" points="325.6331,-187 322.6331,-191 301.6331,-191 298.6331,-187 200.3669,-187 200.3669,-151 325.6331,-151 325.6331,-187"/>
<text text-anchor="middle" x="263" y="-164.8" font-family="Times,serif" font-size="14.00" fill="#000000">PlaceholderModule</text>
</g>
<!-- Placeholder&#45;&gt;PlaceholderModule -->
<g id="edge1" class="edge">
<title>Placeholder&#45;&gt;PlaceholderModule</title>
<path fill="none" stroke="#000000" d="M315.3875,-122.1061C315.3875,-122.1061 315.3875,-140.991 315.3875,-140.991"/>
<polygon fill="#000000" stroke="#000000" points="311.8875,-140.9909 315.3875,-150.991 318.8875,-140.991 311.8875,-140.9909"/>
</g>
<!-- Placeholder  -->
<g id="node3" class="node">
<title>Placeholder </title>
<polygon fill="#fb8072" stroke="#000000" points="305.5838,-252 220.4162,-252 220.4162,-216 305.5838,-216 305.5838,-252"/>
<text text-anchor="middle" x="263" y="-229.8" font-family="Times,serif" font-size="14.00" fill="#000000">Placeholder </text>
</g>
<!-- PlaceholderModule&#45;&gt;Placeholder  -->
<g id="edge2" class="edge">
<title>PlaceholderModule&#45;&gt;Placeholder </title>
<path fill="none" stroke="#000000" stroke-dasharray="5,2" d="M263,-187.1061C263,-187.1061 263,-205.991 263,-205.991"/>
<polygon fill="#000000" stroke="#000000" points="259.5001,-205.9909 263,-215.991 266.5001,-205.991 259.5001,-205.9909"/>
</g>
<!-- PlaceholderService -->
<g id="node4" class="node">
<title>PlaceholderService</title>
<ellipse fill="#fdb462" stroke="#000000" cx="195" cy="-104" rx="85.6493" ry="18"/>
<text text-anchor="middle" x="195" y="-99.8" font-family="Times,serif" font-size="14.00" fill="#000000">PlaceholderService</text>
</g>
<!-- PlaceholderService&#45;&gt;PlaceholderModule -->
<g id="edge3" class="edge">
<title>PlaceholderService&#45;&gt;PlaceholderModule</title>
<path fill="none" stroke="#000000" d="M240.3792,-119.4041C240.3792,-119.4041 240.3792,-140.9397 240.3792,-140.9397"/>
<polygon fill="#000000" stroke="#000000" points="236.8793,-140.9397 240.3792,-150.9397 243.8793,-140.9398 236.8793,-140.9397"/>
</g>
</g>
</svg>
