<?xml version="1.0" encoding="UTF-8" standalone="no"?>
<!DOCTYPE svg PUBLIC "-//W3C//DTD SVG 1.1//EN"
 "http://www.w3.org/Graphics/SVG/1.1/DTD/svg11.dtd">
<!-- Generated by graphviz version 2.47.0 (20210316.0004)
 -->
<!-- Title: dependencies Pages: 1 -->
<svg width="1026pt" height="349pt"
 viewBox="0.00 0.00 1026.00 349.00" xmlns="http://www.w3.org/2000/svg" xmlns:xlink="http://www.w3.org/1999/xlink">
<g id="graph0" class="graph" transform="scale(1 1) rotate(0) translate(4 345)">
<title>dependencies</title>
<polygon fill="white" stroke="transparent" points="-4,4 -4,-345 1022,-345 1022,4 -4,4"/>
<text text-anchor="start" x="488.01" y="-42.4" font-family="Times-12" font-weight="bold" font-size="14.00">Legend</text>
<polygon fill="#ffffb3" stroke="transparent" points="275,-10 275,-30 295,-30 295,-10 275,-10"/>
<text text-anchor="start" x="298.63" y="-15.4" font-family="Times-12" font-size="14.00"> &#160;Declarations</text>
<polygon fill="#8dd3c7" stroke="transparent" points="388,-10 388,-30 408,-30 408,-10 388,-10"/>
<text text-anchor="start" x="411.73" y="-15.4" font-family="Times-12" font-size="14.00"> &#160;Module</text>
<polygon fill="#80b1d3" stroke="transparent" points="474,-10 474,-30 494,-30 494,-10 474,-10"/>
<text text-anchor="start" x="497.78" y="-15.4" font-family="Times-12" font-size="14.00"> &#160;Bootstrap</text>
<polygon fill="#fdb462" stroke="transparent" points="571,-10 571,-30 591,-30 591,-10 571,-10"/>
<text text-anchor="start" x="594.67" y="-15.4" font-family="Times-12" font-size="14.00"> &#160;Providers</text>
<polygon fill="#fb8072" stroke="transparent" points="667,-10 667,-30 687,-30 687,-10 667,-10"/>
<text text-anchor="start" x="690.73" y="-15.4" font-family="Times-12" font-size="14.00"> &#160;Exports</text>
<g id="clust1" class="cluster">
<title>cluster_ContextMenuModule</title>
<polygon fill="none" stroke="black" stroke-dasharray="1,5" points="8,-70 8,-333 1010,-333 1010,-70 8,-70"/>
</g>
<g id="clust7" class="cluster">
<title>cluster_ContextMenuModule_imports</title>
<polygon fill="none" stroke="black" points="902,-143 902,-195 1002,-195 1002,-143 902,-143"/>
</g>
<g id="clust8" class="cluster">
<title>cluster_ContextMenuModule_exports</title>
<polygon fill="none" stroke="black" points="98,-273 98,-325 920,-325 920,-273 98,-273"/>
</g>
<g id="clust5" class="cluster">
<title>cluster_ContextMenuModule_ContextMenuGroupComponent_providers</title>
<polygon fill="none" stroke="black" points="620,-78 620,-195 894,-195 894,-78 620,-78"/>
</g>
<g id="clust2" class="cluster">
<title>cluster_ContextMenuModule_declarations</title>
<polygon fill="none" stroke="black" points="16,-143 16,-195 612,-195 612,-143 16,-143"/>
</g>
<!-- ContextMenuComponent -->
<g id="node1" class="node">
<title>ContextMenuComponent</title>
<polygon fill="#ffffb3" stroke="black" points="604.32,-187 445.68,-187 445.68,-151 604.32,-151 604.32,-187"/>
<text text-anchor="middle" x="525" y="-164.8" font-family="Times,serif" font-size="14.00">ContextMenuComponent</text>
</g>
<!-- ContextMenuModule -->
<g id="node5" class="node">
<title>ContextMenuModule</title>
<polygon fill="#8dd3c7" stroke="black" points="593.04,-252 590.04,-256 569.04,-256 566.04,-252 456.96,-252 456.96,-216 593.04,-216 593.04,-252"/>
<text text-anchor="middle" x="525" y="-229.8" font-family="Times,serif" font-size="14.00">ContextMenuModule</text>
</g>
<!-- ContextMenuComponent&#45;&gt;ContextMenuModule -->
<g id="edge1" class="edge">
<title>ContextMenuComponent&#45;&gt;ContextMenuModule</title>
<path fill="none" stroke="black" d="M525,-187.11C525,-187.11 525,-205.99 525,-205.99"/>
<polygon fill="black" stroke="black" points="521.5,-205.99 525,-215.99 528.5,-205.99 521.5,-205.99"/>
</g>
<!-- ContextMenuDividerComponent -->
<g id="node2" class="node">
<title>ContextMenuDividerComponent</title>
<polygon fill="#ffffb3" stroke="black" points="427.59,-187 226.41,-187 226.41,-151 427.59,-151 427.59,-187"/>
<text text-anchor="middle" x="327" y="-164.8" font-family="Times,serif" font-size="14.00">ContextMenuDividerComponent</text>
</g>
<!-- ContextMenuDividerComponent&#45;&gt;ContextMenuModule -->
<g id="edge2" class="edge">
<title>ContextMenuDividerComponent&#45;&gt;ContextMenuModule</title>
<path fill="none" stroke="black" d="M369.87,-187.03C369.87,-203.4 369.87,-225 369.87,-225 369.87,-225 446.51,-225 446.51,-225"/>
<polygon fill="black" stroke="black" points="446.51,-228.5 456.51,-225 446.51,-221.5 446.51,-228.5"/>
</g>
<!-- ContextMenuGroupComponent -->
<g id="node3" class="node">
<title>ContextMenuGroupComponent</title>
<polygon fill="#ffffb3" stroke="black" points="838.09,-187 643.91,-187 643.91,-151 838.09,-151 838.09,-187"/>
<text text-anchor="middle" x="741" y="-164.8" font-family="Times,serif" font-size="14.00">ContextMenuGroupComponent</text>
</g>
<!-- ContextMenuGroupComponent&#45;&gt;ContextMenuModule -->
<g id="edge3" class="edge">
<title>ContextMenuGroupComponent&#45;&gt;ContextMenuModule</title>
<path fill="none" stroke="black" d="M688.12,-187.03C688.12,-203.4 688.12,-225 688.12,-225 688.12,-225 603.23,-225 603.23,-225"/>
<polygon fill="black" stroke="black" points="603.23,-221.5 593.23,-225 603.23,-228.5 603.23,-221.5"/>
</g>
<!-- ContextMenuItemComponent -->
<g id="node4" class="node">
<title>ContextMenuItemComponent</title>
<polygon fill="#ffffb3" stroke="black" points="207.98,-187 24.02,-187 24.02,-151 207.98,-151 207.98,-187"/>
<text text-anchor="middle" x="116" y="-164.8" font-family="Times,serif" font-size="14.00">ContextMenuItemComponent</text>
</g>
<!-- ContextMenuItemComponent&#45;&gt;ContextMenuModule -->
<g id="edge5" class="edge">
<title>ContextMenuItemComponent&#45;&gt;ContextMenuModule</title>
<path fill="none" stroke="black" d="M157.12,-187.11C157.12,-206.34 157.12,-234 157.12,-234 157.12,-234 446.67,-234 446.67,-234"/>
<polygon fill="black" stroke="black" points="446.67,-237.5 456.67,-234 446.67,-230.5 446.67,-237.5"/>
</g>
<!-- ContextMenuComponent  -->
<g id="node8" class="node">
<title>ContextMenuComponent </title>
<polygon fill="#fb8072" stroke="black" points="911.82,-317 750.18,-317 750.18,-281 911.82,-281 911.82,-317"/>
<text text-anchor="middle" x="831" y="-294.8" font-family="Times,serif" font-size="14.00">ContextMenuComponent </text>
</g>
<!-- ContextMenuModule&#45;&gt;ContextMenuComponent  -->
<g id="edge7" class="edge">
<title>ContextMenuModule&#45;&gt;ContextMenuComponent </title>
<path fill="none" stroke="black" stroke-dasharray="5,2" d="M593.24,-243C672.96,-243 794.07,-243 794.07,-243 794.07,-243 794.07,-270.97 794.07,-270.97"/>
<polygon fill="black" stroke="black" points="790.57,-270.97 794.07,-280.97 797.57,-270.97 790.57,-270.97"/>
</g>
<!-- ContextMenuDividerComponent  -->
<g id="node9" class="node">
<title>ContextMenuDividerComponent </title>
<polygon fill="#fb8072" stroke="black" points="732.09,-317 527.91,-317 527.91,-281 732.09,-281 732.09,-317"/>
<text text-anchor="middle" x="630" y="-294.8" font-family="Times,serif" font-size="14.00">ContextMenuDividerComponent </text>
</g>
<!-- ContextMenuModule&#45;&gt;ContextMenuDividerComponent  -->
<g id="edge8" class="edge">
<title>ContextMenuModule&#45;&gt;ContextMenuDividerComponent </title>
<path fill="none" stroke="black" stroke-dasharray="5,2" d="M560.49,-252.11C560.49,-252.11 560.49,-270.99 560.49,-270.99"/>
<polygon fill="black" stroke="black" points="556.99,-270.99 560.49,-280.99 563.99,-270.99 556.99,-270.99"/>
</g>
<!-- ContextMenuGroupComponent  -->
<g id="node10" class="node">
<title>ContextMenuGroupComponent </title>
<polygon fill="#fb8072" stroke="black" points="509.59,-317 312.41,-317 312.41,-281 509.59,-281 509.59,-317"/>
<text text-anchor="middle" x="411" y="-294.8" font-family="Times,serif" font-size="14.00">ContextMenuGroupComponent </text>
</g>
<!-- ContextMenuModule&#45;&gt;ContextMenuGroupComponent  -->
<g id="edge9" class="edge">
<title>ContextMenuModule&#45;&gt;ContextMenuGroupComponent </title>
<path fill="none" stroke="black" stroke-dasharray="5,2" d="M483.26,-252.11C483.26,-252.11 483.26,-270.99 483.26,-270.99"/>
<polygon fill="black" stroke="black" points="479.76,-270.99 483.26,-280.99 486.76,-270.99 479.76,-270.99"/>
</g>
<!-- ContextMenuItemComponent  -->
<g id="node11" class="node">
<title>ContextMenuItemComponent </title>
<polygon fill="#fb8072" stroke="black" points="293.98,-317 106.02,-317 106.02,-281 293.98,-281 293.98,-317"/>
<text text-anchor="middle" x="200" y="-294.8" font-family="Times,serif" font-size="14.00">ContextMenuItemComponent </text>
</g>
<!-- ContextMenuModule&#45;&gt;ContextMenuItemComponent  -->
<g id="edge10" class="edge">
<title>ContextMenuModule&#45;&gt;ContextMenuItemComponent </title>
<path fill="none" stroke="black" stroke-dasharray="5,2" d="M456.78,-243C378.29,-243 260.1,-243 260.1,-243 260.1,-243 260.1,-270.97 260.1,-270.97"/>
<polygon fill="black" stroke="black" points="256.6,-270.97 260.1,-280.97 263.6,-270.97 256.6,-270.97"/>
</g>
<!-- ContextMenuSelectionService -->
<g id="node6" class="node">
<title>ContextMenuSelectionService</title>
<ellipse fill="#fdb462" stroke="black" cx="757" cy="-104" rx="129.07" ry="18"/>
<text text-anchor="middle" x="757" y="-99.8" font-family="Times,serif" font-size="14.00">ContextMenuSelectionService</text>
</g>
<!-- ContextMenuSelectionService&#45;&gt;ContextMenuGroupComponent -->
<g id="edge4" class="edge">
<title>ContextMenuSelectionService&#45;&gt;ContextMenuGroupComponent</title>
<path fill="none" stroke="black" d="M741,-122.11C741,-122.11 741,-140.99 741,-140.99"/>
<polygon fill="black" stroke="black" points="737.5,-140.99 741,-150.99 744.5,-140.99 737.5,-140.99"/>
</g>
<!-- IconModule -->
<g id="node7" class="node">
<title>IconModule</title>
<polygon fill="#8dd3c7" stroke="black" points="994.43,-187 991.43,-191 970.43,-191 967.43,-187 909.57,-187 909.57,-151 994.43,-151 994.43,-187"/>
<text text-anchor="middle" x="952" y="-164.8" font-family="Times,serif" font-size="14.00">IconModule</text>
</g>
<!-- IconModule&#45;&gt;ContextMenuModule -->
<g id="edge6" class="edge">
<title>IconModule&#45;&gt;ContextMenuModule</title>
<path fill="none" stroke="black" d="M953.06,-187.11C953.06,-206.34 953.06,-234 953.06,-234 953.06,-234 603.3,-234 603.3,-234"/>
<polygon fill="black" stroke="black" points="603.3,-230.5 593.3,-234 603.3,-237.5 603.3,-230.5"/>
</g>
</g>
</svg>
