<?xml version="1.0" encoding="UTF-8" standalone="no"?>
<!DOCTYPE svg PUBLIC "-//W3C//DTD SVG 1.1//EN"
 "http://www.w3.org/Graphics/SVG/1.1/DTD/svg11.dtd">
<!-- Generated by graphviz version 2.40.1 (20161225.0304)
 -->
<!-- Title: dependencies Pages: 1 -->
<svg width="757pt" height="396pt"
 viewBox="0.00 0.00 757.00 395.59" xmlns="http://www.w3.org/2000/svg" xmlns:xlink="http://www.w3.org/1999/xlink">
<g id="graph0" class="graph" transform="scale(1 1) rotate(0) translate(4 391.5901)">
<title>dependencies</title>
<polygon fill="#ffffff" stroke="transparent" points="-4,4 -4,-391.5901 753,-391.5901 753,4 -4,4"/>
<text text-anchor="start" x="353.5091" y="-42.4" font-family="sans-serif" font-weight="bold" font-size="14.00" fill="#000000">Legend</text>
<polygon fill="#ffffb3" stroke="transparent" points="140.5,-10 140.5,-30 160.5,-30 160.5,-10 140.5,-10"/>
<text text-anchor="start" x="164.129" y="-15.4" font-family="sans-serif" font-size="14.00" fill="#000000"> &#160;Declarations</text>
<polygon fill="#8dd3c7" stroke="transparent" points="253.5,-10 253.5,-30 273.5,-30 273.5,-10 253.5,-10"/>
<text text-anchor="start" x="277.2251" y="-15.4" font-family="sans-serif" font-size="14.00" fill="#000000"> &#160;Module</text>
<polygon fill="#80b1d3" stroke="transparent" points="339.5,-10 339.5,-30 359.5,-30 359.5,-10 339.5,-10"/>
<text text-anchor="start" x="363.2812" y="-15.4" font-family="sans-serif" font-size="14.00" fill="#000000"> &#160;Bootstrap</text>
<polygon fill="#fdb462" stroke="transparent" points="436.5,-10 436.5,-30 456.5,-30 456.5,-10 436.5,-10"/>
<text text-anchor="start" x="460.1732" y="-15.4" font-family="sans-serif" font-size="14.00" fill="#000000"> &#160;Providers</text>
<polygon fill="#fb8072" stroke="transparent" points="532.5,-10 532.5,-30 552.5,-30 552.5,-10 532.5,-10"/>
<text text-anchor="start" x="556.2258" y="-15.4" font-family="sans-serif" font-size="14.00" fill="#000000"> &#160;Exports</text>
<g id="clust1" class="cluster">
<title>cluster_TilesModule</title>
<polygon fill="none" stroke="#000000" stroke-dasharray="1,5" points="8,-70 8,-379.5901 741,-379.5901 741,-70 8,-70"/>
</g>
<g id="clust2" class="cluster">
<title>cluster_TilesModule_declarations</title>
<polygon fill="none" stroke="#000000" points="230,-189.5901 230,-241.5901 733,-241.5901 733,-189.5901 230,-189.5901"/>
</g>
<g id="clust7" class="cluster">
<title>cluster_TilesModule_TileGroup_providers</title>
<polygon fill="none" stroke="#000000" points="16,-78 16,-176.5901 652,-176.5901 652,-78 16,-78"/>
</g>
<g id="clust8" class="cluster">
<title>cluster_TilesModule_imports</title>
<polygon fill="none" stroke="#000000" points="16,-189.5901 16,-241.5901 222,-241.5901 222,-189.5901 16,-189.5901"/>
</g>
<g id="clust9" class="cluster">
<title>cluster_TilesModule_exports</title>
<polygon fill="none" stroke="#000000" points="134,-319.5901 134,-371.5901 652,-371.5901 652,-319.5901 134,-319.5901"/>
</g>
<!-- ClickableTile -->
<g id="node1" class="node">
<title>ClickableTile</title>
<polygon fill="#ffffb3" stroke="#000000" points="725.2008,-233.5901 632.7992,-233.5901 632.7992,-197.5901 725.2008,-197.5901 725.2008,-233.5901"/>
<text text-anchor="middle" x="679" y="-211.3901" font-family="Times,serif" font-size="14.00" fill="#000000">ClickableTile</text>
</g>
<!-- TilesModule -->
<g id="node6" class="node">
<title>TilesModule</title>
<polygon fill="#8dd3c7" stroke="#000000" points="400.544,-298.5901 397.544,-302.5901 376.544,-302.5901 373.544,-298.5901 313.456,-298.5901 313.456,-262.5901 400.544,-262.5901 400.544,-298.5901"/>
<text text-anchor="middle" x="357" y="-276.3901" font-family="Times,serif" font-size="14.00" fill="#000000">TilesModule</text>
</g>
<!-- ClickableTile&#45;&gt;TilesModule -->
<g id="edge1" class="edge">
<title>ClickableTile&#45;&gt;TilesModule</title>
<path fill="none" stroke="#000000" d="M638.375,-233.8568C638.375,-252.1452 638.375,-277.5901 638.375,-277.5901 638.375,-277.5901 410.6561,-277.5901 410.6561,-277.5901"/>
<polygon fill="#000000" stroke="#000000" points="410.6562,-274.0902 400.6561,-277.5901 410.6561,-281.0902 410.6562,-274.0902"/>
</g>
<!-- ExpandableTile -->
<g id="node2" class="node">
<title>ExpandableTile</title>
<polygon fill="#ffffb3" stroke="#000000" points="615.136,-233.5901 510.864,-233.5901 510.864,-197.5901 615.136,-197.5901 615.136,-233.5901"/>
<text text-anchor="middle" x="563" y="-211.3901" font-family="Times,serif" font-size="14.00" fill="#000000">ExpandableTile</text>
</g>
<!-- ExpandableTile&#45;&gt;TilesModule -->
<g id="edge2" class="edge">
<title>ExpandableTile&#45;&gt;TilesModule</title>
<path fill="none" stroke="#000000" d="M520.375,-233.5991C520.375,-249.6394 520.375,-270.5901 520.375,-270.5901 520.375,-270.5901 410.7815,-270.5901 410.7815,-270.5901"/>
<polygon fill="#000000" stroke="#000000" points="410.7815,-267.0902 400.7815,-270.5901 410.7815,-274.0902 410.7815,-267.0902"/>
</g>
<!-- SelectionTile -->
<g id="node3" class="node">
<title>SelectionTile</title>
<polygon fill="#ffffb3" stroke="#000000" points="492.1473,-233.5901 401.8527,-233.5901 401.8527,-197.5901 492.1473,-197.5901 492.1473,-233.5901"/>
<text text-anchor="middle" x="447" y="-211.3901" font-family="Times,serif" font-size="14.00" fill="#000000">SelectionTile</text>
</g>
<!-- SelectionTile&#45;&gt;TilesModule -->
<g id="edge3" class="edge">
<title>SelectionTile&#45;&gt;TilesModule</title>
<path fill="none" stroke="#000000" d="M401.4041,-215.5901C396.0158,-215.5901 392.3857,-215.5901 392.3857,-215.5901 392.3857,-215.5901 392.3857,-252.4839 392.3857,-252.4839"/>
<polygon fill="#000000" stroke="#000000" points="388.8858,-252.4839 392.3857,-262.4839 395.8858,-252.484 388.8858,-252.4839"/>
</g>
<!-- Tile -->
<g id="node4" class="node">
<title>Tile</title>
<polygon fill="#ffffb3" stroke="#000000" points="384,-233.5901 330,-233.5901 330,-197.5901 384,-197.5901 384,-233.5901"/>
<text text-anchor="middle" x="357" y="-211.3901" font-family="Times,serif" font-size="14.00" fill="#000000">Tile</text>
</g>
<!-- Tile&#45;&gt;TilesModule -->
<g id="edge4" class="edge">
<title>Tile&#45;&gt;TilesModule</title>
<path fill="none" stroke="#000000" d="M357,-233.6962C357,-233.6962 357,-252.581 357,-252.581"/>
<polygon fill="#000000" stroke="#000000" points="353.5001,-252.581 357,-262.581 360.5001,-252.5811 353.5001,-252.581"/>
</g>
<!-- TileGroup -->
<g id="node5" class="node">
<title>TileGroup</title>
<polygon fill="#ffffb3" stroke="#000000" points="312.3163,-233.5901 237.6837,-233.5901 237.6837,-197.5901 312.3163,-197.5901 312.3163,-233.5901"/>
<text text-anchor="middle" x="275" y="-211.3901" font-family="Times,serif" font-size="14.00" fill="#000000">TileGroup</text>
</g>
<!-- TileGroup&#45;&gt;TilesModule -->
<g id="edge5" class="edge">
<title>TileGroup&#45;&gt;TilesModule</title>
<path fill="none" stroke="#000000" d="M312.1812,-215.5901C317.7193,-215.5901 321.6143,-215.5901 321.6143,-215.5901 321.6143,-215.5901 321.6143,-252.4839 321.6143,-252.4839"/>
<polygon fill="#000000" stroke="#000000" points="318.1144,-252.4839 321.6143,-262.4839 325.1144,-252.484 318.1144,-252.4839"/>
</g>
<!-- ClickableTile  -->
<g id="node10" class="node">
<title>ClickableTile </title>
<polygon fill="#fb8072" stroke="#000000" points="643.7011,-363.5901 548.2989,-363.5901 548.2989,-327.5901 643.7011,-327.5901 643.7011,-363.5901"/>
<text text-anchor="middle" x="596" y="-341.3901" font-family="Times,serif" font-size="14.00" fill="#000000">ClickableTile </text>
</g>
<!-- TilesModule&#45;&gt;ClickableTile  -->
<g id="edge9" class="edge">
<title>TilesModule&#45;&gt;ClickableTile </title>
<path fill="none" stroke="#000000" stroke-dasharray="5,2" d="M400.5974,-284.5901C465.9512,-284.5901 581.7337,-284.5901 581.7337,-284.5901 581.7337,-284.5901 581.7337,-317.2881 581.7337,-317.2881"/>
<polygon fill="#000000" stroke="#000000" points="578.2338,-317.288 581.7337,-327.2881 585.2338,-317.2881 578.2338,-317.288"/>
</g>
<!-- ExpandableTile  -->
<g id="node11" class="node">
<title>ExpandableTile </title>
<polygon fill="#fb8072" stroke="#000000" points="530.1355,-363.5901 421.8645,-363.5901 421.8645,-327.5901 530.1355,-327.5901 530.1355,-363.5901"/>
<text text-anchor="middle" x="476" y="-341.3901" font-family="Times,serif" font-size="14.00" fill="#000000">ExpandableTile </text>
</g>
<!-- TilesModule&#45;&gt;ExpandableTile  -->
<g id="edge10" class="edge">
<title>TilesModule&#45;&gt;ExpandableTile </title>
<path fill="none" stroke="#000000" stroke-dasharray="5,2" d="M400.6262,-291.5901C427.6086,-291.5901 457.1278,-291.5901 457.1278,-291.5901 457.1278,-291.5901 457.1278,-317.3081 457.1278,-317.3081"/>
<polygon fill="#000000" stroke="#000000" points="453.6279,-317.3081 457.1278,-327.3081 460.6279,-317.3082 453.6279,-317.3081"/>
</g>
<!-- SelectionTile  -->
<g id="node12" class="node">
<title>SelectionTile </title>
<polygon fill="#fb8072" stroke="#000000" points="404.1467,-363.5901 309.8533,-363.5901 309.8533,-327.5901 404.1467,-327.5901 404.1467,-363.5901"/>
<text text-anchor="middle" x="357" y="-341.3901" font-family="Times,serif" font-size="14.00" fill="#000000">SelectionTile </text>
</g>
<!-- TilesModule&#45;&gt;SelectionTile  -->
<g id="edge11" class="edge">
<title>TilesModule&#45;&gt;SelectionTile </title>
<path fill="none" stroke="#000000" stroke-dasharray="5,2" d="M357,-298.6962C357,-298.6962 357,-317.581 357,-317.581"/>
<polygon fill="#000000" stroke="#000000" points="353.5001,-317.581 357,-327.581 360.5001,-317.5811 353.5001,-317.581"/>
</g>
<!-- Tile  -->
<g id="node13" class="node">
<title>Tile </title>
<polygon fill="#fb8072" stroke="#000000" points="292,-363.5901 238,-363.5901 238,-327.5901 292,-327.5901 292,-363.5901"/>
<text text-anchor="middle" x="265" y="-341.3901" font-family="Times,serif" font-size="14.00" fill="#000000">Tile </text>
</g>
<!-- TilesModule&#45;&gt;Tile  -->
<g id="edge12" class="edge">
<title>TilesModule&#45;&gt;Tile </title>
<path fill="none" stroke="#000000" stroke-dasharray="5,2" d="M313.4248,-291.5901C289.6456,-291.5901 265,-291.5901 265,-291.5901 265,-291.5901 265,-317.3081 265,-317.3081"/>
<polygon fill="#000000" stroke="#000000" points="261.5001,-317.3081 265,-327.3081 268.5001,-317.3082 261.5001,-317.3081"/>
</g>
<!-- TileGroup  -->
<g id="node14" class="node">
<title>TileGroup </title>
<polygon fill="#fb8072" stroke="#000000" points="219.8158,-363.5901 142.1842,-363.5901 142.1842,-327.5901 219.8158,-327.5901 219.8158,-363.5901"/>
<text text-anchor="middle" x="181" y="-341.3901" font-family="Times,serif" font-size="14.00" fill="#000000">TileGroup </text>
</g>
<!-- TilesModule&#45;&gt;TileGroup  -->
<g id="edge13" class="edge">
<title>TilesModule&#45;&gt;TileGroup </title>
<path fill="none" stroke="#000000" stroke-dasharray="5,2" d="M313.0616,-284.5901C263.5135,-284.5901 189.7675,-284.5901 189.7675,-284.5901 189.7675,-284.5901 189.7675,-317.2881 189.7675,-317.2881"/>
<polygon fill="#000000" stroke="#000000" points="186.2676,-317.288 189.7675,-327.2881 193.2676,-317.2881 186.2676,-317.288"/>
</g>
<!-- {
 &#160;&#160;&#160;provide: NG_VALUE_ACCESSOR, useExisting: TileGroup, multi: true
} -->
<g id="node7" class="node">
<title>{
 &#160;&#160;&#160;provide: NG_VALUE_ACCESSOR, useExisting: TileGroup, multi: true
}</title>
<ellipse fill="#fdb462" stroke="#000000" cx="334" cy="-127.295" rx="309.7681" ry="41.0911"/>
<text text-anchor="middle" x="334" y="-139.895" font-family="Times,serif" font-size="14.00" fill="#000000">{</text>
<text text-anchor="middle" x="334" y="-123.095" font-family="Times,serif" font-size="14.00" fill="#000000"> &#160;&#160;&#160;provide: NG_VALUE_ACCESSOR, useExisting: TileGroup, multi: true</text>
<text text-anchor="middle" x="334" y="-106.295" font-family="Times,serif" font-size="14.00" fill="#000000">}</text>
</g>
<!-- {
 &#160;&#160;&#160;provide: NG_VALUE_ACCESSOR, useExisting: TileGroup, multi: true
}&#45;&gt;TileGroup -->
<g id="edge6" class="edge">
<title>{
 &#160;&#160;&#160;provide: NG_VALUE_ACCESSOR, useExisting: TileGroup, multi: true
}&#45;&gt;TileGroup</title>
<path fill="none" stroke="#000000" d="M275,-168.0826C275,-168.0826 275,-187.4641 275,-187.4641"/>
<polygon fill="#000000" stroke="#000000" points="271.5001,-187.4641 275,-197.4641 278.5001,-187.4642 271.5001,-187.4641"/>
</g>
<!-- I18nModule -->
<g id="node8" class="node">
<title>I18nModule</title>
<polygon fill="#8dd3c7" stroke="#000000" points="213.7107,-233.5901 210.7107,-237.5901 189.7107,-237.5901 186.7107,-233.5901 128.2893,-233.5901 128.2893,-197.5901 213.7107,-197.5901 213.7107,-233.5901"/>
<text text-anchor="middle" x="171" y="-211.3901" font-family="Times,serif" font-size="14.00" fill="#000000">I18nModule</text>
</g>
<!-- I18nModule&#45;&gt;TilesModule -->
<g id="edge7" class="edge">
<title>I18nModule&#45;&gt;TilesModule</title>
<path fill="none" stroke="#000000" d="M165.9299,-233.5991C165.9299,-249.6394 165.9299,-270.5901 165.9299,-270.5901 165.9299,-270.5901 303.1647,-270.5901 303.1647,-270.5901"/>
<polygon fill="#000000" stroke="#000000" points="303.1647,-274.0902 313.1647,-270.5901 303.1646,-267.0902 303.1647,-274.0902"/>
</g>
<!-- LinkModule -->
<g id="node9" class="node">
<title>LinkModule</title>
<polygon fill="#8dd3c7" stroke="#000000" points="109.993,-233.5901 106.993,-237.5901 85.993,-237.5901 82.993,-233.5901 24.007,-233.5901 24.007,-197.5901 109.993,-197.5901 109.993,-233.5901"/>
<text text-anchor="middle" x="67" y="-211.3901" font-family="Times,serif" font-size="14.00" fill="#000000">LinkModule</text>
</g>
<!-- LinkModule&#45;&gt;TilesModule -->
<g id="edge8" class="edge">
<title>LinkModule&#45;&gt;TilesModule</title>
<path fill="none" stroke="#000000" d="M67,-233.8568C67,-252.1452 67,-277.5901 67,-277.5901 67,-277.5901 303.2701,-277.5901 303.2701,-277.5901"/>
<polygon fill="#000000" stroke="#000000" points="303.2701,-281.0902 313.2701,-277.5901 303.27,-274.0902 303.2701,-281.0902"/>
</g>
</g>
</svg>
