<?xml version="1.0" encoding="UTF-8" standalone="no"?>
<!DOCTYPE svg PUBLIC "-//W3C//DTD SVG 1.1//EN"
 "http://www.w3.org/Graphics/SVG/1.1/DTD/svg11.dtd">
<!-- Generated by graphviz version 2.47.0 (20210316.0004)
 -->
<!-- Title: dependencies Pages: 1 -->
<svg width="1885pt" height="396pt"
 viewBox="0.00 0.00 1885.00 395.59" xmlns="http://www.w3.org/2000/svg" xmlns:xlink="http://www.w3.org/1999/xlink">
<g id="graph0" class="graph" transform="scale(1 1) rotate(0) translate(4 391.59)">
<title>dependencies</title>
<polygon fill="white" stroke="transparent" points="-4,4 -4,-391.59 1881,-391.59 1881,4 -4,4"/>
<text text-anchor="start" x="917.51" y="-42.4" font-family="Times-12" font-weight="bold" font-size="14.00">Legend</text>
<polygon fill="#ffffb3" stroke="transparent" points="704.5,-10 704.5,-30 724.5,-30 724.5,-10 704.5,-10"/>
<text text-anchor="start" x="728.13" y="-15.4" font-family="Times-12" font-size="14.00"> &#160;Declarations</text>
<polygon fill="#8dd3c7" stroke="transparent" points="817.5,-10 817.5,-30 837.5,-30 837.5,-10 817.5,-10"/>
<text text-anchor="start" x="841.23" y="-15.4" font-family="Times-12" font-size="14.00"> &#160;Module</text>
<polygon fill="#80b1d3" stroke="transparent" points="903.5,-10 903.5,-30 923.5,-30 923.5,-10 903.5,-10"/>
<text text-anchor="start" x="927.28" y="-15.4" font-family="Times-12" font-size="14.00"> &#160;Bootstrap</text>
<polygon fill="#fdb462" stroke="transparent" points="1000.5,-10 1000.5,-30 1020.5,-30 1020.5,-10 1000.5,-10"/>
<text text-anchor="start" x="1024.17" y="-15.4" font-family="Times-12" font-size="14.00"> &#160;Providers</text>
<polygon fill="#fb8072" stroke="transparent" points="1096.5,-10 1096.5,-30 1116.5,-30 1116.5,-10 1096.5,-10"/>
<text text-anchor="start" x="1120.23" y="-15.4" font-family="Times-12" font-size="14.00"> &#160;Exports</text>
<g id="clust1" class="cluster">
<title>cluster_TilesModule</title>
<polygon fill="none" stroke="black" stroke-dasharray="1,5" points="8,-70 8,-379.59 1869,-379.59 1869,-70 8,-70"/>
</g>
<g id="clust9" class="cluster">
<title>cluster_TilesModule_TileGroup_providers</title>
<polygon fill="none" stroke="black" points="1225,-78 1225,-241.59 1861,-241.59 1861,-78 1225,-78"/>
</g>
<g id="clust2" class="cluster">
<title>cluster_TilesModule_declarations</title>
<polygon fill="none" stroke="black" points="332,-189.59 332,-241.59 1217,-241.59 1217,-189.59 332,-189.59"/>
</g>
<g id="clust11" class="cluster">
<title>cluster_TilesModule_exports</title>
<polygon fill="none" stroke="black" points="144,-319.59 144,-371.59 1144,-371.59 1144,-319.59 144,-319.59"/>
</g>
<g id="clust10" class="cluster">
<title>cluster_TilesModule_imports</title>
<polygon fill="none" stroke="black" points="16,-189.59 16,-241.59 324,-241.59 324,-189.59 16,-189.59"/>
</g>
<!-- ClickableTile -->
<g id="node1" class="node">
<title>ClickableTile</title>
<polygon fill="#ffffb3" stroke="black" points="1209.2,-233.59 1116.8,-233.59 1116.8,-197.59 1209.2,-197.59 1209.2,-233.59"/>
<text text-anchor="middle" x="1163" y="-211.39" font-family="Times,serif" font-size="14.00">ClickableTile</text>
</g>
<!-- TilesModule -->
<g id="node8" class="node">
<title>TilesModule</title>
<polygon fill="#8dd3c7" stroke="black" points="586.54,-298.59 583.54,-302.59 562.54,-302.59 559.54,-298.59 499.46,-298.59 499.46,-262.59 586.54,-262.59 586.54,-298.59"/>
<text text-anchor="middle" x="543" y="-276.39" font-family="Times,serif" font-size="14.00">TilesModule</text>
</g>
<!-- ClickableTile&#45;&gt;TilesModule -->
<g id="edge1" class="edge">
<title>ClickableTile&#45;&gt;TilesModule</title>
<path fill="none" stroke="black" d="M1126.38,-233.89C1126.38,-251.86 1126.38,-276.59 1126.38,-276.59 1126.38,-276.59 596.85,-276.59 596.85,-276.59"/>
<polygon fill="black" stroke="black" points="596.85,-273.09 586.85,-276.59 596.85,-280.09 596.85,-273.09"/>
</g>
<!-- ExpandableTile -->
<g id="node2" class="node">
<title>ExpandableTile</title>
<polygon fill="#ffffb3" stroke="black" points="1099.14,-233.59 994.86,-233.59 994.86,-197.59 1099.14,-197.59 1099.14,-233.59"/>
<text text-anchor="middle" x="1047" y="-211.39" font-family="Times,serif" font-size="14.00">ExpandableTile</text>
</g>
<!-- ExpandableTile&#45;&gt;TilesModule -->
<g id="edge2" class="edge">
<title>ExpandableTile&#45;&gt;TilesModule</title>
<path fill="none" stroke="black" d="M1008.38,-233.62C1008.38,-249.99 1008.38,-271.59 1008.38,-271.59 1008.38,-271.59 596.78,-271.59 596.78,-271.59"/>
<polygon fill="black" stroke="black" points="596.78,-268.09 586.78,-271.59 596.78,-275.09 596.78,-268.09"/>
</g>
<!-- ExpandableTileAboveFoldDirective -->
<g id="node3" class="node">
<title>ExpandableTileAboveFoldDirective</title>
<polygon fill="#ffffb3" stroke="black" points="976.71,-233.59 757.29,-233.59 757.29,-197.59 976.71,-197.59 976.71,-233.59"/>
<text text-anchor="middle" x="867" y="-211.39" font-family="Times,serif" font-size="14.00">ExpandableTileAboveFoldDirective</text>
</g>
<!-- ExpandableTileAboveFoldDirective&#45;&gt;TilesModule -->
<g id="edge3" class="edge">
<title>ExpandableTileAboveFoldDirective&#45;&gt;TilesModule</title>
<path fill="none" stroke="black" d="M826.38,-233.78C826.38,-248.77 826.38,-267.59 826.38,-267.59 826.38,-267.59 596.66,-267.59 596.66,-267.59"/>
<polygon fill="black" stroke="black" points="596.66,-264.09 586.66,-267.59 596.66,-271.09 596.66,-264.09"/>
</g>
<!-- ExpandableTileBelowFoldDirective -->
<g id="node4" class="node">
<title>ExpandableTileBelowFoldDirective</title>
<polygon fill="#ffffb3" stroke="black" points="739.44,-233.59 520.56,-233.59 520.56,-197.59 739.44,-197.59 739.44,-233.59"/>
<text text-anchor="middle" x="630" y="-211.39" font-family="Times,serif" font-size="14.00">ExpandableTileBelowFoldDirective</text>
</g>
<!-- ExpandableTileBelowFoldDirective&#45;&gt;TilesModule -->
<g id="edge4" class="edge">
<title>ExpandableTileBelowFoldDirective&#45;&gt;TilesModule</title>
<path fill="none" stroke="black" d="M553.65,-233.7C553.65,-233.7 553.65,-252.58 553.65,-252.58"/>
<polygon fill="black" stroke="black" points="550.15,-252.58 553.65,-262.58 557.15,-252.58 550.15,-252.58"/>
</g>
<!-- SelectionTile -->
<g id="node5" class="node">
<title>SelectionTile</title>
<polygon fill="#ffffb3" stroke="black" points="502.15,-233.59 411.85,-233.59 411.85,-197.59 502.15,-197.59 502.15,-233.59"/>
<text text-anchor="middle" x="457" y="-211.39" font-family="Times,serif" font-size="14.00">SelectionTile</text>
</g>
<!-- SelectionTile&#45;&gt;TilesModule -->
<g id="edge5" class="edge">
<title>SelectionTile&#45;&gt;TilesModule</title>
<path fill="none" stroke="black" d="M502.44,-215.59C507.81,-215.59 511.43,-215.59 511.43,-215.59 511.43,-215.59 511.43,-252.48 511.43,-252.48"/>
<polygon fill="black" stroke="black" points="507.93,-252.48 511.43,-262.48 514.93,-252.48 507.93,-252.48"/>
</g>
<!-- Tile -->
<g id="node6" class="node">
<title>Tile</title>
<polygon fill="#ffffb3" stroke="black" points="394,-233.59 340,-233.59 340,-197.59 394,-197.59 394,-233.59"/>
<text text-anchor="middle" x="367" y="-211.39" font-family="Times,serif" font-size="14.00">Tile</text>
</g>
<!-- Tile&#45;&gt;TilesModule -->
<g id="edge6" class="edge">
<title>Tile&#45;&gt;TilesModule</title>
<path fill="none" stroke="black" d="M367,-233.78C367,-248.77 367,-267.59 367,-267.59 367,-267.59 489.04,-267.59 489.04,-267.59"/>
<polygon fill="black" stroke="black" points="489.04,-271.09 499.04,-267.59 489.04,-264.09 489.04,-271.09"/>
</g>
<!-- TileGroup -->
<g id="node7" class="node">
<title>TileGroup</title>
<polygon fill="#ffffb3" stroke="black" points="1443.32,-233.59 1368.68,-233.59 1368.68,-197.59 1443.32,-197.59 1443.32,-233.59"/>
<text text-anchor="middle" x="1406" y="-211.39" font-family="Times,serif" font-size="14.00">TileGroup</text>
</g>
<!-- TileGroup&#45;&gt;TilesModule -->
<g id="edge7" class="edge">
<title>TileGroup&#45;&gt;TilesModule</title>
<path fill="none" stroke="black" d="M1406,-233.7C1406,-252.93 1406,-280.59 1406,-280.59 1406,-280.59 596.68,-280.59 596.68,-280.59"/>
<polygon fill="black" stroke="black" points="596.68,-277.09 586.68,-280.59 596.68,-284.09 596.68,-277.09"/>
</g>
<!-- ClickableTile  -->
<g id="node13" class="node">
<title>ClickableTile </title>
<polygon fill="#fb8072" stroke="black" points="1135.7,-363.59 1040.3,-363.59 1040.3,-327.59 1135.7,-327.59 1135.7,-363.59"/>
<text text-anchor="middle" x="1088" y="-341.39" font-family="Times,serif" font-size="14.00">ClickableTile </text>
</g>
<!-- TilesModule&#45;&gt;ClickableTile  -->
<g id="edge12" class="edge">
<title>TilesModule&#45;&gt;ClickableTile </title>
<path fill="none" stroke="black" stroke-dasharray="5,2" d="M586.55,-285.59C712.75,-285.59 1069.73,-285.59 1069.73,-285.59 1069.73,-285.59 1069.73,-317.59 1069.73,-317.59"/>
<polygon fill="black" stroke="black" points="1066.23,-317.59 1069.73,-327.59 1073.23,-317.59 1066.23,-317.59"/>
</g>
<!-- ExpandableTile  -->
<g id="node14" class="node">
<title>ExpandableTile </title>
<polygon fill="#fb8072" stroke="black" points="1022.14,-363.59 913.86,-363.59 913.86,-327.59 1022.14,-327.59 1022.14,-363.59"/>
<text text-anchor="middle" x="968" y="-341.39" font-family="Times,serif" font-size="14.00">ExpandableTile </text>
</g>
<!-- TilesModule&#45;&gt;ExpandableTile  -->
<g id="edge13" class="edge">
<title>TilesModule&#45;&gt;ExpandableTile </title>
<path fill="none" stroke="black" stroke-dasharray="5,2" d="M586.83,-289.59C691.12,-289.59 945.39,-289.59 945.39,-289.59 945.39,-289.59 945.39,-317.56 945.39,-317.56"/>
<polygon fill="black" stroke="black" points="941.89,-317.56 945.39,-327.56 948.89,-317.56 941.89,-317.56"/>
</g>
<!-- ExpandableTileAboveFoldDirective  -->
<g id="node15" class="node">
<title>ExpandableTileAboveFoldDirective </title>
<polygon fill="#fb8072" stroke="black" points="895.71,-363.59 672.29,-363.59 672.29,-327.59 895.71,-327.59 895.71,-363.59"/>
<text text-anchor="middle" x="784" y="-341.39" font-family="Times,serif" font-size="14.00">ExpandableTileAboveFoldDirective </text>
</g>
<!-- TilesModule&#45;&gt;ExpandableTileAboveFoldDirective  -->
<g id="edge14" class="edge">
<title>TilesModule&#45;&gt;ExpandableTileAboveFoldDirective </title>
<path fill="none" stroke="black" stroke-dasharray="5,2" d="M586.66,-294.59C634.93,-294.59 705.93,-294.59 705.93,-294.59 705.93,-294.59 705.93,-317.47 705.93,-317.47"/>
<polygon fill="black" stroke="black" points="702.43,-317.47 705.93,-327.47 709.43,-317.47 702.43,-317.47"/>
</g>
<!-- ExpandableTileBelowFoldDirective  -->
<g id="node16" class="node">
<title>ExpandableTileBelowFoldDirective </title>
<polygon fill="#fb8072" stroke="black" points="654.44,-363.59 431.56,-363.59 431.56,-327.59 654.44,-327.59 654.44,-363.59"/>
<text text-anchor="middle" x="543" y="-341.39" font-family="Times,serif" font-size="14.00">ExpandableTileBelowFoldDirective </text>
</g>
<!-- TilesModule&#45;&gt;ExpandableTileBelowFoldDirective  -->
<g id="edge15" class="edge">
<title>TilesModule&#45;&gt;ExpandableTileBelowFoldDirective </title>
<path fill="none" stroke="black" stroke-dasharray="5,2" d="M543,-298.7C543,-298.7 543,-317.58 543,-317.58"/>
<polygon fill="black" stroke="black" points="539.5,-317.58 543,-327.58 546.5,-317.58 539.5,-317.58"/>
</g>
<!-- SelectionTile  -->
<g id="node17" class="node">
<title>SelectionTile </title>
<polygon fill="#fb8072" stroke="black" points="414.15,-363.59 319.85,-363.59 319.85,-327.59 414.15,-327.59 414.15,-363.59"/>
<text text-anchor="middle" x="367" y="-341.39" font-family="Times,serif" font-size="14.00">SelectionTile </text>
</g>
<!-- TilesModule&#45;&gt;SelectionTile  -->
<g id="edge16" class="edge">
<title>TilesModule&#45;&gt;SelectionTile </title>
<path fill="none" stroke="black" stroke-dasharray="5,2" d="M499.42,-294.59C458.28,-294.59 402.84,-294.59 402.84,-294.59 402.84,-294.59 402.84,-317.47 402.84,-317.47"/>
<polygon fill="black" stroke="black" points="399.34,-317.47 402.84,-327.47 406.34,-317.47 399.34,-317.47"/>
</g>
<!-- Tile  -->
<g id="node18" class="node">
<title>Tile </title>
<polygon fill="#fb8072" stroke="black" points="302,-363.59 248,-363.59 248,-327.59 302,-327.59 302,-363.59"/>
<text text-anchor="middle" x="275" y="-341.39" font-family="Times,serif" font-size="14.00">Tile </text>
</g>
<!-- TilesModule&#45;&gt;Tile  -->
<g id="edge17" class="edge">
<title>TilesModule&#45;&gt;Tile </title>
<path fill="none" stroke="black" stroke-dasharray="5,2" d="M499.34,-289.59C423.4,-289.59 275,-289.59 275,-289.59 275,-289.59 275,-317.56 275,-317.56"/>
<polygon fill="black" stroke="black" points="271.5,-317.56 275,-327.56 278.5,-317.56 271.5,-317.56"/>
</g>
<!-- TileGroup  -->
<g id="node19" class="node">
<title>TileGroup </title>
<polygon fill="#fb8072" stroke="black" points="229.82,-363.59 152.18,-363.59 152.18,-327.59 229.82,-327.59 229.82,-363.59"/>
<text text-anchor="middle" x="191" y="-341.39" font-family="Times,serif" font-size="14.00">TileGroup </text>
</g>
<!-- TilesModule&#45;&gt;TileGroup  -->
<g id="edge18" class="edge">
<title>TilesModule&#45;&gt;TileGroup </title>
<path fill="none" stroke="black" stroke-dasharray="5,2" d="M499.25,-285.59C411.22,-285.59 221.06,-285.59 221.06,-285.59 221.06,-285.59 221.06,-317.59 221.06,-317.59"/>
<polygon fill="black" stroke="black" points="217.56,-317.59 221.06,-327.59 224.56,-317.59 217.56,-317.59"/>
</g>
<!-- {
 &#160;&#160;&#160;provide: NG_VALUE_ACCESSOR, useExisting: TileGroup, multi: true
} -->
<g id="node9" class="node">
<title>{
 &#160;&#160;&#160;provide: NG_VALUE_ACCESSOR, useExisting: TileGroup, multi: true
}</title>
<ellipse fill="#fdb462" stroke="black" cx="1543" cy="-127.3" rx="309.77" ry="41.09"/>
<text text-anchor="middle" x="1543" y="-139.9" font-family="Times,serif" font-size="14.00">{</text>
<text text-anchor="middle" x="1543" y="-123.1" font-family="Times,serif" font-size="14.00"> &#160;&#160;&#160;provide: NG_VALUE_ACCESSOR, useExisting: TileGroup, multi: true</text>
<text text-anchor="middle" x="1543" y="-106.3" font-family="Times,serif" font-size="14.00">}</text>
</g>
<!-- {
 &#160;&#160;&#160;provide: NG_VALUE_ACCESSOR, useExisting: TileGroup, multi: true
}&#45;&gt;TileGroup -->
<g id="edge8" class="edge">
<title>{
 &#160;&#160;&#160;provide: NG_VALUE_ACCESSOR, useExisting: TileGroup, multi: true
}&#45;&gt;TileGroup</title>
<path fill="none" stroke="black" d="M1406,-164.48C1406,-164.48 1406,-187.22 1406,-187.22"/>
<polygon fill="black" stroke="black" points="1402.5,-187.22 1406,-197.22 1409.5,-187.22 1402.5,-187.22"/>
</g>
<!-- I18nModule -->
<g id="node10" class="node">
<title>I18nModule</title>
<polygon fill="#8dd3c7" stroke="black" points="315.71,-233.59 312.71,-237.59 291.71,-237.59 288.71,-233.59 230.29,-233.59 230.29,-197.59 315.71,-197.59 315.71,-233.59"/>
<text text-anchor="middle" x="273" y="-211.39" font-family="Times,serif" font-size="14.00">I18nModule</text>
</g>
<!-- I18nModule&#45;&gt;TilesModule -->
<g id="edge9" class="edge">
<title>I18nModule&#45;&gt;TilesModule</title>
<path fill="none" stroke="black" d="M308.8,-233.62C308.8,-249.99 308.8,-271.59 308.8,-271.59 308.8,-271.59 489.22,-271.59 489.22,-271.59"/>
<polygon fill="black" stroke="black" points="489.22,-275.09 499.22,-271.59 489.22,-268.09 489.22,-275.09"/>
</g>
<!-- IconModule -->
<g id="node11" class="node">
<title>IconModule</title>
<polygon fill="#8dd3c7" stroke="black" points="212.43,-233.59 209.43,-237.59 188.43,-237.59 185.43,-233.59 127.57,-233.59 127.57,-197.59 212.43,-197.59 212.43,-233.59"/>
<text text-anchor="middle" x="170" y="-211.39" font-family="Times,serif" font-size="14.00">IconModule</text>
</g>
<!-- IconModule&#45;&gt;TilesModule -->
<g id="edge10" class="edge">
<title>IconModule&#45;&gt;TilesModule</title>
<path fill="none" stroke="black" d="M182.15,-233.89C182.15,-251.86 182.15,-276.59 182.15,-276.59 182.15,-276.59 489.11,-276.59 489.11,-276.59"/>
<polygon fill="black" stroke="black" points="489.11,-280.09 499.11,-276.59 489.11,-273.09 489.11,-280.09"/>
</g>
<!-- LinkModule -->
<g id="node12" class="node">
<title>LinkModule</title>
<polygon fill="#8dd3c7" stroke="black" points="109.99,-233.59 106.99,-237.59 85.99,-237.59 82.99,-233.59 24.01,-233.59 24.01,-197.59 109.99,-197.59 109.99,-233.59"/>
<text text-anchor="middle" x="67" y="-211.39" font-family="Times,serif" font-size="14.00">LinkModule</text>
</g>
<!-- LinkModule&#45;&gt;TilesModule -->
<g id="edge11" class="edge">
<title>LinkModule&#45;&gt;TilesModule</title>
<path fill="none" stroke="black" d="M67,-233.7C67,-252.93 67,-280.59 67,-280.59 67,-280.59 489.07,-280.59 489.07,-280.59"/>
<polygon fill="black" stroke="black" points="489.07,-284.09 499.07,-280.59 489.07,-277.09 489.07,-284.09"/>
</g>
</g>
</svg>
