<?xml version="1.0" encoding="UTF-8" standalone="no"?>
<!DOCTYPE svg PUBLIC "-//W3C//DTD SVG 1.1//EN"
 "http://www.w3.org/Graphics/SVG/1.1/DTD/svg11.dtd">
<!-- Generated by graphviz version 2.47.0 (20210316.0004)
 -->
<!-- Title: dependencies Pages: 1 -->
<svg width="1885pt" height="396pt"
 viewBox="0.00 0.00 1885.00 395.59" xmlns="http://www.w3.org/2000/svg" xmlns:xlink="http://www.w3.org/1999/xlink">
<g id="graph0" class="graph" transform="scale(1 1) rotate(0) translate(4 391.59)">
<title>dependencies</title>
<polygon fill="white" stroke="transparent" points="-4,4 -4,-391.59 1881,-391.59 1881,4 -4,4"/>
<text text-anchor="start" x="917.51" y="-42.4" font-family="Times-12" font-weight="bold" font-size="14.00">Legend</text>
<polygon fill="#ffffb3" stroke="transparent" points="704.5,-10 704.5,-30 724.5,-30 724.5,-10 704.5,-10"/>
<text text-anchor="start" x="728.13" y="-15.4" font-family="Times-12" font-size="14.00"> &#160;Declarations</text>
<polygon fill="#8dd3c7" stroke="transparent" points="817.5,-10 817.5,-30 837.5,-30 837.5,-10 817.5,-10"/>
<text text-anchor="start" x="841.23" y="-15.4" font-family="Times-12" font-size="14.00"> &#160;Module</text>
<polygon fill="#80b1d3" stroke="transparent" points="903.5,-10 903.5,-30 923.5,-30 923.5,-10 903.5,-10"/>
<text text-anchor="start" x="927.28" y="-15.4" font-family="Times-12" font-size="14.00"> &#160;Bootstrap</text>
<polygon fill="#fdb462" stroke="transparent" points="1000.5,-10 1000.5,-30 1020.5,-30 1020.5,-10 1000.5,-10"/>
<text text-anchor="start" x="1024.17" y="-15.4" font-family="Times-12" font-size="14.00"> &#160;Providers</text>
<polygon fill="#fb8072" stroke="transparent" points="1096.5,-10 1096.5,-30 1116.5,-30 1116.5,-10 1096.5,-10"/>
<text text-anchor="start" x="1120.23" y="-15.4" font-family="Times-12" font-size="14.00"> &#160;Exports</text>
<g id="clust1" class="cluster">
<title>cluster_TilesModule</title>
<polygon fill="none" stroke="black" stroke-dasharray="1,5" points="8,-70 8,-379.59 1869,-379.59 1869,-70 8,-70"/>
</g>
<g id="clust9" class="cluster">
<title>cluster_TilesModule_TileGroup_providers</title>
<polygon fill="none" stroke="black" points="1225,-78 1225,-241.59 1861,-241.59 1861,-78 1225,-78"/>
</g>
<g id="clust11" class="cluster">
<title>cluster_TilesModule_exports</title>
<polygon fill="none" stroke="black" points="390,-319.59 390,-371.59 1390,-371.59 1390,-319.59 390,-319.59"/>
</g>
<g id="clust10" class="cluster">
<title>cluster_TilesModule_imports</title>
<polygon fill="none" stroke="black" points="909,-189.59 909,-241.59 1217,-241.59 1217,-189.59 909,-189.59"/>
</g>
<g id="clust2" class="cluster">
<title>cluster_TilesModule_declarations</title>
<polygon fill="none" stroke="black" points="16,-189.59 16,-241.59 901,-241.59 901,-189.59 16,-189.59"/>
</g>
<!-- ClickableTile -->
<g id="node1" class="node">
<title>ClickableTile</title>
<polygon fill="#ffffb3" stroke="black" points="893.2,-233.59 800.8,-233.59 800.8,-197.59 893.2,-197.59 893.2,-233.59"/>
<text text-anchor="middle" x="847" y="-211.39" font-family="Times,serif" font-size="14.00">ClickableTile</text>
</g>
<!-- TilesModule -->
<g id="node8" class="node">
<title>TilesModule</title>
<polygon fill="#8dd3c7" stroke="black" points="832.54,-298.59 829.54,-302.59 808.54,-302.59 805.54,-298.59 745.46,-298.59 745.46,-262.59 832.54,-262.59 832.54,-298.59"/>
<text text-anchor="middle" x="789" y="-276.39" font-family="Times,serif" font-size="14.00">TilesModule</text>
</g>
<!-- ClickableTile&#45;&gt;TilesModule -->
<g id="edge1" class="edge">
<title>ClickableTile&#45;&gt;TilesModule</title>
<path fill="none" stroke="black" d="M816.84,-233.7C816.84,-233.7 816.84,-252.58 816.84,-252.58"/>
<polygon fill="black" stroke="black" points="813.34,-252.58 816.84,-262.58 820.34,-252.58 813.34,-252.58"/>
</g>
<!-- ExpandableTile -->
<g id="node2" class="node">
<title>ExpandableTile</title>
<polygon fill="#ffffb3" stroke="black" points="783.14,-233.59 678.86,-233.59 678.86,-197.59 783.14,-197.59 783.14,-233.59"/>
<text text-anchor="middle" x="731" y="-211.39" font-family="Times,serif" font-size="14.00">ExpandableTile</text>
</g>
<!-- ExpandableTile&#45;&gt;TilesModule -->
<g id="edge2" class="edge">
<title>ExpandableTile&#45;&gt;TilesModule</title>
<path fill="none" stroke="black" d="M764.27,-233.7C764.27,-233.7 764.27,-252.58 764.27,-252.58"/>
<polygon fill="black" stroke="black" points="760.77,-252.58 764.27,-262.58 767.77,-252.58 760.77,-252.58"/>
</g>
<!-- ExpandableTileAboveFoldDirective -->
<g id="node3" class="node">
<title>ExpandableTileAboveFoldDirective</title>
<polygon fill="#ffffb3" stroke="black" points="660.71,-233.59 441.29,-233.59 441.29,-197.59 660.71,-197.59 660.71,-233.59"/>
<text text-anchor="middle" x="551" y="-211.39" font-family="Times,serif" font-size="14.00">ExpandableTileAboveFoldDirective</text>
</g>
<!-- ExpandableTileAboveFoldDirective&#45;&gt;TilesModule -->
<g id="edge3" class="edge">
<title>ExpandableTileAboveFoldDirective&#45;&gt;TilesModule</title>
<path fill="none" stroke="black" d="M597.31,-233.78C597.31,-248.77 597.31,-267.59 597.31,-267.59 597.31,-267.59 735.02,-267.59 735.02,-267.59"/>
<polygon fill="black" stroke="black" points="735.02,-271.09 745.02,-267.59 735.02,-264.09 735.02,-271.09"/>
</g>
<!-- ExpandableTileBelowFoldDirective -->
<g id="node4" class="node">
<title>ExpandableTileBelowFoldDirective</title>
<polygon fill="#ffffb3" stroke="black" points="423.44,-233.59 204.56,-233.59 204.56,-197.59 423.44,-197.59 423.44,-233.59"/>
<text text-anchor="middle" x="314" y="-211.39" font-family="Times,serif" font-size="14.00">ExpandableTileBelowFoldDirective</text>
</g>
<!-- ExpandableTileBelowFoldDirective&#45;&gt;TilesModule -->
<g id="edge4" class="edge">
<title>ExpandableTileBelowFoldDirective&#45;&gt;TilesModule</title>
<path fill="none" stroke="black" d="M410.78,-233.62C410.78,-249.99 410.78,-271.59 410.78,-271.59 410.78,-271.59 735.24,-271.59 735.24,-271.59"/>
<polygon fill="black" stroke="black" points="735.24,-275.09 745.24,-271.59 735.24,-268.09 735.24,-275.09"/>
</g>
<!-- SelectionTile -->
<g id="node5" class="node">
<title>SelectionTile</title>
<polygon fill="#ffffb3" stroke="black" points="186.15,-233.59 95.85,-233.59 95.85,-197.59 186.15,-197.59 186.15,-233.59"/>
<text text-anchor="middle" x="141" y="-211.39" font-family="Times,serif" font-size="14.00">SelectionTile</text>
</g>
<!-- SelectionTile&#45;&gt;TilesModule -->
<g id="edge5" class="edge">
<title>SelectionTile&#45;&gt;TilesModule</title>
<path fill="none" stroke="black" d="M141,-233.89C141,-251.86 141,-276.59 141,-276.59 141,-276.59 735.22,-276.59 735.22,-276.59"/>
<polygon fill="black" stroke="black" points="735.22,-280.09 745.22,-276.59 735.22,-273.09 735.22,-280.09"/>
</g>
<!-- Tile -->
<g id="node6" class="node">
<title>Tile</title>
<polygon fill="#ffffb3" stroke="black" points="78,-233.59 24,-233.59 24,-197.59 78,-197.59 78,-233.59"/>
<text text-anchor="middle" x="51" y="-211.39" font-family="Times,serif" font-size="14.00">Tile</text>
</g>
<!-- Tile&#45;&gt;TilesModule -->
<g id="edge6" class="edge">
<title>Tile&#45;&gt;TilesModule</title>
<path fill="none" stroke="black" d="M51,-233.7C51,-252.93 51,-280.59 51,-280.59 51,-280.59 735.32,-280.59 735.32,-280.59"/>
<polygon fill="black" stroke="black" points="735.32,-284.09 745.32,-280.59 735.32,-277.09 735.32,-284.09"/>
</g>
<!-- TileGroup -->
<g id="node7" class="node">
<title>TileGroup</title>
<polygon fill="#ffffb3" stroke="black" points="1443.32,-233.59 1368.68,-233.59 1368.68,-197.59 1443.32,-197.59 1443.32,-233.59"/>
<text text-anchor="middle" x="1406" y="-211.39" font-family="Times,serif" font-size="14.00">TileGroup</text>
</g>
<!-- TileGroup&#45;&gt;TilesModule -->
<g id="edge7" class="edge">
<title>TileGroup&#45;&gt;TilesModule</title>
<path fill="none" stroke="black" d="M1375.35,-233.7C1375.35,-252.93 1375.35,-280.59 1375.35,-280.59 1375.35,-280.59 842.59,-280.59 842.59,-280.59"/>
<polygon fill="black" stroke="black" points="842.59,-277.09 832.59,-280.59 842.59,-284.09 842.59,-277.09"/>
</g>
<!-- ClickableTile  -->
<g id="node13" class="node">
<title>ClickableTile </title>
<polygon fill="#fb8072" stroke="black" points="1381.7,-363.59 1286.3,-363.59 1286.3,-327.59 1381.7,-327.59 1381.7,-363.59"/>
<text text-anchor="middle" x="1334" y="-341.39" font-family="Times,serif" font-size="14.00">ClickableTile </text>
</g>
<!-- TilesModule&#45;&gt;ClickableTile  -->
<g id="edge12" class="edge">
<title>TilesModule&#45;&gt;ClickableTile </title>
<path fill="none" stroke="black" stroke-dasharray="5,2" d="M832.61,-285.59C960.81,-285.59 1327.5,-285.59 1327.5,-285.59 1327.5,-285.59 1327.5,-317.59 1327.5,-317.59"/>
<polygon fill="black" stroke="black" points="1324,-317.59 1327.5,-327.59 1331,-317.59 1324,-317.59"/>
</g>
<!-- ExpandableTile  -->
<g id="node14" class="node">
<title>ExpandableTile </title>
<polygon fill="#fb8072" stroke="black" points="1268.14,-363.59 1159.86,-363.59 1159.86,-327.59 1268.14,-327.59 1268.14,-363.59"/>
<text text-anchor="middle" x="1214" y="-341.39" font-family="Times,serif" font-size="14.00">ExpandableTile </text>
</g>
<!-- TilesModule&#45;&gt;ExpandableTile  -->
<g id="edge13" class="edge">
<title>TilesModule&#45;&gt;ExpandableTile </title>
<path fill="none" stroke="black" stroke-dasharray="5,2" d="M832.81,-289.59C935.72,-289.59 1184.27,-289.59 1184.27,-289.59 1184.27,-289.59 1184.27,-317.56 1184.27,-317.56"/>
<polygon fill="black" stroke="black" points="1180.77,-317.56 1184.27,-327.56 1187.77,-317.56 1180.77,-317.56"/>
</g>
<!-- ExpandableTileAboveFoldDirective  -->
<g id="node15" class="node">
<title>ExpandableTileAboveFoldDirective </title>
<polygon fill="#fb8072" stroke="black" points="1141.71,-363.59 918.29,-363.59 918.29,-327.59 1141.71,-327.59 1141.71,-363.59"/>
<text text-anchor="middle" x="1030" y="-341.39" font-family="Times,serif" font-size="14.00">ExpandableTileAboveFoldDirective </text>
</g>
<!-- TilesModule&#45;&gt;ExpandableTileAboveFoldDirective  -->
<g id="edge14" class="edge">
<title>TilesModule&#45;&gt;ExpandableTileAboveFoldDirective </title>
<path fill="none" stroke="black" stroke-dasharray="5,2" d="M832.9,-294.59C879.53,-294.59 946.59,-294.59 946.59,-294.59 946.59,-294.59 946.59,-317.47 946.59,-317.47"/>
<polygon fill="black" stroke="black" points="943.09,-317.47 946.59,-327.47 950.09,-317.47 943.09,-317.47"/>
</g>
<!-- ExpandableTileBelowFoldDirective  -->
<g id="node16" class="node">
<title>ExpandableTileBelowFoldDirective </title>
<polygon fill="#fb8072" stroke="black" points="900.44,-363.59 677.56,-363.59 677.56,-327.59 900.44,-327.59 900.44,-363.59"/>
<text text-anchor="middle" x="789" y="-341.39" font-family="Times,serif" font-size="14.00">ExpandableTileBelowFoldDirective </text>
</g>
<!-- TilesModule&#45;&gt;ExpandableTileBelowFoldDirective  -->
<g id="edge15" class="edge">
<title>TilesModule&#45;&gt;ExpandableTileBelowFoldDirective </title>
<path fill="none" stroke="black" stroke-dasharray="5,2" d="M789,-298.7C789,-298.7 789,-317.58 789,-317.58"/>
<polygon fill="black" stroke="black" points="785.5,-317.58 789,-327.58 792.5,-317.58 785.5,-317.58"/>
</g>
<!-- SelectionTile  -->
<g id="node17" class="node">
<title>SelectionTile </title>
<polygon fill="#fb8072" stroke="black" points="660.15,-363.59 565.85,-363.59 565.85,-327.59 660.15,-327.59 660.15,-363.59"/>
<text text-anchor="middle" x="613" y="-341.39" font-family="Times,serif" font-size="14.00">SelectionTile </text>
</g>
<!-- TilesModule&#45;&gt;SelectionTile  -->
<g id="edge16" class="edge">
<title>TilesModule&#45;&gt;SelectionTile </title>
<path fill="none" stroke="black" stroke-dasharray="5,2" d="M745.19,-294.59C697.73,-294.59 628.69,-294.59 628.69,-294.59 628.69,-294.59 628.69,-317.47 628.69,-317.47"/>
<polygon fill="black" stroke="black" points="625.19,-317.47 628.69,-327.47 632.19,-317.47 625.19,-317.47"/>
</g>
<!-- Tile  -->
<g id="node18" class="node">
<title>Tile </title>
<polygon fill="#fb8072" stroke="black" points="548,-363.59 494,-363.59 494,-327.59 548,-327.59 548,-363.59"/>
<text text-anchor="middle" x="521" y="-341.39" font-family="Times,serif" font-size="14.00">Tile </text>
</g>
<!-- TilesModule&#45;&gt;Tile  -->
<g id="edge17" class="edge">
<title>TilesModule&#45;&gt;Tile </title>
<path fill="none" stroke="black" stroke-dasharray="5,2" d="M745.34,-289.59C669.4,-289.59 521,-289.59 521,-289.59 521,-289.59 521,-317.56 521,-317.56"/>
<polygon fill="black" stroke="black" points="517.5,-317.56 521,-327.56 524.5,-317.56 517.5,-317.56"/>
</g>
<!-- TileGroup  -->
<g id="node19" class="node">
<title>TileGroup </title>
<polygon fill="#fb8072" stroke="black" points="475.82,-363.59 398.18,-363.59 398.18,-327.59 475.82,-327.59 475.82,-363.59"/>
<text text-anchor="middle" x="437" y="-341.39" font-family="Times,serif" font-size="14.00">TileGroup </text>
</g>
<!-- TilesModule&#45;&gt;TileGroup  -->
<g id="edge18" class="edge">
<title>TilesModule&#45;&gt;TileGroup </title>
<path fill="none" stroke="black" stroke-dasharray="5,2" d="M745.12,-285.59C655.22,-285.59 458.53,-285.59 458.53,-285.59 458.53,-285.59 458.53,-317.59 458.53,-317.59"/>
<polygon fill="black" stroke="black" points="455.03,-317.59 458.53,-327.59 462.03,-317.59 455.03,-317.59"/>
</g>
<!-- {
 &#160;&#160;&#160;provide: NG_VALUE_ACCESSOR, useExisting: TileGroup, multi: true
} -->
<g id="node9" class="node">
<title>{
 &#160;&#160;&#160;provide: NG_VALUE_ACCESSOR, useExisting: TileGroup, multi: true
}</title>
<ellipse fill="#fdb462" stroke="black" cx="1543" cy="-127.3" rx="309.77" ry="41.09"/>
<text text-anchor="middle" x="1543" y="-139.9" font-family="Times,serif" font-size="14.00">{</text>
<text text-anchor="middle" x="1543" y="-123.1" font-family="Times,serif" font-size="14.00"> &#160;&#160;&#160;provide: NG_VALUE_ACCESSOR, useExisting: TileGroup, multi: true</text>
<text text-anchor="middle" x="1543" y="-106.3" font-family="Times,serif" font-size="14.00">}</text>
</g>
<!-- {
 &#160;&#160;&#160;provide: NG_VALUE_ACCESSOR, useExisting: TileGroup, multi: true
}&#45;&gt;TileGroup -->
<g id="edge8" class="edge">
<title>{
 &#160;&#160;&#160;provide: NG_VALUE_ACCESSOR, useExisting: TileGroup, multi: true
}&#45;&gt;TileGroup</title>
<path fill="none" stroke="black" d="M1406,-164.48C1406,-164.48 1406,-187.22 1406,-187.22"/>
<polygon fill="black" stroke="black" points="1402.5,-187.22 1406,-197.22 1409.5,-187.22 1402.5,-187.22"/>
</g>
<!-- I18nModule -->
<g id="node10" class="node">
<title>I18nModule</title>
<polygon fill="#8dd3c7" stroke="black" points="1208.71,-233.59 1205.71,-237.59 1184.71,-237.59 1181.71,-233.59 1123.29,-233.59 1123.29,-197.59 1208.71,-197.59 1208.71,-233.59"/>
<text text-anchor="middle" x="1166" y="-211.39" font-family="Times,serif" font-size="14.00">I18nModule</text>
</g>
<!-- I18nModule&#45;&gt;TilesModule -->
<g id="edge9" class="edge">
<title>I18nModule&#45;&gt;TilesModule</title>
<path fill="none" stroke="black" d="M1132.5,-233.89C1132.5,-251.86 1132.5,-276.59 1132.5,-276.59 1132.5,-276.59 842.85,-276.59 842.85,-276.59"/>
<polygon fill="black" stroke="black" points="842.85,-273.09 832.85,-276.59 842.85,-280.09 842.85,-273.09"/>
</g>
<!-- IconModule -->
<g id="node11" class="node">
<title>IconModule</title>
<polygon fill="#8dd3c7" stroke="black" points="1105.43,-233.59 1102.43,-237.59 1081.43,-237.59 1078.43,-233.59 1020.57,-233.59 1020.57,-197.59 1105.43,-197.59 1105.43,-233.59"/>
<text text-anchor="middle" x="1063" y="-211.39" font-family="Times,serif" font-size="14.00">IconModule</text>
</g>
<!-- IconModule&#45;&gt;TilesModule -->
<g id="edge10" class="edge">
<title>IconModule&#45;&gt;TilesModule</title>
<path fill="none" stroke="black" d="M1063,-233.62C1063,-249.99 1063,-271.59 1063,-271.59 1063,-271.59 842.72,-271.59 842.72,-271.59"/>
<polygon fill="black" stroke="black" points="842.72,-268.09 832.72,-271.59 842.72,-275.09 842.72,-268.09"/>
</g>
<!-- LinkModule -->
<g id="node12" class="node">
<title>LinkModule</title>
<polygon fill="#8dd3c7" stroke="black" points="1002.99,-233.59 999.99,-237.59 978.99,-237.59 975.99,-233.59 917.01,-233.59 917.01,-197.59 1002.99,-197.59 1002.99,-233.59"/>
<text text-anchor="middle" x="960" y="-211.39" font-family="Times,serif" font-size="14.00">LinkModule</text>
</g>
<!-- LinkModule&#45;&gt;TilesModule -->
<g id="edge11" class="edge">
<title>LinkModule&#45;&gt;TilesModule</title>
<path fill="none" stroke="black" d="M974.8,-233.78C974.8,-248.77 974.8,-267.59 974.8,-267.59 974.8,-267.59 842.56,-267.59 842.56,-267.59"/>
<polygon fill="black" stroke="black" points="842.56,-264.09 832.56,-267.59 842.56,-271.09 842.56,-264.09"/>
</g>
</g>
</svg>
