<?xml version="1.0" encoding="UTF-8" standalone="no"?>
<!DOCTYPE svg PUBLIC "-//W3C//DTD SVG 1.1//EN"
 "http://www.w3.org/Graphics/SVG/1.1/DTD/svg11.dtd">
<!-- Generated by graphviz version 2.47.0 (20210316.0004)
 -->
<!-- Title: dependencies Pages: 1 -->
<svg width="586pt" height="284pt"
 viewBox="0.00 0.00 586.00 284.00" xmlns="http://www.w3.org/2000/svg" xmlns:xlink="http://www.w3.org/1999/xlink">
<g id="graph0" class="graph" transform="scale(1 1) rotate(0) translate(4 280)">
<title>dependencies</title>
<polygon fill="white" stroke="transparent" points="-4,4 -4,-280 582,-280 582,4 -4,4"/>
<text text-anchor="start" x="268.01" y="-42.4" font-family="Times-12" font-weight="bold" font-size="14.00">Legend</text>
<polygon fill="#ffffb3" stroke="transparent" points="55,-10 55,-30 75,-30 75,-10 55,-10"/>
<text text-anchor="start" x="78.63" y="-15.4" font-family="Times-12" font-size="14.00"> &#160;Declarations</text>
<polygon fill="#8dd3c7" stroke="transparent" points="168,-10 168,-30 188,-30 188,-10 168,-10"/>
<text text-anchor="start" x="191.73" y="-15.4" font-family="Times-12" font-size="14.00"> &#160;Module</text>
<polygon fill="#80b1d3" stroke="transparent" points="254,-10 254,-30 274,-30 274,-10 254,-10"/>
<text text-anchor="start" x="277.78" y="-15.4" font-family="Times-12" font-size="14.00"> &#160;Bootstrap</text>
<polygon fill="#fdb462" stroke="transparent" points="351,-10 351,-30 371,-30 371,-10 351,-10"/>
<text text-anchor="start" x="374.67" y="-15.4" font-family="Times-12" font-size="14.00"> &#160;Providers</text>
<polygon fill="#fb8072" stroke="transparent" points="447,-10 447,-30 467,-30 467,-10 447,-10"/>
<text text-anchor="start" x="470.73" y="-15.4" font-family="Times-12" font-size="14.00"> &#160;Exports</text>
<g id="clust1" class="cluster">
<title>cluster_MenuButtonModule</title>
<polygon fill="none" stroke="black" stroke-dasharray="1,5" points="8,-70 8,-268 570,-268 570,-70 8,-70"/>
</g>
<g id="clust2" class="cluster">
<title>cluster_MenuButtonModule_declarations</title>
<polygon fill="none" stroke="black" points="394,-78 394,-130 562,-130 562,-78 394,-78"/>
</g>
<g id="clust5" class="cluster">
<title>cluster_MenuButtonModule_exports</title>
<polygon fill="none" stroke="black" points="175,-208 175,-260 347,-260 347,-208 175,-208"/>
</g>
<g id="clust4" class="cluster">
<title>cluster_MenuButtonModule_imports</title>
<polygon fill="none" stroke="black" points="16,-78 16,-130 386,-130 386,-78 16,-78"/>
</g>
<!-- MenuButtonComponent -->
<g id="node1" class="node">
<title>MenuButtonComponent</title>
<polygon fill="#ffffb3" stroke="black" points="554.11,-122 401.89,-122 401.89,-86 554.11,-86 554.11,-122"/>
<text text-anchor="middle" x="478" y="-99.8" font-family="Times,serif" font-size="14.00">MenuButtonComponent</text>
</g>
<!-- MenuButtonModule -->
<g id="node2" class="node">
<title>MenuButtonModule</title>
<polygon fill="#8dd3c7" stroke="black" points="326.33,-187 323.33,-191 302.33,-191 299.33,-187 195.67,-187 195.67,-151 326.33,-151 326.33,-187"/>
<text text-anchor="middle" x="261" y="-164.8" font-family="Times,serif" font-size="14.00">MenuButtonModule</text>
</g>
<!-- MenuButtonComponent&#45;&gt;MenuButtonModule -->
<g id="edge1" class="edge">
<title>MenuButtonComponent&#45;&gt;MenuButtonModule</title>
<path fill="none" stroke="black" d="M478,-122.11C478,-141.34 478,-169 478,-169 478,-169 336.4,-169 336.4,-169"/>
<polygon fill="black" stroke="black" points="336.4,-165.5 326.4,-169 336.4,-172.5 336.4,-165.5"/>
</g>
<!-- MenuButtonComponent  -->
<g id="node6" class="node">
<title>MenuButtonComponent </title>
<polygon fill="#fb8072" stroke="black" points="338.61,-252 183.39,-252 183.39,-216 338.61,-216 338.61,-252"/>
<text text-anchor="middle" x="261" y="-229.8" font-family="Times,serif" font-size="14.00">MenuButtonComponent </text>
</g>
<!-- MenuButtonModule&#45;&gt;MenuButtonComponent  -->
<g id="edge5" class="edge">
<title>MenuButtonModule&#45;&gt;MenuButtonComponent </title>
<path fill="none" stroke="black" stroke-dasharray="5,2" d="M261,-187.11C261,-187.11 261,-205.99 261,-205.99"/>
<polygon fill="black" stroke="black" points="257.5,-205.99 261,-215.99 264.5,-205.99 257.5,-205.99"/>
</g>
<!-- ButtonModule -->
<g id="node3" class="node">
<title>ButtonModule</title>
<polygon fill="#8dd3c7" stroke="black" points="377.67,-122 374.67,-126 353.67,-126 350.67,-122 280.33,-122 280.33,-86 377.67,-86 377.67,-122"/>
<text text-anchor="middle" x="329" y="-99.8" font-family="Times,serif" font-size="14.00">ButtonModule</text>
</g>
<!-- ButtonModule&#45;&gt;MenuButtonModule -->
<g id="edge2" class="edge">
<title>ButtonModule&#45;&gt;MenuButtonModule</title>
<path fill="none" stroke="black" d="M303.16,-122.11C303.16,-122.11 303.16,-140.99 303.16,-140.99"/>
<polygon fill="black" stroke="black" points="299.66,-140.99 303.16,-150.99 306.66,-140.99 299.66,-140.99"/>
</g>
<!-- ContextMenuModule -->
<g id="node4" class="node">
<title>ContextMenuModule</title>
<polygon fill="#8dd3c7" stroke="black" points="262.04,-122 259.04,-126 238.04,-126 235.04,-122 125.96,-122 125.96,-86 262.04,-86 262.04,-122"/>
<text text-anchor="middle" x="194" y="-99.8" font-family="Times,serif" font-size="14.00">ContextMenuModule</text>
</g>
<!-- ContextMenuModule&#45;&gt;MenuButtonModule -->
<g id="edge3" class="edge">
<title>ContextMenuModule&#45;&gt;MenuButtonModule</title>
<path fill="none" stroke="black" d="M229.05,-122.11C229.05,-122.11 229.05,-140.99 229.05,-140.99"/>
<polygon fill="black" stroke="black" points="225.55,-140.99 229.05,-150.99 232.55,-140.99 225.55,-140.99"/>
</g>
<!-- IconModule -->
<g id="node5" class="node">
<title>IconModule</title>
<polygon fill="#8dd3c7" stroke="black" points="108.43,-122 105.43,-126 84.43,-126 81.43,-122 23.57,-122 23.57,-86 108.43,-86 108.43,-122"/>
<text text-anchor="middle" x="66" y="-99.8" font-family="Times,serif" font-size="14.00">IconModule</text>
</g>
<!-- IconModule&#45;&gt;MenuButtonModule -->
<g id="edge4" class="edge">
<title>IconModule&#45;&gt;MenuButtonModule</title>
<path fill="none" stroke="black" d="M66,-122.11C66,-141.34 66,-169 66,-169 66,-169 185.8,-169 185.8,-169"/>
<polygon fill="black" stroke="black" points="185.8,-172.5 195.8,-169 185.8,-165.5 185.8,-172.5"/>
</g>
</g>
</svg>
