<?xml version="1.0" encoding="UTF-8" standalone="no"?>
<!DOCTYPE svg PUBLIC "-//W3C//DTD SVG 1.1//EN"
 "http://www.w3.org/Graphics/SVG/1.1/DTD/svg11.dtd">
<!-- Generated by graphviz version 2.47.0 (20210316.0004)
 -->
<!-- Title: dependencies Pages: 1 -->
<svg width="1406pt" height="396pt"
 viewBox="0.00 0.00 1406.00 395.59" xmlns="http://www.w3.org/2000/svg" xmlns:xlink="http://www.w3.org/1999/xlink">
<g id="graph0" class="graph" transform="scale(1 1) rotate(0) translate(4 391.59)">
<title>dependencies</title>
<polygon fill="white" stroke="transparent" points="-4,4 -4,-391.59 1402,-391.59 1402,4 -4,4"/>
<text text-anchor="start" x="678.01" y="-42.4" font-family="Times-12" font-weight="bold" font-size="14.00">Legend</text>
<polygon fill="#ffffb3" stroke="transparent" points="465,-10 465,-30 485,-30 485,-10 465,-10"/>
<text text-anchor="start" x="488.63" y="-15.4" font-family="Times-12" font-size="14.00"> &#160;Declarations</text>
<polygon fill="#8dd3c7" stroke="transparent" points="578,-10 578,-30 598,-30 598,-10 578,-10"/>
<text text-anchor="start" x="601.73" y="-15.4" font-family="Times-12" font-size="14.00"> &#160;Module</text>
<polygon fill="#80b1d3" stroke="transparent" points="664,-10 664,-30 684,-30 684,-10 664,-10"/>
<text text-anchor="start" x="687.78" y="-15.4" font-family="Times-12" font-size="14.00"> &#160;Bootstrap</text>
<polygon fill="#fdb462" stroke="transparent" points="761,-10 761,-30 781,-30 781,-10 761,-10"/>
<text text-anchor="start" x="784.67" y="-15.4" font-family="Times-12" font-size="14.00"> &#160;Providers</text>
<polygon fill="#fb8072" stroke="transparent" points="857,-10 857,-30 877,-30 877,-10 857,-10"/>
<text text-anchor="start" x="880.73" y="-15.4" font-family="Times-12" font-size="14.00"> &#160;Exports</text>
<g id="clust1" class="cluster">
<title>cluster_RadioModule</title>
<polygon fill="none" stroke="black" stroke-dasharray="1,5" points="8,-70 8,-379.59 1390,-379.59 1390,-70 8,-70"/>
</g>
<g id="clust5" class="cluster">
<title>cluster_RadioModule_imports</title>
<polygon fill="none" stroke="black" points="1282,-189.59 1282,-241.59 1382,-241.59 1382,-189.59 1282,-189.59"/>
</g>
<g id="clust4" class="cluster">
<title>cluster_RadioModule_RadioGroup_providers</title>
<polygon fill="none" stroke="black" points="624,-78 624,-241.59 1274,-241.59 1274,-78 624,-78"/>
</g>
<g id="clust6" class="cluster">
<title>cluster_RadioModule_exports</title>
<polygon fill="none" stroke="black" points="853,-319.59 853,-371.59 1029,-371.59 1029,-319.59 853,-319.59"/>
</g>
<g id="clust2" class="cluster">
<title>cluster_RadioModule_declarations</title>
<polygon fill="none" stroke="black" points="413,-189.59 413,-241.59 483,-241.59 483,-189.59 413,-189.59"/>
</g>
<g id="clust3" class="cluster">
<title>cluster_RadioModule_Radio_providers</title>
<polygon fill="none" stroke="black" points="16,-78 16,-176.59 616,-176.59 616,-78 16,-78"/>
</g>
<!-- Radio -->
<g id="node1" class="node">
<title>Radio</title>
<polygon fill="#ffffb3" stroke="black" points="475,-233.59 421,-233.59 421,-197.59 475,-197.59 475,-233.59"/>
<text text-anchor="middle" x="448" y="-211.39" font-family="Times,serif" font-size="14.00">Radio</text>
</g>
<!-- RadioModule -->
<g id="node3" class="node">
<title>RadioModule</title>
<polygon fill="#8dd3c7" stroke="black" points="995.49,-298.59 992.49,-302.59 971.49,-302.59 968.49,-298.59 902.51,-298.59 902.51,-262.59 995.49,-262.59 995.49,-298.59"/>
<text text-anchor="middle" x="949" y="-276.39" font-family="Times,serif" font-size="14.00">RadioModule</text>
</g>
<!-- Radio&#45;&gt;RadioModule -->
<g id="edge1" class="edge">
<title>Radio&#45;&gt;RadioModule</title>
<path fill="none" stroke="black" d="M448,-233.7C448,-252.93 448,-280.59 448,-280.59 448,-280.59 892.32,-280.59 892.32,-280.59"/>
<polygon fill="black" stroke="black" points="892.32,-284.09 902.32,-280.59 892.32,-277.09 892.32,-284.09"/>
</g>
<!-- RadioGroup -->
<g id="node2" class="node">
<title>RadioGroup</title>
<polygon fill="#ffffb3" stroke="black" points="991.71,-233.59 906.29,-233.59 906.29,-197.59 991.71,-197.59 991.71,-233.59"/>
<text text-anchor="middle" x="949" y="-211.39" font-family="Times,serif" font-size="14.00">RadioGroup</text>
</g>
<!-- RadioGroup&#45;&gt;RadioModule -->
<g id="edge3" class="edge">
<title>RadioGroup&#45;&gt;RadioModule</title>
<path fill="none" stroke="black" d="M949,-233.7C949,-233.7 949,-252.58 949,-252.58"/>
<polygon fill="black" stroke="black" points="945.5,-252.58 949,-262.58 952.5,-252.58 945.5,-252.58"/>
</g>
<!-- Radio  -->
<g id="node7" class="node">
<title>Radio </title>
<polygon fill="#fb8072" stroke="black" points="1021,-363.59 967,-363.59 967,-327.59 1021,-327.59 1021,-363.59"/>
<text text-anchor="middle" x="994" y="-341.39" font-family="Times,serif" font-size="14.00">Radio </text>
</g>
<!-- RadioModule&#45;&gt;Radio  -->
<g id="edge6" class="edge">
<title>RadioModule&#45;&gt;Radio </title>
<path fill="none" stroke="black" stroke-dasharray="5,2" d="M981.25,-298.7C981.25,-298.7 981.25,-317.58 981.25,-317.58"/>
<polygon fill="black" stroke="black" points="977.75,-317.58 981.25,-327.58 984.75,-317.58 977.75,-317.58"/>
</g>
<!-- RadioGroup  -->
<g id="node8" class="node">
<title>RadioGroup </title>
<polygon fill="#fb8072" stroke="black" points="949.21,-363.59 860.79,-363.59 860.79,-327.59 949.21,-327.59 949.21,-363.59"/>
<text text-anchor="middle" x="905" y="-341.39" font-family="Times,serif" font-size="14.00">RadioGroup </text>
</g>
<!-- RadioModule&#45;&gt;RadioGroup  -->
<g id="edge7" class="edge">
<title>RadioModule&#45;&gt;RadioGroup </title>
<path fill="none" stroke="black" stroke-dasharray="5,2" d="M925.93,-298.7C925.93,-298.7 925.93,-317.58 925.93,-317.58"/>
<polygon fill="black" stroke="black" points="922.43,-317.58 925.93,-327.58 929.43,-317.58 922.43,-317.58"/>
</g>
<!-- {
 &#160;&#160;&#160;provide: NG_VALUE_ACCESSOR, useExisting: Radio, multi: true
} -->
<g id="node4" class="node">
<title>{
 &#160;&#160;&#160;provide: NG_VALUE_ACCESSOR, useExisting: Radio, multi: true
}</title>
<ellipse fill="#fdb462" stroke="black" cx="316" cy="-127.3" rx="292.09" ry="41.09"/>
<text text-anchor="middle" x="316" y="-139.9" font-family="Times,serif" font-size="14.00">{</text>
<text text-anchor="middle" x="316" y="-123.1" font-family="Times,serif" font-size="14.00"> &#160;&#160;&#160;provide: NG_VALUE_ACCESSOR, useExisting: Radio, multi: true</text>
<text text-anchor="middle" x="316" y="-106.3" font-family="Times,serif" font-size="14.00">}</text>
</g>
<!-- {
 &#160;&#160;&#160;provide: NG_VALUE_ACCESSOR, useExisting: Radio, multi: true
}&#45;&gt;Radio -->
<g id="edge2" class="edge">
<title>{
 &#160;&#160;&#160;provide: NG_VALUE_ACCESSOR, useExisting: Radio, multi: true
}&#45;&gt;Radio</title>
<path fill="none" stroke="black" d="M448,-164.23C448,-164.23 448,-187.58 448,-187.58"/>
<polygon fill="black" stroke="black" points="444.5,-187.58 448,-197.58 451.5,-187.58 444.5,-187.58"/>
</g>
<!-- {
 &#160;&#160;&#160;provide: NG_VALUE_ACCESSOR, useExisting: RadioGroup, multi: true
} -->
<g id="node5" class="node">
<title>{
 &#160;&#160;&#160;provide: NG_VALUE_ACCESSOR, useExisting: RadioGroup, multi: true
}</title>
<ellipse fill="#fdb462" stroke="black" cx="949" cy="-127.3" rx="317.17" ry="41.09"/>
<text text-anchor="middle" x="949" y="-139.9" font-family="Times,serif" font-size="14.00">{</text>
<text text-anchor="middle" x="949" y="-123.1" font-family="Times,serif" font-size="14.00"> &#160;&#160;&#160;provide: NG_VALUE_ACCESSOR, useExisting: RadioGroup, multi: true</text>
<text text-anchor="middle" x="949" y="-106.3" font-family="Times,serif" font-size="14.00">}</text>
</g>
<!-- {
 &#160;&#160;&#160;provide: NG_VALUE_ACCESSOR, useExisting: RadioGroup, multi: true
}&#45;&gt;RadioGroup -->
<g id="edge4" class="edge">
<title>{
 &#160;&#160;&#160;provide: NG_VALUE_ACCESSOR, useExisting: RadioGroup, multi: true
}&#45;&gt;RadioGroup</title>
<path fill="none" stroke="black" d="M949,-168.6C949,-168.6 949,-187.26 949,-187.26"/>
<polygon fill="black" stroke="black" points="945.5,-187.26 949,-197.26 952.5,-187.26 945.5,-187.26"/>
</g>
<!-- IconModule -->
<g id="node6" class="node">
<title>IconModule</title>
<polygon fill="#8dd3c7" stroke="black" points="1374.43,-233.59 1371.43,-237.59 1350.43,-237.59 1347.43,-233.59 1289.57,-233.59 1289.57,-197.59 1374.43,-197.59 1374.43,-233.59"/>
<text text-anchor="middle" x="1332" y="-211.39" font-family="Times,serif" font-size="14.00">IconModule</text>
</g>
<!-- IconModule&#45;&gt;RadioModule -->
<g id="edge5" class="edge">
<title>IconModule&#45;&gt;RadioModule</title>
<path fill="none" stroke="black" d="M1332,-233.7C1332,-252.93 1332,-280.59 1332,-280.59 1332,-280.59 1005.58,-280.59 1005.58,-280.59"/>
<polygon fill="black" stroke="black" points="1005.58,-277.09 995.58,-280.59 1005.58,-284.09 1005.58,-277.09"/>
</g>
</g>
</svg>
