<?xml version="1.0" encoding="UTF-8" standalone="no"?>
<!DOCTYPE svg PUBLIC "-//W3C//DTD SVG 1.1//EN"
 "http://www.w3.org/Graphics/SVG/1.1/DTD/svg11.dtd">
<!-- Generated by graphviz version 2.47.0 (20210316.0004)
 -->
<!-- Title: dependencies Pages: 1 -->
<svg width="954pt" height="396pt"
 viewBox="0.00 0.00 954.00 395.59" xmlns="http://www.w3.org/2000/svg" xmlns:xlink="http://www.w3.org/1999/xlink">
<g id="graph0" class="graph" transform="scale(1 1) rotate(0) translate(4 391.59)">
<title>dependencies</title>
<polygon fill="white" stroke="transparent" points="-4,4 -4,-391.59 950,-391.59 950,4 -4,4"/>
<text text-anchor="start" x="452.01" y="-42.4" font-family="Times-12" font-weight="bold" font-size="14.00">Legend</text>
<polygon fill="#ffffb3" stroke="transparent" points="239,-10 239,-30 259,-30 259,-10 239,-10"/>
<text text-anchor="start" x="262.63" y="-15.4" font-family="Times-12" font-size="14.00"> &#160;Declarations</text>
<polygon fill="#8dd3c7" stroke="transparent" points="352,-10 352,-30 372,-30 372,-10 352,-10"/>
<text text-anchor="start" x="375.73" y="-15.4" font-family="Times-12" font-size="14.00"> &#160;Module</text>
<polygon fill="#80b1d3" stroke="transparent" points="438,-10 438,-30 458,-30 458,-10 438,-10"/>
<text text-anchor="start" x="461.78" y="-15.4" font-family="Times-12" font-size="14.00"> &#160;Bootstrap</text>
<polygon fill="#fdb462" stroke="transparent" points="535,-10 535,-30 555,-30 555,-10 535,-10"/>
<text text-anchor="start" x="558.67" y="-15.4" font-family="Times-12" font-size="14.00"> &#160;Providers</text>
<polygon fill="#fb8072" stroke="transparent" points="631,-10 631,-30 651,-30 651,-10 631,-10"/>
<text text-anchor="start" x="654.73" y="-15.4" font-family="Times-12" font-size="14.00"> &#160;Exports</text>
<g id="clust1" class="cluster">
<title>cluster_TimePickerSelectModule</title>
<polygon fill="none" stroke="black" stroke-dasharray="1,5" points="8,-70 8,-379.59 938,-379.59 938,-70 8,-70"/>
</g>
<g id="clust3" class="cluster">
<title>cluster_TimePickerSelectModule_TimePickerSelect_providers</title>
<polygon fill="none" stroke="black" points="236,-78 236,-241.59 930,-241.59 930,-78 236,-78"/>
</g>
<g id="clust5" class="cluster">
<title>cluster_TimePickerSelectModule_exports</title>
<polygon fill="none" stroke="black" points="110,-319.59 110,-371.59 246,-371.59 246,-319.59 110,-319.59"/>
</g>
<g id="clust4" class="cluster">
<title>cluster_TimePickerSelectModule_imports</title>
<polygon fill="none" stroke="black" points="16,-189.59 16,-241.59 228,-241.59 228,-189.59 16,-189.59"/>
</g>
<!-- TimePickerSelect -->
<g id="node1" class="node">
<title>TimePickerSelect</title>
<polygon fill="#ffffb3" stroke="black" points="499.52,-233.59 384.48,-233.59 384.48,-197.59 499.52,-197.59 499.52,-233.59"/>
<text text-anchor="middle" x="442" y="-211.39" font-family="Times,serif" font-size="14.00">TimePickerSelect</text>
</g>
<!-- TimePickerSelectModule -->
<g id="node2" class="node">
<title>TimePickerSelectModule</title>
<polygon fill="#8dd3c7" stroke="black" points="257.57,-298.59 254.57,-302.59 233.57,-302.59 230.57,-298.59 98.43,-298.59 98.43,-262.59 257.57,-262.59 257.57,-298.59"/>
<text text-anchor="middle" x="178" y="-276.39" font-family="Times,serif" font-size="14.00">TimePickerSelectModule</text>
</g>
<!-- TimePickerSelect&#45;&gt;TimePickerSelectModule -->
<g id="edge1" class="edge">
<title>TimePickerSelect&#45;&gt;TimePickerSelectModule</title>
<path fill="none" stroke="black" d="M384.4,-215.59C328.13,-215.59 250.88,-215.59 250.88,-215.59 250.88,-215.59 250.88,-252.48 250.88,-252.48"/>
<polygon fill="black" stroke="black" points="247.38,-252.48 250.88,-262.48 254.38,-252.48 247.38,-252.48"/>
</g>
<!-- TimePickerSelect  -->
<g id="node6" class="node">
<title>TimePickerSelect </title>
<polygon fill="#fb8072" stroke="black" points="237.52,-363.59 118.48,-363.59 118.48,-327.59 237.52,-327.59 237.52,-363.59"/>
<text text-anchor="middle" x="178" y="-341.39" font-family="Times,serif" font-size="14.00">TimePickerSelect </text>
</g>
<!-- TimePickerSelectModule&#45;&gt;TimePickerSelect  -->
<g id="edge5" class="edge">
<title>TimePickerSelectModule&#45;&gt;TimePickerSelect </title>
<path fill="none" stroke="black" stroke-dasharray="5,2" d="M178,-298.7C178,-298.7 178,-317.58 178,-317.58"/>
<polygon fill="black" stroke="black" points="174.5,-317.58 178,-327.58 181.5,-317.58 174.5,-317.58"/>
</g>
<!-- {
 &#160;&#160;&#160;provide: NG_VALUE_ACCESSOR, useExisting: TimePickerSelect, multi: true
} -->
<g id="node3" class="node">
<title>{
 &#160;&#160;&#160;provide: NG_VALUE_ACCESSOR, useExisting: TimePickerSelect, multi: true
}</title>
<ellipse fill="#fdb462" stroke="black" cx="583" cy="-127.3" rx="338.54" ry="41.09"/>
<text text-anchor="middle" x="583" y="-139.9" font-family="Times,serif" font-size="14.00">{</text>
<text text-anchor="middle" x="583" y="-123.1" font-family="Times,serif" font-size="14.00"> &#160;&#160;&#160;provide: NG_VALUE_ACCESSOR, useExisting: TimePickerSelect, multi: true</text>
<text text-anchor="middle" x="583" y="-106.3" font-family="Times,serif" font-size="14.00">}</text>
</g>
<!-- {
 &#160;&#160;&#160;provide: NG_VALUE_ACCESSOR, useExisting: TimePickerSelect, multi: true
}&#45;&gt;TimePickerSelect -->
<g id="edge2" class="edge">
<title>{
 &#160;&#160;&#160;provide: NG_VALUE_ACCESSOR, useExisting: TimePickerSelect, multi: true
}&#45;&gt;TimePickerSelect</title>
<path fill="none" stroke="black" d="M442,-165C442,-165 442,-187.45 442,-187.45"/>
<polygon fill="black" stroke="black" points="438.5,-187.45 442,-197.45 445.5,-187.45 438.5,-187.45"/>
</g>
<!-- IconModule -->
<g id="node4" class="node">
<title>IconModule</title>
<polygon fill="#8dd3c7" stroke="black" points="220.43,-233.59 217.43,-237.59 196.43,-237.59 193.43,-233.59 135.57,-233.59 135.57,-197.59 220.43,-197.59 220.43,-233.59"/>
<text text-anchor="middle" x="178" y="-211.39" font-family="Times,serif" font-size="14.00">IconModule</text>
</g>
<!-- IconModule&#45;&gt;TimePickerSelectModule -->
<g id="edge3" class="edge">
<title>IconModule&#45;&gt;TimePickerSelectModule</title>
<path fill="none" stroke="black" d="M178,-233.7C178,-233.7 178,-252.58 178,-252.58"/>
<polygon fill="black" stroke="black" points="174.5,-252.58 178,-262.58 181.5,-252.58 174.5,-252.58"/>
</g>
<!-- SelectModule -->
<g id="node5" class="node">
<title>SelectModule</title>
<polygon fill="#8dd3c7" stroke="black" points="117.76,-233.59 114.76,-237.59 93.76,-237.59 90.76,-233.59 24.24,-233.59 24.24,-197.59 117.76,-197.59 117.76,-233.59"/>
<text text-anchor="middle" x="71" y="-211.39" font-family="Times,serif" font-size="14.00">SelectModule</text>
</g>
<!-- SelectModule&#45;&gt;TimePickerSelectModule -->
<g id="edge4" class="edge">
<title>SelectModule&#45;&gt;TimePickerSelectModule</title>
<path fill="none" stroke="black" d="M108.17,-233.7C108.17,-233.7 108.17,-252.58 108.17,-252.58"/>
<polygon fill="black" stroke="black" points="104.67,-252.58 108.17,-262.58 111.67,-252.58 104.67,-252.58"/>
</g>
</g>
</svg>
