<?xml version="1.0" encoding="UTF-8" standalone="no"?>
<!DOCTYPE svg PUBLIC "-//W3C//DTD SVG 1.1//EN"
 "http://www.w3.org/Graphics/SVG/1.1/DTD/svg11.dtd">
<!-- Generated by graphviz version 2.40.1 (20161225.0304)
 -->
<!-- Title: dependencies Pages: 1 -->
<svg width="680pt" height="396pt"
 viewBox="0.00 0.00 680.00 395.59" xmlns="http://www.w3.org/2000/svg" xmlns:xlink="http://www.w3.org/1999/xlink">
<g id="graph0" class="graph" transform="scale(1 1) rotate(0) translate(4 391.5901)">
<title>dependencies</title>
<polygon fill="#ffffff" stroke="transparent" points="-4,4 -4,-391.5901 676,-391.5901 676,4 -4,4"/>
<text text-anchor="start" x="315.0091" y="-42.4" font-family="sans-serif" font-weight="bold" font-size="14.00" fill="#000000">Legend</text>
<polygon fill="#ffffb3" stroke="transparent" points="102,-10 102,-30 122,-30 122,-10 102,-10"/>
<text text-anchor="start" x="125.629" y="-15.4" font-family="sans-serif" font-size="14.00" fill="#000000"> &#160;Declarations</text>
<polygon fill="#8dd3c7" stroke="transparent" points="215,-10 215,-30 235,-30 235,-10 215,-10"/>
<text text-anchor="start" x="238.7251" y="-15.4" font-family="sans-serif" font-size="14.00" fill="#000000"> &#160;Module</text>
<polygon fill="#80b1d3" stroke="transparent" points="301,-10 301,-30 321,-30 321,-10 301,-10"/>
<text text-anchor="start" x="324.7812" y="-15.4" font-family="sans-serif" font-size="14.00" fill="#000000"> &#160;Bootstrap</text>
<polygon fill="#fdb462" stroke="transparent" points="398,-10 398,-30 418,-30 418,-10 398,-10"/>
<text text-anchor="start" x="421.6732" y="-15.4" font-family="sans-serif" font-size="14.00" fill="#000000"> &#160;Providers</text>
<polygon fill="#fb8072" stroke="transparent" points="494,-10 494,-30 514,-30 514,-10 494,-10"/>
<text text-anchor="start" x="517.7258" y="-15.4" font-family="sans-serif" font-size="14.00" fill="#000000"> &#160;Exports</text>
<g id="clust1" class="cluster">
<title>cluster_DatePickerModule</title>
<polygon fill="none" stroke="#000000" stroke-dasharray="1,5" points="8,-70 8,-379.5901 664,-379.5901 664,-70 8,-70"/>
</g>
<g id="clust2" class="cluster">
<title>cluster_DatePickerModule_declarations</title>
<polygon fill="none" stroke="#000000" points="296,-189.5901 296,-241.5901 390,-241.5901 390,-189.5901 296,-189.5901"/>
</g>
<g id="clust3" class="cluster">
<title>cluster_DatePickerModule_DatePicker_providers</title>
<polygon fill="none" stroke="#000000" points="16,-78 16,-176.5901 656,-176.5901 656,-78 16,-78"/>
</g>
<g id="clust4" class="cluster">
<title>cluster_DatePickerModule_imports</title>
<polygon fill="none" stroke="#000000" points="16,-189.5901 16,-241.5901 288,-241.5901 288,-189.5901 16,-189.5901"/>
</g>
<g id="clust5" class="cluster">
<title>cluster_DatePickerModule_exports</title>
<polygon fill="none" stroke="#000000" points="68,-319.5901 68,-371.5901 338,-371.5901 338,-319.5901 68,-319.5901"/>
</g>
<!-- DatePicker -->
<g id="node1" class="node">
<title>DatePicker</title>
<polygon fill="#ffffb3" stroke="#000000" points="382.1896,-233.5901 303.8104,-233.5901 303.8104,-197.5901 382.1896,-197.5901 382.1896,-233.5901"/>
<text text-anchor="middle" x="343" y="-211.3901" font-family="Times,serif" font-size="14.00" fill="#000000">DatePicker</text>
</g>
<!-- DatePickerModule -->
<g id="node2" class="node">
<title>DatePickerModule</title>
<polygon fill="#8dd3c7" stroke="#000000" points="264.7395,-298.5901 261.7395,-302.5901 240.7395,-302.5901 237.7395,-298.5901 143.2605,-298.5901 143.2605,-262.5901 264.7395,-262.5901 264.7395,-298.5901"/>
<text text-anchor="middle" x="204" y="-276.3901" font-family="Times,serif" font-size="14.00" fill="#000000">DatePickerModule</text>
</g>
<!-- DatePicker&#45;&gt;DatePickerModule -->
<g id="edge1" class="edge">
<title>DatePicker&#45;&gt;DatePickerModule</title>
<path fill="none" stroke="#000000" d="M316.875,-233.6962C316.875,-252.9292 316.875,-280.5901 316.875,-280.5901 316.875,-280.5901 275.0625,-280.5901 275.0625,-280.5901"/>
<polygon fill="#000000" stroke="#000000" points="275.0626,-277.0902 265.0625,-280.5901 275.0625,-284.0902 275.0626,-277.0902"/>
</g>
<!-- DatePicker  -->
<g id="node6" class="node">
<title>DatePicker </title>
<polygon fill="#fb8072" stroke="#000000" points="329.69,-363.5901 248.31,-363.5901 248.31,-327.5901 329.69,-327.5901 329.69,-363.5901"/>
<text text-anchor="middle" x="289" y="-341.3901" font-family="Times,serif" font-size="14.00" fill="#000000">DatePicker </text>
</g>
<!-- DatePickerModule&#45;&gt;DatePicker  -->
<g id="edge5" class="edge">
<title>DatePickerModule&#45;&gt;DatePicker </title>
<path fill="none" stroke="#000000" stroke-dasharray="5,2" d="M256.5125,-298.6962C256.5125,-298.6962 256.5125,-317.581 256.5125,-317.581"/>
<polygon fill="#000000" stroke="#000000" points="253.0125,-317.581 256.5125,-327.581 260.0125,-317.5811 253.0125,-317.581"/>
</g>
<!-- DatePickerInputModule  -->
<g id="node7" class="node">
<title>DatePickerInputModule </title>
<polygon fill="#fb8072" stroke="#000000" points="230.2905,-363.5901 75.7095,-363.5901 75.7095,-327.5901 230.2905,-327.5901 230.2905,-363.5901"/>
<text text-anchor="middle" x="153" y="-341.3901" font-family="Times,serif" font-size="14.00" fill="#000000">DatePickerInputModule </text>
</g>
<!-- DatePickerModule&#45;&gt;DatePickerInputModule  -->
<g id="edge6" class="edge">
<title>DatePickerModule&#45;&gt;DatePickerInputModule </title>
<path fill="none" stroke="#000000" stroke-dasharray="5,2" d="M186.7628,-298.6962C186.7628,-298.6962 186.7628,-317.581 186.7628,-317.581"/>
<polygon fill="#000000" stroke="#000000" points="183.2629,-317.581 186.7628,-327.581 190.2629,-317.5811 183.2629,-317.581"/>
</g>
<!-- {
 &#160;&#160;&#160;provide: NG_VALUE_ACCESSOR, useExisting: DatePicker, multi: true
} -->
<g id="node3" class="node">
<title>{
 &#160;&#160;&#160;provide: NG_VALUE_ACCESSOR, useExisting: DatePicker, multi: true
}</title>
<ellipse fill="#fdb462" stroke="#000000" cx="336" cy="-127.295" rx="312.2464" ry="41.0911"/>
<text text-anchor="middle" x="336" y="-139.895" font-family="Times,serif" font-size="14.00" fill="#000000">{</text>
<text text-anchor="middle" x="336" y="-123.095" font-family="Times,serif" font-size="14.00" fill="#000000"> &#160;&#160;&#160;provide: NG_VALUE_ACCESSOR, useExisting: DatePicker, multi: true</text>
<text text-anchor="middle" x="336" y="-106.295" font-family="Times,serif" font-size="14.00" fill="#000000">}</text>
</g>
<!-- {
 &#160;&#160;&#160;provide: NG_VALUE_ACCESSOR, useExisting: DatePicker, multi: true
}&#45;&gt;DatePicker -->
<g id="edge2" class="edge">
<title>{
 &#160;&#160;&#160;provide: NG_VALUE_ACCESSOR, useExisting: DatePicker, multi: true
}&#45;&gt;DatePicker</title>
<path fill="none" stroke="#000000" d="M343,-168.5989C343,-168.5989 343,-187.2551 343,-187.2551"/>
<polygon fill="#000000" stroke="#000000" points="339.5001,-187.255 343,-197.2551 346.5001,-187.2551 339.5001,-187.255"/>
</g>
<!-- DatePickerInputModule -->
<g id="node4" class="node">
<title>DatePickerInputModule</title>
<polygon fill="#8dd3c7" stroke="#000000" points="279.7907,-233.5901 276.7907,-237.5901 255.7907,-237.5901 252.7907,-233.5901 128.2093,-233.5901 128.2093,-197.5901 279.7907,-197.5901 279.7907,-233.5901"/>
<text text-anchor="middle" x="204" y="-211.3901" font-family="Times,serif" font-size="14.00" fill="#000000">DatePickerInputModule</text>
</g>
<!-- DatePickerInputModule&#45;&gt;DatePickerModule -->
<g id="edge3" class="edge">
<title>DatePickerInputModule&#45;&gt;DatePickerModule</title>
<path fill="none" stroke="#000000" d="M204,-233.6962C204,-233.6962 204,-252.581 204,-252.581"/>
<polygon fill="#000000" stroke="#000000" points="200.5001,-252.581 204,-262.581 207.5001,-252.5811 200.5001,-252.581"/>
</g>
<!-- UtilsModule -->
<g id="node5" class="node">
<title>UtilsModule</title>
<polygon fill="#8dd3c7" stroke="#000000" points="110.2731,-233.5901 107.2731,-237.5901 86.2731,-237.5901 83.2731,-233.5901 23.7269,-233.5901 23.7269,-197.5901 110.2731,-197.5901 110.2731,-233.5901"/>
<text text-anchor="middle" x="67" y="-211.3901" font-family="Times,serif" font-size="14.00" fill="#000000">UtilsModule</text>
</g>
<!-- UtilsModule&#45;&gt;DatePickerModule -->
<g id="edge4" class="edge">
<title>UtilsModule&#45;&gt;DatePickerModule</title>
<path fill="none" stroke="#000000" d="M92.9956,-233.6962C92.9956,-252.9292 92.9956,-280.5901 92.9956,-280.5901 92.9956,-280.5901 132.9774,-280.5901 132.9774,-280.5901"/>
<polygon fill="#000000" stroke="#000000" points="132.9774,-284.0902 142.9774,-280.5901 132.9774,-277.0902 132.9774,-284.0902"/>
</g>
</g>
</svg>
