<?xml version="1.0" encoding="UTF-8" standalone="no"?>
<!DOCTYPE svg PUBLIC "-//W3C//DTD SVG 1.1//EN"
 "http://www.w3.org/Graphics/SVG/1.1/DTD/svg11.dtd">
<!-- Generated by graphviz version 2.47.0 (20210316.0004)
 -->
<!-- Title: dependencies Pages: 1 -->
<svg width="763pt" height="284pt"
 viewBox="0.00 0.00 763.00 284.00" xmlns="http://www.w3.org/2000/svg" xmlns:xlink="http://www.w3.org/1999/xlink">
<g id="graph0" class="graph" transform="scale(1 1) rotate(0) translate(4 280)">
<title>dependencies</title>
<polygon fill="white" stroke="transparent" points="-4,4 -4,-280 759,-280 759,4 -4,4"/>
<text text-anchor="start" x="356.51" y="-42.4" font-family="Times-12" font-weight="bold" font-size="14.00">Legend</text>
<polygon fill="#ffffb3" stroke="transparent" points="143.5,-10 143.5,-30 163.5,-30 163.5,-10 143.5,-10"/>
<text text-anchor="start" x="167.13" y="-15.4" font-family="Times-12" font-size="14.00"> &#160;Declarations</text>
<polygon fill="#8dd3c7" stroke="transparent" points="256.5,-10 256.5,-30 276.5,-30 276.5,-10 256.5,-10"/>
<text text-anchor="start" x="280.23" y="-15.4" font-family="Times-12" font-size="14.00"> &#160;Module</text>
<polygon fill="#80b1d3" stroke="transparent" points="342.5,-10 342.5,-30 362.5,-30 362.5,-10 342.5,-10"/>
<text text-anchor="start" x="366.28" y="-15.4" font-family="Times-12" font-size="14.00"> &#160;Bootstrap</text>
<polygon fill="#fdb462" stroke="transparent" points="439.5,-10 439.5,-30 459.5,-30 459.5,-10 439.5,-10"/>
<text text-anchor="start" x="463.17" y="-15.4" font-family="Times-12" font-size="14.00"> &#160;Providers</text>
<polygon fill="#fb8072" stroke="transparent" points="535.5,-10 535.5,-30 555.5,-30 555.5,-10 535.5,-10"/>
<text text-anchor="start" x="559.23" y="-15.4" font-family="Times-12" font-size="14.00"> &#160;Exports</text>
<g id="clust1" class="cluster">
<title>cluster_ToggletipModule</title>
<polygon fill="none" stroke="black" stroke-dasharray="1,5" points="8,-70 8,-268 747,-268 747,-70 8,-70"/>
</g>
<g id="clust9" class="cluster">
<title>cluster_ToggletipModule_exports</title>
<polygon fill="none" stroke="black" points="72,-208 72,-260 682,-260 682,-208 72,-208"/>
</g>
<g id="clust8" class="cluster">
<title>cluster_ToggletipModule_imports</title>
<polygon fill="none" stroke="black" points="617,-78 617,-130 739,-130 739,-78 617,-78"/>
</g>
<g id="clust2" class="cluster">
<title>cluster_ToggletipModule_declarations</title>
<polygon fill="none" stroke="black" points="16,-78 16,-130 609,-130 609,-78 16,-78"/>
</g>
<!-- Toggletip -->
<g id="node1" class="node">
<title>Toggletip</title>
<polygon fill="#ffffb3" stroke="black" points="601.44,-122 530.56,-122 530.56,-86 601.44,-86 601.44,-122"/>
<text text-anchor="middle" x="566" y="-99.8" font-family="Times,serif" font-size="14.00">Toggletip</text>
</g>
<!-- ToggletipModule -->
<g id="node6" class="node">
<title>ToggletipModule</title>
<polygon fill="#8dd3c7" stroke="black" points="452.99,-187 449.99,-191 428.99,-191 425.99,-187 339.01,-187 339.01,-151 452.99,-151 452.99,-187"/>
<text text-anchor="middle" x="396" y="-164.8" font-family="Times,serif" font-size="14.00">ToggletipModule</text>
</g>
<!-- Toggletip&#45;&gt;ToggletipModule -->
<g id="edge1" class="edge">
<title>Toggletip&#45;&gt;ToggletipModule</title>
<path fill="none" stroke="black" d="M556.4,-122.01C556.4,-138.05 556.4,-159 556.4,-159 556.4,-159 463,-159 463,-159"/>
<polygon fill="black" stroke="black" points="463,-155.5 453,-159 463,-162.5 463,-155.5"/>
</g>
<!-- ToggletipAction -->
<g id="node2" class="node">
<title>ToggletipAction</title>
<polygon fill="#ffffb3" stroke="black" points="513.04,-122 404.96,-122 404.96,-86 513.04,-86 513.04,-122"/>
<text text-anchor="middle" x="459" y="-99.8" font-family="Times,serif" font-size="14.00">ToggletipAction</text>
</g>
<!-- ToggletipAction&#45;&gt;ToggletipModule -->
<g id="edge2" class="edge">
<title>ToggletipAction&#45;&gt;ToggletipModule</title>
<path fill="none" stroke="black" d="M428.86,-122.11C428.86,-122.11 428.86,-140.99 428.86,-140.99"/>
<polygon fill="black" stroke="black" points="425.36,-140.99 428.86,-150.99 432.36,-140.99 425.36,-140.99"/>
</g>
<!-- ToggletipButton -->
<g id="node3" class="node">
<title>ToggletipButton</title>
<polygon fill="#ffffb3" stroke="black" points="386.06,-122 277.94,-122 277.94,-86 386.06,-86 386.06,-122"/>
<text text-anchor="middle" x="332" y="-99.8" font-family="Times,serif" font-size="14.00">ToggletipButton</text>
</g>
<!-- ToggletipButton&#45;&gt;ToggletipModule -->
<g id="edge3" class="edge">
<title>ToggletipButton&#45;&gt;ToggletipModule</title>
<path fill="none" stroke="black" d="M362.64,-122.11C362.64,-122.11 362.64,-140.99 362.64,-140.99"/>
<polygon fill="black" stroke="black" points="359.14,-140.99 362.64,-150.99 366.14,-140.99 359.14,-140.99"/>
</g>
<!-- ToggletipContent -->
<g id="node4" class="node">
<title>ToggletipContent</title>
<polygon fill="#ffffb3" stroke="black" points="259.27,-122 144.73,-122 144.73,-86 259.27,-86 259.27,-122"/>
<text text-anchor="middle" x="202" y="-99.8" font-family="Times,serif" font-size="14.00">ToggletipContent</text>
</g>
<!-- ToggletipContent&#45;&gt;ToggletipModule -->
<g id="edge4" class="edge">
<title>ToggletipContent&#45;&gt;ToggletipModule</title>
<path fill="none" stroke="black" d="M231.62,-122.01C231.62,-138.05 231.62,-159 231.62,-159 231.62,-159 328.97,-159 328.97,-159"/>
<polygon fill="black" stroke="black" points="328.97,-162.5 338.97,-159 328.97,-155.5 328.97,-162.5"/>
</g>
<!-- ToggletipLabel -->
<g id="node5" class="node">
<title>ToggletipLabel</title>
<polygon fill="#ffffb3" stroke="black" points="126.31,-122 23.69,-122 23.69,-86 126.31,-86 126.31,-122"/>
<text text-anchor="middle" x="75" y="-99.8" font-family="Times,serif" font-size="14.00">ToggletipLabel</text>
</g>
<!-- ToggletipLabel&#45;&gt;ToggletipModule -->
<g id="edge5" class="edge">
<title>ToggletipLabel&#45;&gt;ToggletipModule</title>
<path fill="none" stroke="black" d="M103.12,-122.27C103.12,-140.56 103.12,-166 103.12,-166 103.12,-166 328.84,-166 328.84,-166"/>
<polygon fill="black" stroke="black" points="328.84,-169.5 338.84,-166 328.84,-162.5 328.84,-169.5"/>
</g>
<!-- Toggletip  -->
<g id="node8" class="node">
<title>Toggletip </title>
<polygon fill="#fb8072" stroke="black" points="673.94,-252 600.06,-252 600.06,-216 673.94,-216 673.94,-252"/>
<text text-anchor="middle" x="637" y="-229.8" font-family="Times,serif" font-size="14.00">Toggletip </text>
</g>
<!-- ToggletipModule&#45;&gt;Toggletip  -->
<g id="edge7" class="edge">
<title>ToggletipModule&#45;&gt;Toggletip </title>
<path fill="none" stroke="black" stroke-dasharray="5,2" d="M453.03,-173C517.34,-173 613.06,-173 613.06,-173 613.06,-173 613.06,-205.7 613.06,-205.7"/>
<polygon fill="black" stroke="black" points="609.56,-205.7 613.06,-215.7 616.56,-205.7 609.56,-205.7"/>
</g>
<!-- ToggletipAction  -->
<g id="node9" class="node">
<title>ToggletipAction </title>
<polygon fill="#fb8072" stroke="black" points="582.04,-252 469.96,-252 469.96,-216 582.04,-216 582.04,-252"/>
<text text-anchor="middle" x="526" y="-229.8" font-family="Times,serif" font-size="14.00">ToggletipAction </text>
</g>
<!-- ToggletipModule&#45;&gt;ToggletipAction  -->
<g id="edge8" class="edge">
<title>ToggletipModule&#45;&gt;ToggletipAction </title>
<path fill="none" stroke="black" stroke-dasharray="5,2" d="M453.01,-180C473.48,-180 491.62,-180 491.62,-180 491.62,-180 491.62,-205.72 491.62,-205.72"/>
<polygon fill="black" stroke="black" points="488.13,-205.72 491.62,-215.72 495.13,-205.72 488.13,-205.72"/>
</g>
<!-- ToggletipButton  -->
<g id="node10" class="node">
<title>ToggletipButton </title>
<polygon fill="#fb8072" stroke="black" points="452.06,-252 339.94,-252 339.94,-216 452.06,-216 452.06,-252"/>
<text text-anchor="middle" x="396" y="-229.8" font-family="Times,serif" font-size="14.00">ToggletipButton </text>
</g>
<!-- ToggletipModule&#45;&gt;ToggletipButton  -->
<g id="edge9" class="edge">
<title>ToggletipModule&#45;&gt;ToggletipButton </title>
<path fill="none" stroke="black" stroke-dasharray="5,2" d="M396,-187.11C396,-187.11 396,-205.99 396,-205.99"/>
<polygon fill="black" stroke="black" points="392.5,-205.99 396,-215.99 399.5,-205.99 392.5,-205.99"/>
</g>
<!-- ToggletipContent  -->
<g id="node11" class="node">
<title>ToggletipContent </title>
<polygon fill="#fb8072" stroke="black" points="322.27,-252 203.73,-252 203.73,-216 322.27,-216 322.27,-252"/>
<text text-anchor="middle" x="263" y="-229.8" font-family="Times,serif" font-size="14.00">ToggletipContent </text>
</g>
<!-- ToggletipModule&#45;&gt;ToggletipContent  -->
<g id="edge10" class="edge">
<title>ToggletipModule&#45;&gt;ToggletipContent </title>
<path fill="none" stroke="black" stroke-dasharray="5,2" d="M339,-180C318.32,-180 299.93,-180 299.93,-180 299.93,-180 299.93,-205.72 299.93,-205.72"/>
<polygon fill="black" stroke="black" points="296.43,-205.72 299.93,-215.72 303.43,-205.72 296.43,-205.72"/>
</g>
<!-- ToggletipLabel  -->
<g id="node12" class="node">
<title>ToggletipLabel </title>
<polygon fill="#fb8072" stroke="black" points="185.81,-252 80.19,-252 80.19,-216 185.81,-216 185.81,-252"/>
<text text-anchor="middle" x="133" y="-229.8" font-family="Times,serif" font-size="14.00">ToggletipLabel </text>
</g>
<!-- ToggletipModule&#45;&gt;ToggletipLabel  -->
<g id="edge11" class="edge">
<title>ToggletipModule&#45;&gt;ToggletipLabel </title>
<path fill="none" stroke="black" stroke-dasharray="5,2" d="M338.96,-173C270.63,-173 165.26,-173 165.26,-173 165.26,-173 165.26,-205.7 165.26,-205.7"/>
<polygon fill="black" stroke="black" points="161.76,-205.7 165.26,-215.7 168.76,-205.7 161.76,-205.7"/>
</g>
<!-- PopoverModule -->
<g id="node7" class="node">
<title>PopoverModule</title>
<polygon fill="#8dd3c7" stroke="black" points="731.21,-122 728.21,-126 707.21,-126 704.21,-122 624.79,-122 624.79,-86 731.21,-86 731.21,-122"/>
<text text-anchor="middle" x="678" y="-99.8" font-family="Times,serif" font-size="14.00">PopoverModule</text>
</g>
<!-- PopoverModule&#45;&gt;ToggletipModule -->
<g id="edge6" class="edge">
<title>PopoverModule&#45;&gt;ToggletipModule</title>
<path fill="none" stroke="black" d="M649.43,-122.27C649.43,-140.56 649.43,-166 649.43,-166 649.43,-166 463.19,-166 463.19,-166"/>
<polygon fill="black" stroke="black" points="463.19,-162.5 453.19,-166 463.19,-169.5 463.19,-162.5"/>
</g>
</g>
</svg>
