<?xml version="1.0" encoding="UTF-8" standalone="no"?>
<!DOCTYPE svg PUBLIC "-//W3C//DTD SVG 1.1//EN"
 "http://www.w3.org/Graphics/SVG/1.1/DTD/svg11.dtd">
<!-- Generated by graphviz version 2.40.1 (20161225.0304)
 -->
<!-- Title: dependencies Pages: 1 -->
<svg width="504pt" height="284pt"
 viewBox="0.00 0.00 504.00 284.00" xmlns="http://www.w3.org/2000/svg" xmlns:xlink="http://www.w3.org/1999/xlink">
<g id="graph0" class="graph" transform="scale(1 1) rotate(0) translate(4 280)">
<title>dependencies</title>
<polygon fill="#ffffff" stroke="transparent" points="-4,4 -4,-280 500,-280 500,4 -4,4"/>
<text text-anchor="start" x="227.0091" y="-42.4" font-family="sans-serif" font-weight="bold" font-size="14.00" fill="#000000">Legend</text>
<polygon fill="#ffffb3" stroke="transparent" points="14,-10 14,-30 34,-30 34,-10 14,-10"/>
<text text-anchor="start" x="37.629" y="-15.4" font-family="sans-serif" font-size="14.00" fill="#000000"> &#160;Declarations</text>
<polygon fill="#8dd3c7" stroke="transparent" points="127,-10 127,-30 147,-30 147,-10 127,-10"/>
<text text-anchor="start" x="150.7251" y="-15.4" font-family="sans-serif" font-size="14.00" fill="#000000"> &#160;Module</text>
<polygon fill="#80b1d3" stroke="transparent" points="213,-10 213,-30 233,-30 233,-10 213,-10"/>
<text text-anchor="start" x="236.7812" y="-15.4" font-family="sans-serif" font-size="14.00" fill="#000000"> &#160;Bootstrap</text>
<polygon fill="#fdb462" stroke="transparent" points="310,-10 310,-30 330,-30 330,-10 310,-10"/>
<text text-anchor="start" x="333.6732" y="-15.4" font-family="sans-serif" font-size="14.00" fill="#000000"> &#160;Providers</text>
<polygon fill="#fb8072" stroke="transparent" points="406,-10 406,-30 426,-30 426,-10 406,-10"/>
<text text-anchor="start" x="429.7258" y="-15.4" font-family="sans-serif" font-size="14.00" fill="#000000"> &#160;Exports</text>
<g id="clust1" class="cluster">
<title>cluster_InputModule</title>
<polygon fill="none" stroke="#000000" stroke-dasharray="1,5" points="82,-70 82,-268 414,-268 414,-70 82,-70"/>
</g>
<g id="clust2" class="cluster">
<title>cluster_InputModule_declarations</title>
<polygon fill="none" stroke="#000000" points="96,-78 96,-130 401,-130 401,-78 96,-78"/>
</g>
<g id="clust7" class="cluster">
<title>cluster_InputModule_exports</title>
<polygon fill="none" stroke="#000000" points="90,-208 90,-260 406,-260 406,-208 90,-208"/>
</g>
<!-- LabelComponent -->
<g id="node1" class="node">
<title>LabelComponent</title>
<polygon fill="#ffffb3" stroke="#000000" points="392.705,-122 279.295,-122 279.295,-86 392.705,-86 392.705,-122"/>
<text text-anchor="middle" x="336" y="-99.8" font-family="Times,serif" font-size="14.00" fill="#000000">LabelComponent</text>
</g>
<!-- InputModule -->
<g id="node4" class="node">
<title>InputModule</title>
<polygon fill="#8dd3c7" stroke="#000000" points="270.6011,-187 267.6011,-191 246.6011,-191 243.6011,-187 181.3989,-187 181.3989,-151 270.6011,-151 270.6011,-187"/>
<text text-anchor="middle" x="226" y="-164.8" font-family="Times,serif" font-size="14.00" fill="#000000">InputModule</text>
</g>
<!-- LabelComponent&#45;&gt;InputModule -->
<g id="edge1" class="edge">
<title>LabelComponent&#45;&gt;InputModule</title>
<path fill="none" stroke="#000000" d="M279.2294,-104C271.4559,-104 266.0775,-104 266.0775,-104 266.0775,-104 266.0775,-140.8939 266.0775,-140.8939"/>
<polygon fill="#000000" stroke="#000000" points="262.5776,-140.8938 266.0775,-150.8939 269.5776,-140.8939 262.5776,-140.8938"/>
</g>
<!-- TextInput -->
<g id="node2" class="node">
<title>TextInput</title>
<polygon fill="#ffffb3" stroke="#000000" points="261.7093,-122 190.2907,-122 190.2907,-86 261.7093,-86 261.7093,-122"/>
<text text-anchor="middle" x="226" y="-99.8" font-family="Times,serif" font-size="14.00" fill="#000000">TextInput</text>
</g>
<!-- TextInput&#45;&gt;InputModule -->
<g id="edge2" class="edge">
<title>TextInput&#45;&gt;InputModule</title>
<path fill="none" stroke="#000000" d="M226,-122.1061C226,-122.1061 226,-140.991 226,-140.991"/>
<polygon fill="#000000" stroke="#000000" points="222.5001,-140.9909 226,-150.991 229.5001,-140.991 222.5001,-140.9909"/>
</g>
<!-- TextArea -->
<g id="node3" class="node">
<title>TextArea</title>
<polygon fill="#ffffb3" stroke="#000000" points="172.3544,-122 103.6456,-122 103.6456,-86 172.3544,-86 172.3544,-122"/>
<text text-anchor="middle" x="138" y="-99.8" font-family="Times,serif" font-size="14.00" fill="#000000">TextArea</text>
</g>
<!-- TextArea&#45;&gt;InputModule -->
<g id="edge3" class="edge">
<title>TextArea&#45;&gt;InputModule</title>
<path fill="none" stroke="#000000" d="M172.5734,-104C180.1304,-104 185.9225,-104 185.9225,-104 185.9225,-104 185.9225,-140.8939 185.9225,-140.8939"/>
<polygon fill="#000000" stroke="#000000" points="182.4226,-140.8938 185.9225,-150.8939 189.4226,-140.8939 182.4226,-140.8938"/>
</g>
<!-- LabelComponent  -->
<g id="node5" class="node">
<title>LabelComponent </title>
<polygon fill="#fb8072" stroke="#000000" points="398.2052,-252 281.7948,-252 281.7948,-216 398.2052,-216 398.2052,-252"/>
<text text-anchor="middle" x="340" y="-229.8" font-family="Times,serif" font-size="14.00" fill="#000000">LabelComponent </text>
</g>
<!-- InputModule&#45;&gt;LabelComponent  -->
<g id="edge4" class="edge">
<title>InputModule&#45;&gt;LabelComponent </title>
<path fill="none" stroke="#000000" stroke-dasharray="5,2" d="M266.9525,-187.1061C266.9525,-206.3391 266.9525,-234 266.9525,-234 266.9525,-234 271.7348,-234 271.7348,-234"/>
<polygon fill="#000000" stroke="#000000" points="271.7348,-237.5001 281.7348,-234 271.7347,-230.5001 271.7348,-237.5001"/>
</g>
<!-- TextInput  -->
<g id="node6" class="node">
<title>TextInput </title>
<polygon fill="#fb8072" stroke="#000000" points="263.2096,-252 188.7904,-252 188.7904,-216 263.2096,-216 263.2096,-252"/>
<text text-anchor="middle" x="226" y="-229.8" font-family="Times,serif" font-size="14.00" fill="#000000">TextInput </text>
</g>
<!-- InputModule&#45;&gt;TextInput  -->
<g id="edge5" class="edge">
<title>InputModule&#45;&gt;TextInput </title>
<path fill="none" stroke="#000000" stroke-dasharray="5,2" d="M226,-187.1061C226,-187.1061 226,-205.991 226,-205.991"/>
<polygon fill="#000000" stroke="#000000" points="222.5001,-205.9909 226,-215.991 229.5001,-205.991 222.5001,-205.9909"/>
</g>
<!-- TextArea  -->
<g id="node7" class="node">
<title>TextArea </title>
<polygon fill="#fb8072" stroke="#000000" points="170.3551,-252 97.6449,-252 97.6449,-216 170.3551,-216 170.3551,-252"/>
<text text-anchor="middle" x="134" y="-229.8" font-family="Times,serif" font-size="14.00" fill="#000000">TextArea </text>
</g>
<!-- InputModule&#45;&gt;TextArea  -->
<g id="edge6" class="edge">
<title>InputModule&#45;&gt;TextArea </title>
<path fill="none" stroke="#000000" stroke-dasharray="5,2" d="M185.0475,-187.1061C185.0475,-206.3391 185.0475,-234 185.0475,-234 185.0475,-234 180.2824,-234 180.2824,-234"/>
<polygon fill="#000000" stroke="#000000" points="180.2825,-230.5001 170.2824,-234 180.2824,-237.5001 180.2825,-230.5001"/>
</g>
</g>
</svg>
