<?xml version="1.0" encoding="UTF-8" standalone="no"?>
<!DOCTYPE svg PUBLIC "-//W3C//DTD SVG 1.1//EN"
 "http://www.w3.org/Graphics/SVG/1.1/DTD/svg11.dtd">
<!-- Generated by graphviz version 2.40.1 (20161225.0304)
 -->
<!-- Title: dependencies Pages: 1 -->
<svg width="513pt" height="284pt"
 viewBox="0.00 0.00 513.00 284.00" xmlns="http://www.w3.org/2000/svg" xmlns:xlink="http://www.w3.org/1999/xlink">
<g id="graph0" class="graph" transform="scale(1 1) rotate(0) translate(4 280)">
<title>dependencies</title>
<polygon fill="#ffffff" stroke="transparent" points="-4,4 -4,-280 509,-280 509,4 -4,4"/>
<text text-anchor="start" x="231.5091" y="-42.4" font-family="sans-serif" font-weight="bold" font-size="14.00" fill="#000000">Legend</text>
<polygon fill="#ffffb3" stroke="transparent" points="18.5,-10 18.5,-30 38.5,-30 38.5,-10 18.5,-10"/>
<text text-anchor="start" x="42.129" y="-15.4" font-family="sans-serif" font-size="14.00" fill="#000000"> &#160;Declarations</text>
<polygon fill="#8dd3c7" stroke="transparent" points="131.5,-10 131.5,-30 151.5,-30 151.5,-10 131.5,-10"/>
<text text-anchor="start" x="155.2251" y="-15.4" font-family="sans-serif" font-size="14.00" fill="#000000"> &#160;Module</text>
<polygon fill="#80b1d3" stroke="transparent" points="217.5,-10 217.5,-30 237.5,-30 237.5,-10 217.5,-10"/>
<text text-anchor="start" x="241.2812" y="-15.4" font-family="sans-serif" font-size="14.00" fill="#000000"> &#160;Bootstrap</text>
<polygon fill="#fdb462" stroke="transparent" points="314.5,-10 314.5,-30 334.5,-30 334.5,-10 314.5,-10"/>
<text text-anchor="start" x="338.1732" y="-15.4" font-family="sans-serif" font-size="14.00" fill="#000000"> &#160;Providers</text>
<polygon fill="#fb8072" stroke="transparent" points="410.5,-10 410.5,-30 430.5,-30 430.5,-10 410.5,-10"/>
<text text-anchor="start" x="434.2258" y="-15.4" font-family="sans-serif" font-size="14.00" fill="#000000"> &#160;Exports</text>
<g id="clust1" class="cluster">
<title>cluster_FileUploaderModule</title>
<polygon fill="none" stroke="#000000" stroke-dasharray="1,5" points="8,-70 8,-268 497,-268 497,-70 8,-70"/>
</g>
<g id="clust2" class="cluster">
<title>cluster_FileUploaderModule_declarations</title>
<polygon fill="none" stroke="#000000" points="262,-78 262,-130 489,-130 489,-78 262,-78"/>
</g>
<g id="clust5" class="cluster">
<title>cluster_FileUploaderModule_imports</title>
<polygon fill="none" stroke="#000000" points="16,-78 16,-130 254,-130 254,-78 16,-78"/>
</g>
<g id="clust6" class="cluster">
<title>cluster_FileUploaderModule_exports</title>
<polygon fill="none" stroke="#000000" points="142,-208 142,-260 376,-260 376,-208 142,-208"/>
</g>
<!-- FileComponent -->
<g id="node1" class="node">
<title>FileComponent</title>
<polygon fill="#ffffb3" stroke="#000000" points="480.6109,-122 377.3891,-122 377.3891,-86 480.6109,-86 480.6109,-122"/>
<text text-anchor="middle" x="429" y="-99.8" font-family="Times,serif" font-size="14.00" fill="#000000">FileComponent</text>
</g>
<!-- FileUploaderModule -->
<g id="node3" class="node">
<title>FileUploaderModule</title>
<polygon fill="#8dd3c7" stroke="#000000" points="322.9158,-187 319.9158,-191 298.9158,-191 295.9158,-187 189.0842,-187 189.0842,-151 322.9158,-151 322.9158,-187"/>
<text text-anchor="middle" x="256" y="-164.8" font-family="Times,serif" font-size="14.00" fill="#000000">FileUploaderModule</text>
</g>
<!-- FileComponent&#45;&gt;FileUploaderModule -->
<g id="edge1" class="edge">
<title>FileComponent&#45;&gt;FileUploaderModule</title>
<path fill="none" stroke="#000000" d="M429,-122.1061C429,-141.3391 429,-169 429,-169 429,-169 332.8863,-169 332.8863,-169"/>
<polygon fill="#000000" stroke="#000000" points="332.8864,-165.5001 322.8863,-169 332.8863,-172.5001 332.8864,-165.5001"/>
</g>
<!-- FileUploader -->
<g id="node2" class="node">
<title>FileUploader</title>
<polygon fill="#ffffb3" stroke="#000000" points="359.8655,-122 270.1345,-122 270.1345,-86 359.8655,-86 359.8655,-122"/>
<text text-anchor="middle" x="315" y="-99.8" font-family="Times,serif" font-size="14.00" fill="#000000">FileUploader</text>
</g>
<!-- FileUploader&#45;&gt;FileUploaderModule -->
<g id="edge2" class="edge">
<title>FileUploader&#45;&gt;FileUploaderModule</title>
<path fill="none" stroke="#000000" d="M296.3875,-122.1061C296.3875,-122.1061 296.3875,-140.991 296.3875,-140.991"/>
<polygon fill="#000000" stroke="#000000" points="292.8875,-140.9909 296.3875,-150.991 299.8875,-140.991 292.8875,-140.9909"/>
</g>
<!-- FileComponent  -->
<g id="node6" class="node">
<title>FileComponent </title>
<polygon fill="#fb8072" stroke="#000000" points="368.1115,-252 261.8885,-252 261.8885,-216 368.1115,-216 368.1115,-252"/>
<text text-anchor="middle" x="315" y="-229.8" font-family="Times,serif" font-size="14.00" fill="#000000">FileComponent </text>
</g>
<!-- FileUploaderModule&#45;&gt;FileComponent  -->
<g id="edge5" class="edge">
<title>FileUploaderModule&#45;&gt;FileComponent </title>
<path fill="none" stroke="#000000" stroke-dasharray="5,2" d="M292.2011,-187.1061C292.2011,-187.1061 292.2011,-205.991 292.2011,-205.991"/>
<polygon fill="#000000" stroke="#000000" points="288.7012,-205.9909 292.2011,-215.991 295.7012,-205.991 288.7012,-205.9909"/>
</g>
<!-- FileUploader  -->
<g id="node7" class="node">
<title>FileUploader </title>
<polygon fill="#fb8072" stroke="#000000" points="243.8661,-252 150.1339,-252 150.1339,-216 243.8661,-216 243.8661,-252"/>
<text text-anchor="middle" x="197" y="-229.8" font-family="Times,serif" font-size="14.00" fill="#000000">FileUploader </text>
</g>
<!-- FileUploaderModule&#45;&gt;FileUploader  -->
<g id="edge6" class="edge">
<title>FileUploaderModule&#45;&gt;FileUploader </title>
<path fill="none" stroke="#000000" stroke-dasharray="5,2" d="M216.4876,-187.1061C216.4876,-187.1061 216.4876,-205.991 216.4876,-205.991"/>
<polygon fill="#000000" stroke="#000000" points="212.9876,-205.9909 216.4876,-215.991 219.9876,-205.991 212.9876,-205.9909"/>
</g>
<!-- ButtonModule -->
<g id="node4" class="node">
<title>ButtonModule</title>
<polygon fill="#8dd3c7" stroke="#000000" points="245.6682,-122 242.6682,-126 221.6682,-126 218.6682,-122 148.3318,-122 148.3318,-86 245.6682,-86 245.6682,-122"/>
<text text-anchor="middle" x="197" y="-99.8" font-family="Times,serif" font-size="14.00" fill="#000000">ButtonModule</text>
</g>
<!-- ButtonModule&#45;&gt;FileUploaderModule -->
<g id="edge3" class="edge">
<title>ButtonModule&#45;&gt;FileUploaderModule</title>
<path fill="none" stroke="#000000" d="M217.5631,-122.1061C217.5631,-122.1061 217.5631,-140.991 217.5631,-140.991"/>
<polygon fill="#000000" stroke="#000000" points="214.0632,-140.9909 217.5631,-150.991 221.0632,-140.991 214.0632,-140.9909"/>
</g>
<!-- LoadingModule -->
<g id="node5" class="node">
<title>LoadingModule</title>
<polygon fill="#8dd3c7" stroke="#000000" points="130.2078,-122 127.2078,-126 106.2078,-126 103.2078,-122 23.7922,-122 23.7922,-86 130.2078,-86 130.2078,-122"/>
<text text-anchor="middle" x="77" y="-99.8" font-family="Times,serif" font-size="14.00" fill="#000000">LoadingModule</text>
</g>
<!-- LoadingModule&#45;&gt;FileUploaderModule -->
<g id="edge4" class="edge">
<title>LoadingModule&#45;&gt;FileUploaderModule</title>
<path fill="none" stroke="#000000" d="M77,-122.1061C77,-141.3391 77,-169 77,-169 77,-169 179.0925,-169 179.0925,-169"/>
<polygon fill="#000000" stroke="#000000" points="179.0925,-172.5001 189.0925,-169 179.0924,-165.5001 179.0925,-172.5001"/>
</g>
</g>
</svg>
