<?xml version="1.0" encoding="UTF-8" standalone="no"?>
<!DOCTYPE svg PUBLIC "-//W3C//DTD SVG 1.1//EN"
 "http://www.w3.org/Graphics/SVG/1.1/DTD/svg11.dtd">
<!-- Generated by graphviz version 2.40.1 (20161225.0304)
 -->
<!-- Title: dependencies Pages: 1 -->
<svg width="504pt" height="284pt"
 viewBox="0.00 0.00 504.00 284.00" xmlns="http://www.w3.org/2000/svg" xmlns:xlink="http://www.w3.org/1999/xlink">
<g id="graph0" class="graph" transform="scale(1 1) rotate(0) translate(4 280)">
<title>dependencies</title>
<polygon fill="#ffffff" stroke="transparent" points="-4,4 -4,-280 500,-280 500,4 -4,4"/>
<text text-anchor="start" x="227.0091" y="-42.4" font-family="sans-serif" font-weight="bold" font-size="14.00" fill="#000000">Legend</text>
<polygon fill="#ffffb3" stroke="transparent" points="14,-10 14,-30 34,-30 34,-10 14,-10"/>
<text text-anchor="start" x="37.629" y="-15.4" font-family="sans-serif" font-size="14.00" fill="#000000"> &#160;Declarations</text>
<polygon fill="#8dd3c7" stroke="transparent" points="127,-10 127,-30 147,-30 147,-10 127,-10"/>
<text text-anchor="start" x="150.7251" y="-15.4" font-family="sans-serif" font-size="14.00" fill="#000000"> &#160;Module</text>
<polygon fill="#80b1d3" stroke="transparent" points="213,-10 213,-30 233,-30 233,-10 213,-10"/>
<text text-anchor="start" x="236.7812" y="-15.4" font-family="sans-serif" font-size="14.00" fill="#000000"> &#160;Bootstrap</text>
<polygon fill="#fdb462" stroke="transparent" points="310,-10 310,-30 330,-30 330,-10 310,-10"/>
<text text-anchor="start" x="333.6732" y="-15.4" font-family="sans-serif" font-size="14.00" fill="#000000"> &#160;Providers</text>
<polygon fill="#fb8072" stroke="transparent" points="406,-10 406,-30 426,-30 426,-10 406,-10"/>
<text text-anchor="start" x="429.7258" y="-15.4" font-family="sans-serif" font-size="14.00" fill="#000000"> &#160;Exports</text>
<g id="clust1" class="cluster">
<title>cluster_TilesModule</title>
<polygon fill="none" stroke="#000000" stroke-dasharray="1,5" points="148,-70 148,-268 348,-268 348,-70 148,-70"/>
</g>
<g id="clust2" class="cluster">
<title>cluster_TilesModule_declarations</title>
<polygon fill="none" stroke="#000000" points="158,-78 158,-130 338,-130 338,-78 158,-78"/>
</g>
<g id="clust6" class="cluster">
<title>cluster_TilesModule_exports</title>
<polygon fill="none" stroke="#000000" points="156,-208 156,-260 340,-260 340,-208 156,-208"/>
</g>
<!-- ClickableTile -->
<g id="node1" class="node">
<title>ClickableTile</title>
<polygon fill="#ffffb3" stroke="#000000" points="330.2008,-122 237.7992,-122 237.7992,-86 330.2008,-86 330.2008,-122"/>
<text text-anchor="middle" x="284" y="-99.8" font-family="Times,serif" font-size="14.00" fill="#000000">ClickableTile</text>
</g>
<!-- TilesModule -->
<g id="node3" class="node">
<title>TilesModule</title>
<polygon fill="#8dd3c7" stroke="#000000" points="284.544,-187 281.544,-191 260.544,-191 257.544,-187 197.456,-187 197.456,-151 284.544,-151 284.544,-187"/>
<text text-anchor="middle" x="241" y="-164.8" font-family="Times,serif" font-size="14.00" fill="#000000">TilesModule</text>
</g>
<!-- ClickableTile&#45;&gt;TilesModule -->
<g id="edge1" class="edge">
<title>ClickableTile&#45;&gt;TilesModule</title>
<path fill="none" stroke="#000000" d="M261.3356,-122.1061C261.3356,-122.1061 261.3356,-140.991 261.3356,-140.991"/>
<polygon fill="#000000" stroke="#000000" points="257.8356,-140.9909 261.3356,-150.991 264.8356,-140.991 257.8356,-140.9909"/>
</g>
<!-- Tile -->
<g id="node2" class="node">
<title>Tile</title>
<polygon fill="#ffffb3" stroke="#000000" points="220,-122 166,-122 166,-86 220,-86 220,-122"/>
<text text-anchor="middle" x="193" y="-99.8" font-family="Times,serif" font-size="14.00" fill="#000000">Tile</text>
</g>
<!-- Tile&#45;&gt;TilesModule -->
<g id="edge2" class="edge">
<title>Tile&#45;&gt;TilesModule</title>
<path fill="none" stroke="#000000" d="M208.6143,-122.1061C208.6143,-122.1061 208.6143,-140.991 208.6143,-140.991"/>
<polygon fill="#000000" stroke="#000000" points="205.1144,-140.9909 208.6143,-150.991 212.1144,-140.991 205.1144,-140.9909"/>
</g>
<!-- ClickableTile  -->
<g id="node4" class="node">
<title>ClickableTile </title>
<polygon fill="#fb8072" stroke="#000000" points="331.7011,-252 236.2989,-252 236.2989,-216 331.7011,-216 331.7011,-252"/>
<text text-anchor="middle" x="284" y="-229.8" font-family="Times,serif" font-size="14.00" fill="#000000">ClickableTile </text>
</g>
<!-- TilesModule&#45;&gt;ClickableTile  -->
<g id="edge3" class="edge">
<title>TilesModule&#45;&gt;ClickableTile </title>
<path fill="none" stroke="#000000" stroke-dasharray="5,2" d="M260.4606,-187.1061C260.4606,-187.1061 260.4606,-205.991 260.4606,-205.991"/>
<polygon fill="#000000" stroke="#000000" points="256.9606,-205.9909 260.4606,-215.991 263.9606,-205.991 256.9606,-205.9909"/>
</g>
<!-- Tile  -->
<g id="node5" class="node">
<title>Tile </title>
<polygon fill="#fb8072" stroke="#000000" points="218,-252 164,-252 164,-216 218,-216 218,-252"/>
<text text-anchor="middle" x="191" y="-229.8" font-family="Times,serif" font-size="14.00" fill="#000000">Tile </text>
</g>
<!-- TilesModule&#45;&gt;Tile  -->
<g id="edge4" class="edge">
<title>TilesModule&#45;&gt;Tile </title>
<path fill="none" stroke="#000000" stroke-dasharray="5,2" d="M207.6143,-187.1061C207.6143,-187.1061 207.6143,-205.991 207.6143,-205.991"/>
<polygon fill="#000000" stroke="#000000" points="204.1144,-205.9909 207.6143,-215.991 211.1144,-205.991 204.1144,-205.9909"/>
</g>
</g>
</svg>
