<?xml version="1.0" encoding="UTF-8" standalone="no"?>
<!DOCTYPE svg PUBLIC "-//W3C//DTD SVG 1.1//EN"
 "http://www.w3.org/Graphics/SVG/1.1/DTD/svg11.dtd">
<!-- Generated by graphviz version 2.47.0 (20210316.0004)
 -->
<!-- Title: dependencies Pages: 1 -->
<svg width="642pt" height="396pt"
 viewBox="0.00 0.00 642.00 395.59" xmlns="http://www.w3.org/2000/svg" xmlns:xlink="http://www.w3.org/1999/xlink">
<g id="graph0" class="graph" transform="scale(1 1) rotate(0) translate(4 391.59)">
<title>dependencies</title>
<polygon fill="white" stroke="transparent" points="-4,4 -4,-391.59 638,-391.59 638,4 -4,4"/>
<text text-anchor="start" x="296.01" y="-42.4" font-family="Times-12" font-weight="bold" font-size="14.00">Legend</text>
<polygon fill="#ffffb3" stroke="transparent" points="83,-10 83,-30 103,-30 103,-10 83,-10"/>
<text text-anchor="start" x="106.63" y="-15.4" font-family="Times-12" font-size="14.00"> &#160;Declarations</text>
<polygon fill="#8dd3c7" stroke="transparent" points="196,-10 196,-30 216,-30 216,-10 196,-10"/>
<text text-anchor="start" x="219.73" y="-15.4" font-family="Times-12" font-size="14.00"> &#160;Module</text>
<polygon fill="#80b1d3" stroke="transparent" points="282,-10 282,-30 302,-30 302,-10 282,-10"/>
<text text-anchor="start" x="305.78" y="-15.4" font-family="Times-12" font-size="14.00"> &#160;Bootstrap</text>
<polygon fill="#fdb462" stroke="transparent" points="379,-10 379,-30 399,-30 399,-10 379,-10"/>
<text text-anchor="start" x="402.67" y="-15.4" font-family="Times-12" font-size="14.00"> &#160;Providers</text>
<polygon fill="#fb8072" stroke="transparent" points="475,-10 475,-30 495,-30 495,-10 475,-10"/>
<text text-anchor="start" x="498.73" y="-15.4" font-family="Times-12" font-size="14.00"> &#160;Exports</text>
<g id="clust1" class="cluster">
<title>cluster_SelectModule</title>
<polygon fill="none" stroke="black" stroke-dasharray="1,5" points="8,-70 8,-379.59 626,-379.59 626,-70 8,-70"/>
</g>
<g id="clust6" class="cluster">
<title>cluster_SelectModule_imports</title>
<polygon fill="none" stroke="black" points="518,-189.59 518,-241.59 618,-241.59 618,-189.59 518,-189.59"/>
</g>
<g id="clust2" class="cluster">
<title>cluster_SelectModule_declarations</title>
<polygon fill="none" stroke="black" points="277,-189.59 277,-241.59 510,-241.59 510,-189.59 277,-189.59"/>
</g>
<g id="clust5" class="cluster">
<title>cluster_SelectModule_Select_providers</title>
<polygon fill="none" stroke="black" points="16,-78 16,-176.59 618,-176.59 618,-78 16,-78"/>
</g>
<g id="clust7" class="cluster">
<title>cluster_SelectModule_exports</title>
<polygon fill="none" stroke="black" points="316,-319.59 316,-371.59 556,-371.59 556,-319.59 316,-319.59"/>
</g>
<!-- OptGroup -->
<g id="node1" class="node">
<title>OptGroup</title>
<polygon fill="#ffffb3" stroke="black" points="502.26,-233.59 429.74,-233.59 429.74,-197.59 502.26,-197.59 502.26,-233.59"/>
<text text-anchor="middle" x="466" y="-211.39" font-family="Times,serif" font-size="14.00">OptGroup</text>
</g>
<!-- SelectModule -->
<g id="node4" class="node">
<title>SelectModule</title>
<polygon fill="#8dd3c7" stroke="black" points="471.76,-298.59 468.76,-302.59 447.76,-302.59 444.76,-298.59 378.24,-298.59 378.24,-262.59 471.76,-262.59 471.76,-298.59"/>
<text text-anchor="middle" x="425" y="-276.39" font-family="Times,serif" font-size="14.00">SelectModule</text>
</g>
<!-- OptGroup&#45;&gt;SelectModule -->
<g id="edge1" class="edge">
<title>OptGroup&#45;&gt;SelectModule</title>
<path fill="none" stroke="black" d="M450.75,-233.7C450.75,-233.7 450.75,-252.58 450.75,-252.58"/>
<polygon fill="black" stroke="black" points="447.25,-252.58 450.75,-262.58 454.25,-252.58 447.25,-252.58"/>
</g>
<!-- Option -->
<g id="node2" class="node">
<title>Option</title>
<polygon fill="#ffffb3" stroke="black" points="411.39,-233.59 356.61,-233.59 356.61,-197.59 411.39,-197.59 411.39,-233.59"/>
<text text-anchor="middle" x="384" y="-211.39" font-family="Times,serif" font-size="14.00">Option</text>
</g>
<!-- Option&#45;&gt;SelectModule -->
<g id="edge2" class="edge">
<title>Option&#45;&gt;SelectModule</title>
<path fill="none" stroke="black" d="M394.78,-233.7C394.78,-233.7 394.78,-252.58 394.78,-252.58"/>
<polygon fill="black" stroke="black" points="391.28,-252.58 394.78,-262.58 398.28,-252.58 391.28,-252.58"/>
</g>
<!-- Select -->
<g id="node3" class="node">
<title>Select</title>
<polygon fill="#ffffb3" stroke="black" points="339,-233.59 285,-233.59 285,-197.59 339,-197.59 339,-233.59"/>
<text text-anchor="middle" x="312" y="-211.39" font-family="Times,serif" font-size="14.00">Select</text>
</g>
<!-- Select&#45;&gt;SelectModule -->
<g id="edge3" class="edge">
<title>Select&#45;&gt;SelectModule</title>
<path fill="none" stroke="black" d="M331.5,-233.7C331.5,-252.93 331.5,-280.59 331.5,-280.59 331.5,-280.59 367.98,-280.59 367.98,-280.59"/>
<polygon fill="black" stroke="black" points="367.98,-284.09 377.98,-280.59 367.98,-277.09 367.98,-284.09"/>
</g>
<!-- OptGroup  -->
<g id="node7" class="node">
<title>OptGroup </title>
<polygon fill="#fb8072" stroke="black" points="548.26,-363.59 471.74,-363.59 471.74,-327.59 548.26,-327.59 548.26,-363.59"/>
<text text-anchor="middle" x="510" y="-341.39" font-family="Times,serif" font-size="14.00">OptGroup </text>
</g>
<!-- SelectModule&#45;&gt;OptGroup  -->
<g id="edge6" class="edge">
<title>SelectModule&#45;&gt;OptGroup </title>
<path fill="none" stroke="black" stroke-dasharray="5,2" d="M463.03,-298.7C463.03,-317.93 463.03,-345.59 463.03,-345.59 463.03,-345.59 463.89,-345.59 463.89,-345.59"/>
<polygon fill="black" stroke="black" points="461.65,-349.09 471.65,-345.59 461.65,-342.09 461.65,-349.09"/>
</g>
<!-- Option  -->
<g id="node8" class="node">
<title>Option </title>
<polygon fill="#fb8072" stroke="black" points="454.39,-363.59 395.61,-363.59 395.61,-327.59 454.39,-327.59 454.39,-363.59"/>
<text text-anchor="middle" x="425" y="-341.39" font-family="Times,serif" font-size="14.00">Option </text>
</g>
<!-- SelectModule&#45;&gt;Option  -->
<g id="edge7" class="edge">
<title>SelectModule&#45;&gt;Option </title>
<path fill="none" stroke="black" stroke-dasharray="5,2" d="M425,-298.7C425,-298.7 425,-317.58 425,-317.58"/>
<polygon fill="black" stroke="black" points="421.5,-317.58 425,-327.58 428.5,-317.58 421.5,-317.58"/>
</g>
<!-- Select  -->
<g id="node9" class="node">
<title>Select </title>
<polygon fill="#fb8072" stroke="black" points="378,-363.59 324,-363.59 324,-327.59 378,-327.59 378,-363.59"/>
<text text-anchor="middle" x="351" y="-341.39" font-family="Times,serif" font-size="14.00">Select </text>
</g>
<!-- SelectModule&#45;&gt;Select  -->
<g id="edge8" class="edge">
<title>SelectModule&#45;&gt;Select </title>
<path fill="none" stroke="black" stroke-dasharray="5,2" d="M386.96,-298.7C386.96,-317.93 386.96,-345.59 386.96,-345.59 386.96,-345.59 386.09,-345.59 386.09,-345.59"/>
<polygon fill="black" stroke="black" points="388.26,-342.09 378.26,-345.59 388.26,-349.09 388.26,-342.09"/>
</g>
<!-- {
 &#160;&#160;&#160;provide: NG_VALUE_ACCESSOR, useExisting: Select, multi: true
} -->
<g id="node5" class="node">
<title>{
 &#160;&#160;&#160;provide: NG_VALUE_ACCESSOR, useExisting: Select, multi: true
}</title>
<ellipse fill="#fdb462" stroke="black" cx="317" cy="-127.3" rx="292.67" ry="41.09"/>
<text text-anchor="middle" x="317" y="-139.9" font-family="Times,serif" font-size="14.00">{</text>
<text text-anchor="middle" x="317" y="-123.1" font-family="Times,serif" font-size="14.00"> &#160;&#160;&#160;provide: NG_VALUE_ACCESSOR, useExisting: Select, multi: true</text>
<text text-anchor="middle" x="317" y="-106.3" font-family="Times,serif" font-size="14.00">}</text>
</g>
<!-- {
 &#160;&#160;&#160;provide: NG_VALUE_ACCESSOR, useExisting: Select, multi: true
}&#45;&gt;Select -->
<g id="edge4" class="edge">
<title>{
 &#160;&#160;&#160;provide: NG_VALUE_ACCESSOR, useExisting: Select, multi: true
}&#45;&gt;Select</title>
<path fill="none" stroke="black" d="M312,-168.6C312,-168.6 312,-187.26 312,-187.26"/>
<polygon fill="black" stroke="black" points="308.5,-187.26 312,-197.26 315.5,-187.26 308.5,-187.26"/>
</g>
<!-- IconModule -->
<g id="node6" class="node">
<title>IconModule</title>
<polygon fill="#8dd3c7" stroke="black" points="610.43,-233.59 607.43,-237.59 586.43,-237.59 583.43,-233.59 525.57,-233.59 525.57,-197.59 610.43,-197.59 610.43,-233.59"/>
<text text-anchor="middle" x="568" y="-211.39" font-family="Times,serif" font-size="14.00">IconModule</text>
</g>
<!-- IconModule&#45;&gt;SelectModule -->
<g id="edge5" class="edge">
<title>IconModule&#45;&gt;SelectModule</title>
<path fill="none" stroke="black" d="M536.96,-233.7C536.96,-252.93 536.96,-280.59 536.96,-280.59 536.96,-280.59 481.83,-280.59 481.83,-280.59"/>
<polygon fill="black" stroke="black" points="481.83,-277.09 471.83,-280.59 481.83,-284.09 481.83,-277.09"/>
</g>
</g>
</svg>
