<?xml version="1.0" encoding="UTF-8" standalone="no"?>
<!DOCTYPE svg PUBLIC "-//W3C//DTD SVG 1.1//EN"
 "http://www.w3.org/Graphics/SVG/1.1/DTD/svg11.dtd">
<!-- Generated by graphviz version 2.40.1 (20161225.0304)
 -->
<!-- Title: dependencies Pages: 1 -->
<svg width="504pt" height="284pt"
 viewBox="0.00 0.00 504.00 284.00" xmlns="http://www.w3.org/2000/svg" xmlns:xlink="http://www.w3.org/1999/xlink">
<g id="graph0" class="graph" transform="scale(1 1) rotate(0) translate(4 280)">
<title>dependencies</title>
<polygon fill="#ffffff" stroke="transparent" points="-4,4 -4,-280 500,-280 500,4 -4,4"/>
<text text-anchor="start" x="227.0091" y="-42.4" font-family="sans-serif" font-weight="bold" font-size="14.00" fill="#000000">Legend</text>
<polygon fill="#ffffb3" stroke="transparent" points="14,-10 14,-30 34,-30 34,-10 14,-10"/>
<text text-anchor="start" x="37.629" y="-15.4" font-family="sans-serif" font-size="14.00" fill="#000000"> &#160;Declarations</text>
<polygon fill="#8dd3c7" stroke="transparent" points="127,-10 127,-30 147,-30 147,-10 127,-10"/>
<text text-anchor="start" x="150.7251" y="-15.4" font-family="sans-serif" font-size="14.00" fill="#000000"> &#160;Module</text>
<polygon fill="#80b1d3" stroke="transparent" points="213,-10 213,-30 233,-30 233,-10 213,-10"/>
<text text-anchor="start" x="236.7812" y="-15.4" font-family="sans-serif" font-size="14.00" fill="#000000"> &#160;Bootstrap</text>
<polygon fill="#fdb462" stroke="transparent" points="310,-10 310,-30 330,-30 330,-10 310,-10"/>
<text text-anchor="start" x="333.6732" y="-15.4" font-family="sans-serif" font-size="14.00" fill="#000000"> &#160;Providers</text>
<polygon fill="#fb8072" stroke="transparent" points="406,-10 406,-30 426,-30 426,-10 406,-10"/>
<text text-anchor="start" x="429.7258" y="-15.4" font-family="sans-serif" font-size="14.00" fill="#000000"> &#160;Exports</text>
<g id="clust1" class="cluster">
<title>cluster_SelectModule</title>
<polygon fill="none" stroke="#000000" stroke-dasharray="1,5" points="120,-70 120,-268 376,-268 376,-70 120,-70"/>
</g>
<g id="clust2" class="cluster">
<title>cluster_SelectModule_declarations</title>
<polygon fill="none" stroke="#000000" points="133,-78 133,-130 366,-130 366,-78 133,-78"/>
</g>
<g id="clust7" class="cluster">
<title>cluster_SelectModule_exports</title>
<polygon fill="none" stroke="#000000" points="128,-208 128,-260 368,-260 368,-208 128,-208"/>
</g>
<!-- Select -->
<g id="node1" class="node">
<title>Select</title>
<polygon fill="#ffffb3" stroke="#000000" points="358,-122 304,-122 304,-86 358,-86 358,-122"/>
<text text-anchor="middle" x="331" y="-99.8" font-family="Times,serif" font-size="14.00" fill="#000000">Select</text>
</g>
<!-- SelectModule -->
<g id="node4" class="node">
<title>SelectModule</title>
<polygon fill="#8dd3c7" stroke="#000000" points="305.7577,-187 302.7577,-191 281.7577,-191 278.7577,-187 212.2423,-187 212.2423,-151 305.7577,-151 305.7577,-187"/>
<text text-anchor="middle" x="259" y="-164.8" font-family="Times,serif" font-size="14.00" fill="#000000">SelectModule</text>
</g>
<!-- Select&#45;&gt;SelectModule -->
<g id="edge1" class="edge">
<title>Select&#45;&gt;SelectModule</title>
<path fill="none" stroke="#000000" d="M303.8828,-104C298.8928,-104 295.222,-104 295.222,-104 295.222,-104 295.222,-140.8939 295.222,-140.8939"/>
<polygon fill="#000000" stroke="#000000" points="291.722,-140.8938 295.222,-150.8939 298.722,-140.8939 291.722,-140.8938"/>
</g>
<!-- Option -->
<g id="node2" class="node">
<title>Option</title>
<polygon fill="#ffffb3" stroke="#000000" points="286.3879,-122 231.6121,-122 231.6121,-86 286.3879,-86 286.3879,-122"/>
<text text-anchor="middle" x="259" y="-99.8" font-family="Times,serif" font-size="14.00" fill="#000000">Option</text>
</g>
<!-- Option&#45;&gt;SelectModule -->
<g id="edge2" class="edge">
<title>Option&#45;&gt;SelectModule</title>
<path fill="none" stroke="#000000" d="M259,-122.1061C259,-122.1061 259,-140.991 259,-140.991"/>
<polygon fill="#000000" stroke="#000000" points="255.5001,-140.9909 259,-150.991 262.5001,-140.991 255.5001,-140.9909"/>
</g>
<!-- OptGroup -->
<g id="node3" class="node">
<title>OptGroup</title>
<polygon fill="#ffffb3" stroke="#000000" points="213.2648,-122 140.7352,-122 140.7352,-86 213.2648,-86 213.2648,-122"/>
<text text-anchor="middle" x="177" y="-99.8" font-family="Times,serif" font-size="14.00" fill="#000000">OptGroup</text>
</g>
<!-- OptGroup&#45;&gt;SelectModule -->
<g id="edge3" class="edge">
<title>OptGroup&#45;&gt;SelectModule</title>
<path fill="none" stroke="#000000" d="M213.2678,-104C218.6699,-104 222.4692,-104 222.4692,-104 222.4692,-104 222.4692,-140.8939 222.4692,-140.8939"/>
<polygon fill="#000000" stroke="#000000" points="218.9692,-140.8938 222.4692,-150.8939 225.9692,-140.8939 218.9692,-140.8938"/>
</g>
<!-- Select  -->
<g id="node5" class="node">
<title>Select </title>
<polygon fill="#fb8072" stroke="#000000" points="360,-252 306,-252 306,-216 360,-216 360,-252"/>
<text text-anchor="middle" x="333" y="-229.8" font-family="Times,serif" font-size="14.00" fill="#000000">Select </text>
</g>
<!-- SelectModule&#45;&gt;Select  -->
<g id="edge4" class="edge">
<title>SelectModule&#45;&gt;Select </title>
<path fill="none" stroke="#000000" stroke-dasharray="5,2" d="M297.0363,-187.1061C297.0363,-206.3391 297.0363,-234 297.0363,-234 297.0363,-234 297.9069,-234 297.9069,-234"/>
<polygon fill="#000000" stroke="#000000" points="295.7422,-237.5001 305.7421,-234 295.7421,-230.5001 295.7422,-237.5001"/>
</g>
<!-- Option  -->
<g id="node6" class="node">
<title>Option </title>
<polygon fill="#fb8072" stroke="#000000" points="288.3891,-252 229.6109,-252 229.6109,-216 288.3891,-216 288.3891,-252"/>
<text text-anchor="middle" x="259" y="-229.8" font-family="Times,serif" font-size="14.00" fill="#000000">Option </text>
</g>
<!-- SelectModule&#45;&gt;Option  -->
<g id="edge5" class="edge">
<title>SelectModule&#45;&gt;Option </title>
<path fill="none" stroke="#000000" stroke-dasharray="5,2" d="M259,-187.1061C259,-187.1061 259,-205.991 259,-205.991"/>
<polygon fill="#000000" stroke="#000000" points="255.5001,-205.9909 259,-215.991 262.5001,-205.991 255.5001,-205.9909"/>
</g>
<!-- OptGroup  -->
<g id="node7" class="node">
<title>OptGroup </title>
<polygon fill="#fb8072" stroke="#000000" points="212.2649,-252 135.7351,-252 135.7351,-216 212.2649,-216 212.2649,-252"/>
<text text-anchor="middle" x="174" y="-229.8" font-family="Times,serif" font-size="14.00" fill="#000000">OptGroup </text>
</g>
<!-- SelectModule&#45;&gt;OptGroup  -->
<g id="edge6" class="edge">
<title>SelectModule&#45;&gt;OptGroup </title>
<path fill="none" stroke="#000000" stroke-dasharray="5,2" d="M220.9692,-187.1061C220.9692,-206.3391 220.9692,-234 220.9692,-234 220.9692,-234 220.1077,-234 220.1077,-234"/>
<polygon fill="#000000" stroke="#000000" points="222.3543,-230.5001 212.3543,-234 222.3542,-237.5001 222.3543,-230.5001"/>
</g>
</g>
</svg>
