<?xml version="1.0" encoding="UTF-8" standalone="no"?>
<!DOCTYPE svg PUBLIC "-//W3C//DTD SVG 1.1//EN"
 "http://www.w3.org/Graphics/SVG/1.1/DTD/svg11.dtd">
<!-- Generated by graphviz version 2.40.1 (20161225.0304)
 -->
<!-- Title: dependencies Pages: 1 -->
<svg width="504pt" height="284pt"
 viewBox="0.00 0.00 504.00 284.00" xmlns="http://www.w3.org/2000/svg" xmlns:xlink="http://www.w3.org/1999/xlink">
<g id="graph0" class="graph" transform="scale(1 1) rotate(0) translate(4 280)">
<title>dependencies</title>
<polygon fill="#ffffff" stroke="transparent" points="-4,4 -4,-280 500,-280 500,4 -4,4"/>
<text text-anchor="start" x="227.0091" y="-42.4" font-family="sans-serif" font-weight="bold" font-size="14.00" fill="#000000">Legend</text>
<polygon fill="#ffffb3" stroke="transparent" points="14,-10 14,-30 34,-30 34,-10 14,-10"/>
<text text-anchor="start" x="37.629" y="-15.4" font-family="sans-serif" font-size="14.00" fill="#000000"> &#160;Declarations</text>
<polygon fill="#8dd3c7" stroke="transparent" points="127,-10 127,-30 147,-30 147,-10 127,-10"/>
<text text-anchor="start" x="150.7251" y="-15.4" font-family="sans-serif" font-size="14.00" fill="#000000"> &#160;Module</text>
<polygon fill="#80b1d3" stroke="transparent" points="213,-10 213,-30 233,-30 233,-10 213,-10"/>
<text text-anchor="start" x="236.7812" y="-15.4" font-family="sans-serif" font-size="14.00" fill="#000000"> &#160;Bootstrap</text>
<polygon fill="#fdb462" stroke="transparent" points="310,-10 310,-30 330,-30 330,-10 310,-10"/>
<text text-anchor="start" x="333.6732" y="-15.4" font-family="sans-serif" font-size="14.00" fill="#000000"> &#160;Providers</text>
<polygon fill="#fb8072" stroke="transparent" points="406,-10 406,-30 426,-30 426,-10 406,-10"/>
<text text-anchor="start" x="429.7258" y="-15.4" font-family="sans-serif" font-size="14.00" fill="#000000"> &#160;Exports</text>
<g id="clust1" class="cluster">
<title>cluster_NumberModule</title>
<polygon fill="none" stroke="#000000" stroke-dasharray="1,5" points="146,-70 146,-268 350,-268 350,-70 146,-70"/>
</g>
<g id="clust2" class="cluster">
<title>cluster_NumberModule_declarations</title>
<polygon fill="none" stroke="#000000" points="264,-78 264,-130 342,-130 342,-78 264,-78"/>
</g>
<g id="clust4" class="cluster">
<title>cluster_NumberModule_imports</title>
<polygon fill="none" stroke="#000000" points="154,-78 154,-130 256,-130 256,-78 154,-78"/>
</g>
<g id="clust5" class="cluster">
<title>cluster_NumberModule_exports</title>
<polygon fill="none" stroke="#000000" points="207,-208 207,-260 289,-260 289,-208 207,-208"/>
</g>
<!-- Number -->
<g id="node1" class="node">
<title>Number</title>
<polygon fill="#ffffb3" stroke="#000000" points="333.8725,-122 272.1275,-122 272.1275,-86 333.8725,-86 333.8725,-122"/>
<text text-anchor="middle" x="303" y="-99.8" font-family="Times,serif" font-size="14.00" fill="#000000">Number</text>
</g>
<!-- NumberModule -->
<g id="node2" class="node">
<title>NumberModule</title>
<polygon fill="#8dd3c7" stroke="#000000" points="300.923,-187 297.923,-191 276.923,-191 273.923,-187 195.077,-187 195.077,-151 300.923,-151 300.923,-187"/>
<text text-anchor="middle" x="248" y="-164.8" font-family="Times,serif" font-size="14.00" fill="#000000">NumberModule</text>
</g>
<!-- Number&#45;&gt;NumberModule -->
<g id="edge1" class="edge">
<title>Number&#45;&gt;NumberModule</title>
<path fill="none" stroke="#000000" d="M286.3875,-122.1061C286.3875,-122.1061 286.3875,-140.991 286.3875,-140.991"/>
<polygon fill="#000000" stroke="#000000" points="282.8875,-140.9909 286.3875,-150.991 289.8875,-140.991 282.8875,-140.9909"/>
</g>
<!-- Number  -->
<g id="node4" class="node">
<title>Number </title>
<polygon fill="#fb8072" stroke="#000000" points="280.8735,-252 215.1265,-252 215.1265,-216 280.8735,-216 280.8735,-252"/>
<text text-anchor="middle" x="248" y="-229.8" font-family="Times,serif" font-size="14.00" fill="#000000">Number </text>
</g>
<!-- NumberModule&#45;&gt;Number  -->
<g id="edge3" class="edge">
<title>NumberModule&#45;&gt;Number </title>
<path fill="none" stroke="#000000" stroke-dasharray="5,2" d="M248,-187.1061C248,-187.1061 248,-205.991 248,-205.991"/>
<polygon fill="#000000" stroke="#000000" points="244.5001,-205.9909 248,-215.991 251.5001,-205.991 244.5001,-205.9909"/>
</g>
<!-- I18nModule -->
<g id="node3" class="node">
<title>I18nModule</title>
<polygon fill="#8dd3c7" stroke="#000000" points="247.7107,-122 244.7107,-126 223.7107,-126 220.7107,-122 162.2893,-122 162.2893,-86 247.7107,-86 247.7107,-122"/>
<text text-anchor="middle" x="205" y="-99.8" font-family="Times,serif" font-size="14.00" fill="#000000">I18nModule</text>
</g>
<!-- I18nModule&#45;&gt;NumberModule -->
<g id="edge2" class="edge">
<title>I18nModule&#45;&gt;NumberModule</title>
<path fill="none" stroke="#000000" d="M221.4471,-122.1061C221.4471,-122.1061 221.4471,-140.991 221.4471,-140.991"/>
<polygon fill="#000000" stroke="#000000" points="217.9471,-140.9909 221.4471,-150.991 224.9471,-140.991 217.9471,-140.9909"/>
</g>
</g>
</svg>
