<?xml version="1.0" encoding="UTF-8" standalone="no"?>
<!DOCTYPE svg PUBLIC "-//W3C//DTD SVG 1.1//EN"
 "http://www.w3.org/Graphics/SVG/1.1/DTD/svg11.dtd">
<!-- Generated by graphviz version 2.47.0 (20210316.0004)
 -->
<!-- Title: dependencies Pages: 1 -->
<svg width="763pt" height="284pt"
 viewBox="0.00 0.00 763.00 284.00" xmlns="http://www.w3.org/2000/svg" xmlns:xlink="http://www.w3.org/1999/xlink">
<g id="graph0" class="graph" transform="scale(1 1) rotate(0) translate(4 280)">
<title>dependencies</title>
<polygon fill="white" stroke="transparent" points="-4,4 -4,-280 759,-280 759,4 -4,4"/>
<text text-anchor="start" x="356.51" y="-42.4" font-family="Times-12" font-weight="bold" font-size="14.00">Legend</text>
<polygon fill="#ffffb3" stroke="transparent" points="143.5,-10 143.5,-30 163.5,-30 163.5,-10 143.5,-10"/>
<text text-anchor="start" x="167.13" y="-15.4" font-family="Times-12" font-size="14.00"> &#160;Declarations</text>
<polygon fill="#8dd3c7" stroke="transparent" points="256.5,-10 256.5,-30 276.5,-30 276.5,-10 256.5,-10"/>
<text text-anchor="start" x="280.23" y="-15.4" font-family="Times-12" font-size="14.00"> &#160;Module</text>
<polygon fill="#80b1d3" stroke="transparent" points="342.5,-10 342.5,-30 362.5,-30 362.5,-10 342.5,-10"/>
<text text-anchor="start" x="366.28" y="-15.4" font-family="Times-12" font-size="14.00"> &#160;Bootstrap</text>
<polygon fill="#fdb462" stroke="transparent" points="439.5,-10 439.5,-30 459.5,-30 459.5,-10 439.5,-10"/>
<text text-anchor="start" x="463.17" y="-15.4" font-family="Times-12" font-size="14.00"> &#160;Providers</text>
<polygon fill="#fb8072" stroke="transparent" points="535.5,-10 535.5,-30 555.5,-30 555.5,-10 535.5,-10"/>
<text text-anchor="start" x="559.23" y="-15.4" font-family="Times-12" font-size="14.00"> &#160;Exports</text>
<g id="clust1" class="cluster">
<title>cluster_ToggletipModule</title>
<polygon fill="none" stroke="black" stroke-dasharray="1,5" points="8,-70 8,-268 747,-268 747,-70 8,-70"/>
</g>
<g id="clust2" class="cluster">
<title>cluster_ToggletipModule_declarations</title>
<polygon fill="none" stroke="black" points="146,-78 146,-130 739,-130 739,-78 146,-78"/>
</g>
<g id="clust9" class="cluster">
<title>cluster_ToggletipModule_exports</title>
<polygon fill="none" stroke="black" points="72,-208 72,-260 682,-260 682,-208 72,-208"/>
</g>
<g id="clust8" class="cluster">
<title>cluster_ToggletipModule_imports</title>
<polygon fill="none" stroke="black" points="16,-78 16,-130 138,-130 138,-78 16,-78"/>
</g>
<!-- Toggletip -->
<g id="node1" class="node">
<title>Toggletip</title>
<polygon fill="#ffffb3" stroke="black" points="731.44,-122 660.56,-122 660.56,-86 731.44,-86 731.44,-122"/>
<text text-anchor="middle" x="696" y="-99.8" font-family="Times,serif" font-size="14.00">Toggletip</text>
</g>
<!-- ToggletipModule -->
<g id="node6" class="node">
<title>ToggletipModule</title>
<polygon fill="#8dd3c7" stroke="black" points="452.99,-187 449.99,-191 428.99,-191 425.99,-187 339.01,-187 339.01,-151 452.99,-151 452.99,-187"/>
<text text-anchor="middle" x="396" y="-164.8" font-family="Times,serif" font-size="14.00">ToggletipModule</text>
</g>
<!-- Toggletip&#45;&gt;ToggletipModule -->
<g id="edge1" class="edge">
<title>Toggletip&#45;&gt;ToggletipModule</title>
<path fill="none" stroke="black" d="M667.38,-122.27C667.38,-140.56 667.38,-166 667.38,-166 667.38,-166 463.22,-166 463.22,-166"/>
<polygon fill="black" stroke="black" points="463.22,-162.5 453.22,-166 463.22,-169.5 463.22,-162.5"/>
</g>
<!-- ToggletipAction -->
<g id="node2" class="node">
<title>ToggletipAction</title>
<polygon fill="#ffffb3" stroke="black" points="643.04,-122 534.96,-122 534.96,-86 643.04,-86 643.04,-122"/>
<text text-anchor="middle" x="589" y="-99.8" font-family="Times,serif" font-size="14.00">ToggletipAction</text>
</g>
<!-- ToggletipAction&#45;&gt;ToggletipModule -->
<g id="edge2" class="edge">
<title>ToggletipAction&#45;&gt;ToggletipModule</title>
<path fill="none" stroke="black" d="M558.38,-122.01C558.38,-138.05 558.38,-159 558.38,-159 558.38,-159 463.25,-159 463.25,-159"/>
<polygon fill="black" stroke="black" points="463.25,-155.5 453.25,-159 463.25,-162.5 463.25,-155.5"/>
</g>
<!-- ToggletipButton -->
<g id="node3" class="node">
<title>ToggletipButton</title>
<polygon fill="#ffffb3" stroke="black" points="516.06,-122 407.94,-122 407.94,-86 516.06,-86 516.06,-122"/>
<text text-anchor="middle" x="462" y="-99.8" font-family="Times,serif" font-size="14.00">ToggletipButton</text>
</g>
<!-- ToggletipButton&#45;&gt;ToggletipModule -->
<g id="edge3" class="edge">
<title>ToggletipButton&#45;&gt;ToggletipModule</title>
<path fill="none" stroke="black" d="M430.36,-122.11C430.36,-122.11 430.36,-140.99 430.36,-140.99"/>
<polygon fill="black" stroke="black" points="426.86,-140.99 430.36,-150.99 433.86,-140.99 426.86,-140.99"/>
</g>
<!-- ToggletipContent -->
<g id="node4" class="node">
<title>ToggletipContent</title>
<polygon fill="#ffffb3" stroke="black" points="389.27,-122 274.73,-122 274.73,-86 389.27,-86 389.27,-122"/>
<text text-anchor="middle" x="332" y="-99.8" font-family="Times,serif" font-size="14.00">ToggletipContent</text>
</g>
<!-- ToggletipContent&#45;&gt;ToggletipModule -->
<g id="edge4" class="edge">
<title>ToggletipContent&#45;&gt;ToggletipModule</title>
<path fill="none" stroke="black" d="M364.2,-122.11C364.2,-122.11 364.2,-140.99 364.2,-140.99"/>
<polygon fill="black" stroke="black" points="360.7,-140.99 364.2,-150.99 367.7,-140.99 360.7,-140.99"/>
</g>
<!-- ToggletipLabel -->
<g id="node5" class="node">
<title>ToggletipLabel</title>
<polygon fill="#ffffb3" stroke="black" points="256.31,-122 153.69,-122 153.69,-86 256.31,-86 256.31,-122"/>
<text text-anchor="middle" x="205" y="-99.8" font-family="Times,serif" font-size="14.00">ToggletipLabel</text>
</g>
<!-- ToggletipLabel&#45;&gt;ToggletipModule -->
<g id="edge5" class="edge">
<title>ToggletipLabel&#45;&gt;ToggletipModule</title>
<path fill="none" stroke="black" d="M230.01,-122.01C230.01,-138.05 230.01,-159 230.01,-159 230.01,-159 328.88,-159 328.88,-159"/>
<polygon fill="black" stroke="black" points="328.88,-162.5 338.88,-159 328.88,-155.5 328.88,-162.5"/>
</g>
<!-- Toggletip  -->
<g id="node8" class="node">
<title>Toggletip </title>
<polygon fill="#fb8072" stroke="black" points="673.94,-252 600.06,-252 600.06,-216 673.94,-216 673.94,-252"/>
<text text-anchor="middle" x="637" y="-229.8" font-family="Times,serif" font-size="14.00">Toggletip </text>
</g>
<!-- ToggletipModule&#45;&gt;Toggletip  -->
<g id="edge7" class="edge">
<title>ToggletipModule&#45;&gt;Toggletip </title>
<path fill="none" stroke="black" stroke-dasharray="5,2" d="M453.23,-173C520.08,-173 621.65,-173 621.65,-173 621.65,-173 621.65,-205.7 621.65,-205.7"/>
<polygon fill="black" stroke="black" points="618.15,-205.7 621.65,-215.7 625.15,-205.7 618.15,-205.7"/>
</g>
<!-- ToggletipAction  -->
<g id="node9" class="node">
<title>ToggletipAction </title>
<polygon fill="#fb8072" stroke="black" points="582.04,-252 469.96,-252 469.96,-216 582.04,-216 582.04,-252"/>
<text text-anchor="middle" x="526" y="-229.8" font-family="Times,serif" font-size="14.00">ToggletipAction </text>
</g>
<!-- ToggletipModule&#45;&gt;ToggletipAction  -->
<g id="edge8" class="edge">
<title>ToggletipModule&#45;&gt;ToggletipAction </title>
<path fill="none" stroke="black" stroke-dasharray="5,2" d="M453.06,-180C474.2,-180 493.13,-180 493.13,-180 493.13,-180 493.13,-205.72 493.13,-205.72"/>
<polygon fill="black" stroke="black" points="489.63,-205.72 493.13,-215.72 496.63,-205.72 489.63,-205.72"/>
</g>
<!-- ToggletipButton  -->
<g id="node10" class="node">
<title>ToggletipButton </title>
<polygon fill="#fb8072" stroke="black" points="452.06,-252 339.94,-252 339.94,-216 452.06,-216 452.06,-252"/>
<text text-anchor="middle" x="396" y="-229.8" font-family="Times,serif" font-size="14.00">ToggletipButton </text>
</g>
<!-- ToggletipModule&#45;&gt;ToggletipButton  -->
<g id="edge9" class="edge">
<title>ToggletipModule&#45;&gt;ToggletipButton </title>
<path fill="none" stroke="black" stroke-dasharray="5,2" d="M396,-187.11C396,-187.11 396,-205.99 396,-205.99"/>
<polygon fill="black" stroke="black" points="392.5,-205.99 396,-215.99 399.5,-205.99 392.5,-205.99"/>
</g>
<!-- ToggletipContent  -->
<g id="node11" class="node">
<title>ToggletipContent </title>
<polygon fill="#fb8072" stroke="black" points="322.27,-252 203.73,-252 203.73,-216 322.27,-216 322.27,-252"/>
<text text-anchor="middle" x="263" y="-229.8" font-family="Times,serif" font-size="14.00">ToggletipContent </text>
</g>
<!-- ToggletipModule&#45;&gt;ToggletipContent  -->
<g id="edge10" class="edge">
<title>ToggletipModule&#45;&gt;ToggletipContent </title>
<path fill="none" stroke="black" stroke-dasharray="5,2" d="M338.93,-180C317.56,-180 298.38,-180 298.38,-180 298.38,-180 298.38,-205.72 298.38,-205.72"/>
<polygon fill="black" stroke="black" points="294.88,-205.72 298.38,-215.72 301.88,-205.72 294.88,-205.72"/>
</g>
<!-- ToggletipLabel  -->
<g id="node12" class="node">
<title>ToggletipLabel </title>
<polygon fill="#fb8072" stroke="black" points="185.81,-252 80.19,-252 80.19,-216 185.81,-216 185.81,-252"/>
<text text-anchor="middle" x="133" y="-229.8" font-family="Times,serif" font-size="14.00">ToggletipLabel </text>
</g>
<!-- ToggletipModule&#45;&gt;ToggletipLabel  -->
<g id="edge11" class="edge">
<title>ToggletipModule&#45;&gt;ToggletipLabel </title>
<path fill="none" stroke="black" stroke-dasharray="5,2" d="M338.94,-173C271.95,-173 169.88,-173 169.88,-173 169.88,-173 169.88,-205.7 169.88,-205.7"/>
<polygon fill="black" stroke="black" points="166.38,-205.7 169.88,-215.7 173.38,-205.7 166.38,-205.7"/>
</g>
<!-- PopoverModule -->
<g id="node7" class="node">
<title>PopoverModule</title>
<polygon fill="#8dd3c7" stroke="black" points="130.21,-122 127.21,-126 106.21,-126 103.21,-122 23.79,-122 23.79,-86 130.21,-86 130.21,-122"/>
<text text-anchor="middle" x="77" y="-99.8" font-family="Times,serif" font-size="14.00">PopoverModule</text>
</g>
<!-- PopoverModule&#45;&gt;ToggletipModule -->
<g id="edge6" class="edge">
<title>PopoverModule&#45;&gt;ToggletipModule</title>
<path fill="none" stroke="black" d="M105.1,-122.27C105.1,-140.56 105.1,-166 105.1,-166 105.1,-166 328.87,-166 328.87,-166"/>
<polygon fill="black" stroke="black" points="328.87,-169.5 338.87,-166 328.87,-162.5 328.87,-169.5"/>
</g>
</g>
</svg>
