<?xml version="1.0" encoding="UTF-8" standalone="no"?>
<!DOCTYPE svg PUBLIC "-//W3C//DTD SVG 1.1//EN"
 "http://www.w3.org/Graphics/SVG/1.1/DTD/svg11.dtd">
<!-- Generated by graphviz version 2.40.1 (20161225.0304)
 -->
<!-- Title: dependencies Pages: 1 -->
<svg width="1690pt" height="349pt"
 viewBox="0.00 0.00 1690.00 349.00" xmlns="http://www.w3.org/2000/svg" xmlns:xlink="http://www.w3.org/1999/xlink">
<g id="graph0" class="graph" transform="scale(1 1) rotate(0) translate(4 345)">
<title>dependencies</title>
<polygon fill="#ffffff" stroke="transparent" points="-4,4 -4,-345 1686,-345 1686,4 -4,4"/>
<text text-anchor="start" x="820.0091" y="-42.4" font-family="sans-serif" font-weight="bold" font-size="14.00" fill="#000000">Legend</text>
<polygon fill="#ffffb3" stroke="transparent" points="607,-10 607,-30 627,-30 627,-10 607,-10"/>
<text text-anchor="start" x="630.629" y="-15.4" font-family="sans-serif" font-size="14.00" fill="#000000"> &#160;Declarations</text>
<polygon fill="#8dd3c7" stroke="transparent" points="720,-10 720,-30 740,-30 740,-10 720,-10"/>
<text text-anchor="start" x="743.7251" y="-15.4" font-family="sans-serif" font-size="14.00" fill="#000000"> &#160;Module</text>
<polygon fill="#80b1d3" stroke="transparent" points="806,-10 806,-30 826,-30 826,-10 806,-10"/>
<text text-anchor="start" x="829.7812" y="-15.4" font-family="sans-serif" font-size="14.00" fill="#000000"> &#160;Bootstrap</text>
<polygon fill="#fdb462" stroke="transparent" points="903,-10 903,-30 923,-30 923,-10 903,-10"/>
<text text-anchor="start" x="926.6732" y="-15.4" font-family="sans-serif" font-size="14.00" fill="#000000"> &#160;Providers</text>
<polygon fill="#fb8072" stroke="transparent" points="999,-10 999,-30 1019,-30 1019,-10 999,-10"/>
<text text-anchor="start" x="1022.7258" y="-15.4" font-family="sans-serif" font-size="14.00" fill="#000000"> &#160;Exports</text>
<g id="clust1" class="cluster">
<title>cluster_DialogModule</title>
<polygon fill="none" stroke="#000000" stroke-dasharray="1,5" points="8,-70 8,-333 1674,-333 1674,-70 8,-70"/>
</g>
<g id="clust2" class="cluster">
<title>cluster_DialogModule_declarations</title>
<polygon fill="none" stroke="#000000" points="403,-143 403,-195 1654,-195 1654,-143 403,-143"/>
</g>
<g id="clust4" class="cluster">
<title>cluster_DialogModule_DialogDirective_providers</title>
<polygon fill="none" stroke="#000000" points="1482,-78 1482,-130 1630,-130 1630,-78 1482,-78"/>
</g>
<g id="clust13" class="cluster">
<title>cluster_DialogModule_imports</title>
<polygon fill="none" stroke="#000000" points="16,-143 16,-195 395,-195 395,-143 16,-143"/>
</g>
<g id="clust14" class="cluster">
<title>cluster_DialogModule_exports</title>
<polygon fill="none" stroke="#000000" points="225,-273 225,-325 1512,-325 1512,-273 225,-273"/>
</g>
<!-- Dialog -->
<g id="node1" class="node">
<title>Dialog</title>
<polygon fill="#ffffb3" stroke="#000000" points="1646.1025,-187 1591.8975,-187 1591.8975,-151 1646.1025,-151 1646.1025,-187"/>
<text text-anchor="middle" x="1619" y="-164.8" font-family="Times,serif" font-size="14.00" fill="#000000">Dialog</text>
</g>
<!-- DialogModule -->
<g id="node11" class="node">
<title>DialogModule</title>
<polygon fill="#8dd3c7" stroke="#000000" points="958.6528,-252 955.6528,-256 934.6528,-256 931.6528,-252 861.3472,-252 861.3472,-216 958.6528,-216 958.6528,-252"/>
<text text-anchor="middle" x="910" y="-229.8" font-family="Times,serif" font-size="14.00" fill="#000000">DialogModule</text>
</g>
<!-- Dialog&#45;&gt;DialogModule -->
<g id="edge1" class="edge">
<title>Dialog&#45;&gt;DialogModule</title>
<path fill="none" stroke="#000000" d="M1619,-187.1061C1619,-206.3391 1619,-234 1619,-234 1619,-234 968.7324,-234 968.7324,-234"/>
<polygon fill="#000000" stroke="#000000" points="968.7325,-230.5001 958.7324,-234 968.7324,-237.5001 968.7325,-230.5001"/>
</g>
<!-- DialogDirective -->
<g id="node2" class="node">
<title>DialogDirective</title>
<polygon fill="#ffffb3" stroke="#000000" points="1574.1854,-187 1467.8146,-187 1467.8146,-151 1574.1854,-151 1574.1854,-187"/>
<text text-anchor="middle" x="1521" y="-164.8" font-family="Times,serif" font-size="14.00" fill="#000000">DialogDirective</text>
</g>
<!-- DialogDirective&#45;&gt;DialogModule -->
<g id="edge2" class="edge">
<title>DialogDirective&#45;&gt;DialogModule</title>
<path fill="none" stroke="#000000" d="M1485.8543,-187.2667C1485.8543,-205.5552 1485.8543,-231 1485.8543,-231 1485.8543,-231 969.097,-231 969.097,-231"/>
<polygon fill="#000000" stroke="#000000" points="969.097,-227.5001 959.097,-231 969.097,-234.5001 969.097,-227.5001"/>
</g>
<!-- DialogPlaceholder -->
<g id="node3" class="node">
<title>DialogPlaceholder</title>
<polygon fill="#ffffb3" stroke="#000000" points="1450.1853,-187 1329.8147,-187 1329.8147,-151 1450.1853,-151 1450.1853,-187"/>
<text text-anchor="middle" x="1390" y="-164.8" font-family="Times,serif" font-size="14.00" fill="#000000">DialogPlaceholder</text>
</g>
<!-- DialogPlaceholder&#45;&gt;DialogModule -->
<g id="edge4" class="edge">
<title>DialogPlaceholder&#45;&gt;DialogModule</title>
<path fill="none" stroke="#000000" d="M1378.875,-187.0336C1378.875,-204.0597 1378.875,-227 1378.875,-227 1378.875,-227 968.8509,-227 968.8509,-227"/>
<polygon fill="#000000" stroke="#000000" points="968.851,-223.5001 958.8509,-227 968.8509,-230.5001 968.851,-223.5001"/>
</g>
<!-- EllipsisTooltip -->
<g id="node4" class="node">
<title>EllipsisTooltip</title>
<polygon fill="#ffffb3" stroke="#000000" points="1311.7289,-187 1212.2711,-187 1212.2711,-151 1311.7289,-151 1311.7289,-187"/>
<text text-anchor="middle" x="1262" y="-164.8" font-family="Times,serif" font-size="14.00" fill="#000000">EllipsisTooltip</text>
</g>
<!-- EllipsisTooltip&#45;&gt;DialogModule -->
<g id="edge5" class="edge">
<title>EllipsisTooltip&#45;&gt;DialogModule</title>
<path fill="none" stroke="#000000" d="M1256.1141,-187.0091C1256.1141,-203.0494 1256.1141,-224 1256.1141,-224 1256.1141,-224 968.8556,-224 968.8556,-224"/>
<polygon fill="#000000" stroke="#000000" points="968.8557,-220.5001 958.8556,-224 968.8556,-227.5001 968.8557,-220.5001"/>
</g>
<!-- OverflowMenu -->
<g id="node5" class="node">
<title>OverflowMenu</title>
<polygon fill="#ffffb3" stroke="#000000" points="1194.2992,-187 1091.7008,-187 1091.7008,-151 1194.2992,-151 1194.2992,-187"/>
<text text-anchor="middle" x="1143" y="-164.8" font-family="Times,serif" font-size="14.00" fill="#000000">OverflowMenu</text>
</g>
<!-- OverflowMenu&#45;&gt;DialogModule -->
<g id="edge6" class="edge">
<title>OverflowMenu&#45;&gt;DialogModule</title>
<path fill="none" stroke="#000000" d="M1125.1075,-187.1243C1125.1075,-201.7832 1125.1075,-220 1125.1075,-220 1125.1075,-220 968.8112,-220 968.8112,-220"/>
<polygon fill="#000000" stroke="#000000" points="968.8112,-216.5001 958.8112,-220 968.8112,-223.5001 968.8112,-216.5001"/>
</g>
<!-- OverflowMenuDirective -->
<g id="node6" class="node">
<title>OverflowMenuDirective</title>
<polygon fill="#ffffb3" stroke="#000000" points="1074.3821,-187 919.6179,-187 919.6179,-151 1074.3821,-151 1074.3821,-187"/>
<text text-anchor="middle" x="997" y="-164.8" font-family="Times,serif" font-size="14.00" fill="#000000">OverflowMenuDirective</text>
</g>
<!-- OverflowMenuDirective&#45;&gt;DialogModule -->
<g id="edge7" class="edge">
<title>OverflowMenuDirective&#45;&gt;DialogModule</title>
<path fill="none" stroke="#000000" d="M939.3177,-187.1061C939.3177,-187.1061 939.3177,-205.991 939.3177,-205.991"/>
<polygon fill="#000000" stroke="#000000" points="935.8177,-205.9909 939.3177,-215.991 942.8177,-205.991 935.8177,-205.9909"/>
</g>
<!-- OverflowMenuOption -->
<g id="node7" class="node">
<title>OverflowMenuOption</title>
<polygon fill="#ffffb3" stroke="#000000" points="901.6867,-187 760.3133,-187 760.3133,-151 901.6867,-151 901.6867,-187"/>
<text text-anchor="middle" x="831" y="-164.8" font-family="Times,serif" font-size="14.00" fill="#000000">OverflowMenuOption</text>
</g>
<!-- OverflowMenuOption&#45;&gt;DialogModule -->
<g id="edge8" class="edge">
<title>OverflowMenuOption&#45;&gt;DialogModule</title>
<path fill="none" stroke="#000000" d="M881.3836,-187.1061C881.3836,-187.1061 881.3836,-205.991 881.3836,-205.991"/>
<polygon fill="#000000" stroke="#000000" points="877.8837,-205.9909 881.3836,-215.991 884.8837,-205.991 877.8837,-205.9909"/>
</g>
<!-- OverflowMenuPane -->
<g id="node8" class="node">
<title>OverflowMenuPane</title>
<polygon fill="#ffffb3" stroke="#000000" points="742.5115,-187 613.4885,-187 613.4885,-151 742.5115,-151 742.5115,-187"/>
<text text-anchor="middle" x="678" y="-164.8" font-family="Times,serif" font-size="14.00" fill="#000000">OverflowMenuPane</text>
</g>
<!-- OverflowMenuPane&#45;&gt;DialogModule -->
<g id="edge9" class="edge">
<title>OverflowMenuPane&#45;&gt;DialogModule</title>
<path fill="none" stroke="#000000" d="M696.6438,-187.1243C696.6438,-201.7832 696.6438,-220 696.6438,-220 696.6438,-220 851.3192,-220 851.3192,-220"/>
<polygon fill="#000000" stroke="#000000" points="851.3192,-223.5001 861.3192,-220 851.3192,-216.5001 851.3192,-223.5001"/>
</g>
<!-- Tooltip -->
<g id="node9" class="node">
<title>Tooltip</title>
<polygon fill="#ffffb3" stroke="#000000" points="595.7248,-187 538.2752,-187 538.2752,-151 595.7248,-151 595.7248,-187"/>
<text text-anchor="middle" x="567" y="-164.8" font-family="Times,serif" font-size="14.00" fill="#000000">Tooltip</text>
</g>
<!-- Tooltip&#45;&gt;DialogModule -->
<g id="edge10" class="edge">
<title>Tooltip&#45;&gt;DialogModule</title>
<path fill="none" stroke="#000000" d="M584.581,-187.2819C584.581,-202.9478 584.581,-223 584.581,-223 584.581,-223 851.2815,-223 851.2815,-223"/>
<polygon fill="#000000" stroke="#000000" points="851.2815,-226.5001 861.2815,-223 851.2815,-219.5001 851.2815,-226.5001"/>
</g>
<!-- TooltipDirective -->
<g id="node10" class="node">
<title>TooltipDirective</title>
<polygon fill="#ffffb3" stroke="#000000" points="520.8076,-187 411.1924,-187 411.1924,-151 520.8076,-151 520.8076,-187"/>
<text text-anchor="middle" x="466" y="-164.8" font-family="Times,serif" font-size="14.00" fill="#000000">TooltipDirective</text>
</g>
<!-- TooltipDirective&#45;&gt;DialogModule -->
<g id="edge11" class="edge">
<title>TooltipDirective&#45;&gt;DialogModule</title>
<path fill="none" stroke="#000000" d="M481.5742,-187.0352C481.5742,-203.7344 481.5742,-226 481.5742,-226 481.5742,-226 851.2712,-226 851.2712,-226"/>
<polygon fill="#000000" stroke="#000000" points="851.2713,-229.5001 861.2712,-226 851.2712,-222.5001 851.2713,-229.5001"/>
</g>
<!-- Dialog  -->
<g id="node16" class="node">
<title>Dialog </title>
<polygon fill="#fb8072" stroke="#000000" points="1503.6038,-317 1446.3962,-317 1446.3962,-281 1503.6038,-281 1503.6038,-317"/>
<text text-anchor="middle" x="1475" y="-294.8" font-family="Times,serif" font-size="14.00" fill="#000000">Dialog </text>
</g>
<!-- DialogModule&#45;&gt;Dialog  -->
<g id="edge15" class="edge">
<title>DialogModule&#45;&gt;Dialog </title>
<path fill="none" stroke="#000000" stroke-dasharray="5,2" d="M958.7201,-238C1093.081,-238 1459,-238 1459,-238 1459,-238 1459,-270.698 1459,-270.698"/>
<polygon fill="#000000" stroke="#000000" points="1455.5001,-270.698 1459,-280.698 1462.5001,-270.698 1455.5001,-270.698"/>
</g>
<!-- DialogDirective  -->
<g id="node17" class="node">
<title>DialogDirective </title>
<polygon fill="#fb8072" stroke="#000000" points="1427.6857,-317 1318.3143,-317 1318.3143,-281 1427.6857,-281 1427.6857,-317"/>
<text text-anchor="middle" x="1373" y="-294.8" font-family="Times,serif" font-size="14.00" fill="#000000">DialogDirective </text>
</g>
<!-- DialogModule&#45;&gt;DialogDirective  -->
<g id="edge16" class="edge">
<title>DialogModule&#45;&gt;DialogDirective </title>
<path fill="none" stroke="#000000" stroke-dasharray="5,2" d="M958.7123,-242C1068.1584,-242 1324.0324,-242 1324.0324,-242 1324.0324,-242 1324.0324,-270.9648 1324.0324,-270.9648"/>
<polygon fill="#000000" stroke="#000000" points="1320.5325,-270.9648 1324.0324,-280.9648 1327.5325,-270.9649 1320.5325,-270.9648"/>
</g>
<!-- DialogPlaceholder  -->
<g id="node18" class="node">
<title>DialogPlaceholder </title>
<polygon fill="#fb8072" stroke="#000000" points="1299.6856,-317 1176.3144,-317 1176.3144,-281 1299.6856,-281 1299.6856,-317"/>
<text text-anchor="middle" x="1238" y="-294.8" font-family="Times,serif" font-size="14.00" fill="#000000">DialogPlaceholder </text>
</g>
<!-- DialogModule&#45;&gt;DialogPlaceholder  -->
<g id="edge17" class="edge">
<title>DialogModule&#45;&gt;DialogPlaceholder </title>
<path fill="none" stroke="#000000" stroke-dasharray="5,2" d="M958.8749,-245C1037.943,-245 1185.1534,-245 1185.1534,-245 1185.1534,-245 1185.1534,-270.7181 1185.1534,-270.7181"/>
<polygon fill="#000000" stroke="#000000" points="1181.6535,-270.718 1185.1534,-280.7181 1188.6535,-270.7181 1181.6535,-270.718"/>
</g>
<!-- EllipsisTooltip  -->
<g id="node19" class="node">
<title>EllipsisTooltip </title>
<polygon fill="#fb8072" stroke="#000000" points="1158.229,-317 1055.771,-317 1055.771,-281 1158.229,-281 1158.229,-317"/>
<text text-anchor="middle" x="1107" y="-294.8" font-family="Times,serif" font-size="14.00" fill="#000000">EllipsisTooltip </text>
</g>
<!-- DialogModule&#45;&gt;EllipsisTooltip  -->
<g id="edge18" class="edge">
<title>DialogModule&#45;&gt;EllipsisTooltip </title>
<path fill="none" stroke="#000000" stroke-dasharray="5,2" d="M959.0155,-249C1004.4003,-249 1064.9133,-249 1064.9133,-249 1064.9133,-249 1064.9133,-270.9489 1064.9133,-270.9489"/>
<polygon fill="#000000" stroke="#000000" points="1061.4133,-270.9488 1064.9133,-280.9489 1068.4133,-270.9489 1061.4133,-270.9488"/>
</g>
<!-- OverflowMenu  -->
<g id="node20" class="node">
<title>OverflowMenu </title>
<polygon fill="#fb8072" stroke="#000000" points="1037.799,-317 932.201,-317 932.201,-281 1037.799,-281 1037.799,-317"/>
<text text-anchor="middle" x="985" y="-294.8" font-family="Times,serif" font-size="14.00" fill="#000000">OverflowMenu </text>
</g>
<!-- DialogModule&#45;&gt;OverflowMenu  -->
<g id="edge19" class="edge">
<title>DialogModule&#45;&gt;OverflowMenu </title>
<path fill="none" stroke="#000000" stroke-dasharray="5,2" d="M945.4634,-252.1061C945.4634,-252.1061 945.4634,-270.991 945.4634,-270.991"/>
<polygon fill="#000000" stroke="#000000" points="941.9634,-270.9909 945.4634,-280.991 948.9634,-270.991 941.9634,-270.9909"/>
</g>
<!-- OverflowMenuDirective  -->
<g id="node21" class="node">
<title>OverflowMenuDirective </title>
<polygon fill="#fb8072" stroke="#000000" points="913.8816,-317 756.1184,-317 756.1184,-281 913.8816,-281 913.8816,-317"/>
<text text-anchor="middle" x="835" y="-294.8" font-family="Times,serif" font-size="14.00" fill="#000000">OverflowMenuDirective </text>
</g>
<!-- DialogModule&#45;&gt;OverflowMenuDirective  -->
<g id="edge20" class="edge">
<title>DialogModule&#45;&gt;OverflowMenuDirective </title>
<path fill="none" stroke="#000000" stroke-dasharray="5,2" d="M887.5574,-252.1061C887.5574,-252.1061 887.5574,-270.991 887.5574,-270.991"/>
<polygon fill="#000000" stroke="#000000" points="884.0574,-270.9909 887.5574,-280.991 891.0574,-270.991 884.0574,-270.9909"/>
</g>
<!-- OverflowMenuOption  -->
<g id="node22" class="node">
<title>OverflowMenuOption </title>
<polygon fill="#fb8072" stroke="#000000" points="738.1869,-317 593.8131,-317 593.8131,-281 738.1869,-281 738.1869,-317"/>
<text text-anchor="middle" x="666" y="-294.8" font-family="Times,serif" font-size="14.00" fill="#000000">OverflowMenuOption </text>
</g>
<!-- DialogModule&#45;&gt;OverflowMenuOption  -->
<g id="edge21" class="edge">
<title>DialogModule&#45;&gt;OverflowMenuOption </title>
<path fill="none" stroke="#000000" stroke-dasharray="5,2" d="M861.1245,-249C787.0647,-249 654.9442,-249 654.9442,-249 654.9442,-249 654.9442,-270.9489 654.9442,-270.9489"/>
<polygon fill="#000000" stroke="#000000" points="651.4443,-270.9488 654.9442,-280.9489 658.4443,-270.9489 651.4443,-270.9488"/>
</g>
<!-- OverflowMenuPane  -->
<g id="node23" class="node">
<title>OverflowMenuPane </title>
<polygon fill="#fb8072" stroke="#000000" points="575.5106,-317 442.4894,-317 442.4894,-281 575.5106,-281 575.5106,-317"/>
<text text-anchor="middle" x="509" y="-294.8" font-family="Times,serif" font-size="14.00" fill="#000000">OverflowMenuPane </text>
</g>
<!-- DialogModule&#45;&gt;OverflowMenuPane  -->
<g id="edge22" class="edge">
<title>DialogModule&#45;&gt;OverflowMenuPane </title>
<path fill="none" stroke="#000000" stroke-dasharray="5,2" d="M861.2801,-246C764.4283,-246 556.9466,-246 556.9466,-246 556.9466,-246 556.9466,-270.7604 556.9466,-270.7604"/>
<polygon fill="#000000" stroke="#000000" points="553.4466,-270.7604 556.9466,-280.7604 560.4466,-270.7604 553.4466,-270.7604"/>
</g>
<!-- Tooltip  -->
<g id="node24" class="node">
<title>Tooltip </title>
<polygon fill="#fb8072" stroke="#000000" points="424.225,-317 363.775,-317 363.775,-281 424.225,-281 424.225,-317"/>
<text text-anchor="middle" x="394" y="-294.8" font-family="Times,serif" font-size="14.00" fill="#000000">Tooltip </text>
</g>
<!-- DialogModule&#45;&gt;Tooltip  -->
<g id="edge23" class="edge">
<title>DialogModule&#45;&gt;Tooltip </title>
<path fill="none" stroke="#000000" stroke-dasharray="5,2" d="M861.0119,-243C736.5295,-243 417.8543,-243 417.8543,-243 417.8543,-243 417.8543,-270.973 417.8543,-270.973"/>
<polygon fill="#000000" stroke="#000000" points="414.3544,-270.973 417.8543,-280.973 421.3544,-270.973 414.3544,-270.973"/>
</g>
<!-- TooltipDirective  -->
<g id="node25" class="node">
<title>TooltipDirective </title>
<polygon fill="#fb8072" stroke="#000000" points="345.3074,-317 232.6926,-317 232.6926,-281 345.3074,-281 345.3074,-317"/>
<text text-anchor="middle" x="289" y="-294.8" font-family="Times,serif" font-size="14.00" fill="#000000">TooltipDirective </text>
</g>
<!-- DialogModule&#45;&gt;TooltipDirective  -->
<g id="edge24" class="edge">
<title>DialogModule&#45;&gt;TooltipDirective </title>
<path fill="none" stroke="#000000" stroke-dasharray="5,2" d="M861.2466,-239C720.4834,-239 323.3992,-239 323.3992,-239 323.3992,-239 323.3992,-270.998 323.3992,-270.998"/>
<polygon fill="#000000" stroke="#000000" points="319.8993,-270.998 323.3992,-280.998 326.8993,-270.9981 319.8993,-270.998"/>
</g>
<!-- DialogService -->
<g id="node12" class="node">
<title>DialogService</title>
<ellipse fill="#fdb462" stroke="#000000" cx="1556" cy="-104" rx="66.0492" ry="18"/>
<text text-anchor="middle" x="1556" y="-99.8" font-family="Times,serif" font-size="14.00" fill="#000000">DialogService</text>
</g>
<!-- DialogService&#45;&gt;DialogDirective -->
<g id="edge3" class="edge">
<title>DialogService&#45;&gt;DialogDirective</title>
<path fill="none" stroke="#000000" d="M1531.9092,-121.078C1531.9092,-121.078 1531.9092,-140.8993 1531.9092,-140.8993"/>
<polygon fill="#000000" stroke="#000000" points="1528.4093,-140.8992 1531.9092,-150.8993 1535.4093,-140.8993 1528.4093,-140.8992"/>
</g>
<!-- DialogService&#45;&gt;DialogModule -->
<g id="edge25" class="edge">
<title>DialogService&#45;&gt;DialogModule</title>
<path fill="none" stroke="#000000" d="M1489.6735,-104C1325.0043,-104 910.7013,-104 910.7013,-104 910.7013,-104 910.7013,-205.9241 910.7013,-205.9241"/>
<polygon fill="#000000" stroke="#000000" points="907.2013,-205.924 910.7013,-215.9241 914.2013,-205.9241 907.2013,-205.924"/>
</g>
<!-- I18nModule -->
<g id="node13" class="node">
<title>I18nModule</title>
<polygon fill="#8dd3c7" stroke="#000000" points="386.7107,-187 383.7107,-191 362.7107,-191 359.7107,-187 301.2893,-187 301.2893,-151 386.7107,-151 386.7107,-187"/>
<text text-anchor="middle" x="344" y="-164.8" font-family="Times,serif" font-size="14.00" fill="#000000">I18nModule</text>
</g>
<!-- I18nModule&#45;&gt;DialogModule -->
<g id="edge12" class="edge">
<title>I18nModule&#45;&gt;DialogModule</title>
<path fill="none" stroke="#000000" d="M375.1215,-187.302C375.1215,-205.2699 375.1215,-230 375.1215,-230 375.1215,-230 851.1152,-230 851.1152,-230"/>
<polygon fill="#000000" stroke="#000000" points="851.1152,-233.5001 861.1152,-230 851.1151,-226.5001 851.1152,-233.5001"/>
</g>
<!-- PlaceholderModule -->
<g id="node14" class="node">
<title>PlaceholderModule</title>
<polygon fill="#8dd3c7" stroke="#000000" points="283.6331,-187 280.6331,-191 259.6331,-191 256.6331,-187 158.3669,-187 158.3669,-151 283.6331,-151 283.6331,-187"/>
<text text-anchor="middle" x="221" y="-164.8" font-family="Times,serif" font-size="14.00" fill="#000000">PlaceholderModule</text>
</g>
<!-- PlaceholderModule&#45;&gt;DialogModule -->
<g id="edge13" class="edge">
<title>PlaceholderModule&#45;&gt;DialogModule</title>
<path fill="none" stroke="#000000" d="M258.2064,-187.1686C258.2064,-206.0898 258.2064,-233 258.2064,-233 258.2064,-233 851.2761,-233 851.2761,-233"/>
<polygon fill="#000000" stroke="#000000" points="851.2761,-236.5001 861.2761,-233 851.2761,-229.5001 851.2761,-236.5001"/>
</g>
<!-- StaticIconModule -->
<g id="node15" class="node">
<title>StaticIconModule</title>
<polygon fill="#8dd3c7" stroke="#000000" points="140.309,-187 137.309,-191 116.309,-191 113.309,-187 23.691,-187 23.691,-151 140.309,-151 140.309,-187"/>
<text text-anchor="middle" x="82" y="-164.8" font-family="Times,serif" font-size="14.00" fill="#000000">StaticIconModule</text>
</g>
<!-- StaticIconModule&#45;&gt;DialogModule -->
<g id="edge14" class="edge">
<title>StaticIconModule&#45;&gt;DialogModule</title>
<path fill="none" stroke="#000000" d="M82,-187.308C82,-207.1455 82,-236 82,-236 82,-236 851.2961,-236 851.2961,-236"/>
<polygon fill="#000000" stroke="#000000" points="851.2961,-239.5001 861.2961,-236 851.296,-232.5001 851.2961,-239.5001"/>
</g>
</g>
</svg>
