<?xml version="1.0" encoding="UTF-8" standalone="no"?>
<!DOCTYPE svg PUBLIC "-//W3C//DTD SVG 1.1//EN"
 "http://www.w3.org/Graphics/SVG/1.1/DTD/svg11.dtd">
<!-- Generated by graphviz version 2.47.0 (20210316.0004)
 -->
<!-- Title: dependencies Pages: 1 -->
<svg width="504pt" height="284pt"
 viewBox="0.00 0.00 504.00 284.00" xmlns="http://www.w3.org/2000/svg" xmlns:xlink="http://www.w3.org/1999/xlink">
<g id="graph0" class="graph" transform="scale(1 1) rotate(0) translate(4 280)">
<title>dependencies</title>
<polygon fill="white" stroke="transparent" points="-4,4 -4,-280 500,-280 500,4 -4,4"/>
<text text-anchor="start" x="227.01" y="-42.4" font-family="Times-12" font-weight="bold" font-size="14.00">Legend</text>
<polygon fill="#ffffb3" stroke="transparent" points="14,-10 14,-30 34,-30 34,-10 14,-10"/>
<text text-anchor="start" x="37.63" y="-15.4" font-family="Times-12" font-size="14.00"> &#160;Declarations</text>
<polygon fill="#8dd3c7" stroke="transparent" points="127,-10 127,-30 147,-30 147,-10 127,-10"/>
<text text-anchor="start" x="150.73" y="-15.4" font-family="Times-12" font-size="14.00"> &#160;Module</text>
<polygon fill="#80b1d3" stroke="transparent" points="213,-10 213,-30 233,-30 233,-10 213,-10"/>
<text text-anchor="start" x="236.78" y="-15.4" font-family="Times-12" font-size="14.00"> &#160;Bootstrap</text>
<polygon fill="#fdb462" stroke="transparent" points="310,-10 310,-30 330,-30 330,-10 310,-10"/>
<text text-anchor="start" x="333.67" y="-15.4" font-family="Times-12" font-size="14.00"> &#160;Providers</text>
<polygon fill="#fb8072" stroke="transparent" points="406,-10 406,-30 426,-30 426,-10 406,-10"/>
<text text-anchor="start" x="429.73" y="-15.4" font-family="Times-12" font-size="14.00"> &#160;Exports</text>
<g id="clust1" class="cluster">
<title>cluster_I18nModule</title>
<polygon fill="none" stroke="black" stroke-dasharray="1,5" points="148,-70 148,-268 348,-268 348,-70 148,-70"/>
</g>
<g id="clust2" class="cluster">
<title>cluster_I18nModule_declarations</title>
<polygon fill="none" stroke="black" points="238,-78 238,-130 340,-130 340,-78 238,-78"/>
</g>
<g id="clust5" class="cluster">
<title>cluster_I18nModule_exports</title>
<polygon fill="none" stroke="black" points="195,-208 195,-260 301,-260 301,-208 195,-208"/>
</g>
<g id="clust7" class="cluster">
<title>cluster_I18nModule_providers</title>
<polygon fill="none" stroke="black" points="156,-78 156,-130 230,-130 230,-78 156,-78"/>
</g>
<!-- ReplacePipe -->
<g id="node1" class="node">
<title>ReplacePipe</title>
<polygon fill="#ffffb3" stroke="black" points="331.97,-122 246.03,-122 246.03,-86 331.97,-86 331.97,-122"/>
<text text-anchor="middle" x="289" y="-99.8" font-family="Times,serif" font-size="14.00">ReplacePipe</text>
</g>
<!-- I18nModule -->
<g id="node2" class="node">
<title>I18nModule</title>
<polygon fill="#8dd3c7" stroke="black" points="290.71,-187 287.71,-191 266.71,-191 263.71,-187 205.29,-187 205.29,-151 290.71,-151 290.71,-187"/>
<text text-anchor="middle" x="248" y="-164.8" font-family="Times,serif" font-size="14.00">I18nModule</text>
</g>
<!-- ReplacePipe&#45;&gt;I18nModule -->
<g id="edge1" class="edge">
<title>ReplacePipe&#45;&gt;I18nModule</title>
<path fill="none" stroke="black" d="M268.31,-122.11C268.31,-122.11 268.31,-140.99 268.31,-140.99"/>
<polygon fill="black" stroke="black" points="264.81,-140.99 268.31,-150.99 271.81,-140.99 264.81,-140.99"/>
</g>
<!-- ReplacePipe  -->
<g id="node3" class="node">
<title>ReplacePipe </title>
<polygon fill="#fb8072" stroke="black" points="292.97,-252 203.03,-252 203.03,-216 292.97,-216 292.97,-252"/>
<text text-anchor="middle" x="248" y="-229.8" font-family="Times,serif" font-size="14.00">ReplacePipe </text>
</g>
<!-- I18nModule&#45;&gt;ReplacePipe  -->
<g id="edge2" class="edge">
<title>I18nModule&#45;&gt;ReplacePipe </title>
<path fill="none" stroke="black" stroke-dasharray="5,2" d="M248,-187.11C248,-187.11 248,-205.99 248,-205.99"/>
<polygon fill="black" stroke="black" points="244.5,-205.99 248,-215.99 251.5,-205.99 244.5,-205.99"/>
</g>
<!-- I18n -->
<g id="node4" class="node">
<title>I18n</title>
<ellipse fill="#fdb462" stroke="black" cx="193" cy="-104" rx="28.98" ry="18"/>
<text text-anchor="middle" x="193" y="-99.8" font-family="Times,serif" font-size="14.00">I18n</text>
</g>
<!-- I18n&#45;&gt;I18nModule -->
<g id="edge3" class="edge">
<title>I18n&#45;&gt;I18nModule</title>
<path fill="none" stroke="black" d="M213.57,-116.84C213.57,-116.84 213.57,-140.52 213.57,-140.52"/>
<polygon fill="black" stroke="black" points="210.07,-140.52 213.57,-150.52 217.07,-140.52 210.07,-140.52"/>
</g>
</g>
</svg>
