<?xml version="1.0" encoding="UTF-8" standalone="no"?>
<!DOCTYPE svg PUBLIC "-//W3C//DTD SVG 1.1//EN"
 "http://www.w3.org/Graphics/SVG/1.1/DTD/svg11.dtd">
<!-- Generated by graphviz version 2.40.1 (20161225.0304)
 -->
<!-- Title: dependencies Pages: 1 -->
<svg width="540pt" height="284pt"
 viewBox="0.00 0.00 540.00 284.00" xmlns="http://www.w3.org/2000/svg" xmlns:xlink="http://www.w3.org/1999/xlink">
<g id="graph0" class="graph" transform="scale(1 1) rotate(0) translate(4 280)">
<title>dependencies</title>
<polygon fill="#ffffff" stroke="transparent" points="-4,4 -4,-280 536,-280 536,4 -4,4"/>
<text text-anchor="start" x="245.0091" y="-42.4" font-family="sans-serif" font-weight="bold" font-size="14.00" fill="#000000">Legend</text>
<polygon fill="#ffffb3" stroke="transparent" points="32,-10 32,-30 52,-30 52,-10 32,-10"/>
<text text-anchor="start" x="55.629" y="-15.4" font-family="sans-serif" font-size="14.00" fill="#000000"> &#160;Declarations</text>
<polygon fill="#8dd3c7" stroke="transparent" points="145,-10 145,-30 165,-30 165,-10 145,-10"/>
<text text-anchor="start" x="168.7251" y="-15.4" font-family="sans-serif" font-size="14.00" fill="#000000"> &#160;Module</text>
<polygon fill="#80b1d3" stroke="transparent" points="231,-10 231,-30 251,-30 251,-10 231,-10"/>
<text text-anchor="start" x="254.7812" y="-15.4" font-family="sans-serif" font-size="14.00" fill="#000000"> &#160;Bootstrap</text>
<polygon fill="#fdb462" stroke="transparent" points="328,-10 328,-30 348,-30 348,-10 328,-10"/>
<text text-anchor="start" x="351.6732" y="-15.4" font-family="sans-serif" font-size="14.00" fill="#000000"> &#160;Providers</text>
<polygon fill="#fb8072" stroke="transparent" points="424,-10 424,-30 444,-30 444,-10 424,-10"/>
<text text-anchor="start" x="447.7258" y="-15.4" font-family="sans-serif" font-size="14.00" fill="#000000"> &#160;Exports</text>
<g id="clust1" class="cluster">
<title>cluster_ComboBoxModule</title>
<polygon fill="none" stroke="#000000" stroke-dasharray="1,5" points="8,-70 8,-268 524,-268 524,-70 8,-70"/>
</g>
<g id="clust2" class="cluster">
<title>cluster_ComboBoxModule_declarations</title>
<polygon fill="none" stroke="#000000" points="420,-78 420,-130 516,-130 516,-78 420,-78"/>
</g>
<g id="clust4" class="cluster">
<title>cluster_ComboBoxModule_imports</title>
<polygon fill="none" stroke="#000000" points="16,-78 16,-130 412,-130 412,-78 16,-78"/>
</g>
<g id="clust5" class="cluster">
<title>cluster_ComboBoxModule_exports</title>
<polygon fill="none" stroke="#000000" points="149,-208 149,-260 389,-260 389,-208 149,-208"/>
</g>
<!-- ComboBox -->
<g id="node1" class="node">
<title>ComboBox</title>
<polygon fill="#ffffb3" stroke="#000000" points="508.065,-122 427.935,-122 427.935,-86 508.065,-86 508.065,-122"/>
<text text-anchor="middle" x="468" y="-99.8" font-family="Times,serif" font-size="14.00" fill="#000000">ComboBox</text>
</g>
<!-- ComboBoxModule -->
<g id="node2" class="node">
<title>ComboBoxModule</title>
<polygon fill="#8dd3c7" stroke="#000000" points="340.1137,-187 337.1137,-191 316.1137,-191 313.1137,-187 215.8863,-187 215.8863,-151 340.1137,-151 340.1137,-187"/>
<text text-anchor="middle" x="278" y="-164.8" font-family="Times,serif" font-size="14.00" fill="#000000">ComboBoxModule</text>
</g>
<!-- ComboBox&#45;&gt;ComboBoxModule -->
<g id="edge1" class="edge">
<title>ComboBox&#45;&gt;ComboBoxModule</title>
<path fill="none" stroke="#000000" d="M468,-122.1061C468,-141.3391 468,-169 468,-169 468,-169 350.2131,-169 350.2131,-169"/>
<polygon fill="#000000" stroke="#000000" points="350.2131,-165.5001 340.2131,-169 350.2131,-172.5001 350.2131,-165.5001"/>
</g>
<!-- ComboBox  -->
<g id="node6" class="node">
<title>ComboBox </title>
<polygon fill="#fb8072" stroke="#000000" points="381.0638,-252 296.9362,-252 296.9362,-216 381.0638,-216 381.0638,-252"/>
<text text-anchor="middle" x="339" y="-229.8" font-family="Times,serif" font-size="14.00" fill="#000000">ComboBox </text>
</g>
<!-- ComboBoxModule&#45;&gt;ComboBox  -->
<g id="edge5" class="edge">
<title>ComboBoxModule&#45;&gt;ComboBox </title>
<path fill="none" stroke="#000000" stroke-dasharray="5,2" d="M318.5125,-187.1061C318.5125,-187.1061 318.5125,-205.991 318.5125,-205.991"/>
<polygon fill="#000000" stroke="#000000" points="315.0125,-205.9909 318.5125,-215.991 322.0125,-205.991 315.0125,-205.9909"/>
</g>
<!-- DropdownModule  -->
<g id="node7" class="node">
<title>DropdownModule </title>
<polygon fill="#fb8072" stroke="#000000" points="279.4236,-252 156.5764,-252 156.5764,-216 279.4236,-216 279.4236,-252"/>
<text text-anchor="middle" x="218" y="-229.8" font-family="Times,serif" font-size="14.00" fill="#000000">DropdownModule </text>
</g>
<!-- ComboBoxModule&#45;&gt;DropdownModule  -->
<g id="edge6" class="edge">
<title>ComboBoxModule&#45;&gt;DropdownModule </title>
<path fill="none" stroke="#000000" stroke-dasharray="5,2" d="M247.7025,-187.1061C247.7025,-187.1061 247.7025,-205.991 247.7025,-205.991"/>
<polygon fill="#000000" stroke="#000000" points="244.2026,-205.9909 247.7025,-215.991 251.2026,-205.991 244.2026,-205.9909"/>
</g>
<!-- DropdownModule -->
<g id="node3" class="node">
<title>DropdownModule</title>
<polygon fill="#8dd3c7" stroke="#000000" points="403.9244,-122 400.9244,-126 379.9244,-126 376.9244,-122 284.0756,-122 284.0756,-86 403.9244,-86 403.9244,-122"/>
<text text-anchor="middle" x="344" y="-99.8" font-family="Times,serif" font-size="14.00" fill="#000000">DropdownModule</text>
</g>
<!-- DropdownModule&#45;&gt;ComboBoxModule -->
<g id="edge2" class="edge">
<title>DropdownModule&#45;&gt;ComboBoxModule</title>
<path fill="none" stroke="#000000" d="M312.1725,-122.1061C312.1725,-122.1061 312.1725,-140.991 312.1725,-140.991"/>
<polygon fill="#000000" stroke="#000000" points="308.6726,-140.9909 312.1725,-150.991 315.6726,-140.991 308.6726,-140.9909"/>
</g>
<!-- PillInputModule -->
<g id="node4" class="node">
<title>PillInputModule</title>
<polygon fill="#8dd3c7" stroke="#000000" points="266.0563,-122 263.0563,-126 242.0563,-126 239.0563,-122 157.9437,-122 157.9437,-86 266.0563,-86 266.0563,-122"/>
<text text-anchor="middle" x="212" y="-99.8" font-family="Times,serif" font-size="14.00" fill="#000000">PillInputModule</text>
</g>
<!-- PillInputModule&#45;&gt;ComboBoxModule -->
<g id="edge3" class="edge">
<title>PillInputModule&#45;&gt;ComboBoxModule</title>
<path fill="none" stroke="#000000" d="M241.1105,-122.1061C241.1105,-122.1061 241.1105,-140.991 241.1105,-140.991"/>
<polygon fill="#000000" stroke="#000000" points="237.6105,-140.9909 241.1105,-150.991 244.6105,-140.991 237.6105,-140.9909"/>
</g>
<!-- StaticIconModule -->
<g id="node5" class="node">
<title>StaticIconModule</title>
<polygon fill="#8dd3c7" stroke="#000000" points="140.309,-122 137.309,-126 116.309,-126 113.309,-122 23.691,-122 23.691,-86 140.309,-86 140.309,-122"/>
<text text-anchor="middle" x="82" y="-99.8" font-family="Times,serif" font-size="14.00" fill="#000000">StaticIconModule</text>
</g>
<!-- StaticIconModule&#45;&gt;ComboBoxModule -->
<g id="edge4" class="edge">
<title>StaticIconModule&#45;&gt;ComboBoxModule</title>
<path fill="none" stroke="#000000" d="M82,-122.1061C82,-141.3391 82,-169 82,-169 82,-169 205.7151,-169 205.7151,-169"/>
<polygon fill="#000000" stroke="#000000" points="205.7151,-172.5001 215.7151,-169 205.715,-165.5001 205.7151,-172.5001"/>
</g>
</g>
</svg>
