<?xml version="1.0" encoding="UTF-8" standalone="no"?>
<!DOCTYPE svg PUBLIC "-//W3C//DTD SVG 1.1//EN"
 "http://www.w3.org/Graphics/SVG/1.1/DTD/svg11.dtd">
<!-- Generated by graphviz version 2.47.0 (20210316.0004)
 -->
<!-- Title: dependencies Pages: 1 -->
<svg width="504pt" height="284pt"
 viewBox="0.00 0.00 504.00 284.00" xmlns="http://www.w3.org/2000/svg" xmlns:xlink="http://www.w3.org/1999/xlink">
<g id="graph0" class="graph" transform="scale(1 1) rotate(0) translate(4 280)">
<title>dependencies</title>
<polygon fill="white" stroke="transparent" points="-4,4 -4,-280 500,-280 500,4 -4,4"/>
<text text-anchor="start" x="227.01" y="-42.4" font-family="Times-12" font-weight="bold" font-size="14.00">Legend</text>
<polygon fill="#ffffb3" stroke="transparent" points="14,-10 14,-30 34,-30 34,-10 14,-10"/>
<text text-anchor="start" x="37.63" y="-15.4" font-family="Times-12" font-size="14.00"> &#160;Declarations</text>
<polygon fill="#8dd3c7" stroke="transparent" points="127,-10 127,-30 147,-30 147,-10 127,-10"/>
<text text-anchor="start" x="150.73" y="-15.4" font-family="Times-12" font-size="14.00"> &#160;Module</text>
<polygon fill="#80b1d3" stroke="transparent" points="213,-10 213,-30 233,-30 233,-10 213,-10"/>
<text text-anchor="start" x="236.78" y="-15.4" font-family="Times-12" font-size="14.00"> &#160;Bootstrap</text>
<polygon fill="#fdb462" stroke="transparent" points="310,-10 310,-30 330,-30 330,-10 310,-10"/>
<text text-anchor="start" x="333.67" y="-15.4" font-family="Times-12" font-size="14.00"> &#160;Providers</text>
<polygon fill="#fb8072" stroke="transparent" points="406,-10 406,-30 426,-30 426,-10 406,-10"/>
<text text-anchor="start" x="429.73" y="-15.4" font-family="Times-12" font-size="14.00"> &#160;Exports</text>
<g id="clust1" class="cluster">
<title>cluster_ProgressIndicatorModule</title>
<polygon fill="none" stroke="black" stroke-dasharray="1,5" points="69,-70 69,-268 427,-268 427,-70 69,-70"/>
</g>
<g id="clust5" class="cluster">
<title>cluster_ProgressIndicatorModule_exports</title>
<polygon fill="none" stroke="black" points="163,-208 163,-260 297,-260 297,-208 163,-208"/>
</g>
<g id="clust2" class="cluster">
<title>cluster_ProgressIndicatorModule_declarations</title>
<polygon fill="none" stroke="black" points="289,-78 289,-130 419,-130 419,-78 289,-78"/>
</g>
<g id="clust4" class="cluster">
<title>cluster_ProgressIndicatorModule_imports</title>
<polygon fill="none" stroke="black" points="77,-78 77,-130 281,-130 281,-78 77,-78"/>
</g>
<!-- ProgressIndicator -->
<g id="node1" class="node">
<title>ProgressIndicator</title>
<polygon fill="#ffffb3" stroke="black" points="411.24,-122 296.76,-122 296.76,-86 411.24,-86 411.24,-122"/>
<text text-anchor="middle" x="354" y="-99.8" font-family="Times,serif" font-size="14.00">ProgressIndicator</text>
</g>
<!-- ProgressIndicatorModule -->
<g id="node2" class="node">
<title>ProgressIndicatorModule</title>
<polygon fill="#8dd3c7" stroke="black" points="309.29,-187 306.29,-191 285.29,-191 282.29,-187 150.71,-187 150.71,-151 309.29,-151 309.29,-187"/>
<text text-anchor="middle" x="230" y="-164.8" font-family="Times,serif" font-size="14.00">ProgressIndicatorModule</text>
</g>
<!-- ProgressIndicator&#45;&gt;ProgressIndicatorModule -->
<g id="edge1" class="edge">
<title>ProgressIndicator&#45;&gt;ProgressIndicatorModule</title>
<path fill="none" stroke="black" d="M302.89,-122.11C302.89,-122.11 302.89,-140.99 302.89,-140.99"/>
<polygon fill="black" stroke="black" points="299.39,-140.99 302.89,-150.99 306.39,-140.99 299.39,-140.99"/>
</g>
<!-- ProgressIndicator  -->
<g id="node5" class="node">
<title>ProgressIndicator </title>
<polygon fill="#fb8072" stroke="black" points="289.24,-252 170.76,-252 170.76,-216 289.24,-216 289.24,-252"/>
<text text-anchor="middle" x="230" y="-229.8" font-family="Times,serif" font-size="14.00">ProgressIndicator </text>
</g>
<!-- ProgressIndicatorModule&#45;&gt;ProgressIndicator  -->
<g id="edge4" class="edge">
<title>ProgressIndicatorModule&#45;&gt;ProgressIndicator </title>
<path fill="none" stroke="black" stroke-dasharray="5,2" d="M230,-187.11C230,-187.11 230,-205.99 230,-205.99"/>
<polygon fill="black" stroke="black" points="226.5,-205.99 230,-215.99 233.5,-205.99 226.5,-205.99"/>
</g>
<!-- I18nModule -->
<g id="node3" class="node">
<title>I18nModule</title>
<polygon fill="#8dd3c7" stroke="black" points="272.71,-122 269.71,-126 248.71,-126 245.71,-122 187.29,-122 187.29,-86 272.71,-86 272.71,-122"/>
<text text-anchor="middle" x="230" y="-99.8" font-family="Times,serif" font-size="14.00">I18nModule</text>
</g>
<!-- I18nModule&#45;&gt;ProgressIndicatorModule -->
<g id="edge2" class="edge">
<title>I18nModule&#45;&gt;ProgressIndicatorModule</title>
<path fill="none" stroke="black" d="M230,-122.11C230,-122.11 230,-140.99 230,-140.99"/>
<polygon fill="black" stroke="black" points="226.5,-140.99 230,-150.99 233.5,-140.99 226.5,-140.99"/>
</g>
<!-- IconModule -->
<g id="node4" class="node">
<title>IconModule</title>
<polygon fill="#8dd3c7" stroke="black" points="169.43,-122 166.43,-126 145.43,-126 142.43,-122 84.57,-122 84.57,-86 169.43,-86 169.43,-122"/>
<text text-anchor="middle" x="127" y="-99.8" font-family="Times,serif" font-size="14.00">IconModule</text>
</g>
<!-- IconModule&#45;&gt;ProgressIndicatorModule -->
<g id="edge3" class="edge">
<title>IconModule&#45;&gt;ProgressIndicatorModule</title>
<path fill="none" stroke="black" d="M160.03,-122.11C160.03,-122.11 160.03,-140.99 160.03,-140.99"/>
<polygon fill="black" stroke="black" points="156.53,-140.99 160.03,-150.99 163.53,-140.99 156.53,-140.99"/>
</g>
</g>
</svg>
