<?xml version="1.0" encoding="UTF-8" standalone="no"?>
<!DOCTYPE svg PUBLIC "-//W3C//DTD SVG 1.1//EN"
 "http://www.w3.org/Graphics/SVG/1.1/DTD/svg11.dtd">
<!-- Generated by graphviz version 2.40.1 (20161225.0304)
 -->
<!-- Title: dependencies Pages: 1 -->
<svg width="2075pt" height="349pt"
 viewBox="0.00 0.00 2075.00 349.00" xmlns="http://www.w3.org/2000/svg" xmlns:xlink="http://www.w3.org/1999/xlink">
<g id="graph0" class="graph" transform="scale(1 1) rotate(0) translate(4 345)">
<title>dependencies</title>
<polygon fill="#ffffff" stroke="transparent" points="-4,4 -4,-345 2071,-345 2071,4 -4,4"/>
<text text-anchor="start" x="1012.5091" y="-42.4" font-family="sans-serif" font-weight="bold" font-size="14.00" fill="#000000">Legend</text>
<polygon fill="#ffffb3" stroke="transparent" points="799.5,-10 799.5,-30 819.5,-30 819.5,-10 799.5,-10"/>
<text text-anchor="start" x="823.129" y="-15.4" font-family="sans-serif" font-size="14.00" fill="#000000"> &#160;Declarations</text>
<polygon fill="#8dd3c7" stroke="transparent" points="912.5,-10 912.5,-30 932.5,-30 932.5,-10 912.5,-10"/>
<text text-anchor="start" x="936.2251" y="-15.4" font-family="sans-serif" font-size="14.00" fill="#000000"> &#160;Module</text>
<polygon fill="#80b1d3" stroke="transparent" points="998.5,-10 998.5,-30 1018.5,-30 1018.5,-10 998.5,-10"/>
<text text-anchor="start" x="1022.2812" y="-15.4" font-family="sans-serif" font-size="14.00" fill="#000000"> &#160;Bootstrap</text>
<polygon fill="#fdb462" stroke="transparent" points="1095.5,-10 1095.5,-30 1115.5,-30 1115.5,-10 1095.5,-10"/>
<text text-anchor="start" x="1119.1732" y="-15.4" font-family="sans-serif" font-size="14.00" fill="#000000"> &#160;Providers</text>
<polygon fill="#fb8072" stroke="transparent" points="1191.5,-10 1191.5,-30 1211.5,-30 1211.5,-10 1191.5,-10"/>
<text text-anchor="start" x="1215.2258" y="-15.4" font-family="sans-serif" font-size="14.00" fill="#000000"> &#160;Exports</text>
<g id="clust1" class="cluster">
<title>cluster_DialogModule</title>
<polygon fill="none" stroke="#000000" stroke-dasharray="1,5" points="8,-70 8,-333 2059,-333 2059,-70 8,-70"/>
</g>
<g id="clust2" class="cluster">
<title>cluster_DialogModule_declarations</title>
<polygon fill="none" stroke="#000000" points="555,-143 555,-195 2039,-195 2039,-143 555,-143"/>
</g>
<g id="clust4" class="cluster">
<title>cluster_DialogModule_DialogDirective_providers</title>
<polygon fill="none" stroke="#000000" points="1867,-78 1867,-130 2015,-130 2015,-78 1867,-78"/>
</g>
<g id="clust15" class="cluster">
<title>cluster_DialogModule_imports</title>
<polygon fill="none" stroke="#000000" points="16,-143 16,-195 547,-195 547,-143 16,-143"/>
</g>
<g id="clust16" class="cluster">
<title>cluster_DialogModule_exports</title>
<polygon fill="none" stroke="#000000" points="298,-273 298,-325 1825,-325 1825,-273 298,-273"/>
</g>
<!-- Dialog -->
<g id="node1" class="node">
<title>Dialog</title>
<polygon fill="#ffffb3" stroke="#000000" points="2031.1025,-187 1976.8975,-187 1976.8975,-151 2031.1025,-151 2031.1025,-187"/>
<text text-anchor="middle" x="2004" y="-164.8" font-family="Times,serif" font-size="14.00" fill="#000000">Dialog</text>
</g>
<!-- DialogModule -->
<g id="node13" class="node">
<title>DialogModule</title>
<polygon fill="#8dd3c7" stroke="#000000" points="1111.6528,-252 1108.6528,-256 1087.6528,-256 1084.6528,-252 1014.3472,-252 1014.3472,-216 1111.6528,-216 1111.6528,-252"/>
<text text-anchor="middle" x="1063" y="-229.8" font-family="Times,serif" font-size="14.00" fill="#000000">DialogModule</text>
</g>
<!-- Dialog&#45;&gt;DialogModule -->
<g id="edge1" class="edge">
<title>Dialog&#45;&gt;DialogModule</title>
<path fill="none" stroke="#000000" d="M2004,-187.2228C2004,-207.3652 2004,-237 2004,-237 2004,-237 1121.9386,-237 1121.9386,-237"/>
<polygon fill="#000000" stroke="#000000" points="1121.9386,-233.5001 1111.9386,-237 1121.9385,-240.5001 1121.9386,-233.5001"/>
</g>
<!-- DialogDirective -->
<g id="node2" class="node">
<title>DialogDirective</title>
<polygon fill="#ffffb3" stroke="#000000" points="1959.1854,-187 1852.8146,-187 1852.8146,-151 1959.1854,-151 1959.1854,-187"/>
<text text-anchor="middle" x="1906" y="-164.8" font-family="Times,serif" font-size="14.00" fill="#000000">DialogDirective</text>
</g>
<!-- DialogDirective&#45;&gt;DialogModule -->
<g id="edge2" class="edge">
<title>DialogDirective&#45;&gt;DialogModule</title>
<path fill="none" stroke="#000000" d="M1906,-187.2222C1906,-205.8285 1906,-232 1906,-232 1906,-232 1121.6586,-232 1121.6586,-232"/>
<polygon fill="#000000" stroke="#000000" points="1121.6587,-228.5001 1111.6586,-232 1121.6586,-235.5001 1121.6587,-228.5001"/>
</g>
<!-- DialogPlaceholder -->
<g id="node3" class="node">
<title>DialogPlaceholder</title>
<polygon fill="#ffffb3" stroke="#000000" points="1835.1853,-187 1714.8147,-187 1714.8147,-151 1835.1853,-151 1835.1853,-187"/>
<text text-anchor="middle" x="1775" y="-164.8" font-family="Times,serif" font-size="14.00" fill="#000000">DialogPlaceholder</text>
</g>
<!-- DialogPlaceholder&#45;&gt;DialogModule -->
<g id="edge4" class="edge">
<title>DialogPlaceholder&#45;&gt;DialogModule</title>
<path fill="none" stroke="#000000" d="M1727.875,-187.002C1727.875,-204.6754 1727.875,-229 1727.875,-229 1727.875,-229 1121.8898,-229 1121.8898,-229"/>
<polygon fill="#000000" stroke="#000000" points="1121.8899,-225.5001 1111.8898,-229 1121.8898,-232.5001 1121.8899,-225.5001"/>
</g>
<!-- EllipsisTooltip -->
<g id="node4" class="node">
<title>EllipsisTooltip</title>
<polygon fill="#ffffb3" stroke="#000000" points="1696.7289,-187 1597.2711,-187 1597.2711,-151 1696.7289,-151 1696.7289,-187"/>
<text text-anchor="middle" x="1647" y="-164.8" font-family="Times,serif" font-size="14.00" fill="#000000">EllipsisTooltip</text>
</g>
<!-- EllipsisTooltip&#45;&gt;DialogModule -->
<g id="edge5" class="edge">
<title>EllipsisTooltip&#45;&gt;DialogModule</title>
<path fill="none" stroke="#000000" d="M1605.1141,-187.0336C1605.1141,-204.0597 1605.1141,-227 1605.1141,-227 1605.1141,-227 1122.0651,-227 1122.0651,-227"/>
<polygon fill="#000000" stroke="#000000" points="1122.0652,-223.5001 1112.0651,-227 1122.0651,-230.5001 1122.0652,-223.5001"/>
</g>
<!-- OverflowMenu -->
<g id="node5" class="node">
<title>OverflowMenu</title>
<polygon fill="#ffffb3" stroke="#000000" points="1579.2992,-187 1476.7008,-187 1476.7008,-151 1579.2992,-151 1579.2992,-187"/>
<text text-anchor="middle" x="1528" y="-164.8" font-family="Times,serif" font-size="14.00" fill="#000000">OverflowMenu</text>
</g>
<!-- OverflowMenu&#45;&gt;DialogModule -->
<g id="edge6" class="edge">
<title>OverflowMenu&#45;&gt;DialogModule</title>
<path fill="none" stroke="#000000" d="M1483.004,-187.0091C1483.004,-203.0494 1483.004,-224 1483.004,-224 1483.004,-224 1122.0018,-224 1122.0018,-224"/>
<polygon fill="#000000" stroke="#000000" points="1122.0018,-220.5001 1112.0018,-224 1122.0018,-227.5001 1122.0018,-220.5001"/>
</g>
<!-- OverflowMenuDirective -->
<g id="node6" class="node">
<title>OverflowMenuDirective</title>
<polygon fill="#ffffb3" stroke="#000000" points="1459.3821,-187 1304.6179,-187 1304.6179,-151 1459.3821,-151 1459.3821,-187"/>
<text text-anchor="middle" x="1382" y="-164.8" font-family="Times,serif" font-size="14.00" fill="#000000">OverflowMenuDirective</text>
</g>
<!-- OverflowMenuDirective&#45;&gt;DialogModule -->
<g id="edge7" class="edge">
<title>OverflowMenuDirective&#45;&gt;DialogModule</title>
<path fill="none" stroke="#000000" d="M1327.8543,-187.2396C1327.8543,-202.5706 1327.8543,-222 1327.8543,-222 1327.8543,-222 1121.887,-222 1121.887,-222"/>
<polygon fill="#000000" stroke="#000000" points="1121.887,-218.5001 1111.887,-222 1121.887,-225.5001 1121.887,-218.5001"/>
</g>
<!-- OverflowMenuOption -->
<g id="node7" class="node">
<title>OverflowMenuOption</title>
<polygon fill="#ffffb3" stroke="#000000" points="1286.6867,-187 1145.3133,-187 1145.3133,-151 1286.6867,-151 1286.6867,-187"/>
<text text-anchor="middle" x="1216" y="-164.8" font-family="Times,serif" font-size="14.00" fill="#000000">OverflowMenuOption</text>
</g>
<!-- OverflowMenuOption&#45;&gt;DialogModule -->
<g id="edge8" class="edge">
<title>OverflowMenuOption&#45;&gt;DialogModule</title>
<path fill="none" stroke="#000000" d="M1186.1738,-187.0511C1186.1738,-201.373 1186.1738,-219 1186.1738,-219 1186.1738,-219 1121.6815,-219 1121.6815,-219"/>
<polygon fill="#000000" stroke="#000000" points="1121.6816,-215.5001 1111.6815,-219 1121.6815,-222.5001 1121.6816,-215.5001"/>
</g>
<!-- OverflowMenuPane -->
<g id="node8" class="node">
<title>OverflowMenuPane</title>
<polygon fill="#ffffb3" stroke="#000000" points="1127.5115,-187 998.4885,-187 998.4885,-151 1127.5115,-151 1127.5115,-187"/>
<text text-anchor="middle" x="1063" y="-164.8" font-family="Times,serif" font-size="14.00" fill="#000000">OverflowMenuPane</text>
</g>
<!-- OverflowMenuPane&#45;&gt;DialogModule -->
<g id="edge9" class="edge">
<title>OverflowMenuPane&#45;&gt;DialogModule</title>
<path fill="none" stroke="#000000" d="M1063,-187.1061C1063,-187.1061 1063,-205.991 1063,-205.991"/>
<polygon fill="#000000" stroke="#000000" points="1059.5001,-205.9909 1063,-215.991 1066.5001,-205.991 1059.5001,-205.9909"/>
</g>
<!-- Tooltip -->
<g id="node9" class="node">
<title>Tooltip</title>
<polygon fill="#ffffb3" stroke="#000000" points="980.7248,-187 923.2752,-187 923.2752,-151 980.7248,-151 980.7248,-187"/>
<text text-anchor="middle" x="952" y="-164.8" font-family="Times,serif" font-size="14.00" fill="#000000">Tooltip</text>
</g>
<!-- Tooltip&#45;&gt;DialogModule -->
<g id="edge10" class="edge">
<title>Tooltip&#45;&gt;DialogModule</title>
<path fill="none" stroke="#000000" d="M952,-187.0511C952,-201.373 952,-219 952,-219 952,-219 1004.3138,-219 1004.3138,-219"/>
<polygon fill="#000000" stroke="#000000" points="1004.3138,-222.5001 1014.3138,-219 1004.3137,-215.5001 1004.3138,-222.5001"/>
</g>
<!-- TooltipDefinition -->
<g id="node10" class="node">
<title>TooltipDefinition</title>
<polygon fill="#ffffb3" stroke="#000000" points="905.2688,-187 790.7312,-187 790.7312,-151 905.2688,-151 905.2688,-187"/>
<text text-anchor="middle" x="848" y="-164.8" font-family="Times,serif" font-size="14.00" fill="#000000">TooltipDefinition</text>
</g>
<!-- TooltipDefinition&#45;&gt;DialogModule -->
<g id="edge11" class="edge">
<title>TooltipDefinition&#45;&gt;DialogModule</title>
<path fill="none" stroke="#000000" d="M896.9448,-187.2396C896.9448,-202.5706 896.9448,-222 896.9448,-222 896.9448,-222 1004.0761,-222 1004.0761,-222"/>
<polygon fill="#000000" stroke="#000000" points="1004.0761,-225.5001 1014.0761,-222 1004.0761,-218.5001 1004.0761,-225.5001"/>
</g>
<!-- TooltipDirective -->
<g id="node11" class="node">
<title>TooltipDirective</title>
<polygon fill="#ffffb3" stroke="#000000" points="772.8076,-187 663.1924,-187 663.1924,-151 772.8076,-151 772.8076,-187"/>
<text text-anchor="middle" x="718" y="-164.8" font-family="Times,serif" font-size="14.00" fill="#000000">TooltipDirective</text>
</g>
<!-- TooltipDirective&#45;&gt;DialogModule -->
<g id="edge12" class="edge">
<title>TooltipDirective&#45;&gt;DialogModule</title>
<path fill="none" stroke="#000000" d="M764.0741,-187.0091C764.0741,-203.0494 764.0741,-224 764.0741,-224 764.0741,-224 1004.3071,-224 1004.3071,-224"/>
<polygon fill="#000000" stroke="#000000" points="1004.3071,-227.5001 1014.3071,-224 1004.3071,-220.5001 1004.3071,-227.5001"/>
</g>
<!-- TooltipIcon -->
<g id="node12" class="node">
<title>TooltipIcon</title>
<polygon fill="#ffffb3" stroke="#000000" points="645.0997,-187 562.9003,-187 562.9003,-151 645.0997,-151 645.0997,-187"/>
<text text-anchor="middle" x="604" y="-164.8" font-family="Times,serif" font-size="14.00" fill="#000000">TooltipIcon</text>
</g>
<!-- TooltipIcon&#45;&gt;DialogModule -->
<g id="edge13" class="edge">
<title>TooltipIcon&#45;&gt;DialogModule</title>
<path fill="none" stroke="#000000" d="M604,-187.0336C604,-204.0597 604,-227 604,-227 604,-227 1004.3135,-227 1004.3135,-227"/>
<polygon fill="#000000" stroke="#000000" points="1004.3135,-230.5001 1014.3135,-227 1004.3135,-223.5001 1004.3135,-230.5001"/>
</g>
<!-- Dialog  -->
<g id="node19" class="node">
<title>Dialog </title>
<polygon fill="#fb8072" stroke="#000000" points="1816.6038,-317 1759.3962,-317 1759.3962,-281 1816.6038,-281 1816.6038,-317"/>
<text text-anchor="middle" x="1788" y="-294.8" font-family="Times,serif" font-size="14.00" fill="#000000">Dialog </text>
</g>
<!-- DialogModule&#45;&gt;Dialog  -->
<g id="edge18" class="edge">
<title>DialogModule&#45;&gt;Dialog </title>
<path fill="none" stroke="#000000" stroke-dasharray="5,2" d="M1111.6951,-240C1274.2491,-240 1788,-240 1788,-240 1788,-240 1788,-270.9775 1788,-270.9775"/>
<polygon fill="#000000" stroke="#000000" points="1784.5001,-270.9774 1788,-280.9775 1791.5001,-270.9775 1784.5001,-270.9774"/>
</g>
<!-- DialogDirective  -->
<g id="node20" class="node">
<title>DialogDirective </title>
<polygon fill="#fb8072" stroke="#000000" points="1740.6857,-317 1631.3143,-317 1631.3143,-281 1740.6857,-281 1740.6857,-317"/>
<text text-anchor="middle" x="1686" y="-294.8" font-family="Times,serif" font-size="14.00" fill="#000000">DialogDirective </text>
</g>
<!-- DialogModule&#45;&gt;DialogDirective  -->
<g id="edge19" class="edge">
<title>DialogModule&#45;&gt;DialogDirective </title>
<path fill="none" stroke="#000000" stroke-dasharray="5,2" d="M1111.664,-242C1254.7143,-242 1663.8859,-242 1663.8859,-242 1663.8859,-242 1663.8859,-270.9648 1663.8859,-270.9648"/>
<polygon fill="#000000" stroke="#000000" points="1660.3859,-270.9648 1663.8859,-280.9648 1667.3859,-270.9649 1660.3859,-270.9648"/>
</g>
<!-- DialogPlaceholder  -->
<g id="node21" class="node">
<title>DialogPlaceholder </title>
<polygon fill="#fb8072" stroke="#000000" points="1612.6856,-317 1489.3144,-317 1489.3144,-281 1612.6856,-281 1612.6856,-317"/>
<text text-anchor="middle" x="1551" y="-294.8" font-family="Times,serif" font-size="14.00" fill="#000000">DialogPlaceholder </text>
</g>
<!-- DialogModule&#45;&gt;DialogPlaceholder  -->
<g id="edge20" class="edge">
<title>DialogModule&#45;&gt;DialogPlaceholder </title>
<path fill="none" stroke="#000000" stroke-dasharray="5,2" d="M1112.0883,-245C1232.7624,-245 1534.1534,-245 1534.1534,-245 1534.1534,-245 1534.1534,-270.7181 1534.1534,-270.7181"/>
<polygon fill="#000000" stroke="#000000" points="1530.6535,-270.718 1534.1534,-280.7181 1537.6535,-270.7181 1530.6535,-270.718"/>
</g>
<!-- EllipsisTooltip  -->
<g id="node22" class="node">
<title>EllipsisTooltip </title>
<polygon fill="#fb8072" stroke="#000000" points="1471.229,-317 1368.771,-317 1368.771,-281 1471.229,-281 1471.229,-317"/>
<text text-anchor="middle" x="1420" y="-294.8" font-family="Times,serif" font-size="14.00" fill="#000000">EllipsisTooltip </text>
</g>
<!-- DialogModule&#45;&gt;EllipsisTooltip  -->
<g id="edge21" class="edge">
<title>DialogModule&#45;&gt;EllipsisTooltip </title>
<path fill="none" stroke="#000000" stroke-dasharray="5,2" d="M1111.793,-247C1208.2143,-247 1413.9133,-247 1413.9133,-247 1413.9133,-247 1413.9133,-270.8129 1413.9133,-270.8129"/>
<polygon fill="#000000" stroke="#000000" points="1410.4133,-270.8129 1413.9133,-280.8129 1417.4133,-270.813 1410.4133,-270.8129"/>
</g>
<!-- OverflowMenu  -->
<g id="node23" class="node">
<title>OverflowMenu </title>
<polygon fill="#fb8072" stroke="#000000" points="1350.799,-317 1245.201,-317 1245.201,-281 1350.799,-281 1350.799,-317"/>
<text text-anchor="middle" x="1298" y="-294.8" font-family="Times,serif" font-size="14.00" fill="#000000">OverflowMenu </text>
</g>
<!-- DialogModule&#45;&gt;OverflowMenu  -->
<g id="edge22" class="edge">
<title>DialogModule&#45;&gt;OverflowMenu </title>
<path fill="none" stroke="#000000" stroke-dasharray="5,2" d="M1111.845,-250C1171.8672,-250 1265.847,-250 1265.847,-250 1265.847,-250 1265.847,-270.7542 1265.847,-270.7542"/>
<polygon fill="#000000" stroke="#000000" points="1262.347,-270.7542 1265.847,-280.7542 1269.347,-270.7542 1262.347,-270.7542"/>
</g>
<!-- OverflowMenuDirective  -->
<g id="node24" class="node">
<title>OverflowMenuDirective </title>
<polygon fill="#fb8072" stroke="#000000" points="1226.8816,-317 1069.1184,-317 1069.1184,-281 1226.8816,-281 1226.8816,-317"/>
<text text-anchor="middle" x="1148" y="-294.8" font-family="Times,serif" font-size="14.00" fill="#000000">OverflowMenuDirective </text>
</g>
<!-- DialogModule&#45;&gt;OverflowMenuDirective  -->
<g id="edge23" class="edge">
<title>DialogModule&#45;&gt;OverflowMenuDirective </title>
<path fill="none" stroke="#000000" stroke-dasharray="5,2" d="M1090.4427,-252.1061C1090.4427,-252.1061 1090.4427,-270.991 1090.4427,-270.991"/>
<polygon fill="#000000" stroke="#000000" points="1086.9427,-270.9909 1090.4427,-280.991 1093.9427,-270.991 1086.9427,-270.9909"/>
</g>
<!-- OverflowMenuOption  -->
<g id="node25" class="node">
<title>OverflowMenuOption </title>
<polygon fill="#fb8072" stroke="#000000" points="1051.1869,-317 906.8131,-317 906.8131,-281 1051.1869,-281 1051.1869,-317"/>
<text text-anchor="middle" x="979" y="-294.8" font-family="Times,serif" font-size="14.00" fill="#000000">OverflowMenuOption </text>
</g>
<!-- DialogModule&#45;&gt;OverflowMenuOption  -->
<g id="edge24" class="edge">
<title>DialogModule&#45;&gt;OverflowMenuOption </title>
<path fill="none" stroke="#000000" stroke-dasharray="5,2" d="M1032.7586,-252.1061C1032.7586,-252.1061 1032.7586,-270.991 1032.7586,-270.991"/>
<polygon fill="#000000" stroke="#000000" points="1029.2587,-270.9909 1032.7586,-280.991 1036.2587,-270.991 1029.2587,-270.9909"/>
</g>
<!-- OverflowMenuPane  -->
<g id="node26" class="node">
<title>OverflowMenuPane </title>
<polygon fill="#fb8072" stroke="#000000" points="888.5106,-317 755.4894,-317 755.4894,-281 888.5106,-281 888.5106,-317"/>
<text text-anchor="middle" x="822" y="-294.8" font-family="Times,serif" font-size="14.00" fill="#000000">OverflowMenuPane </text>
</g>
<!-- DialogModule&#45;&gt;OverflowMenuPane  -->
<g id="edge25" class="edge">
<title>DialogModule&#45;&gt;OverflowMenuPane </title>
<path fill="none" stroke="#000000" stroke-dasharray="5,2" d="M1014.2414,-250C948.4967,-250 839.5605,-250 839.5605,-250 839.5605,-250 839.5605,-270.7542 839.5605,-270.7542"/>
<polygon fill="#000000" stroke="#000000" points="836.0606,-270.7542 839.5605,-280.7542 843.0606,-270.7542 836.0606,-270.7542"/>
</g>
<!-- Tooltip  -->
<g id="node27" class="node">
<title>Tooltip </title>
<polygon fill="#fb8072" stroke="#000000" points="737.225,-317 676.775,-317 676.775,-281 737.225,-281 737.225,-317"/>
<text text-anchor="middle" x="707" y="-294.8" font-family="Times,serif" font-size="14.00" fill="#000000">Tooltip </text>
</g>
<!-- DialogModule&#45;&gt;Tooltip  -->
<g id="edge26" class="edge">
<title>DialogModule&#45;&gt;Tooltip </title>
<path fill="none" stroke="#000000" stroke-dasharray="5,2" d="M1014.2462,-247C916.7467,-247 707,-247 707,-247 707,-247 707,-270.8129 707,-270.8129"/>
<polygon fill="#000000" stroke="#000000" points="703.5001,-270.8129 707,-280.8129 710.5001,-270.813 703.5001,-270.8129"/>
</g>
<!-- TooltipDefinition  -->
<g id="node28" class="node">
<title>TooltipDefinition </title>
<polygon fill="#fb8072" stroke="#000000" points="659.2689,-317 540.7311,-317 540.7311,-281 659.2689,-281 659.2689,-317"/>
<text text-anchor="middle" x="600" y="-294.8" font-family="Times,serif" font-size="14.00" fill="#000000">TooltipDefinition </text>
</g>
<!-- DialogModule&#45;&gt;TooltipDefinition  -->
<g id="edge27" class="edge">
<title>DialogModule&#45;&gt;TooltipDefinition </title>
<path fill="none" stroke="#000000" stroke-dasharray="5,2" d="M1014.2499,-245C905.4046,-245 652.0921,-245 652.0921,-245 652.0921,-245 652.0921,-270.7181 652.0921,-270.7181"/>
<polygon fill="#000000" stroke="#000000" points="648.5921,-270.718 652.0921,-280.7181 655.5921,-270.7181 648.5921,-270.718"/>
</g>
<!-- TooltipDirective  -->
<g id="node29" class="node">
<title>TooltipDirective </title>
<polygon fill="#fb8072" stroke="#000000" points="522.3074,-317 409.6926,-317 409.6926,-281 522.3074,-281 522.3074,-317"/>
<text text-anchor="middle" x="466" y="-294.8" font-family="Times,serif" font-size="14.00" fill="#000000">TooltipDirective </text>
</g>
<!-- DialogModule&#45;&gt;TooltipDirective  -->
<g id="edge28" class="edge">
<title>DialogModule&#45;&gt;TooltipDirective </title>
<path fill="none" stroke="#000000" stroke-dasharray="5,2" d="M1014.145,-242C871.5639,-242 466,-242 466,-242 466,-242 466,-270.9648 466,-270.9648"/>
<polygon fill="#000000" stroke="#000000" points="462.5001,-270.9648 466,-280.9648 469.5001,-270.9649 462.5001,-270.9648"/>
</g>
<!-- TooltipIcon  -->
<g id="node30" class="node">
<title>TooltipIcon </title>
<polygon fill="#fb8072" stroke="#000000" points="391.6005,-317 306.3995,-317 306.3995,-281 391.6005,-281 391.6005,-317"/>
<text text-anchor="middle" x="349" y="-294.8" font-family="Times,serif" font-size="14.00" fill="#000000">TooltipIcon </text>
</g>
<!-- DialogModule&#45;&gt;TooltipIcon  -->
<g id="edge29" class="edge">
<title>DialogModule&#45;&gt;TooltipIcon </title>
<path fill="none" stroke="#000000" stroke-dasharray="5,2" d="M1014.1109,-240C854.6416,-240 359.8035,-240 359.8035,-240 359.8035,-240 359.8035,-270.9775 359.8035,-270.9775"/>
<polygon fill="#000000" stroke="#000000" points="356.3034,-270.9775 359.8035,-280.9775 363.3034,-270.9774 356.3034,-270.9775"/>
</g>
<!-- DialogService -->
<g id="node14" class="node">
<title>DialogService</title>
<ellipse fill="#fdb462" stroke="#000000" cx="1941" cy="-104" rx="66.0492" ry="18"/>
<text text-anchor="middle" x="1941" y="-99.8" font-family="Times,serif" font-size="14.00" fill="#000000">DialogService</text>
</g>
<!-- DialogService&#45;&gt;DialogDirective -->
<g id="edge3" class="edge">
<title>DialogService&#45;&gt;DialogDirective</title>
<path fill="none" stroke="#000000" d="M1916.9092,-121.078C1916.9092,-121.078 1916.9092,-140.8993 1916.9092,-140.8993"/>
<polygon fill="#000000" stroke="#000000" points="1913.4093,-140.8992 1916.9092,-150.8993 1920.4093,-140.8993 1913.4093,-140.8992"/>
</g>
<!-- DialogService&#45;&gt;DialogModule -->
<g id="edge30" class="edge">
<title>DialogService&#45;&gt;DialogModule</title>
<path fill="none" stroke="#000000" d="M1968.0207,-120.4646C1968.0207,-155.4458 1968.0207,-234 1968.0207,-234 1968.0207,-234 1121.6578,-234 1121.6578,-234"/>
<polygon fill="#000000" stroke="#000000" points="1121.6579,-230.5001 1111.6578,-234 1121.6578,-237.5001 1121.6579,-230.5001"/>
</g>
<!-- ExperimentalModule -->
<g id="node15" class="node">
<title>ExperimentalModule</title>
<polygon fill="#8dd3c7" stroke="#000000" points="539.4692,-187 536.4692,-191 515.4692,-191 512.4692,-187 404.5308,-187 404.5308,-151 539.4692,-151 539.4692,-187"/>
<text text-anchor="middle" x="472" y="-164.8" font-family="Times,serif" font-size="14.00" fill="#000000">ExperimentalModule</text>
</g>
<!-- ExperimentalModule&#45;&gt;DialogModule -->
<g id="edge14" class="edge">
<title>ExperimentalModule&#45;&gt;DialogModule</title>
<path fill="none" stroke="#000000" d="M530.9441,-187.002C530.9441,-204.6754 530.9441,-229 530.9441,-229 530.9441,-229 1003.8991,-229 1003.8991,-229"/>
<polygon fill="#000000" stroke="#000000" points="1003.8992,-232.5001 1013.8991,-229 1003.8991,-225.5001 1003.8992,-232.5001"/>
</g>
<!-- I18nModule -->
<g id="node16" class="node">
<title>I18nModule</title>
<polygon fill="#8dd3c7" stroke="#000000" points="386.7107,-187 383.7107,-191 362.7107,-191 359.7107,-187 301.2893,-187 301.2893,-151 386.7107,-151 386.7107,-187"/>
<text text-anchor="middle" x="344" y="-164.8" font-family="Times,serif" font-size="14.00" fill="#000000">I18nModule</text>
</g>
<!-- I18nModule&#45;&gt;DialogModule -->
<g id="edge15" class="edge">
<title>I18nModule&#45;&gt;DialogModule</title>
<path fill="none" stroke="#000000" d="M333.0019,-187.2222C333.0019,-205.8285 333.0019,-232 333.0019,-232 333.0019,-232 1004.2537,-232 1004.2537,-232"/>
<polygon fill="#000000" stroke="#000000" points="1004.2537,-235.5001 1014.2537,-232 1004.2537,-228.5001 1004.2537,-235.5001"/>
</g>
<!-- PlaceholderModule -->
<g id="node17" class="node">
<title>PlaceholderModule</title>
<polygon fill="#8dd3c7" stroke="#000000" points="283.6331,-187 280.6331,-191 259.6331,-191 256.6331,-187 158.3669,-187 158.3669,-151 283.6331,-151 283.6331,-187"/>
<text text-anchor="middle" x="221" y="-164.8" font-family="Times,serif" font-size="14.00" fill="#000000">PlaceholderModule</text>
</g>
<!-- PlaceholderModule&#45;&gt;DialogModule -->
<g id="edge16" class="edge">
<title>PlaceholderModule&#45;&gt;DialogModule</title>
<path fill="none" stroke="#000000" d="M221,-187.1061C221,-206.3391 221,-234 221,-234 221,-234 1004.0911,-234 1004.0911,-234"/>
<polygon fill="#000000" stroke="#000000" points="1004.0911,-237.5001 1014.0911,-234 1004.0911,-230.5001 1004.0911,-237.5001"/>
</g>
<!-- StaticIconModule -->
<g id="node18" class="node">
<title>StaticIconModule</title>
<polygon fill="#8dd3c7" stroke="#000000" points="140.309,-187 137.309,-191 116.309,-191 113.309,-187 23.691,-187 23.691,-151 140.309,-151 140.309,-187"/>
<text text-anchor="middle" x="82" y="-164.8" font-family="Times,serif" font-size="14.00" fill="#000000">StaticIconModule</text>
</g>
<!-- StaticIconModule&#45;&gt;DialogModule -->
<g id="edge17" class="edge">
<title>StaticIconModule&#45;&gt;DialogModule</title>
<path fill="none" stroke="#000000" d="M82,-187.2228C82,-207.3652 82,-237 82,-237 82,-237 1004.0164,-237 1004.0164,-237"/>
<polygon fill="#000000" stroke="#000000" points="1004.0165,-240.5001 1014.0164,-237 1004.0164,-233.5001 1004.0165,-240.5001"/>
</g>
</g>
</svg>
