<?xml version="1.0" encoding="UTF-8" standalone="no"?>
<!DOCTYPE svg PUBLIC "-//W3C//DTD SVG 1.1//EN"
 "http://www.w3.org/Graphics/SVG/1.1/DTD/svg11.dtd">
<!-- Generated by graphviz version 2.40.1 (20161225.0304)
 -->
<!-- Title: dependencies Pages: 1 -->
<svg width="504pt" height="284pt"
 viewBox="0.00 0.00 504.00 284.00" xmlns="http://www.w3.org/2000/svg" xmlns:xlink="http://www.w3.org/1999/xlink">
<g id="graph0" class="graph" transform="scale(1 1) rotate(0) translate(4 280)">
<title>dependencies</title>
<polygon fill="#ffffff" stroke="transparent" points="-4,4 -4,-280 500,-280 500,4 -4,4"/>
<text text-anchor="start" x="227.0091" y="-42.4" font-family="sans-serif" font-weight="bold" font-size="14.00" fill="#000000">Legend</text>
<polygon fill="#ffffb3" stroke="transparent" points="14,-10 14,-30 34,-30 34,-10 14,-10"/>
<text text-anchor="start" x="37.629" y="-15.4" font-family="sans-serif" font-size="14.00" fill="#000000"> &#160;Declarations</text>
<polygon fill="#8dd3c7" stroke="transparent" points="127,-10 127,-30 147,-30 147,-10 127,-10"/>
<text text-anchor="start" x="150.7251" y="-15.4" font-family="sans-serif" font-size="14.00" fill="#000000"> &#160;Module</text>
<polygon fill="#80b1d3" stroke="transparent" points="213,-10 213,-30 233,-30 233,-10 213,-10"/>
<text text-anchor="start" x="236.7812" y="-15.4" font-family="sans-serif" font-size="14.00" fill="#000000"> &#160;Bootstrap</text>
<polygon fill="#fdb462" stroke="transparent" points="310,-10 310,-30 330,-30 330,-10 310,-10"/>
<text text-anchor="start" x="333.6732" y="-15.4" font-family="sans-serif" font-size="14.00" fill="#000000"> &#160;Providers</text>
<polygon fill="#fb8072" stroke="transparent" points="406,-10 406,-30 426,-30 426,-10 406,-10"/>
<text text-anchor="start" x="429.7258" y="-15.4" font-family="sans-serif" font-size="14.00" fill="#000000"> &#160;Exports</text>
<g id="clust1" class="cluster">
<title>cluster_TilesModule</title>
<polygon fill="none" stroke="#000000" stroke-dasharray="1,5" points="148,-70 148,-268 348,-268 348,-70 148,-70"/>
</g>
<g id="clust2" class="cluster">
<title>cluster_TilesModule_declarations</title>
<polygon fill="none" stroke="#000000" points="158,-78 158,-130 338,-130 338,-78 158,-78"/>
</g>
<g id="clust6" class="cluster">
<title>cluster_TilesModule_exports</title>
<polygon fill="none" stroke="#000000" points="156,-208 156,-260 340,-260 340,-208 156,-208"/>
</g>
<!-- Tile -->
<g id="node1" class="node">
<title>Tile</title>
<polygon fill="#ffffb3" stroke="#000000" points="330,-122 276,-122 276,-86 330,-86 330,-122"/>
<text text-anchor="middle" x="303" y="-99.8" font-family="Times,serif" font-size="14.00" fill="#000000">Tile</text>
</g>
<!-- TilesModule -->
<g id="node3" class="node">
<title>TilesModule</title>
<polygon fill="#8dd3c7" stroke="#000000" points="256.544,-187 253.544,-191 232.544,-191 229.544,-187 169.456,-187 169.456,-151 256.544,-151 256.544,-187"/>
<text text-anchor="middle" x="213" y="-164.8" font-family="Times,serif" font-size="14.00" fill="#000000">TilesModule</text>
</g>
<!-- Tile&#45;&gt;TilesModule -->
<g id="edge1" class="edge">
<title>Tile&#45;&gt;TilesModule</title>
<path fill="none" stroke="#000000" d="M312.6667,-122.0225C312.6667,-139.3734 312.6667,-163 312.6667,-163 312.6667,-163 266.7153,-163 266.7153,-163"/>
<polygon fill="#000000" stroke="#000000" points="266.7153,-159.5001 256.7153,-163 266.7152,-166.5001 266.7153,-159.5001"/>
</g>
<!-- ClickableTile -->
<g id="node2" class="node">
<title>ClickableTile</title>
<polygon fill="#ffffb3" stroke="#000000" points="258.2008,-122 165.7992,-122 165.7992,-86 258.2008,-86 258.2008,-122"/>
<text text-anchor="middle" x="212" y="-99.8" font-family="Times,serif" font-size="14.00" fill="#000000">ClickableTile</text>
</g>
<!-- ClickableTile&#45;&gt;TilesModule -->
<g id="edge2" class="edge">
<title>ClickableTile&#45;&gt;TilesModule</title>
<path fill="none" stroke="#000000" d="M213,-122.1061C213,-122.1061 213,-140.991 213,-140.991"/>
<polygon fill="#000000" stroke="#000000" points="209.5001,-140.9909 213,-150.991 216.5001,-140.991 209.5001,-140.9909"/>
</g>
<!-- Tile  -->
<g id="node4" class="node">
<title>Tile </title>
<polygon fill="#fb8072" stroke="#000000" points="332,-252 278,-252 278,-216 332,-216 332,-252"/>
<text text-anchor="middle" x="305" y="-229.8" font-family="Times,serif" font-size="14.00" fill="#000000">Tile </text>
</g>
<!-- TilesModule&#45;&gt;Tile  -->
<g id="edge3" class="edge">
<title>TilesModule&#45;&gt;Tile </title>
<path fill="none" stroke="#000000" stroke-dasharray="5,2" d="M256.5775,-175C276.3267,-175 295.3333,-175 295.3333,-175 295.3333,-175 295.3333,-205.9775 295.3333,-205.9775"/>
<polygon fill="#000000" stroke="#000000" points="291.8334,-205.9774 295.3333,-215.9775 298.8334,-205.9775 291.8334,-205.9774"/>
</g>
<!-- ClickableTile  -->
<g id="node5" class="node">
<title>ClickableTile </title>
<polygon fill="#fb8072" stroke="#000000" points="259.7011,-252 164.2989,-252 164.2989,-216 259.7011,-216 259.7011,-252"/>
<text text-anchor="middle" x="212" y="-229.8" font-family="Times,serif" font-size="14.00" fill="#000000">ClickableTile </text>
</g>
<!-- TilesModule&#45;&gt;ClickableTile  -->
<g id="edge4" class="edge">
<title>TilesModule&#45;&gt;ClickableTile </title>
<path fill="none" stroke="#000000" stroke-dasharray="5,2" d="M213,-187.1061C213,-187.1061 213,-205.991 213,-205.991"/>
<polygon fill="#000000" stroke="#000000" points="209.5001,-205.9909 213,-215.991 216.5001,-205.991 209.5001,-205.9909"/>
</g>
</g>
</svg>
