<?xml version="1.0" encoding="UTF-8" standalone="no"?>
<!DOCTYPE svg PUBLIC "-//W3C//DTD SVG 1.1//EN"
 "http://www.w3.org/Graphics/SVG/1.1/DTD/svg11.dtd">
<!-- Generated by graphviz version 2.40.1 (20161225.0304)
 -->
<!-- Title: dependencies Pages: 1 -->
<svg width="674pt" height="396pt"
 viewBox="0.00 0.00 674.00 395.59" xmlns="http://www.w3.org/2000/svg" xmlns:xlink="http://www.w3.org/1999/xlink">
<g id="graph0" class="graph" transform="scale(1 1) rotate(0) translate(4 391.5901)">
<title>dependencies</title>
<polygon fill="#ffffff" stroke="transparent" points="-4,4 -4,-391.5901 670,-391.5901 670,4 -4,4"/>
<text text-anchor="start" x="312.0091" y="-42.4" font-family="sans-serif" font-weight="bold" font-size="14.00" fill="#000000">Legend</text>
<polygon fill="#ffffb3" stroke="transparent" points="99,-10 99,-30 119,-30 119,-10 99,-10"/>
<text text-anchor="start" x="122.629" y="-15.4" font-family="sans-serif" font-size="14.00" fill="#000000"> &#160;Declarations</text>
<polygon fill="#8dd3c7" stroke="transparent" points="212,-10 212,-30 232,-30 232,-10 212,-10"/>
<text text-anchor="start" x="235.7251" y="-15.4" font-family="sans-serif" font-size="14.00" fill="#000000"> &#160;Module</text>
<polygon fill="#80b1d3" stroke="transparent" points="298,-10 298,-30 318,-30 318,-10 298,-10"/>
<text text-anchor="start" x="321.7812" y="-15.4" font-family="sans-serif" font-size="14.00" fill="#000000"> &#160;Bootstrap</text>
<polygon fill="#fdb462" stroke="transparent" points="395,-10 395,-30 415,-30 415,-10 395,-10"/>
<text text-anchor="start" x="418.6732" y="-15.4" font-family="sans-serif" font-size="14.00" fill="#000000"> &#160;Providers</text>
<polygon fill="#fb8072" stroke="transparent" points="491,-10 491,-30 511,-30 511,-10 491,-10"/>
<text text-anchor="start" x="514.7258" y="-15.4" font-family="sans-serif" font-size="14.00" fill="#000000"> &#160;Exports</text>
<g id="clust1" class="cluster">
<title>cluster_CheckboxModule</title>
<polygon fill="none" stroke="#000000" stroke-dasharray="1,5" points="8,-70 8,-379.5901 658,-379.5901 658,-70 8,-70"/>
</g>
<g id="clust2" class="cluster">
<title>cluster_CheckboxModule_declarations</title>
<polygon fill="none" stroke="#000000" points="289,-189.5901 289,-241.5901 377,-241.5901 377,-189.5901 289,-189.5901"/>
</g>
<g id="clust3" class="cluster">
<title>cluster_CheckboxModule_Checkbox_providers</title>
<polygon fill="none" stroke="#000000" points="16,-78 16,-176.5901 650,-176.5901 650,-78 16,-78"/>
</g>
<g id="clust5" class="cluster">
<title>cluster_CheckboxModule_exports</title>
<polygon fill="none" stroke="#000000" points="287,-319.5901 287,-371.5901 379,-371.5901 379,-319.5901 287,-319.5901"/>
</g>
<!-- Checkbox -->
<g id="node1" class="node">
<title>Checkbox</title>
<polygon fill="#ffffb3" stroke="#000000" points="369.2662,-233.5901 296.7338,-233.5901 296.7338,-197.5901 369.2662,-197.5901 369.2662,-233.5901"/>
<text text-anchor="middle" x="333" y="-211.3901" font-family="Times,serif" font-size="14.00" fill="#000000">Checkbox</text>
</g>
<!-- CheckboxModule -->
<g id="node2" class="node">
<title>CheckboxModule</title>
<polygon fill="#8dd3c7" stroke="#000000" points="391.316,-298.5901 388.316,-302.5901 367.316,-302.5901 364.316,-298.5901 274.684,-298.5901 274.684,-262.5901 391.316,-262.5901 391.316,-298.5901"/>
<text text-anchor="middle" x="333" y="-276.3901" font-family="Times,serif" font-size="14.00" fill="#000000">CheckboxModule</text>
</g>
<!-- Checkbox&#45;&gt;CheckboxModule -->
<g id="edge1" class="edge">
<title>Checkbox&#45;&gt;CheckboxModule</title>
<path fill="none" stroke="#000000" d="M333,-233.6962C333,-233.6962 333,-252.581 333,-252.581"/>
<polygon fill="#000000" stroke="#000000" points="329.5001,-252.581 333,-262.581 336.5001,-252.5811 329.5001,-252.581"/>
</g>
<!-- Checkbox  -->
<g id="node4" class="node">
<title>Checkbox </title>
<polygon fill="#fb8072" stroke="#000000" points="371.2663,-363.5901 294.7337,-363.5901 294.7337,-327.5901 371.2663,-327.5901 371.2663,-363.5901"/>
<text text-anchor="middle" x="333" y="-341.3901" font-family="Times,serif" font-size="14.00" fill="#000000">Checkbox </text>
</g>
<!-- CheckboxModule&#45;&gt;Checkbox  -->
<g id="edge3" class="edge">
<title>CheckboxModule&#45;&gt;Checkbox </title>
<path fill="none" stroke="#000000" stroke-dasharray="5,2" d="M333,-298.6962C333,-298.6962 333,-317.581 333,-317.581"/>
<polygon fill="#000000" stroke="#000000" points="329.5001,-317.581 333,-327.581 336.5001,-317.5811 329.5001,-317.581"/>
</g>
<!-- {
 &#160;&#160;&#160;provide: NG_VALUE_ACCESSOR, useExisting: Checkbox, multi: true
} -->
<g id="node3" class="node">
<title>{
 &#160;&#160;&#160;provide: NG_VALUE_ACCESSOR, useExisting: Checkbox, multi: true
}</title>
<ellipse fill="#fdb462" stroke="#000000" cx="333" cy="-127.295" rx="308.5763" ry="41.0911"/>
<text text-anchor="middle" x="333" y="-139.895" font-family="Times,serif" font-size="14.00" fill="#000000">{</text>
<text text-anchor="middle" x="333" y="-123.095" font-family="Times,serif" font-size="14.00" fill="#000000"> &#160;&#160;&#160;provide: NG_VALUE_ACCESSOR, useExisting: Checkbox, multi: true</text>
<text text-anchor="middle" x="333" y="-106.295" font-family="Times,serif" font-size="14.00" fill="#000000">}</text>
</g>
<!-- {
 &#160;&#160;&#160;provide: NG_VALUE_ACCESSOR, useExisting: Checkbox, multi: true
}&#45;&gt;Checkbox -->
<g id="edge2" class="edge">
<title>{
 &#160;&#160;&#160;provide: NG_VALUE_ACCESSOR, useExisting: Checkbox, multi: true
}&#45;&gt;Checkbox</title>
<path fill="none" stroke="#000000" d="M333,-168.5989C333,-168.5989 333,-187.2551 333,-187.2551"/>
<polygon fill="#000000" stroke="#000000" points="329.5001,-187.255 333,-197.2551 336.5001,-187.2551 329.5001,-187.255"/>
</g>
</g>
</svg>
