<?xml version="1.0" encoding="UTF-8" standalone="no"?>
<!DOCTYPE svg PUBLIC "-//W3C//DTD SVG 1.1//EN"
 "http://www.w3.org/Graphics/SVG/1.1/DTD/svg11.dtd">
<!-- Generated by graphviz version 2.40.1 (20161225.0304)
 -->
<!-- Title: dependencies Pages: 1 -->
<svg width="903pt" height="284pt"
 viewBox="0.00 0.00 903.00 284.00" xmlns="http://www.w3.org/2000/svg" xmlns:xlink="http://www.w3.org/1999/xlink">
<g id="graph0" class="graph" transform="scale(1 1) rotate(0) translate(4 280)">
<title>dependencies</title>
<polygon fill="#ffffff" stroke="transparent" points="-4,4 -4,-280 899,-280 899,4 -4,4"/>
<text text-anchor="start" x="426.5091" y="-42.4" font-family="sans-serif" font-weight="bold" font-size="14.00" fill="#000000">Legend</text>
<polygon fill="#ffffb3" stroke="transparent" points="213.5,-10 213.5,-30 233.5,-30 233.5,-10 213.5,-10"/>
<text text-anchor="start" x="237.129" y="-15.4" font-family="sans-serif" font-size="14.00" fill="#000000"> &#160;Declarations</text>
<polygon fill="#8dd3c7" stroke="transparent" points="326.5,-10 326.5,-30 346.5,-30 346.5,-10 326.5,-10"/>
<text text-anchor="start" x="350.2251" y="-15.4" font-family="sans-serif" font-size="14.00" fill="#000000"> &#160;Module</text>
<polygon fill="#80b1d3" stroke="transparent" points="412.5,-10 412.5,-30 432.5,-30 432.5,-10 412.5,-10"/>
<text text-anchor="start" x="436.2812" y="-15.4" font-family="sans-serif" font-size="14.00" fill="#000000"> &#160;Bootstrap</text>
<polygon fill="#fdb462" stroke="transparent" points="509.5,-10 509.5,-30 529.5,-30 529.5,-10 509.5,-10"/>
<text text-anchor="start" x="533.1732" y="-15.4" font-family="sans-serif" font-size="14.00" fill="#000000"> &#160;Providers</text>
<polygon fill="#fb8072" stroke="transparent" points="605.5,-10 605.5,-30 625.5,-30 625.5,-10 605.5,-10"/>
<text text-anchor="start" x="629.2258" y="-15.4" font-family="sans-serif" font-size="14.00" fill="#000000"> &#160;Exports</text>
<g id="clust1" class="cluster">
<title>cluster_DropdownModule</title>
<polygon fill="none" stroke="#000000" stroke-dasharray="1,5" points="8,-70 8,-268 887,-268 887,-70 8,-70"/>
</g>
<g id="clust2" class="cluster">
<title>cluster_DropdownModule_declarations</title>
<polygon fill="none" stroke="#000000" points="559,-78 559,-130 879,-130 879,-78 559,-78"/>
</g>
<g id="clust6" class="cluster">
<title>cluster_DropdownModule_imports</title>
<polygon fill="none" stroke="#000000" points="202,-78 202,-130 551,-130 551,-78 202,-78"/>
</g>
<g id="clust7" class="cluster">
<title>cluster_DropdownModule_exports</title>
<polygon fill="none" stroke="#000000" points="325,-208 325,-260 656,-260 656,-208 325,-208"/>
</g>
<g id="clust9" class="cluster">
<title>cluster_DropdownModule_providers</title>
<polygon fill="none" stroke="#000000" points="16,-78 16,-130 194,-130 194,-78 16,-78"/>
</g>
<!-- Dropdown -->
<g id="node1" class="node">
<title>Dropdown</title>
<polygon fill="#ffffb3" stroke="#000000" points="870.8739,-122 795.1261,-122 795.1261,-86 870.8739,-86 870.8739,-122"/>
<text text-anchor="middle" x="833" y="-99.8" font-family="Times,serif" font-size="14.00" fill="#000000">Dropdown</text>
</g>
<!-- DropdownModule -->
<g id="node4" class="node">
<title>DropdownModule</title>
<polygon fill="#8dd3c7" stroke="#000000" points="559.9244,-187 556.9244,-191 535.9244,-191 532.9244,-187 440.0756,-187 440.0756,-151 559.9244,-151 559.9244,-187"/>
<text text-anchor="middle" x="500" y="-164.8" font-family="Times,serif" font-size="14.00" fill="#000000">DropdownModule</text>
</g>
<!-- Dropdown&#45;&gt;DropdownModule -->
<g id="edge1" class="edge">
<title>Dropdown&#45;&gt;DropdownModule</title>
<path fill="none" stroke="#000000" d="M833,-122.2843C833,-143.3211 833,-175 833,-175 833,-175 569.9183,-175 569.9183,-175"/>
<polygon fill="#000000" stroke="#000000" points="569.9184,-171.5001 559.9183,-175 569.9183,-178.5001 569.9184,-171.5001"/>
</g>
<!-- DropdownList -->
<g id="node2" class="node">
<title>DropdownList</title>
<polygon fill="#ffffb3" stroke="#000000" points="776.6528,-122 679.3472,-122 679.3472,-86 776.6528,-86 776.6528,-122"/>
<text text-anchor="middle" x="728" y="-99.8" font-family="Times,serif" font-size="14.00" fill="#000000">DropdownList</text>
</g>
<!-- DropdownList&#45;&gt;DropdownModule -->
<g id="edge2" class="edge">
<title>DropdownList&#45;&gt;DropdownModule</title>
<path fill="none" stroke="#000000" d="M728,-122.0225C728,-139.3734 728,-163 728,-163 728,-163 569.9043,-163 569.9043,-163"/>
<polygon fill="#000000" stroke="#000000" points="569.9044,-159.5001 559.9043,-163 569.9043,-166.5001 569.9044,-159.5001"/>
</g>
<!-- ScrollableList -->
<g id="node3" class="node">
<title>ScrollableList</title>
<polygon fill="#ffffb3" stroke="#000000" points="661.0383,-122 566.9617,-122 566.9617,-86 661.0383,-86 661.0383,-122"/>
<text text-anchor="middle" x="614" y="-99.8" font-family="Times,serif" font-size="14.00" fill="#000000">ScrollableList</text>
</g>
<!-- ScrollableList&#45;&gt;DropdownModule -->
<g id="edge3" class="edge">
<title>ScrollableList&#45;&gt;DropdownModule</title>
<path fill="none" stroke="#000000" d="M566.6924,-104C557.7643,-104 551.1585,-104 551.1585,-104 551.1585,-104 551.1585,-140.8939 551.1585,-140.8939"/>
<polygon fill="#000000" stroke="#000000" points="547.6586,-140.8938 551.1585,-150.8939 554.6586,-140.8939 547.6586,-140.8938"/>
</g>
<!-- Dropdown  -->
<g id="node8" class="node">
<title>Dropdown </title>
<polygon fill="#fb8072" stroke="#000000" points="647.8747,-252 568.1253,-252 568.1253,-216 647.8747,-216 647.8747,-252"/>
<text text-anchor="middle" x="608" y="-229.8" font-family="Times,serif" font-size="14.00" fill="#000000">Dropdown </text>
</g>
<!-- DropdownModule&#45;&gt;Dropdown  -->
<g id="edge7" class="edge">
<title>DropdownModule&#45;&gt;Dropdown </title>
<path fill="none" stroke="#000000" stroke-dasharray="5,2" d="M555.144,-187.1061C555.144,-206.3391 555.144,-234 555.144,-234 555.144,-234 558.2095,-234 558.2095,-234"/>
<polygon fill="#000000" stroke="#000000" points="558.2095,-237.5001 568.2095,-234 558.2095,-230.5001 558.2095,-237.5001"/>
</g>
<!-- DropdownList  -->
<g id="node9" class="node">
<title>DropdownList </title>
<polygon fill="#fb8072" stroke="#000000" points="550.6523,-252 449.3477,-252 449.3477,-216 550.6523,-216 550.6523,-252"/>
<text text-anchor="middle" x="500" y="-229.8" font-family="Times,serif" font-size="14.00" fill="#000000">DropdownList </text>
</g>
<!-- DropdownModule&#45;&gt;DropdownList  -->
<g id="edge8" class="edge">
<title>DropdownModule&#45;&gt;DropdownList </title>
<path fill="none" stroke="#000000" stroke-dasharray="5,2" d="M500,-187.1061C500,-187.1061 500,-205.991 500,-205.991"/>
<polygon fill="#000000" stroke="#000000" points="496.5001,-205.9909 500,-215.991 503.5001,-205.991 496.5001,-205.9909"/>
</g>
<!-- ScrollableList  -->
<g id="node10" class="node">
<title>ScrollableList </title>
<polygon fill="#fb8072" stroke="#000000" points="431.0372,-252 332.9628,-252 332.9628,-216 431.0372,-216 431.0372,-252"/>
<text text-anchor="middle" x="382" y="-229.8" font-family="Times,serif" font-size="14.00" fill="#000000">ScrollableList </text>
</g>
<!-- DropdownModule&#45;&gt;ScrollableList  -->
<g id="edge9" class="edge">
<title>DropdownModule&#45;&gt;ScrollableList </title>
<path fill="none" stroke="#000000" stroke-dasharray="5,2" d="M444.8561,-187.1061C444.8561,-206.3391 444.8561,-234 444.8561,-234 444.8561,-234 441.2172,-234 441.2172,-234"/>
<polygon fill="#000000" stroke="#000000" points="441.2173,-230.5001 431.2172,-234 441.2172,-237.5001 441.2173,-230.5001"/>
</g>
<!-- I18nModule -->
<g id="node5" class="node">
<title>I18nModule</title>
<polygon fill="#8dd3c7" stroke="#000000" points="542.7107,-122 539.7107,-126 518.7107,-126 515.7107,-122 457.2893,-122 457.2893,-86 542.7107,-86 542.7107,-122"/>
<text text-anchor="middle" x="500" y="-99.8" font-family="Times,serif" font-size="14.00" fill="#000000">I18nModule</text>
</g>
<!-- I18nModule&#45;&gt;DropdownModule -->
<g id="edge4" class="edge">
<title>I18nModule&#45;&gt;DropdownModule</title>
<path fill="none" stroke="#000000" d="M500,-122.1061C500,-122.1061 500,-140.991 500,-140.991"/>
<polygon fill="#000000" stroke="#000000" points="496.5001,-140.9909 500,-150.991 503.5001,-140.991 496.5001,-140.9909"/>
</g>
<!-- PlaceholderModule -->
<g id="node6" class="node">
<title>PlaceholderModule</title>
<polygon fill="#8dd3c7" stroke="#000000" points="439.6331,-122 436.6331,-126 415.6331,-126 412.6331,-122 314.3669,-122 314.3669,-86 439.6331,-86 439.6331,-122"/>
<text text-anchor="middle" x="377" y="-99.8" font-family="Times,serif" font-size="14.00" fill="#000000">PlaceholderModule</text>
</g>
<!-- PlaceholderModule&#45;&gt;DropdownModule -->
<g id="edge5" class="edge">
<title>PlaceholderModule&#45;&gt;DropdownModule</title>
<path fill="none" stroke="#000000" d="M435.4175,-122.027C435.4175,-138.3976 435.4175,-160 435.4175,-160 435.4175,-160 435.8819,-160 435.8819,-160"/>
<polygon fill="#000000" stroke="#000000" points="430.0622,-163.5002 440.0621,-160 430.062,-156.5002 430.0622,-163.5002"/>
</g>
<!-- UtilsModule -->
<g id="node7" class="node">
<title>UtilsModule</title>
<polygon fill="#8dd3c7" stroke="#000000" points="296.2731,-122 293.2731,-126 272.2731,-126 269.2731,-122 209.7269,-122 209.7269,-86 296.2731,-86 296.2731,-122"/>
<text text-anchor="middle" x="253" y="-99.8" font-family="Times,serif" font-size="14.00" fill="#000000">UtilsModule</text>
</g>
<!-- UtilsModule&#45;&gt;DropdownModule -->
<g id="edge6" class="edge">
<title>UtilsModule&#45;&gt;DropdownModule</title>
<path fill="none" stroke="#000000" d="M253,-122.1061C253,-141.3391 253,-169 253,-169 253,-169 430.2082,-169 430.2082,-169"/>
<polygon fill="#000000" stroke="#000000" points="430.2082,-172.5001 440.2082,-169 430.2082,-165.5001 430.2082,-172.5001"/>
</g>
<!-- DropdownService -->
<g id="node11" class="node">
<title>DropdownService</title>
<ellipse fill="#fdb462" stroke="#000000" cx="105" cy="-104" rx="81.084" ry="18"/>
<text text-anchor="middle" x="105" y="-99.8" font-family="Times,serif" font-size="14.00" fill="#000000">DropdownService</text>
</g>
<!-- DropdownService&#45;&gt;DropdownModule -->
<g id="edge10" class="edge">
<title>DropdownService&#45;&gt;DropdownModule</title>
<path fill="none" stroke="#000000" d="M105,-122.2921C105,-144.2057 105,-178 105,-178 105,-178 430.008,-178 430.008,-178"/>
<polygon fill="#000000" stroke="#000000" points="430.008,-181.5001 440.008,-178 430.008,-174.5001 430.008,-181.5001"/>
</g>
</g>
</svg>
