<?xml version="1.0" encoding="UTF-8" standalone="no"?>
<!DOCTYPE svg PUBLIC "-//W3C//DTD SVG 1.1//EN"
 "http://www.w3.org/Graphics/SVG/1.1/DTD/svg11.dtd">
<!-- Generated by graphviz version 2.47.0 (20210316.0004)
 -->
<!-- Title: dependencies Pages: 1 -->
<svg width="648pt" height="396pt"
 viewBox="0.00 0.00 648.00 395.59" xmlns="http://www.w3.org/2000/svg" xmlns:xlink="http://www.w3.org/1999/xlink">
<g id="graph0" class="graph" transform="scale(1 1) rotate(0) translate(4 391.59)">
<title>dependencies</title>
<polygon fill="white" stroke="transparent" points="-4,4 -4,-391.59 644,-391.59 644,4 -4,4"/>
<text text-anchor="start" x="299.01" y="-42.4" font-family="Times-12" font-weight="bold" font-size="14.00">Legend</text>
<polygon fill="#ffffb3" stroke="transparent" points="86,-10 86,-30 106,-30 106,-10 86,-10"/>
<text text-anchor="start" x="109.63" y="-15.4" font-family="Times-12" font-size="14.00"> &#160;Declarations</text>
<polygon fill="#8dd3c7" stroke="transparent" points="199,-10 199,-30 219,-30 219,-10 199,-10"/>
<text text-anchor="start" x="222.73" y="-15.4" font-family="Times-12" font-size="14.00"> &#160;Module</text>
<polygon fill="#80b1d3" stroke="transparent" points="285,-10 285,-30 305,-30 305,-10 285,-10"/>
<text text-anchor="start" x="308.78" y="-15.4" font-family="Times-12" font-size="14.00"> &#160;Bootstrap</text>
<polygon fill="#fdb462" stroke="transparent" points="382,-10 382,-30 402,-30 402,-10 382,-10"/>
<text text-anchor="start" x="405.67" y="-15.4" font-family="Times-12" font-size="14.00"> &#160;Providers</text>
<polygon fill="#fb8072" stroke="transparent" points="478,-10 478,-30 498,-30 498,-10 478,-10"/>
<text text-anchor="start" x="501.73" y="-15.4" font-family="Times-12" font-size="14.00"> &#160;Exports</text>
<g id="clust1" class="cluster">
<title>cluster_ToggleModule</title>
<polygon fill="none" stroke="black" stroke-dasharray="1,5" points="8,-70 8,-379.59 632,-379.59 632,-70 8,-70"/>
</g>
<g id="clust5" class="cluster">
<title>cluster_ToggleModule_exports</title>
<polygon fill="none" stroke="black" points="234,-319.59 234,-371.59 310,-371.59 310,-319.59 234,-319.59"/>
</g>
<g id="clust2" class="cluster">
<title>cluster_ToggleModule_declarations</title>
<polygon fill="none" stroke="black" points="284,-189.59 284,-241.59 356,-241.59 356,-189.59 284,-189.59"/>
</g>
<g id="clust3" class="cluster">
<title>cluster_ToggleModule_Toggle_providers</title>
<polygon fill="none" stroke="black" points="16,-78 16,-176.59 624,-176.59 624,-78 16,-78"/>
</g>
<g id="clust4" class="cluster">
<title>cluster_ToggleModule_imports</title>
<polygon fill="none" stroke="black" points="174,-189.59 174,-241.59 276,-241.59 276,-189.59 174,-189.59"/>
</g>
<!-- Toggle -->
<g id="node1" class="node">
<title>Toggle</title>
<polygon fill="#ffffb3" stroke="black" points="347.66,-233.59 292.34,-233.59 292.34,-197.59 347.66,-197.59 347.66,-233.59"/>
<text text-anchor="middle" x="320" y="-211.39" font-family="Times,serif" font-size="14.00">Toggle</text>
</g>
<!-- ToggleModule -->
<g id="node2" class="node">
<title>ToggleModule</title>
<polygon fill="#8dd3c7" stroke="black" points="321.71,-298.59 318.71,-302.59 297.71,-302.59 294.71,-298.59 222.29,-298.59 222.29,-262.59 321.71,-262.59 321.71,-298.59"/>
<text text-anchor="middle" x="272" y="-276.39" font-family="Times,serif" font-size="14.00">ToggleModule</text>
</g>
<!-- Toggle&#45;&gt;ToggleModule -->
<g id="edge1" class="edge">
<title>Toggle&#45;&gt;ToggleModule</title>
<path fill="none" stroke="black" d="M306.89,-233.7C306.89,-233.7 306.89,-252.58 306.89,-252.58"/>
<polygon fill="black" stroke="black" points="303.39,-252.58 306.89,-262.58 310.39,-252.58 303.39,-252.58"/>
</g>
<!-- Toggle  -->
<g id="node5" class="node">
<title>Toggle </title>
<polygon fill="#fb8072" stroke="black" points="301.66,-363.59 242.34,-363.59 242.34,-327.59 301.66,-327.59 301.66,-363.59"/>
<text text-anchor="middle" x="272" y="-341.39" font-family="Times,serif" font-size="14.00">Toggle </text>
</g>
<!-- ToggleModule&#45;&gt;Toggle  -->
<g id="edge4" class="edge">
<title>ToggleModule&#45;&gt;Toggle </title>
<path fill="none" stroke="black" stroke-dasharray="5,2" d="M272,-298.7C272,-298.7 272,-317.58 272,-317.58"/>
<polygon fill="black" stroke="black" points="268.5,-317.58 272,-327.58 275.5,-317.58 268.5,-317.58"/>
</g>
<!-- {
 &#160;&#160;&#160;provide: NG_VALUE_ACCESSOR, useExisting: Toggle, multi: true
} -->
<g id="node3" class="node">
<title>{
 &#160;&#160;&#160;provide: NG_VALUE_ACCESSOR, useExisting: Toggle, multi: true
}</title>
<ellipse fill="#fdb462" stroke="black" cx="320" cy="-127.3" rx="296.38" ry="41.09"/>
<text text-anchor="middle" x="320" y="-139.9" font-family="Times,serif" font-size="14.00">{</text>
<text text-anchor="middle" x="320" y="-123.1" font-family="Times,serif" font-size="14.00"> &#160;&#160;&#160;provide: NG_VALUE_ACCESSOR, useExisting: Toggle, multi: true</text>
<text text-anchor="middle" x="320" y="-106.3" font-family="Times,serif" font-size="14.00">}</text>
</g>
<!-- {
 &#160;&#160;&#160;provide: NG_VALUE_ACCESSOR, useExisting: Toggle, multi: true
}&#45;&gt;Toggle -->
<g id="edge2" class="edge">
<title>{
 &#160;&#160;&#160;provide: NG_VALUE_ACCESSOR, useExisting: Toggle, multi: true
}&#45;&gt;Toggle</title>
<path fill="none" stroke="black" d="M320,-168.6C320,-168.6 320,-187.26 320,-187.26"/>
<polygon fill="black" stroke="black" points="316.5,-187.26 320,-197.26 323.5,-187.26 316.5,-187.26"/>
</g>
<!-- I18nModule -->
<g id="node4" class="node">
<title>I18nModule</title>
<polygon fill="#8dd3c7" stroke="black" points="267.71,-233.59 264.71,-237.59 243.71,-237.59 240.71,-233.59 182.29,-233.59 182.29,-197.59 267.71,-197.59 267.71,-233.59"/>
<text text-anchor="middle" x="225" y="-211.39" font-family="Times,serif" font-size="14.00">I18nModule</text>
</g>
<!-- I18nModule&#45;&gt;ToggleModule -->
<g id="edge3" class="edge">
<title>I18nModule&#45;&gt;ToggleModule</title>
<path fill="none" stroke="black" d="M245,-233.7C245,-233.7 245,-252.58 245,-252.58"/>
<polygon fill="black" stroke="black" points="241.5,-252.58 245,-262.58 248.5,-252.58 241.5,-252.58"/>
</g>
</g>
</svg>
