<?xml version="1.0" encoding="UTF-8" standalone="no"?>
<!DOCTYPE svg PUBLIC "-//W3C//DTD SVG 1.1//EN"
 "http://www.w3.org/Graphics/SVG/1.1/DTD/svg11.dtd">
<!-- Generated by graphviz version 2.40.1 (20161225.0304)
 -->
<!-- Title: dependencies Pages: 1 -->
<svg width="1941pt" height="349pt"
 viewBox="0.00 0.00 1941.00 349.00" xmlns="http://www.w3.org/2000/svg" xmlns:xlink="http://www.w3.org/1999/xlink">
<g id="graph0" class="graph" transform="scale(1 1) rotate(0) translate(4 345)">
<title>dependencies</title>
<polygon fill="#ffffff" stroke="transparent" points="-4,4 -4,-345 1937,-345 1937,4 -4,4"/>
<text text-anchor="start" x="945.5091" y="-42.4" font-family="sans-serif" font-weight="bold" font-size="14.00" fill="#000000">Legend</text>
<polygon fill="#ffffb3" stroke="transparent" points="732.5,-10 732.5,-30 752.5,-30 752.5,-10 732.5,-10"/>
<text text-anchor="start" x="756.129" y="-15.4" font-family="sans-serif" font-size="14.00" fill="#000000"> &#160;Declarations</text>
<polygon fill="#8dd3c7" stroke="transparent" points="845.5,-10 845.5,-30 865.5,-30 865.5,-10 845.5,-10"/>
<text text-anchor="start" x="869.2251" y="-15.4" font-family="sans-serif" font-size="14.00" fill="#000000"> &#160;Module</text>
<polygon fill="#80b1d3" stroke="transparent" points="931.5,-10 931.5,-30 951.5,-30 951.5,-10 931.5,-10"/>
<text text-anchor="start" x="955.2812" y="-15.4" font-family="sans-serif" font-size="14.00" fill="#000000"> &#160;Bootstrap</text>
<polygon fill="#fdb462" stroke="transparent" points="1028.5,-10 1028.5,-30 1048.5,-30 1048.5,-10 1028.5,-10"/>
<text text-anchor="start" x="1052.1732" y="-15.4" font-family="sans-serif" font-size="14.00" fill="#000000"> &#160;Providers</text>
<polygon fill="#fb8072" stroke="transparent" points="1124.5,-10 1124.5,-30 1144.5,-30 1144.5,-10 1124.5,-10"/>
<text text-anchor="start" x="1148.2258" y="-15.4" font-family="sans-serif" font-size="14.00" fill="#000000"> &#160;Exports</text>
<g id="clust1" class="cluster">
<title>cluster_DialogModule</title>
<polygon fill="none" stroke="#000000" stroke-dasharray="1,5" points="8,-70 8,-333 1925,-333 1925,-70 8,-70"/>
</g>
<g id="clust2" class="cluster">
<title>cluster_DialogModule_declarations</title>
<polygon fill="none" stroke="#000000" points="421,-143 421,-195 1905,-195 1905,-143 421,-143"/>
</g>
<g id="clust4" class="cluster">
<title>cluster_DialogModule_DialogDirective_providers</title>
<polygon fill="none" stroke="#000000" points="1733,-78 1733,-130 1881,-130 1881,-78 1733,-78"/>
</g>
<g id="clust15" class="cluster">
<title>cluster_DialogModule_imports</title>
<polygon fill="none" stroke="#000000" points="16,-143 16,-195 413,-195 413,-143 16,-143"/>
</g>
<g id="clust16" class="cluster">
<title>cluster_DialogModule_exports</title>
<polygon fill="none" stroke="#000000" points="235,-273 235,-325 1762,-325 1762,-273 235,-273"/>
</g>
<!-- Dialog -->
<g id="node1" class="node">
<title>Dialog</title>
<polygon fill="#ffffb3" stroke="#000000" points="1897.1025,-187 1842.8975,-187 1842.8975,-151 1897.1025,-151 1897.1025,-187"/>
<text text-anchor="middle" x="1870" y="-164.8" font-family="Times,serif" font-size="14.00" fill="#000000">Dialog</text>
</g>
<!-- DialogModule -->
<g id="node13" class="node">
<title>DialogModule</title>
<polygon fill="#8dd3c7" stroke="#000000" points="1048.6528,-252 1045.6528,-256 1024.6528,-256 1021.6528,-252 951.3472,-252 951.3472,-216 1048.6528,-216 1048.6528,-252"/>
<text text-anchor="middle" x="1000" y="-229.8" font-family="Times,serif" font-size="14.00" fill="#000000">DialogModule</text>
</g>
<!-- Dialog&#45;&gt;DialogModule -->
<g id="edge1" class="edge">
<title>Dialog&#45;&gt;DialogModule</title>
<path fill="none" stroke="#000000" d="M1870,-187.1061C1870,-206.3391 1870,-234 1870,-234 1870,-234 1058.953,-234 1058.953,-234"/>
<polygon fill="#000000" stroke="#000000" points="1058.953,-230.5001 1048.953,-234 1058.953,-237.5001 1058.953,-230.5001"/>
</g>
<!-- DialogDirective -->
<g id="node2" class="node">
<title>DialogDirective</title>
<polygon fill="#ffffb3" stroke="#000000" points="1825.1854,-187 1718.8146,-187 1718.8146,-151 1825.1854,-151 1825.1854,-187"/>
<text text-anchor="middle" x="1772" y="-164.8" font-family="Times,serif" font-size="14.00" fill="#000000">DialogDirective</text>
</g>
<!-- DialogDirective&#45;&gt;DialogModule -->
<g id="edge2" class="edge">
<title>DialogDirective&#45;&gt;DialogModule</title>
<path fill="none" stroke="#000000" d="M1736.3543,-187.2667C1736.3543,-205.5552 1736.3543,-231 1736.3543,-231 1736.3543,-231 1058.8845,-231 1058.8845,-231"/>
<polygon fill="#000000" stroke="#000000" points="1058.8846,-227.5001 1048.8845,-231 1058.8845,-234.5001 1058.8846,-227.5001"/>
</g>
<!-- DialogPlaceholder -->
<g id="node3" class="node">
<title>DialogPlaceholder</title>
<polygon fill="#ffffb3" stroke="#000000" points="1701.1853,-187 1580.8147,-187 1580.8147,-151 1701.1853,-151 1701.1853,-187"/>
<text text-anchor="middle" x="1641" y="-164.8" font-family="Times,serif" font-size="14.00" fill="#000000">DialogPlaceholder</text>
</g>
<!-- DialogPlaceholder&#45;&gt;DialogModule -->
<g id="edge4" class="edge">
<title>DialogPlaceholder&#45;&gt;DialogModule</title>
<path fill="none" stroke="#000000" d="M1629.375,-187.0225C1629.375,-204.3734 1629.375,-228 1629.375,-228 1629.375,-228 1058.8623,-228 1058.8623,-228"/>
<polygon fill="#000000" stroke="#000000" points="1058.8623,-224.5001 1048.8623,-228 1058.8623,-231.5001 1058.8623,-224.5001"/>
</g>
<!-- EllipsisTooltip -->
<g id="node4" class="node">
<title>EllipsisTooltip</title>
<polygon fill="#ffffb3" stroke="#000000" points="1562.7289,-187 1463.2711,-187 1463.2711,-151 1562.7289,-151 1562.7289,-187"/>
<text text-anchor="middle" x="1513" y="-164.8" font-family="Times,serif" font-size="14.00" fill="#000000">EllipsisTooltip</text>
</g>
<!-- EllipsisTooltip&#45;&gt;DialogModule -->
<g id="edge5" class="edge">
<title>EllipsisTooltip&#45;&gt;DialogModule</title>
<path fill="none" stroke="#000000" d="M1506.6141,-187.027C1506.6141,-203.3976 1506.6141,-225 1506.6141,-225 1506.6141,-225 1059.0366,-225 1059.0366,-225"/>
<polygon fill="#000000" stroke="#000000" points="1059.0366,-221.5001 1049.0366,-225 1059.0366,-228.5001 1059.0366,-221.5001"/>
</g>
<!-- OverflowMenu -->
<g id="node5" class="node">
<title>OverflowMenu</title>
<polygon fill="#ffffb3" stroke="#000000" points="1445.2992,-187 1342.7008,-187 1342.7008,-151 1445.2992,-151 1445.2992,-187"/>
<text text-anchor="middle" x="1394" y="-164.8" font-family="Times,serif" font-size="14.00" fill="#000000">OverflowMenu</text>
</g>
<!-- OverflowMenu&#45;&gt;DialogModule -->
<g id="edge6" class="edge">
<title>OverflowMenu&#45;&gt;DialogModule</title>
<path fill="none" stroke="#000000" d="M1375.6075,-187.2396C1375.6075,-202.5706 1375.6075,-222 1375.6075,-222 1375.6075,-222 1058.719,-222 1058.719,-222"/>
<polygon fill="#000000" stroke="#000000" points="1058.7191,-218.5001 1048.719,-222 1058.719,-225.5001 1058.7191,-218.5001"/>
</g>
<!-- OverflowMenuDirective -->
<g id="node6" class="node">
<title>OverflowMenuDirective</title>
<polygon fill="#ffffb3" stroke="#000000" points="1325.3821,-187 1170.6179,-187 1170.6179,-151 1325.3821,-151 1325.3821,-187"/>
<text text-anchor="middle" x="1248" y="-164.8" font-family="Times,serif" font-size="14.00" fill="#000000">OverflowMenuDirective</text>
</g>
<!-- OverflowMenuDirective&#45;&gt;DialogModule -->
<g id="edge7" class="edge">
<title>OverflowMenuDirective&#45;&gt;DialogModule</title>
<path fill="none" stroke="#000000" d="M1176.4549,-187.0511C1176.4549,-201.373 1176.4549,-219 1176.4549,-219 1176.4549,-219 1058.6842,-219 1058.6842,-219"/>
<polygon fill="#000000" stroke="#000000" points="1058.6842,-215.5001 1048.6842,-219 1058.6841,-222.5001 1058.6842,-215.5001"/>
</g>
<!-- OverflowMenuOption -->
<g id="node7" class="node">
<title>OverflowMenuOption</title>
<polygon fill="#ffffb3" stroke="#000000" points="1152.6867,-187 1011.3133,-187 1011.3133,-151 1152.6867,-151 1152.6867,-187"/>
<text text-anchor="middle" x="1082" y="-164.8" font-family="Times,serif" font-size="14.00" fill="#000000">OverflowMenuOption</text>
</g>
<!-- OverflowMenuOption&#45;&gt;DialogModule -->
<g id="edge8" class="edge">
<title>OverflowMenuOption&#45;&gt;DialogModule</title>
<path fill="none" stroke="#000000" d="M1030.1164,-187.1061C1030.1164,-187.1061 1030.1164,-205.991 1030.1164,-205.991"/>
<polygon fill="#000000" stroke="#000000" points="1026.6165,-205.9909 1030.1164,-215.991 1033.6165,-205.991 1026.6165,-205.9909"/>
</g>
<!-- OverflowMenuPane -->
<g id="node8" class="node">
<title>OverflowMenuPane</title>
<polygon fill="#ffffb3" stroke="#000000" points="993.5115,-187 864.4885,-187 864.4885,-151 993.5115,-151 993.5115,-187"/>
<text text-anchor="middle" x="929" y="-164.8" font-family="Times,serif" font-size="14.00" fill="#000000">OverflowMenuPane</text>
</g>
<!-- OverflowMenuPane&#45;&gt;DialogModule -->
<g id="edge9" class="edge">
<title>OverflowMenuPane&#45;&gt;DialogModule</title>
<path fill="none" stroke="#000000" d="M972.4646,-187.1061C972.4646,-187.1061 972.4646,-205.991 972.4646,-205.991"/>
<polygon fill="#000000" stroke="#000000" points="968.9647,-205.9909 972.4646,-215.991 975.9647,-205.991 968.9647,-205.9909"/>
</g>
<!-- Tooltip -->
<g id="node9" class="node">
<title>Tooltip</title>
<polygon fill="#ffffb3" stroke="#000000" points="846.7248,-187 789.2752,-187 789.2752,-151 846.7248,-151 846.7248,-187"/>
<text text-anchor="middle" x="818" y="-164.8" font-family="Times,serif" font-size="14.00" fill="#000000">Tooltip</text>
</g>
<!-- Tooltip&#45;&gt;DialogModule -->
<g id="edge10" class="edge">
<title>Tooltip&#45;&gt;DialogModule</title>
<path fill="none" stroke="#000000" d="M834.581,-187.0511C834.581,-201.373 834.581,-219 834.581,-219 834.581,-219 941.2635,-219 941.2635,-219"/>
<polygon fill="#000000" stroke="#000000" points="941.2636,-222.5001 951.2635,-219 941.2635,-215.5001 941.2636,-222.5001"/>
</g>
<!-- TooltipDefinition -->
<g id="node10" class="node">
<title>TooltipDefinition</title>
<polygon fill="#ffffb3" stroke="#000000" points="771.2688,-187 656.7312,-187 656.7312,-151 771.2688,-151 771.2688,-187"/>
<text text-anchor="middle" x="714" y="-164.8" font-family="Times,serif" font-size="14.00" fill="#000000">TooltipDefinition</text>
</g>
<!-- TooltipDefinition&#45;&gt;DialogModule -->
<g id="edge11" class="edge">
<title>TooltipDefinition&#45;&gt;DialogModule</title>
<path fill="none" stroke="#000000" d="M731.9395,-187.2396C731.9395,-202.5706 731.9395,-222 731.9395,-222 731.9395,-222 941.1453,-222 941.1453,-222"/>
<polygon fill="#000000" stroke="#000000" points="941.1453,-225.5001 951.1453,-222 941.1452,-218.5001 941.1453,-225.5001"/>
</g>
<!-- TooltipDirective -->
<g id="node11" class="node">
<title>TooltipDirective</title>
<polygon fill="#ffffb3" stroke="#000000" points="638.8076,-187 529.1924,-187 529.1924,-151 638.8076,-151 638.8076,-187"/>
<text text-anchor="middle" x="584" y="-164.8" font-family="Times,serif" font-size="14.00" fill="#000000">TooltipDirective</text>
</g>
<!-- TooltipDirective&#45;&gt;DialogModule -->
<g id="edge12" class="edge">
<title>TooltipDirective&#45;&gt;DialogModule</title>
<path fill="none" stroke="#000000" d="M626.1457,-187.027C626.1457,-203.3976 626.1457,-225 626.1457,-225 626.1457,-225 941.1251,-225 941.1251,-225"/>
<polygon fill="#000000" stroke="#000000" points="941.1251,-228.5001 951.1251,-225 941.125,-221.5001 941.1251,-228.5001"/>
</g>
<!-- TooltipIcon -->
<g id="node12" class="node">
<title>TooltipIcon</title>
<polygon fill="#ffffb3" stroke="#000000" points="511.0997,-187 428.9003,-187 428.9003,-151 511.0997,-151 511.0997,-187"/>
<text text-anchor="middle" x="470" y="-164.8" font-family="Times,serif" font-size="14.00" fill="#000000">TooltipIcon</text>
</g>
<!-- TooltipIcon&#45;&gt;DialogModule -->
<g id="edge13" class="edge">
<title>TooltipIcon&#45;&gt;DialogModule</title>
<path fill="none" stroke="#000000" d="M494.4578,-187.0225C494.4578,-204.3734 494.4578,-228 494.4578,-228 494.4578,-228 941.0671,-228 941.0671,-228"/>
<polygon fill="#000000" stroke="#000000" points="941.0672,-231.5001 951.0671,-228 941.0671,-224.5001 941.0672,-231.5001"/>
</g>
<!-- Dialog  -->
<g id="node18" class="node">
<title>Dialog </title>
<polygon fill="#fb8072" stroke="#000000" points="1753.6038,-317 1696.3962,-317 1696.3962,-281 1753.6038,-281 1753.6038,-317"/>
<text text-anchor="middle" x="1725" y="-294.8" font-family="Times,serif" font-size="14.00" fill="#000000">Dialog </text>
</g>
<!-- DialogModule&#45;&gt;Dialog  -->
<g id="edge17" class="edge">
<title>DialogModule&#45;&gt;Dialog </title>
<path fill="none" stroke="#000000" stroke-dasharray="5,2" d="M1048.8012,-237C1209.2104,-237 1710,-237 1710,-237 1710,-237 1710,-270.7333 1710,-270.7333"/>
<polygon fill="#000000" stroke="#000000" points="1706.5001,-270.7333 1710,-280.7333 1713.5001,-270.7333 1706.5001,-270.7333"/>
</g>
<!-- DialogDirective  -->
<g id="node19" class="node">
<title>DialogDirective </title>
<polygon fill="#fb8072" stroke="#000000" points="1677.6857,-317 1568.3143,-317 1568.3143,-281 1677.6857,-281 1677.6857,-317"/>
<text text-anchor="middle" x="1623" y="-294.8" font-family="Times,serif" font-size="14.00" fill="#000000">DialogDirective </text>
</g>
<!-- DialogModule&#45;&gt;DialogDirective  -->
<g id="edge18" class="edge">
<title>DialogModule&#45;&gt;DialogDirective </title>
<path fill="none" stroke="#000000" stroke-dasharray="5,2" d="M1048.9843,-240C1187.9223,-240 1574.5324,-240 1574.5324,-240 1574.5324,-240 1574.5324,-270.9775 1574.5324,-270.9775"/>
<polygon fill="#000000" stroke="#000000" points="1571.0325,-270.9774 1574.5324,-280.9775 1578.0325,-270.9775 1571.0325,-270.9774"/>
</g>
<!-- DialogPlaceholder  -->
<g id="node20" class="node">
<title>DialogPlaceholder </title>
<polygon fill="#fb8072" stroke="#000000" points="1549.6856,-317 1426.3144,-317 1426.3144,-281 1549.6856,-281 1549.6856,-317"/>
<text text-anchor="middle" x="1488" y="-294.8" font-family="Times,serif" font-size="14.00" fill="#000000">DialogPlaceholder </text>
</g>
<!-- DialogModule&#45;&gt;DialogPlaceholder  -->
<g id="edge19" class="edge">
<title>DialogModule&#45;&gt;DialogPlaceholder </title>
<path fill="none" stroke="#000000" stroke-dasharray="5,2" d="M1048.7069,-243C1162.3891,-243 1435.6534,-243 1435.6534,-243 1435.6534,-243 1435.6534,-270.973 1435.6534,-270.973"/>
<polygon fill="#000000" stroke="#000000" points="1432.1535,-270.973 1435.6534,-280.973 1439.1535,-270.973 1432.1535,-270.973"/>
</g>
<!-- EllipsisTooltip  -->
<g id="node21" class="node">
<title>EllipsisTooltip </title>
<polygon fill="#fb8072" stroke="#000000" points="1408.229,-317 1305.771,-317 1305.771,-281 1408.229,-281 1408.229,-317"/>
<text text-anchor="middle" x="1357" y="-294.8" font-family="Times,serif" font-size="14.00" fill="#000000">EllipsisTooltip </text>
</g>
<!-- DialogModule&#45;&gt;EllipsisTooltip  -->
<g id="edge20" class="edge">
<title>DialogModule&#45;&gt;EllipsisTooltip </title>
<path fill="none" stroke="#000000" stroke-dasharray="5,2" d="M1048.9372,-246C1137.531,-246 1315.4133,-246 1315.4133,-246 1315.4133,-246 1315.4133,-270.7604 1315.4133,-270.7604"/>
<polygon fill="#000000" stroke="#000000" points="1311.9133,-270.7604 1315.4133,-280.7604 1318.9133,-270.7604 1311.9133,-270.7604"/>
</g>
<!-- OverflowMenu  -->
<g id="node22" class="node">
<title>OverflowMenu </title>
<polygon fill="#fb8072" stroke="#000000" points="1287.799,-317 1182.201,-317 1182.201,-281 1287.799,-281 1287.799,-317"/>
<text text-anchor="middle" x="1235" y="-294.8" font-family="Times,serif" font-size="14.00" fill="#000000">OverflowMenu </text>
</g>
<!-- DialogModule&#45;&gt;OverflowMenu  -->
<g id="edge21" class="edge">
<title>DialogModule&#45;&gt;OverflowMenu </title>
<path fill="none" stroke="#000000" stroke-dasharray="5,2" d="M1048.6922,-249C1117.5251,-249 1235,-249 1235,-249 1235,-249 1235,-270.9489 1235,-270.9489"/>
<polygon fill="#000000" stroke="#000000" points="1231.5001,-270.9488 1235,-280.9489 1238.5001,-270.9489 1231.5001,-270.9488"/>
</g>
<!-- OverflowMenuDirective  -->
<g id="node23" class="node">
<title>OverflowMenuDirective </title>
<polygon fill="#fb8072" stroke="#000000" points="1163.8816,-317 1006.1184,-317 1006.1184,-281 1163.8816,-281 1163.8816,-317"/>
<text text-anchor="middle" x="1085" y="-294.8" font-family="Times,serif" font-size="14.00" fill="#000000">OverflowMenuDirective </text>
</g>
<!-- DialogModule&#45;&gt;OverflowMenuDirective  -->
<g id="edge22" class="edge">
<title>DialogModule&#45;&gt;OverflowMenuDirective </title>
<path fill="none" stroke="#000000" stroke-dasharray="5,2" d="M1027.4427,-252.1061C1027.4427,-252.1061 1027.4427,-270.991 1027.4427,-270.991"/>
<polygon fill="#000000" stroke="#000000" points="1023.9427,-270.9909 1027.4427,-280.991 1030.9427,-270.991 1023.9427,-270.9909"/>
</g>
<!-- OverflowMenuOption  -->
<g id="node24" class="node">
<title>OverflowMenuOption </title>
<polygon fill="#fb8072" stroke="#000000" points="988.1869,-317 843.8131,-317 843.8131,-281 988.1869,-281 988.1869,-317"/>
<text text-anchor="middle" x="916" y="-294.8" font-family="Times,serif" font-size="14.00" fill="#000000">OverflowMenuOption </text>
</g>
<!-- DialogModule&#45;&gt;OverflowMenuOption  -->
<g id="edge23" class="edge">
<title>DialogModule&#45;&gt;OverflowMenuOption </title>
<path fill="none" stroke="#000000" stroke-dasharray="5,2" d="M969.7586,-252.1061C969.7586,-252.1061 969.7586,-270.991 969.7586,-270.991"/>
<polygon fill="#000000" stroke="#000000" points="966.2587,-270.9909 969.7586,-280.991 973.2587,-270.991 966.2587,-270.9909"/>
</g>
<!-- OverflowMenuPane  -->
<g id="node25" class="node">
<title>OverflowMenuPane </title>
<polygon fill="#fb8072" stroke="#000000" points="825.5106,-317 692.4894,-317 692.4894,-281 825.5106,-281 825.5106,-317"/>
<text text-anchor="middle" x="759" y="-294.8" font-family="Times,serif" font-size="14.00" fill="#000000">OverflowMenuPane </text>
</g>
<!-- DialogModule&#45;&gt;OverflowMenuPane  -->
<g id="edge24" class="edge">
<title>DialogModule&#45;&gt;OverflowMenuPane </title>
<path fill="none" stroke="#000000" stroke-dasharray="5,2" d="M950.9124,-250C893.8636,-250 807.4466,-250 807.4466,-250 807.4466,-250 807.4466,-270.7542 807.4466,-270.7542"/>
<polygon fill="#000000" stroke="#000000" points="803.9466,-270.7542 807.4466,-280.7542 810.9466,-270.7542 803.9466,-270.7542"/>
</g>
<!-- Tooltip  -->
<g id="node26" class="node">
<title>Tooltip </title>
<polygon fill="#fb8072" stroke="#000000" points="674.225,-317 613.775,-317 613.775,-281 674.225,-281 674.225,-317"/>
<text text-anchor="middle" x="644" y="-294.8" font-family="Times,serif" font-size="14.00" fill="#000000">Tooltip </text>
</g>
<!-- DialogModule&#45;&gt;Tooltip  -->
<g id="edge25" class="edge">
<title>DialogModule&#45;&gt;Tooltip </title>
<path fill="none" stroke="#000000" stroke-dasharray="5,2" d="M951.001,-247C858.0873,-247 665.489,-247 665.489,-247 665.489,-247 665.489,-270.8129 665.489,-270.8129"/>
<polygon fill="#000000" stroke="#000000" points="661.989,-270.8129 665.489,-280.8129 668.989,-270.813 661.989,-270.8129"/>
</g>
<!-- TooltipDefinition  -->
<g id="node27" class="node">
<title>TooltipDefinition </title>
<polygon fill="#fb8072" stroke="#000000" points="596.2689,-317 477.7311,-317 477.7311,-281 596.2689,-281 596.2689,-317"/>
<text text-anchor="middle" x="537" y="-294.8" font-family="Times,serif" font-size="14.00" fill="#000000">TooltipDefinition </text>
</g>
<!-- DialogModule&#45;&gt;TooltipDefinition  -->
<g id="edge26" class="edge">
<title>DialogModule&#45;&gt;TooltipDefinition </title>
<path fill="none" stroke="#000000" stroke-dasharray="5,2" d="M951.1135,-244C837.0122,-244 562.7404,-244 562.7404,-244 562.7404,-244 562.7404,-270.9909 562.7404,-270.9909"/>
<polygon fill="#000000" stroke="#000000" points="559.2404,-270.9909 562.7404,-280.9909 566.2404,-270.991 559.2404,-270.9909"/>
</g>
<!-- TooltipDirective  -->
<g id="node28" class="node">
<title>TooltipDirective </title>
<polygon fill="#fb8072" stroke="#000000" points="459.3074,-317 346.6926,-317 346.6926,-281 459.3074,-281 459.3074,-317"/>
<text text-anchor="middle" x="403" y="-294.8" font-family="Times,serif" font-size="14.00" fill="#000000">TooltipDirective </text>
</g>
<!-- DialogModule&#45;&gt;TooltipDirective  -->
<g id="edge27" class="edge">
<title>DialogModule&#45;&gt;TooltipDirective </title>
<path fill="none" stroke="#000000" stroke-dasharray="5,2" d="M951.1615,-241C815.5305,-241 444.1769,-241 444.1769,-241 444.1769,-241 444.1769,-270.9664 444.1769,-270.9664"/>
<polygon fill="#000000" stroke="#000000" points="440.6768,-270.9664 444.1769,-280.9664 447.6768,-270.9663 440.6768,-270.9664"/>
</g>
<!-- TooltipIcon  -->
<g id="node29" class="node">
<title>TooltipIcon </title>
<polygon fill="#fb8072" stroke="#000000" points="328.6005,-317 243.3995,-317 243.3995,-281 328.6005,-281 328.6005,-317"/>
<text text-anchor="middle" x="286" y="-294.8" font-family="Times,serif" font-size="14.00" fill="#000000">TooltipIcon </text>
</g>
<!-- DialogModule&#45;&gt;TooltipIcon  -->
<g id="edge28" class="edge">
<title>DialogModule&#45;&gt;TooltipIcon </title>
<path fill="none" stroke="#000000" stroke-dasharray="5,2" d="M951.3093,-239C792.4873,-239 299.6576,-239 299.6576,-239 299.6576,-239 299.6576,-270.998 299.6576,-270.998"/>
<polygon fill="#000000" stroke="#000000" points="296.1577,-270.998 299.6576,-280.998 303.1577,-270.9981 296.1577,-270.998"/>
</g>
<!-- DialogService -->
<g id="node14" class="node">
<title>DialogService</title>
<ellipse fill="#fdb462" stroke="#000000" cx="1807" cy="-104" rx="66.0492" ry="18"/>
<text text-anchor="middle" x="1807" y="-99.8" font-family="Times,serif" font-size="14.00" fill="#000000">DialogService</text>
</g>
<!-- DialogService&#45;&gt;DialogDirective -->
<g id="edge3" class="edge">
<title>DialogService&#45;&gt;DialogDirective</title>
<path fill="none" stroke="#000000" d="M1782.9092,-121.078C1782.9092,-121.078 1782.9092,-140.8993 1782.9092,-140.8993"/>
<polygon fill="#000000" stroke="#000000" points="1779.4093,-140.8992 1782.9092,-150.8993 1786.4093,-140.8993 1779.4093,-140.8992"/>
</g>
<!-- DialogService&#45;&gt;DialogModule -->
<g id="edge29" class="edge">
<title>DialogService&#45;&gt;DialogModule</title>
<path fill="none" stroke="#000000" d="M1740.4866,-104C1547.758,-104 1002.581,-104 1002.581,-104 1002.581,-104 1002.581,-205.9241 1002.581,-205.9241"/>
<polygon fill="#000000" stroke="#000000" points="999.0811,-205.924 1002.581,-215.9241 1006.0811,-205.9241 999.0811,-205.924"/>
</g>
<!-- ExperimentalModule -->
<g id="node15" class="node">
<title>ExperimentalModule</title>
<polygon fill="#8dd3c7" stroke="#000000" points="405.4692,-187 402.4692,-191 381.4692,-191 378.4692,-187 270.5308,-187 270.5308,-151 405.4692,-151 405.4692,-187"/>
<text text-anchor="middle" x="338" y="-164.8" font-family="Times,serif" font-size="14.00" fill="#000000">ExperimentalModule</text>
</g>
<!-- ExperimentalModule&#45;&gt;DialogModule -->
<g id="edge14" class="edge">
<title>ExperimentalModule&#45;&gt;DialogModule</title>
<path fill="none" stroke="#000000" d="M376.0405,-187.302C376.0405,-205.2699 376.0405,-230 376.0405,-230 376.0405,-230 941.2988,-230 941.2988,-230"/>
<polygon fill="#000000" stroke="#000000" points="941.2989,-233.5001 951.2988,-230 941.2988,-226.5001 941.2989,-233.5001"/>
</g>
<!-- I18nModule -->
<g id="node16" class="node">
<title>I18nModule</title>
<polygon fill="#8dd3c7" stroke="#000000" points="252.7107,-187 249.7107,-191 228.7107,-191 225.7107,-187 167.2893,-187 167.2893,-151 252.7107,-151 252.7107,-187"/>
<text text-anchor="middle" x="210" y="-164.8" font-family="Times,serif" font-size="14.00" fill="#000000">I18nModule</text>
</g>
<!-- I18nModule&#45;&gt;DialogModule -->
<g id="edge15" class="edge">
<title>I18nModule&#45;&gt;DialogModule</title>
<path fill="none" stroke="#000000" d="M247.9027,-187.1686C247.9027,-206.0898 247.9027,-233 247.9027,-233 247.9027,-233 941.2323,-233 941.2323,-233"/>
<polygon fill="#000000" stroke="#000000" points="941.2323,-236.5001 951.2323,-233 941.2323,-229.5001 941.2323,-236.5001"/>
</g>
<!-- PlaceholderModule -->
<g id="node17" class="node">
<title>PlaceholderModule</title>
<polygon fill="#8dd3c7" stroke="#000000" points="149.6331,-187 146.6331,-191 125.6331,-191 122.6331,-187 24.3669,-187 24.3669,-151 149.6331,-151 149.6331,-187"/>
<text text-anchor="middle" x="87" y="-164.8" font-family="Times,serif" font-size="14.00" fill="#000000">PlaceholderModule</text>
</g>
<!-- PlaceholderModule&#45;&gt;DialogModule -->
<g id="edge16" class="edge">
<title>PlaceholderModule&#45;&gt;DialogModule</title>
<path fill="none" stroke="#000000" d="M87,-187.308C87,-207.1455 87,-236 87,-236 87,-236 941.2359,-236 941.2359,-236"/>
<polygon fill="#000000" stroke="#000000" points="941.236,-239.5001 951.2359,-236 941.2359,-232.5001 941.236,-239.5001"/>
</g>
</g>
</svg>
