<?xml version="1.0" encoding="UTF-8" standalone="no"?>
<!DOCTYPE svg PUBLIC "-//W3C//DTD SVG 1.1//EN"
 "http://www.w3.org/Graphics/SVG/1.1/DTD/svg11.dtd">
<!-- Generated by graphviz version 2.40.1 (20161225.0304)
 -->
<!-- Title: dependencies Pages: 1 -->
<svg width="504pt" height="284pt"
 viewBox="0.00 0.00 504.00 284.00" xmlns="http://www.w3.org/2000/svg" xmlns:xlink="http://www.w3.org/1999/xlink">
<g id="graph0" class="graph" transform="scale(1 1) rotate(0) translate(4 280)">
<title>dependencies</title>
<polygon fill="#ffffff" stroke="transparent" points="-4,4 -4,-280 500,-280 500,4 -4,4"/>
<text text-anchor="start" x="227.0091" y="-42.4" font-family="sans-serif" font-weight="bold" font-size="14.00" fill="#000000">Legend</text>
<polygon fill="#ffffb3" stroke="transparent" points="14,-10 14,-30 34,-30 34,-10 14,-10"/>
<text text-anchor="start" x="37.629" y="-15.4" font-family="sans-serif" font-size="14.00" fill="#000000"> &#160;Declarations</text>
<polygon fill="#8dd3c7" stroke="transparent" points="127,-10 127,-30 147,-30 147,-10 127,-10"/>
<text text-anchor="start" x="150.7251" y="-15.4" font-family="sans-serif" font-size="14.00" fill="#000000"> &#160;Module</text>
<polygon fill="#80b1d3" stroke="transparent" points="213,-10 213,-30 233,-30 233,-10 213,-10"/>
<text text-anchor="start" x="236.7812" y="-15.4" font-family="sans-serif" font-size="14.00" fill="#000000"> &#160;Bootstrap</text>
<polygon fill="#fdb462" stroke="transparent" points="310,-10 310,-30 330,-30 330,-10 310,-10"/>
<text text-anchor="start" x="333.6732" y="-15.4" font-family="sans-serif" font-size="14.00" fill="#000000"> &#160;Providers</text>
<polygon fill="#fb8072" stroke="transparent" points="406,-10 406,-30 426,-30 426,-10 406,-10"/>
<text text-anchor="start" x="429.7258" y="-15.4" font-family="sans-serif" font-size="14.00" fill="#000000"> &#160;Exports</text>
<g id="clust1" class="cluster">
<title>cluster_BreadcrumbModule</title>
<polygon fill="none" stroke="#000000" stroke-dasharray="1,5" points="31,-70 31,-268 465,-268 465,-70 31,-70"/>
</g>
<g id="clust2" class="cluster">
<title>cluster_BreadcrumbModule_declarations</title>
<polygon fill="none" stroke="#000000" points="161,-78 161,-130 457,-130 457,-78 161,-78"/>
</g>
<g id="clust5" class="cluster">
<title>cluster_BreadcrumbModule_imports</title>
<polygon fill="none" stroke="#000000" points="39,-78 39,-130 153,-130 153,-78 39,-78"/>
</g>
<g id="clust6" class="cluster">
<title>cluster_BreadcrumbModule_exports</title>
<polygon fill="none" stroke="#000000" points="97,-208 97,-260 399,-260 399,-208 97,-208"/>
</g>
<!-- Breadcrumb -->
<g id="node1" class="node">
<title>Breadcrumb</title>
<polygon fill="#ffffb3" stroke="#000000" points="448.6924,-122 363.3076,-122 363.3076,-86 448.6924,-86 448.6924,-122"/>
<text text-anchor="middle" x="406" y="-99.8" font-family="Times,serif" font-size="14.00" fill="#000000">Breadcrumb</text>
</g>
<!-- BreadcrumbModule -->
<g id="node3" class="node">
<title>BreadcrumbModule</title>
<polygon fill="#8dd3c7" stroke="#000000" points="321.2423,-187 318.2423,-191 297.2423,-191 294.2423,-187 192.7577,-187 192.7577,-151 321.2423,-151 321.2423,-187"/>
<text text-anchor="middle" x="257" y="-164.8" font-family="Times,serif" font-size="14.00" fill="#000000">BreadcrumbModule</text>
</g>
<!-- Breadcrumb&#45;&gt;BreadcrumbModule -->
<g id="edge1" class="edge">
<title>Breadcrumb&#45;&gt;BreadcrumbModule</title>
<path fill="none" stroke="#000000" d="M377.375,-122.1061C377.375,-141.3391 377.375,-169 377.375,-169 377.375,-169 331.4163,-169 331.4163,-169"/>
<polygon fill="#000000" stroke="#000000" points="331.4164,-165.5001 321.4163,-169 331.4163,-172.5001 331.4164,-165.5001"/>
</g>
<!-- BreadcrumbItemComponent -->
<g id="node2" class="node">
<title>BreadcrumbItemComponent</title>
<polygon fill="#ffffb3" stroke="#000000" points="345.1811,-122 168.8189,-122 168.8189,-86 345.1811,-86 345.1811,-122"/>
<text text-anchor="middle" x="257" y="-99.8" font-family="Times,serif" font-size="14.00" fill="#000000">BreadcrumbItemComponent</text>
</g>
<!-- BreadcrumbItemComponent&#45;&gt;BreadcrumbModule -->
<g id="edge2" class="edge">
<title>BreadcrumbItemComponent&#45;&gt;BreadcrumbModule</title>
<path fill="none" stroke="#000000" d="M257,-122.1061C257,-122.1061 257,-140.991 257,-140.991"/>
<polygon fill="#000000" stroke="#000000" points="253.5001,-140.9909 257,-150.991 260.5001,-140.991 253.5001,-140.9909"/>
</g>
<!-- Breadcrumb  -->
<g id="node5" class="node">
<title>Breadcrumb </title>
<polygon fill="#fb8072" stroke="#000000" points="391.1927,-252 302.8073,-252 302.8073,-216 391.1927,-216 391.1927,-252"/>
<text text-anchor="middle" x="347" y="-229.8" font-family="Times,serif" font-size="14.00" fill="#000000">Breadcrumb </text>
</g>
<!-- BreadcrumbModule&#45;&gt;Breadcrumb  -->
<g id="edge4" class="edge">
<title>BreadcrumbModule&#45;&gt;Breadcrumb </title>
<path fill="none" stroke="#000000" stroke-dasharray="5,2" d="M312.0125,-187.1061C312.0125,-187.1061 312.0125,-205.991 312.0125,-205.991"/>
<polygon fill="#000000" stroke="#000000" points="308.5125,-205.9909 312.0125,-215.991 315.5125,-205.991 308.5125,-205.9909"/>
</g>
<!-- BreadcrumbItemComponent  -->
<g id="node6" class="node">
<title>BreadcrumbItemComponent </title>
<polygon fill="#fb8072" stroke="#000000" points="284.6813,-252 105.3187,-252 105.3187,-216 284.6813,-216 284.6813,-252"/>
<text text-anchor="middle" x="195" y="-229.8" font-family="Times,serif" font-size="14.00" fill="#000000">BreadcrumbItemComponent </text>
</g>
<!-- BreadcrumbModule&#45;&gt;BreadcrumbItemComponent  -->
<g id="edge5" class="edge">
<title>BreadcrumbModule&#45;&gt;BreadcrumbItemComponent </title>
<path fill="none" stroke="#000000" stroke-dasharray="5,2" d="M238.7348,-187.1061C238.7348,-187.1061 238.7348,-205.991 238.7348,-205.991"/>
<polygon fill="#000000" stroke="#000000" points="235.2348,-205.9909 238.7348,-215.991 242.2348,-205.991 235.2348,-205.9909"/>
</g>
<!-- DialogModule -->
<g id="node4" class="node">
<title>DialogModule</title>
<polygon fill="#8dd3c7" stroke="#000000" points="144.6528,-122 141.6528,-126 120.6528,-126 117.6528,-122 47.3472,-122 47.3472,-86 144.6528,-86 144.6528,-122"/>
<text text-anchor="middle" x="96" y="-99.8" font-family="Times,serif" font-size="14.00" fill="#000000">DialogModule</text>
</g>
<!-- DialogModule&#45;&gt;BreadcrumbModule -->
<g id="edge3" class="edge">
<title>DialogModule&#45;&gt;BreadcrumbModule</title>
<path fill="none" stroke="#000000" d="M124.9928,-122.1061C124.9928,-141.3391 124.9928,-169 124.9928,-169 124.9928,-169 182.5432,-169 182.5432,-169"/>
<polygon fill="#000000" stroke="#000000" points="182.5433,-172.5001 192.5432,-169 182.5432,-165.5001 182.5433,-172.5001"/>
</g>
</g>
</svg>
