<?xml version="1.0" encoding="UTF-8" standalone="no"?>
<!DOCTYPE svg PUBLIC "-//W3C//DTD SVG 1.1//EN"
 "http://www.w3.org/Graphics/SVG/1.1/DTD/svg11.dtd">
<!-- Generated by graphviz version 2.47.0 (20210316.0004)
 -->
<!-- Title: dependencies Pages: 1 -->
<svg width="504pt" height="284pt"
 viewBox="0.00 0.00 504.00 284.00" xmlns="http://www.w3.org/2000/svg" xmlns:xlink="http://www.w3.org/1999/xlink">
<g id="graph0" class="graph" transform="scale(1 1) rotate(0) translate(4 280)">
<title>dependencies</title>
<polygon fill="white" stroke="transparent" points="-4,4 -4,-280 500,-280 500,4 -4,4"/>
<text text-anchor="start" x="227.01" y="-42.4" font-family="Times-12" font-weight="bold" font-size="14.00">Legend</text>
<polygon fill="#ffffb3" stroke="transparent" points="14,-10 14,-30 34,-30 34,-10 14,-10"/>
<text text-anchor="start" x="37.63" y="-15.4" font-family="Times-12" font-size="14.00"> &#160;Declarations</text>
<polygon fill="#8dd3c7" stroke="transparent" points="127,-10 127,-30 147,-30 147,-10 127,-10"/>
<text text-anchor="start" x="150.73" y="-15.4" font-family="Times-12" font-size="14.00"> &#160;Module</text>
<polygon fill="#80b1d3" stroke="transparent" points="213,-10 213,-30 233,-30 233,-10 213,-10"/>
<text text-anchor="start" x="236.78" y="-15.4" font-family="Times-12" font-size="14.00"> &#160;Bootstrap</text>
<polygon fill="#fdb462" stroke="transparent" points="310,-10 310,-30 330,-30 330,-10 310,-10"/>
<text text-anchor="start" x="333.67" y="-15.4" font-family="Times-12" font-size="14.00"> &#160;Providers</text>
<polygon fill="#fb8072" stroke="transparent" points="406,-10 406,-30 426,-30 426,-10 406,-10"/>
<text text-anchor="start" x="429.73" y="-15.4" font-family="Times-12" font-size="14.00"> &#160;Exports</text>
<g id="clust1" class="cluster">
<title>cluster_NumberModule</title>
<polygon fill="none" stroke="black" stroke-dasharray="1,5" points="95,-70 95,-268 401,-268 401,-70 95,-70"/>
</g>
<g id="clust4" class="cluster">
<title>cluster_NumberModule_imports</title>
<polygon fill="none" stroke="black" points="189,-78 189,-130 393,-130 393,-78 189,-78"/>
</g>
<g id="clust5" class="cluster">
<title>cluster_NumberModule_exports</title>
<polygon fill="none" stroke="black" points="198,-208 198,-260 280,-260 280,-208 198,-208"/>
</g>
<g id="clust2" class="cluster">
<title>cluster_NumberModule_declarations</title>
<polygon fill="none" stroke="black" points="103,-78 103,-130 181,-130 181,-78 103,-78"/>
</g>
<!-- Number -->
<g id="node1" class="node">
<title>Number</title>
<polygon fill="#ffffb3" stroke="black" points="172.87,-122 111.13,-122 111.13,-86 172.87,-86 172.87,-122"/>
<text text-anchor="middle" x="142" y="-99.8" font-family="Times,serif" font-size="14.00">Number</text>
</g>
<!-- NumberModule -->
<g id="node2" class="node">
<title>NumberModule</title>
<polygon fill="#8dd3c7" stroke="black" points="291.92,-187 288.92,-191 267.92,-191 264.92,-187 186.08,-187 186.08,-151 291.92,-151 291.92,-187"/>
<text text-anchor="middle" x="239" y="-164.8" font-family="Times,serif" font-size="14.00">NumberModule</text>
</g>
<!-- Number&#45;&gt;NumberModule -->
<g id="edge1" class="edge">
<title>Number&#45;&gt;NumberModule</title>
<path fill="none" stroke="black" d="M173.09,-104C183.04,-104 191.54,-104 191.54,-104 191.54,-104 191.54,-140.89 191.54,-140.89"/>
<polygon fill="black" stroke="black" points="188.04,-140.89 191.54,-150.89 195.04,-140.89 188.04,-140.89"/>
</g>
<!-- Number  -->
<g id="node5" class="node">
<title>Number </title>
<polygon fill="#fb8072" stroke="black" points="271.87,-252 206.13,-252 206.13,-216 271.87,-216 271.87,-252"/>
<text text-anchor="middle" x="239" y="-229.8" font-family="Times,serif" font-size="14.00">Number </text>
</g>
<!-- NumberModule&#45;&gt;Number  -->
<g id="edge4" class="edge">
<title>NumberModule&#45;&gt;Number </title>
<path fill="none" stroke="black" stroke-dasharray="5,2" d="M239,-187.11C239,-187.11 239,-205.99 239,-205.99"/>
<polygon fill="black" stroke="black" points="235.5,-205.99 239,-215.99 242.5,-205.99 235.5,-205.99"/>
</g>
<!-- I18nModule -->
<g id="node3" class="node">
<title>I18nModule</title>
<polygon fill="#8dd3c7" stroke="black" points="384.71,-122 381.71,-126 360.71,-126 357.71,-122 299.29,-122 299.29,-86 384.71,-86 384.71,-122"/>
<text text-anchor="middle" x="342" y="-99.8" font-family="Times,serif" font-size="14.00">I18nModule</text>
</g>
<!-- I18nModule&#45;&gt;NumberModule -->
<g id="edge2" class="edge">
<title>I18nModule&#45;&gt;NumberModule</title>
<path fill="none" stroke="black" d="M299.34,-104C291.89,-104 286.46,-104 286.46,-104 286.46,-104 286.46,-140.89 286.46,-140.89"/>
<polygon fill="black" stroke="black" points="282.96,-140.89 286.46,-150.89 289.96,-140.89 282.96,-140.89"/>
</g>
<!-- IconModule -->
<g id="node4" class="node">
<title>IconModule</title>
<polygon fill="#8dd3c7" stroke="black" points="281.43,-122 278.43,-126 257.43,-126 254.43,-122 196.57,-122 196.57,-86 281.43,-86 281.43,-122"/>
<text text-anchor="middle" x="239" y="-99.8" font-family="Times,serif" font-size="14.00">IconModule</text>
</g>
<!-- IconModule&#45;&gt;NumberModule -->
<g id="edge3" class="edge">
<title>IconModule&#45;&gt;NumberModule</title>
<path fill="none" stroke="black" d="M239,-122.11C239,-122.11 239,-140.99 239,-140.99"/>
<polygon fill="black" stroke="black" points="235.5,-140.99 239,-150.99 242.5,-140.99 235.5,-140.99"/>
</g>
</g>
</svg>
