<?xml version="1.0" encoding="UTF-8" standalone="no"?>
<!DOCTYPE svg PUBLIC "-//W3C//DTD SVG 1.1//EN"
 "http://www.w3.org/Graphics/SVG/1.1/DTD/svg11.dtd">
<!-- Generated by graphviz version 2.47.0 (20210316.0004)
 -->
<!-- Title: dependencies Pages: 1 -->
<svg width="734pt" height="396pt"
 viewBox="0.00 0.00 734.00 395.59" xmlns="http://www.w3.org/2000/svg" xmlns:xlink="http://www.w3.org/1999/xlink">
<g id="graph0" class="graph" transform="scale(1 1) rotate(0) translate(4 391.59)">
<title>dependencies</title>
<polygon fill="white" stroke="transparent" points="-4,4 -4,-391.59 730,-391.59 730,4 -4,4"/>
<text text-anchor="start" x="342.01" y="-42.4" font-family="Times-12" font-weight="bold" font-size="14.00">Legend</text>
<polygon fill="#ffffb3" stroke="transparent" points="129,-10 129,-30 149,-30 149,-10 129,-10"/>
<text text-anchor="start" x="152.63" y="-15.4" font-family="Times-12" font-size="14.00"> &#160;Declarations</text>
<polygon fill="#8dd3c7" stroke="transparent" points="242,-10 242,-30 262,-30 262,-10 242,-10"/>
<text text-anchor="start" x="265.73" y="-15.4" font-family="Times-12" font-size="14.00"> &#160;Module</text>
<polygon fill="#80b1d3" stroke="transparent" points="328,-10 328,-30 348,-30 348,-10 328,-10"/>
<text text-anchor="start" x="351.78" y="-15.4" font-family="Times-12" font-size="14.00"> &#160;Bootstrap</text>
<polygon fill="#fdb462" stroke="transparent" points="425,-10 425,-30 445,-30 445,-10 425,-10"/>
<text text-anchor="start" x="448.67" y="-15.4" font-family="Times-12" font-size="14.00"> &#160;Providers</text>
<polygon fill="#fb8072" stroke="transparent" points="521,-10 521,-30 541,-30 541,-10 521,-10"/>
<text text-anchor="start" x="544.73" y="-15.4" font-family="Times-12" font-size="14.00"> &#160;Exports</text>
<g id="clust1" class="cluster">
<title>cluster_TimePickerSelectModule</title>
<polygon fill="none" stroke="black" stroke-dasharray="1,5" points="8,-70 8,-379.59 718,-379.59 718,-70 8,-70"/>
</g>
<g id="clust2" class="cluster">
<title>cluster_TimePickerSelectModule_declarations</title>
<polygon fill="none" stroke="black" points="297,-189.59 297,-241.59 429,-241.59 429,-189.59 297,-189.59"/>
</g>
<g id="clust5" class="cluster">
<title>cluster_TimePickerSelectModule_exports</title>
<polygon fill="none" stroke="black" points="171,-319.59 171,-371.59 307,-371.59 307,-319.59 171,-319.59"/>
</g>
<g id="clust3" class="cluster">
<title>cluster_TimePickerSelectModule_TimePickerSelect_providers</title>
<polygon fill="none" stroke="black" points="16,-78 16,-176.59 710,-176.59 710,-78 16,-78"/>
</g>
<g id="clust4" class="cluster">
<title>cluster_TimePickerSelectModule_imports</title>
<polygon fill="none" stroke="black" points="77,-189.59 77,-241.59 289,-241.59 289,-189.59 77,-189.59"/>
</g>
<!-- TimePickerSelect -->
<g id="node1" class="node">
<title>TimePickerSelect</title>
<polygon fill="#ffffb3" stroke="black" points="420.52,-233.59 305.48,-233.59 305.48,-197.59 420.52,-197.59 420.52,-233.59"/>
<text text-anchor="middle" x="363" y="-211.39" font-family="Times,serif" font-size="14.00">TimePickerSelect</text>
</g>
<!-- TimePickerSelectModule -->
<g id="node2" class="node">
<title>TimePickerSelectModule</title>
<polygon fill="#8dd3c7" stroke="black" points="318.57,-298.59 315.57,-302.59 294.57,-302.59 291.57,-298.59 159.43,-298.59 159.43,-262.59 318.57,-262.59 318.57,-298.59"/>
<text text-anchor="middle" x="239" y="-276.39" font-family="Times,serif" font-size="14.00">TimePickerSelectModule</text>
</g>
<!-- TimePickerSelect&#45;&gt;TimePickerSelectModule -->
<g id="edge1" class="edge">
<title>TimePickerSelect&#45;&gt;TimePickerSelectModule</title>
<path fill="none" stroke="black" d="M311.89,-233.7C311.89,-233.7 311.89,-252.58 311.89,-252.58"/>
<polygon fill="black" stroke="black" points="308.39,-252.58 311.89,-262.58 315.39,-252.58 308.39,-252.58"/>
</g>
<!-- TimePickerSelect  -->
<g id="node6" class="node">
<title>TimePickerSelect </title>
<polygon fill="#fb8072" stroke="black" points="298.52,-363.59 179.48,-363.59 179.48,-327.59 298.52,-327.59 298.52,-363.59"/>
<text text-anchor="middle" x="239" y="-341.39" font-family="Times,serif" font-size="14.00">TimePickerSelect </text>
</g>
<!-- TimePickerSelectModule&#45;&gt;TimePickerSelect  -->
<g id="edge5" class="edge">
<title>TimePickerSelectModule&#45;&gt;TimePickerSelect </title>
<path fill="none" stroke="black" stroke-dasharray="5,2" d="M239,-298.7C239,-298.7 239,-317.58 239,-317.58"/>
<polygon fill="black" stroke="black" points="235.5,-317.58 239,-327.58 242.5,-317.58 235.5,-317.58"/>
</g>
<!-- {
 &#160;&#160;&#160;provide: NG_VALUE_ACCESSOR, useExisting: TimePickerSelect, multi: true
} -->
<g id="node3" class="node">
<title>{
 &#160;&#160;&#160;provide: NG_VALUE_ACCESSOR, useExisting: TimePickerSelect, multi: true
}</title>
<ellipse fill="#fdb462" stroke="black" cx="363" cy="-127.3" rx="338.54" ry="41.09"/>
<text text-anchor="middle" x="363" y="-139.9" font-family="Times,serif" font-size="14.00">{</text>
<text text-anchor="middle" x="363" y="-123.1" font-family="Times,serif" font-size="14.00"> &#160;&#160;&#160;provide: NG_VALUE_ACCESSOR, useExisting: TimePickerSelect, multi: true</text>
<text text-anchor="middle" x="363" y="-106.3" font-family="Times,serif" font-size="14.00">}</text>
</g>
<!-- {
 &#160;&#160;&#160;provide: NG_VALUE_ACCESSOR, useExisting: TimePickerSelect, multi: true
}&#45;&gt;TimePickerSelect -->
<g id="edge2" class="edge">
<title>{
 &#160;&#160;&#160;provide: NG_VALUE_ACCESSOR, useExisting: TimePickerSelect, multi: true
}&#45;&gt;TimePickerSelect</title>
<path fill="none" stroke="black" d="M363,-168.6C363,-168.6 363,-187.26 363,-187.26"/>
<polygon fill="black" stroke="black" points="359.5,-187.26 363,-197.26 366.5,-187.26 359.5,-187.26"/>
</g>
<!-- IconModule -->
<g id="node4" class="node">
<title>IconModule</title>
<polygon fill="#8dd3c7" stroke="black" points="281.43,-233.59 278.43,-237.59 257.43,-237.59 254.43,-233.59 196.57,-233.59 196.57,-197.59 281.43,-197.59 281.43,-233.59"/>
<text text-anchor="middle" x="239" y="-211.39" font-family="Times,serif" font-size="14.00">IconModule</text>
</g>
<!-- IconModule&#45;&gt;TimePickerSelectModule -->
<g id="edge3" class="edge">
<title>IconModule&#45;&gt;TimePickerSelectModule</title>
<path fill="none" stroke="black" d="M239,-233.7C239,-233.7 239,-252.58 239,-252.58"/>
<polygon fill="black" stroke="black" points="235.5,-252.58 239,-262.58 242.5,-252.58 235.5,-252.58"/>
</g>
<!-- SelectModule -->
<g id="node5" class="node">
<title>SelectModule</title>
<polygon fill="#8dd3c7" stroke="black" points="178.76,-233.59 175.76,-237.59 154.76,-237.59 151.76,-233.59 85.24,-233.59 85.24,-197.59 178.76,-197.59 178.76,-233.59"/>
<text text-anchor="middle" x="132" y="-211.39" font-family="Times,serif" font-size="14.00">SelectModule</text>
</g>
<!-- SelectModule&#45;&gt;TimePickerSelectModule -->
<g id="edge4" class="edge">
<title>SelectModule&#45;&gt;TimePickerSelectModule</title>
<path fill="none" stroke="black" d="M169.17,-233.7C169.17,-233.7 169.17,-252.58 169.17,-252.58"/>
<polygon fill="black" stroke="black" points="165.67,-252.58 169.17,-262.58 172.67,-252.58 165.67,-252.58"/>
</g>
</g>
</svg>
