<?xml version="1.0" encoding="UTF-8" standalone="no"?>
<!DOCTYPE svg PUBLIC "-//W3C//DTD SVG 1.1//EN"
 "http://www.w3.org/Graphics/SVG/1.1/DTD/svg11.dtd">
<!-- Generated by graphviz version 2.47.0 (20210316.0004)
 -->
<!-- Title: dependencies Pages: 1 -->
<svg width="954pt" height="396pt"
 viewBox="0.00 0.00 954.00 395.59" xmlns="http://www.w3.org/2000/svg" xmlns:xlink="http://www.w3.org/1999/xlink">
<g id="graph0" class="graph" transform="scale(1 1) rotate(0) translate(4 391.59)">
<title>dependencies</title>
<polygon fill="white" stroke="transparent" points="-4,4 -4,-391.59 950,-391.59 950,4 -4,4"/>
<text text-anchor="start" x="452.01" y="-42.4" font-family="Times-12" font-weight="bold" font-size="14.00">Legend</text>
<polygon fill="#ffffb3" stroke="transparent" points="239,-10 239,-30 259,-30 259,-10 239,-10"/>
<text text-anchor="start" x="262.63" y="-15.4" font-family="Times-12" font-size="14.00"> &#160;Declarations</text>
<polygon fill="#8dd3c7" stroke="transparent" points="352,-10 352,-30 372,-30 372,-10 352,-10"/>
<text text-anchor="start" x="375.73" y="-15.4" font-family="Times-12" font-size="14.00"> &#160;Module</text>
<polygon fill="#80b1d3" stroke="transparent" points="438,-10 438,-30 458,-30 458,-10 438,-10"/>
<text text-anchor="start" x="461.78" y="-15.4" font-family="Times-12" font-size="14.00"> &#160;Bootstrap</text>
<polygon fill="#fdb462" stroke="transparent" points="535,-10 535,-30 555,-30 555,-10 535,-10"/>
<text text-anchor="start" x="558.67" y="-15.4" font-family="Times-12" font-size="14.00"> &#160;Providers</text>
<polygon fill="#fb8072" stroke="transparent" points="631,-10 631,-30 651,-30 651,-10 631,-10"/>
<text text-anchor="start" x="654.73" y="-15.4" font-family="Times-12" font-size="14.00"> &#160;Exports</text>
<g id="clust1" class="cluster">
<title>cluster_TimePickerSelectModule</title>
<polygon fill="none" stroke="black" stroke-dasharray="1,5" points="8,-70 8,-379.59 938,-379.59 938,-70 8,-70"/>
</g>
<g id="clust4" class="cluster">
<title>cluster_TimePickerSelectModule_imports</title>
<polygon fill="none" stroke="black" points="718,-189.59 718,-241.59 930,-241.59 930,-189.59 718,-189.59"/>
</g>
<g id="clust3" class="cluster">
<title>cluster_TimePickerSelectModule_TimePickerSelect_providers</title>
<polygon fill="none" stroke="black" points="16,-78 16,-241.59 710,-241.59 710,-78 16,-78"/>
</g>
<g id="clust5" class="cluster">
<title>cluster_TimePickerSelectModule_exports</title>
<polygon fill="none" stroke="black" points="705,-319.59 705,-371.59 841,-371.59 841,-319.59 705,-319.59"/>
</g>
<!-- TimePickerSelect -->
<g id="node1" class="node">
<title>TimePickerSelect</title>
<polygon fill="#ffffb3" stroke="black" points="560.52,-233.59 445.48,-233.59 445.48,-197.59 560.52,-197.59 560.52,-233.59"/>
<text text-anchor="middle" x="503" y="-211.39" font-family="Times,serif" font-size="14.00">TimePickerSelect</text>
</g>
<!-- TimePickerSelectModule -->
<g id="node2" class="node">
<title>TimePickerSelectModule</title>
<polygon fill="#8dd3c7" stroke="black" points="852.57,-298.59 849.57,-302.59 828.57,-302.59 825.57,-298.59 693.43,-298.59 693.43,-262.59 852.57,-262.59 852.57,-298.59"/>
<text text-anchor="middle" x="773" y="-276.39" font-family="Times,serif" font-size="14.00">TimePickerSelectModule</text>
</g>
<!-- TimePickerSelect&#45;&gt;TimePickerSelectModule -->
<g id="edge1" class="edge">
<title>TimePickerSelect&#45;&gt;TimePickerSelectModule</title>
<path fill="none" stroke="black" d="M560.6,-215.59C617.99,-215.59 697.62,-215.59 697.62,-215.59 697.62,-215.59 697.62,-252.48 697.62,-252.48"/>
<polygon fill="black" stroke="black" points="694.12,-252.48 697.62,-262.48 701.12,-252.48 694.12,-252.48"/>
</g>
<!-- TimePickerSelect  -->
<g id="node6" class="node">
<title>TimePickerSelect </title>
<polygon fill="#fb8072" stroke="black" points="832.52,-363.59 713.48,-363.59 713.48,-327.59 832.52,-327.59 832.52,-363.59"/>
<text text-anchor="middle" x="773" y="-341.39" font-family="Times,serif" font-size="14.00">TimePickerSelect </text>
</g>
<!-- TimePickerSelectModule&#45;&gt;TimePickerSelect  -->
<g id="edge5" class="edge">
<title>TimePickerSelectModule&#45;&gt;TimePickerSelect </title>
<path fill="none" stroke="black" stroke-dasharray="5,2" d="M773,-298.7C773,-298.7 773,-317.58 773,-317.58"/>
<polygon fill="black" stroke="black" points="769.5,-317.58 773,-327.58 776.5,-317.58 769.5,-317.58"/>
</g>
<!-- {
 &#160;&#160;&#160;provide: NG_VALUE_ACCESSOR, useExisting: TimePickerSelect, multi: true
} -->
<g id="node3" class="node">
<title>{
 &#160;&#160;&#160;provide: NG_VALUE_ACCESSOR, useExisting: TimePickerSelect, multi: true
}</title>
<ellipse fill="#fdb462" stroke="black" cx="363" cy="-127.3" rx="338.54" ry="41.09"/>
<text text-anchor="middle" x="363" y="-139.9" font-family="Times,serif" font-size="14.00">{</text>
<text text-anchor="middle" x="363" y="-123.1" font-family="Times,serif" font-size="14.00"> &#160;&#160;&#160;provide: NG_VALUE_ACCESSOR, useExisting: TimePickerSelect, multi: true</text>
<text text-anchor="middle" x="363" y="-106.3" font-family="Times,serif" font-size="14.00">}</text>
</g>
<!-- {
 &#160;&#160;&#160;provide: NG_VALUE_ACCESSOR, useExisting: TimePickerSelect, multi: true
}&#45;&gt;TimePickerSelect -->
<g id="edge2" class="edge">
<title>{
 &#160;&#160;&#160;provide: NG_VALUE_ACCESSOR, useExisting: TimePickerSelect, multi: true
}&#45;&gt;TimePickerSelect</title>
<path fill="none" stroke="black" d="M503,-165C503,-165 503,-187.45 503,-187.45"/>
<polygon fill="black" stroke="black" points="499.5,-187.45 503,-197.45 506.5,-187.45 499.5,-187.45"/>
</g>
<!-- IconModule -->
<g id="node4" class="node">
<title>IconModule</title>
<polygon fill="#8dd3c7" stroke="black" points="922.43,-233.59 919.43,-237.59 898.43,-237.59 895.43,-233.59 837.57,-233.59 837.57,-197.59 922.43,-197.59 922.43,-233.59"/>
<text text-anchor="middle" x="880" y="-211.39" font-family="Times,serif" font-size="14.00">IconModule</text>
</g>
<!-- IconModule&#45;&gt;TimePickerSelectModule -->
<g id="edge3" class="edge">
<title>IconModule&#45;&gt;TimePickerSelectModule</title>
<path fill="none" stroke="black" d="M845.16,-233.7C845.16,-233.7 845.16,-252.58 845.16,-252.58"/>
<polygon fill="black" stroke="black" points="841.66,-252.58 845.16,-262.58 848.66,-252.58 841.66,-252.58"/>
</g>
<!-- SelectModule -->
<g id="node5" class="node">
<title>SelectModule</title>
<polygon fill="#8dd3c7" stroke="black" points="819.76,-233.59 816.76,-237.59 795.76,-237.59 792.76,-233.59 726.24,-233.59 726.24,-197.59 819.76,-197.59 819.76,-233.59"/>
<text text-anchor="middle" x="773" y="-211.39" font-family="Times,serif" font-size="14.00">SelectModule</text>
</g>
<!-- SelectModule&#45;&gt;TimePickerSelectModule -->
<g id="edge4" class="edge">
<title>SelectModule&#45;&gt;TimePickerSelectModule</title>
<path fill="none" stroke="black" d="M773,-233.7C773,-233.7 773,-252.58 773,-252.58"/>
<polygon fill="black" stroke="black" points="769.5,-252.58 773,-262.58 776.5,-252.58 769.5,-252.58"/>
</g>
</g>
</svg>
