<?xml version="1.0" encoding="UTF-8" standalone="no"?>
<!DOCTYPE svg PUBLIC "-//W3C//DTD SVG 1.1//EN"
 "http://www.w3.org/Graphics/SVG/1.1/DTD/svg11.dtd">
<!-- Generated by graphviz version 2.40.1 (20161225.0304)
 -->
<!-- Title: dependencies Pages: 1 -->
<svg width="504pt" height="284pt"
 viewBox="0.00 0.00 504.00 284.00" xmlns="http://www.w3.org/2000/svg" xmlns:xlink="http://www.w3.org/1999/xlink">
<g id="graph0" class="graph" transform="scale(1 1) rotate(0) translate(4 280)">
<title>dependencies</title>
<polygon fill="#ffffff" stroke="transparent" points="-4,4 -4,-280 500,-280 500,4 -4,4"/>
<text text-anchor="start" x="227.0091" y="-42.4" font-family="sans-serif" font-weight="bold" font-size="14.00" fill="#000000">Legend</text>
<polygon fill="#ffffb3" stroke="transparent" points="14,-10 14,-30 34,-30 34,-10 14,-10"/>
<text text-anchor="start" x="37.629" y="-15.4" font-family="sans-serif" font-size="14.00" fill="#000000"> &#160;Declarations</text>
<polygon fill="#8dd3c7" stroke="transparent" points="127,-10 127,-30 147,-30 147,-10 127,-10"/>
<text text-anchor="start" x="150.7251" y="-15.4" font-family="sans-serif" font-size="14.00" fill="#000000"> &#160;Module</text>
<polygon fill="#80b1d3" stroke="transparent" points="213,-10 213,-30 233,-30 233,-10 213,-10"/>
<text text-anchor="start" x="236.7812" y="-15.4" font-family="sans-serif" font-size="14.00" fill="#000000"> &#160;Bootstrap</text>
<polygon fill="#fdb462" stroke="transparent" points="310,-10 310,-30 330,-30 330,-10 310,-10"/>
<text text-anchor="start" x="333.6732" y="-15.4" font-family="sans-serif" font-size="14.00" fill="#000000"> &#160;Providers</text>
<polygon fill="#fb8072" stroke="transparent" points="406,-10 406,-30 426,-30 426,-10 406,-10"/>
<text text-anchor="start" x="429.7258" y="-15.4" font-family="sans-serif" font-size="14.00" fill="#000000"> &#160;Exports</text>
<g id="clust1" class="cluster">
<title>cluster_GridModule</title>
<polygon fill="none" stroke="#000000" stroke-dasharray="1,5" points="58,-70 58,-268 438,-268 438,-70 58,-70"/>
</g>
<g id="clust2" class="cluster">
<title>cluster_GridModule_declarations</title>
<polygon fill="none" stroke="#000000" points="72,-78 72,-130 425,-130 425,-78 72,-78"/>
</g>
<g id="clust7" class="cluster">
<title>cluster_GridModule_exports</title>
<polygon fill="none" stroke="#000000" points="66,-208 66,-260 430,-260 430,-208 66,-208"/>
</g>
<!-- ColumnDirective -->
<g id="node1" class="node">
<title>ColumnDirective</title>
<polygon fill="#ffffb3" stroke="#000000" points="416.7008,-122 303.2992,-122 303.2992,-86 416.7008,-86 416.7008,-122"/>
<text text-anchor="middle" x="360" y="-99.8" font-family="Times,serif" font-size="14.00" fill="#000000">ColumnDirective</text>
</g>
<!-- GridModule -->
<g id="node4" class="node">
<title>GridModule</title>
<polygon fill="#8dd3c7" stroke="#000000" points="281.7079,-187 278.7079,-191 257.7079,-191 254.7079,-187 196.2921,-187 196.2921,-151 281.7079,-151 281.7079,-187"/>
<text text-anchor="middle" x="239" y="-164.8" font-family="Times,serif" font-size="14.00" fill="#000000">GridModule</text>
</g>
<!-- ColumnDirective&#45;&gt;GridModule -->
<g id="edge1" class="edge">
<title>ColumnDirective&#45;&gt;GridModule</title>
<path fill="none" stroke="#000000" d="M379.6168,-122.0225C379.6168,-139.3734 379.6168,-163 379.6168,-163 379.6168,-163 291.9537,-163 291.9537,-163"/>
<polygon fill="#000000" stroke="#000000" points="291.9538,-159.5001 281.9537,-163 291.9537,-166.5001 291.9538,-159.5001"/>
</g>
<!-- GridDirective -->
<g id="node2" class="node">
<title>GridDirective</title>
<polygon fill="#ffffb3" stroke="#000000" points="285.741,-122 192.259,-122 192.259,-86 285.741,-86 285.741,-122"/>
<text text-anchor="middle" x="239" y="-99.8" font-family="Times,serif" font-size="14.00" fill="#000000">GridDirective</text>
</g>
<!-- GridDirective&#45;&gt;GridModule -->
<g id="edge2" class="edge">
<title>GridDirective&#45;&gt;GridModule</title>
<path fill="none" stroke="#000000" d="M239,-122.1061C239,-122.1061 239,-140.991 239,-140.991"/>
<polygon fill="#000000" stroke="#000000" points="235.5001,-140.9909 239,-150.991 242.5001,-140.991 235.5001,-140.9909"/>
</g>
<!-- RowDirective -->
<g id="node3" class="node">
<title>RowDirective</title>
<polygon fill="#ffffb3" stroke="#000000" points="174.0272,-122 79.9728,-122 79.9728,-86 174.0272,-86 174.0272,-122"/>
<text text-anchor="middle" x="127" y="-99.8" font-family="Times,serif" font-size="14.00" fill="#000000">RowDirective</text>
</g>
<!-- RowDirective&#45;&gt;GridModule -->
<g id="edge3" class="edge">
<title>RowDirective&#45;&gt;GridModule</title>
<path fill="none" stroke="#000000" d="M141.2543,-122.0225C141.2543,-139.3734 141.2543,-163 141.2543,-163 141.2543,-163 186.1273,-163 186.1273,-163"/>
<polygon fill="#000000" stroke="#000000" points="186.1274,-166.5001 196.1273,-163 186.1273,-159.5001 186.1274,-166.5001"/>
</g>
<!-- ColumnDirective  -->
<g id="node5" class="node">
<title>ColumnDirective </title>
<polygon fill="#fb8072" stroke="#000000" points="422.201,-252 305.799,-252 305.799,-216 422.201,-216 422.201,-252"/>
<text text-anchor="middle" x="364" y="-229.8" font-family="Times,serif" font-size="14.00" fill="#000000">ColumnDirective </text>
</g>
<!-- GridModule&#45;&gt;ColumnDirective  -->
<g id="edge4" class="edge">
<title>GridModule&#45;&gt;ColumnDirective </title>
<path fill="none" stroke="#000000" stroke-dasharray="5,2" d="M281.7499,-175C310.2969,-175 342.6332,-175 342.6332,-175 342.6332,-175 342.6332,-205.9775 342.6332,-205.9775"/>
<polygon fill="#000000" stroke="#000000" points="339.1333,-205.9774 342.6332,-215.9775 346.1333,-205.9775 339.1333,-205.9774"/>
</g>
<!-- GridDirective  -->
<g id="node6" class="node">
<title>GridDirective </title>
<polygon fill="#fb8072" stroke="#000000" points="287.7409,-252 190.2591,-252 190.2591,-216 287.7409,-216 287.7409,-252"/>
<text text-anchor="middle" x="239" y="-229.8" font-family="Times,serif" font-size="14.00" fill="#000000">GridDirective </text>
</g>
<!-- GridModule&#45;&gt;GridDirective  -->
<g id="edge5" class="edge">
<title>GridModule&#45;&gt;GridDirective </title>
<path fill="none" stroke="#000000" stroke-dasharray="5,2" d="M239,-187.1061C239,-187.1061 239,-205.991 239,-205.991"/>
<polygon fill="#000000" stroke="#000000" points="235.5001,-205.9909 239,-215.991 242.5001,-205.991 235.5001,-205.9909"/>
</g>
<!-- RowDirective  -->
<g id="node7" class="node">
<title>RowDirective </title>
<polygon fill="#fb8072" stroke="#000000" points="172.026,-252 73.974,-252 73.974,-216 172.026,-216 172.026,-252"/>
<text text-anchor="middle" x="123" y="-229.8" font-family="Times,serif" font-size="14.00" fill="#000000">RowDirective </text>
</g>
<!-- GridModule&#45;&gt;RowDirective  -->
<g id="edge6" class="edge">
<title>GridModule&#45;&gt;RowDirective </title>
<path fill="none" stroke="#000000" stroke-dasharray="5,2" d="M196.2099,-175C158.8279,-175 110.4957,-175 110.4957,-175 110.4957,-175 110.4957,-205.9775 110.4957,-205.9775"/>
<polygon fill="#000000" stroke="#000000" points="106.9958,-205.9774 110.4957,-215.9775 113.9958,-205.9775 106.9958,-205.9774"/>
</g>
</g>
</svg>
