<?xml version="1.0" encoding="UTF-8" standalone="no"?>
<!DOCTYPE svg PUBLIC "-//W3C//DTD SVG 1.1//EN"
 "http://www.w3.org/Graphics/SVG/1.1/DTD/svg11.dtd">
<!-- Generated by graphviz version 2.40.1 (20161225.0304)
 -->
<!-- Title: dependencies Pages: 1 -->
<svg width="504pt" height="284pt"
 viewBox="0.00 0.00 504.00 284.00" xmlns="http://www.w3.org/2000/svg" xmlns:xlink="http://www.w3.org/1999/xlink">
<g id="graph0" class="graph" transform="scale(1 1) rotate(0) translate(4 280)">
<title>dependencies</title>
<polygon fill="#ffffff" stroke="transparent" points="-4,4 -4,-280 500,-280 500,4 -4,4"/>
<text text-anchor="start" x="227.0091" y="-42.4" font-family="sans-serif" font-weight="bold" font-size="14.00" fill="#000000">Legend</text>
<polygon fill="#ffffb3" stroke="transparent" points="14,-10 14,-30 34,-30 34,-10 14,-10"/>
<text text-anchor="start" x="37.629" y="-15.4" font-family="sans-serif" font-size="14.00" fill="#000000"> &#160;Declarations</text>
<polygon fill="#8dd3c7" stroke="transparent" points="127,-10 127,-30 147,-30 147,-10 127,-10"/>
<text text-anchor="start" x="150.7251" y="-15.4" font-family="sans-serif" font-size="14.00" fill="#000000"> &#160;Module</text>
<polygon fill="#80b1d3" stroke="transparent" points="213,-10 213,-30 233,-30 233,-10 213,-10"/>
<text text-anchor="start" x="236.7812" y="-15.4" font-family="sans-serif" font-size="14.00" fill="#000000"> &#160;Bootstrap</text>
<polygon fill="#fdb462" stroke="transparent" points="310,-10 310,-30 330,-30 330,-10 310,-10"/>
<text text-anchor="start" x="333.6732" y="-15.4" font-family="sans-serif" font-size="14.00" fill="#000000"> &#160;Providers</text>
<polygon fill="#fb8072" stroke="transparent" points="406,-10 406,-30 426,-30 426,-10 406,-10"/>
<text text-anchor="start" x="429.7258" y="-15.4" font-family="sans-serif" font-size="14.00" fill="#000000"> &#160;Exports</text>
<g id="clust1" class="cluster">
<title>cluster_TimePickerSelectModule</title>
<polygon fill="none" stroke="#000000" stroke-dasharray="1,5" points="115,-70 115,-268 381,-268 381,-70 115,-70"/>
</g>
<g id="clust2" class="cluster">
<title>cluster_TimePickerSelectModule_declarations</title>
<polygon fill="none" stroke="#000000" points="241,-78 241,-130 373,-130 373,-78 241,-78"/>
</g>
<g id="clust4" class="cluster">
<title>cluster_TimePickerSelectModule_imports</title>
<polygon fill="none" stroke="#000000" points="123,-78 123,-130 233,-130 233,-78 123,-78"/>
</g>
<g id="clust5" class="cluster">
<title>cluster_TimePickerSelectModule_exports</title>
<polygon fill="none" stroke="#000000" points="180,-208 180,-260 316,-260 316,-208 180,-208"/>
</g>
<!-- TimePickerSelect -->
<g id="node1" class="node">
<title>TimePickerSelect</title>
<polygon fill="#ffffb3" stroke="#000000" points="364.52,-122 249.48,-122 249.48,-86 364.52,-86 364.52,-122"/>
<text text-anchor="middle" x="307" y="-99.8" font-family="Times,serif" font-size="14.00" fill="#000000">TimePickerSelect</text>
</g>
<!-- TimePickerSelectModule -->
<g id="node2" class="node">
<title>TimePickerSelectModule</title>
<polygon fill="#8dd3c7" stroke="#000000" points="327.5688,-187 324.5688,-191 303.5688,-191 300.5688,-187 168.4312,-187 168.4312,-151 327.5688,-151 327.5688,-187"/>
<text text-anchor="middle" x="248" y="-164.8" font-family="Times,serif" font-size="14.00" fill="#000000">TimePickerSelectModule</text>
</g>
<!-- TimePickerSelect&#45;&gt;TimePickerSelectModule -->
<g id="edge1" class="edge">
<title>TimePickerSelect&#45;&gt;TimePickerSelectModule</title>
<path fill="none" stroke="#000000" d="M288.3875,-122.1061C288.3875,-122.1061 288.3875,-140.991 288.3875,-140.991"/>
<polygon fill="#000000" stroke="#000000" points="284.8875,-140.9909 288.3875,-150.991 291.8875,-140.991 284.8875,-140.9909"/>
</g>
<!-- TimePickerSelect  -->
<g id="node4" class="node">
<title>TimePickerSelect </title>
<polygon fill="#fb8072" stroke="#000000" points="307.519,-252 188.481,-252 188.481,-216 307.519,-216 307.519,-252"/>
<text text-anchor="middle" x="248" y="-229.8" font-family="Times,serif" font-size="14.00" fill="#000000">TimePickerSelect </text>
</g>
<!-- TimePickerSelectModule&#45;&gt;TimePickerSelect  -->
<g id="edge3" class="edge">
<title>TimePickerSelectModule&#45;&gt;TimePickerSelect </title>
<path fill="none" stroke="#000000" stroke-dasharray="5,2" d="M248,-187.1061C248,-187.1061 248,-205.991 248,-205.991"/>
<polygon fill="#000000" stroke="#000000" points="244.5001,-205.9909 248,-215.991 251.5001,-205.991 244.5001,-205.9909"/>
</g>
<!-- SelectModule -->
<g id="node3" class="node">
<title>SelectModule</title>
<polygon fill="#8dd3c7" stroke="#000000" points="224.7577,-122 221.7577,-126 200.7577,-126 197.7577,-122 131.2423,-122 131.2423,-86 224.7577,-86 224.7577,-122"/>
<text text-anchor="middle" x="178" y="-99.8" font-family="Times,serif" font-size="14.00" fill="#000000">SelectModule</text>
</g>
<!-- SelectModule&#45;&gt;TimePickerSelectModule -->
<g id="edge2" class="edge">
<title>SelectModule&#45;&gt;TimePickerSelectModule</title>
<path fill="none" stroke="#000000" d="M196.6721,-122.1061C196.6721,-122.1061 196.6721,-140.991 196.6721,-140.991"/>
<polygon fill="#000000" stroke="#000000" points="193.1722,-140.9909 196.6721,-150.991 200.1722,-140.991 193.1722,-140.9909"/>
</g>
</g>
</svg>
