<?xml version="1.0" encoding="UTF-8" standalone="no"?>
<!DOCTYPE svg PUBLIC "-//W3C//DTD SVG 1.1//EN"
 "http://www.w3.org/Graphics/SVG/1.1/DTD/svg11.dtd">
<!-- Generated by graphviz version 2.47.0 (20210316.0004)
 -->
<!-- Title: dependencies Pages: 1 -->
<svg width="779pt" height="284pt"
 viewBox="0.00 0.00 779.00 284.00" xmlns="http://www.w3.org/2000/svg" xmlns:xlink="http://www.w3.org/1999/xlink">
<g id="graph0" class="graph" transform="scale(1 1) rotate(0) translate(4 280)">
<title>dependencies</title>
<polygon fill="white" stroke="transparent" points="-4,4 -4,-280 775,-280 775,4 -4,4"/>
<text text-anchor="start" x="364.51" y="-42.4" font-family="Times-12" font-weight="bold" font-size="14.00">Legend</text>
<polygon fill="#ffffb3" stroke="transparent" points="151.5,-10 151.5,-30 171.5,-30 171.5,-10 151.5,-10"/>
<text text-anchor="start" x="175.13" y="-15.4" font-family="Times-12" font-size="14.00"> &#160;Declarations</text>
<polygon fill="#8dd3c7" stroke="transparent" points="264.5,-10 264.5,-30 284.5,-30 284.5,-10 264.5,-10"/>
<text text-anchor="start" x="288.23" y="-15.4" font-family="Times-12" font-size="14.00"> &#160;Module</text>
<polygon fill="#80b1d3" stroke="transparent" points="350.5,-10 350.5,-30 370.5,-30 370.5,-10 350.5,-10"/>
<text text-anchor="start" x="374.28" y="-15.4" font-family="Times-12" font-size="14.00"> &#160;Bootstrap</text>
<polygon fill="#fdb462" stroke="transparent" points="447.5,-10 447.5,-30 467.5,-30 467.5,-10 447.5,-10"/>
<text text-anchor="start" x="471.17" y="-15.4" font-family="Times-12" font-size="14.00"> &#160;Providers</text>
<polygon fill="#fb8072" stroke="transparent" points="543.5,-10 543.5,-30 563.5,-30 563.5,-10 543.5,-10"/>
<text text-anchor="start" x="567.23" y="-15.4" font-family="Times-12" font-size="14.00"> &#160;Exports</text>
<g id="clust1" class="cluster">
<title>cluster_BreadcrumbModule</title>
<polygon fill="none" stroke="black" stroke-dasharray="1,5" points="8,-70 8,-268 763,-268 763,-70 8,-70"/>
</g>
<g id="clust2" class="cluster">
<title>cluster_BreadcrumbModule_declarations</title>
<polygon fill="none" stroke="black" points="459,-78 459,-130 755,-130 755,-78 459,-78"/>
</g>
<g id="clust6" class="cluster">
<title>cluster_BreadcrumbModule_exports</title>
<polygon fill="none" stroke="black" points="162,-208 162,-260 464,-260 464,-208 162,-208"/>
</g>
<g id="clust5" class="cluster">
<title>cluster_BreadcrumbModule_imports</title>
<polygon fill="none" stroke="black" points="16,-78 16,-130 451,-130 451,-78 16,-78"/>
</g>
<!-- Breadcrumb -->
<g id="node1" class="node">
<title>Breadcrumb</title>
<polygon fill="#ffffb3" stroke="black" points="746.69,-122 661.31,-122 661.31,-86 746.69,-86 746.69,-122"/>
<text text-anchor="middle" x="704" y="-99.8" font-family="Times,serif" font-size="14.00">Breadcrumb</text>
</g>
<!-- BreadcrumbModule -->
<g id="node3" class="node">
<title>BreadcrumbModule</title>
<polygon fill="#8dd3c7" stroke="black" points="400.24,-187 397.24,-191 376.24,-191 373.24,-187 271.76,-187 271.76,-151 400.24,-151 400.24,-187"/>
<text text-anchor="middle" x="336" y="-164.8" font-family="Times,serif" font-size="14.00">BreadcrumbModule</text>
</g>
<!-- Breadcrumb&#45;&gt;BreadcrumbModule -->
<g id="edge1" class="edge">
<title>Breadcrumb&#45;&gt;BreadcrumbModule</title>
<path fill="none" stroke="black" d="M704,-122.28C704,-143.32 704,-175 704,-175 704,-175 410.52,-175 410.52,-175"/>
<polygon fill="black" stroke="black" points="410.52,-171.5 400.52,-175 410.52,-178.5 410.52,-171.5"/>
</g>
<!-- BreadcrumbItemComponent -->
<g id="node2" class="node">
<title>BreadcrumbItemComponent</title>
<polygon fill="#ffffb3" stroke="black" points="643.18,-122 466.82,-122 466.82,-86 643.18,-86 643.18,-122"/>
<text text-anchor="middle" x="555" y="-99.8" font-family="Times,serif" font-size="14.00">BreadcrumbItemComponent</text>
</g>
<!-- BreadcrumbItemComponent&#45;&gt;BreadcrumbModule -->
<g id="edge2" class="edge">
<title>BreadcrumbItemComponent&#45;&gt;BreadcrumbModule</title>
<path fill="none" stroke="black" d="M555,-122.02C555,-139.37 555,-163 555,-163 555,-163 410.52,-163 410.52,-163"/>
<polygon fill="black" stroke="black" points="410.52,-159.5 400.52,-163 410.52,-166.5 410.52,-159.5"/>
</g>
<!-- Breadcrumb  -->
<g id="node8" class="node">
<title>Breadcrumb </title>
<polygon fill="#fb8072" stroke="black" points="456.19,-252 367.81,-252 367.81,-216 456.19,-216 456.19,-252"/>
<text text-anchor="middle" x="412" y="-229.8" font-family="Times,serif" font-size="14.00">Breadcrumb </text>
</g>
<!-- BreadcrumbModule&#45;&gt;Breadcrumb  -->
<g id="edge7" class="edge">
<title>BreadcrumbModule&#45;&gt;Breadcrumb </title>
<path fill="none" stroke="black" stroke-dasharray="5,2" d="M384.01,-187.11C384.01,-187.11 384.01,-205.99 384.01,-205.99"/>
<polygon fill="black" stroke="black" points="380.51,-205.99 384.01,-215.99 387.51,-205.99 380.51,-205.99"/>
</g>
<!-- BreadcrumbItemComponent  -->
<g id="node9" class="node">
<title>BreadcrumbItemComponent </title>
<polygon fill="#fb8072" stroke="black" points="349.68,-252 170.32,-252 170.32,-216 349.68,-216 349.68,-252"/>
<text text-anchor="middle" x="260" y="-229.8" font-family="Times,serif" font-size="14.00">BreadcrumbItemComponent </text>
</g>
<!-- BreadcrumbModule&#45;&gt;BreadcrumbItemComponent  -->
<g id="edge8" class="edge">
<title>BreadcrumbModule&#45;&gt;BreadcrumbItemComponent </title>
<path fill="none" stroke="black" stroke-dasharray="5,2" d="M310.73,-187.11C310.73,-187.11 310.73,-205.99 310.73,-205.99"/>
<polygon fill="black" stroke="black" points="307.23,-205.99 310.73,-215.99 314.23,-205.99 307.23,-205.99"/>
</g>
<!-- ButtonModule -->
<g id="node4" class="node">
<title>ButtonModule</title>
<polygon fill="#8dd3c7" stroke="black" points="442.67,-122 439.67,-126 418.67,-126 415.67,-122 345.33,-122 345.33,-86 442.67,-86 442.67,-122"/>
<text text-anchor="middle" x="394" y="-99.8" font-family="Times,serif" font-size="14.00">ButtonModule</text>
</g>
<!-- ButtonModule&#45;&gt;BreadcrumbModule -->
<g id="edge3" class="edge">
<title>ButtonModule&#45;&gt;BreadcrumbModule</title>
<path fill="none" stroke="black" d="M372.77,-122.11C372.77,-122.11 372.77,-140.99 372.77,-140.99"/>
<polygon fill="black" stroke="black" points="369.27,-140.99 372.77,-150.99 376.27,-140.99 369.27,-140.99"/>
</g>
<!-- DialogModule -->
<g id="node5" class="node">
<title>DialogModule</title>
<polygon fill="#8dd3c7" stroke="black" points="326.65,-122 323.65,-126 302.65,-126 299.65,-122 229.35,-122 229.35,-86 326.65,-86 326.65,-122"/>
<text text-anchor="middle" x="278" y="-99.8" font-family="Times,serif" font-size="14.00">DialogModule</text>
</g>
<!-- DialogModule&#45;&gt;BreadcrumbModule -->
<g id="edge4" class="edge">
<title>DialogModule&#45;&gt;BreadcrumbModule</title>
<path fill="none" stroke="black" d="M299.23,-122.11C299.23,-122.11 299.23,-140.99 299.23,-140.99"/>
<polygon fill="black" stroke="black" points="295.73,-140.99 299.23,-150.99 302.73,-140.99 295.73,-140.99"/>
</g>
<!-- I18nModule -->
<g id="node6" class="node">
<title>I18nModule</title>
<polygon fill="#8dd3c7" stroke="black" points="211.71,-122 208.71,-126 187.71,-126 184.71,-122 126.29,-122 126.29,-86 211.71,-86 211.71,-122"/>
<text text-anchor="middle" x="169" y="-99.8" font-family="Times,serif" font-size="14.00">I18nModule</text>
</g>
<!-- I18nModule&#45;&gt;BreadcrumbModule -->
<g id="edge5" class="edge">
<title>I18nModule&#45;&gt;BreadcrumbModule</title>
<path fill="none" stroke="black" d="M190.88,-122.02C190.88,-139.37 190.88,-163 190.88,-163 190.88,-163 261.5,-163 261.5,-163"/>
<polygon fill="black" stroke="black" points="261.5,-166.5 271.5,-163 261.5,-159.5 261.5,-166.5"/>
</g>
<!-- IconModule -->
<g id="node7" class="node">
<title>IconModule</title>
<polygon fill="#8dd3c7" stroke="black" points="108.43,-122 105.43,-126 84.43,-126 81.43,-122 23.57,-122 23.57,-86 108.43,-86 108.43,-122"/>
<text text-anchor="middle" x="66" y="-99.8" font-family="Times,serif" font-size="14.00">IconModule</text>
</g>
<!-- IconModule&#45;&gt;BreadcrumbModule -->
<g id="edge6" class="edge">
<title>IconModule&#45;&gt;BreadcrumbModule</title>
<path fill="none" stroke="black" d="M66,-122.28C66,-143.32 66,-175 66,-175 66,-175 261.67,-175 261.67,-175"/>
<polygon fill="black" stroke="black" points="261.67,-178.5 271.67,-175 261.67,-171.5 261.67,-178.5"/>
</g>
</g>
</svg>
