<?xml version="1.0" encoding="UTF-8" standalone="no"?>
<!DOCTYPE svg PUBLIC "-//W3C//DTD SVG 1.1//EN"
 "http://www.w3.org/Graphics/SVG/1.1/DTD/svg11.dtd">
<!-- Generated by graphviz version 2.40.1 (20161225.0304)
 -->
<!-- Title: dependencies Pages: 1 -->
<svg width="504pt" height="349pt"
 viewBox="0.00 0.00 504.00 349.00" xmlns="http://www.w3.org/2000/svg" xmlns:xlink="http://www.w3.org/1999/xlink">
<g id="graph0" class="graph" transform="scale(1 1) rotate(0) translate(4 345)">
<title>dependencies</title>
<polygon fill="#ffffff" stroke="transparent" points="-4,4 -4,-345 500,-345 500,4 -4,4"/>
<text text-anchor="start" x="227.0091" y="-42.4" font-family="sans-serif" font-weight="bold" font-size="14.00" fill="#000000">Legend</text>
<polygon fill="#ffffb3" stroke="transparent" points="14,-10 14,-30 34,-30 34,-10 14,-10"/>
<text text-anchor="start" x="37.629" y="-15.4" font-family="sans-serif" font-size="14.00" fill="#000000"> &#160;Declarations</text>
<polygon fill="#8dd3c7" stroke="transparent" points="127,-10 127,-30 147,-30 147,-10 127,-10"/>
<text text-anchor="start" x="150.7251" y="-15.4" font-family="sans-serif" font-size="14.00" fill="#000000"> &#160;Module</text>
<polygon fill="#80b1d3" stroke="transparent" points="213,-10 213,-30 233,-30 233,-10 213,-10"/>
<text text-anchor="start" x="236.7812" y="-15.4" font-family="sans-serif" font-size="14.00" fill="#000000"> &#160;Bootstrap</text>
<polygon fill="#fdb462" stroke="transparent" points="310,-10 310,-30 330,-30 330,-10 310,-10"/>
<text text-anchor="start" x="333.6732" y="-15.4" font-family="sans-serif" font-size="14.00" fill="#000000"> &#160;Providers</text>
<polygon fill="#fb8072" stroke="transparent" points="406,-10 406,-30 426,-30 426,-10 406,-10"/>
<text text-anchor="start" x="429.7258" y="-15.4" font-family="sans-serif" font-size="14.00" fill="#000000"> &#160;Exports</text>
<g id="clust1" class="cluster">
<title>cluster_BannerModule</title>
<polygon fill="none" stroke="#000000" stroke-dasharray="1,5" points="40,-70 40,-333 456,-333 456,-70 40,-70"/>
</g>
<g id="clust2" class="cluster">
<title>cluster_BannerModule_declarations</title>
<polygon fill="none" stroke="#000000" points="292,-143 292,-195 436,-195 436,-143 292,-143"/>
</g>
<g id="clust3" class="cluster">
<title>cluster_BannerModule_Banner_providers</title>
<polygon fill="none" stroke="#000000" points="296,-78 296,-130 448,-130 448,-78 296,-78"/>
</g>
<g id="clust5" class="cluster">
<title>cluster_BannerModule_imports</title>
<polygon fill="none" stroke="#000000" points="48,-143 48,-195 284,-195 284,-143 48,-143"/>
</g>
<g id="clust6" class="cluster">
<title>cluster_BannerModule_exports</title>
<polygon fill="none" stroke="#000000" points="254,-273 254,-325 402,-325 402,-273 254,-273"/>
</g>
<!-- Banner -->
<g id="node1" class="node">
<title>Banner</title>
<polygon fill="#ffffb3" stroke="#000000" points="428.428,-187 371.572,-187 371.572,-151 428.428,-151 428.428,-187"/>
<text text-anchor="middle" x="400" y="-164.8" font-family="Times,serif" font-size="14.00" fill="#000000">Banner</text>
</g>
<!-- BannerModule -->
<g id="node3" class="node">
<title>BannerModule</title>
<polygon fill="#8dd3c7" stroke="#000000" points="376.9762,-252 373.9762,-256 352.9762,-256 349.9762,-252 277.0238,-252 277.0238,-216 376.9762,-216 376.9762,-252"/>
<text text-anchor="middle" x="327" y="-229.8" font-family="Times,serif" font-size="14.00" fill="#000000">BannerModule</text>
</g>
<!-- Banner&#45;&gt;BannerModule -->
<g id="edge1" class="edge">
<title>Banner&#45;&gt;BannerModule</title>
<path fill="none" stroke="#000000" d="M371.4957,-169C368.1272,-169 365.8579,-169 365.8579,-169 365.8579,-169 365.8579,-205.8939 365.8579,-205.8939"/>
<polygon fill="#000000" stroke="#000000" points="362.358,-205.8938 365.8579,-215.8939 369.358,-205.8939 362.358,-205.8938"/>
</g>
<!-- Toast -->
<g id="node2" class="node">
<title>Toast</title>
<polygon fill="#ffffb3" stroke="#000000" points="354,-187 300,-187 300,-151 354,-151 354,-187"/>
<text text-anchor="middle" x="327" y="-164.8" font-family="Times,serif" font-size="14.00" fill="#000000">Toast</text>
</g>
<!-- Toast&#45;&gt;BannerModule -->
<g id="edge3" class="edge">
<title>Toast&#45;&gt;BannerModule</title>
<path fill="none" stroke="#000000" d="M327,-187.1061C327,-187.1061 327,-205.991 327,-205.991"/>
<polygon fill="#000000" stroke="#000000" points="323.5001,-205.9909 327,-215.991 330.5001,-205.991 323.5001,-205.9909"/>
</g>
<!-- Banner  -->
<g id="node7" class="node">
<title>Banner </title>
<polygon fill="#fb8072" stroke="#000000" points="393.9264,-317 334.0736,-317 334.0736,-281 393.9264,-281 393.9264,-317"/>
<text text-anchor="middle" x="364" y="-294.8" font-family="Times,serif" font-size="14.00" fill="#000000">Banner </text>
</g>
<!-- BannerModule&#45;&gt;Banner  -->
<g id="edge6" class="edge">
<title>BannerModule&#45;&gt;Banner </title>
<path fill="none" stroke="#000000" stroke-dasharray="5,2" d="M355.5125,-252.1061C355.5125,-252.1061 355.5125,-270.991 355.5125,-270.991"/>
<polygon fill="#000000" stroke="#000000" points="352.0125,-270.9909 355.5125,-280.991 359.0125,-270.991 352.0125,-270.9909"/>
</g>
<!-- Toast  -->
<g id="node8" class="node">
<title>Toast </title>
<polygon fill="#fb8072" stroke="#000000" points="316,-317 262,-317 262,-281 316,-281 316,-317"/>
<text text-anchor="middle" x="289" y="-294.8" font-family="Times,serif" font-size="14.00" fill="#000000">Toast </text>
</g>
<!-- BannerModule&#45;&gt;Toast  -->
<g id="edge7" class="edge">
<title>BannerModule&#45;&gt;Toast </title>
<path fill="none" stroke="#000000" stroke-dasharray="5,2" d="M296.506,-252.1061C296.506,-252.1061 296.506,-270.991 296.506,-270.991"/>
<polygon fill="#000000" stroke="#000000" points="293.006,-270.9909 296.506,-280.991 300.006,-270.991 293.006,-270.9909"/>
</g>
<!-- BannerService -->
<g id="node4" class="node">
<title>BannerService</title>
<ellipse fill="#fdb462" stroke="#000000" cx="372" cy="-104" rx="67.7548" ry="18"/>
<text text-anchor="middle" x="372" y="-99.8" font-family="Times,serif" font-size="14.00" fill="#000000">BannerService</text>
</g>
<!-- BannerService&#45;&gt;Banner -->
<g id="edge2" class="edge">
<title>BannerService&#45;&gt;Banner</title>
<path fill="none" stroke="#000000" d="M400,-120.4022C400,-120.4022 400,-140.5366 400,-140.5366"/>
<polygon fill="#000000" stroke="#000000" points="396.5001,-140.5366 400,-150.5366 403.5001,-140.5367 396.5001,-140.5366"/>
</g>
<!-- BannerService&#45;&gt;BannerModule -->
<g id="edge8" class="edge">
<title>BannerService&#45;&gt;BannerModule</title>
<path fill="none" stroke="#000000" d="M359.9289,-121.8034C359.9289,-121.8034 359.9289,-205.9945 359.9289,-205.9945"/>
<polygon fill="#000000" stroke="#000000" points="356.429,-205.9944 359.9289,-215.9945 363.429,-205.9945 356.429,-205.9944"/>
</g>
<!-- I18nModule -->
<g id="node5" class="node">
<title>I18nModule</title>
<polygon fill="#8dd3c7" stroke="#000000" points="275.7107,-187 272.7107,-191 251.7107,-191 248.7107,-187 190.2893,-187 190.2893,-151 275.7107,-151 275.7107,-187"/>
<text text-anchor="middle" x="233" y="-164.8" font-family="Times,serif" font-size="14.00" fill="#000000">I18nModule</text>
</g>
<!-- I18nModule&#45;&gt;BannerModule -->
<g id="edge4" class="edge">
<title>I18nModule&#45;&gt;BannerModule</title>
<path fill="none" stroke="#000000" d="M268.8026,-187.0225C268.8026,-204.3734 268.8026,-228 268.8026,-228 268.8026,-228 269.6118,-228 269.6118,-228"/>
<polygon fill="#000000" stroke="#000000" points="266.8947,-231.5001 276.8947,-228 266.8947,-224.5001 266.8947,-231.5001"/>
</g>
<!-- StaticIconModule -->
<g id="node6" class="node">
<title>StaticIconModule</title>
<polygon fill="#8dd3c7" stroke="#000000" points="172.309,-187 169.309,-191 148.309,-191 145.309,-187 55.691,-187 55.691,-151 172.309,-151 172.309,-187"/>
<text text-anchor="middle" x="114" y="-164.8" font-family="Times,serif" font-size="14.00" fill="#000000">StaticIconModule</text>
</g>
<!-- StaticIconModule&#45;&gt;BannerModule -->
<g id="edge5" class="edge">
<title>StaticIconModule&#45;&gt;BannerModule</title>
<path fill="none" stroke="#000000" d="M114,-187.2843C114,-208.3211 114,-240 114,-240 114,-240 266.7917,-240 266.7917,-240"/>
<polygon fill="#000000" stroke="#000000" points="266.7917,-243.5001 276.7917,-240 266.7917,-236.5001 266.7917,-243.5001"/>
</g>
</g>
</svg>
