<?xml version="1.0" encoding="UTF-8" standalone="no"?>
<!DOCTYPE svg PUBLIC "-//W3C//DTD SVG 1.1//EN"
 "http://www.w3.org/Graphics/SVG/1.1/DTD/svg11.dtd">
<!-- Generated by graphviz version 2.40.1 (20161225.0304)
 -->
<!-- Title: dependencies Pages: 1 -->
<svg width="504pt" height="349pt"
 viewBox="0.00 0.00 504.00 349.00" xmlns="http://www.w3.org/2000/svg" xmlns:xlink="http://www.w3.org/1999/xlink">
<g id="graph0" class="graph" transform="scale(1 1) rotate(0) translate(4 345)">
<title>dependencies</title>
<polygon fill="#ffffff" stroke="transparent" points="-4,4 -4,-345 500,-345 500,4 -4,4"/>
<text text-anchor="start" x="227.0091" y="-42.4" font-family="sans-serif" font-weight="bold" font-size="14.00" fill="#000000">Legend</text>
<polygon fill="#ffffb3" stroke="transparent" points="14,-10 14,-30 34,-30 34,-10 14,-10"/>
<text text-anchor="start" x="37.629" y="-15.4" font-family="sans-serif" font-size="14.00" fill="#000000"> &#160;Declarations</text>
<polygon fill="#8dd3c7" stroke="transparent" points="127,-10 127,-30 147,-30 147,-10 127,-10"/>
<text text-anchor="start" x="150.7251" y="-15.4" font-family="sans-serif" font-size="14.00" fill="#000000"> &#160;Module</text>
<polygon fill="#80b1d3" stroke="transparent" points="213,-10 213,-30 233,-30 233,-10 213,-10"/>
<text text-anchor="start" x="236.7812" y="-15.4" font-family="sans-serif" font-size="14.00" fill="#000000"> &#160;Bootstrap</text>
<polygon fill="#fdb462" stroke="transparent" points="310,-10 310,-30 330,-30 330,-10 310,-10"/>
<text text-anchor="start" x="333.6732" y="-15.4" font-family="sans-serif" font-size="14.00" fill="#000000"> &#160;Providers</text>
<polygon fill="#fb8072" stroke="transparent" points="406,-10 406,-30 426,-30 426,-10 406,-10"/>
<text text-anchor="start" x="429.7258" y="-15.4" font-family="sans-serif" font-size="14.00" fill="#000000"> &#160;Exports</text>
<g id="clust1" class="cluster">
<title>cluster_BannerModule</title>
<polygon fill="none" stroke="#000000" stroke-dasharray="1,5" points="40,-70 40,-333 456,-333 456,-70 40,-70"/>
</g>
<g id="clust2" class="cluster">
<title>cluster_BannerModule_declarations</title>
<polygon fill="none" stroke="#000000" points="292,-143 292,-195 436,-195 436,-143 292,-143"/>
</g>
<g id="clust4" class="cluster">
<title>cluster_BannerModule_Banner_providers</title>
<polygon fill="none" stroke="#000000" points="274,-78 274,-130 426,-130 426,-78 274,-78"/>
</g>
<g id="clust5" class="cluster">
<title>cluster_BannerModule_imports</title>
<polygon fill="none" stroke="#000000" points="48,-143 48,-195 284,-195 284,-143 48,-143"/>
</g>
<g id="clust6" class="cluster">
<title>cluster_BannerModule_exports</title>
<polygon fill="none" stroke="#000000" points="255,-273 255,-325 403,-325 403,-273 255,-273"/>
</g>
<!-- Toast -->
<g id="node1" class="node">
<title>Toast</title>
<polygon fill="#ffffb3" stroke="#000000" points="428,-187 374,-187 374,-151 428,-151 428,-187"/>
<text text-anchor="middle" x="401" y="-164.8" font-family="Times,serif" font-size="14.00" fill="#000000">Toast</text>
</g>
<!-- BannerModule -->
<g id="node3" class="node">
<title>BannerModule</title>
<polygon fill="#8dd3c7" stroke="#000000" points="377.9762,-252 374.9762,-256 353.9762,-256 350.9762,-252 278.0238,-252 278.0238,-216 377.9762,-216 377.9762,-252"/>
<text text-anchor="middle" x="328" y="-229.8" font-family="Times,serif" font-size="14.00" fill="#000000">BannerModule</text>
</g>
<!-- Toast&#45;&gt;BannerModule -->
<g id="edge1" class="edge">
<title>Toast&#45;&gt;BannerModule</title>
<path fill="none" stroke="#000000" d="M386.4757,-187.1061C386.4757,-206.3391 386.4757,-234 386.4757,-234 386.4757,-234 385.6626,-234 385.6626,-234"/>
<polygon fill="#000000" stroke="#000000" points="388.3449,-230.5001 378.3449,-234 388.3448,-237.5001 388.3449,-230.5001"/>
</g>
<!-- Banner -->
<g id="node2" class="node">
<title>Banner</title>
<polygon fill="#ffffb3" stroke="#000000" points="356.428,-187 299.572,-187 299.572,-151 356.428,-151 356.428,-187"/>
<text text-anchor="middle" x="328" y="-164.8" font-family="Times,serif" font-size="14.00" fill="#000000">Banner</text>
</g>
<!-- Banner&#45;&gt;BannerModule -->
<g id="edge2" class="edge">
<title>Banner&#45;&gt;BannerModule</title>
<path fill="none" stroke="#000000" d="M328,-187.1061C328,-187.1061 328,-205.991 328,-205.991"/>
<polygon fill="#000000" stroke="#000000" points="324.5001,-205.9909 328,-215.991 331.5001,-205.991 324.5001,-205.9909"/>
</g>
<!-- Banner  -->
<g id="node7" class="node">
<title>Banner </title>
<polygon fill="#fb8072" stroke="#000000" points="394.9264,-317 335.0736,-317 335.0736,-281 394.9264,-281 394.9264,-317"/>
<text text-anchor="middle" x="365" y="-294.8" font-family="Times,serif" font-size="14.00" fill="#000000">Banner </text>
</g>
<!-- BannerModule&#45;&gt;Banner  -->
<g id="edge6" class="edge">
<title>BannerModule&#45;&gt;Banner </title>
<path fill="none" stroke="#000000" stroke-dasharray="5,2" d="M356.5125,-252.1061C356.5125,-252.1061 356.5125,-270.991 356.5125,-270.991"/>
<polygon fill="#000000" stroke="#000000" points="353.0125,-270.9909 356.5125,-280.991 360.0125,-270.991 353.0125,-270.9909"/>
</g>
<!-- Toast  -->
<g id="node8" class="node">
<title>Toast </title>
<polygon fill="#fb8072" stroke="#000000" points="317,-317 263,-317 263,-281 317,-281 317,-317"/>
<text text-anchor="middle" x="290" y="-294.8" font-family="Times,serif" font-size="14.00" fill="#000000">Toast </text>
</g>
<!-- BannerModule&#45;&gt;Toast  -->
<g id="edge7" class="edge">
<title>BannerModule&#45;&gt;Toast </title>
<path fill="none" stroke="#000000" stroke-dasharray="5,2" d="M297.506,-252.1061C297.506,-252.1061 297.506,-270.991 297.506,-270.991"/>
<polygon fill="#000000" stroke="#000000" points="294.006,-270.9909 297.506,-280.991 301.006,-270.991 294.006,-270.9909"/>
</g>
<!-- BannerService -->
<g id="node4" class="node">
<title>BannerService</title>
<ellipse fill="#fdb462" stroke="#000000" cx="350" cy="-104" rx="67.7548" ry="18"/>
<text text-anchor="middle" x="350" y="-99.8" font-family="Times,serif" font-size="14.00" fill="#000000">BannerService</text>
</g>
<!-- BannerService&#45;&gt;Banner -->
<g id="edge3" class="edge">
<title>BannerService&#45;&gt;Banner</title>
<path fill="none" stroke="#000000" d="M328,-121.078C328,-121.078 328,-140.8993 328,-140.8993"/>
<polygon fill="#000000" stroke="#000000" points="324.5001,-140.8992 328,-150.8993 331.5001,-140.8993 324.5001,-140.8992"/>
</g>
<!-- BannerService&#45;&gt;BannerModule -->
<g id="edge8" class="edge">
<title>BannerService&#45;&gt;BannerModule</title>
<path fill="none" stroke="#000000" d="M365.1066,-121.8034C365.1066,-121.8034 365.1066,-205.9945 365.1066,-205.9945"/>
<polygon fill="#000000" stroke="#000000" points="361.6067,-205.9944 365.1066,-215.9945 368.6067,-205.9945 361.6067,-205.9944"/>
</g>
<!-- StaticIconModule -->
<g id="node5" class="node">
<title>StaticIconModule</title>
<polygon fill="#8dd3c7" stroke="#000000" points="276.309,-187 273.309,-191 252.309,-191 249.309,-187 159.691,-187 159.691,-151 276.309,-151 276.309,-187"/>
<text text-anchor="middle" x="218" y="-164.8" font-family="Times,serif" font-size="14.00" fill="#000000">StaticIconModule</text>
</g>
<!-- StaticIconModule&#45;&gt;BannerModule -->
<g id="edge4" class="edge">
<title>StaticIconModule&#45;&gt;BannerModule</title>
<path fill="none" stroke="#000000" d="M269.5771,-187.0225C269.5771,-204.3734 269.5771,-228 269.5771,-228 269.5771,-228 270.3895,-228 270.3895,-228"/>
<polygon fill="#000000" stroke="#000000" points="267.7006,-231.5001 277.7006,-228 267.7005,-224.5001 267.7006,-231.5001"/>
</g>
<!-- I18nModule -->
<g id="node6" class="node">
<title>I18nModule</title>
<polygon fill="#8dd3c7" stroke="#000000" points="141.7107,-187 138.7107,-191 117.7107,-191 114.7107,-187 56.2893,-187 56.2893,-151 141.7107,-151 141.7107,-187"/>
<text text-anchor="middle" x="99" y="-164.8" font-family="Times,serif" font-size="14.00" fill="#000000">I18nModule</text>
</g>
<!-- I18nModule&#45;&gt;BannerModule -->
<g id="edge5" class="edge">
<title>I18nModule&#45;&gt;BannerModule</title>
<path fill="none" stroke="#000000" d="M99,-187.2843C99,-208.3211 99,-240 99,-240 99,-240 267.745,-240 267.745,-240"/>
<polygon fill="#000000" stroke="#000000" points="267.745,-243.5001 277.745,-240 267.7449,-236.5001 267.745,-243.5001"/>
</g>
</g>
</svg>
