<?xml version="1.0" encoding="UTF-8" standalone="no"?>
<!DOCTYPE svg PUBLIC "-//W3C//DTD SVG 1.1//EN"
 "http://www.w3.org/Graphics/SVG/1.1/DTD/svg11.dtd">
<!-- Generated by graphviz version 2.40.1 (20161225.0304)
 -->
<!-- Title: dependencies Pages: 1 -->
<svg width="1381pt" height="284pt"
 viewBox="0.00 0.00 1381.00 284.00" xmlns="http://www.w3.org/2000/svg" xmlns:xlink="http://www.w3.org/1999/xlink">
<g id="graph0" class="graph" transform="scale(1 1) rotate(0) translate(4 280)">
<title>dependencies</title>
<polygon fill="#ffffff" stroke="transparent" points="-4,4 -4,-280 1377,-280 1377,4 -4,4"/>
<text text-anchor="start" x="665.5091" y="-42.4" font-family="sans-serif" font-weight="bold" font-size="14.00" fill="#000000">Legend</text>
<polygon fill="#ffffb3" stroke="transparent" points="452.5,-10 452.5,-30 472.5,-30 472.5,-10 452.5,-10"/>
<text text-anchor="start" x="476.129" y="-15.4" font-family="sans-serif" font-size="14.00" fill="#000000"> &#160;Declarations</text>
<polygon fill="#8dd3c7" stroke="transparent" points="565.5,-10 565.5,-30 585.5,-30 585.5,-10 565.5,-10"/>
<text text-anchor="start" x="589.2251" y="-15.4" font-family="sans-serif" font-size="14.00" fill="#000000"> &#160;Module</text>
<polygon fill="#80b1d3" stroke="transparent" points="651.5,-10 651.5,-30 671.5,-30 671.5,-10 651.5,-10"/>
<text text-anchor="start" x="675.2812" y="-15.4" font-family="sans-serif" font-size="14.00" fill="#000000"> &#160;Bootstrap</text>
<polygon fill="#fdb462" stroke="transparent" points="748.5,-10 748.5,-30 768.5,-30 768.5,-10 748.5,-10"/>
<text text-anchor="start" x="772.1732" y="-15.4" font-family="sans-serif" font-size="14.00" fill="#000000"> &#160;Providers</text>
<polygon fill="#fb8072" stroke="transparent" points="844.5,-10 844.5,-30 864.5,-30 864.5,-10 844.5,-10"/>
<text text-anchor="start" x="868.2258" y="-15.4" font-family="sans-serif" font-size="14.00" fill="#000000"> &#160;Exports</text>
<g id="clust1" class="cluster">
<title>cluster_TableModule</title>
<polygon fill="none" stroke="#000000" stroke-dasharray="1,5" points="8,-70 8,-268 1365,-268 1365,-70 8,-70"/>
</g>
<g id="clust2" class="cluster">
<title>cluster_TableModule_declarations</title>
<polygon fill="none" stroke="#000000" points="601,-78 601,-130 1357,-130 1357,-78 601,-78"/>
</g>
<g id="clust9" class="cluster">
<title>cluster_TableModule_imports</title>
<polygon fill="none" stroke="#000000" points="16,-78 16,-130 593,-130 593,-78 16,-78"/>
</g>
<g id="clust10" class="cluster">
<title>cluster_TableModule_exports</title>
<polygon fill="none" stroke="#000000" points="219,-208 219,-260 994,-260 994,-208 219,-208"/>
</g>
<!-- DataGridFocus -->
<g id="node1" class="node">
<title>DataGridFocus</title>
<polygon fill="#ffffb3" stroke="#000000" points="1348.5271,-122 1247.4729,-122 1247.4729,-86 1348.5271,-86 1348.5271,-122"/>
<text text-anchor="middle" x="1298" y="-99.8" font-family="Times,serif" font-size="14.00" fill="#000000">DataGridFocus</text>
</g>
<!-- TableModule -->
<g id="node7" class="node">
<title>TableModule</title>
<polygon fill="#8dd3c7" stroke="#000000" points="719.9232,-187 716.9232,-191 695.9232,-191 692.9232,-187 628.0768,-187 628.0768,-151 719.9232,-151 719.9232,-187"/>
<text text-anchor="middle" x="674" y="-164.8" font-family="Times,serif" font-size="14.00" fill="#000000">TableModule</text>
</g>
<!-- DataGridFocus&#45;&gt;TableModule -->
<g id="edge1" class="edge">
<title>DataGridFocus&#45;&gt;TableModule</title>
<path fill="none" stroke="#000000" d="M1298,-122.0267C1298,-142.7672 1298,-174 1298,-174 1298,-174 729.8842,-174 729.8842,-174"/>
<polygon fill="#000000" stroke="#000000" points="729.8842,-170.5001 719.8842,-174 729.8842,-177.5001 729.8842,-170.5001"/>
</g>
<!-- Table -->
<g id="node2" class="node">
<title>Table</title>
<polygon fill="#ffffb3" stroke="#000000" points="1229,-122 1175,-122 1175,-86 1229,-86 1229,-122"/>
<text text-anchor="middle" x="1202" y="-99.8" font-family="Times,serif" font-size="14.00" fill="#000000">Table</text>
</g>
<!-- Table&#45;&gt;TableModule -->
<g id="edge2" class="edge">
<title>Table&#45;&gt;TableModule</title>
<path fill="none" stroke="#000000" d="M1202,-122.1061C1202,-141.3391 1202,-169 1202,-169 1202,-169 729.9329,-169 729.9329,-169"/>
<polygon fill="#000000" stroke="#000000" points="729.9329,-165.5001 719.9329,-169 729.9328,-172.5001 729.9329,-165.5001"/>
</g>
<!-- TableToolbar -->
<g id="node3" class="node">
<title>TableToolbar</title>
<polygon fill="#ffffb3" stroke="#000000" points="1157.191,-122 1064.809,-122 1064.809,-86 1157.191,-86 1157.191,-122"/>
<text text-anchor="middle" x="1111" y="-99.8" font-family="Times,serif" font-size="14.00" fill="#000000">TableToolbar</text>
</g>
<!-- TableToolbar&#45;&gt;TableModule -->
<g id="edge3" class="edge">
<title>TableToolbar&#45;&gt;TableModule</title>
<path fill="none" stroke="#000000" d="M1111,-122.302C1111,-140.2699 1111,-165 1111,-165 1111,-165 729.9407,-165 729.9407,-165"/>
<polygon fill="#000000" stroke="#000000" points="729.9407,-161.5001 719.9407,-165 729.9407,-168.5001 729.9407,-161.5001"/>
</g>
<!-- TableToolbarActions -->
<g id="node4" class="node">
<title>TableToolbarActions</title>
<polygon fill="#ffffb3" stroke="#000000" points="1046.7381,-122 911.2619,-122 911.2619,-86 1046.7381,-86 1046.7381,-122"/>
<text text-anchor="middle" x="979" y="-99.8" font-family="Times,serif" font-size="14.00" fill="#000000">TableToolbarActions</text>
</g>
<!-- TableToolbarActions&#45;&gt;TableModule -->
<g id="edge4" class="edge">
<title>TableToolbarActions&#45;&gt;TableModule</title>
<path fill="none" stroke="#000000" d="M948.3221,-122.027C948.3221,-138.3976 948.3221,-160 948.3221,-160 948.3221,-160 729.9153,-160 729.9153,-160"/>
<polygon fill="#000000" stroke="#000000" points="729.9154,-156.5001 719.9153,-160 729.9153,-163.5001 729.9154,-156.5001"/>
</g>
<!-- TableToolbarContent -->
<g id="node5" class="node">
<title>TableToolbarContent</title>
<polygon fill="#ffffb3" stroke="#000000" points="893.024,-122 756.976,-122 756.976,-86 893.024,-86 893.024,-122"/>
<text text-anchor="middle" x="825" y="-99.8" font-family="Times,serif" font-size="14.00" fill="#000000">TableToolbarContent</text>
</g>
<!-- TableToolbarContent&#45;&gt;TableModule -->
<g id="edge5" class="edge">
<title>TableToolbarContent&#45;&gt;TableModule</title>
<path fill="none" stroke="#000000" d="M773.2919,-122.1871C773.2919,-137.1824 773.2919,-156 773.2919,-156 773.2919,-156 729.8676,-156 729.8676,-156"/>
<polygon fill="#000000" stroke="#000000" points="729.8676,-152.5001 719.8676,-156 729.8675,-159.5001 729.8676,-152.5001"/>
</g>
<!-- TableToolbarSearch -->
<g id="node6" class="node">
<title>TableToolbarSearch</title>
<polygon fill="#ffffb3" stroke="#000000" points="739.2781,-122 608.7219,-122 608.7219,-86 739.2781,-86 739.2781,-122"/>
<text text-anchor="middle" x="674" y="-99.8" font-family="Times,serif" font-size="14.00" fill="#000000">TableToolbarSearch</text>
</g>
<!-- TableToolbarSearch&#45;&gt;TableModule -->
<g id="edge6" class="edge">
<title>TableToolbarSearch&#45;&gt;TableModule</title>
<path fill="none" stroke="#000000" d="M674,-122.1061C674,-122.1061 674,-140.991 674,-140.991"/>
<polygon fill="#000000" stroke="#000000" points="670.5001,-140.9909 674,-150.991 677.5001,-140.991 670.5001,-140.9909"/>
</g>
<!-- DataGridFocus  -->
<g id="node13" class="node">
<title>DataGridFocus </title>
<polygon fill="#fb8072" stroke="#000000" points="985.526,-252 880.474,-252 880.474,-216 985.526,-216 985.526,-252"/>
<text text-anchor="middle" x="933" y="-229.8" font-family="Times,serif" font-size="14.00" fill="#000000">DataGridFocus </text>
</g>
<!-- TableModule&#45;&gt;DataGridFocus  -->
<g id="edge12" class="edge">
<title>TableModule&#45;&gt;DataGridFocus </title>
<path fill="none" stroke="#000000" stroke-dasharray="5,2" d="M719.9285,-178C782.5077,-178 886.8743,-178 886.8743,-178 886.8743,-178 886.8743,-205.973 886.8743,-205.973"/>
<polygon fill="#000000" stroke="#000000" points="883.3744,-205.973 886.8743,-215.973 890.3744,-205.973 883.3744,-205.973"/>
</g>
<!-- Table  -->
<g id="node14" class="node">
<title>Table </title>
<polygon fill="#fb8072" stroke="#000000" points="862,-252 808,-252 808,-216 862,-216 862,-252"/>
<text text-anchor="middle" x="835" y="-229.8" font-family="Times,serif" font-size="14.00" fill="#000000">Table </text>
</g>
<!-- TableModule&#45;&gt;Table  -->
<g id="edge13" class="edge">
<title>TableModule&#45;&gt;Table </title>
<path fill="none" stroke="#000000" stroke-dasharray="5,2" d="M720.1361,-183C767.7113,-183 835,-183 835,-183 835,-183 835,-205.8757 835,-205.8757"/>
<polygon fill="#000000" stroke="#000000" points="831.5001,-205.8757 835,-215.8757 838.5001,-205.8757 831.5001,-205.8757"/>
</g>
<!-- TableToolbar  -->
<g id="node15" class="node">
<title>TableToolbar </title>
<polygon fill="#fb8072" stroke="#000000" points="789.6913,-252 694.3087,-252 694.3087,-216 789.6913,-216 789.6913,-252"/>
<text text-anchor="middle" x="742" y="-229.8" font-family="Times,serif" font-size="14.00" fill="#000000">TableToolbar </text>
</g>
<!-- TableModule&#45;&gt;TableToolbar  -->
<g id="edge14" class="edge">
<title>TableModule&#45;&gt;TableToolbar </title>
<path fill="none" stroke="#000000" stroke-dasharray="5,2" d="M706.9328,-187.1061C706.9328,-187.1061 706.9328,-205.991 706.9328,-205.991"/>
<polygon fill="#000000" stroke="#000000" points="703.4329,-205.9909 706.9328,-215.991 710.4329,-205.991 703.4329,-205.9909"/>
</g>
<!-- TableToolbarActions  -->
<g id="node16" class="node">
<title>TableToolbarActions </title>
<polygon fill="#fb8072" stroke="#000000" points="676.738,-252 537.262,-252 537.262,-216 676.738,-216 676.738,-252"/>
<text text-anchor="middle" x="607" y="-229.8" font-family="Times,serif" font-size="14.00" fill="#000000">TableToolbarActions </text>
</g>
<!-- TableModule&#45;&gt;TableToolbarActions  -->
<g id="edge15" class="edge">
<title>TableModule&#45;&gt;TableToolbarActions </title>
<path fill="none" stroke="#000000" stroke-dasharray="5,2" d="M652.4539,-187.1061C652.4539,-187.1061 652.4539,-205.991 652.4539,-205.991"/>
<polygon fill="#000000" stroke="#000000" points="648.954,-205.9909 652.4539,-215.991 655.954,-205.991 648.954,-205.9909"/>
</g>
<!-- TableToolbarContent  -->
<g id="node17" class="node">
<title>TableToolbarContent </title>
<polygon fill="#fb8072" stroke="#000000" points="519.0232,-252 378.9768,-252 378.9768,-216 519.0232,-216 519.0232,-252"/>
<text text-anchor="middle" x="449" y="-229.8" font-family="Times,serif" font-size="14.00" fill="#000000">TableToolbarContent </text>
</g>
<!-- TableModule&#45;&gt;TableToolbarContent  -->
<g id="edge16" class="edge">
<title>TableModule&#45;&gt;TableToolbarContent </title>
<path fill="none" stroke="#000000" stroke-dasharray="5,2" d="M628.2,-183C577.5752,-183 503.0928,-183 503.0928,-183 503.0928,-183 503.0928,-205.8757 503.0928,-205.8757"/>
<polygon fill="#000000" stroke="#000000" points="499.5928,-205.8757 503.0928,-215.8757 506.5928,-205.8757 499.5928,-205.8757"/>
</g>
<!-- TableToolbarSearch  -->
<g id="node18" class="node">
<title>TableToolbarSearch </title>
<polygon fill="#fb8072" stroke="#000000" points="360.778,-252 227.222,-252 227.222,-216 360.778,-216 360.778,-252"/>
<text text-anchor="middle" x="294" y="-229.8" font-family="Times,serif" font-size="14.00" fill="#000000">TableToolbarSearch </text>
</g>
<!-- TableModule&#45;&gt;TableToolbarSearch  -->
<g id="edge17" class="edge">
<title>TableModule&#45;&gt;TableToolbarSearch </title>
<path fill="none" stroke="#000000" stroke-dasharray="5,2" d="M628.0359,-178C529.7774,-178 308.1546,-178 308.1546,-178 308.1546,-178 308.1546,-205.973 308.1546,-205.973"/>
<polygon fill="#000000" stroke="#000000" points="304.6547,-205.973 308.1546,-215.973 311.6547,-205.973 304.6547,-205.973"/>
</g>
<!-- DialogModule -->
<g id="node8" class="node">
<title>DialogModule</title>
<polygon fill="#8dd3c7" stroke="#000000" points="584.6528,-122 581.6528,-126 560.6528,-126 557.6528,-122 487.3472,-122 487.3472,-86 584.6528,-86 584.6528,-122"/>
<text text-anchor="middle" x="536" y="-99.8" font-family="Times,serif" font-size="14.00" fill="#000000">DialogModule</text>
</g>
<!-- DialogModule&#45;&gt;TableModule -->
<g id="edge7" class="edge">
<title>DialogModule&#45;&gt;TableModule</title>
<path fill="none" stroke="#000000" d="M561.1036,-122.1871C561.1036,-137.1824 561.1036,-156 561.1036,-156 561.1036,-156 618.0807,-156 618.0807,-156"/>
<polygon fill="#000000" stroke="#000000" points="618.0807,-159.5001 628.0807,-156 618.0807,-152.5001 618.0807,-159.5001"/>
</g>
<!-- I18nModule -->
<g id="node9" class="node">
<title>I18nModule</title>
<polygon fill="#8dd3c7" stroke="#000000" points="469.7107,-122 466.7107,-126 445.7107,-126 442.7107,-122 384.2893,-122 384.2893,-86 469.7107,-86 469.7107,-122"/>
<text text-anchor="middle" x="427" y="-99.8" font-family="Times,serif" font-size="14.00" fill="#000000">I18nModule</text>
</g>
<!-- I18nModule&#45;&gt;TableModule -->
<g id="edge8" class="edge">
<title>I18nModule&#45;&gt;TableModule</title>
<path fill="none" stroke="#000000" d="M427,-122.027C427,-138.3976 427,-160 427,-160 427,-160 618.1201,-160 618.1201,-160"/>
<polygon fill="#000000" stroke="#000000" points="618.1201,-163.5001 628.1201,-160 618.12,-156.5001 618.1201,-163.5001"/>
</g>
<!-- IconModule -->
<g id="node10" class="node">
<title>IconModule</title>
<polygon fill="#8dd3c7" stroke="#000000" points="366.4261,-122 363.4261,-126 342.4261,-126 339.4261,-122 281.5739,-122 281.5739,-86 366.4261,-86 366.4261,-122"/>
<text text-anchor="middle" x="324" y="-99.8" font-family="Times,serif" font-size="14.00" fill="#000000">IconModule</text>
</g>
<!-- IconModule&#45;&gt;TableModule -->
<g id="edge9" class="edge">
<title>IconModule&#45;&gt;TableModule</title>
<path fill="none" stroke="#000000" d="M334.5218,-122.302C334.5218,-140.2699 334.5218,-165 334.5218,-165 334.5218,-165 618.2165,-165 618.2165,-165"/>
<polygon fill="#000000" stroke="#000000" points="618.2165,-168.5001 628.2165,-165 618.2164,-161.5001 618.2165,-168.5001"/>
</g>
<!-- NFormsModule -->
<g id="node11" class="node">
<title>NFormsModule</title>
<polygon fill="#8dd3c7" stroke="#000000" points="263.9357,-122 260.9357,-126 239.9357,-126 236.9357,-122 158.0643,-122 158.0643,-86 263.9357,-86 263.9357,-122"/>
<text text-anchor="middle" x="211" y="-99.8" font-family="Times,serif" font-size="14.00" fill="#000000">NFormsModule</text>
</g>
<!-- NFormsModule&#45;&gt;TableModule -->
<g id="edge10" class="edge">
<title>NFormsModule&#45;&gt;TableModule</title>
<path fill="none" stroke="#000000" d="M245.4143,-122.1061C245.4143,-141.3391 245.4143,-169 245.4143,-169 245.4143,-169 618.1338,-169 618.1338,-169"/>
<polygon fill="#000000" stroke="#000000" points="618.1339,-172.5001 628.1338,-169 618.1338,-165.5001 618.1339,-172.5001"/>
</g>
<!-- StaticIconModule -->
<g id="node12" class="node">
<title>StaticIconModule</title>
<polygon fill="#8dd3c7" stroke="#000000" points="140.309,-122 137.309,-126 116.309,-126 113.309,-122 23.691,-122 23.691,-86 140.309,-86 140.309,-122"/>
<text text-anchor="middle" x="82" y="-99.8" font-family="Times,serif" font-size="14.00" fill="#000000">StaticIconModule</text>
</g>
<!-- StaticIconModule&#45;&gt;TableModule -->
<g id="edge11" class="edge">
<title>StaticIconModule&#45;&gt;TableModule</title>
<path fill="none" stroke="#000000" d="M82,-122.0267C82,-142.7672 82,-174 82,-174 82,-174 618.0394,-174 618.0394,-174"/>
<polygon fill="#000000" stroke="#000000" points="618.0394,-177.5001 628.0394,-174 618.0393,-170.5001 618.0394,-177.5001"/>
</g>
</g>
</svg>
