<?xml version="1.0" encoding="UTF-8" standalone="no"?>
<!DOCTYPE svg PUBLIC "-//W3C//DTD SVG 1.1//EN"
 "http://www.w3.org/Graphics/SVG/1.1/DTD/svg11.dtd">
<!-- Generated by graphviz version 2.40.1 (20161225.0304)
 -->
<!-- Title: dependencies Pages: 1 -->
<svg width="695pt" height="284pt"
 viewBox="0.00 0.00 695.00 284.00" xmlns="http://www.w3.org/2000/svg" xmlns:xlink="http://www.w3.org/1999/xlink">
<g id="graph0" class="graph" transform="scale(1 1) rotate(0) translate(4 280)">
<title>dependencies</title>
<polygon fill="#ffffff" stroke="transparent" points="-4,4 -4,-280 691,-280 691,4 -4,4"/>
<text text-anchor="start" x="322.5091" y="-42.4" font-family="sans-serif" font-weight="bold" font-size="14.00" fill="#000000">Legend</text>
<polygon fill="#ffffb3" stroke="transparent" points="109.5,-10 109.5,-30 129.5,-30 129.5,-10 109.5,-10"/>
<text text-anchor="start" x="133.129" y="-15.4" font-family="sans-serif" font-size="14.00" fill="#000000"> &#160;Declarations</text>
<polygon fill="#8dd3c7" stroke="transparent" points="222.5,-10 222.5,-30 242.5,-30 242.5,-10 222.5,-10"/>
<text text-anchor="start" x="246.2251" y="-15.4" font-family="sans-serif" font-size="14.00" fill="#000000"> &#160;Module</text>
<polygon fill="#80b1d3" stroke="transparent" points="308.5,-10 308.5,-30 328.5,-30 328.5,-10 308.5,-10"/>
<text text-anchor="start" x="332.2812" y="-15.4" font-family="sans-serif" font-size="14.00" fill="#000000"> &#160;Bootstrap</text>
<polygon fill="#fdb462" stroke="transparent" points="405.5,-10 405.5,-30 425.5,-30 425.5,-10 405.5,-10"/>
<text text-anchor="start" x="429.1732" y="-15.4" font-family="sans-serif" font-size="14.00" fill="#000000"> &#160;Providers</text>
<polygon fill="#fb8072" stroke="transparent" points="501.5,-10 501.5,-30 521.5,-30 521.5,-10 501.5,-10"/>
<text text-anchor="start" x="525.2258" y="-15.4" font-family="sans-serif" font-size="14.00" fill="#000000"> &#160;Exports</text>
<g id="clust1" class="cluster">
<title>cluster_TableModule</title>
<polygon fill="none" stroke="#000000" stroke-dasharray="1,5" points="8,-70 8,-268 679,-268 679,-70 8,-70"/>
</g>
<g id="clust2" class="cluster">
<title>cluster_TableModule_declarations</title>
<polygon fill="none" stroke="#000000" points="601,-78 601,-130 671,-130 671,-78 601,-78"/>
</g>
<g id="clust4" class="cluster">
<title>cluster_TableModule_imports</title>
<polygon fill="none" stroke="#000000" points="16,-78 16,-130 593,-130 593,-78 16,-78"/>
</g>
<g id="clust5" class="cluster">
<title>cluster_TableModule_exports</title>
<polygon fill="none" stroke="#000000" points="340,-208 340,-260 410,-260 410,-208 340,-208"/>
</g>
<!-- Table -->
<g id="node1" class="node">
<title>Table</title>
<polygon fill="#ffffb3" stroke="#000000" points="663,-122 609,-122 609,-86 663,-86 663,-122"/>
<text text-anchor="middle" x="636" y="-99.8" font-family="Times,serif" font-size="14.00" fill="#000000">Table</text>
</g>
<!-- TableModule -->
<g id="node2" class="node">
<title>TableModule</title>
<polygon fill="#8dd3c7" stroke="#000000" points="420.9232,-187 417.9232,-191 396.9232,-191 393.9232,-187 329.0768,-187 329.0768,-151 420.9232,-151 420.9232,-187"/>
<text text-anchor="middle" x="375" y="-164.8" font-family="Times,serif" font-size="14.00" fill="#000000">TableModule</text>
</g>
<!-- Table&#45;&gt;TableModule -->
<g id="edge1" class="edge">
<title>Table&#45;&gt;TableModule</title>
<path fill="none" stroke="#000000" d="M636,-122.2843C636,-143.3211 636,-175 636,-175 636,-175 430.7614,-175 430.7614,-175"/>
<polygon fill="#000000" stroke="#000000" points="430.7614,-171.5001 420.7614,-175 430.7614,-178.5001 430.7614,-171.5001"/>
</g>
<!-- Table  -->
<g id="node8" class="node">
<title>Table </title>
<polygon fill="#fb8072" stroke="#000000" points="402,-252 348,-252 348,-216 402,-216 402,-252"/>
<text text-anchor="middle" x="375" y="-229.8" font-family="Times,serif" font-size="14.00" fill="#000000">Table </text>
</g>
<!-- TableModule&#45;&gt;Table  -->
<g id="edge7" class="edge">
<title>TableModule&#45;&gt;Table </title>
<path fill="none" stroke="#000000" stroke-dasharray="5,2" d="M375,-187.1061C375,-187.1061 375,-205.991 375,-205.991"/>
<polygon fill="#000000" stroke="#000000" points="371.5001,-205.9909 375,-215.991 378.5001,-205.991 371.5001,-205.9909"/>
</g>
<!-- DialogModule -->
<g id="node3" class="node">
<title>DialogModule</title>
<polygon fill="#8dd3c7" stroke="#000000" points="584.6528,-122 581.6528,-126 560.6528,-126 557.6528,-122 487.3472,-122 487.3472,-86 584.6528,-86 584.6528,-122"/>
<text text-anchor="middle" x="536" y="-99.8" font-family="Times,serif" font-size="14.00" fill="#000000">DialogModule</text>
</g>
<!-- DialogModule&#45;&gt;TableModule -->
<g id="edge2" class="edge">
<title>DialogModule&#45;&gt;TableModule</title>
<path fill="none" stroke="#000000" d="M536,-122.0225C536,-139.3734 536,-163 536,-163 536,-163 431.1361,-163 431.1361,-163"/>
<polygon fill="#000000" stroke="#000000" points="431.1362,-159.5001 421.1361,-163 431.1361,-166.5001 431.1362,-159.5001"/>
</g>
<!-- I18nModule -->
<g id="node4" class="node">
<title>I18nModule</title>
<polygon fill="#8dd3c7" stroke="#000000" points="469.7107,-122 466.7107,-126 445.7107,-126 442.7107,-122 384.2893,-122 384.2893,-86 469.7107,-86 469.7107,-122"/>
<text text-anchor="middle" x="427" y="-99.8" font-family="Times,serif" font-size="14.00" fill="#000000">I18nModule</text>
</g>
<!-- I18nModule&#45;&gt;TableModule -->
<g id="edge3" class="edge">
<title>I18nModule&#45;&gt;TableModule</title>
<path fill="none" stroke="#000000" d="M402.553,-122.1061C402.553,-122.1061 402.553,-140.991 402.553,-140.991"/>
<polygon fill="#000000" stroke="#000000" points="399.053,-140.9909 402.553,-150.991 406.053,-140.991 399.053,-140.9909"/>
</g>
<!-- IconModule -->
<g id="node5" class="node">
<title>IconModule</title>
<polygon fill="#8dd3c7" stroke="#000000" points="366.4261,-122 363.4261,-126 342.4261,-126 339.4261,-122 281.5739,-122 281.5739,-86 366.4261,-86 366.4261,-122"/>
<text text-anchor="middle" x="324" y="-99.8" font-family="Times,serif" font-size="14.00" fill="#000000">IconModule</text>
</g>
<!-- IconModule&#45;&gt;TableModule -->
<g id="edge4" class="edge">
<title>IconModule&#45;&gt;TableModule</title>
<path fill="none" stroke="#000000" d="M347.7507,-122.1061C347.7507,-122.1061 347.7507,-140.991 347.7507,-140.991"/>
<polygon fill="#000000" stroke="#000000" points="344.2508,-140.9909 347.7507,-150.991 351.2508,-140.991 344.2508,-140.9909"/>
</g>
<!-- NFormsModule -->
<g id="node6" class="node">
<title>NFormsModule</title>
<polygon fill="#8dd3c7" stroke="#000000" points="263.9357,-122 260.9357,-126 239.9357,-126 236.9357,-122 158.0643,-122 158.0643,-86 263.9357,-86 263.9357,-122"/>
<text text-anchor="middle" x="211" y="-99.8" font-family="Times,serif" font-size="14.00" fill="#000000">NFormsModule</text>
</g>
<!-- NFormsModule&#45;&gt;TableModule -->
<g id="edge5" class="edge">
<title>NFormsModule&#45;&gt;TableModule</title>
<path fill="none" stroke="#000000" d="M211,-122.0225C211,-139.3734 211,-163 211,-163 211,-163 318.8804,-163 318.8804,-163"/>
<polygon fill="#000000" stroke="#000000" points="318.8805,-166.5001 328.8804,-163 318.8804,-159.5001 318.8805,-166.5001"/>
</g>
<!-- StaticIconModule -->
<g id="node7" class="node">
<title>StaticIconModule</title>
<polygon fill="#8dd3c7" stroke="#000000" points="140.309,-122 137.309,-126 116.309,-126 113.309,-122 23.691,-122 23.691,-86 140.309,-86 140.309,-122"/>
<text text-anchor="middle" x="82" y="-99.8" font-family="Times,serif" font-size="14.00" fill="#000000">StaticIconModule</text>
</g>
<!-- StaticIconModule&#45;&gt;TableModule -->
<g id="edge6" class="edge">
<title>StaticIconModule&#45;&gt;TableModule</title>
<path fill="none" stroke="#000000" d="M82,-122.2843C82,-143.3211 82,-175 82,-175 82,-175 319.2188,-175 319.2188,-175"/>
<polygon fill="#000000" stroke="#000000" points="319.2188,-178.5001 329.2188,-175 319.2187,-171.5001 319.2188,-178.5001"/>
</g>
</g>
</svg>
