<?xml version="1.0" encoding="UTF-8" standalone="no"?>
<!DOCTYPE svg PUBLIC "-//W3C//DTD SVG 1.1//EN"
 "http://www.w3.org/Graphics/SVG/1.1/DTD/svg11.dtd">
<!-- Generated by graphviz version 2.40.1 (20161225.0304)
 -->
<!-- Title: dependencies Pages: 1 -->
<svg width="706pt" height="396pt"
 viewBox="0.00 0.00 706.00 395.59" xmlns="http://www.w3.org/2000/svg" xmlns:xlink="http://www.w3.org/1999/xlink">
<g id="graph0" class="graph" transform="scale(1 1) rotate(0) translate(4 391.5901)">
<title>dependencies</title>
<polygon fill="#ffffff" stroke="transparent" points="-4,4 -4,-391.5901 702,-391.5901 702,4 -4,4"/>
<text text-anchor="start" x="328.0091" y="-42.4" font-family="sans-serif" font-weight="bold" font-size="14.00" fill="#000000">Legend</text>
<polygon fill="#ffffb3" stroke="transparent" points="115,-10 115,-30 135,-30 135,-10 115,-10"/>
<text text-anchor="start" x="138.629" y="-15.4" font-family="sans-serif" font-size="14.00" fill="#000000"> &#160;Declarations</text>
<polygon fill="#8dd3c7" stroke="transparent" points="228,-10 228,-30 248,-30 248,-10 228,-10"/>
<text text-anchor="start" x="251.7251" y="-15.4" font-family="sans-serif" font-size="14.00" fill="#000000"> &#160;Module</text>
<polygon fill="#80b1d3" stroke="transparent" points="314,-10 314,-30 334,-30 334,-10 314,-10"/>
<text text-anchor="start" x="337.7812" y="-15.4" font-family="sans-serif" font-size="14.00" fill="#000000"> &#160;Bootstrap</text>
<polygon fill="#fdb462" stroke="transparent" points="411,-10 411,-30 431,-30 431,-10 411,-10"/>
<text text-anchor="start" x="434.6732" y="-15.4" font-family="sans-serif" font-size="14.00" fill="#000000"> &#160;Providers</text>
<polygon fill="#fb8072" stroke="transparent" points="507,-10 507,-30 527,-30 527,-10 507,-10"/>
<text text-anchor="start" x="530.7258" y="-15.4" font-family="sans-serif" font-size="14.00" fill="#000000"> &#160;Exports</text>
<g id="clust1" class="cluster">
<title>cluster_StructuredListModule</title>
<polygon fill="none" stroke="#000000" stroke-dasharray="1,5" points="8,-70 8,-379.5901 690,-379.5901 690,-70 8,-70"/>
</g>
<g id="clust2" class="cluster">
<title>cluster_StructuredListModule_declarations</title>
<polygon fill="none" stroke="#000000" points="291,-189.5901 291,-241.5901 682,-241.5901 682,-189.5901 291,-189.5901"/>
</g>
<g id="clust6" class="cluster">
<title>cluster_StructuredListModule_StructuredList_providers</title>
<polygon fill="none" stroke="#000000" points="16,-78 16,-176.5901 682,-176.5901 682,-78 16,-78"/>
</g>
<g id="clust8" class="cluster">
<title>cluster_StructuredListModule_exports</title>
<polygon fill="none" stroke="#000000" points="234,-319.5901 234,-371.5901 640,-371.5901 640,-319.5901 234,-319.5901"/>
</g>
<!-- ListColumn -->
<g id="node1" class="node">
<title>ListColumn</title>
<polygon fill="#ffffb3" stroke="#000000" points="674.3963,-233.5901 591.6037,-233.5901 591.6037,-197.5901 674.3963,-197.5901 674.3963,-233.5901"/>
<text text-anchor="middle" x="633" y="-211.3901" font-family="Times,serif" font-size="14.00" fill="#000000">ListColumn</text>
</g>
<!-- StructuredListModule -->
<g id="node5" class="node">
<title>StructuredListModule</title>
<polygon fill="#8dd3c7" stroke="#000000" points="535.6429,-298.5901 532.6429,-302.5901 511.6429,-302.5901 508.6429,-298.5901 396.3571,-298.5901 396.3571,-262.5901 535.6429,-262.5901 535.6429,-298.5901"/>
<text text-anchor="middle" x="466" y="-276.3901" font-family="Times,serif" font-size="14.00" fill="#000000">StructuredListModule</text>
</g>
<!-- ListColumn&#45;&gt;StructuredListModule -->
<g id="edge1" class="edge">
<title>ListColumn&#45;&gt;StructuredListModule</title>
<path fill="none" stroke="#000000" d="M611.875,-233.6962C611.875,-252.9292 611.875,-280.5901 611.875,-280.5901 611.875,-280.5901 545.9467,-280.5901 545.9467,-280.5901"/>
<polygon fill="#000000" stroke="#000000" points="545.9467,-277.0902 535.9467,-280.5901 545.9466,-284.0902 545.9467,-277.0902"/>
</g>
<!-- ListHeader -->
<g id="node2" class="node">
<title>ListHeader</title>
<polygon fill="#ffffb3" stroke="#000000" points="573.1896,-233.5901 494.8104,-233.5901 494.8104,-197.5901 573.1896,-197.5901 573.1896,-233.5901"/>
<text text-anchor="middle" x="534" y="-211.3901" font-family="Times,serif" font-size="14.00" fill="#000000">ListHeader</text>
</g>
<!-- ListHeader&#45;&gt;StructuredListModule -->
<g id="edge2" class="edge">
<title>ListHeader&#45;&gt;StructuredListModule</title>
<path fill="none" stroke="#000000" d="M515.3633,-233.6962C515.3633,-233.6962 515.3633,-252.581 515.3633,-252.581"/>
<polygon fill="#000000" stroke="#000000" points="511.8633,-252.581 515.3633,-262.581 518.8633,-252.5811 511.8633,-252.581"/>
</g>
<!-- ListRow -->
<g id="node3" class="node">
<title>ListRow</title>
<polygon fill="#ffffb3" stroke="#000000" points="477.222,-233.5901 412.778,-233.5901 412.778,-197.5901 477.222,-197.5901 477.222,-233.5901"/>
<text text-anchor="middle" x="445" y="-211.3901" font-family="Times,serif" font-size="14.00" fill="#000000">ListRow</text>
</g>
<!-- ListRow&#45;&gt;StructuredListModule -->
<g id="edge3" class="edge">
<title>ListRow&#45;&gt;StructuredListModule</title>
<path fill="none" stroke="#000000" d="M445,-233.6962C445,-233.6962 445,-252.581 445,-252.581"/>
<polygon fill="#000000" stroke="#000000" points="441.5001,-252.581 445,-262.581 448.5001,-252.5811 441.5001,-252.581"/>
</g>
<!-- StructuredList -->
<g id="node4" class="node">
<title>StructuredList</title>
<polygon fill="#ffffb3" stroke="#000000" points="395.0926,-233.5901 298.9074,-233.5901 298.9074,-197.5901 395.0926,-197.5901 395.0926,-233.5901"/>
<text text-anchor="middle" x="347" y="-211.3901" font-family="Times,serif" font-size="14.00" fill="#000000">StructuredList</text>
</g>
<!-- StructuredList&#45;&gt;StructuredListModule -->
<g id="edge4" class="edge">
<title>StructuredList&#45;&gt;StructuredListModule</title>
<path fill="none" stroke="#000000" d="M395.2902,-215.5901C400.8249,-215.5901 404.534,-215.5901 404.534,-215.5901 404.534,-215.5901 404.534,-252.4839 404.534,-252.4839"/>
<polygon fill="#000000" stroke="#000000" points="401.0341,-252.4839 404.534,-262.4839 408.0341,-252.484 401.0341,-252.4839"/>
</g>
<!-- ListColumn  -->
<g id="node7" class="node">
<title>ListColumn </title>
<polygon fill="#fb8072" stroke="#000000" points="632.3971,-363.5901 545.6029,-363.5901 545.6029,-327.5901 632.3971,-327.5901 632.3971,-363.5901"/>
<text text-anchor="middle" x="589" y="-341.3901" font-family="Times,serif" font-size="14.00" fill="#000000">ListColumn </text>
</g>
<!-- StructuredListModule&#45;&gt;ListColumn  -->
<g id="edge6" class="edge">
<title>StructuredListModule&#45;&gt;ListColumn </title>
<path fill="none" stroke="#000000" stroke-dasharray="5,2" d="M531.833,-298.6962C531.833,-317.9292 531.833,-345.5901 531.833,-345.5901 531.833,-345.5901 535.6715,-345.5901 535.6715,-345.5901"/>
<polygon fill="#000000" stroke="#000000" points="535.6715,-349.0902 545.6715,-345.5901 535.6715,-342.0902 535.6715,-349.0902"/>
</g>
<!-- ListHeader  -->
<g id="node8" class="node">
<title>ListHeader </title>
<polygon fill="#fb8072" stroke="#000000" points="527.69,-363.5901 446.31,-363.5901 446.31,-327.5901 527.69,-327.5901 527.69,-363.5901"/>
<text text-anchor="middle" x="487" y="-341.3901" font-family="Times,serif" font-size="14.00" fill="#000000">ListHeader </text>
</g>
<!-- StructuredListModule&#45;&gt;ListHeader  -->
<g id="edge7" class="edge">
<title>StructuredListModule&#45;&gt;ListHeader </title>
<path fill="none" stroke="#000000" stroke-dasharray="5,2" d="M487,-298.6962C487,-298.6962 487,-317.581 487,-317.581"/>
<polygon fill="#000000" stroke="#000000" points="483.5001,-317.581 487,-327.581 490.5001,-317.5811 483.5001,-317.581"/>
</g>
<!-- ListRow  -->
<g id="node9" class="node">
<title>ListRow </title>
<polygon fill="#fb8072" stroke="#000000" points="427.7222,-363.5901 360.2778,-363.5901 360.2778,-327.5901 427.7222,-327.5901 427.7222,-363.5901"/>
<text text-anchor="middle" x="394" y="-341.3901" font-family="Times,serif" font-size="14.00" fill="#000000">ListRow </text>
</g>
<!-- StructuredListModule&#45;&gt;ListRow  -->
<g id="edge8" class="edge">
<title>StructuredListModule&#45;&gt;ListRow </title>
<path fill="none" stroke="#000000" stroke-dasharray="5,2" d="M412.0198,-298.6962C412.0198,-298.6962 412.0198,-317.581 412.0198,-317.581"/>
<polygon fill="#000000" stroke="#000000" points="408.5199,-317.581 412.0198,-327.581 415.5199,-317.5811 408.5199,-317.581"/>
</g>
<!-- StructuredList  -->
<g id="node10" class="node">
<title>StructuredList </title>
<polygon fill="#fb8072" stroke="#000000" points="341.5934,-363.5901 242.4066,-363.5901 242.4066,-327.5901 341.5934,-327.5901 341.5934,-363.5901"/>
<text text-anchor="middle" x="292" y="-341.3901" font-family="Times,serif" font-size="14.00" fill="#000000">StructuredList </text>
</g>
<!-- StructuredListModule&#45;&gt;StructuredList  -->
<g id="edge9" class="edge">
<title>StructuredListModule&#45;&gt;StructuredList </title>
<path fill="none" stroke="#000000" stroke-dasharray="5,2" d="M396.1732,-280.5901C358.7994,-280.5901 320.375,-280.5901 320.375,-280.5901 320.375,-280.5901 320.375,-317.4839 320.375,-317.4839"/>
<polygon fill="#000000" stroke="#000000" points="316.8751,-317.4839 320.375,-327.4839 323.8751,-317.484 316.8751,-317.4839"/>
</g>
<!-- {
 &#160;&#160;&#160;provide: NG_VALUE_ACCESSOR, useExisting: StructuredList, multi: true
} -->
<g id="node6" class="node">
<title>{
 &#160;&#160;&#160;provide: NG_VALUE_ACCESSOR, useExisting: StructuredList, multi: true
}</title>
<ellipse fill="#fdb462" stroke="#000000" cx="349" cy="-127.295" rx="325.0653" ry="41.0911"/>
<text text-anchor="middle" x="349" y="-139.895" font-family="Times,serif" font-size="14.00" fill="#000000">{</text>
<text text-anchor="middle" x="349" y="-123.095" font-family="Times,serif" font-size="14.00" fill="#000000"> &#160;&#160;&#160;provide: NG_VALUE_ACCESSOR, useExisting: StructuredList, multi: true</text>
<text text-anchor="middle" x="349" y="-106.295" font-family="Times,serif" font-size="14.00" fill="#000000">}</text>
</g>
<!-- {
 &#160;&#160;&#160;provide: NG_VALUE_ACCESSOR, useExisting: StructuredList, multi: true
}&#45;&gt;StructuredList -->
<g id="edge5" class="edge">
<title>{
 &#160;&#160;&#160;provide: NG_VALUE_ACCESSOR, useExisting: StructuredList, multi: true
}&#45;&gt;StructuredList</title>
<path fill="none" stroke="#000000" d="M347,-168.5989C347,-168.5989 347,-187.2551 347,-187.2551"/>
<polygon fill="#000000" stroke="#000000" points="343.5001,-187.255 347,-197.2551 350.5001,-187.2551 343.5001,-187.255"/>
</g>
</g>
</svg>
