<?xml version="1.0" encoding="UTF-8" standalone="no"?>
<!DOCTYPE svg PUBLIC "-//W3C//DTD SVG 1.1//EN"
 "http://www.w3.org/Graphics/SVG/1.1/DTD/svg11.dtd">
<!-- Generated by graphviz version 2.40.1 (20161225.0304)
 -->
<!-- Title: dependencies Pages: 1 -->
<svg width="3444pt" height="284pt"
 viewBox="0.00 0.00 3444.00 284.00" xmlns="http://www.w3.org/2000/svg" xmlns:xlink="http://www.w3.org/1999/xlink">
<g id="graph0" class="graph" transform="scale(1 1) rotate(0) translate(4 280)">
<title>dependencies</title>
<polygon fill="#ffffff" stroke="transparent" points="-4,4 -4,-280 3440,-280 3440,4 -4,4"/>
<text text-anchor="start" x="1697.0091" y="-42.4" font-family="sans-serif" font-weight="bold" font-size="14.00" fill="#000000">Legend</text>
<polygon fill="#ffffb3" stroke="transparent" points="1484,-10 1484,-30 1504,-30 1504,-10 1484,-10"/>
<text text-anchor="start" x="1507.629" y="-15.4" font-family="sans-serif" font-size="14.00" fill="#000000"> &#160;Declarations</text>
<polygon fill="#8dd3c7" stroke="transparent" points="1597,-10 1597,-30 1617,-30 1617,-10 1597,-10"/>
<text text-anchor="start" x="1620.7251" y="-15.4" font-family="sans-serif" font-size="14.00" fill="#000000"> &#160;Module</text>
<polygon fill="#80b1d3" stroke="transparent" points="1683,-10 1683,-30 1703,-30 1703,-10 1683,-10"/>
<text text-anchor="start" x="1706.7812" y="-15.4" font-family="sans-serif" font-size="14.00" fill="#000000"> &#160;Bootstrap</text>
<polygon fill="#fdb462" stroke="transparent" points="1780,-10 1780,-30 1800,-30 1800,-10 1780,-10"/>
<text text-anchor="start" x="1803.6732" y="-15.4" font-family="sans-serif" font-size="14.00" fill="#000000"> &#160;Providers</text>
<polygon fill="#fb8072" stroke="transparent" points="1876,-10 1876,-30 1896,-30 1896,-10 1876,-10"/>
<text text-anchor="start" x="1899.7258" y="-15.4" font-family="sans-serif" font-size="14.00" fill="#000000"> &#160;Exports</text>
<g id="clust1" class="cluster">
<title>cluster_TableModule</title>
<polygon fill="none" stroke="#000000" stroke-dasharray="1,5" points="8,-70 8,-268 3428,-268 3428,-70 8,-70"/>
</g>
<g id="clust2" class="cluster">
<title>cluster_TableModule_declarations</title>
<polygon fill="none" stroke="#000000" points="596,-78 596,-130 3420,-130 3420,-78 596,-78"/>
</g>
<g id="clust25" class="cluster">
<title>cluster_TableModule_imports</title>
<polygon fill="none" stroke="#000000" points="16,-78 16,-130 588,-130 588,-78 16,-78"/>
</g>
<g id="clust26" class="cluster">
<title>cluster_TableModule_exports</title>
<polygon fill="none" stroke="#000000" points="222,-208 222,-260 3122,-260 3122,-208 222,-208"/>
</g>
<!-- DataGridFocus -->
<g id="node1" class="node">
<title>DataGridFocus</title>
<polygon fill="#ffffb3" stroke="#000000" points="3411.5271,-122 3310.4729,-122 3310.4729,-86 3411.5271,-86 3411.5271,-122"/>
<text text-anchor="middle" x="3361" y="-99.8" font-family="Times,serif" font-size="14.00" fill="#000000">DataGridFocus</text>
</g>
<!-- TableModule -->
<g id="node23" class="node">
<title>TableModule</title>
<polygon fill="#8dd3c7" stroke="#000000" points="1843.9232,-187 1840.9232,-191 1819.9232,-191 1816.9232,-187 1752.0768,-187 1752.0768,-151 1843.9232,-151 1843.9232,-187"/>
<text text-anchor="middle" x="1798" y="-164.8" font-family="Times,serif" font-size="14.00" fill="#000000">TableModule</text>
</g>
<!-- DataGridFocus&#45;&gt;TableModule -->
<g id="edge1" class="edge">
<title>DataGridFocus&#45;&gt;TableModule</title>
<path fill="none" stroke="#000000" d="M3361,-122.308C3361,-142.1455 3361,-171 3361,-171 3361,-171 1853.9312,-171 1853.9312,-171"/>
<polygon fill="#000000" stroke="#000000" points="1853.9312,-167.5001 1843.9312,-171 1853.9311,-174.5001 1853.9312,-167.5001"/>
</g>
<!-- ExpandedRowHover -->
<g id="node2" class="node">
<title>ExpandedRowHover</title>
<polygon fill="#ffffb3" stroke="#000000" points="3292.9074,-122 3159.0926,-122 3159.0926,-86 3292.9074,-86 3292.9074,-122"/>
<text text-anchor="middle" x="3226" y="-99.8" font-family="Times,serif" font-size="14.00" fill="#000000">ExpandedRowHover</text>
</g>
<!-- ExpandedRowHover&#45;&gt;TableModule -->
<g id="edge2" class="edge">
<title>ExpandedRowHover&#45;&gt;TableModule</title>
<path fill="none" stroke="#000000" d="M3226,-122.1061C3226,-141.3391 3226,-169 3226,-169 3226,-169 1853.8948,-169 1853.8948,-169"/>
<polygon fill="#000000" stroke="#000000" points="1853.8948,-165.5001 1843.8948,-169 1853.8947,-172.5001 1853.8948,-165.5001"/>
</g>
<!-- Table -->
<g id="node3" class="node">
<title>Table</title>
<polygon fill="#ffffb3" stroke="#000000" points="3141,-122 3087,-122 3087,-86 3141,-86 3141,-122"/>
<text text-anchor="middle" x="3114" y="-99.8" font-family="Times,serif" font-size="14.00" fill="#000000">Table</text>
</g>
<!-- Table&#45;&gt;TableModule -->
<g id="edge3" class="edge">
<title>Table&#45;&gt;TableModule</title>
<path fill="none" stroke="#000000" d="M3100.2565,-122.1686C3100.2565,-141.0898 3100.2565,-168 3100.2565,-168 3100.2565,-168 1853.9655,-168 1853.9655,-168"/>
<polygon fill="#000000" stroke="#000000" points="1853.9655,-164.5001 1843.9655,-168 1853.9655,-171.5001 1853.9655,-164.5001"/>
</g>
<!-- TableBody -->
<g id="node4" class="node">
<title>TableBody</title>
<polygon fill="#ffffb3" stroke="#000000" points="3069.2093,-122 2990.7907,-122 2990.7907,-86 3069.2093,-86 3069.2093,-122"/>
<text text-anchor="middle" x="3030" y="-99.8" font-family="Times,serif" font-size="14.00" fill="#000000">TableBody</text>
</g>
<!-- TableBody&#45;&gt;TableModule -->
<g id="edge4" class="edge">
<title>TableBody&#45;&gt;TableModule</title>
<path fill="none" stroke="#000000" d="M2999.6913,-122.2667C2999.6913,-140.5552 2999.6913,-166 2999.6913,-166 2999.6913,-166 1854.0052,-166 1854.0052,-166"/>
<polygon fill="#000000" stroke="#000000" points="1854.0052,-162.5001 1844.0052,-166 1854.0052,-169.5001 1854.0052,-162.5001"/>
</g>
<!-- TableCheckbox -->
<g id="node5" class="node">
<title>TableCheckbox</title>
<polygon fill="#ffffb3" stroke="#000000" points="2973.1388,-122 2868.8612,-122 2868.8612,-86 2973.1388,-86 2973.1388,-122"/>
<text text-anchor="middle" x="2921" y="-99.8" font-family="Times,serif" font-size="14.00" fill="#000000">TableCheckbox</text>
</g>
<!-- TableCheckbox&#45;&gt;TableModule -->
<g id="edge5" class="edge">
<title>TableCheckbox&#45;&gt;TableModule</title>
<path fill="none" stroke="#000000" d="M2921,-122.302C2921,-140.2699 2921,-165 2921,-165 2921,-165 1853.7646,-165 1853.7646,-165"/>
<polygon fill="#000000" stroke="#000000" points="1853.7646,-161.5001 1843.7646,-165 1853.7645,-168.5001 1853.7646,-161.5001"/>
</g>
<!-- TableContainer -->
<g id="node6" class="node">
<title>TableContainer</title>
<polygon fill="#ffffb3" stroke="#000000" points="2850.58,-122 2747.42,-122 2747.42,-86 2850.58,-86 2850.58,-122"/>
<text text-anchor="middle" x="2799" y="-99.8" font-family="Times,serif" font-size="14.00" fill="#000000">TableContainer</text>
</g>
<!-- TableContainer&#45;&gt;TableModule -->
<g id="edge6" class="edge">
<title>TableContainer&#45;&gt;TableModule</title>
<path fill="none" stroke="#000000" d="M2755.6573,-122.0225C2755.6573,-139.3734 2755.6573,-163 2755.6573,-163 2755.6573,-163 1853.8672,-163 1853.8672,-163"/>
<polygon fill="#000000" stroke="#000000" points="1853.8672,-159.5001 1843.8672,-163 1853.8671,-166.5001 1853.8672,-159.5001"/>
</g>
<!-- TableData -->
<g id="node7" class="node">
<title>TableData</title>
<polygon fill="#ffffb3" stroke="#000000" points="2729.2994,-122 2654.7006,-122 2654.7006,-86 2729.2994,-86 2729.2994,-122"/>
<text text-anchor="middle" x="2692" y="-99.8" font-family="Times,serif" font-size="14.00" fill="#000000">TableData</text>
</g>
<!-- TableData&#45;&gt;TableModule -->
<g id="edge7" class="edge">
<title>TableData&#45;&gt;TableModule</title>
<path fill="none" stroke="#000000" d="M2659.4599,-122.0336C2659.4599,-139.0597 2659.4599,-162 2659.4599,-162 2659.4599,-162 1854.0113,-162 1854.0113,-162"/>
<polygon fill="#000000" stroke="#000000" points="1854.0113,-158.5001 1844.0113,-162 1854.0112,-165.5001 1854.0113,-158.5001"/>
</g>
<!-- TableDirective -->
<g id="node8" class="node">
<title>TableDirective</title>
<polygon fill="#ffffb3" stroke="#000000" points="2636.9552,-122 2537.0448,-122 2537.0448,-86 2636.9552,-86 2636.9552,-122"/>
<text text-anchor="middle" x="2587" y="-99.8" font-family="Times,serif" font-size="14.00" fill="#000000">TableDirective</text>
</g>
<!-- TableDirective&#45;&gt;TableModule -->
<g id="edge8" class="edge">
<title>TableDirective&#45;&gt;TableModule</title>
<path fill="none" stroke="#000000" d="M2547.1105,-122.027C2547.1105,-138.3976 2547.1105,-160 2547.1105,-160 2547.1105,-160 1853.7326,-160 1853.7326,-160"/>
<polygon fill="#000000" stroke="#000000" points="1853.7326,-156.5001 1843.7326,-160 1853.7325,-163.5001 1853.7326,-156.5001"/>
</g>
<!-- TableExpandButton -->
<g id="node9" class="node">
<title>TableExpandButton</title>
<polygon fill="#ffffb3" stroke="#000000" points="2519.2576,-122 2390.7424,-122 2390.7424,-86 2519.2576,-86 2519.2576,-122"/>
<text text-anchor="middle" x="2455" y="-99.8" font-family="Times,serif" font-size="14.00" fill="#000000">TableExpandButton</text>
</g>
<!-- TableExpandButton&#45;&gt;TableModule -->
<g id="edge9" class="edge">
<title>TableExpandButton&#45;&gt;TableModule</title>
<path fill="none" stroke="#000000" d="M2402.2603,-122.0091C2402.2603,-138.0494 2402.2603,-159 2402.2603,-159 2402.2603,-159 1853.9137,-159 1853.9137,-159"/>
<polygon fill="#000000" stroke="#000000" points="1853.9137,-155.5001 1843.9137,-159 1853.9137,-162.5001 1853.9137,-155.5001"/>
</g>
<!-- TableExpandedRow -->
<g id="node10" class="node">
<title>TableExpandedRow</title>
<polygon fill="#ffffb3" stroke="#000000" points="2372.2977,-122 2241.7023,-122 2241.7023,-86 2372.2977,-86 2372.2977,-122"/>
<text text-anchor="middle" x="2307" y="-99.8" font-family="Times,serif" font-size="14.00" fill="#000000">TableExpandedRow</text>
</g>
<!-- TableExpandedRow&#45;&gt;TableModule -->
<g id="edge10" class="edge">
<title>TableExpandedRow&#45;&gt;TableModule</title>
<path fill="none" stroke="#000000" d="M2279.7895,-122.2396C2279.7895,-137.5706 2279.7895,-157 2279.7895,-157 2279.7895,-157 1853.7599,-157 1853.7599,-157"/>
<polygon fill="#000000" stroke="#000000" points="1853.76,-153.5001 1843.7599,-157 1853.7599,-160.5001 1853.76,-153.5001"/>
</g>
<!-- TableHead -->
<g id="node11" class="node">
<title>TableHead</title>
<polygon fill="#ffffb3" stroke="#000000" points="2223.9093,-122 2146.0907,-122 2146.0907,-86 2223.9093,-86 2223.9093,-122"/>
<text text-anchor="middle" x="2185" y="-99.8" font-family="Times,serif" font-size="14.00" fill="#000000">TableHead</text>
</g>
<!-- TableHead&#45;&gt;TableModule -->
<g id="edge11" class="edge">
<title>TableHead&#45;&gt;TableModule</title>
<path fill="none" stroke="#000000" d="M2171.2123,-122.1871C2171.2123,-137.1824 2171.2123,-156 2171.2123,-156 2171.2123,-156 1853.7632,-156 1853.7632,-156"/>
<polygon fill="#000000" stroke="#000000" points="1853.7632,-152.5001 1843.7632,-156 1853.7631,-159.5001 1853.7632,-152.5001"/>
</g>
<!-- TableHeadCell -->
<g id="node12" class="node">
<title>TableHeadCell</title>
<polygon fill="#ffffb3" stroke="#000000" points="2128.2409,-122 2027.7591,-122 2027.7591,-86 2128.2409,-86 2128.2409,-122"/>
<text text-anchor="middle" x="2078" y="-99.8" font-family="Times,serif" font-size="14.00" fill="#000000">TableHeadCell</text>
</g>
<!-- TableHeadCell&#45;&gt;TableModule -->
<g id="edge12" class="edge">
<title>TableHeadCell&#45;&gt;TableModule</title>
<path fill="none" stroke="#000000" d="M2036.7642,-122.0511C2036.7642,-136.373 2036.7642,-154 2036.7642,-154 2036.7642,-154 1853.7536,-154 1853.7536,-154"/>
<polygon fill="#000000" stroke="#000000" points="1853.7537,-150.5001 1843.7536,-154 1853.7536,-157.5001 1853.7537,-150.5001"/>
</g>
<!-- TableHeadCheckbox -->
<g id="node13" class="node">
<title>TableHeadCheckbox</title>
<polygon fill="#ffffb3" stroke="#000000" points="2010.1741,-122 1875.8259,-122 1875.8259,-86 2010.1741,-86 2010.1741,-122"/>
<text text-anchor="middle" x="1943" y="-99.8" font-family="Times,serif" font-size="14.00" fill="#000000">TableHeadCheckbox</text>
</g>
<!-- TableHeadCheckbox&#45;&gt;TableModule -->
<g id="edge13" class="edge">
<title>TableHeadCheckbox&#45;&gt;TableModule</title>
<path fill="none" stroke="#000000" d="M1885.1836,-122.2458C1885.1836,-136.1772 1885.1836,-153 1885.1836,-153 1885.1836,-153 1853.8896,-153 1853.8896,-153"/>
<polygon fill="#000000" stroke="#000000" points="1853.8896,-149.5001 1843.8896,-153 1853.8896,-156.5001 1853.8896,-149.5001"/>
</g>
<!-- TableHeadExpand -->
<g id="node14" class="node">
<title>TableHeadExpand</title>
<polygon fill="#ffffb3" stroke="#000000" points="1858.1755,-122 1737.8245,-122 1737.8245,-86 1858.1755,-86 1858.1755,-122"/>
<text text-anchor="middle" x="1798" y="-99.8" font-family="Times,serif" font-size="14.00" fill="#000000">TableHeadExpand</text>
</g>
<!-- TableHeadExpand&#45;&gt;TableModule -->
<g id="edge14" class="edge">
<title>TableHeadExpand&#45;&gt;TableModule</title>
<path fill="none" stroke="#000000" d="M1798,-122.1061C1798,-122.1061 1798,-140.991 1798,-140.991"/>
<polygon fill="#000000" stroke="#000000" points="1794.5001,-140.9909 1798,-150.991 1801.5001,-140.991 1794.5001,-140.9909"/>
</g>
<!-- TableHeader -->
<g id="node15" class="node">
<title>TableHeader</title>
<polygon fill="#ffffb3" stroke="#000000" points="1720.2839,-122 1631.7161,-122 1631.7161,-86 1720.2839,-86 1720.2839,-122"/>
<text text-anchor="middle" x="1676" y="-99.8" font-family="Times,serif" font-size="14.00" fill="#000000">TableHeader</text>
</g>
<!-- TableHeader&#45;&gt;TableModule -->
<g id="edge15" class="edge">
<title>TableHeader&#45;&gt;TableModule</title>
<path fill="none" stroke="#000000" d="M1705.5107,-122.2458C1705.5107,-136.1772 1705.5107,-153 1705.5107,-153 1705.5107,-153 1742.0263,-153 1742.0263,-153"/>
<polygon fill="#000000" stroke="#000000" points="1742.0263,-156.5001 1752.0263,-153 1742.0263,-149.5001 1742.0263,-156.5001"/>
</g>
<!-- TableHeaderDescription -->
<g id="node16" class="node">
<title>TableHeaderDescription</title>
<polygon fill="#ffffb3" stroke="#000000" points="1613.5967,-122 1460.4033,-122 1460.4033,-86 1613.5967,-86 1613.5967,-122"/>
<text text-anchor="middle" x="1537" y="-99.8" font-family="Times,serif" font-size="14.00" fill="#000000">TableHeaderDescription</text>
</g>
<!-- TableHeaderDescription&#45;&gt;TableModule -->
<g id="edge16" class="edge">
<title>TableHeaderDescription&#45;&gt;TableModule</title>
<path fill="none" stroke="#000000" d="M1574.4806,-122.0511C1574.4806,-136.373 1574.4806,-154 1574.4806,-154 1574.4806,-154 1742.2281,-154 1742.2281,-154"/>
<polygon fill="#000000" stroke="#000000" points="1742.2282,-157.5001 1752.2281,-154 1742.2281,-150.5001 1742.2282,-157.5001"/>
</g>
<!-- TableHeaderTitle -->
<g id="node17" class="node">
<title>TableHeaderTitle</title>
<polygon fill="#ffffb3" stroke="#000000" points="1442.2227,-122 1327.7773,-122 1327.7773,-86 1442.2227,-86 1442.2227,-122"/>
<text text-anchor="middle" x="1385" y="-99.8" font-family="Times,serif" font-size="14.00" fill="#000000">TableHeaderTitle</text>
</g>
<!-- TableHeaderTitle&#45;&gt;TableModule -->
<g id="edge17" class="edge">
<title>TableHeaderTitle&#45;&gt;TableModule</title>
<path fill="none" stroke="#000000" d="M1417.7618,-122.1871C1417.7618,-137.1824 1417.7618,-156 1417.7618,-156 1417.7618,-156 1742.1344,-156 1742.1344,-156"/>
<polygon fill="#000000" stroke="#000000" points="1742.1344,-159.5001 1752.1344,-156 1742.1343,-152.5001 1742.1344,-159.5001"/>
</g>
<!-- TableRowComponent -->
<g id="node18" class="node">
<title>TableRowComponent</title>
<polygon fill="#ffffb3" stroke="#000000" points="1309.6484,-122 1170.3516,-122 1170.3516,-86 1309.6484,-86 1309.6484,-122"/>
<text text-anchor="middle" x="1240" y="-99.8" font-family="Times,serif" font-size="14.00" fill="#000000">TableRowComponent</text>
</g>
<!-- TableRowComponent&#45;&gt;TableModule -->
<g id="edge18" class="edge">
<title>TableRowComponent&#45;&gt;TableModule</title>
<path fill="none" stroke="#000000" d="M1296.4662,-122.2396C1296.4662,-137.5706 1296.4662,-157 1296.4662,-157 1296.4662,-157 1742.1627,-157 1742.1627,-157"/>
<polygon fill="#000000" stroke="#000000" points="1742.1627,-160.5001 1752.1627,-157 1742.1626,-153.5001 1742.1627,-160.5001"/>
</g>
<!-- TableToolbar -->
<g id="node19" class="node">
<title>TableToolbar</title>
<polygon fill="#ffffb3" stroke="#000000" points="1152.191,-122 1059.809,-122 1059.809,-86 1152.191,-86 1152.191,-122"/>
<text text-anchor="middle" x="1106" y="-99.8" font-family="Times,serif" font-size="14.00" fill="#000000">TableToolbar</text>
</g>
<!-- TableToolbar&#45;&gt;TableModule -->
<g id="edge19" class="edge">
<title>TableToolbar&#45;&gt;TableModule</title>
<path fill="none" stroke="#000000" d="M1130.2737,-122.0091C1130.2737,-138.0494 1130.2737,-159 1130.2737,-159 1130.2737,-159 1742.1045,-159 1742.1045,-159"/>
<polygon fill="#000000" stroke="#000000" points="1742.1045,-162.5001 1752.1045,-159 1742.1044,-155.5001 1742.1045,-162.5001"/>
</g>
<!-- TableToolbarActions -->
<g id="node20" class="node">
<title>TableToolbarActions</title>
<polygon fill="#ffffb3" stroke="#000000" points="1041.7381,-122 906.2619,-122 906.2619,-86 1041.7381,-86 1041.7381,-122"/>
<text text-anchor="middle" x="974" y="-99.8" font-family="Times,serif" font-size="14.00" fill="#000000">TableToolbarActions</text>
</g>
<!-- TableToolbarActions&#45;&gt;TableModule -->
<g id="edge20" class="edge">
<title>TableToolbarActions&#45;&gt;TableModule</title>
<path fill="none" stroke="#000000" d="M1006.8789,-122.027C1006.8789,-138.3976 1006.8789,-160 1006.8789,-160 1006.8789,-160 1742.0465,-160 1742.0465,-160"/>
<polygon fill="#000000" stroke="#000000" points="1742.0465,-163.5001 1752.0465,-160 1742.0464,-156.5001 1742.0465,-163.5001"/>
</g>
<!-- TableToolbarContent -->
<g id="node21" class="node">
<title>TableToolbarContent</title>
<polygon fill="#ffffb3" stroke="#000000" points="888.024,-122 751.976,-122 751.976,-86 888.024,-86 888.024,-122"/>
<text text-anchor="middle" x="820" y="-99.8" font-family="Times,serif" font-size="14.00" fill="#000000">TableToolbarContent</text>
</g>
<!-- TableToolbarContent&#45;&gt;TableModule -->
<g id="edge21" class="edge">
<title>TableToolbarContent&#45;&gt;TableModule</title>
<path fill="none" stroke="#000000" d="M849.3438,-122.0336C849.3438,-139.0597 849.3438,-162 849.3438,-162 849.3438,-162 1742.2443,-162 1742.2443,-162"/>
<polygon fill="#000000" stroke="#000000" points="1742.2444,-165.5001 1752.2443,-162 1742.2443,-158.5001 1742.2444,-165.5001"/>
</g>
<!-- TableToolbarSearch -->
<g id="node22" class="node">
<title>TableToolbarSearch</title>
<polygon fill="#ffffb3" stroke="#000000" points="734.2781,-122 603.7219,-122 603.7219,-86 734.2781,-86 734.2781,-122"/>
<text text-anchor="middle" x="669" y="-99.8" font-family="Times,serif" font-size="14.00" fill="#000000">TableToolbarSearch</text>
</g>
<!-- TableToolbarSearch&#45;&gt;TableModule -->
<g id="edge22" class="edge">
<title>TableToolbarSearch&#45;&gt;TableModule</title>
<path fill="none" stroke="#000000" d="M715.6468,-122.0225C715.6468,-139.3734 715.6468,-163 715.6467,-163 715.6467,-163 1742.184,-163 1742.184,-163"/>
<polygon fill="#000000" stroke="#000000" points="1742.184,-166.5001 1752.184,-163 1742.1839,-159.5001 1742.184,-166.5001"/>
</g>
<!-- DataGridFocus  -->
<g id="node29" class="node">
<title>DataGridFocus </title>
<polygon fill="#fb8072" stroke="#000000" points="3113.526,-252 3008.474,-252 3008.474,-216 3113.526,-216 3113.526,-252"/>
<text text-anchor="middle" x="3061" y="-229.8" font-family="Times,serif" font-size="14.00" fill="#000000">DataGridFocus </text>
</g>
<!-- TableModule&#45;&gt;DataGridFocus  -->
<g id="edge28" class="edge">
<title>TableModule&#45;&gt;DataGridFocus </title>
<path fill="none" stroke="#000000" stroke-dasharray="5,2" d="M1844.0034,-172C2068.56,-172 3038.7958,-172 3038.7958,-172 3038.7958,-172 3038.7958,-205.7333 3038.7958,-205.7333"/>
<polygon fill="#000000" stroke="#000000" points="3035.2958,-205.7333 3038.7958,-215.7333 3042.2958,-205.7333 3035.2958,-205.7333"/>
</g>
<!-- ExpandedRowHover  -->
<g id="node30" class="node">
<title>ExpandedRowHover </title>
<polygon fill="#fb8072" stroke="#000000" points="2990.4068,-252 2853.5932,-252 2853.5932,-216 2990.4068,-216 2990.4068,-252"/>
<text text-anchor="middle" x="2922" y="-229.8" font-family="Times,serif" font-size="14.00" fill="#000000">ExpandedRowHover </text>
</g>
<!-- TableModule&#45;&gt;ExpandedRowHover  -->
<g id="edge29" class="edge">
<title>TableModule&#45;&gt;ExpandedRowHover </title>
<path fill="none" stroke="#000000" stroke-dasharray="5,2" d="M1844.0219,-174C2048.0755,-174 2861.1138,-174 2861.1138,-174 2861.1138,-174 2861.1138,-205.998 2861.1138,-205.998"/>
<polygon fill="#000000" stroke="#000000" points="2857.6138,-205.998 2861.1138,-215.998 2864.6138,-205.9981 2857.6138,-205.998"/>
</g>
<!-- Table  -->
<g id="node31" class="node">
<title>Table </title>
<polygon fill="#fb8072" stroke="#000000" points="2836,-252 2782,-252 2782,-216 2836,-216 2836,-252"/>
<text text-anchor="middle" x="2809" y="-229.8" font-family="Times,serif" font-size="14.00" fill="#000000">Table </text>
</g>
<!-- TableModule&#45;&gt;Table  -->
<g id="edge30" class="edge">
<title>TableModule&#45;&gt;Table </title>
<path fill="none" stroke="#000000" stroke-dasharray="5,2" d="M1843.7356,-175C2040.9886,-175 2809,-175 2809,-175 2809,-175 2809,-205.9775 2809,-205.9775"/>
<polygon fill="#000000" stroke="#000000" points="2805.5001,-205.9774 2809,-215.9775 2812.5001,-205.9775 2805.5001,-205.9774"/>
</g>
<!-- TableBody  -->
<g id="node32" class="node">
<title>TableBody </title>
<polygon fill="#fb8072" stroke="#000000" points="2763.7095,-252 2682.2905,-252 2682.2905,-216 2763.7095,-216 2763.7095,-252"/>
<text text-anchor="middle" x="2723" y="-229.8" font-family="Times,serif" font-size="14.00" fill="#000000">TableBody </text>
</g>
<!-- TableModule&#45;&gt;TableBody  -->
<g id="edge31" class="edge">
<title>TableModule&#45;&gt;TableBody </title>
<path fill="none" stroke="#000000" stroke-dasharray="5,2" d="M1843.9448,-177C2028.4537,-177 2705.6475,-177 2705.6475,-177 2705.6475,-177 2705.6475,-205.9648 2705.6475,-205.9648"/>
<polygon fill="#000000" stroke="#000000" points="2702.1475,-205.9648 2705.6475,-215.9648 2709.1475,-205.9649 2702.1475,-205.9648"/>
</g>
<!-- TableCheckbox  -->
<g id="node33" class="node">
<title>TableCheckbox </title>
<polygon fill="#fb8072" stroke="#000000" points="2664.1383,-252 2555.8617,-252 2555.8617,-216 2664.1383,-216 2664.1383,-252"/>
<text text-anchor="middle" x="2610" y="-229.8" font-family="Times,serif" font-size="14.00" fill="#000000">TableCheckbox </text>
</g>
<!-- TableModule&#45;&gt;TableCheckbox  -->
<g id="edge32" class="edge">
<title>TableModule&#45;&gt;TableCheckbox </title>
<path fill="none" stroke="#000000" stroke-dasharray="5,2" d="M1843.7962,-178C2013.4574,-178 2596.4542,-178 2596.4542,-178 2596.4542,-178 2596.4542,-205.973 2596.4542,-205.973"/>
<polygon fill="#000000" stroke="#000000" points="2592.9543,-205.973 2596.4542,-215.973 2599.9543,-205.973 2592.9543,-205.973"/>
</g>
<!-- TableContainer  -->
<g id="node34" class="node">
<title>TableContainer </title>
<polygon fill="#fb8072" stroke="#000000" points="2538.0808,-252 2431.9192,-252 2431.9192,-216 2538.0808,-216 2538.0808,-252"/>
<text text-anchor="middle" x="2485" y="-229.8" font-family="Times,serif" font-size="14.00" fill="#000000">TableContainer </text>
</g>
<!-- TableModule&#45;&gt;TableContainer  -->
<g id="edge33" class="edge">
<title>TableModule&#45;&gt;TableContainer </title>
<path fill="none" stroke="#000000" stroke-dasharray="5,2" d="M1843.7724,-180C1995.9784,-180 2475.5444,-180 2475.5444,-180 2475.5444,-180 2475.5444,-205.7181 2475.5444,-205.7181"/>
<polygon fill="#000000" stroke="#000000" points="2472.0444,-205.718 2475.5444,-215.7181 2479.0444,-205.7181 2472.0444,-205.718"/>
</g>
<!-- TableData  -->
<g id="node35" class="node">
<title>TableData </title>
<polygon fill="#fb8072" stroke="#000000" points="2413.7991,-252 2336.2009,-252 2336.2009,-216 2413.7991,-216 2413.7991,-252"/>
<text text-anchor="middle" x="2375" y="-229.8" font-family="Times,serif" font-size="14.00" fill="#000000">TableData </text>
</g>
<!-- TableModule&#45;&gt;TableData  -->
<g id="edge34" class="edge">
<title>TableModule&#45;&gt;TableData </title>
<path fill="none" stroke="#000000" stroke-dasharray="5,2" d="M1843.9831,-181C1977.2236,-181 2354.1247,-181 2354.1247,-181 2354.1247,-181 2354.1247,-205.7604 2354.1247,-205.7604"/>
<polygon fill="#000000" stroke="#000000" points="2350.6247,-205.7604 2354.1247,-215.7604 2357.6247,-205.7604 2350.6247,-205.7604"/>
</g>
<!-- TableDirective  -->
<g id="node36" class="node">
<title>TableDirective </title>
<polygon fill="#fb8072" stroke="#000000" points="2317.9562,-252 2214.0438,-252 2214.0438,-216 2317.9562,-216 2317.9562,-252"/>
<text text-anchor="middle" x="2266" y="-229.8" font-family="Times,serif" font-size="14.00" fill="#000000">TableDirective </text>
</g>
<!-- TableModule&#45;&gt;TableDirective  -->
<g id="edge35" class="edge">
<title>TableModule&#45;&gt;TableDirective </title>
<path fill="none" stroke="#000000" stroke-dasharray="5,2" d="M1843.8545,-183C1952.9654,-183 2218.9883,-183 2218.9883,-183 2218.9883,-183 2218.9883,-205.8757 2218.9883,-205.8757"/>
<polygon fill="#000000" stroke="#000000" points="2215.4883,-205.8757 2218.9883,-215.8757 2222.4883,-205.8757 2215.4883,-205.8757"/>
</g>
<!-- TableExpandButton  -->
<g id="node37" class="node">
<title>TableExpandButton </title>
<polygon fill="#fb8072" stroke="#000000" points="2196.2577,-252 2063.7423,-252 2063.7423,-216 2196.2577,-216 2196.2577,-252"/>
<text text-anchor="middle" x="2130" y="-229.8" font-family="Times,serif" font-size="14.00" fill="#000000">TableExpandButton </text>
</g>
<!-- TableModule&#45;&gt;TableExpandButton  -->
<g id="edge36" class="edge">
<title>TableModule&#45;&gt;TableExpandButton </title>
<path fill="none" stroke="#000000" stroke-dasharray="5,2" d="M1843.928,-184C1927.5533,-184 2096.1208,-184 2096.1208,-184 2096.1208,-184 2096.1208,-205.9489 2096.1208,-205.9489"/>
<polygon fill="#000000" stroke="#000000" points="2092.6209,-205.9488 2096.1208,-215.9489 2099.6209,-205.9489 2092.6209,-205.9488"/>
</g>
<!-- TableExpandedRow  -->
<g id="node38" class="node">
<title>TableExpandedRow </title>
<polygon fill="#fb8072" stroke="#000000" points="2045.7976,-252 1912.2024,-252 1912.2024,-216 2045.7976,-216 2045.7976,-252"/>
<text text-anchor="middle" x="1979" y="-229.8" font-family="Times,serif" font-size="14.00" fill="#000000">TableExpandedRow </text>
</g>
<!-- TableModule&#45;&gt;TableExpandedRow  -->
<g id="edge37" class="edge">
<title>TableModule&#45;&gt;TableExpandedRow </title>
<path fill="none" stroke="#000000" stroke-dasharray="5,2" d="M1843.8648,-186C1892.104,-186 1961.0942,-186 1961.0942,-186 1961.0942,-186 1961.0942,-205.8533 1961.0942,-205.8533"/>
<polygon fill="#000000" stroke="#000000" points="1957.5942,-205.8532 1961.0942,-215.8533 1964.5942,-205.8533 1957.5942,-205.8532"/>
</g>
<!-- TableHead  -->
<g id="node39" class="node">
<title>TableHead </title>
<polygon fill="#fb8072" stroke="#000000" points="1894.4083,-252 1813.5917,-252 1813.5917,-216 1894.4083,-216 1894.4083,-252"/>
<text text-anchor="middle" x="1854" y="-229.8" font-family="Times,serif" font-size="14.00" fill="#000000">TableHead </text>
</g>
<!-- TableModule&#45;&gt;TableHead  -->
<g id="edge38" class="edge">
<title>TableModule&#45;&gt;TableHead </title>
<path fill="none" stroke="#000000" stroke-dasharray="5,2" d="M1828.6285,-187.1061C1828.6285,-187.1061 1828.6285,-205.991 1828.6285,-205.991"/>
<polygon fill="#000000" stroke="#000000" points="1825.1286,-205.9909 1828.6285,-215.991 1832.1286,-205.991 1825.1286,-205.9909"/>
</g>
<!-- TableHeadCell  -->
<g id="node40" class="node">
<title>TableHeadCell </title>
<polygon fill="#fb8072" stroke="#000000" points="1795.2409,-252 1690.7591,-252 1690.7591,-216 1795.2409,-216 1795.2409,-252"/>
<text text-anchor="middle" x="1743" y="-229.8" font-family="Times,serif" font-size="14.00" fill="#000000">TableHeadCell </text>
</g>
<!-- TableModule&#45;&gt;TableHeadCell  -->
<g id="edge39" class="edge">
<title>TableModule&#45;&gt;TableHeadCell </title>
<path fill="none" stroke="#000000" stroke-dasharray="5,2" d="M1773.7046,-187.1061C1773.7046,-187.1061 1773.7046,-205.991 1773.7046,-205.991"/>
<polygon fill="#000000" stroke="#000000" points="1770.2047,-205.9909 1773.7046,-215.991 1777.2047,-205.991 1770.2047,-205.9909"/>
</g>
<!-- TableHeadCheckbox  -->
<g id="node41" class="node">
<title>TableHeadCheckbox </title>
<polygon fill="#fb8072" stroke="#000000" points="1672.6744,-252 1535.3256,-252 1535.3256,-216 1672.6744,-216 1672.6744,-252"/>
<text text-anchor="middle" x="1604" y="-229.8" font-family="Times,serif" font-size="14.00" fill="#000000">TableHeadCheckbox </text>
</g>
<!-- TableModule&#45;&gt;TableHeadCheckbox  -->
<g id="edge40" class="edge">
<title>TableModule&#45;&gt;TableHeadCheckbox </title>
<path fill="none" stroke="#000000" stroke-dasharray="5,2" d="M1751.9147,-186C1709.2431,-186 1652.3477,-186 1652.3477,-186 1652.3477,-186 1652.3477,-205.8533 1652.3477,-205.8533"/>
<polygon fill="#000000" stroke="#000000" points="1648.8477,-205.8532 1652.3477,-215.8533 1655.8477,-205.8533 1648.8477,-205.8532"/>
</g>
<!-- TableHeadExpand  -->
<g id="node42" class="node">
<title>TableHeadExpand </title>
<polygon fill="#fb8072" stroke="#000000" points="1516.6758,-252 1393.3242,-252 1393.3242,-216 1516.6758,-216 1516.6758,-252"/>
<text text-anchor="middle" x="1455" y="-229.8" font-family="Times,serif" font-size="14.00" fill="#000000">TableHeadExpand </text>
</g>
<!-- TableModule&#45;&gt;TableHeadExpand  -->
<g id="edge41" class="edge">
<title>TableModule&#45;&gt;TableHeadExpand </title>
<path fill="none" stroke="#000000" stroke-dasharray="5,2" d="M1752.0019,-184C1665.7903,-184 1488.5198,-184 1488.5198,-184 1488.5198,-184 1488.5198,-205.9489 1488.5198,-205.9489"/>
<polygon fill="#000000" stroke="#000000" points="1485.0199,-205.9488 1488.5198,-215.9489 1492.0199,-205.9489 1485.0199,-205.9488"/>
</g>
<!-- TableHeader  -->
<g id="node43" class="node">
<title>TableHeader </title>
<polygon fill="#fb8072" stroke="#000000" points="1374.7837,-252 1283.2163,-252 1283.2163,-216 1374.7837,-216 1374.7837,-252"/>
<text text-anchor="middle" x="1329" y="-229.8" font-family="Times,serif" font-size="14.00" fill="#000000">TableHeader </text>
</g>
<!-- TableModule&#45;&gt;TableHeader  -->
<g id="edge42" class="edge">
<title>TableModule&#45;&gt;TableHeader </title>
<path fill="none" stroke="#000000" stroke-dasharray="5,2" d="M1751.8741,-183C1637.7342,-183 1351.2653,-183 1351.2653,-183 1351.2653,-183 1351.2653,-205.8757 1351.2653,-205.8757"/>
<polygon fill="#000000" stroke="#000000" points="1347.7653,-205.8757 1351.2653,-215.8757 1354.7653,-205.8757 1347.7653,-205.8757"/>
</g>
<!-- TableHeaderDescription  -->
<g id="node44" class="node">
<title>TableHeaderDescription </title>
<polygon fill="#fb8072" stroke="#000000" points="1265.5962,-252 1108.4038,-252 1108.4038,-216 1265.5962,-216 1265.5962,-252"/>
<text text-anchor="middle" x="1187" y="-229.8" font-family="Times,serif" font-size="14.00" fill="#000000">TableHeaderDescription </text>
</g>
<!-- TableModule&#45;&gt;TableHeaderDescription  -->
<g id="edge43" class="edge">
<title>TableModule&#45;&gt;TableHeaderDescription </title>
<path fill="none" stroke="#000000" stroke-dasharray="5,2" d="M1751.9926,-181C1614.7777,-181 1217.8621,-181 1217.8621,-181 1217.8621,-181 1217.8621,-205.7604 1217.8621,-205.7604"/>
<polygon fill="#000000" stroke="#000000" points="1214.3621,-205.7604 1217.8621,-215.7604 1221.3621,-205.7604 1214.3621,-205.7604"/>
</g>
<!-- TableHeaderTitle  -->
<g id="node45" class="node">
<title>TableHeaderTitle </title>
<polygon fill="#fb8072" stroke="#000000" points="1090.2226,-252 971.7774,-252 971.7774,-216 1090.2226,-216 1090.2226,-252"/>
<text text-anchor="middle" x="1031" y="-229.8" font-family="Times,serif" font-size="14.00" fill="#000000">TableHeaderTitle </text>
</g>
<!-- TableModule&#45;&gt;TableHeaderTitle  -->
<g id="edge44" class="edge">
<title>TableModule&#45;&gt;TableHeaderTitle </title>
<path fill="none" stroke="#000000" stroke-dasharray="5,2" d="M1752.2251,-180C1593.2967,-180 1075.0079,-180 1075.0079,-180 1075.0079,-180 1075.0079,-205.7181 1075.0079,-205.7181"/>
<polygon fill="#000000" stroke="#000000" points="1071.508,-205.718 1075.0079,-215.7181 1078.508,-205.7181 1071.508,-205.718"/>
</g>
<!-- TableRowComponent  -->
<g id="node46" class="node">
<title>TableRowComponent </title>
<polygon fill="#fb8072" stroke="#000000" points="953.6481,-252 810.3519,-252 810.3519,-216 953.6481,-216 953.6481,-252"/>
<text text-anchor="middle" x="882" y="-229.8" font-family="Times,serif" font-size="14.00" fill="#000000">TableRowComponent </text>
</g>
<!-- TableModule&#45;&gt;TableRowComponent  -->
<g id="edge45" class="edge">
<title>TableModule&#45;&gt;TableRowComponent </title>
<path fill="none" stroke="#000000" stroke-dasharray="5,2" d="M1752.2427,-178C1573.1891,-178 929.8526,-178 929.8526,-178 929.8526,-178 929.8526,-205.973 929.8526,-205.973"/>
<polygon fill="#000000" stroke="#000000" points="926.3526,-205.973 929.8526,-215.973 933.3526,-205.973 926.3526,-205.973"/>
</g>
<!-- TableToolbar  -->
<g id="node47" class="node">
<title>TableToolbar </title>
<polygon fill="#fb8072" stroke="#000000" points="792.6913,-252 697.3087,-252 697.3087,-216 792.6913,-216 792.6913,-252"/>
<text text-anchor="middle" x="745" y="-229.8" font-family="Times,serif" font-size="14.00" fill="#000000">TableToolbar </text>
</g>
<!-- TableModule&#45;&gt;TableToolbar  -->
<g id="edge46" class="edge">
<title>TableModule&#45;&gt;TableToolbar </title>
<path fill="none" stroke="#000000" stroke-dasharray="5,2" d="M1752.2695,-177C1553.2235,-177 772.2919,-177 772.2919,-177 772.2919,-177 772.2919,-205.9648 772.2919,-205.9648"/>
<polygon fill="#000000" stroke="#000000" points="768.792,-205.9648 772.2919,-215.9648 775.792,-205.9649 768.792,-205.9648"/>
</g>
<!-- TableToolbarActions  -->
<g id="node48" class="node">
<title>TableToolbarActions </title>
<polygon fill="#fb8072" stroke="#000000" points="679.738,-252 540.262,-252 540.262,-216 679.738,-216 679.738,-252"/>
<text text-anchor="middle" x="610" y="-229.8" font-family="Times,serif" font-size="14.00" fill="#000000">TableToolbarActions </text>
</g>
<!-- TableModule&#45;&gt;TableToolbarActions  -->
<g id="edge47" class="edge">
<title>TableModule&#45;&gt;TableToolbarActions </title>
<path fill="none" stroke="#000000" stroke-dasharray="5,2" d="M1751.9597,-175C1536.9093,-175 641.74,-175 641.74,-175 641.74,-175 641.74,-205.9775 641.74,-205.9775"/>
<polygon fill="#000000" stroke="#000000" points="638.2401,-205.9774 641.74,-215.9775 645.2401,-205.9775 638.2401,-205.9774"/>
</g>
<!-- TableToolbarContent  -->
<g id="node49" class="node">
<title>TableToolbarContent </title>
<polygon fill="#fb8072" stroke="#000000" points="522.0232,-252 381.9768,-252 381.9768,-216 522.0232,-216 522.0232,-252"/>
<text text-anchor="middle" x="452" y="-229.8" font-family="Times,serif" font-size="14.00" fill="#000000">TableToolbarContent </text>
</g>
<!-- TableModule&#45;&gt;TableToolbarContent  -->
<g id="edge48" class="edge">
<title>TableModule&#45;&gt;TableToolbarContent </title>
<path fill="none" stroke="#000000" stroke-dasharray="5,2" d="M1752.2585,-174C1522.1476,-174 502.0889,-174 502.0889,-174 502.0889,-174 502.0889,-205.998 502.0889,-205.998"/>
<polygon fill="#000000" stroke="#000000" points="498.589,-205.998 502.0889,-215.998 505.589,-205.9981 498.589,-205.998"/>
</g>
<!-- TableToolbarSearch  -->
<g id="node50" class="node">
<title>TableToolbarSearch </title>
<polygon fill="#fb8072" stroke="#000000" points="363.778,-252 230.222,-252 230.222,-216 363.778,-216 363.778,-252"/>
<text text-anchor="middle" x="297" y="-229.8" font-family="Times,serif" font-size="14.00" fill="#000000">TableToolbarSearch </text>
</g>
<!-- TableModule&#45;&gt;TableToolbarSearch  -->
<g id="edge49" class="edge">
<title>TableModule&#45;&gt;TableToolbarSearch </title>
<path fill="none" stroke="#000000" stroke-dasharray="5,2" d="M1752.0674,-172C1506.1425,-172 356.247,-172 356.247,-172 356.247,-172 356.247,-205.7333 356.247,-205.7333"/>
<polygon fill="#000000" stroke="#000000" points="352.747,-205.7333 356.2471,-215.7333 359.747,-205.7333 352.747,-205.7333"/>
</g>
<!-- ButtonModule -->
<g id="node24" class="node">
<title>ButtonModule</title>
<polygon fill="#8dd3c7" stroke="#000000" points="579.6682,-122 576.6682,-126 555.6682,-126 552.6682,-122 482.3318,-122 482.3318,-86 579.6682,-86 579.6682,-122"/>
<text text-anchor="middle" x="531" y="-99.8" font-family="Times,serif" font-size="14.00" fill="#000000">ButtonModule</text>
</g>
<!-- ButtonModule&#45;&gt;TableModule -->
<g id="edge23" class="edge">
<title>ButtonModule&#45;&gt;TableModule</title>
<path fill="none" stroke="#000000" d="M560.1075,-122.302C560.1075,-140.2699 560.1075,-165 560.1075,-165 560.1075,-165 1742.1042,-165 1742.1042,-165"/>
<polygon fill="#000000" stroke="#000000" points="1742.1042,-168.5001 1752.1042,-165 1742.1042,-161.5001 1742.1042,-168.5001"/>
</g>
<!-- DialogModule -->
<g id="node25" class="node">
<title>DialogModule</title>
<polygon fill="#8dd3c7" stroke="#000000" points="463.6528,-122 460.6528,-126 439.6528,-126 436.6528,-122 366.3472,-122 366.3472,-86 463.6528,-86 463.6528,-122"/>
<text text-anchor="middle" x="415" y="-99.8" font-family="Times,serif" font-size="14.00" fill="#000000">DialogModule</text>
</g>
<!-- DialogModule&#45;&gt;TableModule -->
<g id="edge24" class="edge">
<title>DialogModule&#45;&gt;TableModule</title>
<path fill="none" stroke="#000000" d="M422.9073,-122.2667C422.9073,-140.5552 422.9073,-166 422.9073,-166 422.9073,-166 1742.2482,-166 1742.2482,-166"/>
<polygon fill="#000000" stroke="#000000" points="1742.2482,-169.5001 1752.2482,-166 1742.2482,-162.5001 1742.2482,-169.5001"/>
</g>
<!-- I18nModule -->
<g id="node26" class="node">
<title>I18nModule</title>
<polygon fill="#8dd3c7" stroke="#000000" points="348.7107,-122 345.7107,-126 324.7107,-126 321.7107,-122 263.2893,-122 263.2893,-86 348.7107,-86 348.7107,-122"/>
<text text-anchor="middle" x="306" y="-99.8" font-family="Times,serif" font-size="14.00" fill="#000000">I18nModule</text>
</g>
<!-- I18nModule&#45;&gt;TableModule -->
<g id="edge25" class="edge">
<title>I18nModule&#45;&gt;TableModule</title>
<path fill="none" stroke="#000000" d="M306,-122.1686C306,-141.0898 306,-168 306,-168 306,-168 1742.1229,-168 1742.1229,-168"/>
<polygon fill="#000000" stroke="#000000" points="1742.1229,-171.5001 1752.1229,-168 1742.1228,-164.5001 1742.1229,-171.5001"/>
</g>
<!-- NFormsModule -->
<g id="node27" class="node">
<title>NFormsModule</title>
<polygon fill="#8dd3c7" stroke="#000000" points="245.9357,-122 242.9357,-126 221.9357,-126 218.9357,-122 140.0643,-122 140.0643,-86 245.9357,-86 245.9357,-122"/>
<text text-anchor="middle" x="193" y="-99.8" font-family="Times,serif" font-size="14.00" fill="#000000">NFormsModule</text>
</g>
<!-- NFormsModule&#45;&gt;TableModule -->
<g id="edge26" class="edge">
<title>NFormsModule&#45;&gt;TableModule</title>
<path fill="none" stroke="#000000" d="M237.9143,-122.1061C237.9143,-141.3391 237.9143,-169 237.9143,-169 237.9143,-169 1742.1545,-169 1742.1545,-169"/>
<polygon fill="#000000" stroke="#000000" points="1742.1545,-172.5001 1752.1545,-169 1742.1545,-165.5001 1742.1545,-172.5001"/>
</g>
<!-- SearchModule -->
<g id="node28" class="node">
<title>SearchModule</title>
<polygon fill="#8dd3c7" stroke="#000000" points="121.6375,-122 118.6375,-126 97.6375,-126 94.6375,-122 24.3625,-122 24.3625,-86 121.6375,-86 121.6375,-122"/>
<text text-anchor="middle" x="73" y="-99.8" font-family="Times,serif" font-size="14.00" fill="#000000">SearchModule</text>
</g>
<!-- SearchModule&#45;&gt;TableModule -->
<g id="edge27" class="edge">
<title>SearchModule&#45;&gt;TableModule</title>
<path fill="none" stroke="#000000" d="M73,-122.308C73,-142.1455 73,-171 73,-171 73,-171 1741.8604,-171 1741.8604,-171"/>
<polygon fill="#000000" stroke="#000000" points="1741.8605,-174.5001 1751.8604,-171 1741.8604,-167.5001 1741.8605,-174.5001"/>
</g>
</g>
</svg>
