<?xml version="1.0" encoding="UTF-8" standalone="no"?>
<!DOCTYPE svg PUBLIC "-//W3C//DTD SVG 1.1//EN"
 "http://www.w3.org/Graphics/SVG/1.1/DTD/svg11.dtd">
<!-- Generated by graphviz version 2.47.0 (20210316.0004)
 -->
<!-- Title: dependencies Pages: 1 -->
<svg width="594pt" height="284pt"
 viewBox="0.00 0.00 594.00 284.00" xmlns="http://www.w3.org/2000/svg" xmlns:xlink="http://www.w3.org/1999/xlink">
<g id="graph0" class="graph" transform="scale(1 1) rotate(0) translate(4 280)">
<title>dependencies</title>
<polygon fill="white" stroke="transparent" points="-4,4 -4,-280 590,-280 590,4 -4,4"/>
<text text-anchor="start" x="272.01" y="-42.4" font-family="Times-12" font-weight="bold" font-size="14.00">Legend</text>
<polygon fill="#ffffb3" stroke="transparent" points="59,-10 59,-30 79,-30 79,-10 59,-10"/>
<text text-anchor="start" x="82.63" y="-15.4" font-family="Times-12" font-size="14.00"> &#160;Declarations</text>
<polygon fill="#8dd3c7" stroke="transparent" points="172,-10 172,-30 192,-30 192,-10 172,-10"/>
<text text-anchor="start" x="195.73" y="-15.4" font-family="Times-12" font-size="14.00"> &#160;Module</text>
<polygon fill="#80b1d3" stroke="transparent" points="258,-10 258,-30 278,-30 278,-10 258,-10"/>
<text text-anchor="start" x="281.78" y="-15.4" font-family="Times-12" font-size="14.00"> &#160;Bootstrap</text>
<polygon fill="#fdb462" stroke="transparent" points="355,-10 355,-30 375,-30 375,-10 355,-10"/>
<text text-anchor="start" x="378.67" y="-15.4" font-family="Times-12" font-size="14.00"> &#160;Providers</text>
<polygon fill="#fb8072" stroke="transparent" points="451,-10 451,-30 471,-30 471,-10 451,-10"/>
<text text-anchor="start" x="474.73" y="-15.4" font-family="Times-12" font-size="14.00"> &#160;Exports</text>
<g id="clust1" class="cluster">
<title>cluster_ComboButtonModule</title>
<polygon fill="none" stroke="black" stroke-dasharray="1,5" points="8,-70 8,-268 578,-268 578,-70 8,-70"/>
</g>
<g id="clust5" class="cluster">
<title>cluster_ComboButtonModule_exports</title>
<polygon fill="none" stroke="black" points="171,-208 171,-260 351,-260 351,-208 171,-208"/>
</g>
<g id="clust2" class="cluster">
<title>cluster_ComboButtonModule_declarations</title>
<polygon fill="none" stroke="black" points="394,-78 394,-130 570,-130 570,-78 394,-78"/>
</g>
<g id="clust4" class="cluster">
<title>cluster_ComboButtonModule_imports</title>
<polygon fill="none" stroke="black" points="16,-78 16,-130 386,-130 386,-78 16,-78"/>
</g>
<!-- ComboButtonComponent -->
<g id="node1" class="node">
<title>ComboButtonComponent</title>
<polygon fill="#ffffb3" stroke="black" points="562.18,-122 401.82,-122 401.82,-86 562.18,-86 562.18,-122"/>
<text text-anchor="middle" x="482" y="-99.8" font-family="Times,serif" font-size="14.00">ComboButtonComponent</text>
</g>
<!-- ComboButtonModule -->
<g id="node2" class="node">
<title>ComboButtonModule</title>
<polygon fill="#8dd3c7" stroke="black" points="330.39,-187 327.39,-191 306.39,-191 303.39,-187 191.61,-187 191.61,-151 330.39,-151 330.39,-187"/>
<text text-anchor="middle" x="261" y="-164.8" font-family="Times,serif" font-size="14.00">ComboButtonModule</text>
</g>
<!-- ComboButtonComponent&#45;&gt;ComboButtonModule -->
<g id="edge1" class="edge">
<title>ComboButtonComponent&#45;&gt;ComboButtonModule</title>
<path fill="none" stroke="black" d="M482,-122.11C482,-141.34 482,-169 482,-169 482,-169 340.62,-169 340.62,-169"/>
<polygon fill="black" stroke="black" points="340.62,-165.5 330.62,-169 340.62,-172.5 340.62,-165.5"/>
</g>
<!-- ComboButtonComponent  -->
<g id="node6" class="node">
<title>ComboButtonComponent </title>
<polygon fill="#fb8072" stroke="black" points="343.18,-252 178.82,-252 178.82,-216 343.18,-216 343.18,-252"/>
<text text-anchor="middle" x="261" y="-229.8" font-family="Times,serif" font-size="14.00">ComboButtonComponent </text>
</g>
<!-- ComboButtonModule&#45;&gt;ComboButtonComponent  -->
<g id="edge5" class="edge">
<title>ComboButtonModule&#45;&gt;ComboButtonComponent </title>
<path fill="none" stroke="black" stroke-dasharray="5,2" d="M261,-187.11C261,-187.11 261,-205.99 261,-205.99"/>
<polygon fill="black" stroke="black" points="257.5,-205.99 261,-215.99 264.5,-205.99 257.5,-205.99"/>
</g>
<!-- ButtonModule -->
<g id="node3" class="node">
<title>ButtonModule</title>
<polygon fill="#8dd3c7" stroke="black" points="377.67,-122 374.67,-126 353.67,-126 350.67,-122 280.33,-122 280.33,-86 377.67,-86 377.67,-122"/>
<text text-anchor="middle" x="329" y="-99.8" font-family="Times,serif" font-size="14.00">ButtonModule</text>
</g>
<!-- ButtonModule&#45;&gt;ComboButtonModule -->
<g id="edge2" class="edge">
<title>ButtonModule&#45;&gt;ComboButtonModule</title>
<path fill="none" stroke="black" d="M305.31,-122.11C305.31,-122.11 305.31,-140.99 305.31,-140.99"/>
<polygon fill="black" stroke="black" points="301.81,-140.99 305.31,-150.99 308.81,-140.99 301.81,-140.99"/>
</g>
<!-- ContextMenuModule -->
<g id="node4" class="node">
<title>ContextMenuModule</title>
<polygon fill="#8dd3c7" stroke="black" points="262.04,-122 259.04,-126 238.04,-126 235.04,-122 125.96,-122 125.96,-86 262.04,-86 262.04,-122"/>
<text text-anchor="middle" x="194" y="-99.8" font-family="Times,serif" font-size="14.00">ContextMenuModule</text>
</g>
<!-- ContextMenuModule&#45;&gt;ComboButtonModule -->
<g id="edge3" class="edge">
<title>ContextMenuModule&#45;&gt;ComboButtonModule</title>
<path fill="none" stroke="black" d="M226.91,-122.11C226.91,-122.11 226.91,-140.99 226.91,-140.99"/>
<polygon fill="black" stroke="black" points="223.41,-140.99 226.91,-150.99 230.41,-140.99 223.41,-140.99"/>
</g>
<!-- IconModule -->
<g id="node5" class="node">
<title>IconModule</title>
<polygon fill="#8dd3c7" stroke="black" points="108.43,-122 105.43,-126 84.43,-126 81.43,-122 23.57,-122 23.57,-86 108.43,-86 108.43,-122"/>
<text text-anchor="middle" x="66" y="-99.8" font-family="Times,serif" font-size="14.00">IconModule</text>
</g>
<!-- IconModule&#45;&gt;ComboButtonModule -->
<g id="edge4" class="edge">
<title>IconModule&#45;&gt;ComboButtonModule</title>
<path fill="none" stroke="black" d="M66,-122.11C66,-141.34 66,-169 66,-169 66,-169 181.43,-169 181.43,-169"/>
<polygon fill="black" stroke="black" points="181.43,-172.5 191.43,-169 181.43,-165.5 181.43,-172.5"/>
</g>
</g>
</svg>
