<?xml version="1.0" encoding="UTF-8" standalone="no"?>
<!DOCTYPE svg PUBLIC "-//W3C//DTD SVG 1.1//EN"
 "http://www.w3.org/Graphics/SVG/1.1/DTD/svg11.dtd">
<!-- Generated by graphviz version 2.47.0 (20210316.0004)
 -->
<!-- Title: dependencies Pages: 1 -->
<svg width="750pt" height="396pt"
 viewBox="0.00 0.00 750.00 395.59" xmlns="http://www.w3.org/2000/svg" xmlns:xlink="http://www.w3.org/1999/xlink">
<g id="graph0" class="graph" transform="scale(1 1) rotate(0) translate(4 391.59)">
<title>dependencies</title>
<polygon fill="white" stroke="transparent" points="-4,4 -4,-391.59 746,-391.59 746,4 -4,4"/>
<text text-anchor="start" x="350.01" y="-42.4" font-family="Times-12" font-weight="bold" font-size="14.00">Legend</text>
<polygon fill="#ffffb3" stroke="transparent" points="137,-10 137,-30 157,-30 157,-10 137,-10"/>
<text text-anchor="start" x="160.63" y="-15.4" font-family="Times-12" font-size="14.00"> &#160;Declarations</text>
<polygon fill="#8dd3c7" stroke="transparent" points="250,-10 250,-30 270,-30 270,-10 250,-10"/>
<text text-anchor="start" x="273.73" y="-15.4" font-family="Times-12" font-size="14.00"> &#160;Module</text>
<polygon fill="#80b1d3" stroke="transparent" points="336,-10 336,-30 356,-30 356,-10 336,-10"/>
<text text-anchor="start" x="359.78" y="-15.4" font-family="Times-12" font-size="14.00"> &#160;Bootstrap</text>
<polygon fill="#fdb462" stroke="transparent" points="433,-10 433,-30 453,-30 453,-10 433,-10"/>
<text text-anchor="start" x="456.67" y="-15.4" font-family="Times-12" font-size="14.00"> &#160;Providers</text>
<polygon fill="#fb8072" stroke="transparent" points="529,-10 529,-30 549,-30 549,-10 529,-10"/>
<text text-anchor="start" x="552.73" y="-15.4" font-family="Times-12" font-size="14.00"> &#160;Exports</text>
<g id="clust1" class="cluster">
<title>cluster_SliderModule</title>
<polygon fill="none" stroke="black" stroke-dasharray="1,5" points="8,-70 8,-379.59 734,-379.59 734,-70 8,-70"/>
</g>
<g id="clust5" class="cluster">
<title>cluster_SliderModule_exports</title>
<polygon fill="none" stroke="black" points="145,-319.59 145,-371.59 215,-371.59 215,-319.59 145,-319.59"/>
</g>
<g id="clust3" class="cluster">
<title>cluster_SliderModule_Slider_providers</title>
<polygon fill="none" stroke="black" points="126,-78 126,-241.59 726,-241.59 726,-78 126,-78"/>
</g>
<g id="clust4" class="cluster">
<title>cluster_SliderModule_imports</title>
<polygon fill="none" stroke="black" points="16,-189.59 16,-241.59 118,-241.59 118,-189.59 16,-189.59"/>
</g>
<!-- Slider -->
<g id="node1" class="node">
<title>Slider</title>
<polygon fill="#ffffb3" stroke="black" points="320,-233.59 266,-233.59 266,-197.59 320,-197.59 320,-233.59"/>
<text text-anchor="middle" x="293" y="-211.39" font-family="Times,serif" font-size="14.00">Slider</text>
</g>
<!-- SliderModule -->
<g id="node2" class="node">
<title>SliderModule</title>
<polygon fill="#8dd3c7" stroke="black" points="226.49,-298.59 223.49,-302.59 202.49,-302.59 199.49,-298.59 133.51,-298.59 133.51,-262.59 226.49,-262.59 226.49,-298.59"/>
<text text-anchor="middle" x="180" y="-276.39" font-family="Times,serif" font-size="14.00">SliderModule</text>
</g>
<!-- Slider&#45;&gt;SliderModule -->
<g id="edge1" class="edge">
<title>Slider&#45;&gt;SliderModule</title>
<path fill="none" stroke="black" d="M293,-233.7C293,-252.93 293,-280.59 293,-280.59 293,-280.59 236.61,-280.59 236.61,-280.59"/>
<polygon fill="black" stroke="black" points="236.61,-277.09 226.61,-280.59 236.61,-284.09 236.61,-277.09"/>
</g>
<!-- Slider  -->
<g id="node5" class="node">
<title>Slider </title>
<polygon fill="#fb8072" stroke="black" points="207,-363.59 153,-363.59 153,-327.59 207,-327.59 207,-363.59"/>
<text text-anchor="middle" x="180" y="-341.39" font-family="Times,serif" font-size="14.00">Slider </text>
</g>
<!-- SliderModule&#45;&gt;Slider  -->
<g id="edge4" class="edge">
<title>SliderModule&#45;&gt;Slider </title>
<path fill="none" stroke="black" stroke-dasharray="5,2" d="M180,-298.7C180,-298.7 180,-317.58 180,-317.58"/>
<polygon fill="black" stroke="black" points="176.5,-317.58 180,-327.58 183.5,-317.58 176.5,-317.58"/>
</g>
<!-- {
 &#160;&#160;&#160;provide: NG_VALUE_ACCESSOR, useExisting: Slider, multi: true
} -->
<g id="node3" class="node">
<title>{
 &#160;&#160;&#160;provide: NG_VALUE_ACCESSOR, useExisting: Slider, multi: true
}</title>
<ellipse fill="#fdb462" stroke="black" cx="426" cy="-127.3" rx="292.09" ry="41.09"/>
<text text-anchor="middle" x="426" y="-139.9" font-family="Times,serif" font-size="14.00">{</text>
<text text-anchor="middle" x="426" y="-123.1" font-family="Times,serif" font-size="14.00"> &#160;&#160;&#160;provide: NG_VALUE_ACCESSOR, useExisting: Slider, multi: true</text>
<text text-anchor="middle" x="426" y="-106.3" font-family="Times,serif" font-size="14.00">}</text>
</g>
<!-- {
 &#160;&#160;&#160;provide: NG_VALUE_ACCESSOR, useExisting: Slider, multi: true
}&#45;&gt;Slider -->
<g id="edge2" class="edge">
<title>{
 &#160;&#160;&#160;provide: NG_VALUE_ACCESSOR, useExisting: Slider, multi: true
}&#45;&gt;Slider</title>
<path fill="none" stroke="black" d="M293,-164.23C293,-164.23 293,-187.58 293,-187.58"/>
<polygon fill="black" stroke="black" points="289.5,-187.58 293,-197.58 296.5,-187.58 289.5,-187.58"/>
</g>
<!-- UtilsModule -->
<g id="node4" class="node">
<title>UtilsModule</title>
<polygon fill="#8dd3c7" stroke="black" points="110.27,-233.59 107.27,-237.59 86.27,-237.59 83.27,-233.59 23.73,-233.59 23.73,-197.59 110.27,-197.59 110.27,-233.59"/>
<text text-anchor="middle" x="67" y="-211.39" font-family="Times,serif" font-size="14.00">UtilsModule</text>
</g>
<!-- UtilsModule&#45;&gt;SliderModule -->
<g id="edge3" class="edge">
<title>UtilsModule&#45;&gt;SliderModule</title>
<path fill="none" stroke="black" d="M67,-233.7C67,-252.93 67,-280.59 67,-280.59 67,-280.59 123.39,-280.59 123.39,-280.59"/>
<polygon fill="black" stroke="black" points="123.39,-284.09 133.39,-280.59 123.39,-277.09 123.39,-284.09"/>
</g>
</g>
</svg>
