<?xml version="1.0" encoding="UTF-8" standalone="no"?>
<!DOCTYPE svg PUBLIC "-//W3C//DTD SVG 1.1//EN"
 "http://www.w3.org/Graphics/SVG/1.1/DTD/svg11.dtd">
<!-- Generated by graphviz version 2.40.1 (20161225.0304)
 -->
<!-- Title: dependencies Pages: 1 -->
<svg width="504pt" height="284pt"
 viewBox="0.00 0.00 504.00 284.00" xmlns="http://www.w3.org/2000/svg" xmlns:xlink="http://www.w3.org/1999/xlink">
<g id="graph0" class="graph" transform="scale(1 1) rotate(0) translate(4 280)">
<title>dependencies</title>
<polygon fill="#ffffff" stroke="transparent" points="-4,4 -4,-280 500,-280 500,4 -4,4"/>
<text text-anchor="start" x="227.0091" y="-42.4" font-family="sans-serif" font-weight="bold" font-size="14.00" fill="#000000">Legend</text>
<polygon fill="#ffffb3" stroke="transparent" points="14,-10 14,-30 34,-30 34,-10 14,-10"/>
<text text-anchor="start" x="37.629" y="-15.4" font-family="sans-serif" font-size="14.00" fill="#000000"> &#160;Declarations</text>
<polygon fill="#8dd3c7" stroke="transparent" points="127,-10 127,-30 147,-30 147,-10 127,-10"/>
<text text-anchor="start" x="150.7251" y="-15.4" font-family="sans-serif" font-size="14.00" fill="#000000"> &#160;Module</text>
<polygon fill="#80b1d3" stroke="transparent" points="213,-10 213,-30 233,-30 233,-10 213,-10"/>
<text text-anchor="start" x="236.7812" y="-15.4" font-family="sans-serif" font-size="14.00" fill="#000000"> &#160;Bootstrap</text>
<polygon fill="#fdb462" stroke="transparent" points="310,-10 310,-30 330,-30 330,-10 310,-10"/>
<text text-anchor="start" x="333.6732" y="-15.4" font-family="sans-serif" font-size="14.00" fill="#000000"> &#160;Providers</text>
<polygon fill="#fb8072" stroke="transparent" points="406,-10 406,-30 426,-30 426,-10 406,-10"/>
<text text-anchor="start" x="429.7258" y="-15.4" font-family="sans-serif" font-size="14.00" fill="#000000"> &#160;Exports</text>
<g id="clust1" class="cluster">
<title>cluster_LoadingModule</title>
<polygon fill="none" stroke="#000000" stroke-dasharray="1,5" points="146,-70 146,-268 350,-268 350,-70 146,-70"/>
</g>
<g id="clust2" class="cluster">
<title>cluster_LoadingModule_declarations</title>
<polygon fill="none" stroke="#000000" points="264,-78 264,-130 342,-130 342,-78 264,-78"/>
</g>
<g id="clust4" class="cluster">
<title>cluster_LoadingModule_imports</title>
<polygon fill="none" stroke="#000000" points="154,-78 154,-130 256,-130 256,-78 154,-78"/>
</g>
<g id="clust5" class="cluster">
<title>cluster_LoadingModule_exports</title>
<polygon fill="none" stroke="#000000" points="207,-208 207,-260 289,-260 289,-208 207,-208"/>
</g>
<!-- Loading -->
<g id="node1" class="node">
<title>Loading</title>
<polygon fill="#ffffb3" stroke="#000000" points="334.1587,-122 271.8413,-122 271.8413,-86 334.1587,-86 334.1587,-122"/>
<text text-anchor="middle" x="303" y="-99.8" font-family="Times,serif" font-size="14.00" fill="#000000">Loading</text>
</g>
<!-- LoadingModule -->
<g id="node2" class="node">
<title>LoadingModule</title>
<polygon fill="#8dd3c7" stroke="#000000" points="301.2078,-187 298.2078,-191 277.2078,-191 274.2078,-187 194.7922,-187 194.7922,-151 301.2078,-151 301.2078,-187"/>
<text text-anchor="middle" x="248" y="-164.8" font-family="Times,serif" font-size="14.00" fill="#000000">LoadingModule</text>
</g>
<!-- Loading&#45;&gt;LoadingModule -->
<g id="edge1" class="edge">
<title>Loading&#45;&gt;LoadingModule</title>
<path fill="none" stroke="#000000" d="M286.3875,-122.1061C286.3875,-122.1061 286.3875,-140.991 286.3875,-140.991"/>
<polygon fill="#000000" stroke="#000000" points="282.8875,-140.9909 286.3875,-150.991 289.8875,-140.991 282.8875,-140.9909"/>
</g>
<!-- Loading  -->
<g id="node4" class="node">
<title>Loading </title>
<polygon fill="#fb8072" stroke="#000000" points="281.158,-252 214.842,-252 214.842,-216 281.158,-216 281.158,-252"/>
<text text-anchor="middle" x="248" y="-229.8" font-family="Times,serif" font-size="14.00" fill="#000000">Loading </text>
</g>
<!-- LoadingModule&#45;&gt;Loading  -->
<g id="edge3" class="edge">
<title>LoadingModule&#45;&gt;Loading </title>
<path fill="none" stroke="#000000" stroke-dasharray="5,2" d="M248,-187.1061C248,-187.1061 248,-205.991 248,-205.991"/>
<polygon fill="#000000" stroke="#000000" points="244.5001,-205.9909 248,-215.991 251.5001,-205.991 244.5001,-205.9909"/>
</g>
<!-- I18nModule -->
<g id="node3" class="node">
<title>I18nModule</title>
<polygon fill="#8dd3c7" stroke="#000000" points="247.7107,-122 244.7107,-126 223.7107,-126 220.7107,-122 162.2893,-122 162.2893,-86 247.7107,-86 247.7107,-122"/>
<text text-anchor="middle" x="205" y="-99.8" font-family="Times,serif" font-size="14.00" fill="#000000">I18nModule</text>
</g>
<!-- I18nModule&#45;&gt;LoadingModule -->
<g id="edge2" class="edge">
<title>I18nModule&#45;&gt;LoadingModule</title>
<path fill="none" stroke="#000000" d="M221.2507,-122.1061C221.2507,-122.1061 221.2507,-140.991 221.2507,-140.991"/>
<polygon fill="#000000" stroke="#000000" points="217.7508,-140.9909 221.2507,-150.991 224.7508,-140.991 217.7508,-140.9909"/>
</g>
</g>
</svg>
