<?xml version="1.0" encoding="UTF-8" standalone="no"?>
<!DOCTYPE svg PUBLIC "-//W3C//DTD SVG 1.1//EN"
 "http://www.w3.org/Graphics/SVG/1.1/DTD/svg11.dtd">
<!-- Generated by graphviz version 2.40.1 (20161225.0304)
 -->
<!-- Title: dependencies Pages: 1 -->
<svg width="658pt" height="396pt"
 viewBox="0.00 0.00 658.00 395.59" xmlns="http://www.w3.org/2000/svg" xmlns:xlink="http://www.w3.org/1999/xlink">
<g id="graph0" class="graph" transform="scale(1 1) rotate(0) translate(4 391.5901)">
<title>dependencies</title>
<polygon fill="#ffffff" stroke="transparent" points="-4,4 -4,-391.5901 654,-391.5901 654,4 -4,4"/>
<text text-anchor="start" x="304.0091" y="-42.4" font-family="sans-serif" font-weight="bold" font-size="14.00" fill="#000000">Legend</text>
<polygon fill="#ffffb3" stroke="transparent" points="91,-10 91,-30 111,-30 111,-10 91,-10"/>
<text text-anchor="start" x="114.629" y="-15.4" font-family="sans-serif" font-size="14.00" fill="#000000"> &#160;Declarations</text>
<polygon fill="#8dd3c7" stroke="transparent" points="204,-10 204,-30 224,-30 224,-10 204,-10"/>
<text text-anchor="start" x="227.7251" y="-15.4" font-family="sans-serif" font-size="14.00" fill="#000000"> &#160;Module</text>
<polygon fill="#80b1d3" stroke="transparent" points="290,-10 290,-30 310,-30 310,-10 290,-10"/>
<text text-anchor="start" x="313.7812" y="-15.4" font-family="sans-serif" font-size="14.00" fill="#000000"> &#160;Bootstrap</text>
<polygon fill="#fdb462" stroke="transparent" points="387,-10 387,-30 407,-30 407,-10 387,-10"/>
<text text-anchor="start" x="410.6732" y="-15.4" font-family="sans-serif" font-size="14.00" fill="#000000"> &#160;Providers</text>
<polygon fill="#fb8072" stroke="transparent" points="483,-10 483,-30 503,-30 503,-10 483,-10"/>
<text text-anchor="start" x="506.7258" y="-15.4" font-family="sans-serif" font-size="14.00" fill="#000000"> &#160;Exports</text>
<g id="clust1" class="cluster">
<title>cluster_NumberModule</title>
<polygon fill="none" stroke="#000000" stroke-dasharray="1,5" points="8,-70 8,-379.5901 642,-379.5901 642,-70 8,-70"/>
</g>
<g id="clust2" class="cluster">
<title>cluster_NumberModule_declarations</title>
<polygon fill="none" stroke="#000000" points="286,-189.5901 286,-241.5901 364,-241.5901 364,-189.5901 286,-189.5901"/>
</g>
<g id="clust3" class="cluster">
<title>cluster_NumberModule_Number_providers</title>
<polygon fill="none" stroke="#000000" points="16,-78 16,-176.5901 634,-176.5901 634,-78 16,-78"/>
</g>
<g id="clust5" class="cluster">
<title>cluster_NumberModule_exports</title>
<polygon fill="none" stroke="#000000" points="284,-319.5901 284,-371.5901 366,-371.5901 366,-319.5901 284,-319.5901"/>
</g>
<!-- Number -->
<g id="node1" class="node">
<title>Number</title>
<polygon fill="#ffffb3" stroke="#000000" points="355.8725,-233.5901 294.1275,-233.5901 294.1275,-197.5901 355.8725,-197.5901 355.8725,-233.5901"/>
<text text-anchor="middle" x="325" y="-211.3901" font-family="Times,serif" font-size="14.00" fill="#000000">Number</text>
</g>
<!-- NumberModule -->
<g id="node2" class="node">
<title>NumberModule</title>
<polygon fill="#8dd3c7" stroke="#000000" points="377.923,-298.5901 374.923,-302.5901 353.923,-302.5901 350.923,-298.5901 272.077,-298.5901 272.077,-262.5901 377.923,-262.5901 377.923,-298.5901"/>
<text text-anchor="middle" x="325" y="-276.3901" font-family="Times,serif" font-size="14.00" fill="#000000">NumberModule</text>
</g>
<!-- Number&#45;&gt;NumberModule -->
<g id="edge1" class="edge">
<title>Number&#45;&gt;NumberModule</title>
<path fill="none" stroke="#000000" d="M325,-233.6962C325,-233.6962 325,-252.581 325,-252.581"/>
<polygon fill="#000000" stroke="#000000" points="321.5001,-252.581 325,-262.581 328.5001,-252.5811 321.5001,-252.581"/>
</g>
<!-- Number  -->
<g id="node4" class="node">
<title>Number </title>
<polygon fill="#fb8072" stroke="#000000" points="357.8735,-363.5901 292.1265,-363.5901 292.1265,-327.5901 357.8735,-327.5901 357.8735,-363.5901"/>
<text text-anchor="middle" x="325" y="-341.3901" font-family="Times,serif" font-size="14.00" fill="#000000">Number </text>
</g>
<!-- NumberModule&#45;&gt;Number  -->
<g id="edge3" class="edge">
<title>NumberModule&#45;&gt;Number </title>
<path fill="none" stroke="#000000" stroke-dasharray="5,2" d="M325,-298.6962C325,-298.6962 325,-317.581 325,-317.581"/>
<polygon fill="#000000" stroke="#000000" points="321.5001,-317.581 325,-327.581 328.5001,-317.5811 321.5001,-317.581"/>
</g>
<!-- {
 &#160;&#160;&#160;provide: NG_VALUE_ACCESSOR, useExisting: Number, multi: true
} -->
<g id="node3" class="node">
<title>{
 &#160;&#160;&#160;provide: NG_VALUE_ACCESSOR, useExisting: Number, multi: true
}</title>
<ellipse fill="#fdb462" stroke="#000000" cx="325" cy="-127.295" rx="300.6707" ry="41.0911"/>
<text text-anchor="middle" x="325" y="-139.895" font-family="Times,serif" font-size="14.00" fill="#000000">{</text>
<text text-anchor="middle" x="325" y="-123.095" font-family="Times,serif" font-size="14.00" fill="#000000"> &#160;&#160;&#160;provide: NG_VALUE_ACCESSOR, useExisting: Number, multi: true</text>
<text text-anchor="middle" x="325" y="-106.295" font-family="Times,serif" font-size="14.00" fill="#000000">}</text>
</g>
<!-- {
 &#160;&#160;&#160;provide: NG_VALUE_ACCESSOR, useExisting: Number, multi: true
}&#45;&gt;Number -->
<g id="edge2" class="edge">
<title>{
 &#160;&#160;&#160;provide: NG_VALUE_ACCESSOR, useExisting: Number, multi: true
}&#45;&gt;Number</title>
<path fill="none" stroke="#000000" d="M325,-168.5989C325,-168.5989 325,-187.2551 325,-187.2551"/>
<polygon fill="#000000" stroke="#000000" points="321.5001,-187.255 325,-197.2551 328.5001,-187.2551 321.5001,-187.255"/>
</g>
</g>
</svg>
