<?xml version="1.0" encoding="UTF-8" standalone="no"?>
<!DOCTYPE svg PUBLIC "-//W3C//DTD SVG 1.1//EN"
 "http://www.w3.org/Graphics/SVG/1.1/DTD/svg11.dtd">
<!-- Generated by graphviz version 2.40.1 (20161225.0304)
 -->
<!-- Title: dependencies Pages: 1 -->
<svg width="504pt" height="396pt"
 viewBox="0.00 0.00 504.00 395.59" xmlns="http://www.w3.org/2000/svg" xmlns:xlink="http://www.w3.org/1999/xlink">
<g id="graph0" class="graph" transform="scale(1 1) rotate(0) translate(4 391.5901)">
<title>dependencies</title>
<polygon fill="#ffffff" stroke="transparent" points="-4,4 -4,-391.5901 500,-391.5901 500,4 -4,4"/>
<text text-anchor="start" x="227.0091" y="-42.4" font-family="sans-serif" font-weight="bold" font-size="14.00" fill="#000000">Legend</text>
<polygon fill="#ffffb3" stroke="transparent" points="14,-10 14,-30 34,-30 34,-10 14,-10"/>
<text text-anchor="start" x="37.629" y="-15.4" font-family="sans-serif" font-size="14.00" fill="#000000"> &#160;Declarations</text>
<polygon fill="#8dd3c7" stroke="transparent" points="127,-10 127,-30 147,-30 147,-10 127,-10"/>
<text text-anchor="start" x="150.7251" y="-15.4" font-family="sans-serif" font-size="14.00" fill="#000000"> &#160;Module</text>
<polygon fill="#80b1d3" stroke="transparent" points="213,-10 213,-30 233,-30 233,-10 213,-10"/>
<text text-anchor="start" x="236.7812" y="-15.4" font-family="sans-serif" font-size="14.00" fill="#000000"> &#160;Bootstrap</text>
<polygon fill="#fdb462" stroke="transparent" points="310,-10 310,-30 330,-30 330,-10 310,-10"/>
<text text-anchor="start" x="333.6732" y="-15.4" font-family="sans-serif" font-size="14.00" fill="#000000"> &#160;Providers</text>
<polygon fill="#fb8072" stroke="transparent" points="406,-10 406,-30 426,-30 426,-10 406,-10"/>
<text text-anchor="start" x="429.7258" y="-15.4" font-family="sans-serif" font-size="14.00" fill="#000000"> &#160;Exports</text>
<g id="clust1" class="cluster">
<title>cluster_SearchModule</title>
<polygon fill="none" stroke="#000000" stroke-dasharray="1,5" points="150,-70 150,-379.5901 346,-379.5901 346,-70 150,-70"/>
</g>
<g id="clust2" class="cluster">
<title>cluster_SearchModule_declarations</title>
<polygon fill="none" stroke="#000000" points="268,-189.5901 268,-241.5901 338,-241.5901 338,-189.5901 268,-189.5901"/>
</g>
<g id="clust3" class="cluster">
<title>cluster_SearchModule_Search_providers</title>
<polygon fill="none" stroke="#000000" points="198,-78 198,-176.5901 338,-176.5901 338,-78 198,-78"/>
</g>
<g id="clust4" class="cluster">
<title>cluster_SearchModule_imports</title>
<polygon fill="none" stroke="#000000" points="158,-189.5901 158,-241.5901 260,-241.5901 260,-189.5901 158,-189.5901"/>
</g>
<g id="clust5" class="cluster">
<title>cluster_SearchModule_exports</title>
<polygon fill="none" stroke="#000000" points="212,-319.5901 212,-371.5901 286,-371.5901 286,-319.5901 212,-319.5901"/>
</g>
<!-- Search -->
<g id="node1" class="node">
<title>Search</title>
<polygon fill="#ffffb3" stroke="#000000" points="330.0871,-233.5901 275.9129,-233.5901 275.9129,-197.5901 330.0871,-197.5901 330.0871,-233.5901"/>
<text text-anchor="middle" x="303" y="-211.3901" font-family="Times,serif" font-size="14.00" fill="#000000">Search</text>
</g>
<!-- SearchModule -->
<g id="node2" class="node">
<title>SearchModule</title>
<polygon fill="#8dd3c7" stroke="#000000" points="297.6375,-298.5901 294.6375,-302.5901 273.6375,-302.5901 270.6375,-298.5901 200.3625,-298.5901 200.3625,-262.5901 297.6375,-262.5901 297.6375,-298.5901"/>
<text text-anchor="middle" x="249" y="-276.3901" font-family="Times,serif" font-size="14.00" fill="#000000">SearchModule</text>
</g>
<!-- Search&#45;&gt;SearchModule -->
<g id="edge1" class="edge">
<title>Search&#45;&gt;SearchModule</title>
<path fill="none" stroke="#000000" d="M286.8875,-233.6962C286.8875,-233.6962 286.8875,-252.581 286.8875,-252.581"/>
<polygon fill="#000000" stroke="#000000" points="283.3875,-252.581 286.8875,-262.581 290.3875,-252.5811 283.3875,-252.581"/>
</g>
<!-- Search  -->
<g id="node5" class="node">
<title>Search </title>
<polygon fill="#fb8072" stroke="#000000" points="277.5885,-363.5901 220.4115,-363.5901 220.4115,-327.5901 277.5885,-327.5901 277.5885,-363.5901"/>
<text text-anchor="middle" x="249" y="-341.3901" font-family="Times,serif" font-size="14.00" fill="#000000">Search </text>
</g>
<!-- SearchModule&#45;&gt;Search  -->
<g id="edge4" class="edge">
<title>SearchModule&#45;&gt;Search </title>
<path fill="none" stroke="#000000" stroke-dasharray="5,2" d="M249,-298.6962C249,-298.6962 249,-317.581 249,-317.581"/>
<polygon fill="#000000" stroke="#000000" points="245.5001,-317.581 249,-327.581 252.5001,-317.5811 245.5001,-317.581"/>
</g>
<!-- {
 &#160;&#160;&#160;: , : , : true
} -->
<g id="node3" class="node">
<title>{
 &#160;&#160;&#160;: , : , : true
}</title>
<ellipse fill="#fdb462" stroke="#000000" cx="268" cy="-127.295" rx="62.3631" ry="41.0911"/>
<text text-anchor="middle" x="268" y="-139.895" font-family="Times,serif" font-size="14.00" fill="#000000">{</text>
<text text-anchor="middle" x="268" y="-123.095" font-family="Times,serif" font-size="14.00" fill="#000000"> &#160;&#160;&#160;: , : , : true</text>
<text text-anchor="middle" x="268" y="-106.295" font-family="Times,serif" font-size="14.00" fill="#000000">}</text>
</g>
<!-- {
 &#160;&#160;&#160;: , : , : true
}&#45;&gt;Search -->
<g id="edge2" class="edge">
<title>{
 &#160;&#160;&#160;: , : , : true
}&#45;&gt;Search</title>
<path fill="none" stroke="#000000" d="M303,-161.4322C303,-161.4322 303,-187.3371 303,-187.3371"/>
<polygon fill="#000000" stroke="#000000" points="299.5001,-187.3371 303,-197.3371 306.5001,-187.3372 299.5001,-187.3371"/>
</g>
<!-- I18nModule -->
<g id="node4" class="node">
<title>I18nModule</title>
<polygon fill="#8dd3c7" stroke="#000000" points="251.7107,-233.5901 248.7107,-237.5901 227.7107,-237.5901 224.7107,-233.5901 166.2893,-233.5901 166.2893,-197.5901 251.7107,-197.5901 251.7107,-233.5901"/>
<text text-anchor="middle" x="209" y="-211.3901" font-family="Times,serif" font-size="14.00" fill="#000000">I18nModule</text>
</g>
<!-- I18nModule&#45;&gt;SearchModule -->
<g id="edge3" class="edge">
<title>I18nModule&#45;&gt;SearchModule</title>
<path fill="none" stroke="#000000" d="M225.8934,-233.6962C225.8934,-233.6962 225.8934,-252.581 225.8934,-252.581"/>
<polygon fill="#000000" stroke="#000000" points="222.3935,-252.581 225.8934,-262.581 229.3935,-252.5811 222.3935,-252.581"/>
</g>
</g>
</svg>
