<?xml version="1.0" encoding="UTF-8" standalone="no"?>
<!DOCTYPE svg PUBLIC "-//W3C//DTD SVG 1.1//EN"
 "http://www.w3.org/Graphics/SVG/1.1/DTD/svg11.dtd">
<!-- Generated by graphviz version 2.47.0 (20210316.0004)
 -->
<!-- Title: dependencies Pages: 1 -->
<svg width="1063pt" height="396pt"
 viewBox="0.00 0.00 1063.00 395.59" xmlns="http://www.w3.org/2000/svg" xmlns:xlink="http://www.w3.org/1999/xlink">
<g id="graph0" class="graph" transform="scale(1 1) rotate(0) translate(4 391.59)">
<title>dependencies</title>
<polygon fill="white" stroke="transparent" points="-4,4 -4,-391.59 1059,-391.59 1059,4 -4,4"/>
<text text-anchor="start" x="506.51" y="-42.4" font-family="Times-12" font-weight="bold" font-size="14.00">Legend</text>
<polygon fill="#ffffb3" stroke="transparent" points="293.5,-10 293.5,-30 313.5,-30 313.5,-10 293.5,-10"/>
<text text-anchor="start" x="317.13" y="-15.4" font-family="Times-12" font-size="14.00"> &#160;Declarations</text>
<polygon fill="#8dd3c7" stroke="transparent" points="406.5,-10 406.5,-30 426.5,-30 426.5,-10 406.5,-10"/>
<text text-anchor="start" x="430.23" y="-15.4" font-family="Times-12" font-size="14.00"> &#160;Module</text>
<polygon fill="#80b1d3" stroke="transparent" points="492.5,-10 492.5,-30 512.5,-30 512.5,-10 492.5,-10"/>
<text text-anchor="start" x="516.28" y="-15.4" font-family="Times-12" font-size="14.00"> &#160;Bootstrap</text>
<polygon fill="#fdb462" stroke="transparent" points="589.5,-10 589.5,-30 609.5,-30 609.5,-10 589.5,-10"/>
<text text-anchor="start" x="613.17" y="-15.4" font-family="Times-12" font-size="14.00"> &#160;Providers</text>
<polygon fill="#fb8072" stroke="transparent" points="685.5,-10 685.5,-30 705.5,-30 705.5,-10 685.5,-10"/>
<text text-anchor="start" x="709.23" y="-15.4" font-family="Times-12" font-size="14.00"> &#160;Exports</text>
<g id="clust1" class="cluster">
<title>cluster_DatePickerModule</title>
<polygon fill="none" stroke="black" stroke-dasharray="1,5" points="8,-70 8,-379.59 1047,-379.59 1047,-70 8,-70"/>
</g>
<g id="clust5" class="cluster">
<title>cluster_DatePickerModule_exports</title>
<polygon fill="none" stroke="black" points="614,-319.59 614,-371.59 884,-371.59 884,-319.59 614,-319.59"/>
</g>
<g id="clust4" class="cluster">
<title>cluster_DatePickerModule_imports</title>
<polygon fill="none" stroke="black" points="664,-189.59 664,-241.59 1039,-241.59 1039,-189.59 664,-189.59"/>
</g>
<g id="clust3" class="cluster">
<title>cluster_DatePickerModule_DatePicker_providers</title>
<polygon fill="none" stroke="black" points="16,-78 16,-241.59 656,-241.59 656,-78 16,-78"/>
</g>
<!-- DatePicker -->
<g id="node1" class="node">
<title>DatePicker</title>
<polygon fill="#ffffb3" stroke="black" points="511.19,-233.59 432.81,-233.59 432.81,-197.59 511.19,-197.59 511.19,-233.59"/>
<text text-anchor="middle" x="472" y="-211.39" font-family="Times,serif" font-size="14.00">DatePicker</text>
</g>
<!-- DatePickerModule -->
<g id="node2" class="node">
<title>DatePickerModule</title>
<polygon fill="#8dd3c7" stroke="black" points="827.74,-298.59 824.74,-302.59 803.74,-302.59 800.74,-298.59 706.26,-298.59 706.26,-262.59 827.74,-262.59 827.74,-298.59"/>
<text text-anchor="middle" x="767" y="-276.39" font-family="Times,serif" font-size="14.00">DatePickerModule</text>
</g>
<!-- DatePicker&#45;&gt;DatePickerModule -->
<g id="edge1" class="edge">
<title>DatePicker&#45;&gt;DatePickerModule</title>
<path fill="none" stroke="black" d="M472,-233.7C472,-252.93 472,-280.59 472,-280.59 472,-280.59 696.23,-280.59 696.23,-280.59"/>
<polygon fill="black" stroke="black" points="696.23,-284.09 706.23,-280.59 696.23,-277.09 696.23,-284.09"/>
</g>
<!-- DatePicker  -->
<g id="node7" class="node">
<title>DatePicker </title>
<polygon fill="#fb8072" stroke="black" points="875.69,-363.59 794.31,-363.59 794.31,-327.59 875.69,-327.59 875.69,-363.59"/>
<text text-anchor="middle" x="835" y="-341.39" font-family="Times,serif" font-size="14.00">DatePicker </text>
</g>
<!-- DatePickerModule&#45;&gt;DatePicker  -->
<g id="edge6" class="edge">
<title>DatePickerModule&#45;&gt;DatePicker </title>
<path fill="none" stroke="black" stroke-dasharray="5,2" d="M811.01,-298.7C811.01,-298.7 811.01,-317.58 811.01,-317.58"/>
<polygon fill="black" stroke="black" points="807.51,-317.58 811.01,-327.58 814.51,-317.58 807.51,-317.58"/>
</g>
<!-- DatePickerInputModule  -->
<g id="node8" class="node">
<title>DatePickerInputModule </title>
<polygon fill="#fb8072" stroke="black" points="776.29,-363.59 621.71,-363.59 621.71,-327.59 776.29,-327.59 776.29,-363.59"/>
<text text-anchor="middle" x="699" y="-341.39" font-family="Times,serif" font-size="14.00">DatePickerInputModule </text>
</g>
<!-- DatePickerModule&#45;&gt;DatePickerInputModule  -->
<g id="edge7" class="edge">
<title>DatePickerModule&#45;&gt;DatePickerInputModule </title>
<path fill="none" stroke="black" stroke-dasharray="5,2" d="M741.26,-298.7C741.26,-298.7 741.26,-317.58 741.26,-317.58"/>
<polygon fill="black" stroke="black" points="737.76,-317.58 741.26,-327.58 744.76,-317.58 737.76,-317.58"/>
</g>
<!-- {
 &#160;&#160;&#160;provide: NG_VALUE_ACCESSOR, useExisting: DatePicker, multi: true
} -->
<g id="node3" class="node">
<title>{
 &#160;&#160;&#160;provide: NG_VALUE_ACCESSOR, useExisting: DatePicker, multi: true
}</title>
<ellipse fill="#fdb462" stroke="black" cx="336" cy="-127.3" rx="312.25" ry="41.09"/>
<text text-anchor="middle" x="336" y="-139.9" font-family="Times,serif" font-size="14.00">{</text>
<text text-anchor="middle" x="336" y="-123.1" font-family="Times,serif" font-size="14.00"> &#160;&#160;&#160;provide: NG_VALUE_ACCESSOR, useExisting: DatePicker, multi: true</text>
<text text-anchor="middle" x="336" y="-106.3" font-family="Times,serif" font-size="14.00">}</text>
</g>
<!-- {
 &#160;&#160;&#160;provide: NG_VALUE_ACCESSOR, useExisting: DatePicker, multi: true
}&#45;&gt;DatePicker -->
<g id="edge2" class="edge">
<title>{
 &#160;&#160;&#160;provide: NG_VALUE_ACCESSOR, useExisting: DatePicker, multi: true
}&#45;&gt;DatePicker</title>
<path fill="none" stroke="black" d="M472,-164.48C472,-164.48 472,-187.22 472,-187.22"/>
<polygon fill="black" stroke="black" points="468.5,-187.22 472,-197.22 475.5,-187.22 468.5,-187.22"/>
</g>
<!-- DatePickerInputModule -->
<g id="node4" class="node">
<title>DatePickerInputModule</title>
<polygon fill="#8dd3c7" stroke="black" points="1030.79,-233.59 1027.79,-237.59 1006.79,-237.59 1003.79,-233.59 879.21,-233.59 879.21,-197.59 1030.79,-197.59 1030.79,-233.59"/>
<text text-anchor="middle" x="955" y="-211.39" font-family="Times,serif" font-size="14.00">DatePickerInputModule</text>
</g>
<!-- DatePickerInputModule&#45;&gt;DatePickerModule -->
<g id="edge3" class="edge">
<title>DatePickerInputModule&#45;&gt;DatePickerModule</title>
<path fill="none" stroke="black" d="M955,-233.7C955,-252.93 955,-280.59 955,-280.59 955,-280.59 837.78,-280.59 837.78,-280.59"/>
<polygon fill="black" stroke="black" points="837.78,-277.09 827.78,-280.59 837.78,-284.09 837.78,-277.09"/>
</g>
<!-- I18nModule -->
<g id="node5" class="node">
<title>I18nModule</title>
<polygon fill="#8dd3c7" stroke="black" points="861.71,-233.59 858.71,-237.59 837.71,-237.59 834.71,-233.59 776.29,-233.59 776.29,-197.59 861.71,-197.59 861.71,-233.59"/>
<text text-anchor="middle" x="819" y="-211.39" font-family="Times,serif" font-size="14.00">I18nModule</text>
</g>
<!-- I18nModule&#45;&gt;DatePickerModule -->
<g id="edge4" class="edge">
<title>I18nModule&#45;&gt;DatePickerModule</title>
<path fill="none" stroke="black" d="M802.13,-233.7C802.13,-233.7 802.13,-252.58 802.13,-252.58"/>
<polygon fill="black" stroke="black" points="798.63,-252.58 802.13,-262.58 805.63,-252.58 798.63,-252.58"/>
</g>
<!-- UtilsModule -->
<g id="node6" class="node">
<title>UtilsModule</title>
<polygon fill="#8dd3c7" stroke="black" points="758.27,-233.59 755.27,-237.59 734.27,-237.59 731.27,-233.59 671.73,-233.59 671.73,-197.59 758.27,-197.59 758.27,-233.59"/>
<text text-anchor="middle" x="715" y="-211.39" font-family="Times,serif" font-size="14.00">UtilsModule</text>
</g>
<!-- UtilsModule&#45;&gt;DatePickerModule -->
<g id="edge5" class="edge">
<title>UtilsModule&#45;&gt;DatePickerModule</title>
<path fill="none" stroke="black" d="M732.26,-233.7C732.26,-233.7 732.26,-252.58 732.26,-252.58"/>
<polygon fill="black" stroke="black" points="728.76,-252.58 732.26,-262.58 735.76,-252.58 728.76,-252.58"/>
</g>
</g>
</svg>
