<?xml version="1.0" encoding="UTF-8" standalone="no"?>
<!DOCTYPE svg PUBLIC "-//W3C//DTD SVG 1.1//EN"
 "http://www.w3.org/Graphics/SVG/1.1/DTD/svg11.dtd">
<!-- Generated by graphviz version 2.40.1 (20161225.0304)
 -->
<!-- Title: dependencies Pages: 1 -->
<svg width="903pt" height="396pt"
 viewBox="0.00 0.00 903.00 395.59" xmlns="http://www.w3.org/2000/svg" xmlns:xlink="http://www.w3.org/1999/xlink">
<g id="graph0" class="graph" transform="scale(1 1) rotate(0) translate(4 391.5901)">
<title>dependencies</title>
<polygon fill="#ffffff" stroke="transparent" points="-4,4 -4,-391.5901 899,-391.5901 899,4 -4,4"/>
<text text-anchor="start" x="426.5091" y="-42.4" font-family="sans-serif" font-weight="bold" font-size="14.00" fill="#000000">Legend</text>
<polygon fill="#ffffb3" stroke="transparent" points="213.5,-10 213.5,-30 233.5,-30 233.5,-10 213.5,-10"/>
<text text-anchor="start" x="237.129" y="-15.4" font-family="sans-serif" font-size="14.00" fill="#000000"> &#160;Declarations</text>
<polygon fill="#8dd3c7" stroke="transparent" points="326.5,-10 326.5,-30 346.5,-30 346.5,-10 326.5,-10"/>
<text text-anchor="start" x="350.2251" y="-15.4" font-family="sans-serif" font-size="14.00" fill="#000000"> &#160;Module</text>
<polygon fill="#80b1d3" stroke="transparent" points="412.5,-10 412.5,-30 432.5,-30 432.5,-10 412.5,-10"/>
<text text-anchor="start" x="436.2812" y="-15.4" font-family="sans-serif" font-size="14.00" fill="#000000"> &#160;Bootstrap</text>
<polygon fill="#fdb462" stroke="transparent" points="509.5,-10 509.5,-30 529.5,-30 529.5,-10 509.5,-10"/>
<text text-anchor="start" x="533.1732" y="-15.4" font-family="sans-serif" font-size="14.00" fill="#000000"> &#160;Providers</text>
<polygon fill="#fb8072" stroke="transparent" points="605.5,-10 605.5,-30 625.5,-30 625.5,-10 605.5,-10"/>
<text text-anchor="start" x="629.2258" y="-15.4" font-family="sans-serif" font-size="14.00" fill="#000000"> &#160;Exports</text>
<g id="clust1" class="cluster">
<title>cluster_DropdownModule</title>
<polygon fill="none" stroke="#000000" stroke-dasharray="1,5" points="8,-70 8,-379.5901 887,-379.5901 887,-70 8,-70"/>
</g>
<g id="clust2" class="cluster">
<title>cluster_DropdownModule_declarations</title>
<polygon fill="none" stroke="#000000" points="559,-189.5901 559,-241.5901 879,-241.5901 879,-189.5901 559,-189.5901"/>
</g>
<g id="clust3" class="cluster">
<title>cluster_DropdownModule_Dropdown_providers</title>
<polygon fill="none" stroke="#000000" points="241,-78 241,-176.5901 879,-176.5901 879,-78 241,-78"/>
</g>
<g id="clust6" class="cluster">
<title>cluster_DropdownModule_imports</title>
<polygon fill="none" stroke="#000000" points="202,-189.5901 202,-241.5901 551,-241.5901 551,-189.5901 202,-189.5901"/>
</g>
<g id="clust7" class="cluster">
<title>cluster_DropdownModule_exports</title>
<polygon fill="none" stroke="#000000" points="325,-319.5901 325,-371.5901 656,-371.5901 656,-319.5901 325,-319.5901"/>
</g>
<g id="clust9" class="cluster">
<title>cluster_DropdownModule_providers</title>
<polygon fill="none" stroke="#000000" points="16,-189.5901 16,-241.5901 194,-241.5901 194,-189.5901 16,-189.5901"/>
</g>
<!-- Dropdown -->
<g id="node1" class="node">
<title>Dropdown</title>
<polygon fill="#ffffb3" stroke="#000000" points="870.8739,-233.5901 795.1261,-233.5901 795.1261,-197.5901 870.8739,-197.5901 870.8739,-233.5901"/>
<text text-anchor="middle" x="833" y="-211.3901" font-family="Times,serif" font-size="14.00" fill="#000000">Dropdown</text>
</g>
<!-- DropdownModule -->
<g id="node4" class="node">
<title>DropdownModule</title>
<polygon fill="#8dd3c7" stroke="#000000" points="559.9244,-298.5901 556.9244,-302.5901 535.9244,-302.5901 532.9244,-298.5901 440.0756,-298.5901 440.0756,-262.5901 559.9244,-262.5901 559.9244,-298.5901"/>
<text text-anchor="middle" x="500" y="-276.3901" font-family="Times,serif" font-size="14.00" fill="#000000">DropdownModule</text>
</g>
<!-- Dropdown&#45;&gt;DropdownModule -->
<g id="edge1" class="edge">
<title>Dropdown&#45;&gt;DropdownModule</title>
<path fill="none" stroke="#000000" d="M833,-233.8743C833,-254.9111 833,-286.5901 833,-286.5901 833,-286.5901 569.9183,-286.5901 569.9183,-286.5901"/>
<polygon fill="#000000" stroke="#000000" points="569.9184,-283.0902 559.9183,-286.5901 569.9183,-290.0902 569.9184,-283.0902"/>
</g>
<!-- DropdownList -->
<g id="node2" class="node">
<title>DropdownList</title>
<polygon fill="#ffffb3" stroke="#000000" points="776.6528,-233.5901 679.3472,-233.5901 679.3472,-197.5901 776.6528,-197.5901 776.6528,-233.5901"/>
<text text-anchor="middle" x="728" y="-211.3901" font-family="Times,serif" font-size="14.00" fill="#000000">DropdownList</text>
</g>
<!-- DropdownList&#45;&gt;DropdownModule -->
<g id="edge3" class="edge">
<title>DropdownList&#45;&gt;DropdownModule</title>
<path fill="none" stroke="#000000" d="M728,-233.6126C728,-250.9634 728,-274.5901 728,-274.5901 728,-274.5901 569.9043,-274.5901 569.9043,-274.5901"/>
<polygon fill="#000000" stroke="#000000" points="569.9044,-271.0902 559.9043,-274.5901 569.9043,-278.0902 569.9044,-271.0902"/>
</g>
<!-- ScrollableList -->
<g id="node3" class="node">
<title>ScrollableList</title>
<polygon fill="#ffffb3" stroke="#000000" points="661.0383,-233.5901 566.9617,-233.5901 566.9617,-197.5901 661.0383,-197.5901 661.0383,-233.5901"/>
<text text-anchor="middle" x="614" y="-211.3901" font-family="Times,serif" font-size="14.00" fill="#000000">ScrollableList</text>
</g>
<!-- ScrollableList&#45;&gt;DropdownModule -->
<g id="edge4" class="edge">
<title>ScrollableList&#45;&gt;DropdownModule</title>
<path fill="none" stroke="#000000" d="M566.6924,-215.5901C557.7643,-215.5901 551.1585,-215.5901 551.1585,-215.5901 551.1585,-215.5901 551.1585,-252.4839 551.1585,-252.4839"/>
<polygon fill="#000000" stroke="#000000" points="547.6586,-252.4839 551.1585,-262.4839 554.6586,-252.484 547.6586,-252.4839"/>
</g>
<!-- Dropdown  -->
<g id="node9" class="node">
<title>Dropdown </title>
<polygon fill="#fb8072" stroke="#000000" points="647.8747,-363.5901 568.1253,-363.5901 568.1253,-327.5901 647.8747,-327.5901 647.8747,-363.5901"/>
<text text-anchor="middle" x="608" y="-341.3901" font-family="Times,serif" font-size="14.00" fill="#000000">Dropdown </text>
</g>
<!-- DropdownModule&#45;&gt;Dropdown  -->
<g id="edge8" class="edge">
<title>DropdownModule&#45;&gt;Dropdown </title>
<path fill="none" stroke="#000000" stroke-dasharray="5,2" d="M555.144,-298.6962C555.144,-317.9292 555.144,-345.5901 555.144,-345.5901 555.144,-345.5901 558.2095,-345.5901 558.2095,-345.5901"/>
<polygon fill="#000000" stroke="#000000" points="558.2095,-349.0902 568.2095,-345.5901 558.2095,-342.0902 558.2095,-349.0902"/>
</g>
<!-- DropdownList  -->
<g id="node10" class="node">
<title>DropdownList </title>
<polygon fill="#fb8072" stroke="#000000" points="550.6523,-363.5901 449.3477,-363.5901 449.3477,-327.5901 550.6523,-327.5901 550.6523,-363.5901"/>
<text text-anchor="middle" x="500" y="-341.3901" font-family="Times,serif" font-size="14.00" fill="#000000">DropdownList </text>
</g>
<!-- DropdownModule&#45;&gt;DropdownList  -->
<g id="edge9" class="edge">
<title>DropdownModule&#45;&gt;DropdownList </title>
<path fill="none" stroke="#000000" stroke-dasharray="5,2" d="M500,-298.6962C500,-298.6962 500,-317.581 500,-317.581"/>
<polygon fill="#000000" stroke="#000000" points="496.5001,-317.581 500,-327.581 503.5001,-317.5811 496.5001,-317.581"/>
</g>
<!-- ScrollableList  -->
<g id="node11" class="node">
<title>ScrollableList </title>
<polygon fill="#fb8072" stroke="#000000" points="431.0372,-363.5901 332.9628,-363.5901 332.9628,-327.5901 431.0372,-327.5901 431.0372,-363.5901"/>
<text text-anchor="middle" x="382" y="-341.3901" font-family="Times,serif" font-size="14.00" fill="#000000">ScrollableList </text>
</g>
<!-- DropdownModule&#45;&gt;ScrollableList  -->
<g id="edge10" class="edge">
<title>DropdownModule&#45;&gt;ScrollableList </title>
<path fill="none" stroke="#000000" stroke-dasharray="5,2" d="M444.8561,-298.6962C444.8561,-317.9292 444.8561,-345.5901 444.8561,-345.5901 444.8561,-345.5901 441.2172,-345.5901 441.2172,-345.5901"/>
<polygon fill="#000000" stroke="#000000" points="441.2173,-342.0902 431.2172,-345.5901 441.2172,-349.0902 441.2173,-342.0902"/>
</g>
<!-- {
 &#160;&#160;&#160;provide: NG_VALUE_ACCESSOR, useExisting: Dropdown, multi: true
} -->
<g id="node5" class="node">
<title>{
 &#160;&#160;&#160;provide: NG_VALUE_ACCESSOR, useExisting: Dropdown, multi: true
}</title>
<ellipse fill="#fdb462" stroke="#000000" cx="560" cy="-127.295" rx="310.9718" ry="41.0911"/>
<text text-anchor="middle" x="560" y="-139.895" font-family="Times,serif" font-size="14.00" fill="#000000">{</text>
<text text-anchor="middle" x="560" y="-123.095" font-family="Times,serif" font-size="14.00" fill="#000000"> &#160;&#160;&#160;provide: NG_VALUE_ACCESSOR, useExisting: Dropdown, multi: true</text>
<text text-anchor="middle" x="560" y="-106.295" font-family="Times,serif" font-size="14.00" fill="#000000">}</text>
</g>
<!-- {
 &#160;&#160;&#160;provide: NG_VALUE_ACCESSOR, useExisting: Dropdown, multi: true
}&#45;&gt;Dropdown -->
<g id="edge2" class="edge">
<title>{
 &#160;&#160;&#160;provide: NG_VALUE_ACCESSOR, useExisting: Dropdown, multi: true
}&#45;&gt;Dropdown</title>
<path fill="none" stroke="#000000" d="M832.8995,-147.3305C832.8995,-147.3305 832.8995,-187.4358 832.8995,-187.4358"/>
<polygon fill="#000000" stroke="#000000" points="829.3996,-187.4357 832.8995,-197.4358 836.3996,-187.4358 829.3996,-187.4357"/>
</g>
<!-- I18nModule -->
<g id="node6" class="node">
<title>I18nModule</title>
<polygon fill="#8dd3c7" stroke="#000000" points="542.7107,-233.5901 539.7107,-237.5901 518.7107,-237.5901 515.7107,-233.5901 457.2893,-233.5901 457.2893,-197.5901 542.7107,-197.5901 542.7107,-233.5901"/>
<text text-anchor="middle" x="500" y="-211.3901" font-family="Times,serif" font-size="14.00" fill="#000000">I18nModule</text>
</g>
<!-- I18nModule&#45;&gt;DropdownModule -->
<g id="edge5" class="edge">
<title>I18nModule&#45;&gt;DropdownModule</title>
<path fill="none" stroke="#000000" d="M500,-233.6962C500,-233.6962 500,-252.581 500,-252.581"/>
<polygon fill="#000000" stroke="#000000" points="496.5001,-252.581 500,-262.581 503.5001,-252.5811 496.5001,-252.581"/>
</g>
<!-- PlaceholderModule -->
<g id="node7" class="node">
<title>PlaceholderModule</title>
<polygon fill="#8dd3c7" stroke="#000000" points="439.6331,-233.5901 436.6331,-237.5901 415.6331,-237.5901 412.6331,-233.5901 314.3669,-233.5901 314.3669,-197.5901 439.6331,-197.5901 439.6331,-233.5901"/>
<text text-anchor="middle" x="377" y="-211.3901" font-family="Times,serif" font-size="14.00" fill="#000000">PlaceholderModule</text>
</g>
<!-- PlaceholderModule&#45;&gt;DropdownModule -->
<g id="edge6" class="edge">
<title>PlaceholderModule&#45;&gt;DropdownModule</title>
<path fill="none" stroke="#000000" d="M435.4175,-233.6171C435.4175,-249.9877 435.4175,-271.5901 435.4175,-271.5901 435.4175,-271.5901 435.8819,-271.5901 435.8819,-271.5901"/>
<polygon fill="#000000" stroke="#000000" points="430.0622,-275.0903 440.0621,-271.5901 430.062,-268.0903 430.0622,-275.0903"/>
</g>
<!-- UtilsModule -->
<g id="node8" class="node">
<title>UtilsModule</title>
<polygon fill="#8dd3c7" stroke="#000000" points="296.2731,-233.5901 293.2731,-237.5901 272.2731,-237.5901 269.2731,-233.5901 209.7269,-233.5901 209.7269,-197.5901 296.2731,-197.5901 296.2731,-233.5901"/>
<text text-anchor="middle" x="253" y="-211.3901" font-family="Times,serif" font-size="14.00" fill="#000000">UtilsModule</text>
</g>
<!-- UtilsModule&#45;&gt;DropdownModule -->
<g id="edge7" class="edge">
<title>UtilsModule&#45;&gt;DropdownModule</title>
<path fill="none" stroke="#000000" d="M253,-233.6962C253,-252.9292 253,-280.5901 253,-280.5901 253,-280.5901 430.2082,-280.5901 430.2082,-280.5901"/>
<polygon fill="#000000" stroke="#000000" points="430.2082,-284.0902 440.2082,-280.5901 430.2082,-277.0902 430.2082,-284.0902"/>
</g>
<!-- DropdownService -->
<g id="node12" class="node">
<title>DropdownService</title>
<ellipse fill="#fdb462" stroke="#000000" cx="105" cy="-215.5901" rx="81.084" ry="18"/>
<text text-anchor="middle" x="105" y="-211.3901" font-family="Times,serif" font-size="14.00" fill="#000000">DropdownService</text>
</g>
<!-- DropdownService&#45;&gt;DropdownModule -->
<g id="edge11" class="edge">
<title>DropdownService&#45;&gt;DropdownModule</title>
<path fill="none" stroke="#000000" d="M105,-233.8822C105,-255.7957 105,-289.5901 105,-289.5901 105,-289.5901 430.008,-289.5901 430.008,-289.5901"/>
<polygon fill="#000000" stroke="#000000" points="430.008,-293.0902 440.008,-289.5901 430.008,-286.0902 430.008,-293.0902"/>
</g>
</g>
</svg>
