<?xml version="1.0" encoding="UTF-8" standalone="no"?>
<!DOCTYPE svg PUBLIC "-//W3C//DTD SVG 1.1//EN"
 "http://www.w3.org/Graphics/SVG/1.1/DTD/svg11.dtd">
<!-- Generated by graphviz version 2.40.1 (20161225.0304)
 -->
<!-- Title: dependencies Pages: 1 -->
<svg width="504pt" height="349pt"
 viewBox="0.00 0.00 504.00 349.00" xmlns="http://www.w3.org/2000/svg" xmlns:xlink="http://www.w3.org/1999/xlink">
<g id="graph0" class="graph" transform="scale(1 1) rotate(0) translate(4 345)">
<title>dependencies</title>
<polygon fill="#ffffff" stroke="transparent" points="-4,4 -4,-345 500,-345 500,4 -4,4"/>
<text text-anchor="start" x="227.0091" y="-42.4" font-family="sans-serif" font-weight="bold" font-size="14.00" fill="#000000">Legend</text>
<polygon fill="#ffffb3" stroke="transparent" points="14,-10 14,-30 34,-30 34,-10 14,-10"/>
<text text-anchor="start" x="37.629" y="-15.4" font-family="sans-serif" font-size="14.00" fill="#000000"> &#160;Declarations</text>
<polygon fill="#8dd3c7" stroke="transparent" points="127,-10 127,-30 147,-30 147,-10 127,-10"/>
<text text-anchor="start" x="150.7251" y="-15.4" font-family="sans-serif" font-size="14.00" fill="#000000"> &#160;Module</text>
<polygon fill="#80b1d3" stroke="transparent" points="213,-10 213,-30 233,-30 233,-10 213,-10"/>
<text text-anchor="start" x="236.7812" y="-15.4" font-family="sans-serif" font-size="14.00" fill="#000000"> &#160;Bootstrap</text>
<polygon fill="#fdb462" stroke="transparent" points="310,-10 310,-30 330,-30 330,-10 310,-10"/>
<text text-anchor="start" x="333.6732" y="-15.4" font-family="sans-serif" font-size="14.00" fill="#000000"> &#160;Providers</text>
<polygon fill="#fb8072" stroke="transparent" points="406,-10 406,-30 426,-30 426,-10 406,-10"/>
<text text-anchor="start" x="429.7258" y="-15.4" font-family="sans-serif" font-size="14.00" fill="#000000"> &#160;Exports</text>
<g id="clust1" class="cluster">
<title>cluster_BannerModule</title>
<polygon fill="none" stroke="#000000" stroke-dasharray="1,5" points="92,-70 92,-333 404,-333 404,-70 92,-70"/>
</g>
<g id="clust2" class="cluster">
<title>cluster_BannerModule_declarations</title>
<polygon fill="none" stroke="#000000" points="240,-143 240,-195 384,-195 384,-143 240,-143"/>
</g>
<g id="clust4" class="cluster">
<title>cluster_BannerModule_Banner_providers</title>
<polygon fill="none" stroke="#000000" points="222,-78 222,-130 374,-130 374,-78 222,-78"/>
</g>
<g id="clust5" class="cluster">
<title>cluster_BannerModule_imports</title>
<polygon fill="none" stroke="#000000" points="100,-143 100,-195 232,-195 232,-143 100,-143"/>
</g>
<g id="clust6" class="cluster">
<title>cluster_BannerModule_exports</title>
<polygon fill="none" stroke="#000000" points="225,-273 225,-325 373,-325 373,-273 225,-273"/>
</g>
<!-- Toast -->
<g id="node1" class="node">
<title>Toast</title>
<polygon fill="#ffffb3" stroke="#000000" points="376,-187 322,-187 322,-151 376,-151 376,-187"/>
<text text-anchor="middle" x="349" y="-164.8" font-family="Times,serif" font-size="14.00" fill="#000000">Toast</text>
</g>
<!-- BannerModule -->
<g id="node3" class="node">
<title>BannerModule</title>
<polygon fill="#8dd3c7" stroke="#000000" points="347.9762,-252 344.9762,-256 323.9762,-256 320.9762,-252 248.0238,-252 248.0238,-216 347.9762,-216 347.9762,-252"/>
<text text-anchor="middle" x="298" y="-229.8" font-family="Times,serif" font-size="14.00" fill="#000000">BannerModule</text>
</g>
<!-- Toast&#45;&gt;BannerModule -->
<g id="edge1" class="edge">
<title>Toast&#45;&gt;BannerModule</title>
<path fill="none" stroke="#000000" d="M334.9941,-187.1061C334.9941,-187.1061 334.9941,-205.991 334.9941,-205.991"/>
<polygon fill="#000000" stroke="#000000" points="331.4941,-205.9909 334.9941,-215.991 338.4941,-205.991 331.4941,-205.9909"/>
</g>
<!-- Banner -->
<g id="node2" class="node">
<title>Banner</title>
<polygon fill="#ffffb3" stroke="#000000" points="304.428,-187 247.572,-187 247.572,-151 304.428,-151 304.428,-187"/>
<text text-anchor="middle" x="276" y="-164.8" font-family="Times,serif" font-size="14.00" fill="#000000">Banner</text>
</g>
<!-- Banner&#45;&gt;BannerModule -->
<g id="edge2" class="edge">
<title>Banner&#45;&gt;BannerModule</title>
<path fill="none" stroke="#000000" d="M276.1126,-187.1061C276.1126,-187.1061 276.1126,-205.991 276.1126,-205.991"/>
<polygon fill="#000000" stroke="#000000" points="272.6126,-205.9909 276.1126,-215.991 279.6126,-205.991 272.6126,-205.9909"/>
</g>
<!-- Banner  -->
<g id="node6" class="node">
<title>Banner </title>
<polygon fill="#fb8072" stroke="#000000" points="364.9264,-317 305.0736,-317 305.0736,-281 364.9264,-281 364.9264,-317"/>
<text text-anchor="middle" x="335" y="-294.8" font-family="Times,serif" font-size="14.00" fill="#000000">Banner </text>
</g>
<!-- BannerModule&#45;&gt;Banner  -->
<g id="edge5" class="edge">
<title>BannerModule&#45;&gt;Banner </title>
<path fill="none" stroke="#000000" stroke-dasharray="5,2" d="M326.5125,-252.1061C326.5125,-252.1061 326.5125,-270.991 326.5125,-270.991"/>
<polygon fill="#000000" stroke="#000000" points="323.0125,-270.9909 326.5125,-280.991 330.0125,-270.991 323.0125,-270.9909"/>
</g>
<!-- Toast  -->
<g id="node7" class="node">
<title>Toast </title>
<polygon fill="#fb8072" stroke="#000000" points="287,-317 233,-317 233,-281 287,-281 287,-317"/>
<text text-anchor="middle" x="260" y="-294.8" font-family="Times,serif" font-size="14.00" fill="#000000">Toast </text>
</g>
<!-- BannerModule&#45;&gt;Toast  -->
<g id="edge6" class="edge">
<title>BannerModule&#45;&gt;Toast </title>
<path fill="none" stroke="#000000" stroke-dasharray="5,2" d="M267.506,-252.1061C267.506,-252.1061 267.506,-270.991 267.506,-270.991"/>
<polygon fill="#000000" stroke="#000000" points="264.006,-270.9909 267.506,-280.991 271.006,-270.991 264.006,-270.9909"/>
</g>
<!-- BannerService -->
<g id="node4" class="node">
<title>BannerService</title>
<ellipse fill="#fdb462" stroke="#000000" cx="298" cy="-104" rx="67.7548" ry="18"/>
<text text-anchor="middle" x="298" y="-99.8" font-family="Times,serif" font-size="14.00" fill="#000000">BannerService</text>
</g>
<!-- BannerService&#45;&gt;Banner -->
<g id="edge3" class="edge">
<title>BannerService&#45;&gt;Banner</title>
<path fill="none" stroke="#000000" d="M276,-121.078C276,-121.078 276,-140.8993 276,-140.8993"/>
<polygon fill="#000000" stroke="#000000" points="272.5001,-140.8992 276,-150.8993 279.5001,-140.8993 272.5001,-140.8992"/>
</g>
<!-- BannerService&#45;&gt;BannerModule -->
<g id="edge7" class="edge">
<title>BannerService&#45;&gt;BannerModule</title>
<path fill="none" stroke="#000000" d="M313.1066,-121.8034C313.1066,-121.8034 313.1066,-205.9945 313.1066,-205.9945"/>
<polygon fill="#000000" stroke="#000000" points="309.6067,-205.9944 313.1066,-215.9945 316.6067,-205.9945 309.6067,-205.9944"/>
</g>
<!-- StaticIconModule -->
<g id="node5" class="node">
<title>StaticIconModule</title>
<polygon fill="#8dd3c7" stroke="#000000" points="224.309,-187 221.309,-191 200.309,-191 197.309,-187 107.691,-187 107.691,-151 224.309,-151 224.309,-187"/>
<text text-anchor="middle" x="166" y="-164.8" font-family="Times,serif" font-size="14.00" fill="#000000">StaticIconModule</text>
</g>
<!-- StaticIconModule&#45;&gt;BannerModule -->
<g id="edge4" class="edge">
<title>StaticIconModule&#45;&gt;BannerModule</title>
<path fill="none" stroke="#000000" d="M166,-187.1061C166,-206.3391 166,-234 166,-234 166,-234 237.7199,-234 237.7199,-234"/>
<polygon fill="#000000" stroke="#000000" points="237.7199,-237.5001 247.7199,-234 237.7199,-230.5001 237.7199,-237.5001"/>
</g>
</g>
</svg>
