<?xml version="1.0" encoding="UTF-8" standalone="no"?>
<!DOCTYPE svg PUBLIC "-//W3C//DTD SVG 1.1//EN"
 "http://www.w3.org/Graphics/SVG/1.1/DTD/svg11.dtd">
<!-- Generated by graphviz version 2.40.1 (20161225.0304)
 -->
<!-- Title: dependencies Pages: 1 -->
<svg width="504pt" height="284pt"
 viewBox="0.00 0.00 504.00 284.00" xmlns="http://www.w3.org/2000/svg" xmlns:xlink="http://www.w3.org/1999/xlink">
<g id="graph0" class="graph" transform="scale(1 1) rotate(0) translate(4 280)">
<title>dependencies</title>
<polygon fill="#ffffff" stroke="transparent" points="-4,4 -4,-280 500,-280 500,4 -4,4"/>
<text text-anchor="start" x="227.0091" y="-42.4" font-family="sans-serif" font-weight="bold" font-size="14.00" fill="#000000">Legend</text>
<polygon fill="#ffffb3" stroke="transparent" points="14,-10 14,-30 34,-30 34,-10 14,-10"/>
<text text-anchor="start" x="37.629" y="-15.4" font-family="sans-serif" font-size="14.00" fill="#000000"> &#160;Declarations</text>
<polygon fill="#8dd3c7" stroke="transparent" points="127,-10 127,-30 147,-30 147,-10 127,-10"/>
<text text-anchor="start" x="150.7251" y="-15.4" font-family="sans-serif" font-size="14.00" fill="#000000"> &#160;Module</text>
<polygon fill="#80b1d3" stroke="transparent" points="213,-10 213,-30 233,-30 233,-10 213,-10"/>
<text text-anchor="start" x="236.7812" y="-15.4" font-family="sans-serif" font-size="14.00" fill="#000000"> &#160;Bootstrap</text>
<polygon fill="#fdb462" stroke="transparent" points="310,-10 310,-30 330,-30 330,-10 310,-10"/>
<text text-anchor="start" x="333.6732" y="-15.4" font-family="sans-serif" font-size="14.00" fill="#000000"> &#160;Providers</text>
<polygon fill="#fb8072" stroke="transparent" points="406,-10 406,-30 426,-30 426,-10 406,-10"/>
<text text-anchor="start" x="429.7258" y="-15.4" font-family="sans-serif" font-size="14.00" fill="#000000"> &#160;Exports</text>
<g id="clust1" class="cluster">
<title>cluster_BannerModule</title>
<polygon fill="none" stroke="#000000" stroke-dasharray="1,5" points="18,-70 18,-268 478,-268 478,-70 18,-70"/>
</g>
<g id="clust2" class="cluster">
<title>cluster_BannerModule_declarations</title>
<polygon fill="none" stroke="#000000" points="326,-78 326,-130 470,-130 470,-78 326,-78"/>
</g>
<g id="clust5" class="cluster">
<title>cluster_BannerModule_imports</title>
<polygon fill="none" stroke="#000000" points="186,-78 186,-130 318,-130 318,-78 186,-78"/>
</g>
<g id="clust6" class="cluster">
<title>cluster_BannerModule_exports</title>
<polygon fill="none" stroke="#000000" points="234,-208 234,-260 382,-260 382,-208 234,-208"/>
</g>
<g id="clust8" class="cluster">
<title>cluster_BannerModule_providers</title>
<polygon fill="none" stroke="#000000" points="26,-78 26,-130 178,-130 178,-78 26,-78"/>
</g>
<!-- Toast -->
<g id="node1" class="node">
<title>Toast</title>
<polygon fill="#ffffb3" stroke="#000000" points="462,-122 408,-122 408,-86 462,-86 462,-122"/>
<text text-anchor="middle" x="435" y="-99.8" font-family="Times,serif" font-size="14.00" fill="#000000">Toast</text>
</g>
<!-- BannerModule -->
<g id="node3" class="node">
<title>BannerModule</title>
<polygon fill="#8dd3c7" stroke="#000000" points="356.9762,-187 353.9762,-191 332.9762,-191 329.9762,-187 257.0238,-187 257.0238,-151 356.9762,-151 356.9762,-187"/>
<text text-anchor="middle" x="307" y="-164.8" font-family="Times,serif" font-size="14.00" fill="#000000">BannerModule</text>
</g>
<!-- Toast&#45;&gt;BannerModule -->
<g id="edge1" class="edge">
<title>Toast&#45;&gt;BannerModule</title>
<path fill="none" stroke="#000000" d="M435,-122.1061C435,-141.3391 435,-169 435,-169 435,-169 367.2216,-169 367.2216,-169"/>
<polygon fill="#000000" stroke="#000000" points="367.2216,-165.5001 357.2216,-169 367.2216,-172.5001 367.2216,-165.5001"/>
</g>
<!-- Banner -->
<g id="node2" class="node">
<title>Banner</title>
<polygon fill="#ffffb3" stroke="#000000" points="390.428,-122 333.572,-122 333.572,-86 390.428,-86 390.428,-122"/>
<text text-anchor="middle" x="362" y="-99.8" font-family="Times,serif" font-size="14.00" fill="#000000">Banner</text>
</g>
<!-- Banner&#45;&gt;BannerModule -->
<g id="edge2" class="edge">
<title>Banner&#45;&gt;BannerModule</title>
<path fill="none" stroke="#000000" d="M345.3875,-122.1061C345.3875,-122.1061 345.3875,-140.991 345.3875,-140.991"/>
<polygon fill="#000000" stroke="#000000" points="341.8875,-140.9909 345.3875,-150.991 348.8875,-140.991 341.8875,-140.9909"/>
</g>
<!-- Banner  -->
<g id="node5" class="node">
<title>Banner </title>
<polygon fill="#fb8072" stroke="#000000" points="373.9264,-252 314.0736,-252 314.0736,-216 373.9264,-216 373.9264,-252"/>
<text text-anchor="middle" x="344" y="-229.8" font-family="Times,serif" font-size="14.00" fill="#000000">Banner </text>
</g>
<!-- BannerModule&#45;&gt;Banner  -->
<g id="edge4" class="edge">
<title>BannerModule&#45;&gt;Banner </title>
<path fill="none" stroke="#000000" stroke-dasharray="5,2" d="M335.5125,-187.1061C335.5125,-187.1061 335.5125,-205.991 335.5125,-205.991"/>
<polygon fill="#000000" stroke="#000000" points="332.0125,-205.9909 335.5125,-215.991 339.0125,-205.991 332.0125,-205.9909"/>
</g>
<!-- Toast  -->
<g id="node6" class="node">
<title>Toast </title>
<polygon fill="#fb8072" stroke="#000000" points="296,-252 242,-252 242,-216 296,-216 296,-252"/>
<text text-anchor="middle" x="269" y="-229.8" font-family="Times,serif" font-size="14.00" fill="#000000">Toast </text>
</g>
<!-- BannerModule&#45;&gt;Toast  -->
<g id="edge5" class="edge">
<title>BannerModule&#45;&gt;Toast </title>
<path fill="none" stroke="#000000" stroke-dasharray="5,2" d="M276.506,-187.1061C276.506,-187.1061 276.506,-205.991 276.506,-205.991"/>
<polygon fill="#000000" stroke="#000000" points="273.006,-205.9909 276.506,-215.991 280.006,-205.991 273.006,-205.9909"/>
</g>
<!-- StaticIconModule -->
<g id="node4" class="node">
<title>StaticIconModule</title>
<polygon fill="#8dd3c7" stroke="#000000" points="310.309,-122 307.309,-126 286.309,-126 283.309,-122 193.691,-122 193.691,-86 310.309,-86 310.309,-122"/>
<text text-anchor="middle" x="252" y="-99.8" font-family="Times,serif" font-size="14.00" fill="#000000">StaticIconModule</text>
</g>
<!-- StaticIconModule&#45;&gt;BannerModule -->
<g id="edge3" class="edge">
<title>StaticIconModule&#45;&gt;BannerModule</title>
<path fill="none" stroke="#000000" d="M283.5831,-122.1061C283.5831,-122.1061 283.5831,-140.991 283.5831,-140.991"/>
<polygon fill="#000000" stroke="#000000" points="280.0832,-140.9909 283.5831,-150.991 287.0832,-140.991 280.0832,-140.9909"/>
</g>
<!-- BannerService -->
<g id="node7" class="node">
<title>BannerService</title>
<ellipse fill="#fdb462" stroke="#000000" cx="102" cy="-104" rx="67.7548" ry="18"/>
<text text-anchor="middle" x="102" y="-99.8" font-family="Times,serif" font-size="14.00" fill="#000000">BannerService</text>
</g>
<!-- BannerService&#45;&gt;BannerModule -->
<g id="edge6" class="edge">
<title>BannerService&#45;&gt;BannerModule</title>
<path fill="none" stroke="#000000" d="M102,-122.1061C102,-141.3391 102,-169 102,-169 102,-169 246.8514,-169 246.8514,-169"/>
<polygon fill="#000000" stroke="#000000" points="246.8514,-172.5001 256.8514,-169 246.8513,-165.5001 246.8514,-172.5001"/>
</g>
</g>
</svg>
