<?xml version="1.0" encoding="UTF-8" standalone="no"?>
<!DOCTYPE svg PUBLIC "-//W3C//DTD SVG 1.1//EN"
 "http://www.w3.org/Graphics/SVG/1.1/DTD/svg11.dtd">
<!-- Generated by graphviz version 2.40.1 (20161225.0304)
 -->
<!-- Title: dependencies Pages: 1 -->
<svg width="504pt" height="349pt"
 viewBox="0.00 0.00 504.00 349.00" xmlns="http://www.w3.org/2000/svg" xmlns:xlink="http://www.w3.org/1999/xlink">
<g id="graph0" class="graph" transform="scale(1 1) rotate(0) translate(4 345)">
<title>dependencies</title>
<polygon fill="#ffffff" stroke="transparent" points="-4,4 -4,-345 500,-345 500,4 -4,4"/>
<text text-anchor="start" x="227.0091" y="-42.4" font-family="sans-serif" font-weight="bold" font-size="14.00" fill="#000000">Legend</text>
<polygon fill="#ffffb3" stroke="transparent" points="14,-10 14,-30 34,-30 34,-10 14,-10"/>
<text text-anchor="start" x="37.629" y="-15.4" font-family="sans-serif" font-size="14.00" fill="#000000"> &#160;Declarations</text>
<polygon fill="#8dd3c7" stroke="transparent" points="127,-10 127,-30 147,-30 147,-10 127,-10"/>
<text text-anchor="start" x="150.7251" y="-15.4" font-family="sans-serif" font-size="14.00" fill="#000000"> &#160;Module</text>
<polygon fill="#80b1d3" stroke="transparent" points="213,-10 213,-30 233,-30 233,-10 213,-10"/>
<text text-anchor="start" x="236.7812" y="-15.4" font-family="sans-serif" font-size="14.00" fill="#000000"> &#160;Bootstrap</text>
<polygon fill="#fdb462" stroke="transparent" points="310,-10 310,-30 330,-30 330,-10 310,-10"/>
<text text-anchor="start" x="333.6732" y="-15.4" font-family="sans-serif" font-size="14.00" fill="#000000"> &#160;Providers</text>
<polygon fill="#fb8072" stroke="transparent" points="406,-10 406,-30 426,-30 426,-10 406,-10"/>
<text text-anchor="start" x="429.7258" y="-15.4" font-family="sans-serif" font-size="14.00" fill="#000000"> &#160;Exports</text>
<g id="clust1" class="cluster">
<title>cluster_BannerModule</title>
<polygon fill="none" stroke="#000000" stroke-dasharray="1,5" points="134,-70 134,-333 362,-333 362,-70 134,-70"/>
</g>
<g id="clust2" class="cluster">
<title>cluster_BannerModule_declarations</title>
<polygon fill="none" stroke="#000000" points="282,-143 282,-195 354,-195 354,-143 282,-143"/>
</g>
<g id="clust3" class="cluster">
<title>cluster_BannerModule_Banner_providers</title>
<polygon fill="none" stroke="#000000" points="202,-78 202,-130 354,-130 354,-78 202,-78"/>
</g>
<g id="clust4" class="cluster">
<title>cluster_BannerModule_imports</title>
<polygon fill="none" stroke="#000000" points="142,-143 142,-195 274,-195 274,-143 142,-143"/>
</g>
<g id="clust5" class="cluster">
<title>cluster_BannerModule_exports</title>
<polygon fill="none" stroke="#000000" points="218,-273 218,-325 294,-325 294,-273 218,-273"/>
</g>
<!-- Banner -->
<g id="node1" class="node">
<title>Banner</title>
<polygon fill="#ffffb3" stroke="#000000" points="346.428,-187 289.572,-187 289.572,-151 346.428,-151 346.428,-187"/>
<text text-anchor="middle" x="318" y="-164.8" font-family="Times,serif" font-size="14.00" fill="#000000">Banner</text>
</g>
<!-- BannerModule -->
<g id="node2" class="node">
<title>BannerModule</title>
<polygon fill="#8dd3c7" stroke="#000000" points="305.9762,-252 302.9762,-256 281.9762,-256 278.9762,-252 206.0238,-252 206.0238,-216 305.9762,-216 305.9762,-252"/>
<text text-anchor="middle" x="256" y="-229.8" font-family="Times,serif" font-size="14.00" fill="#000000">BannerModule</text>
</g>
<!-- Banner&#45;&gt;BannerModule -->
<g id="edge1" class="edge">
<title>Banner&#45;&gt;BannerModule</title>
<path fill="none" stroke="#000000" d="M297.8875,-187.1061C297.8875,-187.1061 297.8875,-205.991 297.8875,-205.991"/>
<polygon fill="#000000" stroke="#000000" points="294.3875,-205.9909 297.8875,-215.991 301.3875,-205.991 294.3875,-205.9909"/>
</g>
<!-- Banner  -->
<g id="node5" class="node">
<title>Banner </title>
<polygon fill="#fb8072" stroke="#000000" points="285.9264,-317 226.0736,-317 226.0736,-281 285.9264,-281 285.9264,-317"/>
<text text-anchor="middle" x="256" y="-294.8" font-family="Times,serif" font-size="14.00" fill="#000000">Banner </text>
</g>
<!-- BannerModule&#45;&gt;Banner  -->
<g id="edge4" class="edge">
<title>BannerModule&#45;&gt;Banner </title>
<path fill="none" stroke="#000000" stroke-dasharray="5,2" d="M256,-252.1061C256,-252.1061 256,-270.991 256,-270.991"/>
<polygon fill="#000000" stroke="#000000" points="252.5001,-270.9909 256,-280.991 259.5001,-270.991 252.5001,-270.9909"/>
</g>
<!-- BannerService -->
<g id="node3" class="node">
<title>BannerService</title>
<ellipse fill="#fdb462" stroke="#000000" cx="278" cy="-104" rx="67.7548" ry="18"/>
<text text-anchor="middle" x="278" y="-99.8" font-family="Times,serif" font-size="14.00" fill="#000000">BannerService</text>
</g>
<!-- BannerService&#45;&gt;Banner -->
<g id="edge2" class="edge">
<title>BannerService&#45;&gt;Banner</title>
<path fill="none" stroke="#000000" d="M317.832,-118.7495C317.832,-118.7495 317.832,-140.5882 317.832,-140.5882"/>
<polygon fill="#000000" stroke="#000000" points="314.3321,-140.5881 317.832,-150.5882 321.3321,-140.5882 314.3321,-140.5881"/>
</g>
<!-- StaticIconModule -->
<g id="node4" class="node">
<title>StaticIconModule</title>
<polygon fill="#8dd3c7" stroke="#000000" points="266.309,-187 263.309,-191 242.309,-191 239.309,-187 149.691,-187 149.691,-151 266.309,-151 266.309,-187"/>
<text text-anchor="middle" x="208" y="-164.8" font-family="Times,serif" font-size="14.00" fill="#000000">StaticIconModule</text>
</g>
<!-- StaticIconModule&#45;&gt;BannerModule -->
<g id="edge3" class="edge">
<title>StaticIconModule&#45;&gt;BannerModule</title>
<path fill="none" stroke="#000000" d="M236.0831,-187.1061C236.0831,-187.1061 236.0831,-205.991 236.0831,-205.991"/>
<polygon fill="#000000" stroke="#000000" points="232.5832,-205.9909 236.0831,-215.991 239.5832,-205.991 232.5832,-205.9909"/>
</g>
</g>
</svg>
