<?xml version="1.0" encoding="UTF-8" standalone="no"?>
<!DOCTYPE svg PUBLIC "-//W3C//DTD SVG 1.1//EN"
 "http://www.w3.org/Graphics/SVG/1.1/DTD/svg11.dtd">
<!-- Generated by graphviz version 2.40.1 (20161225.0304)
 -->
<!-- Title: dependencies Pages: 1 -->
<svg width="504pt" height="284pt"
 viewBox="0.00 0.00 504.00 284.00" xmlns="http://www.w3.org/2000/svg" xmlns:xlink="http://www.w3.org/1999/xlink">
<g id="graph0" class="graph" transform="scale(1 1) rotate(0) translate(4 280)">
<title>dependencies</title>
<polygon fill="#ffffff" stroke="transparent" points="-4,4 -4,-280 500,-280 500,4 -4,4"/>
<text text-anchor="start" x="227.0091" y="-42.4" font-family="sans-serif" font-weight="bold" font-size="14.00" fill="#000000">Legend</text>
<polygon fill="#ffffb3" stroke="transparent" points="14,-10 14,-30 34,-30 34,-10 14,-10"/>
<text text-anchor="start" x="37.629" y="-15.4" font-family="sans-serif" font-size="14.00" fill="#000000"> &#160;Declarations</text>
<polygon fill="#8dd3c7" stroke="transparent" points="127,-10 127,-30 147,-30 147,-10 127,-10"/>
<text text-anchor="start" x="150.7251" y="-15.4" font-family="sans-serif" font-size="14.00" fill="#000000"> &#160;Module</text>
<polygon fill="#80b1d3" stroke="transparent" points="213,-10 213,-30 233,-30 233,-10 213,-10"/>
<text text-anchor="start" x="236.7812" y="-15.4" font-family="sans-serif" font-size="14.00" fill="#000000"> &#160;Bootstrap</text>
<polygon fill="#fdb462" stroke="transparent" points="310,-10 310,-30 330,-30 330,-10 310,-10"/>
<text text-anchor="start" x="333.6732" y="-15.4" font-family="sans-serif" font-size="14.00" fill="#000000"> &#160;Providers</text>
<polygon fill="#fb8072" stroke="transparent" points="406,-10 406,-30 426,-30 426,-10 406,-10"/>
<text text-anchor="start" x="429.7258" y="-15.4" font-family="sans-serif" font-size="14.00" fill="#000000"> &#160;Exports</text>
<g id="clust1" class="cluster">
<title>cluster_SideNavModule</title>
<polygon fill="none" stroke="#000000" stroke-dasharray="1,5" points="34,-70 34,-268 462,-268 462,-70 34,-70"/>
</g>
<g id="clust2" class="cluster">
<title>cluster_SideNavModule_declarations</title>
<polygon fill="none" stroke="#000000" points="152,-78 152,-130 454,-130 454,-78 152,-78"/>
</g>
<g id="clust6" class="cluster">
<title>cluster_SideNavModule_imports</title>
<polygon fill="none" stroke="#000000" points="42,-78 42,-130 144,-130 144,-78 42,-78"/>
</g>
<g id="clust7" class="cluster">
<title>cluster_SideNavModule_exports</title>
<polygon fill="none" stroke="#000000" points="91,-208 91,-260 405,-260 405,-208 91,-208"/>
</g>
<!-- SideNav -->
<g id="node1" class="node">
<title>SideNav</title>
<polygon fill="#ffffb3" stroke="#000000" points="446.2093,-122 381.7907,-122 381.7907,-86 446.2093,-86 446.2093,-122"/>
<text text-anchor="middle" x="414" y="-99.8" font-family="Times,serif" font-size="14.00" fill="#000000">SideNav</text>
</g>
<!-- SideNavModule -->
<g id="node4" class="node">
<title>SideNavModule</title>
<polygon fill="#8dd3c7" stroke="#000000" points="317.7591,-187 314.7591,-191 293.7591,-191 290.7591,-187 210.2409,-187 210.2409,-151 317.7591,-151 317.7591,-187"/>
<text text-anchor="middle" x="264" y="-164.8" font-family="Times,serif" font-size="14.00" fill="#000000">SideNavModule</text>
</g>
<!-- SideNav&#45;&gt;SideNavModule -->
<g id="edge1" class="edge">
<title>SideNav&#45;&gt;SideNavModule</title>
<path fill="none" stroke="#000000" d="M389.375,-122.1061C389.375,-141.3391 389.375,-169 389.375,-169 389.375,-169 327.8979,-169 327.8979,-169"/>
<polygon fill="#000000" stroke="#000000" points="327.8979,-165.5001 317.8979,-169 327.8979,-172.5001 327.8979,-165.5001"/>
</g>
<!-- SideNavItem -->
<g id="node2" class="node">
<title>SideNavItem</title>
<polygon fill="#ffffb3" stroke="#000000" points="363.8655,-122 274.1345,-122 274.1345,-86 363.8655,-86 363.8655,-122"/>
<text text-anchor="middle" x="319" y="-99.8" font-family="Times,serif" font-size="14.00" fill="#000000">SideNavItem</text>
</g>
<!-- SideNavItem&#45;&gt;SideNavModule -->
<g id="edge2" class="edge">
<title>SideNavItem&#45;&gt;SideNavModule</title>
<path fill="none" stroke="#000000" d="M295.9734,-122.1061C295.9734,-122.1061 295.9734,-140.991 295.9734,-140.991"/>
<polygon fill="#000000" stroke="#000000" points="292.4734,-140.9909 295.9734,-150.991 299.4734,-140.991 292.4734,-140.9909"/>
</g>
<!-- SideNavMenu -->
<g id="node3" class="node">
<title>SideNavMenu</title>
<polygon fill="#ffffb3" stroke="#000000" points="256.3683,-122 159.6317,-122 159.6317,-86 256.3683,-86 256.3683,-122"/>
<text text-anchor="middle" x="208" y="-99.8" font-family="Times,serif" font-size="14.00" fill="#000000">SideNavMenu</text>
</g>
<!-- SideNavMenu&#45;&gt;SideNavModule -->
<g id="edge3" class="edge">
<title>SideNavMenu&#45;&gt;SideNavModule</title>
<path fill="none" stroke="#000000" d="M233.2774,-122.1061C233.2774,-122.1061 233.2774,-140.991 233.2774,-140.991"/>
<polygon fill="#000000" stroke="#000000" points="229.7774,-140.9909 233.2774,-150.991 236.7774,-140.991 229.7774,-140.9909"/>
</g>
<!-- SideNav  -->
<g id="node6" class="node">
<title>SideNav </title>
<polygon fill="#fb8072" stroke="#000000" points="396.7096,-252 329.2904,-252 329.2904,-216 396.7096,-216 396.7096,-252"/>
<text text-anchor="middle" x="363" y="-229.8" font-family="Times,serif" font-size="14.00" fill="#000000">SideNav </text>
</g>
<!-- SideNavModule&#45;&gt;SideNav  -->
<g id="edge5" class="edge">
<title>SideNavModule&#45;&gt;SideNav </title>
<path fill="none" stroke="#000000" stroke-dasharray="5,2" d="M314.2811,-187.1061C314.2811,-206.3391 314.2811,-234 314.2811,-234 314.2811,-234 319.1631,-234 319.1631,-234"/>
<polygon fill="#000000" stroke="#000000" points="319.1631,-237.5001 329.1631,-234 319.163,-230.5001 319.1631,-237.5001"/>
</g>
<!-- SideNavItem  -->
<g id="node7" class="node">
<title>SideNavItem </title>
<polygon fill="#fb8072" stroke="#000000" points="310.8661,-252 217.1339,-252 217.1339,-216 310.8661,-216 310.8661,-252"/>
<text text-anchor="middle" x="264" y="-229.8" font-family="Times,serif" font-size="14.00" fill="#000000">SideNavItem </text>
</g>
<!-- SideNavModule&#45;&gt;SideNavItem  -->
<g id="edge6" class="edge">
<title>SideNavModule&#45;&gt;SideNavItem </title>
<path fill="none" stroke="#000000" stroke-dasharray="5,2" d="M264,-187.1061C264,-187.1061 264,-205.991 264,-205.991"/>
<polygon fill="#000000" stroke="#000000" points="260.5001,-205.9909 264,-215.991 267.5001,-205.991 260.5001,-205.9909"/>
</g>
<!-- SideNavMenu  -->
<g id="node8" class="node">
<title>SideNavMenu </title>
<polygon fill="#fb8072" stroke="#000000" points="199.3689,-252 98.6311,-252 98.6311,-216 199.3689,-216 199.3689,-252"/>
<text text-anchor="middle" x="149" y="-229.8" font-family="Times,serif" font-size="14.00" fill="#000000">SideNavMenu </text>
</g>
<!-- SideNavModule&#45;&gt;SideNavMenu  -->
<g id="edge7" class="edge">
<title>SideNavModule&#45;&gt;SideNavMenu </title>
<path fill="none" stroke="#000000" stroke-dasharray="5,2" d="M213.719,-187.1061C213.719,-206.3391 213.719,-234 213.719,-234 213.719,-234 209.3557,-234 209.3557,-234"/>
<polygon fill="#000000" stroke="#000000" points="209.3558,-230.5001 199.3557,-234 209.3557,-237.5001 209.3558,-230.5001"/>
</g>
<!-- I18nModule -->
<g id="node5" class="node">
<title>I18nModule</title>
<polygon fill="#8dd3c7" stroke="#000000" points="135.7107,-122 132.7107,-126 111.7107,-126 108.7107,-122 50.2893,-122 50.2893,-86 135.7107,-86 135.7107,-122"/>
<text text-anchor="middle" x="93" y="-99.8" font-family="Times,serif" font-size="14.00" fill="#000000">I18nModule</text>
</g>
<!-- I18nModule&#45;&gt;SideNavModule -->
<g id="edge4" class="edge">
<title>I18nModule&#45;&gt;SideNavModule</title>
<path fill="none" stroke="#000000" d="M117.2106,-122.1061C117.2106,-141.3391 117.2106,-169 117.2106,-169 117.2106,-169 200.1745,-169 200.1745,-169"/>
<polygon fill="#000000" stroke="#000000" points="200.1746,-172.5001 210.1745,-169 200.1745,-165.5001 200.1746,-172.5001"/>
</g>
</g>
</svg>
