<?xml version="1.0" encoding="UTF-8" standalone="no"?>
<!DOCTYPE svg PUBLIC "-//W3C//DTD SVG 1.1//EN"
 "http://www.w3.org/Graphics/SVG/1.1/DTD/svg11.dtd">
<!-- Generated by graphviz version 2.47.0 (20210316.0004)
 -->
<!-- Title: dependencies Pages: 1 -->
<svg width="1296pt" height="396pt"
 viewBox="0.00 0.00 1296.00 395.59" xmlns="http://www.w3.org/2000/svg" xmlns:xlink="http://www.w3.org/1999/xlink">
<g id="graph0" class="graph" transform="scale(1 1) rotate(0) translate(4 391.59)">
<title>dependencies</title>
<polygon fill="white" stroke="transparent" points="-4,4 -4,-391.59 1292,-391.59 1292,4 -4,4"/>
<text text-anchor="start" x="623.01" y="-42.4" font-family="Times-12" font-weight="bold" font-size="14.00">Legend</text>
<polygon fill="#ffffb3" stroke="transparent" points="410,-10 410,-30 430,-30 430,-10 410,-10"/>
<text text-anchor="start" x="433.63" y="-15.4" font-family="Times-12" font-size="14.00"> &#160;Declarations</text>
<polygon fill="#8dd3c7" stroke="transparent" points="523,-10 523,-30 543,-30 543,-10 523,-10"/>
<text text-anchor="start" x="546.73" y="-15.4" font-family="Times-12" font-size="14.00"> &#160;Module</text>
<polygon fill="#80b1d3" stroke="transparent" points="609,-10 609,-30 629,-30 629,-10 609,-10"/>
<text text-anchor="start" x="632.78" y="-15.4" font-family="Times-12" font-size="14.00"> &#160;Bootstrap</text>
<polygon fill="#fdb462" stroke="transparent" points="706,-10 706,-30 726,-30 726,-10 706,-10"/>
<text text-anchor="start" x="729.67" y="-15.4" font-family="Times-12" font-size="14.00"> &#160;Providers</text>
<polygon fill="#fb8072" stroke="transparent" points="802,-10 802,-30 822,-30 822,-10 802,-10"/>
<text text-anchor="start" x="825.73" y="-15.4" font-family="Times-12" font-size="14.00"> &#160;Exports</text>
<g id="clust1" class="cluster">
<title>cluster_CheckboxModule</title>
<polygon fill="none" stroke="black" stroke-dasharray="1,5" points="8,-70 8,-379.59 1280,-379.59 1280,-70 8,-70"/>
</g>
<g id="clust2" class="cluster">
<title>cluster_CheckboxModule_declarations</title>
<polygon fill="none" stroke="black" points="522,-189.59 522,-241.59 737,-241.59 737,-189.59 522,-189.59"/>
</g>
<g id="clust5" class="cluster">
<title>cluster_CheckboxModule_imports</title>
<polygon fill="none" stroke="black" points="745,-189.59 745,-241.59 845,-241.59 845,-189.59 745,-189.59"/>
</g>
<g id="clust6" class="cluster">
<title>cluster_CheckboxModule_exports</title>
<polygon fill="none" stroke="black" points="573,-319.59 573,-371.59 795,-371.59 795,-319.59 573,-319.59"/>
</g>
<g id="clust3" class="cluster">
<title>cluster_CheckboxModule_Checkbox_providers</title>
<polygon fill="none" stroke="black" points="638,-78 638,-176.59 1272,-176.59 1272,-78 638,-78"/>
</g>
<g id="clust4" class="cluster">
<title>cluster_CheckboxModule_CheckboxGroup_providers</title>
<polygon fill="none" stroke="black" points="16,-101.3 16,-153.3 630,-153.3 630,-101.3 16,-101.3"/>
</g>
<!-- Checkbox -->
<g id="node1" class="node">
<title>Checkbox</title>
<polygon fill="#ffffb3" stroke="black" points="729.27,-233.59 656.73,-233.59 656.73,-197.59 729.27,-197.59 729.27,-233.59"/>
<text text-anchor="middle" x="693" y="-211.39" font-family="Times,serif" font-size="14.00">Checkbox</text>
</g>
<!-- CheckboxModule -->
<g id="node3" class="node">
<title>CheckboxModule</title>
<polygon fill="#8dd3c7" stroke="black" points="751.32,-298.59 748.32,-302.59 727.32,-302.59 724.32,-298.59 634.68,-298.59 634.68,-262.59 751.32,-262.59 751.32,-298.59"/>
<text text-anchor="middle" x="693" y="-276.39" font-family="Times,serif" font-size="14.00">CheckboxModule</text>
</g>
<!-- Checkbox&#45;&gt;CheckboxModule -->
<g id="edge1" class="edge">
<title>Checkbox&#45;&gt;CheckboxModule</title>
<path fill="none" stroke="black" d="M693,-233.7C693,-233.7 693,-252.58 693,-252.58"/>
<polygon fill="black" stroke="black" points="689.5,-252.58 693,-262.58 696.5,-252.58 689.5,-252.58"/>
</g>
<!-- CheckboxGroup -->
<g id="node2" class="node">
<title>CheckboxGroup</title>
<polygon fill="#ffffb3" stroke="black" points="638.03,-233.59 529.97,-233.59 529.97,-197.59 638.03,-197.59 638.03,-233.59"/>
<text text-anchor="middle" x="584" y="-211.39" font-family="Times,serif" font-size="14.00">CheckboxGroup</text>
</g>
<!-- CheckboxGroup&#45;&gt;CheckboxModule -->
<g id="edge3" class="edge">
<title>CheckboxGroup&#45;&gt;CheckboxModule</title>
<path fill="none" stroke="black" d="M638.17,-215.59C640.79,-215.59 642.36,-215.59 642.36,-215.59 642.36,-215.59 642.36,-252.48 642.36,-252.48"/>
<polygon fill="black" stroke="black" points="638.86,-252.48 642.36,-262.48 645.86,-252.48 638.86,-252.48"/>
</g>
<!-- Checkbox  -->
<g id="node7" class="node">
<title>Checkbox </title>
<polygon fill="#fb8072" stroke="black" points="787.27,-363.59 710.73,-363.59 710.73,-327.59 787.27,-327.59 787.27,-363.59"/>
<text text-anchor="middle" x="749" y="-341.39" font-family="Times,serif" font-size="14.00">Checkbox </text>
</g>
<!-- CheckboxModule&#45;&gt;Checkbox  -->
<g id="edge6" class="edge">
<title>CheckboxModule&#45;&gt;Checkbox </title>
<path fill="none" stroke="black" stroke-dasharray="5,2" d="M731.01,-298.7C731.01,-298.7 731.01,-317.58 731.01,-317.58"/>
<polygon fill="black" stroke="black" points="727.51,-317.58 731.01,-327.58 734.51,-317.58 727.51,-317.58"/>
</g>
<!-- CheckboxGroup  -->
<g id="node8" class="node">
<title>CheckboxGroup </title>
<polygon fill="#fb8072" stroke="black" points="693.03,-363.59 580.97,-363.59 580.97,-327.59 693.03,-327.59 693.03,-363.59"/>
<text text-anchor="middle" x="637" y="-341.39" font-family="Times,serif" font-size="14.00">CheckboxGroup </text>
</g>
<!-- CheckboxModule&#45;&gt;CheckboxGroup  -->
<g id="edge7" class="edge">
<title>CheckboxModule&#45;&gt;CheckboxGroup </title>
<path fill="none" stroke="black" stroke-dasharray="5,2" d="M663.93,-298.7C663.93,-298.7 663.93,-317.58 663.93,-317.58"/>
<polygon fill="black" stroke="black" points="660.43,-317.58 663.93,-327.58 667.43,-317.58 660.43,-317.58"/>
</g>
<!-- {
 &#160;&#160;&#160;provide: NG_VALUE_ACCESSOR, useExisting: Checkbox, multi: true
} -->
<g id="node4" class="node">
<title>{
 &#160;&#160;&#160;provide: NG_VALUE_ACCESSOR, useExisting: Checkbox, multi: true
}</title>
<ellipse fill="#fdb462" stroke="black" cx="955" cy="-127.3" rx="308.58" ry="41.09"/>
<text text-anchor="middle" x="955" y="-139.9" font-family="Times,serif" font-size="14.00">{</text>
<text text-anchor="middle" x="955" y="-123.1" font-family="Times,serif" font-size="14.00"> &#160;&#160;&#160;provide: NG_VALUE_ACCESSOR, useExisting: Checkbox, multi: true</text>
<text text-anchor="middle" x="955" y="-106.3" font-family="Times,serif" font-size="14.00">}</text>
</g>
<!-- {
 &#160;&#160;&#160;provide: NG_VALUE_ACCESSOR, useExisting: Checkbox, multi: true
}&#45;&gt;Checkbox -->
<g id="edge2" class="edge">
<title>{
 &#160;&#160;&#160;provide: NG_VALUE_ACCESSOR, useExisting: Checkbox, multi: true
}&#45;&gt;Checkbox</title>
<path fill="none" stroke="black" d="M693,-149.12C693,-149.12 693,-187.58 693,-187.58"/>
<polygon fill="black" stroke="black" points="689.5,-187.58 693,-197.58 696.5,-187.58 689.5,-187.58"/>
</g>
<!-- { provide: CHECKBOX_GROUP_HOST, useExisting: CheckboxGroup } -->
<g id="node5" class="node">
<title>{ provide: CHECKBOX_GROUP_HOST, useExisting: CheckboxGroup }</title>
<ellipse fill="#fdb462" stroke="black" cx="323" cy="-127.3" rx="299.48" ry="18"/>
<text text-anchor="middle" x="323" y="-123.1" font-family="Times,serif" font-size="14.00">{ provide: CHECKBOX_GROUP_HOST, useExisting: CheckboxGroup }</text>
</g>
<!-- { provide: CHECKBOX_GROUP_HOST, useExisting: CheckboxGroup }&#45;&gt;CheckboxGroup -->
<g id="edge4" class="edge">
<title>{ provide: CHECKBOX_GROUP_HOST, useExisting: CheckboxGroup }&#45;&gt;CheckboxGroup</title>
<path fill="none" stroke="black" d="M575.99,-137.08C575.99,-137.08 575.99,-187.49 575.99,-187.49"/>
<polygon fill="black" stroke="black" points="572.49,-187.49 575.99,-197.49 579.49,-187.49 572.49,-187.49"/>
</g>
<!-- IconModule -->
<g id="node6" class="node">
<title>IconModule</title>
<polygon fill="#8dd3c7" stroke="black" points="837.43,-233.59 834.43,-237.59 813.43,-237.59 810.43,-233.59 752.57,-233.59 752.57,-197.59 837.43,-197.59 837.43,-233.59"/>
<text text-anchor="middle" x="795" y="-211.39" font-family="Times,serif" font-size="14.00">IconModule</text>
</g>
<!-- IconModule&#45;&gt;CheckboxModule -->
<g id="edge5" class="edge">
<title>IconModule&#45;&gt;CheckboxModule</title>
<path fill="none" stroke="black" d="M752.69,-215.59C745.48,-215.59 740.27,-215.59 740.27,-215.59 740.27,-215.59 740.27,-252.48 740.27,-252.48"/>
<polygon fill="black" stroke="black" points="736.77,-252.48 740.27,-262.48 743.77,-252.48 736.77,-252.48"/>
</g>
</g>
</svg>
