<?xml version="1.0" encoding="UTF-8" standalone="no"?>
<!DOCTYPE svg PUBLIC "-//W3C//DTD SVG 1.1//EN"
 "http://www.w3.org/Graphics/SVG/1.1/DTD/svg11.dtd">
<!-- Generated by graphviz version 2.40.1 (20161225.0304)
 -->
<!-- Title: dependencies Pages: 1 -->
<svg width="1452pt" height="349pt"
 viewBox="0.00 0.00 1452.00 349.00" xmlns="http://www.w3.org/2000/svg" xmlns:xlink="http://www.w3.org/1999/xlink">
<g id="graph0" class="graph" transform="scale(1 1) rotate(0) translate(4 345)">
<title>dependencies</title>
<polygon fill="#ffffff" stroke="transparent" points="-4,4 -4,-345 1448,-345 1448,4 -4,4"/>
<text text-anchor="start" x="701.0091" y="-42.4" font-family="sans-serif" font-weight="bold" font-size="14.00" fill="#000000">Legend</text>
<polygon fill="#ffffb3" stroke="transparent" points="488,-10 488,-30 508,-30 508,-10 488,-10"/>
<text text-anchor="start" x="511.629" y="-15.4" font-family="sans-serif" font-size="14.00" fill="#000000"> &#160;Declarations</text>
<polygon fill="#8dd3c7" stroke="transparent" points="601,-10 601,-30 621,-30 621,-10 601,-10"/>
<text text-anchor="start" x="624.7251" y="-15.4" font-family="sans-serif" font-size="14.00" fill="#000000"> &#160;Module</text>
<polygon fill="#80b1d3" stroke="transparent" points="687,-10 687,-30 707,-30 707,-10 687,-10"/>
<text text-anchor="start" x="710.7812" y="-15.4" font-family="sans-serif" font-size="14.00" fill="#000000"> &#160;Bootstrap</text>
<polygon fill="#fdb462" stroke="transparent" points="784,-10 784,-30 804,-30 804,-10 784,-10"/>
<text text-anchor="start" x="807.6732" y="-15.4" font-family="sans-serif" font-size="14.00" fill="#000000"> &#160;Providers</text>
<polygon fill="#fb8072" stroke="transparent" points="880,-10 880,-30 900,-30 900,-10 880,-10"/>
<text text-anchor="start" x="903.7258" y="-15.4" font-family="sans-serif" font-size="14.00" fill="#000000"> &#160;Exports</text>
<g id="clust1" class="cluster">
<title>cluster_DialogModule</title>
<polygon fill="none" stroke="#000000" stroke-dasharray="1,5" points="8,-70 8,-333 1436,-333 1436,-70 8,-70"/>
</g>
<g id="clust2" class="cluster">
<title>cluster_DialogModule_declarations</title>
<polygon fill="none" stroke="#000000" points="156,-143 156,-195 1416,-195 1416,-143 156,-143"/>
</g>
<g id="clust7" class="cluster">
<title>cluster_DialogModule_DialogDirective_providers</title>
<polygon fill="none" stroke="#000000" points="1110,-78 1110,-130 1258,-130 1258,-78 1110,-78"/>
</g>
<g id="clust13" class="cluster">
<title>cluster_DialogModule_imports</title>
<polygon fill="none" stroke="#000000" points="16,-143 16,-195 148,-195 148,-143 16,-143"/>
</g>
<g id="clust14" class="cluster">
<title>cluster_DialogModule_exports</title>
<polygon fill="none" stroke="#000000" points="73,-273 73,-325 1371,-325 1371,-273 73,-273"/>
</g>
<!-- Dialog -->
<g id="node1" class="node">
<title>Dialog</title>
<polygon fill="#ffffb3" stroke="#000000" points="1408.1025,-187 1353.8975,-187 1353.8975,-151 1408.1025,-151 1408.1025,-187"/>
<text text-anchor="middle" x="1381" y="-164.8" font-family="Times,serif" font-size="14.00" fill="#000000">Dialog</text>
</g>
<!-- DialogModule -->
<g id="node11" class="node">
<title>DialogModule</title>
<polygon fill="#8dd3c7" stroke="#000000" points="967.6528,-252 964.6528,-256 943.6528,-256 940.6528,-252 870.3472,-252 870.3472,-216 967.6528,-216 967.6528,-252"/>
<text text-anchor="middle" x="919" y="-229.8" font-family="Times,serif" font-size="14.00" fill="#000000">DialogModule</text>
</g>
<!-- Dialog&#45;&gt;DialogModule -->
<g id="edge1" class="edge">
<title>Dialog&#45;&gt;DialogModule</title>
<path fill="none" stroke="#000000" d="M1358.375,-187.2222C1358.375,-205.8285 1358.375,-232 1358.375,-232 1358.375,-232 977.6996,-232 977.6996,-232"/>
<polygon fill="#000000" stroke="#000000" points="977.6996,-228.5001 967.6996,-232 977.6995,-235.5001 977.6996,-228.5001"/>
</g>
<!-- Popover -->
<g id="node2" class="node">
<title>Popover</title>
<polygon fill="#ffffb3" stroke="#000000" points="1336.1587,-187 1273.8413,-187 1273.8413,-151 1336.1587,-151 1336.1587,-187"/>
<text text-anchor="middle" x="1305" y="-164.8" font-family="Times,serif" font-size="14.00" fill="#000000">Popover</text>
</g>
<!-- Popover&#45;&gt;DialogModule -->
<g id="edge2" class="edge">
<title>Popover&#45;&gt;DialogModule</title>
<path fill="none" stroke="#000000" d="M1280.375,-187.0225C1280.375,-204.3734 1280.375,-228 1280.375,-228 1280.375,-228 977.7366,-228 977.7366,-228"/>
<polygon fill="#000000" stroke="#000000" points="977.7367,-224.5001 967.7366,-228 977.7366,-231.5001 977.7367,-224.5001"/>
</g>
<!-- PopoverMenu -->
<g id="node3" class="node">
<title>PopoverMenu</title>
<polygon fill="#ffffb3" stroke="#000000" points="1255.8175,-187 1160.1825,-187 1160.1825,-151 1255.8175,-151 1255.8175,-187"/>
<text text-anchor="middle" x="1208" y="-164.8" font-family="Times,serif" font-size="14.00" fill="#000000">PopoverMenu</text>
</g>
<!-- PopoverMenu&#45;&gt;DialogModule -->
<g id="edge3" class="edge">
<title>PopoverMenu&#45;&gt;DialogModule</title>
<path fill="none" stroke="#000000" d="M1181.875,-187.0091C1181.875,-203.0494 1181.875,-224 1181.875,-224 1181.875,-224 977.8287,-224 977.8287,-224"/>
<polygon fill="#000000" stroke="#000000" points="977.8287,-220.5001 967.8287,-224 977.8287,-227.5001 977.8287,-220.5001"/>
</g>
<!-- Tooltip -->
<g id="node4" class="node">
<title>Tooltip</title>
<polygon fill="#ffffb3" stroke="#000000" points="1142.7248,-187 1085.2752,-187 1085.2752,-151 1142.7248,-151 1142.7248,-187"/>
<text text-anchor="middle" x="1114" y="-164.8" font-family="Times,serif" font-size="14.00" fill="#000000">Tooltip</text>
</g>
<!-- Tooltip&#45;&gt;DialogModule -->
<g id="edge4" class="edge">
<title>Tooltip&#45;&gt;DialogModule</title>
<path fill="none" stroke="#000000" d="M1095.4769,-187.1243C1095.4769,-201.7832 1095.4769,-220 1095.4769,-220 1095.4769,-220 977.6902,-220 977.6902,-220"/>
<polygon fill="#000000" stroke="#000000" points="977.6903,-216.5001 967.6902,-220 977.6902,-223.5001 977.6903,-216.5001"/>
</g>
<!-- DialogDirective -->
<g id="node5" class="node">
<title>DialogDirective</title>
<polygon fill="#ffffb3" stroke="#000000" points="1067.1854,-187 960.8146,-187 960.8146,-151 1067.1854,-151 1067.1854,-187"/>
<text text-anchor="middle" x="1014" y="-164.8" font-family="Times,serif" font-size="14.00" fill="#000000">DialogDirective</text>
</g>
<!-- DialogDirective&#45;&gt;DialogModule -->
<g id="edge5" class="edge">
<title>DialogDirective&#45;&gt;DialogModule</title>
<path fill="none" stroke="#000000" d="M960.5008,-169C957.1337,-169 955.0617,-169 955.0617,-169 955.0617,-169 955.0617,-205.8939 955.0617,-205.8939"/>
<polygon fill="#000000" stroke="#000000" points="951.5618,-205.8938 955.0617,-215.8939 958.5618,-205.8939 951.5618,-205.8938"/>
</g>
<!-- PopoverDirective -->
<g id="node6" class="node">
<title>PopoverDirective</title>
<polygon fill="#ffffb3" stroke="#000000" points="943.2409,-187 828.7591,-187 828.7591,-151 943.2409,-151 943.2409,-187"/>
<text text-anchor="middle" x="886" y="-164.8" font-family="Times,serif" font-size="14.00" fill="#000000">PopoverDirective</text>
</g>
<!-- PopoverDirective&#45;&gt;DialogModule -->
<g id="edge7" class="edge">
<title>PopoverDirective&#45;&gt;DialogModule</title>
<path fill="none" stroke="#000000" d="M906.7721,-187.1061C906.7721,-187.1061 906.7721,-205.991 906.7721,-205.991"/>
<polygon fill="#000000" stroke="#000000" points="903.2722,-205.9909 906.7721,-215.991 910.2722,-205.991 903.2722,-205.9909"/>
</g>
<!-- PopoverMenuDirective -->
<g id="node7" class="node">
<title>PopoverMenuDirective</title>
<polygon fill="#ffffb3" stroke="#000000" points="810.9003,-187 663.0997,-187 663.0997,-151 810.9003,-151 810.9003,-187"/>
<text text-anchor="middle" x="737" y="-164.8" font-family="Times,serif" font-size="14.00" fill="#000000">PopoverMenuDirective</text>
</g>
<!-- PopoverMenuDirective&#45;&gt;DialogModule -->
<g id="edge8" class="edge">
<title>PopoverMenuDirective&#45;&gt;DialogModule</title>
<path fill="none" stroke="#000000" d="M786.2898,-187.1243C786.2898,-201.7832 786.2898,-220 786.2898,-220 786.2898,-220 860.3372,-220 860.3372,-220"/>
<polygon fill="#000000" stroke="#000000" points="860.3372,-223.5001 870.3372,-220 860.3372,-216.5001 860.3372,-223.5001"/>
</g>
<!-- TooltipDirective -->
<g id="node8" class="node">
<title>TooltipDirective</title>
<polygon fill="#ffffb3" stroke="#000000" points="645.8076,-187 536.1924,-187 536.1924,-151 645.8076,-151 645.8076,-187"/>
<text text-anchor="middle" x="591" y="-164.8" font-family="Times,serif" font-size="14.00" fill="#000000">TooltipDirective</text>
</g>
<!-- TooltipDirective&#45;&gt;DialogModule -->
<g id="edge9" class="edge">
<title>TooltipDirective&#45;&gt;DialogModule</title>
<path fill="none" stroke="#000000" d="M619.1019,-187.0091C619.1019,-203.0494 619.1019,-224 619.1019,-224 619.1019,-224 860.1487,-224 860.1487,-224"/>
<polygon fill="#000000" stroke="#000000" points="860.1488,-227.5001 870.1487,-224 860.1487,-220.5001 860.1488,-227.5001"/>
</g>
<!-- EllipsisTooltipDirective -->
<g id="node9" class="node">
<title>EllipsisTooltipDirective</title>
<polygon fill="#ffffb3" stroke="#000000" points="518.8117,-187 367.1883,-187 367.1883,-151 518.8117,-151 518.8117,-187"/>
<text text-anchor="middle" x="443" y="-164.8" font-family="Times,serif" font-size="14.00" fill="#000000">EllipsisTooltipDirective</text>
</g>
<!-- EllipsisTooltipDirective&#45;&gt;DialogModule -->
<g id="edge10" class="edge">
<title>EllipsisTooltipDirective&#45;&gt;DialogModule</title>
<path fill="none" stroke="#000000" d="M490.1261,-187.0336C490.1261,-204.0597 490.1261,-227 490.1261,-227 490.1261,-227 860.2203,-227 860.2203,-227"/>
<polygon fill="#000000" stroke="#000000" points="860.2203,-230.5001 870.2203,-227 860.2202,-223.5001 860.2203,-230.5001"/>
</g>
<!-- DialogPlaceholderComponent -->
<g id="node10" class="node">
<title>DialogPlaceholderComponent</title>
<polygon fill="#ffffb3" stroke="#000000" points="349.5182,-187 164.4818,-187 164.4818,-151 349.5182,-151 349.5182,-187"/>
<text text-anchor="middle" x="257" y="-164.8" font-family="Times,serif" font-size="14.00" fill="#000000">DialogPlaceholderComponent</text>
</g>
<!-- DialogPlaceholderComponent&#45;&gt;DialogModule -->
<g id="edge11" class="edge">
<title>DialogPlaceholderComponent&#45;&gt;DialogModule</title>
<path fill="none" stroke="#000000" d="M319.1766,-187.2667C319.1766,-205.5552 319.1766,-231 319.1766,-231 319.1766,-231 860.1683,-231 860.1683,-231"/>
<polygon fill="#000000" stroke="#000000" points="860.1683,-234.5001 870.1683,-231 860.1682,-227.5001 860.1683,-234.5001"/>
</g>
<!-- Dialog  -->
<g id="node14" class="node">
<title>Dialog </title>
<polygon fill="#fb8072" stroke="#000000" points="1362.6038,-317 1305.3962,-317 1305.3962,-281 1362.6038,-281 1362.6038,-317"/>
<text text-anchor="middle" x="1334" y="-294.8" font-family="Times,serif" font-size="14.00" fill="#000000">Dialog </text>
</g>
<!-- DialogModule&#45;&gt;Dialog  -->
<g id="edge13" class="edge">
<title>DialogModule&#45;&gt;Dialog </title>
<path fill="none" stroke="#000000" stroke-dasharray="5,2" d="M967.8625,-236C1074.9332,-236 1320.7638,-236 1320.7638,-236 1320.7638,-236 1320.7638,-270.7778 1320.7638,-270.7778"/>
<polygon fill="#000000" stroke="#000000" points="1317.2639,-270.7778 1320.7638,-280.7778 1324.2639,-270.7778 1317.2639,-270.7778"/>
</g>
<!-- Popover  -->
<g id="node15" class="node">
<title>Popover </title>
<polygon fill="#fb8072" stroke="#000000" points="1287.158,-317 1220.842,-317 1220.842,-281 1287.158,-281 1287.158,-317"/>
<text text-anchor="middle" x="1254" y="-294.8" font-family="Times,serif" font-size="14.00" fill="#000000">Popover </text>
</g>
<!-- DialogModule&#45;&gt;Popover  -->
<g id="edge14" class="edge">
<title>DialogModule&#45;&gt;Popover </title>
<path fill="none" stroke="#000000" stroke-dasharray="5,2" d="M967.8408,-240C1057.2834,-240 1238.2898,-240 1238.2898,-240 1238.2898,-240 1238.2898,-270.9775 1238.2898,-270.9775"/>
<polygon fill="#000000" stroke="#000000" points="1234.7899,-270.9774 1238.2898,-280.9775 1241.7899,-270.9775 1234.7899,-270.9774"/>
</g>
<!-- PopoverMenu  -->
<g id="node16" class="node">
<title>PopoverMenu </title>
<polygon fill="#fb8072" stroke="#000000" points="1203.3172,-317 1104.6828,-317 1104.6828,-281 1203.3172,-281 1203.3172,-317"/>
<text text-anchor="middle" x="1154" y="-294.8" font-family="Times,serif" font-size="14.00" fill="#000000">PopoverMenu </text>
</g>
<!-- DialogModule&#45;&gt;PopoverMenu  -->
<g id="edge15" class="edge">
<title>DialogModule&#45;&gt;PopoverMenu </title>
<path fill="none" stroke="#000000" stroke-dasharray="5,2" d="M967.7473,-244C1028.2643,-244 1123.6019,-244 1123.6019,-244 1123.6019,-244 1123.6019,-270.9909 1123.6019,-270.9909"/>
<polygon fill="#000000" stroke="#000000" points="1120.1019,-270.9909 1123.6019,-280.9909 1127.1019,-270.991 1120.1019,-270.9909"/>
</g>
<!-- Tooltip  -->
<g id="node17" class="node">
<title>Tooltip </title>
<polygon fill="#fb8072" stroke="#000000" points="1086.225,-317 1025.775,-317 1025.775,-281 1086.225,-281 1086.225,-317"/>
<text text-anchor="middle" x="1056" y="-294.8" font-family="Times,serif" font-size="14.00" fill="#000000">Tooltip </text>
</g>
<!-- DialogModule&#45;&gt;Tooltip  -->
<g id="edge16" class="edge">
<title>DialogModule&#45;&gt;Tooltip </title>
<path fill="none" stroke="#000000" stroke-dasharray="5,2" d="M967.8785,-248C1003.7961,-248 1046.3652,-248 1046.3652,-248 1046.3652,-248 1046.3652,-270.8757 1046.3652,-270.8757"/>
<polygon fill="#000000" stroke="#000000" points="1042.8653,-270.8757 1046.3652,-280.8757 1049.8653,-270.8757 1042.8653,-270.8757"/>
</g>
<!-- DialogDirective  -->
<g id="node18" class="node">
<title>DialogDirective </title>
<polygon fill="#fb8072" stroke="#000000" points="1007.6857,-317 898.3143,-317 898.3143,-281 1007.6857,-281 1007.6857,-317"/>
<text text-anchor="middle" x="953" y="-294.8" font-family="Times,serif" font-size="14.00" fill="#000000">DialogDirective </text>
</g>
<!-- DialogModule&#45;&gt;DialogDirective  -->
<g id="edge17" class="edge">
<title>DialogModule&#45;&gt;DialogDirective </title>
<path fill="none" stroke="#000000" stroke-dasharray="5,2" d="M932.9918,-252.1061C932.9918,-252.1061 932.9918,-270.991 932.9918,-270.991"/>
<polygon fill="#000000" stroke="#000000" points="929.4918,-270.9909 932.9918,-280.991 936.4918,-270.991 929.4918,-270.9909"/>
</g>
<!-- PopoverDirective  -->
<g id="node19" class="node">
<title>PopoverDirective </title>
<polygon fill="#fb8072" stroke="#000000" points="880.2408,-317 761.7592,-317 761.7592,-281 880.2408,-281 880.2408,-317"/>
<text text-anchor="middle" x="821" y="-294.8" font-family="Times,serif" font-size="14.00" fill="#000000">PopoverDirective </text>
</g>
<!-- DialogModule&#45;&gt;PopoverDirective  -->
<g id="edge18" class="edge">
<title>DialogModule&#45;&gt;PopoverDirective </title>
<path fill="none" stroke="#000000" stroke-dasharray="5,2" d="M875.1471,-252.1061C875.1471,-252.1061 875.1471,-270.991 875.1471,-270.991"/>
<polygon fill="#000000" stroke="#000000" points="871.6472,-270.9909 875.1471,-280.991 878.6472,-270.991 871.6472,-270.9909"/>
</g>
<!-- PopoverMenuDirective  -->
<g id="node20" class="node">
<title>PopoverMenuDirective </title>
<polygon fill="#fb8072" stroke="#000000" points="743.3998,-317 592.6002,-317 592.6002,-281 743.3998,-281 743.3998,-317"/>
<text text-anchor="middle" x="668" y="-294.8" font-family="Times,serif" font-size="14.00" fill="#000000">PopoverMenuDirective </text>
</g>
<!-- DialogModule&#45;&gt;PopoverMenuDirective  -->
<g id="edge19" class="edge">
<title>DialogModule&#45;&gt;PopoverMenuDirective </title>
<path fill="none" stroke="#000000" stroke-dasharray="5,2" d="M870.3407,-249C806.7443,-249 703.375,-249 703.375,-249 703.375,-249 703.375,-270.9489 703.375,-270.9489"/>
<polygon fill="#000000" stroke="#000000" points="699.8751,-270.9488 703.375,-280.9489 706.8751,-270.9489 699.8751,-270.9488"/>
</g>
<!-- TooltipDirective  -->
<g id="node21" class="node">
<title>TooltipDirective </title>
<polygon fill="#fb8072" stroke="#000000" points="574.3074,-317 461.6926,-317 461.6926,-281 574.3074,-281 574.3074,-317"/>
<text text-anchor="middle" x="518" y="-294.8" font-family="Times,serif" font-size="14.00" fill="#000000">TooltipDirective </text>
</g>
<!-- DialogModule&#45;&gt;TooltipDirective  -->
<g id="edge20" class="edge">
<title>DialogModule&#45;&gt;TooltipDirective </title>
<path fill="none" stroke="#000000" stroke-dasharray="5,2" d="M870.3372,-245C771.2527,-245 555.375,-245 555.375,-245 555.375,-245 555.375,-270.7181 555.375,-270.7181"/>
<polygon fill="#000000" stroke="#000000" points="551.8751,-270.718 555.375,-280.7181 558.8751,-270.7181 551.8751,-270.718"/>
</g>
<!-- EllipsisTooltipDirective  -->
<g id="node22" class="node">
<title>EllipsisTooltipDirective </title>
<polygon fill="#fb8072" stroke="#000000" points="443.3115,-317 288.6885,-317 288.6885,-281 443.3115,-281 443.3115,-317"/>
<text text-anchor="middle" x="366" y="-294.8" font-family="Times,serif" font-size="14.00" fill="#000000">EllipsisTooltipDirective </text>
</g>
<!-- DialogModule&#45;&gt;EllipsisTooltipDirective  -->
<g id="edge21" class="edge">
<title>DialogModule&#45;&gt;EllipsisTooltipDirective </title>
<path fill="none" stroke="#000000" stroke-dasharray="5,2" d="M870.2164,-242C742.0069,-242 405.375,-242 405.375,-242 405.375,-242 405.375,-270.9648 405.375,-270.9648"/>
<polygon fill="#000000" stroke="#000000" points="401.8751,-270.9648 405.375,-280.9648 408.8751,-270.9649 401.8751,-270.9648"/>
</g>
<!-- DialogPlaceholderComponent  -->
<g id="node23" class="node">
<title>DialogPlaceholderComponent </title>
<polygon fill="#fb8072" stroke="#000000" points="270.5176,-317 81.4824,-317 81.4824,-281 270.5176,-281 270.5176,-317"/>
<text text-anchor="middle" x="176" y="-294.8" font-family="Times,serif" font-size="14.00" fill="#000000">DialogPlaceholderComponent </text>
</g>
<!-- DialogModule&#45;&gt;DialogPlaceholderComponent  -->
<g id="edge22" class="edge">
<title>DialogModule&#45;&gt;DialogPlaceholderComponent </title>
<path fill="none" stroke="#000000" stroke-dasharray="5,2" d="M870.2201,-238C711.1072,-238 217.375,-238 217.375,-238 217.375,-238 217.375,-270.698 217.375,-270.698"/>
<polygon fill="#000000" stroke="#000000" points="213.8751,-270.698 217.375,-280.698 220.8751,-270.698 213.8751,-270.698"/>
</g>
<!-- DialogService -->
<g id="node12" class="node">
<title>DialogService</title>
<ellipse fill="#fdb462" stroke="#000000" cx="1184" cy="-104" rx="66.0492" ry="18"/>
<text text-anchor="middle" x="1184" y="-99.8" font-family="Times,serif" font-size="14.00" fill="#000000">DialogService</text>
</g>
<!-- DialogService&#45;&gt;DialogDirective -->
<g id="edge6" class="edge">
<title>DialogService&#45;&gt;DialogDirective</title>
<path fill="none" stroke="#000000" d="M1121.1813,-110C1072.7546,-110 1014,-110 1014,-110 1014,-110 1014,-140.9775 1014,-140.9775"/>
<polygon fill="#000000" stroke="#000000" points="1010.5001,-140.9774 1014,-150.9775 1017.5001,-140.9775 1010.5001,-140.9774"/>
</g>
<!-- DialogService&#45;&gt;DialogModule -->
<g id="edge23" class="edge">
<title>DialogService&#45;&gt;DialogModule</title>
<path fill="none" stroke="#000000" d="M1121.3906,-98C1051.8393,-98 949.216,-98 949.216,-98 949.216,-98 949.216,-205.9403 949.216,-205.9403"/>
<polygon fill="#000000" stroke="#000000" points="945.7161,-205.9402 949.216,-215.9403 952.7161,-205.9403 945.7161,-205.9402"/>
</g>
<!-- StaticIconModule -->
<g id="node13" class="node">
<title>StaticIconModule</title>
<polygon fill="#8dd3c7" stroke="#000000" points="140.309,-187 137.309,-191 116.309,-191 113.309,-187 23.691,-187 23.691,-151 140.309,-151 140.309,-187"/>
<text text-anchor="middle" x="82" y="-164.8" font-family="Times,serif" font-size="14.00" fill="#000000">StaticIconModule</text>
</g>
<!-- StaticIconModule&#45;&gt;DialogModule -->
<g id="edge12" class="edge">
<title>StaticIconModule&#45;&gt;DialogModule</title>
<path fill="none" stroke="#000000" d="M110.8227,-187.1061C110.8227,-206.3391 110.8227,-234 110.8228,-234 110.8228,-234 860.2649,-234 860.2649,-234"/>
<polygon fill="#000000" stroke="#000000" points="860.2649,-237.5001 870.2649,-234 860.2649,-230.5001 860.2649,-237.5001"/>
</g>
</g>
</svg>
