<?xml version="1.0" encoding="UTF-8" standalone="no"?>
<!DOCTYPE svg PUBLIC "-//W3C//DTD SVG 1.1//EN"
 "http://www.w3.org/Graphics/SVG/1.1/DTD/svg11.dtd">
<!-- Generated by graphviz version 2.40.1 (20161225.0304)
 -->
<!-- Title: dependencies Pages: 1 -->
<svg width="1596pt" height="284pt"
 viewBox="0.00 0.00 1596.00 284.00" xmlns="http://www.w3.org/2000/svg" xmlns:xlink="http://www.w3.org/1999/xlink">
<g id="graph0" class="graph" transform="scale(1 1) rotate(0) translate(4 280)">
<title>dependencies</title>
<polygon fill="#ffffff" stroke="transparent" points="-4,4 -4,-280 1592,-280 1592,4 -4,4"/>
<text text-anchor="start" x="773.0091" y="-42.4" font-family="sans-serif" font-weight="bold" font-size="14.00" fill="#000000">Legend</text>
<polygon fill="#ffffb3" stroke="transparent" points="560,-10 560,-30 580,-30 580,-10 560,-10"/>
<text text-anchor="start" x="583.629" y="-15.4" font-family="sans-serif" font-size="14.00" fill="#000000"> &#160;Declarations</text>
<polygon fill="#8dd3c7" stroke="transparent" points="673,-10 673,-30 693,-30 693,-10 673,-10"/>
<text text-anchor="start" x="696.7251" y="-15.4" font-family="sans-serif" font-size="14.00" fill="#000000"> &#160;Module</text>
<polygon fill="#80b1d3" stroke="transparent" points="759,-10 759,-30 779,-30 779,-10 759,-10"/>
<text text-anchor="start" x="782.7812" y="-15.4" font-family="sans-serif" font-size="14.00" fill="#000000"> &#160;Bootstrap</text>
<polygon fill="#fdb462" stroke="transparent" points="856,-10 856,-30 876,-30 876,-10 856,-10"/>
<text text-anchor="start" x="879.6732" y="-15.4" font-family="sans-serif" font-size="14.00" fill="#000000"> &#160;Providers</text>
<polygon fill="#fb8072" stroke="transparent" points="952,-10 952,-30 972,-30 972,-10 952,-10"/>
<text text-anchor="start" x="975.7258" y="-15.4" font-family="sans-serif" font-size="14.00" fill="#000000"> &#160;Exports</text>
<g id="clust1" class="cluster">
<title>cluster_DialogModule</title>
<polygon fill="none" stroke="#000000" stroke-dasharray="1,5" points="8,-70 8,-268 1580,-268 1580,-70 8,-70"/>
</g>
<g id="clust2" class="cluster">
<title>cluster_DialogModule_declarations</title>
<polygon fill="none" stroke="#000000" points="312,-78 312,-130 1572,-130 1572,-78 312,-78"/>
</g>
<g id="clust13" class="cluster">
<title>cluster_DialogModule_imports</title>
<polygon fill="none" stroke="#000000" points="172,-78 172,-130 304,-130 304,-78 172,-78"/>
</g>
<g id="clust14" class="cluster">
<title>cluster_DialogModule_exports</title>
<polygon fill="none" stroke="#000000" points="143,-208 143,-260 1441,-260 1441,-208 143,-208"/>
</g>
<g id="clust16" class="cluster">
<title>cluster_DialogModule_providers</title>
<polygon fill="none" stroke="#000000" points="16,-78 16,-130 164,-130 164,-78 16,-78"/>
</g>
<!-- Dialog -->
<g id="node1" class="node">
<title>Dialog</title>
<polygon fill="#ffffb3" stroke="#000000" points="1564.1025,-122 1509.8975,-122 1509.8975,-86 1564.1025,-86 1564.1025,-122"/>
<text text-anchor="middle" x="1537" y="-99.8" font-family="Times,serif" font-size="14.00" fill="#000000">Dialog</text>
</g>
<!-- DialogModule -->
<g id="node11" class="node">
<title>DialogModule</title>
<polygon fill="#8dd3c7" stroke="#000000" points="1005.6528,-187 1002.6528,-191 981.6528,-191 978.6528,-187 908.3472,-187 908.3472,-151 1005.6528,-151 1005.6528,-187"/>
<text text-anchor="middle" x="957" y="-164.8" font-family="Times,serif" font-size="14.00" fill="#000000">DialogModule</text>
</g>
<!-- Dialog&#45;&gt;DialogModule -->
<g id="edge1" class="edge">
<title>Dialog&#45;&gt;DialogModule</title>
<path fill="none" stroke="#000000" d="M1537,-122.1061C1537,-141.3391 1537,-169 1537,-169 1537,-169 1015.9506,-169 1015.9506,-169"/>
<polygon fill="#000000" stroke="#000000" points="1015.9506,-165.5001 1005.9506,-169 1015.9506,-172.5001 1015.9506,-165.5001"/>
</g>
<!-- Popover -->
<g id="node2" class="node">
<title>Popover</title>
<polygon fill="#ffffb3" stroke="#000000" points="1492.1587,-122 1429.8413,-122 1429.8413,-86 1492.1587,-86 1492.1587,-122"/>
<text text-anchor="middle" x="1461" y="-99.8" font-family="Times,serif" font-size="14.00" fill="#000000">Popover</text>
</g>
<!-- Popover&#45;&gt;DialogModule -->
<g id="edge2" class="edge">
<title>Popover&#45;&gt;DialogModule</title>
<path fill="none" stroke="#000000" d="M1462.5651,-122.2667C1462.5651,-140.5552 1462.5651,-166 1462.5651,-166 1462.5651,-166 1015.9351,-166 1015.9351,-166"/>
<polygon fill="#000000" stroke="#000000" points="1015.9351,-162.5001 1005.9351,-166 1015.935,-169.5001 1015.9351,-162.5001"/>
</g>
<!-- PopoverMenu -->
<g id="node3" class="node">
<title>PopoverMenu</title>
<polygon fill="#ffffb3" stroke="#000000" points="1411.8175,-122 1316.1825,-122 1316.1825,-86 1411.8175,-86 1411.8175,-122"/>
<text text-anchor="middle" x="1364" y="-99.8" font-family="Times,serif" font-size="14.00" fill="#000000">PopoverMenu</text>
</g>
<!-- PopoverMenu&#45;&gt;DialogModule -->
<g id="edge3" class="edge">
<title>PopoverMenu&#45;&gt;DialogModule</title>
<path fill="none" stroke="#000000" d="M1336.7102,-122.0336C1336.7102,-139.0597 1336.7102,-162 1336.7102,-162 1336.7102,-162 1015.8631,-162 1015.8631,-162"/>
<polygon fill="#000000" stroke="#000000" points="1015.8632,-158.5001 1005.8631,-162 1015.8631,-165.5001 1015.8632,-158.5001"/>
</g>
<!-- Tooltip -->
<g id="node4" class="node">
<title>Tooltip</title>
<polygon fill="#ffffb3" stroke="#000000" points="1298.7248,-122 1241.2752,-122 1241.2752,-86 1298.7248,-86 1298.7248,-122"/>
<text text-anchor="middle" x="1270" y="-99.8" font-family="Times,serif" font-size="14.00" fill="#000000">Tooltip</text>
</g>
<!-- Tooltip&#45;&gt;DialogModule -->
<g id="edge4" class="edge">
<title>Tooltip&#45;&gt;DialogModule</title>
<path fill="none" stroke="#000000" d="M1257.3982,-122.0091C1257.3982,-138.0494 1257.3982,-159 1257.3982,-159 1257.3982,-159 1015.9327,-159 1015.9327,-159"/>
<polygon fill="#000000" stroke="#000000" points="1015.9328,-155.5001 1005.9327,-159 1015.9327,-162.5001 1015.9328,-155.5001"/>
</g>
<!-- DialogDirective -->
<g id="node5" class="node">
<title>DialogDirective</title>
<polygon fill="#ffffb3" stroke="#000000" points="1223.1854,-122 1116.8146,-122 1116.8146,-86 1223.1854,-86 1223.1854,-122"/>
<text text-anchor="middle" x="1170" y="-99.8" font-family="Times,serif" font-size="14.00" fill="#000000">DialogDirective</text>
</g>
<!-- DialogDirective&#45;&gt;DialogModule -->
<g id="edge5" class="edge">
<title>DialogDirective&#45;&gt;DialogModule</title>
<path fill="none" stroke="#000000" d="M1136.6348,-122.1243C1136.6348,-136.7832 1136.6348,-155 1136.6348,-155 1136.6348,-155 1016.086,-155 1016.086,-155"/>
<polygon fill="#000000" stroke="#000000" points="1016.086,-151.5001 1006.086,-155 1016.086,-158.5001 1016.086,-151.5001"/>
</g>
<!-- PopoverDirective -->
<g id="node6" class="node">
<title>PopoverDirective</title>
<polygon fill="#ffffb3" stroke="#000000" points="1099.2409,-122 984.7591,-122 984.7591,-86 1099.2409,-86 1099.2409,-122"/>
<text text-anchor="middle" x="1042" y="-99.8" font-family="Times,serif" font-size="14.00" fill="#000000">PopoverDirective</text>
</g>
<!-- PopoverDirective&#45;&gt;DialogModule -->
<g id="edge6" class="edge">
<title>PopoverDirective&#45;&gt;DialogModule</title>
<path fill="none" stroke="#000000" d="M995.2279,-122.1061C995.2279,-122.1061 995.2279,-140.991 995.2279,-140.991"/>
<polygon fill="#000000" stroke="#000000" points="991.728,-140.9909 995.2279,-150.991 998.728,-140.991 991.728,-140.9909"/>
</g>
<!-- PopoverMenuDirective -->
<g id="node7" class="node">
<title>PopoverMenuDirective</title>
<polygon fill="#ffffb3" stroke="#000000" points="966.9003,-122 819.0997,-122 819.0997,-86 966.9003,-86 966.9003,-122"/>
<text text-anchor="middle" x="893" y="-99.8" font-family="Times,serif" font-size="14.00" fill="#000000">PopoverMenuDirective</text>
</g>
<!-- PopoverMenuDirective&#45;&gt;DialogModule -->
<g id="edge7" class="edge">
<title>PopoverMenuDirective&#45;&gt;DialogModule</title>
<path fill="none" stroke="#000000" d="M937.4369,-122.1061C937.4369,-122.1061 937.4369,-140.991 937.4369,-140.991"/>
<polygon fill="#000000" stroke="#000000" points="933.937,-140.9909 937.4369,-150.991 940.937,-140.991 933.937,-140.9909"/>
</g>
<!-- TooltipDirective -->
<g id="node8" class="node">
<title>TooltipDirective</title>
<polygon fill="#ffffb3" stroke="#000000" points="801.8076,-122 692.1924,-122 692.1924,-86 801.8076,-86 801.8076,-122"/>
<text text-anchor="middle" x="747" y="-99.8" font-family="Times,serif" font-size="14.00" fill="#000000">TooltipDirective</text>
</g>
<!-- TooltipDirective&#45;&gt;DialogModule -->
<g id="edge8" class="edge">
<title>TooltipDirective&#45;&gt;DialogModule</title>
<path fill="none" stroke="#000000" d="M747,-122.1243C747,-136.7832 747,-155 747,-155 747,-155 898.2939,-155 898.2939,-155"/>
<polygon fill="#000000" stroke="#000000" points="898.294,-158.5001 908.2939,-155 898.2939,-151.5001 898.294,-158.5001"/>
</g>
<!-- EllipsisTooltipDirective -->
<g id="node9" class="node">
<title>EllipsisTooltipDirective</title>
<polygon fill="#ffffb3" stroke="#000000" points="674.8117,-122 523.1883,-122 523.1883,-86 674.8117,-86 674.8117,-122"/>
<text text-anchor="middle" x="599" y="-99.8" font-family="Times,serif" font-size="14.00" fill="#000000">EllipsisTooltipDirective</text>
</g>
<!-- EllipsisTooltipDirective&#45;&gt;DialogModule -->
<g id="edge9" class="edge">
<title>EllipsisTooltipDirective&#45;&gt;DialogModule</title>
<path fill="none" stroke="#000000" d="M668.6029,-122.0091C668.6029,-138.0494 668.6029,-159 668.6029,-159 668.6029,-159 898.0774,-159 898.0774,-159"/>
<polygon fill="#000000" stroke="#000000" points="898.0774,-162.5001 908.0774,-159 898.0773,-155.5001 898.0774,-162.5001"/>
</g>
<!-- DialogPlaceholderComponent -->
<g id="node10" class="node">
<title>DialogPlaceholderComponent</title>
<polygon fill="#ffffb3" stroke="#000000" points="505.5182,-122 320.4818,-122 320.4818,-86 505.5182,-86 505.5182,-122"/>
<text text-anchor="middle" x="413" y="-99.8" font-family="Times,serif" font-size="14.00" fill="#000000">DialogPlaceholderComponent</text>
</g>
<!-- DialogPlaceholderComponent&#45;&gt;DialogModule -->
<g id="edge10" class="edge">
<title>DialogPlaceholderComponent&#45;&gt;DialogModule</title>
<path fill="none" stroke="#000000" d="M432.1766,-122.0336C432.1766,-139.0597 432.1766,-162 432.1766,-162 432.1766,-162 898.0972,-162 898.0972,-162"/>
<polygon fill="#000000" stroke="#000000" points="898.0972,-165.5001 908.0972,-162 898.0971,-158.5001 898.0972,-165.5001"/>
</g>
<!-- Dialog  -->
<g id="node13" class="node">
<title>Dialog </title>
<polygon fill="#fb8072" stroke="#000000" points="1432.6038,-252 1375.3962,-252 1375.3962,-216 1432.6038,-216 1432.6038,-252"/>
<text text-anchor="middle" x="1404" y="-229.8" font-family="Times,serif" font-size="14.00" fill="#000000">Dialog </text>
</g>
<!-- DialogModule&#45;&gt;Dialog  -->
<g id="edge12" class="edge">
<title>DialogModule&#45;&gt;Dialog </title>
<path fill="none" stroke="#000000" stroke-dasharray="5,2" d="M1005.7936,-173C1119.6781,-173 1393.4286,-173 1393.4286,-173 1393.4286,-173 1393.4286,-205.698 1393.4286,-205.698"/>
<polygon fill="#000000" stroke="#000000" points="1389.9287,-205.698 1393.4286,-215.698 1396.9287,-205.698 1389.9287,-205.698"/>
</g>
<!-- Popover  -->
<g id="node14" class="node">
<title>Popover </title>
<polygon fill="#fb8072" stroke="#000000" points="1357.158,-252 1290.842,-252 1290.842,-216 1357.158,-216 1357.158,-252"/>
<text text-anchor="middle" x="1324" y="-229.8" font-family="Times,serif" font-size="14.00" fill="#000000">Popover </text>
</g>
<!-- DialogModule&#45;&gt;Popover  -->
<g id="edge13" class="edge">
<title>DialogModule&#45;&gt;Popover </title>
<path fill="none" stroke="#000000" stroke-dasharray="5,2" d="M1005.7534,-177C1099.2914,-177 1294.7667,-177 1294.7667,-177 1294.7667,-177 1294.7667,-205.9648 1294.7667,-205.9648"/>
<polygon fill="#000000" stroke="#000000" points="1291.2667,-205.9648 1294.7667,-215.9648 1298.2667,-205.9649 1291.2667,-205.9648"/>
</g>
<!-- PopoverMenu  -->
<g id="node15" class="node">
<title>PopoverMenu </title>
<polygon fill="#fb8072" stroke="#000000" points="1273.3172,-252 1174.6828,-252 1174.6828,-216 1273.3172,-216 1273.3172,-252"/>
<text text-anchor="middle" x="1224" y="-229.8" font-family="Times,serif" font-size="14.00" fill="#000000">PopoverMenu </text>
</g>
<!-- DialogModule&#45;&gt;PopoverMenu  -->
<g id="edge14" class="edge">
<title>DialogModule&#45;&gt;PopoverMenu </title>
<path fill="none" stroke="#000000" stroke-dasharray="5,2" d="M1005.9403,-180C1076.6073,-180 1198.8421,-180 1198.8421,-180 1198.8421,-180 1198.8421,-205.7181 1198.8421,-205.7181"/>
<polygon fill="#000000" stroke="#000000" points="1195.3421,-205.718 1198.8421,-215.7181 1202.3421,-205.7181 1195.3421,-205.718"/>
</g>
<!-- Tooltip  -->
<g id="node16" class="node">
<title>Tooltip </title>
<polygon fill="#fb8072" stroke="#000000" points="1156.225,-252 1095.775,-252 1095.775,-216 1156.225,-216 1156.225,-252"/>
<text text-anchor="middle" x="1126" y="-229.8" font-family="Times,serif" font-size="14.00" fill="#000000">Tooltip </text>
</g>
<!-- DialogModule&#45;&gt;Tooltip  -->
<g id="edge15" class="edge">
<title>DialogModule&#45;&gt;Tooltip </title>
<path fill="none" stroke="#000000" stroke-dasharray="5,2" d="M1005.6532,-184C1049.8359,-184 1108.1389,-184 1108.1389,-184 1108.1389,-184 1108.1389,-205.9489 1108.1389,-205.9489"/>
<polygon fill="#000000" stroke="#000000" points="1104.6389,-205.9488 1108.1389,-215.9489 1111.6389,-205.9489 1104.6389,-205.9488"/>
</g>
<!-- DialogDirective  -->
<g id="node17" class="node">
<title>DialogDirective </title>
<polygon fill="#fb8072" stroke="#000000" points="1077.6857,-252 968.3143,-252 968.3143,-216 1077.6857,-216 1077.6857,-252"/>
<text text-anchor="middle" x="1023" y="-229.8" font-family="Times,serif" font-size="14.00" fill="#000000">DialogDirective </text>
</g>
<!-- DialogModule&#45;&gt;DialogDirective  -->
<g id="edge16" class="edge">
<title>DialogModule&#45;&gt;DialogDirective </title>
<path fill="none" stroke="#000000" stroke-dasharray="5,2" d="M986.9918,-187.1061C986.9918,-187.1061 986.9918,-205.991 986.9918,-205.991"/>
<polygon fill="#000000" stroke="#000000" points="983.4918,-205.9909 986.9918,-215.991 990.4918,-205.991 983.4918,-205.9909"/>
</g>
<!-- PopoverDirective  -->
<g id="node18" class="node">
<title>PopoverDirective </title>
<polygon fill="#fb8072" stroke="#000000" points="950.2408,-252 831.7592,-252 831.7592,-216 950.2408,-216 950.2408,-252"/>
<text text-anchor="middle" x="891" y="-229.8" font-family="Times,serif" font-size="14.00" fill="#000000">PopoverDirective </text>
</g>
<!-- DialogModule&#45;&gt;PopoverDirective  -->
<g id="edge17" class="edge">
<title>DialogModule&#45;&gt;PopoverDirective </title>
<path fill="none" stroke="#000000" stroke-dasharray="5,2" d="M929.1471,-187.1061C929.1471,-187.1061 929.1471,-205.991 929.1471,-205.991"/>
<polygon fill="#000000" stroke="#000000" points="925.6472,-205.9909 929.1471,-215.991 932.6472,-205.991 925.6472,-205.9909"/>
</g>
<!-- PopoverMenuDirective  -->
<g id="node19" class="node">
<title>PopoverMenuDirective </title>
<polygon fill="#fb8072" stroke="#000000" points="813.3998,-252 662.6002,-252 662.6002,-216 813.3998,-216 813.3998,-252"/>
<text text-anchor="middle" x="738" y="-229.8" font-family="Times,serif" font-size="14.00" fill="#000000">PopoverMenuDirective </text>
</g>
<!-- DialogModule&#45;&gt;PopoverMenuDirective  -->
<g id="edge18" class="edge">
<title>DialogModule&#45;&gt;PopoverMenuDirective </title>
<path fill="none" stroke="#000000" stroke-dasharray="5,2" d="M908.0651,-184C864.4796,-184 807.5518,-184 807.5518,-184 807.5518,-184 807.5518,-205.9489 807.5518,-205.9489"/>
<polygon fill="#000000" stroke="#000000" points="804.0518,-205.9488 807.5518,-215.9489 811.0518,-205.9489 804.0518,-205.9488"/>
</g>
<!-- TooltipDirective  -->
<g id="node20" class="node">
<title>TooltipDirective </title>
<polygon fill="#fb8072" stroke="#000000" points="644.3074,-252 531.6926,-252 531.6926,-216 644.3074,-216 644.3074,-252"/>
<text text-anchor="middle" x="588" y="-229.8" font-family="Times,serif" font-size="14.00" fill="#000000">TooltipDirective </text>
</g>
<!-- DialogModule&#45;&gt;TooltipDirective  -->
<g id="edge19" class="edge">
<title>DialogModule&#45;&gt;TooltipDirective </title>
<path fill="none" stroke="#000000" stroke-dasharray="5,2" d="M907.9996,-180C807.6244,-180 588,-180 588,-180 588,-180 588,-205.7181 588,-205.7181"/>
<polygon fill="#000000" stroke="#000000" points="584.5001,-205.718 588,-215.7181 591.5001,-205.7181 584.5001,-205.718"/>
</g>
<!-- EllipsisTooltipDirective  -->
<g id="node21" class="node">
<title>EllipsisTooltipDirective </title>
<polygon fill="#fb8072" stroke="#000000" points="513.3115,-252 358.6885,-252 358.6885,-216 513.3115,-216 513.3115,-252"/>
<text text-anchor="middle" x="436" y="-229.8" font-family="Times,serif" font-size="14.00" fill="#000000">EllipsisTooltipDirective </text>
</g>
<!-- DialogModule&#45;&gt;EllipsisTooltipDirective  -->
<g id="edge20" class="edge">
<title>DialogModule&#45;&gt;EllipsisTooltipDirective </title>
<path fill="none" stroke="#000000" stroke-dasharray="5,2" d="M908.2667,-177C792.3059,-177 509.5823,-177 509.5823,-177 509.5823,-177 509.5823,-205.9648 509.5823,-205.9648"/>
<polygon fill="#000000" stroke="#000000" points="506.0823,-205.9648 509.5823,-215.9648 513.0823,-205.9649 506.0823,-205.9648"/>
</g>
<!-- DialogPlaceholderComponent  -->
<g id="node22" class="node">
<title>DialogPlaceholderComponent </title>
<polygon fill="#fb8072" stroke="#000000" points="340.5176,-252 151.4824,-252 151.4824,-216 340.5176,-216 340.5176,-252"/>
<text text-anchor="middle" x="246" y="-229.8" font-family="Times,serif" font-size="14.00" fill="#000000">DialogPlaceholderComponent </text>
</g>
<!-- DialogModule&#45;&gt;DialogPlaceholderComponent  -->
<g id="edge21" class="edge">
<title>DialogModule&#45;&gt;DialogPlaceholderComponent </title>
<path fill="none" stroke="#000000" stroke-dasharray="5,2" d="M908.0908,-173C760.6157,-173 330.375,-173 330.375,-173 330.375,-173 330.375,-205.698 330.375,-205.698"/>
<polygon fill="#000000" stroke="#000000" points="326.8751,-205.698 330.375,-215.698 333.8751,-205.698 326.8751,-205.698"/>
</g>
<!-- StaticIconModule -->
<g id="node12" class="node">
<title>StaticIconModule</title>
<polygon fill="#8dd3c7" stroke="#000000" points="296.309,-122 293.309,-126 272.309,-126 269.309,-122 179.691,-122 179.691,-86 296.309,-86 296.309,-122"/>
<text text-anchor="middle" x="238" y="-99.8" font-family="Times,serif" font-size="14.00" fill="#000000">StaticIconModule</text>
</g>
<!-- StaticIconModule&#45;&gt;DialogModule -->
<g id="edge11" class="edge">
<title>StaticIconModule&#45;&gt;DialogModule</title>
<path fill="none" stroke="#000000" d="M238,-122.2667C238,-140.5552 238,-166 238,-166 238,-166 898.1455,-166 898.1455,-166"/>
<polygon fill="#000000" stroke="#000000" points="898.1455,-169.5001 908.1455,-166 898.1454,-162.5001 898.1455,-169.5001"/>
</g>
<!-- DialogService -->
<g id="node23" class="node">
<title>DialogService</title>
<ellipse fill="#fdb462" stroke="#000000" cx="90" cy="-104" rx="66.0492" ry="18"/>
<text text-anchor="middle" x="90" y="-99.8" font-family="Times,serif" font-size="14.00" fill="#000000">DialogService</text>
</g>
<!-- DialogService&#45;&gt;DialogModule -->
<g id="edge22" class="edge">
<title>DialogService&#45;&gt;DialogModule</title>
<path fill="none" stroke="#000000" d="M87.6085,-122.1061C87.6085,-141.3391 87.6085,-169 87.6085,-169 87.6085,-169 898.0812,-169 898.0812,-169"/>
<polygon fill="#000000" stroke="#000000" points="898.0813,-172.5001 908.0812,-169 898.0812,-165.5001 898.0813,-172.5001"/>
</g>
</g>
</svg>
