<?xml version="1.0" encoding="UTF-8" standalone="no"?>
<!DOCTYPE svg PUBLIC "-//W3C//DTD SVG 1.1//EN"
 "http://www.w3.org/Graphics/SVG/1.1/DTD/svg11.dtd">
<!-- Generated by graphviz version 2.40.1 (20161225.0304)
 -->
<!-- Title: dependencies Pages: 1 -->
<svg width="1562pt" height="349pt"
 viewBox="0.00 0.00 1562.00 349.00" xmlns="http://www.w3.org/2000/svg" xmlns:xlink="http://www.w3.org/1999/xlink">
<g id="graph0" class="graph" transform="scale(1 1) rotate(0) translate(4 345)">
<title>dependencies</title>
<polygon fill="#ffffff" stroke="transparent" points="-4,4 -4,-345 1558,-345 1558,4 -4,4"/>
<text text-anchor="start" x="756.0091" y="-42.4" font-family="sans-serif" font-weight="bold" font-size="14.00" fill="#000000">Legend</text>
<polygon fill="#ffffb3" stroke="transparent" points="543,-10 543,-30 563,-30 563,-10 543,-10"/>
<text text-anchor="start" x="566.629" y="-15.4" font-family="sans-serif" font-size="14.00" fill="#000000"> &#160;Declarations</text>
<polygon fill="#8dd3c7" stroke="transparent" points="656,-10 656,-30 676,-30 676,-10 656,-10"/>
<text text-anchor="start" x="679.7251" y="-15.4" font-family="sans-serif" font-size="14.00" fill="#000000"> &#160;Module</text>
<polygon fill="#80b1d3" stroke="transparent" points="742,-10 742,-30 762,-30 762,-10 742,-10"/>
<text text-anchor="start" x="765.7812" y="-15.4" font-family="sans-serif" font-size="14.00" fill="#000000"> &#160;Bootstrap</text>
<polygon fill="#fdb462" stroke="transparent" points="839,-10 839,-30 859,-30 859,-10 839,-10"/>
<text text-anchor="start" x="862.6732" y="-15.4" font-family="sans-serif" font-size="14.00" fill="#000000"> &#160;Providers</text>
<polygon fill="#fb8072" stroke="transparent" points="935,-10 935,-30 955,-30 955,-10 935,-10"/>
<text text-anchor="start" x="958.7258" y="-15.4" font-family="sans-serif" font-size="14.00" fill="#000000"> &#160;Exports</text>
<g id="clust1" class="cluster">
<title>cluster_DialogModule</title>
<polygon fill="none" stroke="#000000" stroke-dasharray="1,5" points="8,-70 8,-333 1546,-333 1546,-70 8,-70"/>
</g>
<g id="clust2" class="cluster">
<title>cluster_DialogModule_declarations</title>
<polygon fill="none" stroke="#000000" points="156,-143 156,-195 1526,-195 1526,-143 156,-143"/>
</g>
<g id="clust7" class="cluster">
<title>cluster_DialogModule_DialogDirective_providers</title>
<polygon fill="none" stroke="#000000" points="1182,-78 1182,-130 1330,-130 1330,-78 1182,-78"/>
</g>
<g id="clust13" class="cluster">
<title>cluster_DialogModule_imports</title>
<polygon fill="none" stroke="#000000" points="16,-143 16,-195 148,-195 148,-143 16,-143"/>
</g>
<g id="clust14" class="cluster">
<title>cluster_DialogModule_exports</title>
<polygon fill="none" stroke="#000000" points="76,-273 76,-325 1479,-325 1479,-273 76,-273"/>
</g>
<!-- Dialog -->
<g id="node1" class="node">
<title>Dialog</title>
<polygon fill="#ffffb3" stroke="#000000" points="1518.1025,-187 1463.8975,-187 1463.8975,-151 1518.1025,-151 1518.1025,-187"/>
<text text-anchor="middle" x="1491" y="-164.8" font-family="Times,serif" font-size="14.00" fill="#000000">Dialog</text>
</g>
<!-- DialogModule -->
<g id="node11" class="node">
<title>DialogModule</title>
<polygon fill="#8dd3c7" stroke="#000000" points="1003.6528,-252 1000.6528,-256 979.6528,-256 976.6528,-252 906.3472,-252 906.3472,-216 1003.6528,-216 1003.6528,-252"/>
<text text-anchor="middle" x="955" y="-229.8" font-family="Times,serif" font-size="14.00" fill="#000000">DialogModule</text>
</g>
<!-- Dialog&#45;&gt;DialogModule -->
<g id="edge1" class="edge">
<title>Dialog&#45;&gt;DialogModule</title>
<path fill="none" stroke="#000000" d="M1494.4262,-187.2222C1494.4262,-205.8285 1494.4262,-232 1494.4262,-232 1494.4262,-232 1013.8219,-232 1013.8219,-232"/>
<polygon fill="#000000" stroke="#000000" points="1013.8219,-228.5001 1003.8219,-232 1013.8218,-235.5001 1013.8219,-228.5001"/>
</g>
<!-- Tooltip -->
<g id="node2" class="node">
<title>Tooltip</title>
<polygon fill="#ffffb3" stroke="#000000" points="1445.7248,-187 1388.2752,-187 1388.2752,-151 1445.7248,-151 1445.7248,-187"/>
<text text-anchor="middle" x="1417" y="-164.8" font-family="Times,serif" font-size="14.00" fill="#000000">Tooltip</text>
</g>
<!-- Tooltip&#45;&gt;DialogModule -->
<g id="edge2" class="edge">
<title>Tooltip&#45;&gt;DialogModule</title>
<path fill="none" stroke="#000000" d="M1404.2805,-187.0225C1404.2805,-204.3734 1404.2805,-228 1404.2805,-228 1404.2805,-228 1013.9362,-228 1013.9362,-228"/>
<polygon fill="#000000" stroke="#000000" points="1013.9362,-224.5001 1003.9362,-228 1013.9361,-231.5001 1013.9362,-224.5001"/>
</g>
<!-- OverflowMenu -->
<g id="node3" class="node">
<title>OverflowMenu</title>
<polygon fill="#ffffb3" stroke="#000000" points="1370.2992,-187 1267.7008,-187 1267.7008,-151 1370.2992,-151 1370.2992,-187"/>
<text text-anchor="middle" x="1319" y="-164.8" font-family="Times,serif" font-size="14.00" fill="#000000">OverflowMenu</text>
</g>
<!-- OverflowMenu&#45;&gt;DialogModule -->
<g id="edge3" class="edge">
<title>OverflowMenu&#45;&gt;DialogModule</title>
<path fill="none" stroke="#000000" d="M1292.375,-187.0091C1292.375,-203.0494 1292.375,-224 1292.375,-224 1292.375,-224 1013.6969,-224 1013.6969,-224"/>
<polygon fill="#000000" stroke="#000000" points="1013.6969,-220.5001 1003.6969,-224 1013.6969,-227.5001 1013.6969,-220.5001"/>
</g>
<!-- OverflowMenuPane -->
<g id="node4" class="node">
<title>OverflowMenuPane</title>
<polygon fill="#ffffb3" stroke="#000000" points="1249.5115,-187 1120.4885,-187 1120.4885,-151 1249.5115,-151 1249.5115,-187"/>
<text text-anchor="middle" x="1185" y="-164.8" font-family="Times,serif" font-size="14.00" fill="#000000">OverflowMenuPane</text>
</g>
<!-- OverflowMenuPane&#45;&gt;DialogModule -->
<g id="edge4" class="edge">
<title>OverflowMenuPane&#45;&gt;DialogModule</title>
<path fill="none" stroke="#000000" d="M1156.875,-187.1243C1156.875,-201.7832 1156.875,-220 1156.875,-220 1156.875,-220 1013.8683,-220 1013.8683,-220"/>
<polygon fill="#000000" stroke="#000000" points="1013.8683,-216.5001 1003.8683,-220 1013.8683,-223.5001 1013.8683,-216.5001"/>
</g>
<!-- DialogDirective -->
<g id="node5" class="node">
<title>DialogDirective</title>
<polygon fill="#ffffb3" stroke="#000000" points="1102.1854,-187 995.8146,-187 995.8146,-151 1102.1854,-151 1102.1854,-187"/>
<text text-anchor="middle" x="1049" y="-164.8" font-family="Times,serif" font-size="14.00" fill="#000000">DialogDirective</text>
</g>
<!-- DialogDirective&#45;&gt;DialogModule -->
<g id="edge5" class="edge">
<title>DialogDirective&#45;&gt;DialogModule</title>
<path fill="none" stroke="#000000" d="M999.8668,-187.1061C999.8668,-187.1061 999.8668,-205.991 999.8668,-205.991"/>
<polygon fill="#000000" stroke="#000000" points="996.3668,-205.9909 999.8668,-215.991 1003.3668,-205.991 996.3668,-205.9909"/>
</g>
<!-- TooltipDirective -->
<g id="node6" class="node">
<title>TooltipDirective</title>
<polygon fill="#ffffb3" stroke="#000000" points="977.8076,-187 868.1924,-187 868.1924,-151 977.8076,-151 977.8076,-187"/>
<text text-anchor="middle" x="923" y="-164.8" font-family="Times,serif" font-size="14.00" fill="#000000">TooltipDirective</text>
</g>
<!-- TooltipDirective&#45;&gt;DialogModule -->
<g id="edge7" class="edge">
<title>TooltipDirective&#45;&gt;DialogModule</title>
<path fill="none" stroke="#000000" d="M941.9138,-187.1061C941.9138,-187.1061 941.9138,-205.991 941.9138,-205.991"/>
<polygon fill="#000000" stroke="#000000" points="938.4138,-205.9909 941.9138,-215.991 945.4138,-205.991 938.4138,-205.9909"/>
</g>
<!-- EllipsisTooltipDirective -->
<g id="node7" class="node">
<title>EllipsisTooltipDirective</title>
<polygon fill="#ffffb3" stroke="#000000" points="850.8117,-187 699.1883,-187 699.1883,-151 850.8117,-151 850.8117,-187"/>
<text text-anchor="middle" x="775" y="-164.8" font-family="Times,serif" font-size="14.00" fill="#000000">EllipsisTooltipDirective</text>
</g>
<!-- EllipsisTooltipDirective&#45;&gt;DialogModule -->
<g id="edge8" class="edge">
<title>EllipsisTooltipDirective&#45;&gt;DialogModule</title>
<path fill="none" stroke="#000000" d="M826.6261,-187.1243C826.6261,-201.7832 826.6261,-220 826.6261,-220 826.6261,-220 896.1011,-220 896.1011,-220"/>
<polygon fill="#000000" stroke="#000000" points="896.1011,-223.5001 906.1011,-220 896.1011,-216.5001 896.1011,-223.5001"/>
</g>
<!-- OverflowMenuDirective -->
<g id="node8" class="node">
<title>OverflowMenuDirective</title>
<polygon fill="#ffffb3" stroke="#000000" points="681.3821,-187 526.6179,-187 526.6179,-151 681.3821,-151 681.3821,-187"/>
<text text-anchor="middle" x="604" y="-164.8" font-family="Times,serif" font-size="14.00" fill="#000000">OverflowMenuDirective</text>
</g>
<!-- OverflowMenuDirective&#45;&gt;DialogModule -->
<g id="edge9" class="edge">
<title>OverflowMenuDirective&#45;&gt;DialogModule</title>
<path fill="none" stroke="#000000" d="M655.3926,-187.0091C655.3926,-203.0494 655.3926,-224 655.3926,-224 655.3926,-224 896.1961,-224 896.1961,-224"/>
<polygon fill="#000000" stroke="#000000" points="896.1961,-227.5001 906.1961,-224 896.196,-220.5001 896.1961,-227.5001"/>
</g>
<!-- OverflowMenuOption -->
<g id="node9" class="node">
<title>OverflowMenuOption</title>
<polygon fill="#ffffb3" stroke="#000000" points="508.6867,-187 367.3133,-187 367.3133,-151 508.6867,-151 508.6867,-187"/>
<text text-anchor="middle" x="438" y="-164.8" font-family="Times,serif" font-size="14.00" fill="#000000">OverflowMenuOption</text>
</g>
<!-- OverflowMenuOption&#45;&gt;DialogModule -->
<g id="edge10" class="edge">
<title>OverflowMenuOption&#45;&gt;DialogModule</title>
<path fill="none" stroke="#000000" d="M481.3263,-187.0336C481.3263,-204.0597 481.3263,-227 481.3263,-227 481.3263,-227 896.0927,-227 896.0927,-227"/>
<polygon fill="#000000" stroke="#000000" points="896.0927,-230.5001 906.0927,-227 896.0926,-223.5001 896.0927,-230.5001"/>
</g>
<!-- DialogPlaceholderComponent -->
<g id="node10" class="node">
<title>DialogPlaceholderComponent</title>
<polygon fill="#ffffb3" stroke="#000000" points="349.5182,-187 164.4818,-187 164.4818,-151 349.5182,-151 349.5182,-187"/>
<text text-anchor="middle" x="257" y="-164.8" font-family="Times,serif" font-size="14.00" fill="#000000">DialogPlaceholderComponent</text>
</g>
<!-- DialogPlaceholderComponent&#45;&gt;DialogModule -->
<g id="edge11" class="edge">
<title>DialogPlaceholderComponent&#45;&gt;DialogModule</title>
<path fill="none" stroke="#000000" d="M320.7078,-187.2667C320.7078,-205.5552 320.7078,-231 320.7078,-231 320.7078,-231 896.2814,-231 896.2814,-231"/>
<polygon fill="#000000" stroke="#000000" points="896.2814,-234.5001 906.2814,-231 896.2813,-227.5001 896.2814,-234.5001"/>
</g>
<!-- Dialog  -->
<g id="node14" class="node">
<title>Dialog </title>
<polygon fill="#fb8072" stroke="#000000" points="1470.6038,-317 1413.3962,-317 1413.3962,-281 1470.6038,-281 1470.6038,-317"/>
<text text-anchor="middle" x="1442" y="-294.8" font-family="Times,serif" font-size="14.00" fill="#000000">Dialog </text>
</g>
<!-- DialogModule&#45;&gt;Dialog  -->
<g id="edge13" class="edge">
<title>DialogModule&#45;&gt;Dialog </title>
<path fill="none" stroke="#000000" stroke-dasharray="5,2" d="M1003.9829,-236C1125.1927,-236 1429.4055,-236 1429.4055,-236 1429.4055,-236 1429.4055,-270.7778 1429.4055,-270.7778"/>
<polygon fill="#000000" stroke="#000000" points="1425.9056,-270.7778 1429.4055,-280.7778 1432.9056,-270.7778 1425.9056,-270.7778"/>
</g>
<!-- Tooltip  -->
<g id="node15" class="node">
<title>Tooltip </title>
<polygon fill="#fb8072" stroke="#000000" points="1395.225,-317 1334.775,-317 1334.775,-281 1395.225,-281 1395.225,-317"/>
<text text-anchor="middle" x="1365" y="-294.8" font-family="Times,serif" font-size="14.00" fill="#000000">Tooltip </text>
</g>
<!-- DialogModule&#45;&gt;Tooltip  -->
<g id="edge14" class="edge">
<title>DialogModule&#45;&gt;Tooltip </title>
<path fill="none" stroke="#000000" stroke-dasharray="5,2" d="M1003.7283,-240C1109.8438,-240 1352.3936,-240 1352.3936,-240 1352.3936,-240 1352.3936,-270.9775 1352.3936,-270.9775"/>
<polygon fill="#000000" stroke="#000000" points="1348.8937,-270.9774 1352.3936,-280.9775 1355.8937,-270.9775 1348.8937,-270.9774"/>
</g>
<!-- OverflowMenu  -->
<g id="node16" class="node">
<title>OverflowMenu </title>
<polygon fill="#fb8072" stroke="#000000" points="1316.799,-317 1211.201,-317 1211.201,-281 1316.799,-281 1316.799,-317"/>
<text text-anchor="middle" x="1264" y="-294.8" font-family="Times,serif" font-size="14.00" fill="#000000">OverflowMenu </text>
</g>
<!-- DialogModule&#45;&gt;OverflowMenu  -->
<g id="edge15" class="edge">
<title>DialogModule&#45;&gt;OverflowMenu </title>
<path fill="none" stroke="#000000" stroke-dasharray="5,2" d="M1003.9236,-244C1083.0706,-244 1230.428,-244 1230.428,-244 1230.428,-244 1230.428,-270.9909 1230.428,-270.9909"/>
<polygon fill="#000000" stroke="#000000" points="1226.928,-270.9909 1230.428,-280.9909 1233.928,-270.991 1226.928,-270.9909"/>
</g>
<!-- OverflowMenuPane  -->
<g id="node17" class="node">
<title>OverflowMenuPane </title>
<polygon fill="#fb8072" stroke="#000000" points="1193.5106,-317 1060.4894,-317 1060.4894,-281 1193.5106,-281 1193.5106,-317"/>
<text text-anchor="middle" x="1127" y="-294.8" font-family="Times,serif" font-size="14.00" fill="#000000">OverflowMenuPane </text>
</g>
<!-- DialogModule&#45;&gt;OverflowMenuPane  -->
<g id="edge16" class="edge">
<title>DialogModule&#45;&gt;OverflowMenuPane </title>
<path fill="none" stroke="#000000" stroke-dasharray="5,2" d="M1003.8284,-248C1039.3674,-248 1081.2937,-248 1081.2937,-248 1081.2937,-248 1081.2937,-270.8757 1081.2937,-270.8757"/>
<polygon fill="#000000" stroke="#000000" points="1077.7937,-270.8757 1081.2937,-280.8757 1084.7937,-270.8757 1077.7937,-270.8757"/>
</g>
<!-- DialogDirective  -->
<g id="node18" class="node">
<title>DialogDirective </title>
<polygon fill="#fb8072" stroke="#000000" points="1042.6857,-317 933.3143,-317 933.3143,-281 1042.6857,-281 1042.6857,-317"/>
<text text-anchor="middle" x="988" y="-294.8" font-family="Times,serif" font-size="14.00" fill="#000000">DialogDirective </text>
</g>
<!-- DialogModule&#45;&gt;DialogDirective  -->
<g id="edge17" class="edge">
<title>DialogModule&#45;&gt;DialogDirective </title>
<path fill="none" stroke="#000000" stroke-dasharray="5,2" d="M968.4918,-252.1061C968.4918,-252.1061 968.4918,-270.991 968.4918,-270.991"/>
<polygon fill="#000000" stroke="#000000" points="964.9918,-270.9909 968.4918,-280.991 971.9918,-270.991 964.9918,-270.9909"/>
</g>
<!-- TooltipDirective  -->
<g id="node19" class="node">
<title>TooltipDirective </title>
<polygon fill="#fb8072" stroke="#000000" points="915.3074,-317 802.6926,-317 802.6926,-281 915.3074,-281 915.3074,-317"/>
<text text-anchor="middle" x="859" y="-294.8" font-family="Times,serif" font-size="14.00" fill="#000000">TooltipDirective </text>
</g>
<!-- DialogModule&#45;&gt;TooltipDirective  -->
<g id="edge18" class="edge">
<title>DialogModule&#45;&gt;TooltipDirective </title>
<path fill="none" stroke="#000000" stroke-dasharray="5,2" d="M910.7888,-252.1061C910.7888,-252.1061 910.7888,-270.991 910.7888,-270.991"/>
<polygon fill="#000000" stroke="#000000" points="907.2888,-270.9909 910.7888,-280.991 914.2888,-270.991 907.2888,-270.9909"/>
</g>
<!-- EllipsisTooltipDirective  -->
<g id="node20" class="node">
<title>EllipsisTooltipDirective </title>
<polygon fill="#fb8072" stroke="#000000" points="784.3115,-317 629.6885,-317 629.6885,-281 784.3115,-281 784.3115,-317"/>
<text text-anchor="middle" x="707" y="-294.8" font-family="Times,serif" font-size="14.00" fill="#000000">EllipsisTooltipDirective </text>
</g>
<!-- DialogModule&#45;&gt;EllipsisTooltipDirective  -->
<g id="edge19" class="edge">
<title>DialogModule&#45;&gt;EllipsisTooltipDirective </title>
<path fill="none" stroke="#000000" stroke-dasharray="5,2" d="M906.1048,-249C843.183,-249 741.875,-249 741.875,-249 741.875,-249 741.875,-270.9489 741.875,-270.9489"/>
<polygon fill="#000000" stroke="#000000" points="738.3751,-270.9488 741.875,-280.9489 745.3751,-270.9489 738.3751,-270.9488"/>
</g>
<!-- OverflowMenuDirective  -->
<g id="node21" class="node">
<title>OverflowMenuDirective </title>
<polygon fill="#fb8072" stroke="#000000" points="611.8816,-317 454.1184,-317 454.1184,-281 611.8816,-281 611.8816,-317"/>
<text text-anchor="middle" x="533" y="-294.8" font-family="Times,serif" font-size="14.00" fill="#000000">OverflowMenuDirective </text>
</g>
<!-- DialogModule&#45;&gt;OverflowMenuDirective  -->
<g id="edge20" class="edge">
<title>DialogModule&#45;&gt;OverflowMenuDirective </title>
<path fill="none" stroke="#000000" stroke-dasharray="5,2" d="M906.1603,-245C802.394,-245 569.375,-245 569.375,-245 569.375,-245 569.375,-270.7181 569.375,-270.7181"/>
<polygon fill="#000000" stroke="#000000" points="565.8751,-270.718 569.375,-280.7181 572.8751,-270.7181 565.8751,-270.718"/>
</g>
<!-- OverflowMenuOption  -->
<g id="node22" class="node">
<title>OverflowMenuOption </title>
<polygon fill="#fb8072" stroke="#000000" points="436.1869,-317 291.8131,-317 291.8131,-281 436.1869,-281 436.1869,-317"/>
<text text-anchor="middle" x="364" y="-294.8" font-family="Times,serif" font-size="14.00" fill="#000000">OverflowMenuOption </text>
</g>
<!-- DialogModule&#45;&gt;OverflowMenuOption  -->
<g id="edge21" class="edge">
<title>DialogModule&#45;&gt;OverflowMenuOption </title>
<path fill="none" stroke="#000000" stroke-dasharray="5,2" d="M905.9138,-242C770.5434,-242 401.875,-242 401.875,-242 401.875,-242 401.875,-270.9648 401.875,-270.9648"/>
<polygon fill="#000000" stroke="#000000" points="398.3751,-270.9648 401.875,-280.9648 405.3751,-270.9649 398.3751,-270.9648"/>
</g>
<!-- DialogPlaceholderComponent  -->
<g id="node23" class="node">
<title>DialogPlaceholderComponent </title>
<polygon fill="#fb8072" stroke="#000000" points="273.5176,-317 84.4824,-317 84.4824,-281 273.5176,-281 273.5176,-317"/>
<text text-anchor="middle" x="179" y="-294.8" font-family="Times,serif" font-size="14.00" fill="#000000">DialogPlaceholderComponent </text>
</g>
<!-- DialogModule&#45;&gt;DialogPlaceholderComponent  -->
<g id="edge22" class="edge">
<title>DialogModule&#45;&gt;DialogPlaceholderComponent </title>
<path fill="none" stroke="#000000" stroke-dasharray="5,2" d="M906.1307,-238C741.7203,-238 218.875,-238 218.875,-238 218.875,-238 218.875,-270.698 218.875,-270.698"/>
<polygon fill="#000000" stroke="#000000" points="215.3751,-270.698 218.875,-280.698 222.3751,-270.698 215.3751,-270.698"/>
</g>
<!-- DialogService -->
<g id="node12" class="node">
<title>DialogService</title>
<ellipse fill="#fdb462" stroke="#000000" cx="1256" cy="-104" rx="66.0492" ry="18"/>
<text text-anchor="middle" x="1256" y="-99.8" font-family="Times,serif" font-size="14.00" fill="#000000">DialogService</text>
</g>
<!-- DialogService&#45;&gt;DialogDirective -->
<g id="edge6" class="edge">
<title>DialogService&#45;&gt;DialogDirective</title>
<path fill="none" stroke="#000000" d="M1193.3314,-110C1132.406,-110 1049,-110 1049,-110 1049,-110 1049,-140.9775 1049,-140.9775"/>
<polygon fill="#000000" stroke="#000000" points="1045.5001,-140.9774 1049,-150.9775 1052.5001,-140.9775 1045.5001,-140.9774"/>
</g>
<!-- DialogService&#45;&gt;DialogModule -->
<g id="edge23" class="edge">
<title>DialogService&#45;&gt;DialogModule</title>
<path fill="none" stroke="#000000" d="M1193.2198,-98C1113.6675,-98 986.7805,-98 986.7805,-98 986.7805,-98 986.7805,-205.9403 986.7805,-205.9403"/>
<polygon fill="#000000" stroke="#000000" points="983.2806,-205.9402 986.7805,-215.9403 990.2806,-205.9403 983.2806,-205.9402"/>
</g>
<!-- StaticIconModule -->
<g id="node13" class="node">
<title>StaticIconModule</title>
<polygon fill="#8dd3c7" stroke="#000000" points="140.309,-187 137.309,-191 116.309,-191 113.309,-187 23.691,-187 23.691,-151 140.309,-151 140.309,-187"/>
<text text-anchor="middle" x="82" y="-164.8" font-family="Times,serif" font-size="14.00" fill="#000000">StaticIconModule</text>
</g>
<!-- StaticIconModule&#45;&gt;DialogModule -->
<g id="edge12" class="edge">
<title>StaticIconModule&#45;&gt;DialogModule</title>
<path fill="none" stroke="#000000" d="M112.3227,-187.1061C112.3227,-206.3391 112.3227,-234 112.3228,-234 112.3228,-234 896.0518,-234 896.0518,-234"/>
<polygon fill="#000000" stroke="#000000" points="896.0518,-237.5001 906.0518,-234 896.0517,-230.5001 896.0518,-237.5001"/>
</g>
</g>
</svg>
