<?xml version="1.0" encoding="UTF-8" standalone="no"?>
<!DOCTYPE svg PUBLIC "-//W3C//DTD SVG 1.1//EN"
 "http://www.w3.org/Graphics/SVG/1.1/DTD/svg11.dtd">
<!-- Generated by graphviz version 2.47.0 (20210316.0004)
 -->
<!-- Title: dependencies Pages: 1 -->
<svg width="576pt" height="284pt"
 viewBox="0.00 0.00 576.00 284.00" xmlns="http://www.w3.org/2000/svg" xmlns:xlink="http://www.w3.org/1999/xlink">
<g id="graph0" class="graph" transform="scale(1 1) rotate(0) translate(4 280)">
<title>dependencies</title>
<polygon fill="white" stroke="transparent" points="-4,4 -4,-280 572,-280 572,4 -4,4"/>
<text text-anchor="start" x="263.01" y="-42.4" font-family="Times-12" font-weight="bold" font-size="14.00">Legend</text>
<polygon fill="#ffffb3" stroke="transparent" points="50,-10 50,-30 70,-30 70,-10 50,-10"/>
<text text-anchor="start" x="73.63" y="-15.4" font-family="Times-12" font-size="14.00"> &#160;Declarations</text>
<polygon fill="#8dd3c7" stroke="transparent" points="163,-10 163,-30 183,-30 183,-10 163,-10"/>
<text text-anchor="start" x="186.73" y="-15.4" font-family="Times-12" font-size="14.00"> &#160;Module</text>
<polygon fill="#80b1d3" stroke="transparent" points="249,-10 249,-30 269,-30 269,-10 249,-10"/>
<text text-anchor="start" x="272.78" y="-15.4" font-family="Times-12" font-size="14.00"> &#160;Bootstrap</text>
<polygon fill="#fdb462" stroke="transparent" points="346,-10 346,-30 366,-30 366,-10 346,-10"/>
<text text-anchor="start" x="369.67" y="-15.4" font-family="Times-12" font-size="14.00"> &#160;Providers</text>
<polygon fill="#fb8072" stroke="transparent" points="442,-10 442,-30 462,-30 462,-10 442,-10"/>
<text text-anchor="start" x="465.73" y="-15.4" font-family="Times-12" font-size="14.00"> &#160;Exports</text>
<g id="clust1" class="cluster">
<title>cluster_CodeSnippetModule</title>
<polygon fill="none" stroke="black" stroke-dasharray="1,5" points="8,-70 8,-268 560,-268 560,-70 8,-70"/>
</g>
<g id="clust5" class="cluster">
<title>cluster_CodeSnippetModule_exports</title>
<polygon fill="none" stroke="black" points="220,-208 220,-260 328,-260 328,-208 220,-208"/>
</g>
<g id="clust2" class="cluster">
<title>cluster_CodeSnippetModule_declarations</title>
<polygon fill="none" stroke="black" points="448,-78 448,-130 552,-130 552,-78 448,-78"/>
</g>
<g id="clust4" class="cluster">
<title>cluster_CodeSnippetModule_imports</title>
<polygon fill="none" stroke="black" points="16,-78 16,-130 440,-130 440,-78 16,-78"/>
</g>
<!-- CodeSnippet -->
<g id="node1" class="node">
<title>CodeSnippet</title>
<polygon fill="#ffffb3" stroke="black" points="544.33,-122 455.67,-122 455.67,-86 544.33,-86 544.33,-122"/>
<text text-anchor="middle" x="500" y="-99.8" font-family="Times,serif" font-size="14.00">CodeSnippet</text>
</g>
<!-- CodeSnippetModule -->
<g id="node2" class="node">
<title>CodeSnippetModule</title>
<polygon fill="#8dd3c7" stroke="black" points="339.88,-187 336.88,-191 315.88,-191 312.88,-187 208.12,-187 208.12,-151 339.88,-151 339.88,-187"/>
<text text-anchor="middle" x="274" y="-164.8" font-family="Times,serif" font-size="14.00">CodeSnippetModule</text>
</g>
<!-- CodeSnippet&#45;&gt;CodeSnippetModule -->
<g id="edge1" class="edge">
<title>CodeSnippet&#45;&gt;CodeSnippetModule</title>
<path fill="none" stroke="black" d="M500,-122.11C500,-141.34 500,-169 500,-169 500,-169 349.98,-169 349.98,-169"/>
<polygon fill="black" stroke="black" points="349.98,-165.5 339.98,-169 349.98,-172.5 349.98,-165.5"/>
</g>
<!-- CodeSnippet  -->
<g id="node7" class="node">
<title>CodeSnippet </title>
<polygon fill="#fb8072" stroke="black" points="319.83,-252 228.17,-252 228.17,-216 319.83,-216 319.83,-252"/>
<text text-anchor="middle" x="274" y="-229.8" font-family="Times,serif" font-size="14.00">CodeSnippet </text>
</g>
<!-- CodeSnippetModule&#45;&gt;CodeSnippet  -->
<g id="edge6" class="edge">
<title>CodeSnippetModule&#45;&gt;CodeSnippet </title>
<path fill="none" stroke="black" stroke-dasharray="5,2" d="M274,-187.11C274,-187.11 274,-205.99 274,-205.99"/>
<polygon fill="black" stroke="black" points="270.5,-205.99 274,-215.99 277.5,-205.99 270.5,-205.99"/>
</g>
<!-- ButtonModule -->
<g id="node3" class="node">
<title>ButtonModule</title>
<polygon fill="#8dd3c7" stroke="black" points="431.67,-122 428.67,-126 407.67,-126 404.67,-122 334.33,-122 334.33,-86 431.67,-86 431.67,-122"/>
<text text-anchor="middle" x="383" y="-99.8" font-family="Times,serif" font-size="14.00">ButtonModule</text>
</g>
<!-- ButtonModule&#45;&gt;CodeSnippetModule -->
<g id="edge2" class="edge">
<title>ButtonModule&#45;&gt;CodeSnippetModule</title>
<path fill="none" stroke="black" d="M333.89,-104C328.77,-104 325.39,-104 325.39,-104 325.39,-104 325.39,-140.89 325.39,-140.89"/>
<polygon fill="black" stroke="black" points="321.89,-140.89 325.39,-150.89 328.89,-140.89 321.89,-140.89"/>
</g>
<!-- I18nModule -->
<g id="node4" class="node">
<title>I18nModule</title>
<polygon fill="#8dd3c7" stroke="black" points="316.71,-122 313.71,-126 292.71,-126 289.71,-122 231.29,-122 231.29,-86 316.71,-86 316.71,-122"/>
<text text-anchor="middle" x="274" y="-99.8" font-family="Times,serif" font-size="14.00">I18nModule</text>
</g>
<!-- I18nModule&#45;&gt;CodeSnippetModule -->
<g id="edge3" class="edge">
<title>I18nModule&#45;&gt;CodeSnippetModule</title>
<path fill="none" stroke="black" d="M274,-122.11C274,-122.11 274,-140.99 274,-140.99"/>
<polygon fill="black" stroke="black" points="270.5,-140.99 274,-150.99 277.5,-140.99 270.5,-140.99"/>
</g>
<!-- IconModule -->
<g id="node5" class="node">
<title>IconModule</title>
<polygon fill="#8dd3c7" stroke="black" points="213.43,-122 210.43,-126 189.43,-126 186.43,-122 128.57,-122 128.57,-86 213.43,-86 213.43,-122"/>
<text text-anchor="middle" x="171" y="-99.8" font-family="Times,serif" font-size="14.00">IconModule</text>
</g>
<!-- IconModule&#45;&gt;CodeSnippetModule -->
<g id="edge4" class="edge">
<title>IconModule&#45;&gt;CodeSnippetModule</title>
<path fill="none" stroke="black" d="M213.37,-104C218.68,-104 222.3,-104 222.3,-104 222.3,-104 222.3,-140.89 222.3,-140.89"/>
<polygon fill="black" stroke="black" points="218.8,-140.89 222.3,-150.89 225.8,-140.89 218.8,-140.89"/>
</g>
<!-- UtilsModule -->
<g id="node6" class="node">
<title>UtilsModule</title>
<polygon fill="#8dd3c7" stroke="black" points="110.27,-122 107.27,-126 86.27,-126 83.27,-122 23.73,-122 23.73,-86 110.27,-86 110.27,-122"/>
<text text-anchor="middle" x="67" y="-99.8" font-family="Times,serif" font-size="14.00">UtilsModule</text>
</g>
<!-- UtilsModule&#45;&gt;CodeSnippetModule -->
<g id="edge5" class="edge">
<title>UtilsModule&#45;&gt;CodeSnippetModule</title>
<path fill="none" stroke="black" d="M67,-122.11C67,-141.34 67,-169 67,-169 67,-169 197.93,-169 197.93,-169"/>
<polygon fill="black" stroke="black" points="197.93,-172.5 207.93,-169 197.93,-165.5 197.93,-172.5"/>
</g>
</g>
</svg>
