<?xml version="1.0" encoding="UTF-8" standalone="no"?>
<!DOCTYPE svg PUBLIC "-//W3C//DTD SVG 1.1//EN"
 "http://www.w3.org/Graphics/SVG/1.1/DTD/svg11.dtd">
<!-- Generated by graphviz version 2.47.0 (20210316.0004)
 -->
<!-- Title: dependencies Pages: 1 -->
<svg width="641pt" height="284pt"
 viewBox="0.00 0.00 641.00 284.00" xmlns="http://www.w3.org/2000/svg" xmlns:xlink="http://www.w3.org/1999/xlink">
<g id="graph0" class="graph" transform="scale(1 1) rotate(0) translate(4 280)">
<title>dependencies</title>
<polygon fill="white" stroke="transparent" points="-4,4 -4,-280 637,-280 637,4 -4,4"/>
<text text-anchor="start" x="295.51" y="-42.4" font-family="Times-12" font-weight="bold" font-size="14.00">Legend</text>
<polygon fill="#ffffb3" stroke="transparent" points="82.5,-10 82.5,-30 102.5,-30 102.5,-10 82.5,-10"/>
<text text-anchor="start" x="106.13" y="-15.4" font-family="Times-12" font-size="14.00"> &#160;Declarations</text>
<polygon fill="#8dd3c7" stroke="transparent" points="195.5,-10 195.5,-30 215.5,-30 215.5,-10 195.5,-10"/>
<text text-anchor="start" x="219.23" y="-15.4" font-family="Times-12" font-size="14.00"> &#160;Module</text>
<polygon fill="#80b1d3" stroke="transparent" points="281.5,-10 281.5,-30 301.5,-30 301.5,-10 281.5,-10"/>
<text text-anchor="start" x="305.28" y="-15.4" font-family="Times-12" font-size="14.00"> &#160;Bootstrap</text>
<polygon fill="#fdb462" stroke="transparent" points="378.5,-10 378.5,-30 398.5,-30 398.5,-10 378.5,-10"/>
<text text-anchor="start" x="402.17" y="-15.4" font-family="Times-12" font-size="14.00"> &#160;Providers</text>
<polygon fill="#fb8072" stroke="transparent" points="474.5,-10 474.5,-30 494.5,-30 494.5,-10 474.5,-10"/>
<text text-anchor="start" x="498.23" y="-15.4" font-family="Times-12" font-size="14.00"> &#160;Exports</text>
<g id="clust1" class="cluster">
<title>cluster_NFormsModule</title>
<polygon fill="none" stroke="black" stroke-dasharray="1,5" points="8,-70 8,-268 625,-268 625,-70 8,-70"/>
</g>
<g id="clust4" class="cluster">
<title>cluster_NFormsModule_exports</title>
<polygon fill="none" stroke="black" points="16,-208 16,-260 617,-260 617,-208 16,-208"/>
</g>
<g id="clust3" class="cluster">
<title>cluster_NFormsModule_imports</title>
<polygon fill="none" stroke="black" points="25,-78 25,-130 609,-130 609,-78 25,-78"/>
</g>
<!-- ButtonModule -->
<g id="node1" class="node">
<title>ButtonModule</title>
<polygon fill="#8dd3c7" stroke="black" points="600.67,-122 597.67,-126 576.67,-126 573.67,-122 503.33,-122 503.33,-86 600.67,-86 600.67,-122"/>
<text text-anchor="middle" x="552" y="-99.8" font-family="Times,serif" font-size="14.00">ButtonModule</text>
</g>
<!-- NFormsModule -->
<g id="node6" class="node">
<title>NFormsModule</title>
<polygon fill="#8dd3c7" stroke="black" points="358.94,-187 355.94,-191 334.94,-191 331.94,-187 253.06,-187 253.06,-151 358.94,-151 358.94,-187"/>
<text text-anchor="middle" x="306" y="-164.8" font-family="Times,serif" font-size="14.00">NFormsModule</text>
</g>
<!-- ButtonModule&#45;&gt;NFormsModule -->
<g id="edge1" class="edge">
<title>ButtonModule&#45;&gt;NFormsModule</title>
<path fill="none" stroke="black" d="M569.69,-122.03C569.69,-138.4 569.69,-160 569.69,-160 569.69,-160 368.73,-160 368.73,-160"/>
<polygon fill="black" stroke="black" points="368.73,-156.5 358.73,-160 368.73,-163.5 368.73,-156.5"/>
</g>
<!-- CheckboxModule -->
<g id="node2" class="node">
<title>CheckboxModule</title>
<polygon fill="#8dd3c7" stroke="black" points="485.32,-122 482.32,-126 461.32,-126 458.32,-122 368.68,-122 368.68,-86 485.32,-86 485.32,-122"/>
<text text-anchor="middle" x="427" y="-99.8" font-family="Times,serif" font-size="14.00">CheckboxModule</text>
</g>
<!-- CheckboxModule&#45;&gt;NFormsModule -->
<g id="edge2" class="edge">
<title>CheckboxModule&#45;&gt;NFormsModule</title>
<path fill="none" stroke="black" d="M368.59,-104C360.36,-104 354.63,-104 354.63,-104 354.63,-104 354.63,-140.89 354.63,-140.89"/>
<polygon fill="black" stroke="black" points="351.13,-140.89 354.63,-150.89 358.13,-140.89 351.13,-140.89"/>
</g>
<!-- InputModule -->
<g id="node3" class="node">
<title>InputModule</title>
<polygon fill="#8dd3c7" stroke="black" points="350.6,-122 347.6,-126 326.6,-126 323.6,-122 261.4,-122 261.4,-86 350.6,-86 350.6,-122"/>
<text text-anchor="middle" x="306" y="-99.8" font-family="Times,serif" font-size="14.00">InputModule</text>
</g>
<!-- InputModule&#45;&gt;NFormsModule -->
<g id="edge3" class="edge">
<title>InputModule&#45;&gt;NFormsModule</title>
<path fill="none" stroke="black" d="M306,-122.11C306,-122.11 306,-140.99 306,-140.99"/>
<polygon fill="black" stroke="black" points="302.5,-140.99 306,-150.99 309.5,-140.99 302.5,-140.99"/>
</g>
<!-- RadioModule -->
<g id="node4" class="node">
<title>RadioModule</title>
<polygon fill="#8dd3c7" stroke="black" points="243.49,-122 240.49,-126 219.49,-126 216.49,-122 150.51,-122 150.51,-86 243.49,-86 243.49,-122"/>
<text text-anchor="middle" x="197" y="-99.8" font-family="Times,serif" font-size="14.00">RadioModule</text>
</g>
<!-- RadioModule&#45;&gt;NFormsModule -->
<g id="edge4" class="edge">
<title>RadioModule&#45;&gt;NFormsModule</title>
<path fill="none" stroke="black" d="M243.67,-104C251.62,-104 257.37,-104 257.37,-104 257.37,-104 257.37,-140.89 257.37,-140.89"/>
<polygon fill="black" stroke="black" points="253.87,-140.89 257.37,-150.89 260.87,-140.89 253.87,-140.89"/>
</g>
<!-- ToggleModule -->
<g id="node5" class="node">
<title>ToggleModule</title>
<polygon fill="#8dd3c7" stroke="black" points="132.71,-122 129.71,-126 108.71,-126 105.71,-122 33.29,-122 33.29,-86 132.71,-86 132.71,-122"/>
<text text-anchor="middle" x="83" y="-99.8" font-family="Times,serif" font-size="14.00">ToggleModule</text>
</g>
<!-- ToggleModule&#45;&gt;NFormsModule -->
<g id="edge5" class="edge">
<title>ToggleModule&#45;&gt;NFormsModule</title>
<path fill="none" stroke="black" d="M95.37,-122.03C95.37,-138.4 95.37,-160 95.37,-160 95.37,-160 243.12,-160 243.12,-160"/>
<polygon fill="black" stroke="black" points="243.12,-163.5 253.12,-160 243.12,-156.5 243.12,-163.5"/>
</g>
<!-- ButtonModule  -->
<g id="node7" class="node">
<title>ButtonModule </title>
<polygon fill="#fb8072" stroke="black" points="608.67,-252 507.33,-252 507.33,-216 608.67,-216 608.67,-252"/>
<text text-anchor="middle" x="558" y="-229.8" font-family="Times,serif" font-size="14.00">ButtonModule </text>
</g>
<!-- NFormsModule&#45;&gt;ButtonModule  -->
<g id="edge6" class="edge">
<title>NFormsModule&#45;&gt;ButtonModule </title>
<path fill="none" stroke="black" stroke-dasharray="5,2" d="M358.77,-169C427.38,-169 538.56,-169 538.56,-169 538.56,-169 538.56,-205.89 538.56,-205.89"/>
<polygon fill="black" stroke="black" points="535.06,-205.89 538.56,-215.89 542.06,-205.89 535.06,-205.89"/>
</g>
<!-- CheckboxModule  -->
<g id="node8" class="node">
<title>CheckboxModule </title>
<polygon fill="#fb8072" stroke="black" points="489.82,-252 370.18,-252 370.18,-216 489.82,-216 489.82,-252"/>
<text text-anchor="middle" x="430" y="-229.8" font-family="Times,serif" font-size="14.00">CheckboxModule </text>
</g>
<!-- NFormsModule&#45;&gt;CheckboxModule  -->
<g id="edge7" class="edge">
<title>NFormsModule&#45;&gt;CheckboxModule </title>
<path fill="none" stroke="black" stroke-dasharray="5,2" d="M358.99,-178C391.77,-178 427.62,-178 427.62,-178 427.62,-178 427.62,-205.97 427.62,-205.97"/>
<polygon fill="black" stroke="black" points="424.13,-205.97 427.62,-215.97 431.13,-205.97 424.13,-205.97"/>
</g>
<!-- InputModule  -->
<g id="node9" class="node">
<title>InputModule </title>
<polygon fill="#fb8072" stroke="black" points="352.1,-252 259.9,-252 259.9,-216 352.1,-216 352.1,-252"/>
<text text-anchor="middle" x="306" y="-229.8" font-family="Times,serif" font-size="14.00">InputModule </text>
</g>
<!-- NFormsModule&#45;&gt;InputModule  -->
<g id="edge8" class="edge">
<title>NFormsModule&#45;&gt;InputModule </title>
<path fill="none" stroke="black" stroke-dasharray="5,2" d="M290.57,-187.11C290.57,-187.11 290.57,-205.99 290.57,-205.99"/>
<polygon fill="black" stroke="black" points="287.07,-205.99 290.57,-215.99 294.07,-205.99 287.07,-205.99"/>
</g>
<!-- NFormsModule&#45;&gt;InputModule  -->
<g id="edge9" class="edge">
<title>NFormsModule&#45;&gt;InputModule </title>
<path fill="none" stroke="black" stroke-dasharray="5,2" d="M321.43,-187.11C321.43,-187.11 321.43,-205.99 321.43,-205.99"/>
<polygon fill="black" stroke="black" points="317.93,-205.99 321.43,-215.99 324.93,-205.99 317.93,-205.99"/>
</g>
<!-- RadioModule  -->
<g id="node10" class="node">
<title>RadioModule </title>
<polygon fill="#fb8072" stroke="black" points="241.49,-252 144.51,-252 144.51,-216 241.49,-216 241.49,-252"/>
<text text-anchor="middle" x="193" y="-229.8" font-family="Times,serif" font-size="14.00">RadioModule </text>
</g>
<!-- NFormsModule&#45;&gt;RadioModule  -->
<g id="edge10" class="edge">
<title>NFormsModule&#45;&gt;RadioModule </title>
<path fill="none" stroke="black" stroke-dasharray="5,2" d="M253.2,-178C224.93,-178 195.88,-178 195.88,-178 195.88,-178 195.88,-205.97 195.88,-205.97"/>
<polygon fill="black" stroke="black" points="192.38,-205.97 195.88,-215.97 199.38,-205.97 192.38,-205.97"/>
</g>
<!-- ToggleModule  -->
<g id="node11" class="node">
<title>ToggleModule </title>
<polygon fill="#fb8072" stroke="black" points="126.21,-252 23.79,-252 23.79,-216 126.21,-216 126.21,-252"/>
<text text-anchor="middle" x="75" y="-229.8" font-family="Times,serif" font-size="14.00">ToggleModule </text>
</g>
<!-- NFormsModule&#45;&gt;ToggleModule  -->
<g id="edge11" class="edge">
<title>NFormsModule&#45;&gt;ToggleModule </title>
<path fill="none" stroke="black" stroke-dasharray="5,2" d="M253.27,-169C182.18,-169 64.38,-169 64.38,-169 64.38,-169 64.38,-205.89 64.38,-205.89"/>
<polygon fill="black" stroke="black" points="60.88,-205.89 64.38,-215.89 67.88,-205.89 60.88,-205.89"/>
</g>
</g>
</svg>
