<?xml version="1.0" encoding="UTF-8" standalone="no"?>
<!DOCTYPE svg PUBLIC "-//W3C//DTD SVG 1.1//EN"
 "http://www.w3.org/Graphics/SVG/1.1/DTD/svg11.dtd">
<!-- Generated by graphviz version 2.40.1 (20161225.0304)
 -->
<!-- Title: dependencies Pages: 1 -->
<svg width="684pt" height="396pt"
 viewBox="0.00 0.00 684.00 395.59" xmlns="http://www.w3.org/2000/svg" xmlns:xlink="http://www.w3.org/1999/xlink">
<g id="graph0" class="graph" transform="scale(1 1) rotate(0) translate(4 391.5901)">
<title>dependencies</title>
<polygon fill="#ffffff" stroke="transparent" points="-4,4 -4,-391.5901 680,-391.5901 680,4 -4,4"/>
<text text-anchor="start" x="317.0091" y="-42.4" font-family="sans-serif" font-weight="bold" font-size="14.00" fill="#000000">Legend</text>
<polygon fill="#ffffb3" stroke="transparent" points="104,-10 104,-30 124,-30 124,-10 104,-10"/>
<text text-anchor="start" x="127.629" y="-15.4" font-family="sans-serif" font-size="14.00" fill="#000000"> &#160;Declarations</text>
<polygon fill="#8dd3c7" stroke="transparent" points="217,-10 217,-30 237,-30 237,-10 217,-10"/>
<text text-anchor="start" x="240.7251" y="-15.4" font-family="sans-serif" font-size="14.00" fill="#000000"> &#160;Module</text>
<polygon fill="#80b1d3" stroke="transparent" points="303,-10 303,-30 323,-30 323,-10 303,-10"/>
<text text-anchor="start" x="326.7812" y="-15.4" font-family="sans-serif" font-size="14.00" fill="#000000"> &#160;Bootstrap</text>
<polygon fill="#fdb462" stroke="transparent" points="400,-10 400,-30 420,-30 420,-10 400,-10"/>
<text text-anchor="start" x="423.6732" y="-15.4" font-family="sans-serif" font-size="14.00" fill="#000000"> &#160;Providers</text>
<polygon fill="#fb8072" stroke="transparent" points="496,-10 496,-30 516,-30 516,-10 496,-10"/>
<text text-anchor="start" x="519.7258" y="-15.4" font-family="sans-serif" font-size="14.00" fill="#000000"> &#160;Exports</text>
<g id="clust1" class="cluster">
<title>cluster_ComboBoxModule</title>
<polygon fill="none" stroke="#000000" stroke-dasharray="1,5" points="8,-70 8,-379.5901 668,-379.5901 668,-70 8,-70"/>
</g>
<g id="clust2" class="cluster">
<title>cluster_ComboBoxModule_declarations</title>
<polygon fill="none" stroke="#000000" points="290,-189.5901 290,-241.5901 386,-241.5901 386,-189.5901 290,-189.5901"/>
</g>
<g id="clust3" class="cluster">
<title>cluster_ComboBoxModule_ComboBox_providers</title>
<polygon fill="none" stroke="#000000" points="16,-78 16,-176.5901 660,-176.5901 660,-78 16,-78"/>
</g>
<g id="clust4" class="cluster">
<title>cluster_ComboBoxModule_imports</title>
<polygon fill="none" stroke="#000000" points="146,-189.5901 146,-241.5901 282,-241.5901 282,-189.5901 146,-189.5901"/>
</g>
<g id="clust5" class="cluster">
<title>cluster_ComboBoxModule_exports</title>
<polygon fill="none" stroke="#000000" points="147,-319.5901 147,-371.5901 387,-371.5901 387,-319.5901 147,-319.5901"/>
</g>
<!-- ComboBox -->
<g id="node1" class="node">
<title>ComboBox</title>
<polygon fill="#ffffb3" stroke="#000000" points="378.065,-233.5901 297.935,-233.5901 297.935,-197.5901 378.065,-197.5901 378.065,-233.5901"/>
<text text-anchor="middle" x="338" y="-211.3901" font-family="Times,serif" font-size="14.00" fill="#000000">ComboBox</text>
</g>
<!-- ComboBoxModule -->
<g id="node2" class="node">
<title>ComboBoxModule</title>
<polygon fill="#8dd3c7" stroke="#000000" points="338.1137,-298.5901 335.1137,-302.5901 314.1137,-302.5901 311.1137,-298.5901 213.8863,-298.5901 213.8863,-262.5901 338.1137,-262.5901 338.1137,-298.5901"/>
<text text-anchor="middle" x="276" y="-276.3901" font-family="Times,serif" font-size="14.00" fill="#000000">ComboBoxModule</text>
</g>
<!-- ComboBox&#45;&gt;ComboBoxModule -->
<g id="edge1" class="edge">
<title>ComboBox&#45;&gt;ComboBoxModule</title>
<path fill="none" stroke="#000000" d="M317.8875,-233.6962C317.8875,-233.6962 317.8875,-252.581 317.8875,-252.581"/>
<polygon fill="#000000" stroke="#000000" points="314.3875,-252.581 317.8875,-262.581 321.3875,-252.5811 314.3875,-252.581"/>
</g>
<!-- ComboBox  -->
<g id="node5" class="node">
<title>ComboBox </title>
<polygon fill="#fb8072" stroke="#000000" points="379.0638,-363.5901 294.9362,-363.5901 294.9362,-327.5901 379.0638,-327.5901 379.0638,-363.5901"/>
<text text-anchor="middle" x="337" y="-341.3901" font-family="Times,serif" font-size="14.00" fill="#000000">ComboBox </text>
</g>
<!-- ComboBoxModule&#45;&gt;ComboBox  -->
<g id="edge4" class="edge">
<title>ComboBoxModule&#45;&gt;ComboBox </title>
<path fill="none" stroke="#000000" stroke-dasharray="5,2" d="M316.5125,-298.6962C316.5125,-298.6962 316.5125,-317.581 316.5125,-317.581"/>
<polygon fill="#000000" stroke="#000000" points="313.0125,-317.581 316.5125,-327.581 320.0125,-317.5811 313.0125,-317.581"/>
</g>
<!-- DropdownModule  -->
<g id="node6" class="node">
<title>DropdownModule </title>
<polygon fill="#fb8072" stroke="#000000" points="277.4236,-363.5901 154.5764,-363.5901 154.5764,-327.5901 277.4236,-327.5901 277.4236,-363.5901"/>
<text text-anchor="middle" x="216" y="-341.3901" font-family="Times,serif" font-size="14.00" fill="#000000">DropdownModule </text>
</g>
<!-- ComboBoxModule&#45;&gt;DropdownModule  -->
<g id="edge5" class="edge">
<title>ComboBoxModule&#45;&gt;DropdownModule </title>
<path fill="none" stroke="#000000" stroke-dasharray="5,2" d="M245.7025,-298.6962C245.7025,-298.6962 245.7025,-317.581 245.7025,-317.581"/>
<polygon fill="#000000" stroke="#000000" points="242.2026,-317.581 245.7025,-327.581 249.2026,-317.5811 242.2026,-317.581"/>
</g>
<!-- {
 &#160;&#160;&#160;provide: NG_VALUE_ACCESSOR, useExisting: ComboBox, multi: true
} -->
<g id="node3" class="node">
<title>{
 &#160;&#160;&#160;provide: NG_VALUE_ACCESSOR, useExisting: ComboBox, multi: true
}</title>
<ellipse fill="#fdb462" stroke="#000000" cx="338" cy="-127.295" rx="314.1043" ry="41.0911"/>
<text text-anchor="middle" x="338" y="-139.895" font-family="Times,serif" font-size="14.00" fill="#000000">{</text>
<text text-anchor="middle" x="338" y="-123.095" font-family="Times,serif" font-size="14.00" fill="#000000"> &#160;&#160;&#160;provide: NG_VALUE_ACCESSOR, useExisting: ComboBox, multi: true</text>
<text text-anchor="middle" x="338" y="-106.295" font-family="Times,serif" font-size="14.00" fill="#000000">}</text>
</g>
<!-- {
 &#160;&#160;&#160;provide: NG_VALUE_ACCESSOR, useExisting: ComboBox, multi: true
}&#45;&gt;ComboBox -->
<g id="edge2" class="edge">
<title>{
 &#160;&#160;&#160;provide: NG_VALUE_ACCESSOR, useExisting: ComboBox, multi: true
}&#45;&gt;ComboBox</title>
<path fill="none" stroke="#000000" d="M338,-168.5989C338,-168.5989 338,-187.2551 338,-187.2551"/>
<polygon fill="#000000" stroke="#000000" points="334.5001,-187.255 338,-197.2551 341.5001,-187.2551 334.5001,-187.255"/>
</g>
<!-- DropdownModule -->
<g id="node4" class="node">
<title>DropdownModule</title>
<polygon fill="#8dd3c7" stroke="#000000" points="273.9244,-233.5901 270.9244,-237.5901 249.9244,-237.5901 246.9244,-233.5901 154.0756,-233.5901 154.0756,-197.5901 273.9244,-197.5901 273.9244,-233.5901"/>
<text text-anchor="middle" x="214" y="-211.3901" font-family="Times,serif" font-size="14.00" fill="#000000">DropdownModule</text>
</g>
<!-- DropdownModule&#45;&gt;ComboBoxModule -->
<g id="edge3" class="edge">
<title>DropdownModule&#45;&gt;ComboBoxModule</title>
<path fill="none" stroke="#000000" d="M243.8275,-233.6962C243.8275,-233.6962 243.8275,-252.581 243.8275,-252.581"/>
<polygon fill="#000000" stroke="#000000" points="240.3276,-252.581 243.8275,-262.581 247.3276,-252.5811 240.3276,-252.581"/>
</g>
</g>
</svg>
