<?xml version="1.0" encoding="UTF-8" standalone="no"?>
<!DOCTYPE svg PUBLIC "-//W3C//DTD SVG 1.1//EN"
 "http://www.w3.org/Graphics/SVG/1.1/DTD/svg11.dtd">
<!-- Generated by graphviz version 2.40.1 (20161225.0304)
 -->
<!-- Title: dependencies Pages: 1 -->
<svg width="504pt" height="284pt"
 viewBox="0.00 0.00 504.00 284.00" xmlns="http://www.w3.org/2000/svg" xmlns:xlink="http://www.w3.org/1999/xlink">
<g id="graph0" class="graph" transform="scale(1 1) rotate(0) translate(4 280)">
<title>dependencies</title>
<polygon fill="#ffffff" stroke="transparent" points="-4,4 -4,-280 500,-280 500,4 -4,4"/>
<text text-anchor="start" x="227.0091" y="-42.4" font-family="sans-serif" font-weight="bold" font-size="14.00" fill="#000000">Legend</text>
<polygon fill="#ffffb3" stroke="transparent" points="14,-10 14,-30 34,-30 34,-10 14,-10"/>
<text text-anchor="start" x="37.629" y="-15.4" font-family="sans-serif" font-size="14.00" fill="#000000"> &#160;Declarations</text>
<polygon fill="#8dd3c7" stroke="transparent" points="127,-10 127,-30 147,-30 147,-10 127,-10"/>
<text text-anchor="start" x="150.7251" y="-15.4" font-family="sans-serif" font-size="14.00" fill="#000000"> &#160;Module</text>
<polygon fill="#80b1d3" stroke="transparent" points="213,-10 213,-30 233,-30 233,-10 213,-10"/>
<text text-anchor="start" x="236.7812" y="-15.4" font-family="sans-serif" font-size="14.00" fill="#000000"> &#160;Bootstrap</text>
<polygon fill="#fdb462" stroke="transparent" points="310,-10 310,-30 330,-30 330,-10 310,-10"/>
<text text-anchor="start" x="333.6732" y="-15.4" font-family="sans-serif" font-size="14.00" fill="#000000"> &#160;Providers</text>
<polygon fill="#fb8072" stroke="transparent" points="406,-10 406,-30 426,-30 426,-10 406,-10"/>
<text text-anchor="start" x="429.7258" y="-15.4" font-family="sans-serif" font-size="14.00" fill="#000000"> &#160;Exports</text>
<g id="clust1" class="cluster">
<title>cluster_DatePickerModule</title>
<polygon fill="none" stroke="#000000" stroke-dasharray="1,5" points="105,-70 105,-268 391,-268 391,-70 105,-70"/>
</g>
<g id="clust2" class="cluster">
<title>cluster_DatePickerModule_declarations</title>
<polygon fill="none" stroke="#000000" points="289,-78 289,-130 383,-130 383,-78 289,-78"/>
</g>
<g id="clust4" class="cluster">
<title>cluster_DatePickerModule_imports</title>
<polygon fill="none" stroke="#000000" points="113,-78 113,-130 281,-130 281,-78 113,-78"/>
</g>
<g id="clust5" class="cluster">
<title>cluster_DatePickerModule_exports</title>
<polygon fill="none" stroke="#000000" points="113,-208 113,-260 383,-260 383,-208 113,-208"/>
</g>
<!-- DatePicker -->
<g id="node1" class="node">
<title>DatePicker</title>
<polygon fill="#ffffb3" stroke="#000000" points="375.1896,-122 296.8104,-122 296.8104,-86 375.1896,-86 375.1896,-122"/>
<text text-anchor="middle" x="336" y="-99.8" font-family="Times,serif" font-size="14.00" fill="#000000">DatePicker</text>
</g>
<!-- DatePickerModule -->
<g id="node2" class="node">
<title>DatePickerModule</title>
<polygon fill="#8dd3c7" stroke="#000000" points="320.7395,-187 317.7395,-191 296.7395,-191 293.7395,-187 199.2605,-187 199.2605,-151 320.7395,-151 320.7395,-187"/>
<text text-anchor="middle" x="260" y="-164.8" font-family="Times,serif" font-size="14.00" fill="#000000">DatePickerModule</text>
</g>
<!-- DatePicker&#45;&gt;DatePickerModule -->
<g id="edge1" class="edge">
<title>DatePicker&#45;&gt;DatePickerModule</title>
<path fill="none" stroke="#000000" d="M308.8875,-122.1061C308.8875,-122.1061 308.8875,-140.991 308.8875,-140.991"/>
<polygon fill="#000000" stroke="#000000" points="305.3875,-140.9909 308.8875,-150.991 312.3875,-140.991 305.3875,-140.9909"/>
</g>
<!-- DatePicker  -->
<g id="node4" class="node">
<title>DatePicker </title>
<polygon fill="#fb8072" stroke="#000000" points="374.69,-252 293.31,-252 293.31,-216 374.69,-216 374.69,-252"/>
<text text-anchor="middle" x="334" y="-229.8" font-family="Times,serif" font-size="14.00" fill="#000000">DatePicker </text>
</g>
<!-- DatePickerModule&#45;&gt;DatePicker  -->
<g id="edge3" class="edge">
<title>DatePickerModule&#45;&gt;DatePicker </title>
<path fill="none" stroke="#000000" stroke-dasharray="5,2" d="M307.0125,-187.1061C307.0125,-187.1061 307.0125,-205.991 307.0125,-205.991"/>
<polygon fill="#000000" stroke="#000000" points="303.5125,-205.9909 307.0125,-215.991 310.5125,-205.991 303.5125,-205.9909"/>
</g>
<!-- DatePickerInputModule  -->
<g id="node5" class="node">
<title>DatePickerInputModule </title>
<polygon fill="#fb8072" stroke="#000000" points="275.2905,-252 120.7095,-252 120.7095,-216 275.2905,-216 275.2905,-252"/>
<text text-anchor="middle" x="198" y="-229.8" font-family="Times,serif" font-size="14.00" fill="#000000">DatePickerInputModule </text>
</g>
<!-- DatePickerModule&#45;&gt;DatePickerInputModule  -->
<g id="edge4" class="edge">
<title>DatePickerModule&#45;&gt;DatePickerInputModule </title>
<path fill="none" stroke="#000000" stroke-dasharray="5,2" d="M237.2628,-187.1061C237.2628,-187.1061 237.2628,-205.991 237.2628,-205.991"/>
<polygon fill="#000000" stroke="#000000" points="233.7629,-205.9909 237.2628,-215.991 240.7629,-205.991 233.7629,-205.9909"/>
</g>
<!-- DatePickerInputModule -->
<g id="node3" class="node">
<title>DatePickerInputModule</title>
<polygon fill="#8dd3c7" stroke="#000000" points="272.7907,-122 269.7907,-126 248.7907,-126 245.7907,-122 121.2093,-122 121.2093,-86 272.7907,-86 272.7907,-122"/>
<text text-anchor="middle" x="197" y="-99.8" font-family="Times,serif" font-size="14.00" fill="#000000">DatePickerInputModule</text>
</g>
<!-- DatePickerInputModule&#45;&gt;DatePickerModule -->
<g id="edge2" class="edge">
<title>DatePickerInputModule&#45;&gt;DatePickerModule</title>
<path fill="none" stroke="#000000" d="M235.8878,-122.1061C235.8878,-122.1061 235.8878,-140.991 235.8878,-140.991"/>
<polygon fill="#000000" stroke="#000000" points="232.3879,-140.9909 235.8878,-150.991 239.3879,-140.991 232.3879,-140.9909"/>
</g>
</g>
</svg>
