<?xml version="1.0" encoding="UTF-8" standalone="no"?>
<!DOCTYPE svg PUBLIC "-//W3C//DTD SVG 1.1//EN"
 "http://www.w3.org/Graphics/SVG/1.1/DTD/svg11.dtd">
<!-- Generated by graphviz version 2.40.1 (20161225.0304)
 -->
<!-- Title: dependencies Pages: 1 -->
<svg width="1298pt" height="396pt"
 viewBox="0.00 0.00 1298.00 395.59" xmlns="http://www.w3.org/2000/svg" xmlns:xlink="http://www.w3.org/1999/xlink">
<g id="graph0" class="graph" transform="scale(1 1) rotate(0) translate(4 391.5901)">
<title>dependencies</title>
<polygon fill="#ffffff" stroke="transparent" points="-4,4 -4,-391.5901 1294,-391.5901 1294,4 -4,4"/>
<text text-anchor="start" x="624.0091" y="-42.4" font-family="sans-serif" font-weight="bold" font-size="14.00" fill="#000000">Legend</text>
<polygon fill="#ffffb3" stroke="transparent" points="411,-10 411,-30 431,-30 431,-10 411,-10"/>
<text text-anchor="start" x="434.629" y="-15.4" font-family="sans-serif" font-size="14.00" fill="#000000"> &#160;Declarations</text>
<polygon fill="#8dd3c7" stroke="transparent" points="524,-10 524,-30 544,-30 544,-10 524,-10"/>
<text text-anchor="start" x="547.7251" y="-15.4" font-family="sans-serif" font-size="14.00" fill="#000000"> &#160;Module</text>
<polygon fill="#80b1d3" stroke="transparent" points="610,-10 610,-30 630,-30 630,-10 610,-10"/>
<text text-anchor="start" x="633.7812" y="-15.4" font-family="sans-serif" font-size="14.00" fill="#000000"> &#160;Bootstrap</text>
<polygon fill="#fdb462" stroke="transparent" points="707,-10 707,-30 727,-30 727,-10 707,-10"/>
<text text-anchor="start" x="730.6732" y="-15.4" font-family="sans-serif" font-size="14.00" fill="#000000"> &#160;Providers</text>
<polygon fill="#fb8072" stroke="transparent" points="803,-10 803,-30 823,-30 823,-10 803,-10"/>
<text text-anchor="start" x="826.7258" y="-15.4" font-family="sans-serif" font-size="14.00" fill="#000000"> &#160;Exports</text>
<g id="clust1" class="cluster">
<title>cluster_RadioModule</title>
<polygon fill="none" stroke="#000000" stroke-dasharray="1,5" points="8,-70 8,-379.5901 1282,-379.5901 1282,-70 8,-70"/>
</g>
<g id="clust2" class="cluster">
<title>cluster_RadioModule_declarations</title>
<polygon fill="none" stroke="#000000" points="562,-189.5901 562,-241.5901 736,-241.5901 736,-189.5901 562,-189.5901"/>
</g>
<g id="clust3" class="cluster">
<title>cluster_RadioModule_Radio_providers</title>
<polygon fill="none" stroke="#000000" points="674,-78 674,-176.5901 1274,-176.5901 1274,-78 674,-78"/>
</g>
<g id="clust4" class="cluster">
<title>cluster_RadioModule_RadioGroup_providers</title>
<polygon fill="none" stroke="#000000" points="16,-78 16,-176.5901 666,-176.5901 666,-78 16,-78"/>
</g>
<g id="clust6" class="cluster">
<title>cluster_RadioModule_exports</title>
<polygon fill="none" stroke="#000000" points="561,-319.5901 561,-371.5901 737,-371.5901 737,-319.5901 561,-319.5901"/>
</g>
<!-- Radio -->
<g id="node1" class="node">
<title>Radio</title>
<polygon fill="#ffffb3" stroke="#000000" points="728,-233.5901 674,-233.5901 674,-197.5901 728,-197.5901 728,-233.5901"/>
<text text-anchor="middle" x="701" y="-211.3901" font-family="Times,serif" font-size="14.00" fill="#000000">Radio</text>
</g>
<!-- RadioModule -->
<g id="node3" class="node">
<title>RadioModule</title>
<polygon fill="#8dd3c7" stroke="#000000" points="703.4916,-298.5901 700.4916,-302.5901 679.4916,-302.5901 676.4916,-298.5901 610.5084,-298.5901 610.5084,-262.5901 703.4916,-262.5901 703.4916,-298.5901"/>
<text text-anchor="middle" x="657" y="-276.3901" font-family="Times,serif" font-size="14.00" fill="#000000">RadioModule</text>
</g>
<!-- Radio&#45;&gt;RadioModule -->
<g id="edge1" class="edge">
<title>Radio&#45;&gt;RadioModule</title>
<path fill="none" stroke="#000000" d="M688.7479,-233.6962C688.7479,-233.6962 688.7479,-252.581 688.7479,-252.581"/>
<polygon fill="#000000" stroke="#000000" points="685.248,-252.581 688.7479,-262.581 692.248,-252.5811 685.248,-252.581"/>
</g>
<!-- RadioGroup -->
<g id="node2" class="node">
<title>RadioGroup</title>
<polygon fill="#ffffb3" stroke="#000000" points="655.7093,-233.5901 570.2907,-233.5901 570.2907,-197.5901 655.7093,-197.5901 655.7093,-233.5901"/>
<text text-anchor="middle" x="613" y="-211.3901" font-family="Times,serif" font-size="14.00" fill="#000000">RadioGroup</text>
</g>
<!-- RadioGroup&#45;&gt;RadioModule -->
<g id="edge3" class="edge">
<title>RadioGroup&#45;&gt;RadioModule</title>
<path fill="none" stroke="#000000" d="M633.0544,-233.6962C633.0544,-233.6962 633.0544,-252.581 633.0544,-252.581"/>
<polygon fill="#000000" stroke="#000000" points="629.5544,-252.581 633.0544,-262.581 636.5544,-252.5811 629.5544,-252.581"/>
</g>
<!-- Radio  -->
<g id="node6" class="node">
<title>Radio </title>
<polygon fill="#fb8072" stroke="#000000" points="729,-363.5901 675,-363.5901 675,-327.5901 729,-327.5901 729,-363.5901"/>
<text text-anchor="middle" x="702" y="-341.3901" font-family="Times,serif" font-size="14.00" fill="#000000">Radio </text>
</g>
<!-- RadioModule&#45;&gt;Radio  -->
<g id="edge5" class="edge">
<title>RadioModule&#45;&gt;Radio </title>
<path fill="none" stroke="#000000" stroke-dasharray="5,2" d="M689.2479,-298.6962C689.2479,-298.6962 689.2479,-317.581 689.2479,-317.581"/>
<polygon fill="#000000" stroke="#000000" points="685.748,-317.581 689.2479,-327.581 692.748,-317.5811 685.748,-317.581"/>
</g>
<!-- RadioGroup  -->
<g id="node7" class="node">
<title>RadioGroup </title>
<polygon fill="#fb8072" stroke="#000000" points="657.2095,-363.5901 568.7905,-363.5901 568.7905,-327.5901 657.2095,-327.5901 657.2095,-363.5901"/>
<text text-anchor="middle" x="613" y="-341.3901" font-family="Times,serif" font-size="14.00" fill="#000000">RadioGroup </text>
</g>
<!-- RadioModule&#45;&gt;RadioGroup  -->
<g id="edge6" class="edge">
<title>RadioModule&#45;&gt;RadioGroup </title>
<path fill="none" stroke="#000000" stroke-dasharray="5,2" d="M633.9294,-298.6962C633.9294,-298.6962 633.9294,-317.581 633.9294,-317.581"/>
<polygon fill="#000000" stroke="#000000" points="630.4294,-317.581 633.9294,-327.581 637.4294,-317.5811 630.4294,-317.581"/>
</g>
<!-- {
 &#160;&#160;&#160;provide: NG_VALUE_ACCESSOR, useExisting: Radio, multi: true
} -->
<g id="node4" class="node">
<title>{
 &#160;&#160;&#160;provide: NG_VALUE_ACCESSOR, useExisting: Radio, multi: true
}</title>
<ellipse fill="#fdb462" stroke="#000000" cx="974" cy="-127.295" rx="292.0911" ry="41.0911"/>
<text text-anchor="middle" x="974" y="-139.895" font-family="Times,serif" font-size="14.00" fill="#000000">{</text>
<text text-anchor="middle" x="974" y="-123.095" font-family="Times,serif" font-size="14.00" fill="#000000"> &#160;&#160;&#160;provide: NG_VALUE_ACCESSOR, useExisting: Radio, multi: true</text>
<text text-anchor="middle" x="974" y="-106.295" font-family="Times,serif" font-size="14.00" fill="#000000">}</text>
</g>
<!-- {
 &#160;&#160;&#160;provide: NG_VALUE_ACCESSOR, useExisting: Radio, multi: true
}&#45;&gt;Radio -->
<g id="edge2" class="edge">
<title>{
 &#160;&#160;&#160;provide: NG_VALUE_ACCESSOR, useExisting: Radio, multi: true
}&#45;&gt;Radio</title>
<path fill="none" stroke="#000000" d="M704.9772,-143.4897C704.9772,-143.4897 704.9772,-187.3656 704.9772,-187.3656"/>
<polygon fill="#000000" stroke="#000000" points="701.4773,-187.3655 704.9772,-197.3656 708.4773,-187.3656 701.4773,-187.3655"/>
</g>
<!-- {
 &#160;&#160;&#160;provide: NG_VALUE_ACCESSOR, useExisting: RadioGroup, multi: true
} -->
<g id="node5" class="node">
<title>{
 &#160;&#160;&#160;provide: NG_VALUE_ACCESSOR, useExisting: RadioGroup, multi: true
}</title>
<ellipse fill="#fdb462" stroke="#000000" cx="341" cy="-127.295" rx="317.1737" ry="41.0911"/>
<text text-anchor="middle" x="341" y="-139.895" font-family="Times,serif" font-size="14.00" fill="#000000">{</text>
<text text-anchor="middle" x="341" y="-123.095" font-family="Times,serif" font-size="14.00" fill="#000000"> &#160;&#160;&#160;provide: NG_VALUE_ACCESSOR, useExisting: RadioGroup, multi: true</text>
<text text-anchor="middle" x="341" y="-106.295" font-family="Times,serif" font-size="14.00" fill="#000000">}</text>
</g>
<!-- {
 &#160;&#160;&#160;provide: NG_VALUE_ACCESSOR, useExisting: RadioGroup, multi: true
}&#45;&gt;RadioGroup -->
<g id="edge4" class="edge">
<title>{
 &#160;&#160;&#160;provide: NG_VALUE_ACCESSOR, useExisting: RadioGroup, multi: true
}&#45;&gt;RadioGroup</title>
<path fill="none" stroke="#000000" d="M613,-148.6688C613,-148.6688 613,-187.3957 613,-187.3957"/>
<polygon fill="#000000" stroke="#000000" points="609.5001,-187.3956 613,-197.3957 616.5001,-187.3957 609.5001,-187.3956"/>
</g>
</g>
</svg>
