<?xml version="1.0" encoding="UTF-8" standalone="no"?>
<!DOCTYPE svg PUBLIC "-//W3C//DTD SVG 1.1//EN"
 "http://www.w3.org/Graphics/SVG/1.1/DTD/svg11.dtd">
<!-- Generated by graphviz version 2.47.0 (20210316.0004)
 -->
<!-- Title: dependencies Pages: 1 -->
<svg width="830pt" height="396pt"
 viewBox="0.00 0.00 830.00 395.59" xmlns="http://www.w3.org/2000/svg" xmlns:xlink="http://www.w3.org/1999/xlink">
<g id="graph0" class="graph" transform="scale(1 1) rotate(0) translate(4 391.59)">
<title>dependencies</title>
<polygon fill="white" stroke="transparent" points="-4,4 -4,-391.59 826,-391.59 826,4 -4,4"/>
<text text-anchor="start" x="390.01" y="-42.4" font-family="Times-12" font-weight="bold" font-size="14.00">Legend</text>
<polygon fill="#ffffb3" stroke="transparent" points="177,-10 177,-30 197,-30 197,-10 177,-10"/>
<text text-anchor="start" x="200.63" y="-15.4" font-family="Times-12" font-size="14.00"> &#160;Declarations</text>
<polygon fill="#8dd3c7" stroke="transparent" points="290,-10 290,-30 310,-30 310,-10 290,-10"/>
<text text-anchor="start" x="313.73" y="-15.4" font-family="Times-12" font-size="14.00"> &#160;Module</text>
<polygon fill="#80b1d3" stroke="transparent" points="376,-10 376,-30 396,-30 396,-10 376,-10"/>
<text text-anchor="start" x="399.78" y="-15.4" font-family="Times-12" font-size="14.00"> &#160;Bootstrap</text>
<polygon fill="#fdb462" stroke="transparent" points="473,-10 473,-30 493,-30 493,-10 473,-10"/>
<text text-anchor="start" x="496.67" y="-15.4" font-family="Times-12" font-size="14.00"> &#160;Providers</text>
<polygon fill="#fb8072" stroke="transparent" points="569,-10 569,-30 589,-30 589,-10 569,-10"/>
<text text-anchor="start" x="592.73" y="-15.4" font-family="Times-12" font-size="14.00"> &#160;Exports</text>
<g id="clust1" class="cluster">
<title>cluster_DatePickerInputModule</title>
<polygon fill="none" stroke="black" stroke-dasharray="1,5" points="8,-70 8,-379.59 814,-379.59 814,-70 8,-70"/>
</g>
<g id="clust5" class="cluster">
<title>cluster_DatePickerInputModule_exports</title>
<polygon fill="none" stroke="black" points="75,-319.59 75,-371.59 203,-371.59 203,-319.59 75,-319.59"/>
</g>
<g id="clust3" class="cluster">
<title>cluster_DatePickerInputModule_DatePickerInput_providers</title>
<polygon fill="none" stroke="black" points="124,-78 124,-241.59 806,-241.59 806,-78 124,-78"/>
</g>
<g id="clust4" class="cluster">
<title>cluster_DatePickerInputModule_imports</title>
<polygon fill="none" stroke="black" points="16,-189.59 16,-241.59 116,-241.59 116,-189.59 16,-189.59"/>
</g>
<!-- DatePickerInput -->
<g id="node1" class="node">
<title>DatePickerInput</title>
<polygon fill="#ffffb3" stroke="black" points="378.74,-233.59 271.26,-233.59 271.26,-197.59 378.74,-197.59 378.74,-233.59"/>
<text text-anchor="middle" x="325" y="-211.39" font-family="Times,serif" font-size="14.00">DatePickerInput</text>
</g>
<!-- DatePickerInputModule -->
<g id="node2" class="node">
<title>DatePickerInputModule</title>
<polygon fill="#8dd3c7" stroke="black" points="214.79,-298.59 211.79,-302.59 190.79,-302.59 187.79,-298.59 63.21,-298.59 63.21,-262.59 214.79,-262.59 214.79,-298.59"/>
<text text-anchor="middle" x="139" y="-276.39" font-family="Times,serif" font-size="14.00">DatePickerInputModule</text>
</g>
<!-- DatePickerInput&#45;&gt;DatePickerInputModule -->
<g id="edge1" class="edge">
<title>DatePickerInput&#45;&gt;DatePickerInputModule</title>
<path fill="none" stroke="black" d="M271.05,-215.59C227.41,-215.59 173.19,-215.59 173.19,-215.59 173.19,-215.59 173.19,-252.48 173.19,-252.48"/>
<polygon fill="black" stroke="black" points="169.69,-252.48 173.19,-262.48 176.69,-252.48 169.69,-252.48"/>
</g>
<!-- DatePickerInput  -->
<g id="node5" class="node">
<title>DatePickerInput </title>
<polygon fill="#fb8072" stroke="black" points="194.74,-363.59 83.26,-363.59 83.26,-327.59 194.74,-327.59 194.74,-363.59"/>
<text text-anchor="middle" x="139" y="-341.39" font-family="Times,serif" font-size="14.00">DatePickerInput </text>
</g>
<!-- DatePickerInputModule&#45;&gt;DatePickerInput  -->
<g id="edge4" class="edge">
<title>DatePickerInputModule&#45;&gt;DatePickerInput </title>
<path fill="none" stroke="black" stroke-dasharray="5,2" d="M139,-298.7C139,-298.7 139,-317.58 139,-317.58"/>
<polygon fill="black" stroke="black" points="135.5,-317.58 139,-327.58 142.5,-317.58 135.5,-317.58"/>
</g>
<!-- {
 &#160;&#160;&#160;provide: NG_VALUE_ACCESSOR, useExisting: DatePickerInput, multi: true
} -->
<g id="node3" class="node">
<title>{
 &#160;&#160;&#160;provide: NG_VALUE_ACCESSOR, useExisting: DatePickerInput, multi: true
}</title>
<ellipse fill="#fdb462" stroke="black" cx="465" cy="-127.3" rx="333.04" ry="41.09"/>
<text text-anchor="middle" x="465" y="-139.9" font-family="Times,serif" font-size="14.00">{</text>
<text text-anchor="middle" x="465" y="-123.1" font-family="Times,serif" font-size="14.00"> &#160;&#160;&#160;provide: NG_VALUE_ACCESSOR, useExisting: DatePickerInput, multi: true</text>
<text text-anchor="middle" x="465" y="-106.3" font-family="Times,serif" font-size="14.00">}</text>
</g>
<!-- {
 &#160;&#160;&#160;provide: NG_VALUE_ACCESSOR, useExisting: DatePickerInput, multi: true
}&#45;&gt;DatePickerInput -->
<g id="edge2" class="edge">
<title>{
 &#160;&#160;&#160;provide: NG_VALUE_ACCESSOR, useExisting: DatePickerInput, multi: true
}&#45;&gt;DatePickerInput</title>
<path fill="none" stroke="black" d="M325,-165C325,-165 325,-187.45 325,-187.45"/>
<polygon fill="black" stroke="black" points="321.5,-187.45 325,-197.45 328.5,-187.45 321.5,-187.45"/>
</g>
<!-- IconModule -->
<g id="node4" class="node">
<title>IconModule</title>
<polygon fill="#8dd3c7" stroke="black" points="108.43,-233.59 105.43,-237.59 84.43,-237.59 81.43,-233.59 23.57,-233.59 23.57,-197.59 108.43,-197.59 108.43,-233.59"/>
<text text-anchor="middle" x="66" y="-211.39" font-family="Times,serif" font-size="14.00">IconModule</text>
</g>
<!-- IconModule&#45;&gt;DatePickerInputModule -->
<g id="edge3" class="edge">
<title>IconModule&#45;&gt;DatePickerInputModule</title>
<path fill="none" stroke="black" d="M85.78,-233.7C85.78,-233.7 85.78,-252.58 85.78,-252.58"/>
<polygon fill="black" stroke="black" points="82.28,-252.58 85.78,-262.58 89.28,-252.58 82.28,-252.58"/>
</g>
</g>
</svg>
