<?xml version="1.0" encoding="UTF-8" standalone="no"?>
<!DOCTYPE svg PUBLIC "-//W3C//DTD SVG 1.1//EN"
 "http://www.w3.org/Graphics/SVG/1.1/DTD/svg11.dtd">
<!-- Generated by graphviz version 2.47.0 (20210316.0004)
 -->
<!-- Title: dependencies Pages: 1 -->
<svg width="802pt" height="284pt"
 viewBox="0.00 0.00 802.00 284.00" xmlns="http://www.w3.org/2000/svg" xmlns:xlink="http://www.w3.org/1999/xlink">
<g id="graph0" class="graph" transform="scale(1 1) rotate(0) translate(4 280)">
<title>dependencies</title>
<polygon fill="white" stroke="transparent" points="-4,4 -4,-280 798,-280 798,4 -4,4"/>
<text text-anchor="start" x="376.01" y="-42.4" font-family="Times-12" font-weight="bold" font-size="14.00">Legend</text>
<polygon fill="#ffffb3" stroke="transparent" points="163,-10 163,-30 183,-30 183,-10 163,-10"/>
<text text-anchor="start" x="186.63" y="-15.4" font-family="Times-12" font-size="14.00"> &#160;Declarations</text>
<polygon fill="#8dd3c7" stroke="transparent" points="276,-10 276,-30 296,-30 296,-10 276,-10"/>
<text text-anchor="start" x="299.73" y="-15.4" font-family="Times-12" font-size="14.00"> &#160;Module</text>
<polygon fill="#80b1d3" stroke="transparent" points="362,-10 362,-30 382,-30 382,-10 362,-10"/>
<text text-anchor="start" x="385.78" y="-15.4" font-family="Times-12" font-size="14.00"> &#160;Bootstrap</text>
<polygon fill="#fdb462" stroke="transparent" points="459,-10 459,-30 479,-30 479,-10 459,-10"/>
<text text-anchor="start" x="482.67" y="-15.4" font-family="Times-12" font-size="14.00"> &#160;Providers</text>
<polygon fill="#fb8072" stroke="transparent" points="555,-10 555,-30 575,-30 575,-10 555,-10"/>
<text text-anchor="start" x="578.73" y="-15.4" font-family="Times-12" font-size="14.00"> &#160;Exports</text>
<g id="clust1" class="cluster">
<title>cluster_TagModule</title>
<polygon fill="none" stroke="black" stroke-dasharray="1,5" points="8,-70 8,-268 786,-268 786,-70 8,-70"/>
</g>
<g id="clust8" class="cluster">
<title>cluster_TagModule_imports</title>
<polygon fill="none" stroke="black" points="678,-78 678,-130 778,-130 778,-78 678,-78"/>
</g>
<g id="clust2" class="cluster">
<title>cluster_TagModule_declarations</title>
<polygon fill="none" stroke="black" points="16,-78 16,-130 670,-130 670,-78 16,-78"/>
</g>
<g id="clust9" class="cluster">
<title>cluster_TagModule_exports</title>
<polygon fill="none" stroke="black" points="63,-208 63,-260 731,-260 731,-208 63,-208"/>
</g>
<!-- Tag -->
<g id="node1" class="node">
<title>Tag</title>
<polygon fill="#ffffb3" stroke="black" points="662,-122 608,-122 608,-86 662,-86 662,-122"/>
<text text-anchor="middle" x="635" y="-99.8" font-family="Times,serif" font-size="14.00">Tag</text>
</g>
<!-- TagModule -->
<g id="node6" class="node">
<title>TagModule</title>
<polygon fill="#8dd3c7" stroke="black" points="542.82,-187 539.82,-191 518.82,-191 515.82,-187 461.18,-187 461.18,-151 542.82,-151 542.82,-187"/>
<text text-anchor="middle" x="502" y="-164.8" font-family="Times,serif" font-size="14.00">TagModule</text>
</g>
<!-- Tag&#45;&gt;TagModule -->
<g id="edge1" class="edge">
<title>Tag&#45;&gt;TagModule</title>
<path fill="none" stroke="black" d="M629.4,-122.01C629.4,-138.05 629.4,-159 629.4,-159 629.4,-159 552.66,-159 552.66,-159"/>
<polygon fill="black" stroke="black" points="552.66,-155.5 542.66,-159 552.66,-162.5 552.66,-155.5"/>
</g>
<!-- TagFilter -->
<g id="node2" class="node">
<title>TagFilter</title>
<polygon fill="#ffffb3" stroke="black" points="590.1,-122 521.9,-122 521.9,-86 590.1,-86 590.1,-122"/>
<text text-anchor="middle" x="556" y="-99.8" font-family="Times,serif" font-size="14.00">TagFilter</text>
</g>
<!-- TagFilter&#45;&gt;TagModule -->
<g id="edge2" class="edge">
<title>TagFilter&#45;&gt;TagModule</title>
<path fill="none" stroke="black" d="M532.31,-122.11C532.31,-122.11 532.31,-140.99 532.31,-140.99"/>
<polygon fill="black" stroke="black" points="528.81,-140.99 532.31,-150.99 535.81,-140.99 528.81,-140.99"/>
</g>
<!-- TagIconDirective -->
<g id="node3" class="node">
<title>TagIconDirective</title>
<polygon fill="#ffffb3" stroke="black" points="504.23,-122 389.77,-122 389.77,-86 504.23,-86 504.23,-122"/>
<text text-anchor="middle" x="447" y="-99.8" font-family="Times,serif" font-size="14.00">TagIconDirective</text>
</g>
<!-- TagIconDirective&#45;&gt;TagModule -->
<g id="edge3" class="edge">
<title>TagIconDirective&#45;&gt;TagModule</title>
<path fill="none" stroke="black" d="M482.85,-122.11C482.85,-122.11 482.85,-140.99 482.85,-140.99"/>
<polygon fill="black" stroke="black" points="479.35,-140.99 482.85,-150.99 486.35,-140.99 479.35,-140.99"/>
</g>
<!-- TagOperationalComponent -->
<g id="node4" class="node">
<title>TagOperationalComponent</title>
<polygon fill="#ffffb3" stroke="black" points="371.68,-122 202.32,-122 202.32,-86 371.68,-86 371.68,-122"/>
<text text-anchor="middle" x="287" y="-99.8" font-family="Times,serif" font-size="14.00">TagOperationalComponent</text>
</g>
<!-- TagOperationalComponent&#45;&gt;TagModule -->
<g id="edge4" class="edge">
<title>TagOperationalComponent&#45;&gt;TagModule</title>
<path fill="none" stroke="black" d="M312.12,-122.01C312.12,-138.05 312.12,-159 312.12,-159 312.12,-159 451.27,-159 451.27,-159"/>
<polygon fill="black" stroke="black" points="451.27,-162.5 461.27,-159 451.27,-155.5 451.27,-162.5"/>
</g>
<!-- TagSelectableComponent -->
<g id="node5" class="node">
<title>TagSelectableComponent</title>
<polygon fill="#ffffb3" stroke="black" points="184.13,-122 23.87,-122 23.87,-86 184.13,-86 184.13,-122"/>
<text text-anchor="middle" x="104" y="-99.8" font-family="Times,serif" font-size="14.00">TagSelectableComponent</text>
</g>
<!-- TagSelectableComponent&#45;&gt;TagModule -->
<g id="edge5" class="edge">
<title>TagSelectableComponent&#45;&gt;TagModule</title>
<path fill="none" stroke="black" d="M127.62,-122.27C127.62,-140.56 127.62,-166 127.62,-166 127.62,-166 451.22,-166 451.22,-166"/>
<polygon fill="black" stroke="black" points="451.22,-169.5 461.22,-166 451.22,-162.5 451.22,-169.5"/>
</g>
<!-- Tag  -->
<g id="node8" class="node">
<title>Tag </title>
<polygon fill="#fb8072" stroke="black" points="723,-252 669,-252 669,-216 723,-216 723,-252"/>
<text text-anchor="middle" x="696" y="-229.8" font-family="Times,serif" font-size="14.00">Tag </text>
</g>
<!-- TagModule&#45;&gt;Tag  -->
<g id="edge7" class="edge">
<title>TagModule&#45;&gt;Tag </title>
<path fill="none" stroke="black" stroke-dasharray="5,2" d="M542.68,-173C594.49,-173 677.39,-173 677.39,-173 677.39,-173 677.39,-205.7 677.39,-205.7"/>
<polygon fill="black" stroke="black" points="673.89,-205.7 677.39,-215.7 680.89,-205.7 673.89,-205.7"/>
</g>
<!-- TagFilter  -->
<g id="node9" class="node">
<title>TagFilter </title>
<polygon fill="#fb8072" stroke="black" points="650.6,-252 579.4,-252 579.4,-216 650.6,-216 650.6,-252"/>
<text text-anchor="middle" x="615" y="-229.8" font-family="Times,serif" font-size="14.00">TagFilter </text>
</g>
<!-- TagModule&#45;&gt;TagFilter  -->
<g id="edge8" class="edge">
<title>TagModule&#45;&gt;TagFilter </title>
<path fill="none" stroke="black" stroke-dasharray="5,2" d="M542.83,-180C563.64,-180 584.62,-180 584.62,-180 584.62,-180 584.62,-205.72 584.62,-205.72"/>
<polygon fill="black" stroke="black" points="581.13,-205.72 584.62,-215.72 588.13,-205.72 581.13,-205.72"/>
</g>
<!-- TagIconDirective  -->
<g id="node10" class="node">
<title>TagIconDirective </title>
<polygon fill="#fb8072" stroke="black" points="561.23,-252 442.77,-252 442.77,-216 561.23,-216 561.23,-252"/>
<text text-anchor="middle" x="502" y="-229.8" font-family="Times,serif" font-size="14.00">TagIconDirective </text>
</g>
<!-- TagModule&#45;&gt;TagIconDirective  -->
<g id="edge9" class="edge">
<title>TagModule&#45;&gt;TagIconDirective </title>
<path fill="none" stroke="black" stroke-dasharray="5,2" d="M502,-187.11C502,-187.11 502,-205.99 502,-205.99"/>
<polygon fill="black" stroke="black" points="498.5,-205.99 502,-215.99 505.5,-205.99 498.5,-205.99"/>
</g>
<!-- TagOperationalComponent  -->
<g id="node11" class="node">
<title>TagOperationalComponent </title>
<polygon fill="#fb8072" stroke="black" points="425.18,-252 252.82,-252 252.82,-216 425.18,-216 425.18,-252"/>
<text text-anchor="middle" x="339" y="-229.8" font-family="Times,serif" font-size="14.00">TagOperationalComponent </text>
</g>
<!-- TagModule&#45;&gt;TagOperationalComponent  -->
<g id="edge10" class="edge">
<title>TagModule&#45;&gt;TagOperationalComponent </title>
<path fill="none" stroke="black" stroke-dasharray="5,2" d="M461.1,-180C435.55,-180 407.49,-180 407.49,-180 407.49,-180 407.49,-205.72 407.49,-205.72"/>
<polygon fill="black" stroke="black" points="403.99,-205.72 407.49,-215.72 410.99,-205.72 403.99,-205.72"/>
</g>
<!-- TagSelectableComponent  -->
<g id="node12" class="node">
<title>TagSelectableComponent </title>
<polygon fill="#fb8072" stroke="black" points="235.13,-252 70.87,-252 70.87,-216 235.13,-216 235.13,-252"/>
<text text-anchor="middle" x="153" y="-229.8" font-family="Times,serif" font-size="14.00">TagSelectableComponent </text>
</g>
<!-- TagModule&#45;&gt;TagSelectableComponent  -->
<g id="edge11" class="edge">
<title>TagModule&#45;&gt;TagSelectableComponent </title>
<path fill="none" stroke="black" stroke-dasharray="5,2" d="M461.11,-173C382.67,-173 218.74,-173 218.74,-173 218.74,-173 218.74,-205.7 218.74,-205.7"/>
<polygon fill="black" stroke="black" points="215.24,-205.7 218.74,-215.7 222.24,-205.7 215.24,-205.7"/>
</g>
<!-- IconModule -->
<g id="node7" class="node">
<title>IconModule</title>
<polygon fill="#8dd3c7" stroke="black" points="770.43,-122 767.43,-126 746.43,-126 743.43,-122 685.57,-122 685.57,-86 770.43,-86 770.43,-122"/>
<text text-anchor="middle" x="728" y="-99.8" font-family="Times,serif" font-size="14.00">IconModule</text>
</g>
<!-- IconModule&#45;&gt;TagModule -->
<g id="edge6" class="edge">
<title>IconModule&#45;&gt;TagModule</title>
<path fill="none" stroke="black" d="M704.39,-122.27C704.39,-140.56 704.39,-166 704.39,-166 704.39,-166 552.96,-166 552.96,-166"/>
<polygon fill="black" stroke="black" points="552.96,-162.5 542.96,-166 552.96,-169.5 552.96,-162.5"/>
</g>
</g>
</svg>
