<?xml version="1.0" encoding="UTF-8" standalone="no"?>
<!DOCTYPE svg PUBLIC "-//W3C//DTD SVG 1.1//EN"
 "http://www.w3.org/Graphics/SVG/1.1/DTD/svg11.dtd">
<!-- Generated by graphviz version 2.47.0 (20210316.0004)
 -->
<!-- Title: dependencies Pages: 1 -->
<svg width="504pt" height="284pt"
 viewBox="0.00 0.00 504.00 284.00" xmlns="http://www.w3.org/2000/svg" xmlns:xlink="http://www.w3.org/1999/xlink">
<g id="graph0" class="graph" transform="scale(1 1) rotate(0) translate(4 280)">
<title>dependencies</title>
<polygon fill="white" stroke="transparent" points="-4,4 -4,-280 500,-280 500,4 -4,4"/>
<text text-anchor="start" x="227.01" y="-42.4" font-family="Times-12" font-weight="bold" font-size="14.00">Legend</text>
<polygon fill="#ffffb3" stroke="transparent" points="14,-10 14,-30 34,-30 34,-10 14,-10"/>
<text text-anchor="start" x="37.63" y="-15.4" font-family="Times-12" font-size="14.00"> &#160;Declarations</text>
<polygon fill="#8dd3c7" stroke="transparent" points="127,-10 127,-30 147,-30 147,-10 127,-10"/>
<text text-anchor="start" x="150.73" y="-15.4" font-family="Times-12" font-size="14.00"> &#160;Module</text>
<polygon fill="#80b1d3" stroke="transparent" points="213,-10 213,-30 233,-30 233,-10 213,-10"/>
<text text-anchor="start" x="236.78" y="-15.4" font-family="Times-12" font-size="14.00"> &#160;Bootstrap</text>
<polygon fill="#fdb462" stroke="transparent" points="310,-10 310,-30 330,-30 330,-10 310,-10"/>
<text text-anchor="start" x="333.67" y="-15.4" font-family="Times-12" font-size="14.00"> &#160;Providers</text>
<polygon fill="#fb8072" stroke="transparent" points="406,-10 406,-30 426,-30 426,-10 406,-10"/>
<text text-anchor="start" x="429.73" y="-15.4" font-family="Times-12" font-size="14.00"> &#160;Exports</text>
<g id="clust1" class="cluster">
<title>cluster_TagModule</title>
<polygon fill="none" stroke="black" stroke-dasharray="1,5" points="108,-70 108,-268 388,-268 388,-70 108,-70"/>
</g>
<g id="clust5" class="cluster">
<title>cluster_TagModule_imports</title>
<polygon fill="none" stroke="black" points="280,-78 280,-130 380,-130 380,-78 280,-78"/>
</g>
<g id="clust2" class="cluster">
<title>cluster_TagModule_declarations</title>
<polygon fill="none" stroke="black" points="116,-78 116,-130 272,-130 272,-78 116,-78"/>
</g>
<g id="clust6" class="cluster">
<title>cluster_TagModule_exports</title>
<polygon fill="none" stroke="black" points="155,-208 155,-260 315,-260 315,-208 155,-208"/>
</g>
<!-- Tag -->
<g id="node1" class="node">
<title>Tag</title>
<polygon fill="#ffffb3" stroke="black" points="264,-122 210,-122 210,-86 264,-86 264,-122"/>
<text text-anchor="middle" x="237" y="-99.8" font-family="Times,serif" font-size="14.00">Tag</text>
</g>
<!-- TagModule -->
<g id="node3" class="node">
<title>TagModule</title>
<polygon fill="#8dd3c7" stroke="black" points="277.82,-187 274.82,-191 253.82,-191 250.82,-187 196.18,-187 196.18,-151 277.82,-151 277.82,-187"/>
<text text-anchor="middle" x="237" y="-164.8" font-family="Times,serif" font-size="14.00">TagModule</text>
</g>
<!-- Tag&#45;&gt;TagModule -->
<g id="edge1" class="edge">
<title>Tag&#45;&gt;TagModule</title>
<path fill="none" stroke="black" d="M237,-122.11C237,-122.11 237,-140.99 237,-140.99"/>
<polygon fill="black" stroke="black" points="233.5,-140.99 237,-150.99 240.5,-140.99 233.5,-140.99"/>
</g>
<!-- TagFilter -->
<g id="node2" class="node">
<title>TagFilter</title>
<polygon fill="#ffffb3" stroke="black" points="192.1,-122 123.9,-122 123.9,-86 192.1,-86 192.1,-122"/>
<text text-anchor="middle" x="158" y="-99.8" font-family="Times,serif" font-size="14.00">TagFilter</text>
</g>
<!-- TagFilter&#45;&gt;TagModule -->
<g id="edge2" class="edge">
<title>TagFilter&#45;&gt;TagModule</title>
<path fill="none" stroke="black" d="M192.24,-104C198.54,-104 203.17,-104 203.17,-104 203.17,-104 203.17,-140.89 203.17,-140.89"/>
<polygon fill="black" stroke="black" points="199.67,-140.89 203.17,-150.89 206.67,-140.89 199.67,-140.89"/>
</g>
<!-- Tag  -->
<g id="node5" class="node">
<title>Tag </title>
<polygon fill="#fb8072" stroke="black" points="307,-252 253,-252 253,-216 307,-216 307,-252"/>
<text text-anchor="middle" x="280" y="-229.8" font-family="Times,serif" font-size="14.00">Tag </text>
</g>
<!-- TagModule&#45;&gt;Tag  -->
<g id="edge4" class="edge">
<title>TagModule&#45;&gt;Tag </title>
<path fill="none" stroke="black" stroke-dasharray="5,2" d="M265.33,-187.11C265.33,-187.11 265.33,-205.99 265.33,-205.99"/>
<polygon fill="black" stroke="black" points="261.83,-205.99 265.33,-215.99 268.83,-205.99 261.83,-205.99"/>
</g>
<!-- TagFilter  -->
<g id="node6" class="node">
<title>TagFilter </title>
<polygon fill="#fb8072" stroke="black" points="234.6,-252 163.4,-252 163.4,-216 234.6,-216 234.6,-252"/>
<text text-anchor="middle" x="199" y="-229.8" font-family="Times,serif" font-size="14.00">TagFilter </text>
</g>
<!-- TagModule&#45;&gt;TagFilter  -->
<g id="edge5" class="edge">
<title>TagModule&#45;&gt;TagFilter </title>
<path fill="none" stroke="black" stroke-dasharray="5,2" d="M215.57,-187.11C215.57,-187.11 215.57,-205.99 215.57,-205.99"/>
<polygon fill="black" stroke="black" points="212.07,-205.99 215.57,-215.99 219.07,-205.99 212.07,-205.99"/>
</g>
<!-- IconModule -->
<g id="node4" class="node">
<title>IconModule</title>
<polygon fill="#8dd3c7" stroke="black" points="372.43,-122 369.43,-126 348.43,-126 345.43,-122 287.57,-122 287.57,-86 372.43,-86 372.43,-122"/>
<text text-anchor="middle" x="330" y="-99.8" font-family="Times,serif" font-size="14.00">IconModule</text>
</g>
<!-- IconModule&#45;&gt;TagModule -->
<g id="edge3" class="edge">
<title>IconModule&#45;&gt;TagModule</title>
<path fill="none" stroke="black" d="M287.63,-104C278.14,-104 270.83,-104 270.83,-104 270.83,-104 270.83,-140.89 270.83,-140.89"/>
<polygon fill="black" stroke="black" points="267.33,-140.89 270.83,-150.89 274.33,-140.89 267.33,-140.89"/>
</g>
</g>
</svg>
