<?xml version="1.0" encoding="UTF-8" standalone="no"?>
<!DOCTYPE svg PUBLIC "-//W3C//DTD SVG 1.1//EN"
 "http://www.w3.org/Graphics/SVG/1.1/DTD/svg11.dtd">
<!-- Generated by graphviz version 2.47.0 (20210316.0004)
 -->
<!-- Title: dependencies Pages: 1 -->
<svg width="504pt" height="284pt"
 viewBox="0.00 0.00 504.00 284.00" xmlns="http://www.w3.org/2000/svg" xmlns:xlink="http://www.w3.org/1999/xlink">
<g id="graph0" class="graph" transform="scale(1 1) rotate(0) translate(4 280)">
<title>dependencies</title>
<polygon fill="white" stroke="transparent" points="-4,4 -4,-280 500,-280 500,4 -4,4"/>
<text text-anchor="start" x="227.01" y="-42.4" font-family="Times-12" font-weight="bold" font-size="14.00">Legend</text>
<polygon fill="#ffffb3" stroke="transparent" points="14,-10 14,-30 34,-30 34,-10 14,-10"/>
<text text-anchor="start" x="37.63" y="-15.4" font-family="Times-12" font-size="14.00"> &#160;Declarations</text>
<polygon fill="#8dd3c7" stroke="transparent" points="127,-10 127,-30 147,-30 147,-10 127,-10"/>
<text text-anchor="start" x="150.73" y="-15.4" font-family="Times-12" font-size="14.00"> &#160;Module</text>
<polygon fill="#80b1d3" stroke="transparent" points="213,-10 213,-30 233,-30 233,-10 213,-10"/>
<text text-anchor="start" x="236.78" y="-15.4" font-family="Times-12" font-size="14.00"> &#160;Bootstrap</text>
<polygon fill="#fdb462" stroke="transparent" points="310,-10 310,-30 330,-30 330,-10 310,-10"/>
<text text-anchor="start" x="333.67" y="-15.4" font-family="Times-12" font-size="14.00"> &#160;Providers</text>
<polygon fill="#fb8072" stroke="transparent" points="406,-10 406,-30 426,-30 426,-10 406,-10"/>
<text text-anchor="start" x="429.73" y="-15.4" font-family="Times-12" font-size="14.00"> &#160;Exports</text>
<g id="clust1" class="cluster">
<title>cluster_TagModule</title>
<polygon fill="none" stroke="black" stroke-dasharray="1,5" points="108,-70 108,-268 388,-268 388,-70 108,-70"/>
</g>
<g id="clust6" class="cluster">
<title>cluster_TagModule_exports</title>
<polygon fill="none" stroke="black" points="181,-208 181,-260 341,-260 341,-208 181,-208"/>
</g>
<g id="clust2" class="cluster">
<title>cluster_TagModule_declarations</title>
<polygon fill="none" stroke="black" points="224,-78 224,-130 380,-130 380,-78 224,-78"/>
</g>
<g id="clust5" class="cluster">
<title>cluster_TagModule_imports</title>
<polygon fill="none" stroke="black" points="116,-78 116,-130 216,-130 216,-78 116,-78"/>
</g>
<!-- Tag -->
<g id="node1" class="node">
<title>Tag</title>
<polygon fill="#ffffb3" stroke="black" points="372,-122 318,-122 318,-86 372,-86 372,-122"/>
<text text-anchor="middle" x="345" y="-99.8" font-family="Times,serif" font-size="14.00">Tag</text>
</g>
<!-- TagModule -->
<g id="node3" class="node">
<title>TagModule</title>
<polygon fill="#8dd3c7" stroke="black" points="306.82,-187 303.82,-191 282.82,-191 279.82,-187 225.18,-187 225.18,-151 306.82,-151 306.82,-187"/>
<text text-anchor="middle" x="266" y="-164.8" font-family="Times,serif" font-size="14.00">TagModule</text>
</g>
<!-- Tag&#45;&gt;TagModule -->
<g id="edge1" class="edge">
<title>Tag&#45;&gt;TagModule</title>
<path fill="none" stroke="black" d="M325.5,-122.11C325.5,-141.34 325.5,-169 325.5,-169 325.5,-169 316.67,-169 316.67,-169"/>
<polygon fill="black" stroke="black" points="316.67,-165.5 306.67,-169 316.67,-172.5 316.67,-165.5"/>
</g>
<!-- TagFilter -->
<g id="node2" class="node">
<title>TagFilter</title>
<polygon fill="#ffffb3" stroke="black" points="300.1,-122 231.9,-122 231.9,-86 300.1,-86 300.1,-122"/>
<text text-anchor="middle" x="266" y="-99.8" font-family="Times,serif" font-size="14.00">TagFilter</text>
</g>
<!-- TagFilter&#45;&gt;TagModule -->
<g id="edge2" class="edge">
<title>TagFilter&#45;&gt;TagModule</title>
<path fill="none" stroke="black" d="M266,-122.11C266,-122.11 266,-140.99 266,-140.99"/>
<polygon fill="black" stroke="black" points="262.5,-140.99 266,-150.99 269.5,-140.99 262.5,-140.99"/>
</g>
<!-- Tag  -->
<g id="node5" class="node">
<title>Tag </title>
<polygon fill="#fb8072" stroke="black" points="333,-252 279,-252 279,-216 333,-216 333,-252"/>
<text text-anchor="middle" x="306" y="-229.8" font-family="Times,serif" font-size="14.00">Tag </text>
</g>
<!-- TagModule&#45;&gt;Tag  -->
<g id="edge4" class="edge">
<title>TagModule&#45;&gt;Tag </title>
<path fill="none" stroke="black" stroke-dasharray="5,2" d="M292.83,-187.11C292.83,-187.11 292.83,-205.99 292.83,-205.99"/>
<polygon fill="black" stroke="black" points="289.33,-205.99 292.83,-215.99 296.33,-205.99 289.33,-205.99"/>
</g>
<!-- TagFilter  -->
<g id="node6" class="node">
<title>TagFilter </title>
<polygon fill="#fb8072" stroke="black" points="260.6,-252 189.4,-252 189.4,-216 260.6,-216 260.6,-252"/>
<text text-anchor="middle" x="225" y="-229.8" font-family="Times,serif" font-size="14.00">TagFilter </text>
</g>
<!-- TagModule&#45;&gt;TagFilter  -->
<g id="edge5" class="edge">
<title>TagModule&#45;&gt;TagFilter </title>
<path fill="none" stroke="black" stroke-dasharray="5,2" d="M243.07,-187.11C243.07,-187.11 243.07,-205.99 243.07,-205.99"/>
<polygon fill="black" stroke="black" points="239.57,-205.99 243.07,-215.99 246.57,-205.99 239.57,-205.99"/>
</g>
<!-- IconModule -->
<g id="node4" class="node">
<title>IconModule</title>
<polygon fill="#8dd3c7" stroke="black" points="208.43,-122 205.43,-126 184.43,-126 181.43,-122 123.57,-122 123.57,-86 208.43,-86 208.43,-122"/>
<text text-anchor="middle" x="166" y="-99.8" font-family="Times,serif" font-size="14.00">IconModule</text>
</g>
<!-- IconModule&#45;&gt;TagModule -->
<g id="edge3" class="edge">
<title>IconModule&#45;&gt;TagModule</title>
<path fill="none" stroke="black" d="M198.71,-122.11C198.71,-141.34 198.71,-169 198.71,-169 198.71,-169 215.3,-169 215.3,-169"/>
<polygon fill="black" stroke="black" points="215.3,-172.5 225.3,-169 215.3,-165.5 215.3,-172.5"/>
</g>
</g>
</svg>
