<?xml version="1.0" encoding="UTF-8" standalone="no"?>
<!DOCTYPE svg PUBLIC "-//W3C//DTD SVG 1.1//EN"
 "http://www.w3.org/Graphics/SVG/1.1/DTD/svg11.dtd">
<!-- Generated by graphviz version 2.40.1 (20161225.0304)
 -->
<!-- Title: dependencies Pages: 1 -->
<svg width="642pt" height="284pt"
 viewBox="0.00 0.00 642.00 284.00" xmlns="http://www.w3.org/2000/svg" xmlns:xlink="http://www.w3.org/1999/xlink">
<g id="graph0" class="graph" transform="scale(1 1) rotate(0) translate(4 280)">
<title>dependencies</title>
<polygon fill="#ffffff" stroke="transparent" points="-4,4 -4,-280 638,-280 638,4 -4,4"/>
<text text-anchor="start" x="296.0091" y="-42.4" font-family="sans-serif" font-weight="bold" font-size="14.00" fill="#000000">Legend</text>
<polygon fill="#ffffb3" stroke="transparent" points="83,-10 83,-30 103,-30 103,-10 83,-10"/>
<text text-anchor="start" x="106.629" y="-15.4" font-family="sans-serif" font-size="14.00" fill="#000000"> &#160;Declarations</text>
<polygon fill="#8dd3c7" stroke="transparent" points="196,-10 196,-30 216,-30 216,-10 196,-10"/>
<text text-anchor="start" x="219.7251" y="-15.4" font-family="sans-serif" font-size="14.00" fill="#000000"> &#160;Module</text>
<polygon fill="#80b1d3" stroke="transparent" points="282,-10 282,-30 302,-30 302,-10 282,-10"/>
<text text-anchor="start" x="305.7812" y="-15.4" font-family="sans-serif" font-size="14.00" fill="#000000"> &#160;Bootstrap</text>
<polygon fill="#fdb462" stroke="transparent" points="379,-10 379,-30 399,-30 399,-10 379,-10"/>
<text text-anchor="start" x="402.6732" y="-15.4" font-family="sans-serif" font-size="14.00" fill="#000000"> &#160;Providers</text>
<polygon fill="#fb8072" stroke="transparent" points="475,-10 475,-30 495,-30 495,-10 475,-10"/>
<text text-anchor="start" x="498.7258" y="-15.4" font-family="sans-serif" font-size="14.00" fill="#000000"> &#160;Exports</text>
<g id="clust1" class="cluster">
<title>cluster_NFormsModule</title>
<polygon fill="none" stroke="#000000" stroke-dasharray="1,5" points="8,-70 8,-268 626,-268 626,-70 8,-70"/>
</g>
<g id="clust3" class="cluster">
<title>cluster_NFormsModule_imports</title>
<polygon fill="none" stroke="#000000" points="26,-78 26,-130 609,-130 609,-78 26,-78"/>
</g>
<g id="clust4" class="cluster">
<title>cluster_NFormsModule_exports</title>
<polygon fill="none" stroke="#000000" points="16,-208 16,-260 618,-260 618,-208 16,-208"/>
</g>
<!-- CheckboxModule -->
<g id="node1" class="node">
<title>CheckboxModule</title>
<polygon fill="#8dd3c7" stroke="#000000" points="601.316,-122 598.316,-126 577.316,-126 574.316,-122 484.684,-122 484.684,-86 601.316,-86 601.316,-122"/>
<text text-anchor="middle" x="543" y="-99.8" font-family="Times,serif" font-size="14.00" fill="#000000">CheckboxModule</text>
</g>
<!-- NFormsModule -->
<g id="node6" class="node">
<title>NFormsModule</title>
<polygon fill="#8dd3c7" stroke="#000000" points="355.9357,-187 352.9357,-191 331.9357,-191 328.9357,-187 250.0643,-187 250.0643,-151 355.9357,-151 355.9357,-187"/>
<text text-anchor="middle" x="303" y="-164.8" font-family="Times,serif" font-size="14.00" fill="#000000">NFormsModule</text>
</g>
<!-- CheckboxModule&#45;&gt;NFormsModule -->
<g id="edge1" class="edge">
<title>CheckboxModule&#45;&gt;NFormsModule</title>
<path fill="none" stroke="#000000" d="M564.1359,-122.2667C564.1359,-140.5552 564.1359,-166 564.1359,-166 564.1359,-166 365.8448,-166 365.8448,-166"/>
<polygon fill="#000000" stroke="#000000" points="365.8448,-162.5001 355.8448,-166 365.8447,-169.5001 365.8448,-162.5001"/>
</g>
<!-- ToggleModule -->
<g id="node2" class="node">
<title>ToggleModule</title>
<polygon fill="#8dd3c7" stroke="#000000" points="466.7078,-122 463.7078,-126 442.7078,-126 439.7078,-122 367.2922,-122 367.2922,-86 466.7078,-86 466.7078,-122"/>
<text text-anchor="middle" x="417" y="-99.8" font-family="Times,serif" font-size="14.00" fill="#000000">ToggleModule</text>
</g>
<!-- ToggleModule&#45;&gt;NFormsModule -->
<g id="edge2" class="edge">
<title>ToggleModule&#45;&gt;NFormsModule</title>
<path fill="none" stroke="#000000" d="M434.2846,-122.0091C434.2846,-138.0494 434.2846,-159 434.2846,-159 434.2846,-159 366.02,-159 366.02,-159"/>
<polygon fill="#000000" stroke="#000000" points="366.0201,-155.5001 356.02,-159 366.02,-162.5001 366.0201,-155.5001"/>
</g>
<!-- RadioModule -->
<g id="node3" class="node">
<title>RadioModule</title>
<polygon fill="#8dd3c7" stroke="#000000" points="349.4916,-122 346.4916,-126 325.4916,-126 322.4916,-122 256.5084,-122 256.5084,-86 349.4916,-86 349.4916,-122"/>
<text text-anchor="middle" x="303" y="-99.8" font-family="Times,serif" font-size="14.00" fill="#000000">RadioModule</text>
</g>
<!-- RadioModule&#45;&gt;NFormsModule -->
<g id="edge3" class="edge">
<title>RadioModule&#45;&gt;NFormsModule</title>
<path fill="none" stroke="#000000" d="M303,-122.1061C303,-122.1061 303,-140.991 303,-140.991"/>
<polygon fill="#000000" stroke="#000000" points="299.5001,-140.9909 303,-150.991 306.5001,-140.991 299.5001,-140.9909"/>
</g>
<!-- InputModule -->
<g id="node4" class="node">
<title>InputModule</title>
<polygon fill="#8dd3c7" stroke="#000000" points="238.6011,-122 235.6011,-126 214.6011,-126 211.6011,-122 149.3989,-122 149.3989,-86 238.6011,-86 238.6011,-122"/>
<text text-anchor="middle" x="194" y="-99.8" font-family="Times,serif" font-size="14.00" fill="#000000">InputModule</text>
</g>
<!-- InputModule&#45;&gt;NFormsModule -->
<g id="edge4" class="edge">
<title>InputModule&#45;&gt;NFormsModule</title>
<path fill="none" stroke="#000000" d="M207.3502,-122.0091C207.3502,-138.0494 207.3502,-159 207.3502,-159 207.3502,-159 240.1394,-159 240.1394,-159"/>
<polygon fill="#000000" stroke="#000000" points="240.1394,-162.5001 250.1394,-159 240.1393,-155.5001 240.1394,-162.5001"/>
</g>
<!-- ButtonModule -->
<g id="node5" class="node">
<title>ButtonModule</title>
<polygon fill="#8dd3c7" stroke="#000000" points="131.6682,-122 128.6682,-126 107.6682,-126 104.6682,-122 34.3318,-122 34.3318,-86 131.6682,-86 131.6682,-122"/>
<text text-anchor="middle" x="83" y="-99.8" font-family="Times,serif" font-size="14.00" fill="#000000">ButtonModule</text>
</g>
<!-- ButtonModule&#45;&gt;NFormsModule -->
<g id="edge5" class="edge">
<title>ButtonModule&#45;&gt;NFormsModule</title>
<path fill="none" stroke="#000000" d="M95.1113,-122.2667C95.1113,-140.5552 95.1113,-166 95.1113,-166 95.1113,-166 240.2721,-166 240.2721,-166"/>
<polygon fill="#000000" stroke="#000000" points="240.2722,-169.5001 250.2721,-166 240.2721,-162.5001 240.2722,-169.5001"/>
</g>
<!-- CheckboxModule  -->
<g id="node7" class="node">
<title>CheckboxModule </title>
<polygon fill="#fb8072" stroke="#000000" points="609.8157,-252 490.1843,-252 490.1843,-216 609.8157,-216 609.8157,-252"/>
<text text-anchor="middle" x="550" y="-229.8" font-family="Times,serif" font-size="14.00" fill="#000000">CheckboxModule </text>
</g>
<!-- NFormsModule&#45;&gt;CheckboxModule  -->
<g id="edge6" class="edge">
<title>NFormsModule&#45;&gt;CheckboxModule </title>
<path fill="none" stroke="#000000" stroke-dasharray="5,2" d="M355.8281,-173C422.086,-173 527.1141,-173 527.1141,-173 527.1141,-173 527.1141,-205.698 527.1141,-205.698"/>
<polygon fill="#000000" stroke="#000000" points="523.6142,-205.698 527.1141,-215.698 530.6142,-205.698 523.6142,-205.698"/>
</g>
<!-- ToggleModule  -->
<g id="node8" class="node">
<title>ToggleModule </title>
<polygon fill="#fb8072" stroke="#000000" points="472.208,-252 369.792,-252 369.792,-216 472.208,-216 472.208,-252"/>
<text text-anchor="middle" x="421" y="-229.8" font-family="Times,serif" font-size="14.00" fill="#000000">ToggleModule </text>
</g>
<!-- NFormsModule&#45;&gt;ToggleModule  -->
<g id="edge7" class="edge">
<title>NFormsModule&#45;&gt;ToggleModule </title>
<path fill="none" stroke="#000000" stroke-dasharray="5,2" d="M355.9594,-180C379.4892,-180 401.9654,-180 401.9654,-180 401.9654,-180 401.9654,-205.7181 401.9654,-205.7181"/>
<polygon fill="#000000" stroke="#000000" points="398.4655,-205.718 401.9654,-215.7181 405.4655,-205.7181 398.4655,-205.718"/>
</g>
<!-- RadioModule  -->
<g id="node9" class="node">
<title>RadioModule </title>
<polygon fill="#fb8072" stroke="#000000" points="351.4929,-252 254.5071,-252 254.5071,-216 351.4929,-216 351.4929,-252"/>
<text text-anchor="middle" x="303" y="-229.8" font-family="Times,serif" font-size="14.00" fill="#000000">RadioModule </text>
</g>
<!-- NFormsModule&#45;&gt;RadioModule  -->
<g id="edge8" class="edge">
<title>NFormsModule&#45;&gt;RadioModule </title>
<path fill="none" stroke="#000000" stroke-dasharray="5,2" d="M303,-187.1061C303,-187.1061 303,-205.991 303,-205.991"/>
<polygon fill="#000000" stroke="#000000" points="299.5001,-205.9909 303,-215.991 306.5001,-205.991 299.5001,-205.9909"/>
</g>
<!-- InputModule  -->
<g id="node10" class="node">
<title>InputModule </title>
<polygon fill="#fb8072" stroke="#000000" points="236.1019,-252 143.8981,-252 143.8981,-216 236.1019,-216 236.1019,-252"/>
<text text-anchor="middle" x="190" y="-229.8" font-family="Times,serif" font-size="14.00" fill="#000000">InputModule </text>
</g>
<!-- NFormsModule&#45;&gt;InputModule  -->
<g id="edge9" class="edge">
<title>NFormsModule&#45;&gt;InputModule </title>
<path fill="none" stroke="#000000" stroke-dasharray="5,2" d="M250.1583,-180C216.1985,-180 178.3998,-180 178.3998,-180 178.3998,-180 178.3998,-205.7181 178.3998,-205.7181"/>
<polygon fill="#000000" stroke="#000000" points="174.8999,-205.718 178.3998,-215.7181 181.8999,-205.7181 174.8999,-205.718"/>
</g>
<!-- ButtonModule  -->
<g id="node11" class="node">
<title>ButtonModule </title>
<polygon fill="#fb8072" stroke="#000000" points="125.6677,-252 24.3323,-252 24.3323,-216 125.6677,-216 125.6677,-252"/>
<text text-anchor="middle" x="75" y="-229.8" font-family="Times,serif" font-size="14.00" fill="#000000">ButtonModule </text>
</g>
<!-- NFormsModule&#45;&gt;ButtonModule  -->
<g id="edge10" class="edge">
<title>NFormsModule&#45;&gt;ButtonModule </title>
<path fill="none" stroke="#000000" stroke-dasharray="5,2" d="M250.0999,-173C179.8767,-173 64.6387,-173 64.6387,-173 64.6387,-173 64.6387,-205.698 64.6387,-205.698"/>
<polygon fill="#000000" stroke="#000000" points="61.1388,-205.698 64.6387,-215.698 68.1388,-205.698 61.1388,-205.698"/>
</g>
</g>
</svg>
