<?xml version="1.0" encoding="UTF-8" standalone="no"?>
<!DOCTYPE svg PUBLIC "-//W3C//DTD SVG 1.1//EN"
 "http://www.w3.org/Graphics/SVG/1.1/DTD/svg11.dtd">
<!-- Generated by graphviz version 2.47.0 (20210316.0004)
 -->
<!-- Title: dependencies Pages: 1 -->
<svg width="642pt" height="396pt"
 viewBox="0.00 0.00 642.00 395.59" xmlns="http://www.w3.org/2000/svg" xmlns:xlink="http://www.w3.org/1999/xlink">
<g id="graph0" class="graph" transform="scale(1 1) rotate(0) translate(4 391.59)">
<title>dependencies</title>
<polygon fill="white" stroke="transparent" points="-4,4 -4,-391.59 638,-391.59 638,4 -4,4"/>
<text text-anchor="start" x="296.01" y="-42.4" font-family="Times-12" font-weight="bold" font-size="14.00">Legend</text>
<polygon fill="#ffffb3" stroke="transparent" points="83,-10 83,-30 103,-30 103,-10 83,-10"/>
<text text-anchor="start" x="106.63" y="-15.4" font-family="Times-12" font-size="14.00"> &#160;Declarations</text>
<polygon fill="#8dd3c7" stroke="transparent" points="196,-10 196,-30 216,-30 216,-10 196,-10"/>
<text text-anchor="start" x="219.73" y="-15.4" font-family="Times-12" font-size="14.00"> &#160;Module</text>
<polygon fill="#80b1d3" stroke="transparent" points="282,-10 282,-30 302,-30 302,-10 282,-10"/>
<text text-anchor="start" x="305.78" y="-15.4" font-family="Times-12" font-size="14.00"> &#160;Bootstrap</text>
<polygon fill="#fdb462" stroke="transparent" points="379,-10 379,-30 399,-30 399,-10 379,-10"/>
<text text-anchor="start" x="402.67" y="-15.4" font-family="Times-12" font-size="14.00"> &#160;Providers</text>
<polygon fill="#fb8072" stroke="transparent" points="475,-10 475,-30 495,-30 495,-10 475,-10"/>
<text text-anchor="start" x="498.73" y="-15.4" font-family="Times-12" font-size="14.00"> &#160;Exports</text>
<g id="clust1" class="cluster">
<title>cluster_SelectModule</title>
<polygon fill="none" stroke="black" stroke-dasharray="1,5" points="8,-70 8,-379.59 626,-379.59 626,-70 8,-70"/>
</g>
<g id="clust2" class="cluster">
<title>cluster_SelectModule_declarations</title>
<polygon fill="none" stroke="black" points="282,-189.59 282,-241.59 515,-241.59 515,-189.59 282,-189.59"/>
</g>
<g id="clust5" class="cluster">
<title>cluster_SelectModule_Select_providers</title>
<polygon fill="none" stroke="black" points="16,-78 16,-176.59 618,-176.59 618,-78 16,-78"/>
</g>
<g id="clust6" class="cluster">
<title>cluster_SelectModule_imports</title>
<polygon fill="none" stroke="black" points="174,-189.59 174,-241.59 274,-241.59 274,-189.59 174,-189.59"/>
</g>
<g id="clust7" class="cluster">
<title>cluster_SelectModule_exports</title>
<polygon fill="none" stroke="black" points="244,-319.59 244,-371.59 484,-371.59 484,-319.59 244,-319.59"/>
</g>
<!-- OptGroup -->
<g id="node1" class="node">
<title>OptGroup</title>
<polygon fill="#ffffb3" stroke="black" points="507.26,-233.59 434.74,-233.59 434.74,-197.59 507.26,-197.59 507.26,-233.59"/>
<text text-anchor="middle" x="471" y="-211.39" font-family="Times,serif" font-size="14.00">OptGroup</text>
</g>
<!-- SelectModule -->
<g id="node4" class="node">
<title>SelectModule</title>
<polygon fill="#8dd3c7" stroke="black" points="399.76,-298.59 396.76,-302.59 375.76,-302.59 372.76,-298.59 306.24,-298.59 306.24,-262.59 399.76,-262.59 399.76,-298.59"/>
<text text-anchor="middle" x="353" y="-276.39" font-family="Times,serif" font-size="14.00">SelectModule</text>
</g>
<!-- OptGroup&#45;&gt;SelectModule -->
<g id="edge1" class="edge">
<title>OptGroup&#45;&gt;SelectModule</title>
<path fill="none" stroke="black" d="M455.38,-233.7C455.38,-252.93 455.38,-280.59 455.38,-280.59 455.38,-280.59 409.99,-280.59 409.99,-280.59"/>
<polygon fill="black" stroke="black" points="409.99,-277.09 399.99,-280.59 409.99,-284.09 409.99,-277.09"/>
</g>
<!-- Option -->
<g id="node2" class="node">
<title>Option</title>
<polygon fill="#ffffb3" stroke="black" points="416.39,-233.59 361.61,-233.59 361.61,-197.59 416.39,-197.59 416.39,-233.59"/>
<text text-anchor="middle" x="389" y="-211.39" font-family="Times,serif" font-size="14.00">Option</text>
</g>
<!-- Option&#45;&gt;SelectModule -->
<g id="edge2" class="edge">
<title>Option&#45;&gt;SelectModule</title>
<path fill="none" stroke="black" d="M380.72,-233.7C380.72,-233.7 380.72,-252.58 380.72,-252.58"/>
<polygon fill="black" stroke="black" points="377.22,-252.58 380.72,-262.58 384.22,-252.58 377.22,-252.58"/>
</g>
<!-- Select -->
<g id="node3" class="node">
<title>Select</title>
<polygon fill="#ffffb3" stroke="black" points="344,-233.59 290,-233.59 290,-197.59 344,-197.59 344,-233.59"/>
<text text-anchor="middle" x="317" y="-211.39" font-family="Times,serif" font-size="14.00">Select</text>
</g>
<!-- Select&#45;&gt;SelectModule -->
<g id="edge3" class="edge">
<title>Select&#45;&gt;SelectModule</title>
<path fill="none" stroke="black" d="M325.06,-233.7C325.06,-233.7 325.06,-252.58 325.06,-252.58"/>
<polygon fill="black" stroke="black" points="321.56,-252.58 325.06,-262.58 328.56,-252.58 321.56,-252.58"/>
</g>
<!-- OptGroup  -->
<g id="node7" class="node">
<title>OptGroup </title>
<polygon fill="#fb8072" stroke="black" points="476.26,-363.59 399.74,-363.59 399.74,-327.59 476.26,-327.59 476.26,-363.59"/>
<text text-anchor="middle" x="438" y="-341.39" font-family="Times,serif" font-size="14.00">OptGroup </text>
</g>
<!-- SelectModule&#45;&gt;OptGroup  -->
<g id="edge6" class="edge">
<title>SelectModule&#45;&gt;OptGroup </title>
<path fill="none" stroke="black" stroke-dasharray="5,2" d="M391.03,-298.7C391.03,-317.93 391.03,-345.59 391.03,-345.59 391.03,-345.59 391.89,-345.59 391.89,-345.59"/>
<polygon fill="black" stroke="black" points="389.65,-349.09 399.65,-345.59 389.65,-342.09 389.65,-349.09"/>
</g>
<!-- Option  -->
<g id="node8" class="node">
<title>Option </title>
<polygon fill="#fb8072" stroke="black" points="382.39,-363.59 323.61,-363.59 323.61,-327.59 382.39,-327.59 382.39,-363.59"/>
<text text-anchor="middle" x="353" y="-341.39" font-family="Times,serif" font-size="14.00">Option </text>
</g>
<!-- SelectModule&#45;&gt;Option  -->
<g id="edge7" class="edge">
<title>SelectModule&#45;&gt;Option </title>
<path fill="none" stroke="black" stroke-dasharray="5,2" d="M353,-298.7C353,-298.7 353,-317.58 353,-317.58"/>
<polygon fill="black" stroke="black" points="349.5,-317.58 353,-327.58 356.5,-317.58 349.5,-317.58"/>
</g>
<!-- Select  -->
<g id="node9" class="node">
<title>Select </title>
<polygon fill="#fb8072" stroke="black" points="306,-363.59 252,-363.59 252,-327.59 306,-327.59 306,-363.59"/>
<text text-anchor="middle" x="279" y="-341.39" font-family="Times,serif" font-size="14.00">Select </text>
</g>
<!-- SelectModule&#45;&gt;Select  -->
<g id="edge8" class="edge">
<title>SelectModule&#45;&gt;Select </title>
<path fill="none" stroke="black" stroke-dasharray="5,2" d="M314.96,-298.7C314.96,-317.93 314.96,-345.59 314.96,-345.59 314.96,-345.59 314.09,-345.59 314.09,-345.59"/>
<polygon fill="black" stroke="black" points="316.26,-342.09 306.26,-345.59 316.26,-349.09 316.26,-342.09"/>
</g>
<!-- {
 &#160;&#160;&#160;provide: NG_VALUE_ACCESSOR, useExisting: Select, multi: true
} -->
<g id="node5" class="node">
<title>{
 &#160;&#160;&#160;provide: NG_VALUE_ACCESSOR, useExisting: Select, multi: true
}</title>
<ellipse fill="#fdb462" stroke="black" cx="317" cy="-127.3" rx="292.67" ry="41.09"/>
<text text-anchor="middle" x="317" y="-139.9" font-family="Times,serif" font-size="14.00">{</text>
<text text-anchor="middle" x="317" y="-123.1" font-family="Times,serif" font-size="14.00"> &#160;&#160;&#160;provide: NG_VALUE_ACCESSOR, useExisting: Select, multi: true</text>
<text text-anchor="middle" x="317" y="-106.3" font-family="Times,serif" font-size="14.00">}</text>
</g>
<!-- {
 &#160;&#160;&#160;provide: NG_VALUE_ACCESSOR, useExisting: Select, multi: true
}&#45;&gt;Select -->
<g id="edge4" class="edge">
<title>{
 &#160;&#160;&#160;provide: NG_VALUE_ACCESSOR, useExisting: Select, multi: true
}&#45;&gt;Select</title>
<path fill="none" stroke="black" d="M317,-168.6C317,-168.6 317,-187.26 317,-187.26"/>
<polygon fill="black" stroke="black" points="313.5,-187.26 317,-197.26 320.5,-187.26 313.5,-187.26"/>
</g>
<!-- IconModule -->
<g id="node6" class="node">
<title>IconModule</title>
<polygon fill="#8dd3c7" stroke="black" points="266.43,-233.59 263.43,-237.59 242.43,-237.59 239.43,-233.59 181.57,-233.59 181.57,-197.59 266.43,-197.59 266.43,-233.59"/>
<text text-anchor="middle" x="224" y="-211.39" font-family="Times,serif" font-size="14.00">IconModule</text>
</g>
<!-- IconModule&#45;&gt;SelectModule -->
<g id="edge5" class="edge">
<title>IconModule&#45;&gt;SelectModule</title>
<path fill="none" stroke="black" d="M259.11,-233.7C259.11,-252.93 259.11,-280.59 259.11,-280.59 259.11,-280.59 296.05,-280.59 296.05,-280.59"/>
<polygon fill="black" stroke="black" points="296.05,-284.09 306.05,-280.59 296.05,-277.09 296.05,-284.09"/>
</g>
</g>
</svg>
