<?xml version="1.0" encoding="UTF-8" standalone="no"?>
<!DOCTYPE svg PUBLIC "-//W3C//DTD SVG 1.1//EN"
 "http://www.w3.org/Graphics/SVG/1.1/DTD/svg11.dtd">
<!-- Generated by graphviz version 2.47.0 (20210316.0004)
 -->
<!-- Title: dependencies Pages: 1 -->
<svg width="870pt" height="396pt"
 viewBox="0.00 0.00 870.00 395.59" xmlns="http://www.w3.org/2000/svg" xmlns:xlink="http://www.w3.org/1999/xlink">
<g id="graph0" class="graph" transform="scale(1 1) rotate(0) translate(4 391.59)">
<title>dependencies</title>
<polygon fill="white" stroke="transparent" points="-4,4 -4,-391.59 866,-391.59 866,4 -4,4"/>
<text text-anchor="start" x="410.01" y="-42.4" font-family="Times-12" font-weight="bold" font-size="14.00">Legend</text>
<polygon fill="#ffffb3" stroke="transparent" points="197,-10 197,-30 217,-30 217,-10 197,-10"/>
<text text-anchor="start" x="220.63" y="-15.4" font-family="Times-12" font-size="14.00"> &#160;Declarations</text>
<polygon fill="#8dd3c7" stroke="transparent" points="310,-10 310,-30 330,-30 330,-10 310,-10"/>
<text text-anchor="start" x="333.73" y="-15.4" font-family="Times-12" font-size="14.00"> &#160;Module</text>
<polygon fill="#80b1d3" stroke="transparent" points="396,-10 396,-30 416,-30 416,-10 396,-10"/>
<text text-anchor="start" x="419.78" y="-15.4" font-family="Times-12" font-size="14.00"> &#160;Bootstrap</text>
<polygon fill="#fdb462" stroke="transparent" points="493,-10 493,-30 513,-30 513,-10 493,-10"/>
<text text-anchor="start" x="516.67" y="-15.4" font-family="Times-12" font-size="14.00"> &#160;Providers</text>
<polygon fill="#fb8072" stroke="transparent" points="589,-10 589,-30 609,-30 609,-10 589,-10"/>
<text text-anchor="start" x="612.73" y="-15.4" font-family="Times-12" font-size="14.00"> &#160;Exports</text>
<g id="clust1" class="cluster">
<title>cluster_TimePickerModule</title>
<polygon fill="none" stroke="black" stroke-dasharray="1,5" points="8,-70 8,-379.59 854,-379.59 854,-70 8,-70"/>
</g>
<g id="clust3" class="cluster">
<title>cluster_TimePickerModule_TimePicker_providers</title>
<polygon fill="none" stroke="black" points="200,-78 200,-241.59 846,-241.59 846,-78 200,-78"/>
</g>
<g id="clust5" class="cluster">
<title>cluster_TimePickerModule_exports</title>
<polygon fill="none" stroke="black" points="195,-319.59 195,-371.59 295,-371.59 295,-319.59 195,-319.59"/>
</g>
<g id="clust4" class="cluster">
<title>cluster_TimePickerModule_imports</title>
<polygon fill="none" stroke="black" points="16,-189.59 16,-241.59 192,-241.59 192,-189.59 16,-189.59"/>
</g>
<!-- TimePicker -->
<g id="node1" class="node">
<title>TimePicker</title>
<polygon fill="#ffffb3" stroke="black" points="426.81,-233.59 345.19,-233.59 345.19,-197.59 426.81,-197.59 426.81,-233.59"/>
<text text-anchor="middle" x="386" y="-211.39" font-family="Times,serif" font-size="14.00">TimePicker</text>
</g>
<!-- TimePickerModule -->
<g id="node2" class="node">
<title>TimePickerModule</title>
<polygon fill="#8dd3c7" stroke="black" points="307.36,-298.59 304.36,-302.59 283.36,-302.59 280.36,-298.59 182.64,-298.59 182.64,-262.59 307.36,-262.59 307.36,-298.59"/>
<text text-anchor="middle" x="245" y="-276.39" font-family="Times,serif" font-size="14.00">TimePickerModule</text>
</g>
<!-- TimePicker&#45;&gt;TimePickerModule -->
<g id="edge1" class="edge">
<title>TimePicker&#45;&gt;TimePickerModule</title>
<path fill="none" stroke="black" d="M386,-233.7C386,-252.93 386,-280.59 386,-280.59 386,-280.59 317.67,-280.59 317.67,-280.59"/>
<polygon fill="black" stroke="black" points="317.67,-277.09 307.67,-280.59 317.67,-284.09 317.67,-277.09"/>
</g>
<!-- TimePicker  -->
<g id="node5" class="node">
<title>TimePicker </title>
<polygon fill="#fb8072" stroke="black" points="287.31,-363.59 202.69,-363.59 202.69,-327.59 287.31,-327.59 287.31,-363.59"/>
<text text-anchor="middle" x="245" y="-341.39" font-family="Times,serif" font-size="14.00">TimePicker </text>
</g>
<!-- TimePickerModule&#45;&gt;TimePicker  -->
<g id="edge4" class="edge">
<title>TimePickerModule&#45;&gt;TimePicker </title>
<path fill="none" stroke="black" stroke-dasharray="5,2" d="M245,-298.7C245,-298.7 245,-317.58 245,-317.58"/>
<polygon fill="black" stroke="black" points="241.5,-317.58 245,-327.58 248.5,-317.58 241.5,-317.58"/>
</g>
<!-- {
 &#160;&#160;&#160;provide: NG_VALUE_ACCESSOR, useExisting: TimePicker, multi: true
} -->
<g id="node3" class="node">
<title>{
 &#160;&#160;&#160;provide: NG_VALUE_ACCESSOR, useExisting: TimePicker, multi: true
}</title>
<ellipse fill="#fdb462" stroke="black" cx="523" cy="-127.3" rx="314.66" ry="41.09"/>
<text text-anchor="middle" x="523" y="-139.9" font-family="Times,serif" font-size="14.00">{</text>
<text text-anchor="middle" x="523" y="-123.1" font-family="Times,serif" font-size="14.00"> &#160;&#160;&#160;provide: NG_VALUE_ACCESSOR, useExisting: TimePicker, multi: true</text>
<text text-anchor="middle" x="523" y="-106.3" font-family="Times,serif" font-size="14.00">}</text>
</g>
<!-- {
 &#160;&#160;&#160;provide: NG_VALUE_ACCESSOR, useExisting: TimePicker, multi: true
}&#45;&gt;TimePicker -->
<g id="edge2" class="edge">
<title>{
 &#160;&#160;&#160;provide: NG_VALUE_ACCESSOR, useExisting: TimePicker, multi: true
}&#45;&gt;TimePicker</title>
<path fill="none" stroke="black" d="M386,-164.48C386,-164.48 386,-187.22 386,-187.22"/>
<polygon fill="black" stroke="black" points="382.5,-187.22 386,-197.22 389.5,-187.22 382.5,-187.22"/>
</g>
<!-- TimePickerSelectModule -->
<g id="node4" class="node">
<title>TimePickerSelectModule</title>
<polygon fill="#8dd3c7" stroke="black" points="183.57,-233.59 180.57,-237.59 159.57,-237.59 156.57,-233.59 24.43,-233.59 24.43,-197.59 183.57,-197.59 183.57,-233.59"/>
<text text-anchor="middle" x="104" y="-211.39" font-family="Times,serif" font-size="14.00">TimePickerSelectModule</text>
</g>
<!-- TimePickerSelectModule&#45;&gt;TimePickerModule -->
<g id="edge3" class="edge">
<title>TimePickerSelectModule&#45;&gt;TimePickerModule</title>
<path fill="none" stroke="black" d="M183.57,-215.59C191.09,-215.59 195.98,-215.59 195.98,-215.59 195.98,-215.59 195.98,-252.48 195.98,-252.48"/>
<polygon fill="black" stroke="black" points="192.48,-252.48 195.98,-262.48 199.48,-252.48 192.48,-252.48"/>
</g>
</g>
</svg>
