<?xml version="1.0" encoding="UTF-8" standalone="no"?>
<!DOCTYPE svg PUBLIC "-//W3C//DTD SVG 1.1//EN"
 "http://www.w3.org/Graphics/SVG/1.1/DTD/svg11.dtd">
<!-- Generated by graphviz version 2.47.0 (20210316.0004)
 -->
<!-- Title: dependencies Pages: 1 -->
<svg width="686pt" height="396pt"
 viewBox="0.00 0.00 686.00 395.59" xmlns="http://www.w3.org/2000/svg" xmlns:xlink="http://www.w3.org/1999/xlink">
<g id="graph0" class="graph" transform="scale(1 1) rotate(0) translate(4 391.59)">
<title>dependencies</title>
<polygon fill="white" stroke="transparent" points="-4,4 -4,-391.59 682,-391.59 682,4 -4,4"/>
<text text-anchor="start" x="318.01" y="-42.4" font-family="Times-12" font-weight="bold" font-size="14.00">Legend</text>
<polygon fill="#ffffb3" stroke="transparent" points="105,-10 105,-30 125,-30 125,-10 105,-10"/>
<text text-anchor="start" x="128.63" y="-15.4" font-family="Times-12" font-size="14.00"> &#160;Declarations</text>
<polygon fill="#8dd3c7" stroke="transparent" points="218,-10 218,-30 238,-30 238,-10 218,-10"/>
<text text-anchor="start" x="241.73" y="-15.4" font-family="Times-12" font-size="14.00"> &#160;Module</text>
<polygon fill="#80b1d3" stroke="transparent" points="304,-10 304,-30 324,-30 324,-10 304,-10"/>
<text text-anchor="start" x="327.78" y="-15.4" font-family="Times-12" font-size="14.00"> &#160;Bootstrap</text>
<polygon fill="#fdb462" stroke="transparent" points="401,-10 401,-30 421,-30 421,-10 401,-10"/>
<text text-anchor="start" x="424.67" y="-15.4" font-family="Times-12" font-size="14.00"> &#160;Providers</text>
<polygon fill="#fb8072" stroke="transparent" points="497,-10 497,-30 517,-30 517,-10 497,-10"/>
<text text-anchor="start" x="520.73" y="-15.4" font-family="Times-12" font-size="14.00"> &#160;Exports</text>
<g id="clust1" class="cluster">
<title>cluster_TimePickerModule</title>
<polygon fill="none" stroke="black" stroke-dasharray="1,5" points="8,-70 8,-379.59 670,-379.59 670,-70 8,-70"/>
</g>
<g id="clust2" class="cluster">
<title>cluster_TimePickerModule_declarations</title>
<polygon fill="none" stroke="black" points="290,-189.59 290,-241.59 388,-241.59 388,-189.59 290,-189.59"/>
</g>
<g id="clust3" class="cluster">
<title>cluster_TimePickerModule_TimePicker_providers</title>
<polygon fill="none" stroke="black" points="16,-78 16,-176.59 662,-176.59 662,-78 16,-78"/>
</g>
<g id="clust5" class="cluster">
<title>cluster_TimePickerModule_exports</title>
<polygon fill="none" stroke="black" points="216,-319.59 216,-371.59 316,-371.59 316,-319.59 216,-319.59"/>
</g>
<g id="clust4" class="cluster">
<title>cluster_TimePickerModule_imports</title>
<polygon fill="none" stroke="black" points="106,-189.59 106,-241.59 282,-241.59 282,-189.59 106,-189.59"/>
</g>
<!-- TimePicker -->
<g id="node1" class="node">
<title>TimePicker</title>
<polygon fill="#ffffb3" stroke="black" points="379.81,-233.59 298.19,-233.59 298.19,-197.59 379.81,-197.59 379.81,-233.59"/>
<text text-anchor="middle" x="339" y="-211.39" font-family="Times,serif" font-size="14.00">TimePicker</text>
</g>
<!-- TimePickerModule -->
<g id="node2" class="node">
<title>TimePickerModule</title>
<polygon fill="#8dd3c7" stroke="black" points="328.36,-298.59 325.36,-302.59 304.36,-302.59 301.36,-298.59 203.64,-298.59 203.64,-262.59 328.36,-262.59 328.36,-298.59"/>
<text text-anchor="middle" x="266" y="-276.39" font-family="Times,serif" font-size="14.00">TimePickerModule</text>
</g>
<!-- TimePicker&#45;&gt;TimePickerModule -->
<g id="edge1" class="edge">
<title>TimePicker&#45;&gt;TimePickerModule</title>
<path fill="none" stroke="black" d="M313.39,-233.7C313.39,-233.7 313.39,-252.58 313.39,-252.58"/>
<polygon fill="black" stroke="black" points="309.89,-252.58 313.39,-262.58 316.89,-252.58 309.89,-252.58"/>
</g>
<!-- TimePicker  -->
<g id="node5" class="node">
<title>TimePicker </title>
<polygon fill="#fb8072" stroke="black" points="308.31,-363.59 223.69,-363.59 223.69,-327.59 308.31,-327.59 308.31,-363.59"/>
<text text-anchor="middle" x="266" y="-341.39" font-family="Times,serif" font-size="14.00">TimePicker </text>
</g>
<!-- TimePickerModule&#45;&gt;TimePicker  -->
<g id="edge4" class="edge">
<title>TimePickerModule&#45;&gt;TimePicker </title>
<path fill="none" stroke="black" stroke-dasharray="5,2" d="M266,-298.7C266,-298.7 266,-317.58 266,-317.58"/>
<polygon fill="black" stroke="black" points="262.5,-317.58 266,-327.58 269.5,-317.58 262.5,-317.58"/>
</g>
<!-- {
 &#160;&#160;&#160;provide: NG_VALUE_ACCESSOR, useExisting: TimePicker, multi: true
} -->
<g id="node3" class="node">
<title>{
 &#160;&#160;&#160;provide: NG_VALUE_ACCESSOR, useExisting: TimePicker, multi: true
}</title>
<ellipse fill="#fdb462" stroke="black" cx="339" cy="-127.3" rx="314.66" ry="41.09"/>
<text text-anchor="middle" x="339" y="-139.9" font-family="Times,serif" font-size="14.00">{</text>
<text text-anchor="middle" x="339" y="-123.1" font-family="Times,serif" font-size="14.00"> &#160;&#160;&#160;provide: NG_VALUE_ACCESSOR, useExisting: TimePicker, multi: true</text>
<text text-anchor="middle" x="339" y="-106.3" font-family="Times,serif" font-size="14.00">}</text>
</g>
<!-- {
 &#160;&#160;&#160;provide: NG_VALUE_ACCESSOR, useExisting: TimePicker, multi: true
}&#45;&gt;TimePicker -->
<g id="edge2" class="edge">
<title>{
 &#160;&#160;&#160;provide: NG_VALUE_ACCESSOR, useExisting: TimePicker, multi: true
}&#45;&gt;TimePicker</title>
<path fill="none" stroke="black" d="M339,-168.6C339,-168.6 339,-187.26 339,-187.26"/>
<polygon fill="black" stroke="black" points="335.5,-187.26 339,-197.26 342.5,-187.26 335.5,-187.26"/>
</g>
<!-- TimePickerSelectModule -->
<g id="node4" class="node">
<title>TimePickerSelectModule</title>
<polygon fill="#8dd3c7" stroke="black" points="273.57,-233.59 270.57,-237.59 249.57,-237.59 246.57,-233.59 114.43,-233.59 114.43,-197.59 273.57,-197.59 273.57,-233.59"/>
<text text-anchor="middle" x="194" y="-211.39" font-family="Times,serif" font-size="14.00">TimePickerSelectModule</text>
</g>
<!-- TimePickerSelectModule&#45;&gt;TimePickerModule -->
<g id="edge3" class="edge">
<title>TimePickerSelectModule&#45;&gt;TimePickerModule</title>
<path fill="none" stroke="black" d="M238.55,-233.7C238.55,-233.7 238.55,-252.58 238.55,-252.58"/>
<polygon fill="black" stroke="black" points="235.05,-252.58 238.55,-262.58 242.05,-252.58 235.05,-252.58"/>
</g>
</g>
</svg>
