<?xml version="1.0" encoding="UTF-8" standalone="no"?>
<!DOCTYPE svg PUBLIC "-//W3C//DTD SVG 1.1//EN"
 "http://www.w3.org/Graphics/SVG/1.1/DTD/svg11.dtd">
<!-- Generated by graphviz version 2.40.1 (20161225.0304)
 -->
<!-- Title: dependencies Pages: 1 -->
<svg width="1546pt" height="284pt"
 viewBox="0.00 0.00 1546.00 284.00" xmlns="http://www.w3.org/2000/svg" xmlns:xlink="http://www.w3.org/1999/xlink">
<g id="graph0" class="graph" transform="scale(1 1) rotate(0) translate(4 280)">
<title>dependencies</title>
<polygon fill="#ffffff" stroke="transparent" points="-4,4 -4,-280 1542,-280 1542,4 -4,4"/>
<text text-anchor="start" x="748.0091" y="-42.4" font-family="sans-serif" font-weight="bold" font-size="14.00" fill="#000000">Legend</text>
<polygon fill="#ffffb3" stroke="transparent" points="535,-10 535,-30 555,-30 555,-10 535,-10"/>
<text text-anchor="start" x="558.629" y="-15.4" font-family="sans-serif" font-size="14.00" fill="#000000"> &#160;Declarations</text>
<polygon fill="#8dd3c7" stroke="transparent" points="648,-10 648,-30 668,-30 668,-10 648,-10"/>
<text text-anchor="start" x="671.7251" y="-15.4" font-family="sans-serif" font-size="14.00" fill="#000000"> &#160;Module</text>
<polygon fill="#80b1d3" stroke="transparent" points="734,-10 734,-30 754,-30 754,-10 734,-10"/>
<text text-anchor="start" x="757.7812" y="-15.4" font-family="sans-serif" font-size="14.00" fill="#000000"> &#160;Bootstrap</text>
<polygon fill="#fdb462" stroke="transparent" points="831,-10 831,-30 851,-30 851,-10 831,-10"/>
<text text-anchor="start" x="854.6732" y="-15.4" font-family="sans-serif" font-size="14.00" fill="#000000"> &#160;Providers</text>
<polygon fill="#fb8072" stroke="transparent" points="927,-10 927,-30 947,-30 947,-10 927,-10"/>
<text text-anchor="start" x="950.7258" y="-15.4" font-family="sans-serif" font-size="14.00" fill="#000000"> &#160;Exports</text>
<g id="clust1" class="cluster">
<title>cluster_ModalModule</title>
<polygon fill="none" stroke="#000000" stroke-dasharray="1,5" points="8,-70 8,-268 1530,-268 1530,-70 8,-70"/>
</g>
<g id="clust2" class="cluster">
<title>cluster_ModalModule_declarations</title>
<polygon fill="none" stroke="#000000" points="530,-78 530,-130 1522,-130 1522,-78 530,-78"/>
</g>
<g id="clust9" class="cluster">
<title>cluster_ModalModule_imports</title>
<polygon fill="none" stroke="#000000" points="170,-78 170,-130 522,-130 522,-78 170,-78"/>
</g>
<g id="clust10" class="cluster">
<title>cluster_ModalModule_exports</title>
<polygon fill="none" stroke="#000000" points="255,-208 255,-260 1122,-260 1122,-208 255,-208"/>
</g>
<g id="clust12" class="cluster">
<title>cluster_ModalModule_providers</title>
<polygon fill="none" stroke="#000000" points="16,-78 16,-130 162,-130 162,-78 16,-78"/>
</g>
<!-- AlertModalComponent -->
<g id="node1" class="node">
<title>AlertModalComponent</title>
<polygon fill="#ffffb3" stroke="#000000" points="1514.1456,-122 1367.8544,-122 1367.8544,-86 1514.1456,-86 1514.1456,-122"/>
<text text-anchor="middle" x="1441" y="-99.8" font-family="Times,serif" font-size="14.00" fill="#000000">AlertModalComponent</text>
</g>
<!-- ModalModule -->
<g id="node7" class="node">
<title>ModalModule</title>
<polygon fill="#8dd3c7" stroke="#000000" points="728.0997,-187 725.0997,-191 704.0997,-191 701.0997,-187 631.9003,-187 631.9003,-151 728.0997,-151 728.0997,-187"/>
<text text-anchor="middle" x="680" y="-164.8" font-family="Times,serif" font-size="14.00" fill="#000000">ModalModule</text>
</g>
<!-- AlertModalComponent&#45;&gt;ModalModule -->
<g id="edge1" class="edge">
<title>AlertModalComponent&#45;&gt;ModalModule</title>
<path fill="none" stroke="#000000" d="M1441,-122.2228C1441,-142.3652 1441,-172 1441,-172 1441,-172 738.1813,-172 738.1813,-172"/>
<polygon fill="#000000" stroke="#000000" points="738.1813,-168.5001 728.1813,-172 738.1812,-175.5001 738.1813,-168.5001"/>
</g>
<!-- ModalPlaceholderComponent -->
<g id="node2" class="node">
<title>ModalPlaceholderComponent</title>
<polygon fill="#ffffb3" stroke="#000000" points="1349.965,-122 1166.035,-122 1166.035,-86 1349.965,-86 1349.965,-122"/>
<text text-anchor="middle" x="1258" y="-99.8" font-family="Times,serif" font-size="14.00" fill="#000000">ModalPlaceholderComponent</text>
</g>
<!-- ModalPlaceholderComponent&#45;&gt;ModalModule -->
<g id="edge2" class="edge">
<title>ModalPlaceholderComponent&#45;&gt;ModalModule</title>
<path fill="none" stroke="#000000" d="M1258,-122.2222C1258,-140.8285 1258,-167 1258,-167 1258,-167 738.2858,-167 738.2858,-167"/>
<polygon fill="#000000" stroke="#000000" points="738.2858,-163.5001 728.2858,-167 738.2858,-170.5001 738.2858,-163.5001"/>
</g>
<!-- ModalComponent -->
<g id="node3" class="node">
<title>ModalComponent</title>
<polygon fill="#ffffb3" stroke="#000000" points="1147.8823,-122 1030.1177,-122 1030.1177,-86 1147.8823,-86 1147.8823,-122"/>
<text text-anchor="middle" x="1089" y="-99.8" font-family="Times,serif" font-size="14.00" fill="#000000">ModalComponent</text>
</g>
<!-- ModalComponent&#45;&gt;ModalModule -->
<g id="edge3" class="edge">
<title>ModalComponent&#45;&gt;ModalModule</title>
<path fill="none" stroke="#000000" d="M1072.0658,-122.0336C1072.0658,-139.0597 1072.0658,-162 1072.0658,-162 1072.0658,-162 738.075,-162 738.075,-162"/>
<polygon fill="#000000" stroke="#000000" points="738.075,-158.5001 728.075,-162 738.0749,-165.5001 738.075,-158.5001"/>
</g>
<!-- ModalHeaderComponent -->
<g id="node4" class="node">
<title>ModalHeaderComponent</title>
<polygon fill="#ffffb3" stroke="#000000" points="1012.2935,-122 853.7065,-122 853.7065,-86 1012.2935,-86 1012.2935,-122"/>
<text text-anchor="middle" x="933" y="-99.8" font-family="Times,serif" font-size="14.00" fill="#000000">ModalHeaderComponent</text>
</g>
<!-- ModalHeaderComponent&#45;&gt;ModalModule -->
<g id="edge4" class="edge">
<title>ModalHeaderComponent&#45;&gt;ModalModule</title>
<path fill="none" stroke="#000000" d="M899.793,-122.2396C899.793,-137.5706 899.793,-157 899.793,-157 899.793,-157 738.2345,-157 738.2345,-157"/>
<polygon fill="#000000" stroke="#000000" points="738.2345,-153.5001 728.2345,-157 738.2345,-160.5001 738.2345,-153.5001"/>
</g>
<!-- ModalFooterComponent -->
<g id="node5" class="node">
<title>ModalFooterComponent</title>
<polygon fill="#ffffb3" stroke="#000000" points="836.4312,-122 681.5688,-122 681.5688,-86 836.4312,-86 836.4312,-122"/>
<text text-anchor="middle" x="759" y="-99.8" font-family="Times,serif" font-size="14.00" fill="#000000">ModalFooterComponent</text>
</g>
<!-- ModalFooterComponent&#45;&gt;ModalModule -->
<g id="edge5" class="edge">
<title>ModalFooterComponent&#45;&gt;ModalModule</title>
<path fill="none" stroke="#000000" d="M704.9173,-122.1061C704.9173,-122.1061 704.9173,-140.991 704.9173,-140.991"/>
<polygon fill="#000000" stroke="#000000" points="701.4173,-140.9909 704.9173,-150.991 708.4173,-140.991 701.4173,-140.9909"/>
</g>
<!-- OverlayComponent -->
<g id="node6" class="node">
<title>OverlayComponent</title>
<polygon fill="#ffffb3" stroke="#000000" points="664.4201,-122 537.5799,-122 537.5799,-86 664.4201,-86 664.4201,-122"/>
<text text-anchor="middle" x="601" y="-99.8" font-family="Times,serif" font-size="14.00" fill="#000000">OverlayComponent</text>
</g>
<!-- OverlayComponent&#45;&gt;ModalModule -->
<g id="edge6" class="edge">
<title>OverlayComponent&#45;&gt;ModalModule</title>
<path fill="none" stroke="#000000" d="M648.08,-122.1061C648.08,-122.1061 648.08,-140.991 648.08,-140.991"/>
<polygon fill="#000000" stroke="#000000" points="644.58,-140.9909 648.08,-150.991 651.58,-140.991 644.58,-140.9909"/>
</g>
<!-- AlertModalComponent  -->
<g id="node11" class="node">
<title>AlertModalComponent </title>
<polygon fill="#fb8072" stroke="#000000" points="1114.1453,-252 963.8547,-252 963.8547,-216 1114.1453,-216 1114.1453,-252"/>
<text text-anchor="middle" x="1039" y="-229.8" font-family="Times,serif" font-size="14.00" fill="#000000">AlertModalComponent </text>
</g>
<!-- ModalModule&#45;&gt;AlertModalComponent  -->
<g id="edge10" class="edge">
<title>ModalModule&#45;&gt;AlertModalComponent </title>
<path fill="none" stroke="#000000" stroke-dasharray="5,2" d="M728.1308,-177C814.7662,-177 988.037,-177 988.037,-177 988.037,-177 988.037,-205.9648 988.037,-205.9648"/>
<polygon fill="#000000" stroke="#000000" points="984.5371,-205.9648 988.037,-215.9648 991.5371,-205.9649 984.5371,-205.9648"/>
</g>
<!-- ModalPlaceholderComponent  -->
<g id="node12" class="node">
<title>ModalPlaceholderComponent </title>
<polygon fill="#fb8072" stroke="#000000" points="945.9656,-252 758.0344,-252 758.0344,-216 945.9656,-216 945.9656,-252"/>
<text text-anchor="middle" x="852" y="-229.8" font-family="Times,serif" font-size="14.00" fill="#000000">ModalPlaceholderComponent </text>
</g>
<!-- ModalModule&#45;&gt;ModalPlaceholderComponent  -->
<g id="edge11" class="edge">
<title>ModalModule&#45;&gt;ModalPlaceholderComponent </title>
<path fill="none" stroke="#000000" stroke-dasharray="5,2" d="M728.3634,-182C760.6589,-182 797.2414,-182 797.2414,-182 797.2414,-182 797.2414,-205.8129 797.2414,-205.8129"/>
<polygon fill="#000000" stroke="#000000" points="793.7415,-205.8129 797.2414,-215.8129 800.7415,-205.813 793.7415,-205.8129"/>
</g>
<!-- ModalComponent  -->
<g id="node13" class="node">
<title>ModalComponent </title>
<polygon fill="#fb8072" stroke="#000000" points="740.8828,-252 619.1172,-252 619.1172,-216 740.8828,-216 740.8828,-252"/>
<text text-anchor="middle" x="680" y="-229.8" font-family="Times,serif" font-size="14.00" fill="#000000">ModalComponent </text>
</g>
<!-- ModalModule&#45;&gt;ModalComponent  -->
<g id="edge12" class="edge">
<title>ModalModule&#45;&gt;ModalComponent </title>
<path fill="none" stroke="#000000" stroke-dasharray="5,2" d="M680,-187.1061C680,-187.1061 680,-205.991 680,-205.991"/>
<polygon fill="#000000" stroke="#000000" points="676.5001,-205.9909 680,-215.991 683.5001,-205.991 676.5001,-205.9909"/>
</g>
<!-- ModalHeaderComponent  -->
<g id="node14" class="node">
<title>ModalHeaderComponent </title>
<polygon fill="#fb8072" stroke="#000000" points="600.7933,-252 439.2067,-252 439.2067,-216 600.7933,-216 600.7933,-252"/>
<text text-anchor="middle" x="520" y="-229.8" font-family="Times,serif" font-size="14.00" fill="#000000">ModalHeaderComponent </text>
</g>
<!-- ModalModule&#45;&gt;ModalHeaderComponent  -->
<g id="edge13" class="edge">
<title>ModalModule&#45;&gt;ModalHeaderComponent </title>
<path fill="none" stroke="#000000" stroke-dasharray="5,2" d="M631.7863,-182C601.9667,-182 569.3435,-182 569.3435,-182 569.3435,-182 569.3435,-205.8129 569.3435,-205.8129"/>
<polygon fill="#000000" stroke="#000000" points="565.8435,-205.8129 569.3435,-215.8129 572.8435,-205.813 565.8435,-205.8129"/>
</g>
<!-- ModalFooterComponent  -->
<g id="node15" class="node">
<title>ModalFooterComponent </title>
<polygon fill="#fb8072" stroke="#000000" points="420.9306,-252 263.0694,-252 263.0694,-216 420.9306,-216 420.9306,-252"/>
<text text-anchor="middle" x="342" y="-229.8" font-family="Times,serif" font-size="14.00" fill="#000000">ModalFooterComponent </text>
</g>
<!-- ModalModule&#45;&gt;ModalFooterComponent  -->
<g id="edge14" class="edge">
<title>ModalModule&#45;&gt;ModalFooterComponent </title>
<path fill="none" stroke="#000000" stroke-dasharray="5,2" d="M631.8498,-177C553.5229,-177 407.1603,-177 407.1603,-177 407.1603,-177 407.1603,-205.9648 407.1603,-205.9648"/>
<polygon fill="#000000" stroke="#000000" points="403.6603,-205.9648 407.1603,-215.9648 410.6603,-205.9649 403.6603,-205.9648"/>
</g>
<!-- ButtonModule -->
<g id="node8" class="node">
<title>ButtonModule</title>
<polygon fill="#8dd3c7" stroke="#000000" points="513.6682,-122 510.6682,-126 489.6682,-126 486.6682,-122 416.3318,-122 416.3318,-86 513.6682,-86 513.6682,-122"/>
<text text-anchor="middle" x="465" y="-99.8" font-family="Times,serif" font-size="14.00" fill="#000000">ButtonModule</text>
</g>
<!-- ButtonModule&#45;&gt;ModalModule -->
<g id="edge7" class="edge">
<title>ButtonModule&#45;&gt;ModalModule</title>
<path fill="none" stroke="#000000" d="M476.4686,-122.2396C476.4686,-137.5706 476.4686,-157 476.4686,-157 476.4686,-157 621.7659,-157 621.7659,-157"/>
<polygon fill="#000000" stroke="#000000" points="621.7659,-160.5001 631.7659,-157 621.7659,-153.5001 621.7659,-160.5001"/>
</g>
<!-- StaticIconModule -->
<g id="node9" class="node">
<title>StaticIconModule</title>
<polygon fill="#8dd3c7" stroke="#000000" points="398.309,-122 395.309,-126 374.309,-126 371.309,-122 281.691,-122 281.691,-86 398.309,-86 398.309,-122"/>
<text text-anchor="middle" x="340" y="-99.8" font-family="Times,serif" font-size="14.00" fill="#000000">StaticIconModule</text>
</g>
<!-- StaticIconModule&#45;&gt;ModalModule -->
<g id="edge8" class="edge">
<title>StaticIconModule&#45;&gt;ModalModule</title>
<path fill="none" stroke="#000000" d="M340,-122.0336C340,-139.0597 340,-162 340,-162 340,-162 621.6474,-162 621.6474,-162"/>
<polygon fill="#000000" stroke="#000000" points="621.6474,-165.5001 631.6474,-162 621.6473,-158.5001 621.6474,-165.5001"/>
</g>
<!-- I18nModule -->
<g id="node10" class="node">
<title>I18nModule</title>
<polygon fill="#8dd3c7" stroke="#000000" points="263.7107,-122 260.7107,-126 239.7107,-126 236.7107,-122 178.2893,-122 178.2893,-86 263.7107,-86 263.7107,-122"/>
<text text-anchor="middle" x="221" y="-99.8" font-family="Times,serif" font-size="14.00" fill="#000000">I18nModule</text>
</g>
<!-- I18nModule&#45;&gt;ModalModule -->
<g id="edge9" class="edge">
<title>I18nModule&#45;&gt;ModalModule</title>
<path fill="none" stroke="#000000" d="M220.7148,-122.2222C220.7148,-140.8285 220.7148,-167 220.7148,-167 220.7148,-167 621.7165,-167 621.7165,-167"/>
<polygon fill="#000000" stroke="#000000" points="621.7165,-170.5001 631.7165,-167 621.7165,-163.5001 621.7165,-170.5001"/>
</g>
<!-- ModalService -->
<g id="node16" class="node">
<title>ModalService</title>
<ellipse fill="#fdb462" stroke="#000000" cx="89" cy="-104" rx="65.4072" ry="18"/>
<text text-anchor="middle" x="89" y="-99.8" font-family="Times,serif" font-size="14.00" fill="#000000">ModalService</text>
</g>
<!-- ModalService&#45;&gt;ModalModule -->
<g id="edge15" class="edge">
<title>ModalService&#45;&gt;ModalModule</title>
<path fill="none" stroke="#000000" d="M89,-122.2228C89,-142.3652 89,-172 89,-172 89,-172 621.636,-172 621.636,-172"/>
<polygon fill="#000000" stroke="#000000" points="621.636,-175.5001 631.636,-172 621.636,-168.5001 621.636,-175.5001"/>
</g>
</g>
</svg>
