<?xml version="1.0" encoding="UTF-8" standalone="no"?>
<!DOCTYPE svg PUBLIC "-//W3C//DTD SVG 1.1//EN"
 "http://www.w3.org/Graphics/SVG/1.1/DTD/svg11.dtd">
<!-- Generated by graphviz version 2.40.1 (20161225.0304)
 -->
<!-- Title: dependencies Pages: 1 -->
<svg width="1320pt" height="284pt"
 viewBox="0.00 0.00 1320.00 284.00" xmlns="http://www.w3.org/2000/svg" xmlns:xlink="http://www.w3.org/1999/xlink">
<g id="graph0" class="graph" transform="scale(1 1) rotate(0) translate(4 280)">
<title>dependencies</title>
<polygon fill="#ffffff" stroke="transparent" points="-4,4 -4,-280 1316,-280 1316,4 -4,4"/>
<text text-anchor="start" x="635.0091" y="-42.4" font-family="sans-serif" font-weight="bold" font-size="14.00" fill="#000000">Legend</text>
<polygon fill="#ffffb3" stroke="transparent" points="422,-10 422,-30 442,-30 442,-10 422,-10"/>
<text text-anchor="start" x="445.629" y="-15.4" font-family="sans-serif" font-size="14.00" fill="#000000"> &#160;Declarations</text>
<polygon fill="#8dd3c7" stroke="transparent" points="535,-10 535,-30 555,-30 555,-10 535,-10"/>
<text text-anchor="start" x="558.7251" y="-15.4" font-family="sans-serif" font-size="14.00" fill="#000000"> &#160;Module</text>
<polygon fill="#80b1d3" stroke="transparent" points="621,-10 621,-30 641,-30 641,-10 621,-10"/>
<text text-anchor="start" x="644.7812" y="-15.4" font-family="sans-serif" font-size="14.00" fill="#000000"> &#160;Bootstrap</text>
<polygon fill="#fdb462" stroke="transparent" points="718,-10 718,-30 738,-30 738,-10 718,-10"/>
<text text-anchor="start" x="741.6732" y="-15.4" font-family="sans-serif" font-size="14.00" fill="#000000"> &#160;Providers</text>
<polygon fill="#fb8072" stroke="transparent" points="814,-10 814,-30 834,-30 834,-10 814,-10"/>
<text text-anchor="start" x="837.7258" y="-15.4" font-family="sans-serif" font-size="14.00" fill="#000000"> &#160;Exports</text>
<g id="clust1" class="cluster">
<title>cluster_ModalModule</title>
<polygon fill="none" stroke="#000000" stroke-dasharray="1,5" points="8,-70 8,-268 1304,-268 1304,-70 8,-70"/>
</g>
<g id="clust2" class="cluster">
<title>cluster_ModalModule_declarations</title>
<polygon fill="none" stroke="#000000" points="691,-78 691,-130 1296,-130 1296,-78 691,-78"/>
</g>
<g id="clust9" class="cluster">
<title>cluster_ModalModule_imports</title>
<polygon fill="none" stroke="#000000" points="170,-78 170,-130 683,-130 683,-78 170,-78"/>
</g>
<g id="clust10" class="cluster">
<title>cluster_ModalModule_exports</title>
<polygon fill="none" stroke="#000000" points="421,-208 421,-260 960,-260 960,-208 421,-208"/>
</g>
<g id="clust12" class="cluster">
<title>cluster_ModalModule_providers</title>
<polygon fill="none" stroke="#000000" points="16,-78 16,-130 162,-130 162,-78 16,-78"/>
</g>
<!-- AlertModal -->
<g id="node1" class="node">
<title>AlertModal</title>
<polygon fill="#ffffb3" stroke="#000000" points="1287.8134,-122 1206.1866,-122 1206.1866,-86 1287.8134,-86 1287.8134,-122"/>
<text text-anchor="middle" x="1247" y="-99.8" font-family="Times,serif" font-size="14.00" fill="#000000">AlertModal</text>
</g>
<!-- ModalModule -->
<g id="node7" class="node">
<title>ModalModule</title>
<polygon fill="#8dd3c7" stroke="#000000" points="778.0997,-187 775.0997,-191 754.0997,-191 751.0997,-187 681.9003,-187 681.9003,-151 778.0997,-151 778.0997,-187"/>
<text text-anchor="middle" x="730" y="-164.8" font-family="Times,serif" font-size="14.00" fill="#000000">ModalModule</text>
</g>
<!-- AlertModal&#45;&gt;ModalModule -->
<g id="edge1" class="edge">
<title>AlertModal&#45;&gt;ModalModule</title>
<path fill="none" stroke="#000000" d="M1247,-122.0267C1247,-142.7672 1247,-174 1247,-174 1247,-174 788.1738,-174 788.1738,-174"/>
<polygon fill="#000000" stroke="#000000" points="788.1739,-170.5001 778.1738,-174 788.1738,-177.5001 788.1739,-170.5001"/>
</g>
<!-- Modal -->
<g id="node2" class="node">
<title>Modal</title>
<polygon fill="#ffffb3" stroke="#000000" points="1188,-122 1134,-122 1134,-86 1188,-86 1188,-122"/>
<text text-anchor="middle" x="1161" y="-99.8" font-family="Times,serif" font-size="14.00" fill="#000000">Modal</text>
</g>
<!-- Modal&#45;&gt;ModalModule -->
<g id="edge2" class="edge">
<title>Modal&#45;&gt;ModalModule</title>
<path fill="none" stroke="#000000" d="M1161,-122.1061C1161,-141.3391 1161,-169 1161,-169 1161,-169 788.1866,-169 788.1866,-169"/>
<polygon fill="#000000" stroke="#000000" points="788.1867,-165.5001 778.1866,-169 788.1866,-172.5001 788.1867,-165.5001"/>
</g>
<!-- ModalFooter -->
<g id="node3" class="node">
<title>ModalFooter</title>
<polygon fill="#ffffb3" stroke="#000000" points="1115.5983,-122 1026.4017,-122 1026.4017,-86 1115.5983,-86 1115.5983,-122"/>
<text text-anchor="middle" x="1071" y="-99.8" font-family="Times,serif" font-size="14.00" fill="#000000">ModalFooter</text>
</g>
<!-- ModalFooter&#45;&gt;ModalModule -->
<g id="edge3" class="edge">
<title>ModalFooter&#45;&gt;ModalModule</title>
<path fill="none" stroke="#000000" d="M1071,-122.302C1071,-140.2699 1071,-165 1071,-165 1071,-165 788.1337,-165 788.1337,-165"/>
<polygon fill="#000000" stroke="#000000" points="788.1338,-161.5001 778.1337,-165 788.1337,-168.5001 788.1338,-161.5001"/>
</g>
<!-- ModalHeader -->
<g id="node4" class="node">
<title>ModalHeader</title>
<polygon fill="#ffffb3" stroke="#000000" points="1008.4608,-122 915.5392,-122 915.5392,-86 1008.4608,-86 1008.4608,-122"/>
<text text-anchor="middle" x="962" y="-99.8" font-family="Times,serif" font-size="14.00" fill="#000000">ModalHeader</text>
</g>
<!-- ModalHeader&#45;&gt;ModalModule -->
<g id="edge4" class="edge">
<title>ModalHeader&#45;&gt;ModalModule</title>
<path fill="none" stroke="#000000" d="M933.963,-122.027C933.963,-138.3976 933.963,-160 933.963,-160 933.963,-160 788.0781,-160 788.0781,-160"/>
<polygon fill="#000000" stroke="#000000" points="788.0781,-156.5001 778.0781,-160 788.0781,-163.5001 788.0781,-156.5001"/>
</g>
<!-- ModalPlaceholder -->
<g id="node5" class="node">
<title>ModalPlaceholder</title>
<polygon fill="#ffffb3" stroke="#000000" points="897.1332,-122 778.8668,-122 778.8668,-86 897.1332,-86 897.1332,-122"/>
<text text-anchor="middle" x="838" y="-99.8" font-family="Times,serif" font-size="14.00" fill="#000000">ModalPlaceholder</text>
</g>
<!-- ModalPlaceholder&#45;&gt;ModalModule -->
<g id="edge5" class="edge">
<title>ModalPlaceholder&#45;&gt;ModalModule</title>
<path fill="none" stroke="#000000" d="M786.3294,-122.1871C786.3294,-137.1824 786.3294,-156 786.3294,-156 786.3294,-156 785.5462,-156 785.5462,-156"/>
<polygon fill="#000000" stroke="#000000" points="788.4971,-152.5001 778.497,-156 788.497,-159.5001 788.4971,-152.5001"/>
</g>
<!-- Overlay -->
<g id="node6" class="node">
<title>Overlay</title>
<polygon fill="#ffffb3" stroke="#000000" points="760.5871,-122 699.4129,-122 699.4129,-86 760.5871,-86 760.5871,-122"/>
<text text-anchor="middle" x="730" y="-99.8" font-family="Times,serif" font-size="14.00" fill="#000000">Overlay</text>
</g>
<!-- Overlay&#45;&gt;ModalModule -->
<g id="edge6" class="edge">
<title>Overlay&#45;&gt;ModalModule</title>
<path fill="none" stroke="#000000" d="M730,-122.1061C730,-122.1061 730,-140.991 730,-140.991"/>
<polygon fill="#000000" stroke="#000000" points="726.5001,-140.9909 730,-150.991 733.5001,-140.991 726.5001,-140.9909"/>
</g>
<!-- AlertModal  -->
<g id="node12" class="node">
<title>AlertModal </title>
<polygon fill="#fb8072" stroke="#000000" points="952.313,-252 867.687,-252 867.687,-216 952.313,-216 952.313,-252"/>
<text text-anchor="middle" x="910" y="-229.8" font-family="Times,serif" font-size="14.00" fill="#000000">AlertModal </text>
</g>
<!-- ModalModule&#45;&gt;AlertModal  -->
<g id="edge11" class="edge">
<title>ModalModule&#45;&gt;AlertModal </title>
<path fill="none" stroke="#000000" stroke-dasharray="5,2" d="M778.2377,-178C822.9022,-178 882.455,-178 882.455,-178 882.455,-178 882.455,-205.973 882.455,-205.973"/>
<polygon fill="#000000" stroke="#000000" points="878.955,-205.973 882.455,-215.973 885.955,-205.973 878.955,-205.973"/>
</g>
<!-- Modal  -->
<g id="node13" class="node">
<title>Modal </title>
<polygon fill="#fb8072" stroke="#000000" points="850.0498,-252 793.9502,-252 793.9502,-216 850.0498,-216 850.0498,-252"/>
<text text-anchor="middle" x="822" y="-229.8" font-family="Times,serif" font-size="14.00" fill="#000000">Modal </text>
</g>
<!-- ModalModule&#45;&gt;Modal  -->
<g id="edge12" class="edge">
<title>ModalModule&#45;&gt;Modal </title>
<path fill="none" stroke="#000000" stroke-dasharray="5,2" d="M778.1555,-183C800.415,-183 822,-183 822,-183 822,-183 822,-205.8757 822,-205.8757"/>
<polygon fill="#000000" stroke="#000000" points="818.5001,-205.8757 822,-215.8757 825.5001,-205.8757 818.5001,-205.8757"/>
</g>
<!-- ModalFooter  -->
<g id="node14" class="node">
<title>ModalFooter </title>
<polygon fill="#fb8072" stroke="#000000" points="776.0991,-252 683.9009,-252 683.9009,-216 776.0991,-216 776.0991,-252"/>
<text text-anchor="middle" x="730" y="-229.8" font-family="Times,serif" font-size="14.00" fill="#000000">ModalFooter </text>
</g>
<!-- ModalModule&#45;&gt;ModalFooter  -->
<g id="edge13" class="edge">
<title>ModalModule&#45;&gt;ModalFooter </title>
<path fill="none" stroke="#000000" stroke-dasharray="5,2" d="M730,-187.1061C730,-187.1061 730,-205.991 730,-205.991"/>
<polygon fill="#000000" stroke="#000000" points="726.5001,-205.9909 730,-215.991 733.5001,-205.991 726.5001,-205.9909"/>
</g>
<!-- ModalHeader  -->
<g id="node15" class="node">
<title>ModalHeader </title>
<polygon fill="#fb8072" stroke="#000000" points="665.4619,-252 568.5381,-252 568.5381,-216 665.4619,-216 665.4619,-252"/>
<text text-anchor="middle" x="617" y="-229.8" font-family="Times,serif" font-size="14.00" fill="#000000">ModalHeader </text>
</g>
<!-- ModalModule&#45;&gt;ModalHeader  -->
<g id="edge14" class="edge">
<title>ModalModule&#45;&gt;ModalHeader </title>
<path fill="none" stroke="#000000" stroke-dasharray="5,2" d="M681.6444,-183C652.5861,-183 621.1983,-183 621.1983,-183 621.1983,-183 621.1983,-205.8757 621.1983,-205.8757"/>
<polygon fill="#000000" stroke="#000000" points="617.6984,-205.8757 621.1983,-215.8757 624.6984,-205.8757 617.6984,-205.8757"/>
</g>
<!-- ModalPlaceholder  -->
<g id="node16" class="node">
<title>ModalPlaceholder </title>
<polygon fill="#fb8072" stroke="#000000" points="551.1327,-252 428.8673,-252 428.8673,-216 551.1327,-216 551.1327,-252"/>
<text text-anchor="middle" x="490" y="-229.8" font-family="Times,serif" font-size="14.00" fill="#000000">ModalPlaceholder </text>
</g>
<!-- ModalModule&#45;&gt;ModalPlaceholder  -->
<g id="edge15" class="edge">
<title>ModalModule&#45;&gt;ModalPlaceholder </title>
<path fill="none" stroke="#000000" stroke-dasharray="5,2" d="M681.7211,-178C611.6372,-178 490,-178 490,-178 490,-178 490,-205.973 490,-205.973"/>
<polygon fill="#000000" stroke="#000000" points="486.5001,-205.973 490,-215.973 493.5001,-205.973 486.5001,-205.973"/>
</g>
<!-- ButtonModule -->
<g id="node8" class="node">
<title>ButtonModule</title>
<polygon fill="#8dd3c7" stroke="#000000" points="674.6682,-122 671.6682,-126 650.6682,-126 647.6682,-122 577.3318,-122 577.3318,-86 674.6682,-86 674.6682,-122"/>
<text text-anchor="middle" x="626" y="-99.8" font-family="Times,serif" font-size="14.00" fill="#000000">ButtonModule</text>
</g>
<!-- ButtonModule&#45;&gt;ModalModule -->
<g id="edge7" class="edge">
<title>ButtonModule&#45;&gt;ModalModule</title>
<path fill="none" stroke="#000000" d="M670.0321,-122.1871C670.0321,-137.1824 670.0321,-156 670.0321,-156 670.0321,-156 671.8798,-156 671.8798,-156"/>
<polygon fill="#000000" stroke="#000000" points="671.8799,-159.5001 681.8798,-156 671.8798,-152.5001 671.8799,-159.5001"/>
</g>
<!-- ExperimentalModule -->
<g id="node9" class="node">
<title>ExperimentalModule</title>
<polygon fill="#8dd3c7" stroke="#000000" points="559.4692,-122 556.4692,-126 535.4692,-126 532.4692,-122 424.5308,-122 424.5308,-86 559.4692,-86 559.4692,-122"/>
<text text-anchor="middle" x="492" y="-99.8" font-family="Times,serif" font-size="14.00" fill="#000000">ExperimentalModule</text>
</g>
<!-- ExperimentalModule&#45;&gt;ModalModule -->
<g id="edge8" class="edge">
<title>ExperimentalModule&#45;&gt;ModalModule</title>
<path fill="none" stroke="#000000" d="M555.2755,-122.027C555.2755,-138.3976 555.2755,-160 555.2755,-160 555.2755,-160 671.7932,-160 671.7932,-160"/>
<polygon fill="#000000" stroke="#000000" points="671.7933,-163.5001 681.7932,-160 671.7932,-156.5001 671.7933,-163.5001"/>
</g>
<!-- I18nModule -->
<g id="node10" class="node">
<title>I18nModule</title>
<polygon fill="#8dd3c7" stroke="#000000" points="406.7107,-122 403.7107,-126 382.7107,-126 379.7107,-122 321.2893,-122 321.2893,-86 406.7107,-86 406.7107,-122"/>
<text text-anchor="middle" x="364" y="-99.8" font-family="Times,serif" font-size="14.00" fill="#000000">I18nModule</text>
</g>
<!-- I18nModule&#45;&gt;ModalModule -->
<g id="edge9" class="edge">
<title>I18nModule&#45;&gt;ModalModule</title>
<path fill="none" stroke="#000000" d="M364,-122.302C364,-140.2699 364,-165 364,-165 364,-165 671.7755,-165 671.7755,-165"/>
<polygon fill="#000000" stroke="#000000" points="671.7756,-168.5001 681.7755,-165 671.7755,-161.5001 671.7756,-168.5001"/>
</g>
<!-- PlaceholderModule -->
<g id="node11" class="node">
<title>PlaceholderModule</title>
<polygon fill="#8dd3c7" stroke="#000000" points="303.6331,-122 300.6331,-126 279.6331,-126 276.6331,-122 178.3669,-122 178.3669,-86 303.6331,-86 303.6331,-122"/>
<text text-anchor="middle" x="241" y="-99.8" font-family="Times,serif" font-size="14.00" fill="#000000">PlaceholderModule</text>
</g>
<!-- PlaceholderModule&#45;&gt;ModalModule -->
<g id="edge10" class="edge">
<title>PlaceholderModule&#45;&gt;ModalModule</title>
<path fill="none" stroke="#000000" d="M241,-122.1061C241,-141.3391 241,-169 241,-169 241,-169 671.7745,-169 671.7745,-169"/>
<polygon fill="#000000" stroke="#000000" points="671.7746,-172.5001 681.7745,-169 671.7745,-165.5001 671.7746,-172.5001"/>
</g>
<!-- ModalService -->
<g id="node17" class="node">
<title>ModalService</title>
<ellipse fill="#fdb462" stroke="#000000" cx="89" cy="-104" rx="65.4072" ry="18"/>
<text text-anchor="middle" x="89" y="-99.8" font-family="Times,serif" font-size="14.00" fill="#000000">ModalService</text>
</g>
<!-- ModalService&#45;&gt;ModalModule -->
<g id="edge16" class="edge">
<title>ModalService&#45;&gt;ModalModule</title>
<path fill="none" stroke="#000000" d="M89,-122.0267C89,-142.7672 89,-174 89,-174 89,-174 671.8208,-174 671.8208,-174"/>
<polygon fill="#000000" stroke="#000000" points="671.8209,-177.5001 681.8208,-174 671.8208,-170.5001 671.8209,-177.5001"/>
</g>
</g>
</svg>
