<?xml version="1.0" encoding="UTF-8" standalone="no"?>
<!DOCTYPE svg PUBLIC "-//W3C//DTD SVG 1.1//EN"
 "http://www.w3.org/Graphics/SVG/1.1/DTD/svg11.dtd">
<!-- Generated by graphviz version 2.47.0 (20210316.0004)
 -->
<!-- Title: dependencies Pages: 1 -->
<svg width="656pt" height="284pt"
 viewBox="0.00 0.00 656.00 284.00" xmlns="http://www.w3.org/2000/svg" xmlns:xlink="http://www.w3.org/1999/xlink">
<g id="graph0" class="graph" transform="scale(1 1) rotate(0) translate(4 280)">
<title>dependencies</title>
<polygon fill="white" stroke="transparent" points="-4,4 -4,-280 652,-280 652,4 -4,4"/>
<text text-anchor="start" x="303.01" y="-42.4" font-family="Times-12" font-weight="bold" font-size="14.00">Legend</text>
<polygon fill="#ffffb3" stroke="transparent" points="90,-10 90,-30 110,-30 110,-10 90,-10"/>
<text text-anchor="start" x="113.63" y="-15.4" font-family="Times-12" font-size="14.00"> &#160;Declarations</text>
<polygon fill="#8dd3c7" stroke="transparent" points="203,-10 203,-30 223,-30 223,-10 203,-10"/>
<text text-anchor="start" x="226.73" y="-15.4" font-family="Times-12" font-size="14.00"> &#160;Module</text>
<polygon fill="#80b1d3" stroke="transparent" points="289,-10 289,-30 309,-30 309,-10 289,-10"/>
<text text-anchor="start" x="312.78" y="-15.4" font-family="Times-12" font-size="14.00"> &#160;Bootstrap</text>
<polygon fill="#fdb462" stroke="transparent" points="386,-10 386,-30 406,-30 406,-10 386,-10"/>
<text text-anchor="start" x="409.67" y="-15.4" font-family="Times-12" font-size="14.00"> &#160;Providers</text>
<polygon fill="#fb8072" stroke="transparent" points="482,-10 482,-30 502,-30 502,-10 482,-10"/>
<text text-anchor="start" x="505.73" y="-15.4" font-family="Times-12" font-size="14.00"> &#160;Exports</text>
<g id="clust1" class="cluster">
<title>cluster_SideNavModule</title>
<polygon fill="none" stroke="black" stroke-dasharray="1,5" points="8,-70 8,-268 640,-268 640,-70 8,-70"/>
</g>
<g id="clust2" class="cluster">
<title>cluster_SideNavModule_declarations</title>
<polygon fill="none" stroke="black" points="126,-78 126,-130 632,-130 632,-78 126,-78"/>
</g>
<g id="clust8" class="cluster">
<title>cluster_SideNavModule_exports</title>
<polygon fill="none" stroke="black" points="120,-208 120,-260 434,-260 434,-208 120,-208"/>
</g>
<g id="clust7" class="cluster">
<title>cluster_SideNavModule_imports</title>
<polygon fill="none" stroke="black" points="16,-78 16,-130 118,-130 118,-78 16,-78"/>
</g>
<!-- RouterLinkExtendedDirective -->
<g id="node1" class="node">
<title>RouterLinkExtendedDirective</title>
<polygon fill="#ffffb3" stroke="black" points="623.5,-122 438.5,-122 438.5,-86 623.5,-86 623.5,-122"/>
<text text-anchor="middle" x="531" y="-99.8" font-family="Times,serif" font-size="14.00">RouterLinkExtendedDirective</text>
</g>
<!-- SideNavModule -->
<g id="node5" class="node">
<title>SideNavModule</title>
<polygon fill="#8dd3c7" stroke="black" points="346.76,-187 343.76,-191 322.76,-191 319.76,-187 239.24,-187 239.24,-151 346.76,-151 346.76,-187"/>
<text text-anchor="middle" x="293" y="-164.8" font-family="Times,serif" font-size="14.00">SideNavModule</text>
</g>
<!-- RouterLinkExtendedDirective&#45;&gt;SideNavModule -->
<g id="edge1" class="edge">
<title>RouterLinkExtendedDirective&#45;&gt;SideNavModule</title>
<path fill="none" stroke="black" d="M531,-122.11C531,-141.34 531,-169 531,-169 531,-169 357.01,-169 357.01,-169"/>
<polygon fill="black" stroke="black" points="357.01,-165.5 347.01,-169 357.01,-172.5 357.01,-165.5"/>
</g>
<!-- SideNav -->
<g id="node2" class="node">
<title>SideNav</title>
<polygon fill="#ffffb3" stroke="black" points="420.21,-122 355.79,-122 355.79,-86 420.21,-86 420.21,-122"/>
<text text-anchor="middle" x="388" y="-99.8" font-family="Times,serif" font-size="14.00">SideNav</text>
</g>
<!-- SideNav&#45;&gt;SideNavModule -->
<g id="edge2" class="edge">
<title>SideNav&#45;&gt;SideNavModule</title>
<path fill="none" stroke="black" d="M355.84,-104C348.29,-104 342.41,-104 342.41,-104 342.41,-104 342.41,-140.89 342.41,-140.89"/>
<polygon fill="black" stroke="black" points="338.91,-140.89 342.41,-150.89 345.91,-140.89 338.91,-140.89"/>
</g>
<!-- SideNavItem -->
<g id="node3" class="node">
<title>SideNavItem</title>
<polygon fill="#ffffb3" stroke="black" points="337.87,-122 248.13,-122 248.13,-86 337.87,-86 337.87,-122"/>
<text text-anchor="middle" x="293" y="-99.8" font-family="Times,serif" font-size="14.00">SideNavItem</text>
</g>
<!-- SideNavItem&#45;&gt;SideNavModule -->
<g id="edge3" class="edge">
<title>SideNavItem&#45;&gt;SideNavModule</title>
<path fill="none" stroke="black" d="M293,-122.11C293,-122.11 293,-140.99 293,-140.99"/>
<polygon fill="black" stroke="black" points="289.5,-140.99 293,-150.99 296.5,-140.99 289.5,-140.99"/>
</g>
<!-- SideNavMenu -->
<g id="node4" class="node">
<title>SideNavMenu</title>
<polygon fill="#ffffb3" stroke="black" points="230.37,-122 133.63,-122 133.63,-86 230.37,-86 230.37,-122"/>
<text text-anchor="middle" x="182" y="-99.8" font-family="Times,serif" font-size="14.00">SideNavMenu</text>
</g>
<!-- SideNavMenu&#45;&gt;SideNavModule -->
<g id="edge4" class="edge">
<title>SideNavMenu&#45;&gt;SideNavModule</title>
<path fill="none" stroke="black" d="M230.53,-104C238.17,-104 243.59,-104 243.59,-104 243.59,-104 243.59,-140.89 243.59,-140.89"/>
<polygon fill="black" stroke="black" points="240.09,-140.89 243.59,-150.89 247.09,-140.89 240.09,-140.89"/>
</g>
<!-- SideNav  -->
<g id="node7" class="node">
<title>SideNav </title>
<polygon fill="#fb8072" stroke="black" points="425.71,-252 358.29,-252 358.29,-216 425.71,-216 425.71,-252"/>
<text text-anchor="middle" x="392" y="-229.8" font-family="Times,serif" font-size="14.00">SideNav </text>
</g>
<!-- SideNavModule&#45;&gt;SideNav  -->
<g id="edge6" class="edge">
<title>SideNavModule&#45;&gt;SideNav </title>
<path fill="none" stroke="black" stroke-dasharray="5,2" d="M343.28,-187.11C343.28,-206.34 343.28,-234 343.28,-234 343.28,-234 348.16,-234 348.16,-234"/>
<polygon fill="black" stroke="black" points="348.16,-237.5 358.16,-234 348.16,-230.5 348.16,-237.5"/>
</g>
<!-- SideNavItem  -->
<g id="node8" class="node">
<title>SideNavItem </title>
<polygon fill="#fb8072" stroke="black" points="339.87,-252 246.13,-252 246.13,-216 339.87,-216 339.87,-252"/>
<text text-anchor="middle" x="293" y="-229.8" font-family="Times,serif" font-size="14.00">SideNavItem </text>
</g>
<!-- SideNavModule&#45;&gt;SideNavItem  -->
<g id="edge7" class="edge">
<title>SideNavModule&#45;&gt;SideNavItem </title>
<path fill="none" stroke="black" stroke-dasharray="5,2" d="M293,-187.11C293,-187.11 293,-205.99 293,-205.99"/>
<polygon fill="black" stroke="black" points="289.5,-205.99 293,-215.99 296.5,-205.99 289.5,-205.99"/>
</g>
<!-- SideNavMenu  -->
<g id="node9" class="node">
<title>SideNavMenu </title>
<polygon fill="#fb8072" stroke="black" points="228.37,-252 127.63,-252 127.63,-216 228.37,-216 228.37,-252"/>
<text text-anchor="middle" x="178" y="-229.8" font-family="Times,serif" font-size="14.00">SideNavMenu </text>
</g>
<!-- SideNavModule&#45;&gt;SideNavMenu  -->
<g id="edge8" class="edge">
<title>SideNavModule&#45;&gt;SideNavMenu </title>
<path fill="none" stroke="black" stroke-dasharray="5,2" d="M242.72,-187.11C242.72,-206.34 242.72,-234 242.72,-234 242.72,-234 238.36,-234 238.36,-234"/>
<polygon fill="black" stroke="black" points="238.36,-230.5 228.36,-234 238.36,-237.5 238.36,-230.5"/>
</g>
<!-- I18nModule -->
<g id="node6" class="node">
<title>I18nModule</title>
<polygon fill="#8dd3c7" stroke="black" points="109.71,-122 106.71,-126 85.71,-126 82.71,-122 24.29,-122 24.29,-86 109.71,-86 109.71,-122"/>
<text text-anchor="middle" x="67" y="-99.8" font-family="Times,serif" font-size="14.00">I18nModule</text>
</g>
<!-- I18nModule&#45;&gt;SideNavModule -->
<g id="edge5" class="edge">
<title>I18nModule&#45;&gt;SideNavModule</title>
<path fill="none" stroke="black" d="M67,-122.11C67,-141.34 67,-169 67,-169 67,-169 229.15,-169 229.15,-169"/>
<polygon fill="black" stroke="black" points="229.15,-172.5 239.15,-169 229.15,-165.5 229.15,-172.5"/>
</g>
</g>
</svg>
