<?xml version="1.0" encoding="UTF-8" standalone="no"?>
<!DOCTYPE svg PUBLIC "-//W3C//DTD SVG 1.1//EN"
 "http://www.w3.org/Graphics/SVG/1.1/DTD/svg11.dtd">
<!-- Generated by graphviz version 2.47.0 (20210316.0004)
 -->
<!-- Title: dependencies Pages: 1 -->
<svg width="504pt" height="284pt"
 viewBox="0.00 0.00 504.00 284.00" xmlns="http://www.w3.org/2000/svg" xmlns:xlink="http://www.w3.org/1999/xlink">
<g id="graph0" class="graph" transform="scale(1 1) rotate(0) translate(4 280)">
<title>dependencies</title>
<polygon fill="white" stroke="transparent" points="-4,4 -4,-280 500,-280 500,4 -4,4"/>
<text text-anchor="start" x="227.01" y="-42.4" font-family="Times-12" font-weight="bold" font-size="14.00">Legend</text>
<polygon fill="#ffffb3" stroke="transparent" points="14,-10 14,-30 34,-30 34,-10 14,-10"/>
<text text-anchor="start" x="37.63" y="-15.4" font-family="Times-12" font-size="14.00"> &#160;Declarations</text>
<polygon fill="#8dd3c7" stroke="transparent" points="127,-10 127,-30 147,-30 147,-10 127,-10"/>
<text text-anchor="start" x="150.73" y="-15.4" font-family="Times-12" font-size="14.00"> &#160;Module</text>
<polygon fill="#80b1d3" stroke="transparent" points="213,-10 213,-30 233,-30 233,-10 213,-10"/>
<text text-anchor="start" x="236.78" y="-15.4" font-family="Times-12" font-size="14.00"> &#160;Bootstrap</text>
<polygon fill="#fdb462" stroke="transparent" points="310,-10 310,-30 330,-30 330,-10 310,-10"/>
<text text-anchor="start" x="333.67" y="-15.4" font-family="Times-12" font-size="14.00"> &#160;Providers</text>
<polygon fill="#fb8072" stroke="transparent" points="406,-10 406,-30 426,-30 426,-10 406,-10"/>
<text text-anchor="start" x="429.73" y="-15.4" font-family="Times-12" font-size="14.00"> &#160;Exports</text>
<g id="clust1" class="cluster">
<title>cluster_ContentSwitcherModule</title>
<polygon fill="none" stroke="black" stroke-dasharray="1,5" points="90,-70 90,-268 406,-268 406,-70 90,-70"/>
</g>
<g id="clust6" class="cluster">
<title>cluster_ContentSwitcherModule_exports</title>
<polygon fill="none" stroke="black" points="98,-208 98,-260 398,-260 398,-208 98,-208"/>
</g>
<g id="clust2" class="cluster">
<title>cluster_ContentSwitcherModule_declarations</title>
<polygon fill="none" stroke="black" points="102,-78 102,-130 395,-130 395,-78 102,-78"/>
</g>
<!-- ContentSwitcher -->
<g id="node1" class="node">
<title>ContentSwitcher</title>
<polygon fill="#ffffb3" stroke="black" points="387.09,-122 276.91,-122 276.91,-86 387.09,-86 387.09,-122"/>
<text text-anchor="middle" x="332" y="-99.8" font-family="Times,serif" font-size="14.00">ContentSwitcher</text>
</g>
<!-- ContentSwitcherModule -->
<g id="node3" class="node">
<title>ContentSwitcherModule</title>
<polygon fill="#8dd3c7" stroke="black" points="261.64,-187 258.64,-191 237.64,-191 234.64,-187 108.36,-187 108.36,-151 261.64,-151 261.64,-187"/>
<text text-anchor="middle" x="185" y="-164.8" font-family="Times,serif" font-size="14.00">ContentSwitcherModule</text>
</g>
<!-- ContentSwitcher&#45;&gt;ContentSwitcherModule -->
<g id="edge1" class="edge">
<title>ContentSwitcher&#45;&gt;ContentSwitcherModule</title>
<path fill="none" stroke="black" d="M350.35,-122.02C350.35,-139.37 350.35,-163 350.35,-163 350.35,-163 271.87,-163 271.87,-163"/>
<polygon fill="black" stroke="black" points="271.87,-159.5 261.87,-163 271.87,-166.5 271.87,-159.5"/>
</g>
<!-- ContentSwitcherOption -->
<g id="node2" class="node">
<title>ContentSwitcherOption</title>
<polygon fill="#ffffb3" stroke="black" points="258.48,-122 109.52,-122 109.52,-86 258.48,-86 258.48,-122"/>
<text text-anchor="middle" x="184" y="-99.8" font-family="Times,serif" font-size="14.00">ContentSwitcherOption</text>
</g>
<!-- ContentSwitcherOption&#45;&gt;ContentSwitcherModule -->
<g id="edge2" class="edge">
<title>ContentSwitcherOption&#45;&gt;ContentSwitcherModule</title>
<path fill="none" stroke="black" d="M184,-122.11C184,-122.11 184,-140.99 184,-140.99"/>
<polygon fill="black" stroke="black" points="180.5,-140.99 184,-150.99 187.5,-140.99 180.5,-140.99"/>
</g>
<!-- ContentSwitcher  -->
<g id="node4" class="node">
<title>ContentSwitcher </title>
<polygon fill="#fb8072" stroke="black" points="389.59,-252 276.41,-252 276.41,-216 389.59,-216 389.59,-252"/>
<text text-anchor="middle" x="333" y="-229.8" font-family="Times,serif" font-size="14.00">ContentSwitcher </text>
</g>
<!-- ContentSwitcherModule&#45;&gt;ContentSwitcher  -->
<g id="edge3" class="edge">
<title>ContentSwitcherModule&#45;&gt;ContentSwitcher </title>
<path fill="none" stroke="black" stroke-dasharray="5,2" d="M261.69,-175C289.25,-175 313.65,-175 313.65,-175 313.65,-175 313.65,-205.98 313.65,-205.98"/>
<polygon fill="black" stroke="black" points="310.15,-205.98 313.65,-215.98 317.15,-205.98 310.15,-205.98"/>
</g>
<!-- ContentSwitcherOption  -->
<g id="node5" class="node">
<title>ContentSwitcherOption </title>
<polygon fill="#fb8072" stroke="black" points="258.48,-252 105.52,-252 105.52,-216 258.48,-216 258.48,-252"/>
<text text-anchor="middle" x="182" y="-229.8" font-family="Times,serif" font-size="14.00">ContentSwitcherOption </text>
</g>
<!-- ContentSwitcherModule&#45;&gt;ContentSwitcherOption  -->
<g id="edge4" class="edge">
<title>ContentSwitcherModule&#45;&gt;ContentSwitcherOption </title>
<path fill="none" stroke="black" stroke-dasharray="5,2" d="M183.21,-187.11C183.21,-187.11 183.21,-205.99 183.21,-205.99"/>
<polygon fill="black" stroke="black" points="179.71,-205.99 183.21,-215.99 186.71,-205.99 179.71,-205.99"/>
</g>
</g>
</svg>
