<?xml version="1.0" encoding="UTF-8" standalone="no"?>
<!DOCTYPE svg PUBLIC "-//W3C//DTD SVG 1.1//EN"
 "http://www.w3.org/Graphics/SVG/1.1/DTD/svg11.dtd">
<!-- Generated by graphviz version 2.40.1 (20161225.0304)
 -->
<!-- Title: dependencies Pages: 1 -->
<svg width="641pt" height="284pt"
 viewBox="0.00 0.00 641.00 284.00" xmlns="http://www.w3.org/2000/svg" xmlns:xlink="http://www.w3.org/1999/xlink">
<g id="graph0" class="graph" transform="scale(1 1) rotate(0) translate(4 280)">
<title>dependencies</title>
<polygon fill="#ffffff" stroke="transparent" points="-4,4 -4,-280 637,-280 637,4 -4,4"/>
<text text-anchor="start" x="295.5091" y="-42.4" font-family="sans-serif" font-weight="bold" font-size="14.00" fill="#000000">Legend</text>
<polygon fill="#ffffb3" stroke="transparent" points="82.5,-10 82.5,-30 102.5,-30 102.5,-10 82.5,-10"/>
<text text-anchor="start" x="106.129" y="-15.4" font-family="sans-serif" font-size="14.00" fill="#000000"> &#160;Declarations</text>
<polygon fill="#8dd3c7" stroke="transparent" points="195.5,-10 195.5,-30 215.5,-30 215.5,-10 195.5,-10"/>
<text text-anchor="start" x="219.2251" y="-15.4" font-family="sans-serif" font-size="14.00" fill="#000000"> &#160;Module</text>
<polygon fill="#80b1d3" stroke="transparent" points="281.5,-10 281.5,-30 301.5,-30 301.5,-10 281.5,-10"/>
<text text-anchor="start" x="305.2812" y="-15.4" font-family="sans-serif" font-size="14.00" fill="#000000"> &#160;Bootstrap</text>
<polygon fill="#fdb462" stroke="transparent" points="378.5,-10 378.5,-30 398.5,-30 398.5,-10 378.5,-10"/>
<text text-anchor="start" x="402.1732" y="-15.4" font-family="sans-serif" font-size="14.00" fill="#000000"> &#160;Providers</text>
<polygon fill="#fb8072" stroke="transparent" points="474.5,-10 474.5,-30 494.5,-30 494.5,-10 474.5,-10"/>
<text text-anchor="start" x="498.2258" y="-15.4" font-family="sans-serif" font-size="14.00" fill="#000000"> &#160;Exports</text>
<g id="clust1" class="cluster">
<title>cluster_NFormsModule</title>
<polygon fill="none" stroke="#000000" stroke-dasharray="1,5" points="8,-70 8,-268 625,-268 625,-70 8,-70"/>
</g>
<g id="clust3" class="cluster">
<title>cluster_NFormsModule_imports</title>
<polygon fill="none" stroke="#000000" points="25,-78 25,-130 609,-130 609,-78 25,-78"/>
</g>
<g id="clust4" class="cluster">
<title>cluster_NFormsModule_exports</title>
<polygon fill="none" stroke="#000000" points="16,-208 16,-260 617,-260 617,-208 16,-208"/>
</g>
<!-- ButtonModule -->
<g id="node1" class="node">
<title>ButtonModule</title>
<polygon fill="#8dd3c7" stroke="#000000" points="600.6682,-122 597.6682,-126 576.6682,-126 573.6682,-122 503.3318,-122 503.3318,-86 600.6682,-86 600.6682,-122"/>
<text text-anchor="middle" x="552" y="-99.8" font-family="Times,serif" font-size="14.00" fill="#000000">ButtonModule</text>
</g>
<!-- NFormsModule -->
<g id="node6" class="node">
<title>NFormsModule</title>
<polygon fill="#8dd3c7" stroke="#000000" points="358.9357,-187 355.9357,-191 334.9357,-191 331.9357,-187 253.0643,-187 253.0643,-151 358.9357,-151 358.9357,-187"/>
<text text-anchor="middle" x="306" y="-164.8" font-family="Times,serif" font-size="14.00" fill="#000000">NFormsModule</text>
</g>
<!-- ButtonModule&#45;&gt;NFormsModule -->
<g id="edge1" class="edge">
<title>ButtonModule&#45;&gt;NFormsModule</title>
<path fill="none" stroke="#000000" d="M569.6946,-122.027C569.6946,-138.3976 569.6946,-160 569.6946,-160 569.6946,-160 368.7288,-160 368.7288,-160"/>
<polygon fill="#000000" stroke="#000000" points="368.7288,-156.5001 358.7288,-160 368.7287,-163.5001 368.7288,-156.5001"/>
</g>
<!-- CheckboxModule -->
<g id="node2" class="node">
<title>CheckboxModule</title>
<polygon fill="#8dd3c7" stroke="#000000" points="485.316,-122 482.316,-126 461.316,-126 458.316,-122 368.684,-122 368.684,-86 485.316,-86 485.316,-122"/>
<text text-anchor="middle" x="427" y="-99.8" font-family="Times,serif" font-size="14.00" fill="#000000">CheckboxModule</text>
</g>
<!-- CheckboxModule&#45;&gt;NFormsModule -->
<g id="edge2" class="edge">
<title>CheckboxModule&#45;&gt;NFormsModule</title>
<path fill="none" stroke="#000000" d="M368.5869,-104C360.3582,-104 354.634,-104 354.634,-104 354.634,-104 354.634,-140.8939 354.634,-140.8939"/>
<polygon fill="#000000" stroke="#000000" points="351.134,-140.8938 354.634,-150.8939 358.134,-140.8939 351.134,-140.8938"/>
</g>
<!-- InputModule -->
<g id="node3" class="node">
<title>InputModule</title>
<polygon fill="#8dd3c7" stroke="#000000" points="350.6011,-122 347.6011,-126 326.6011,-126 323.6011,-122 261.3989,-122 261.3989,-86 350.6011,-86 350.6011,-122"/>
<text text-anchor="middle" x="306" y="-99.8" font-family="Times,serif" font-size="14.00" fill="#000000">InputModule</text>
</g>
<!-- InputModule&#45;&gt;NFormsModule -->
<g id="edge3" class="edge">
<title>InputModule&#45;&gt;NFormsModule</title>
<path fill="none" stroke="#000000" d="M306,-122.1061C306,-122.1061 306,-140.991 306,-140.991"/>
<polygon fill="#000000" stroke="#000000" points="302.5001,-140.9909 306,-150.991 309.5001,-140.991 302.5001,-140.9909"/>
</g>
<!-- RadioModule -->
<g id="node4" class="node">
<title>RadioModule</title>
<polygon fill="#8dd3c7" stroke="#000000" points="243.4916,-122 240.4916,-126 219.4916,-126 216.4916,-122 150.5084,-122 150.5084,-86 243.4916,-86 243.4916,-122"/>
<text text-anchor="middle" x="197" y="-99.8" font-family="Times,serif" font-size="14.00" fill="#000000">RadioModule</text>
</g>
<!-- RadioModule&#45;&gt;NFormsModule -->
<g id="edge4" class="edge">
<title>RadioModule&#45;&gt;NFormsModule</title>
<path fill="none" stroke="#000000" d="M243.6681,-104C251.6174,-104 257.366,-104 257.366,-104 257.366,-104 257.366,-140.8939 257.366,-140.8939"/>
<polygon fill="#000000" stroke="#000000" points="253.8661,-140.8938 257.366,-150.8939 260.8661,-140.8939 253.8661,-140.8938"/>
</g>
<!-- ToggleModule -->
<g id="node5" class="node">
<title>ToggleModule</title>
<polygon fill="#8dd3c7" stroke="#000000" points="132.7078,-122 129.7078,-126 108.7078,-126 105.7078,-122 33.2922,-122 33.2922,-86 132.7078,-86 132.7078,-122"/>
<text text-anchor="middle" x="83" y="-99.8" font-family="Times,serif" font-size="14.00" fill="#000000">ToggleModule</text>
</g>
<!-- ToggleModule&#45;&gt;NFormsModule -->
<g id="edge5" class="edge">
<title>ToggleModule&#45;&gt;NFormsModule</title>
<path fill="none" stroke="#000000" d="M95.3679,-122.027C95.3679,-138.3976 95.3679,-160 95.3679,-160 95.3679,-160 243.1205,-160 243.1205,-160"/>
<polygon fill="#000000" stroke="#000000" points="243.1205,-163.5001 253.1205,-160 243.1205,-156.5001 243.1205,-163.5001"/>
</g>
<!-- ButtonModule  -->
<g id="node7" class="node">
<title>ButtonModule </title>
<polygon fill="#fb8072" stroke="#000000" points="608.6677,-252 507.3323,-252 507.3323,-216 608.6677,-216 608.6677,-252"/>
<text text-anchor="middle" x="558" y="-229.8" font-family="Times,serif" font-size="14.00" fill="#000000">ButtonModule </text>
</g>
<!-- NFormsModule&#45;&gt;ButtonModule  -->
<g id="edge6" class="edge">
<title>NFormsModule&#45;&gt;ButtonModule </title>
<path fill="none" stroke="#000000" stroke-dasharray="5,2" d="M358.7704,-169C427.384,-169 538.5554,-169 538.5554,-169 538.5554,-169 538.5554,-205.8939 538.5554,-205.8939"/>
<polygon fill="#000000" stroke="#000000" points="535.0555,-205.8938 538.5554,-215.8939 542.0555,-205.8939 535.0555,-205.8938"/>
</g>
<!-- CheckboxModule  -->
<g id="node8" class="node">
<title>CheckboxModule </title>
<polygon fill="#fb8072" stroke="#000000" points="489.8157,-252 370.1843,-252 370.1843,-216 489.8157,-216 489.8157,-252"/>
<text text-anchor="middle" x="430" y="-229.8" font-family="Times,serif" font-size="14.00" fill="#000000">CheckboxModule </text>
</g>
<!-- NFormsModule&#45;&gt;CheckboxModule  -->
<g id="edge7" class="edge">
<title>NFormsModule&#45;&gt;CheckboxModule </title>
<path fill="none" stroke="#000000" stroke-dasharray="5,2" d="M358.9927,-178C391.7681,-178 427.625,-178 427.625,-178 427.625,-178 427.625,-205.973 427.625,-205.973"/>
<polygon fill="#000000" stroke="#000000" points="424.1251,-205.973 427.625,-215.973 431.1251,-205.973 424.1251,-205.973"/>
</g>
<!-- InputModule  -->
<g id="node9" class="node">
<title>InputModule </title>
<polygon fill="#fb8072" stroke="#000000" points="352.1019,-252 259.8981,-252 259.8981,-216 352.1019,-216 352.1019,-252"/>
<text text-anchor="middle" x="306" y="-229.8" font-family="Times,serif" font-size="14.00" fill="#000000">InputModule </text>
</g>
<!-- NFormsModule&#45;&gt;InputModule  -->
<g id="edge8" class="edge">
<title>NFormsModule&#45;&gt;InputModule </title>
<path fill="none" stroke="#000000" stroke-dasharray="5,2" d="M306,-187.1061C306,-187.1061 306,-205.991 306,-205.991"/>
<polygon fill="#000000" stroke="#000000" points="302.5001,-205.9909 306,-215.991 309.5001,-205.991 302.5001,-205.9909"/>
</g>
<!-- RadioModule  -->
<g id="node10" class="node">
<title>RadioModule </title>
<polygon fill="#fb8072" stroke="#000000" points="241.4929,-252 144.5071,-252 144.5071,-216 241.4929,-216 241.4929,-252"/>
<text text-anchor="middle" x="193" y="-229.8" font-family="Times,serif" font-size="14.00" fill="#000000">RadioModule </text>
</g>
<!-- NFormsModule&#45;&gt;RadioModule  -->
<g id="edge9" class="edge">
<title>NFormsModule&#45;&gt;RadioModule </title>
<path fill="none" stroke="#000000" stroke-dasharray="5,2" d="M253.1954,-178C224.9324,-178 195.875,-178 195.875,-178 195.875,-178 195.875,-205.973 195.875,-205.973"/>
<polygon fill="#000000" stroke="#000000" points="192.3751,-205.973 195.875,-215.973 199.3751,-205.973 192.3751,-205.973"/>
</g>
<!-- ToggleModule  -->
<g id="node11" class="node">
<title>ToggleModule </title>
<polygon fill="#fb8072" stroke="#000000" points="126.208,-252 23.792,-252 23.792,-216 126.208,-216 126.208,-252"/>
<text text-anchor="middle" x="75" y="-229.8" font-family="Times,serif" font-size="14.00" fill="#000000">ToggleModule </text>
</g>
<!-- NFormsModule&#45;&gt;ToggleModule  -->
<g id="edge10" class="edge">
<title>NFormsModule&#45;&gt;ToggleModule </title>
<path fill="none" stroke="#000000" stroke-dasharray="5,2" d="M253.2745,-169C182.181,-169 64.3821,-169 64.3821,-169 64.3821,-169 64.3821,-205.8939 64.3821,-205.8939"/>
<polygon fill="#000000" stroke="#000000" points="60.8822,-205.8938 64.3821,-215.8939 67.8822,-205.8939 60.8822,-205.8938"/>
</g>
</g>
</svg>
