<?xml version="1.0" encoding="UTF-8" standalone="no"?>
<!DOCTYPE svg PUBLIC "-//W3C//DTD SVG 1.1//EN"
 "http://www.w3.org/Graphics/SVG/1.1/DTD/svg11.dtd">
<!-- Generated by graphviz version 2.47.0 (20210316.0004)
 -->
<!-- Title: dependencies Pages: 1 -->
<svg width="504pt" height="284pt"
 viewBox="0.00 0.00 504.00 284.00" xmlns="http://www.w3.org/2000/svg" xmlns:xlink="http://www.w3.org/1999/xlink">
<g id="graph0" class="graph" transform="scale(1 1) rotate(0) translate(4 280)">
<title>dependencies</title>
<polygon fill="white" stroke="transparent" points="-4,4 -4,-280 500,-280 500,4 -4,4"/>
<text text-anchor="start" x="227.01" y="-42.4" font-family="Times-12" font-weight="bold" font-size="14.00">Legend</text>
<polygon fill="#ffffb3" stroke="transparent" points="14,-10 14,-30 34,-30 34,-10 14,-10"/>
<text text-anchor="start" x="37.63" y="-15.4" font-family="Times-12" font-size="14.00"> &#160;Declarations</text>
<polygon fill="#8dd3c7" stroke="transparent" points="127,-10 127,-30 147,-30 147,-10 127,-10"/>
<text text-anchor="start" x="150.73" y="-15.4" font-family="Times-12" font-size="14.00"> &#160;Module</text>
<polygon fill="#80b1d3" stroke="transparent" points="213,-10 213,-30 233,-30 233,-10 213,-10"/>
<text text-anchor="start" x="236.78" y="-15.4" font-family="Times-12" font-size="14.00"> &#160;Bootstrap</text>
<polygon fill="#fdb462" stroke="transparent" points="310,-10 310,-30 330,-30 330,-10 310,-10"/>
<text text-anchor="start" x="333.67" y="-15.4" font-family="Times-12" font-size="14.00"> &#160;Providers</text>
<polygon fill="#fb8072" stroke="transparent" points="406,-10 406,-30 426,-30 426,-10 406,-10"/>
<text text-anchor="start" x="429.73" y="-15.4" font-family="Times-12" font-size="14.00"> &#160;Exports</text>
<g id="clust1" class="cluster">
<title>cluster_AccordionModule</title>
<polygon fill="none" stroke="black" stroke-dasharray="1,5" points="81,-70 81,-268 415,-268 415,-70 81,-70"/>
</g>
<g id="clust2" class="cluster">
<title>cluster_AccordionModule_declarations</title>
<polygon fill="none" stroke="black" points="197,-78 197,-130 407,-130 407,-78 197,-78"/>
</g>
<g id="clust6" class="cluster">
<title>cluster_AccordionModule_exports</title>
<polygon fill="none" stroke="black" points="140,-208 140,-260 356,-260 356,-208 140,-208"/>
</g>
<g id="clust5" class="cluster">
<title>cluster_AccordionModule_imports</title>
<polygon fill="none" stroke="black" points="89,-78 89,-130 189,-130 189,-78 89,-78"/>
</g>
<!-- Accordion -->
<g id="node1" class="node">
<title>Accordion</title>
<polygon fill="#ffffb3" stroke="black" points="398.59,-122 323.41,-122 323.41,-86 398.59,-86 398.59,-122"/>
<text text-anchor="middle" x="361" y="-99.8" font-family="Times,serif" font-size="14.00">Accordion</text>
</g>
<!-- AccordionModule -->
<g id="node3" class="node">
<title>AccordionModule</title>
<polygon fill="#8dd3c7" stroke="black" points="314.14,-187 311.14,-191 290.14,-191 287.14,-187 195.86,-187 195.86,-151 314.14,-151 314.14,-187"/>
<text text-anchor="middle" x="255" y="-164.8" font-family="Times,serif" font-size="14.00">AccordionModule</text>
</g>
<!-- Accordion&#45;&gt;AccordionModule -->
<g id="edge1" class="edge">
<title>Accordion&#45;&gt;AccordionModule</title>
<path fill="none" stroke="black" d="M323.29,-104C315.62,-104 309.85,-104 309.85,-104 309.85,-104 309.85,-140.89 309.85,-140.89"/>
<polygon fill="black" stroke="black" points="306.35,-140.89 309.85,-150.89 313.35,-140.89 306.35,-140.89"/>
</g>
<!-- AccordionItem -->
<g id="node2" class="node">
<title>AccordionItem</title>
<polygon fill="#ffffb3" stroke="black" points="305.24,-122 204.76,-122 204.76,-86 305.24,-86 305.24,-122"/>
<text text-anchor="middle" x="255" y="-99.8" font-family="Times,serif" font-size="14.00">AccordionItem</text>
</g>
<!-- AccordionItem&#45;&gt;AccordionModule -->
<g id="edge2" class="edge">
<title>AccordionItem&#45;&gt;AccordionModule</title>
<path fill="none" stroke="black" d="M255,-122.11C255,-122.11 255,-140.99 255,-140.99"/>
<polygon fill="black" stroke="black" points="251.5,-140.99 255,-150.99 258.5,-140.99 251.5,-140.99"/>
</g>
<!-- Accordion  -->
<g id="node5" class="node">
<title>Accordion </title>
<polygon fill="#fb8072" stroke="black" points="348.09,-252 269.91,-252 269.91,-216 348.09,-216 348.09,-252"/>
<text text-anchor="middle" x="309" y="-229.8" font-family="Times,serif" font-size="14.00">Accordion </text>
</g>
<!-- AccordionModule&#45;&gt;Accordion  -->
<g id="edge4" class="edge">
<title>AccordionModule&#45;&gt;Accordion </title>
<path fill="none" stroke="black" stroke-dasharray="5,2" d="M292.01,-187.11C292.01,-187.11 292.01,-205.99 292.01,-205.99"/>
<polygon fill="black" stroke="black" points="288.51,-205.99 292.01,-215.99 295.51,-205.99 288.51,-205.99"/>
</g>
<!-- AccordionItem  -->
<g id="node6" class="node">
<title>AccordionItem </title>
<polygon fill="#fb8072" stroke="black" points="252.24,-252 147.76,-252 147.76,-216 252.24,-216 252.24,-252"/>
<text text-anchor="middle" x="200" y="-229.8" font-family="Times,serif" font-size="14.00">AccordionItem </text>
</g>
<!-- AccordionModule&#45;&gt;AccordionItem  -->
<g id="edge5" class="edge">
<title>AccordionModule&#45;&gt;AccordionItem </title>
<path fill="none" stroke="black" stroke-dasharray="5,2" d="M223.9,-187.11C223.9,-187.11 223.9,-205.99 223.9,-205.99"/>
<polygon fill="black" stroke="black" points="220.4,-205.99 223.9,-215.99 227.4,-205.99 220.4,-205.99"/>
</g>
<!-- IconModule -->
<g id="node4" class="node">
<title>IconModule</title>
<polygon fill="#8dd3c7" stroke="black" points="181.43,-122 178.43,-126 157.43,-126 154.43,-122 96.57,-122 96.57,-86 181.43,-86 181.43,-122"/>
<text text-anchor="middle" x="139" y="-99.8" font-family="Times,serif" font-size="14.00">IconModule</text>
</g>
<!-- IconModule&#45;&gt;AccordionModule -->
<g id="edge3" class="edge">
<title>IconModule&#45;&gt;AccordionModule</title>
<path fill="none" stroke="black" d="M181.47,-104C191.91,-104 200.15,-104 200.15,-104 200.15,-104 200.15,-140.89 200.15,-140.89"/>
<polygon fill="black" stroke="black" points="196.66,-140.89 200.15,-150.89 203.66,-140.89 196.66,-140.89"/>
</g>
</g>
</svg>
