<?xml version="1.0" encoding="UTF-8" standalone="no"?>
<!DOCTYPE svg PUBLIC "-//W3C//DTD SVG 1.1//EN"
 "http://www.w3.org/Graphics/SVG/1.1/DTD/svg11.dtd">
<!-- Generated by graphviz version 2.40.1 (20161225.0304)
 -->
<!-- Title: dependencies Pages: 1 -->
<svg width="504pt" height="396pt"
 viewBox="0.00 0.00 504.00 395.59" xmlns="http://www.w3.org/2000/svg" xmlns:xlink="http://www.w3.org/1999/xlink">
<g id="graph0" class="graph" transform="scale(1 1) rotate(0) translate(4 391.5901)">
<title>dependencies</title>
<polygon fill="#ffffff" stroke="transparent" points="-4,4 -4,-391.5901 500,-391.5901 500,4 -4,4"/>
<text text-anchor="start" x="227.0091" y="-42.4" font-family="sans-serif" font-weight="bold" font-size="14.00" fill="#000000">Legend</text>
<polygon fill="#ffffb3" stroke="transparent" points="14,-10 14,-30 34,-30 34,-10 14,-10"/>
<text text-anchor="start" x="37.629" y="-15.4" font-family="sans-serif" font-size="14.00" fill="#000000"> &#160;Declarations</text>
<polygon fill="#8dd3c7" stroke="transparent" points="127,-10 127,-30 147,-30 147,-10 127,-10"/>
<text text-anchor="start" x="150.7251" y="-15.4" font-family="sans-serif" font-size="14.00" fill="#000000"> &#160;Module</text>
<polygon fill="#80b1d3" stroke="transparent" points="213,-10 213,-30 233,-30 233,-10 213,-10"/>
<text text-anchor="start" x="236.7812" y="-15.4" font-family="sans-serif" font-size="14.00" fill="#000000"> &#160;Bootstrap</text>
<polygon fill="#fdb462" stroke="transparent" points="310,-10 310,-30 330,-30 330,-10 310,-10"/>
<text text-anchor="start" x="333.6732" y="-15.4" font-family="sans-serif" font-size="14.00" fill="#000000"> &#160;Providers</text>
<polygon fill="#fb8072" stroke="transparent" points="406,-10 406,-30 426,-30 426,-10 406,-10"/>
<text text-anchor="start" x="429.7258" y="-15.4" font-family="sans-serif" font-size="14.00" fill="#000000"> &#160;Exports</text>
<g id="clust1" class="cluster">
<title>cluster_ToggleModule</title>
<polygon fill="none" stroke="#000000" stroke-dasharray="1,5" points="170,-70 170,-379.5901 326,-379.5901 326,-70 170,-70"/>
</g>
<g id="clust2" class="cluster">
<title>cluster_ToggleModule_declarations</title>
<polygon fill="none" stroke="#000000" points="212,-189.5901 212,-241.5901 284,-241.5901 284,-189.5901 212,-189.5901"/>
</g>
<g id="clust3" class="cluster">
<title>cluster_ToggleModule_Toggle_providers</title>
<polygon fill="none" stroke="#000000" points="178,-78 178,-176.5901 318,-176.5901 318,-78 178,-78"/>
</g>
<g id="clust5" class="cluster">
<title>cluster_ToggleModule_exports</title>
<polygon fill="none" stroke="#000000" points="210,-319.5901 210,-371.5901 286,-371.5901 286,-319.5901 210,-319.5901"/>
</g>
<!-- Toggle -->
<g id="node1" class="node">
<title>Toggle</title>
<polygon fill="#ffffb3" stroke="#000000" points="275.6588,-233.5901 220.3412,-233.5901 220.3412,-197.5901 275.6588,-197.5901 275.6588,-233.5901"/>
<text text-anchor="middle" x="248" y="-211.3901" font-family="Times,serif" font-size="14.00" fill="#000000">Toggle</text>
</g>
<!-- ToggleModule -->
<g id="node2" class="node">
<title>ToggleModule</title>
<polygon fill="#8dd3c7" stroke="#000000" points="297.7078,-298.5901 294.7078,-302.5901 273.7078,-302.5901 270.7078,-298.5901 198.2922,-298.5901 198.2922,-262.5901 297.7078,-262.5901 297.7078,-298.5901"/>
<text text-anchor="middle" x="248" y="-276.3901" font-family="Times,serif" font-size="14.00" fill="#000000">ToggleModule</text>
</g>
<!-- Toggle&#45;&gt;ToggleModule -->
<g id="edge1" class="edge">
<title>Toggle&#45;&gt;ToggleModule</title>
<path fill="none" stroke="#000000" d="M248,-233.6962C248,-233.6962 248,-252.581 248,-252.581"/>
<polygon fill="#000000" stroke="#000000" points="244.5001,-252.581 248,-262.581 251.5001,-252.5811 244.5001,-252.581"/>
</g>
<!-- Toggle  -->
<g id="node4" class="node">
<title>Toggle </title>
<polygon fill="#fb8072" stroke="#000000" points="277.658,-363.5901 218.342,-363.5901 218.342,-327.5901 277.658,-327.5901 277.658,-363.5901"/>
<text text-anchor="middle" x="248" y="-341.3901" font-family="Times,serif" font-size="14.00" fill="#000000">Toggle </text>
</g>
<!-- ToggleModule&#45;&gt;Toggle  -->
<g id="edge3" class="edge">
<title>ToggleModule&#45;&gt;Toggle </title>
<path fill="none" stroke="#000000" stroke-dasharray="5,2" d="M248,-298.6962C248,-298.6962 248,-317.581 248,-317.581"/>
<polygon fill="#000000" stroke="#000000" points="244.5001,-317.581 248,-327.581 251.5001,-317.5811 244.5001,-317.581"/>
</g>
<!-- {
 &#160;&#160;&#160;: , : , : true
} -->
<g id="node3" class="node">
<title>{
 &#160;&#160;&#160;: , : , : true
}</title>
<ellipse fill="#fdb462" stroke="#000000" cx="248" cy="-127.295" rx="62.3631" ry="41.0911"/>
<text text-anchor="middle" x="248" y="-139.895" font-family="Times,serif" font-size="14.00" fill="#000000">{</text>
<text text-anchor="middle" x="248" y="-123.095" font-family="Times,serif" font-size="14.00" fill="#000000"> &#160;&#160;&#160;: , : , : true</text>
<text text-anchor="middle" x="248" y="-106.295" font-family="Times,serif" font-size="14.00" fill="#000000">}</text>
</g>
<!-- {
 &#160;&#160;&#160;: , : , : true
}&#45;&gt;Toggle -->
<g id="edge2" class="edge">
<title>{
 &#160;&#160;&#160;: , : , : true
}&#45;&gt;Toggle</title>
<path fill="none" stroke="#000000" d="M248,-168.5989C248,-168.5989 248,-187.2551 248,-187.2551"/>
<polygon fill="#000000" stroke="#000000" points="244.5001,-187.255 248,-197.2551 251.5001,-187.2551 244.5001,-187.255"/>
</g>
</g>
</svg>
