<?xml version="1.0" encoding="UTF-8" standalone="no"?>
<!DOCTYPE svg PUBLIC "-//W3C//DTD SVG 1.1//EN"
 "http://www.w3.org/Graphics/SVG/1.1/DTD/svg11.dtd">
<!-- Generated by graphviz version 2.40.1 (20161225.0304)
 -->
<!-- Title: dependencies Pages: 1 -->
<svg width="824pt" height="284pt"
 viewBox="0.00 0.00 824.00 284.00" xmlns="http://www.w3.org/2000/svg" xmlns:xlink="http://www.w3.org/1999/xlink">
<g id="graph0" class="graph" transform="scale(1 1) rotate(0) translate(4 280)">
<title>dependencies</title>
<polygon fill="#ffffff" stroke="transparent" points="-4,4 -4,-280 820,-280 820,4 -4,4"/>
<text text-anchor="start" x="387.0091" y="-42.4" font-family="sans-serif" font-weight="bold" font-size="14.00" fill="#000000">Legend</text>
<polygon fill="#ffffb3" stroke="transparent" points="174,-10 174,-30 194,-30 194,-10 174,-10"/>
<text text-anchor="start" x="197.629" y="-15.4" font-family="sans-serif" font-size="14.00" fill="#000000"> &#160;Declarations</text>
<polygon fill="#8dd3c7" stroke="transparent" points="287,-10 287,-30 307,-30 307,-10 287,-10"/>
<text text-anchor="start" x="310.7251" y="-15.4" font-family="sans-serif" font-size="14.00" fill="#000000"> &#160;Module</text>
<polygon fill="#80b1d3" stroke="transparent" points="373,-10 373,-30 393,-30 393,-10 373,-10"/>
<text text-anchor="start" x="396.7812" y="-15.4" font-family="sans-serif" font-size="14.00" fill="#000000"> &#160;Bootstrap</text>
<polygon fill="#fdb462" stroke="transparent" points="470,-10 470,-30 490,-30 490,-10 470,-10"/>
<text text-anchor="start" x="493.6732" y="-15.4" font-family="sans-serif" font-size="14.00" fill="#000000"> &#160;Providers</text>
<polygon fill="#fb8072" stroke="transparent" points="566,-10 566,-30 586,-30 586,-10 566,-10"/>
<text text-anchor="start" x="589.7258" y="-15.4" font-family="sans-serif" font-size="14.00" fill="#000000"> &#160;Exports</text>
<g id="clust1" class="cluster">
<title>cluster_PanelModule</title>
<polygon fill="none" stroke="#000000" stroke-dasharray="1,5" points="8,-70 8,-268 808,-268 808,-70 8,-70"/>
</g>
<g id="clust2" class="cluster">
<title>cluster_PanelModule_declarations</title>
<polygon fill="none" stroke="#000000" points="126,-78 126,-130 800,-130 800,-78 126,-78"/>
</g>
<g id="clust8" class="cluster">
<title>cluster_PanelModule_imports</title>
<polygon fill="none" stroke="#000000" points="16,-78 16,-130 118,-130 118,-78 16,-78"/>
</g>
<g id="clust9" class="cluster">
<title>cluster_PanelModule_exports</title>
<polygon fill="none" stroke="#000000" points="64,-208 64,-260 752,-260 752,-208 64,-208"/>
</g>
<!-- Panel -->
<g id="node1" class="node">
<title>Panel</title>
<polygon fill="#ffffb3" stroke="#000000" points="792,-122 738,-122 738,-86 792,-86 792,-122"/>
<text text-anchor="middle" x="765" y="-99.8" font-family="Times,serif" font-size="14.00" fill="#000000">Panel</text>
</g>
<!-- PanelModule -->
<g id="node6" class="node">
<title>PanelModule</title>
<polygon fill="#8dd3c7" stroke="#000000" points="517.1529,-187 514.1529,-191 493.1529,-191 490.1529,-187 426.8471,-187 426.8471,-151 517.1529,-151 517.1529,-187"/>
<text text-anchor="middle" x="472" y="-164.8" font-family="Times,serif" font-size="14.00" fill="#000000">PanelModule</text>
</g>
<!-- Panel&#45;&gt;PanelModule -->
<g id="edge1" class="edge">
<title>Panel&#45;&gt;PanelModule</title>
<path fill="none" stroke="#000000" d="M768,-122.2667C768,-140.5552 768,-166 768,-166 768,-166 527.2782,-166 527.2782,-166"/>
<polygon fill="#000000" stroke="#000000" points="527.2783,-162.5001 517.2782,-166 527.2782,-169.5001 527.2783,-162.5001"/>
</g>
<!-- ProductSwitcher -->
<g id="node2" class="node">
<title>ProductSwitcher</title>
<polygon fill="#ffffb3" stroke="#000000" points="719.809,-122 610.191,-122 610.191,-86 719.809,-86 719.809,-122"/>
<text text-anchor="middle" x="665" y="-99.8" font-family="Times,serif" font-size="14.00" fill="#000000">ProductSwitcher</text>
</g>
<!-- ProductSwitcher&#45;&gt;PanelModule -->
<g id="edge2" class="edge">
<title>ProductSwitcher&#45;&gt;PanelModule</title>
<path fill="none" stroke="#000000" d="M641.375,-122.0091C641.375,-138.0494 641.375,-159 641.375,-159 641.375,-159 527.3894,-159 527.3894,-159"/>
<polygon fill="#000000" stroke="#000000" points="527.3894,-155.5001 517.3894,-159 527.3894,-162.5001 527.3894,-155.5001"/>
</g>
<!-- ProductSwitcherItem -->
<g id="node3" class="node">
<title>ProductSwitcherItem</title>
<polygon fill="#ffffb3" stroke="#000000" points="592.465,-122 457.535,-122 457.535,-86 592.465,-86 592.465,-122"/>
<text text-anchor="middle" x="525" y="-99.8" font-family="Times,serif" font-size="14.00" fill="#000000">ProductSwitcherItem</text>
</g>
<!-- ProductSwitcherItem&#45;&gt;PanelModule -->
<g id="edge3" class="edge">
<title>ProductSwitcherItem&#45;&gt;PanelModule</title>
<path fill="none" stroke="#000000" d="M487.4218,-122.1061C487.4218,-122.1061 487.4218,-140.991 487.4218,-140.991"/>
<polygon fill="#000000" stroke="#000000" points="483.9219,-140.9909 487.4218,-150.991 490.9219,-140.991 483.9219,-140.9909"/>
</g>
<!-- ProductSwitcherList -->
<g id="node4" class="node">
<title>ProductSwitcherList</title>
<polygon fill="#ffffb3" stroke="#000000" points="439.587,-122 308.413,-122 308.413,-86 439.587,-86 439.587,-122"/>
<text text-anchor="middle" x="374" y="-99.8" font-family="Times,serif" font-size="14.00" fill="#000000">ProductSwitcherList</text>
</g>
<!-- ProductSwitcherList&#45;&gt;PanelModule -->
<g id="edge4" class="edge">
<title>ProductSwitcherList&#45;&gt;PanelModule</title>
<path fill="none" stroke="#000000" d="M433.1087,-122.1061C433.1087,-122.1061 433.1087,-140.991 433.1087,-140.991"/>
<polygon fill="#000000" stroke="#000000" points="429.6088,-140.9909 433.1087,-150.991 436.6088,-140.991 429.6088,-140.9909"/>
</g>
<!-- ProductSwitcherListItem -->
<g id="node5" class="node">
<title>ProductSwitcherListItem</title>
<polygon fill="#ffffb3" stroke="#000000" points="290.2436,-122 133.7564,-122 133.7564,-86 290.2436,-86 290.2436,-122"/>
<text text-anchor="middle" x="212" y="-99.8" font-family="Times,serif" font-size="14.00" fill="#000000">ProductSwitcherListItem</text>
</g>
<!-- ProductSwitcherListItem&#45;&gt;PanelModule -->
<g id="edge5" class="edge">
<title>ProductSwitcherListItem&#45;&gt;PanelModule</title>
<path fill="none" stroke="#000000" d="M270.0391,-122.0091C270.0391,-138.0494 270.0391,-159 270.0391,-159 270.0391,-159 416.676,-159 416.676,-159"/>
<polygon fill="#000000" stroke="#000000" points="416.6761,-162.5001 426.676,-159 416.676,-155.5001 416.6761,-162.5001"/>
</g>
<!-- Panel  -->
<g id="node8" class="node">
<title>Panel </title>
<polygon fill="#fb8072" stroke="#000000" points="744,-252 690,-252 690,-216 744,-216 744,-252"/>
<text text-anchor="middle" x="717" y="-229.8" font-family="Times,serif" font-size="14.00" fill="#000000">Panel </text>
</g>
<!-- PanelModule&#45;&gt;Panel  -->
<g id="edge7" class="edge">
<title>PanelModule&#45;&gt;Panel </title>
<path fill="none" stroke="#000000" stroke-dasharray="5,2" d="M517.1675,-173C584.8749,-173 704.8272,-173 704.8272,-173 704.8272,-173 704.8272,-205.698 704.8272,-205.698"/>
<polygon fill="#000000" stroke="#000000" points="701.3272,-205.698 704.8272,-215.698 708.3272,-205.698 701.3272,-205.698"/>
</g>
<!-- ProductSwitcher  -->
<g id="node9" class="node">
<title>ProductSwitcher </title>
<polygon fill="#fb8072" stroke="#000000" points="672.3088,-252 559.6912,-252 559.6912,-216 672.3088,-216 672.3088,-252"/>
<text text-anchor="middle" x="616" y="-229.8" font-family="Times,serif" font-size="14.00" fill="#000000">ProductSwitcher </text>
</g>
<!-- PanelModule&#45;&gt;ProductSwitcher  -->
<g id="edge8" class="edge">
<title>PanelModule&#45;&gt;ProductSwitcher </title>
<path fill="none" stroke="#000000" stroke-dasharray="5,2" d="M517.3304,-180C545.3668,-180 576.0391,-180 576.0391,-180 576.0391,-180 576.0391,-205.7181 576.0391,-205.7181"/>
<polygon fill="#000000" stroke="#000000" points="572.5392,-205.718 576.0391,-215.7181 579.5392,-205.7181 572.5392,-205.718"/>
</g>
<!-- ProductSwitcherItem  -->
<g id="node10" class="node">
<title>ProductSwitcherItem </title>
<polygon fill="#fb8072" stroke="#000000" points="541.4658,-252 402.5342,-252 402.5342,-216 541.4658,-216 541.4658,-252"/>
<text text-anchor="middle" x="472" y="-229.8" font-family="Times,serif" font-size="14.00" fill="#000000">ProductSwitcherItem </text>
</g>
<!-- PanelModule&#45;&gt;ProductSwitcherItem  -->
<g id="edge9" class="edge">
<title>PanelModule&#45;&gt;ProductSwitcherItem </title>
<path fill="none" stroke="#000000" stroke-dasharray="5,2" d="M472,-187.1061C472,-187.1061 472,-205.991 472,-205.991"/>
<polygon fill="#000000" stroke="#000000" points="468.5001,-205.9909 472,-215.991 475.5001,-205.991 468.5001,-205.9909"/>
</g>
<!-- ProductSwitcherList  -->
<g id="node11" class="node">
<title>ProductSwitcherList </title>
<polygon fill="#fb8072" stroke="#000000" points="384.0876,-252 249.9124,-252 249.9124,-216 384.0876,-216 384.0876,-252"/>
<text text-anchor="middle" x="317" y="-229.8" font-family="Times,serif" font-size="14.00" fill="#000000">ProductSwitcherList </text>
</g>
<!-- PanelModule&#45;&gt;ProductSwitcherList  -->
<g id="edge10" class="edge">
<title>PanelModule&#45;&gt;ProductSwitcherList </title>
<path fill="none" stroke="#000000" stroke-dasharray="5,2" d="M426.6465,-180C390.6627,-180 346.375,-180 346.375,-180 346.375,-180 346.375,-205.7181 346.375,-205.7181"/>
<polygon fill="#000000" stroke="#000000" points="342.8751,-205.718 346.375,-215.7181 349.8751,-205.7181 342.8751,-205.718"/>
</g>
<!-- ProductSwitcherListItem  -->
<g id="node12" class="node">
<title>ProductSwitcherListItem </title>
<polygon fill="#fb8072" stroke="#000000" points="232.2436,-252 71.7564,-252 71.7564,-216 232.2436,-216 232.2436,-252"/>
<text text-anchor="middle" x="152" y="-229.8" font-family="Times,serif" font-size="14.00" fill="#000000">ProductSwitcherListItem </text>
</g>
<!-- PanelModule&#45;&gt;ProductSwitcherListItem  -->
<g id="edge11" class="edge">
<title>PanelModule&#45;&gt;ProductSwitcherListItem </title>
<path fill="none" stroke="#000000" stroke-dasharray="5,2" d="M426.8242,-173C345.5078,-173 182.875,-173 182.875,-173 182.875,-173 182.875,-205.698 182.875,-205.698"/>
<polygon fill="#000000" stroke="#000000" points="179.3751,-205.698 182.875,-215.698 186.3751,-205.698 179.3751,-205.698"/>
</g>
<!-- I18nModule -->
<g id="node7" class="node">
<title>I18nModule</title>
<polygon fill="#8dd3c7" stroke="#000000" points="109.7107,-122 106.7107,-126 85.7107,-126 82.7107,-122 24.2893,-122 24.2893,-86 109.7107,-86 109.7107,-122"/>
<text text-anchor="middle" x="67" y="-99.8" font-family="Times,serif" font-size="14.00" fill="#000000">I18nModule</text>
</g>
<!-- I18nModule&#45;&gt;PanelModule -->
<g id="edge6" class="edge">
<title>I18nModule&#45;&gt;PanelModule</title>
<path fill="none" stroke="#000000" d="M90.7418,-122.2667C90.7418,-140.5552 90.7418,-166 90.7418,-166 90.7418,-166 416.7675,-166 416.7675,-166"/>
<polygon fill="#000000" stroke="#000000" points="416.7675,-169.5001 426.7675,-166 416.7675,-162.5001 416.7675,-169.5001"/>
</g>
</g>
</svg>
