<?xml version="1.0" encoding="UTF-8" standalone="no"?>
<!DOCTYPE svg PUBLIC "-//W3C//DTD SVG 1.1//EN"
 "http://www.w3.org/Graphics/SVG/1.1/DTD/svg11.dtd">
<!-- Generated by graphviz version 2.40.1 (20161225.0304)
 -->
<!-- Title: dependencies Pages: 1 -->
<svg width="1261pt" height="284pt"
 viewBox="0.00 0.00 1261.00 284.00" xmlns="http://www.w3.org/2000/svg" xmlns:xlink="http://www.w3.org/1999/xlink">
<g id="graph0" class="graph" transform="scale(1 1) rotate(0) translate(4 280)">
<title>dependencies</title>
<polygon fill="#ffffff" stroke="transparent" points="-4,4 -4,-280 1257,-280 1257,4 -4,4"/>
<text text-anchor="start" x="605.5091" y="-42.4" font-family="sans-serif" font-weight="bold" font-size="14.00" fill="#000000">Legend</text>
<polygon fill="#ffffb3" stroke="transparent" points="392.5,-10 392.5,-30 412.5,-30 412.5,-10 392.5,-10"/>
<text text-anchor="start" x="416.129" y="-15.4" font-family="sans-serif" font-size="14.00" fill="#000000"> &#160;Declarations</text>
<polygon fill="#8dd3c7" stroke="transparent" points="505.5,-10 505.5,-30 525.5,-30 525.5,-10 505.5,-10"/>
<text text-anchor="start" x="529.2251" y="-15.4" font-family="sans-serif" font-size="14.00" fill="#000000"> &#160;Module</text>
<polygon fill="#80b1d3" stroke="transparent" points="591.5,-10 591.5,-30 611.5,-30 611.5,-10 591.5,-10"/>
<text text-anchor="start" x="615.2812" y="-15.4" font-family="sans-serif" font-size="14.00" fill="#000000"> &#160;Bootstrap</text>
<polygon fill="#fdb462" stroke="transparent" points="688.5,-10 688.5,-30 708.5,-30 708.5,-10 688.5,-10"/>
<text text-anchor="start" x="712.1732" y="-15.4" font-family="sans-serif" font-size="14.00" fill="#000000"> &#160;Providers</text>
<polygon fill="#fb8072" stroke="transparent" points="784.5,-10 784.5,-30 804.5,-30 804.5,-10 784.5,-10"/>
<text text-anchor="start" x="808.2258" y="-15.4" font-family="sans-serif" font-size="14.00" fill="#000000"> &#160;Exports</text>
<g id="clust1" class="cluster">
<title>cluster_TableModule</title>
<polygon fill="none" stroke="#000000" stroke-dasharray="1,5" points="8,-70 8,-268 1245,-268 1245,-70 8,-70"/>
</g>
<g id="clust2" class="cluster">
<title>cluster_TableModule_declarations</title>
<polygon fill="none" stroke="#000000" points="601,-78 601,-130 1237,-130 1237,-78 601,-78"/>
</g>
<g id="clust8" class="cluster">
<title>cluster_TableModule_imports</title>
<polygon fill="none" stroke="#000000" points="16,-78 16,-130 593,-130 593,-78 16,-78"/>
</g>
<g id="clust9" class="cluster">
<title>cluster_TableModule_exports</title>
<polygon fill="none" stroke="#000000" points="217,-208 217,-260 868,-260 868,-208 217,-208"/>
</g>
<!-- Table -->
<g id="node1" class="node">
<title>Table</title>
<polygon fill="#ffffb3" stroke="#000000" points="1229,-122 1175,-122 1175,-86 1229,-86 1229,-122"/>
<text text-anchor="middle" x="1202" y="-99.8" font-family="Times,serif" font-size="14.00" fill="#000000">Table</text>
</g>
<!-- TableModule -->
<g id="node6" class="node">
<title>TableModule</title>
<polygon fill="#8dd3c7" stroke="#000000" points="650.9232,-187 647.9232,-191 626.9232,-191 623.9232,-187 559.0768,-187 559.0768,-151 650.9232,-151 650.9232,-187"/>
<text text-anchor="middle" x="605" y="-164.8" font-family="Times,serif" font-size="14.00" fill="#000000">TableModule</text>
</g>
<!-- Table&#45;&gt;TableModule -->
<g id="edge1" class="edge">
<title>Table&#45;&gt;TableModule</title>
<path fill="none" stroke="#000000" d="M1202,-122.2228C1202,-142.3652 1202,-172 1202,-172 1202,-172 660.8543,-172 660.8543,-172"/>
<polygon fill="#000000" stroke="#000000" points="660.8543,-168.5001 650.8543,-172 660.8543,-175.5001 660.8543,-168.5001"/>
</g>
<!-- TableToolbar -->
<g id="node2" class="node">
<title>TableToolbar</title>
<polygon fill="#ffffb3" stroke="#000000" points="1157.191,-122 1064.809,-122 1064.809,-86 1157.191,-86 1157.191,-122"/>
<text text-anchor="middle" x="1111" y="-99.8" font-family="Times,serif" font-size="14.00" fill="#000000">TableToolbar</text>
</g>
<!-- TableToolbar&#45;&gt;TableModule -->
<g id="edge2" class="edge">
<title>TableToolbar&#45;&gt;TableModule</title>
<path fill="none" stroke="#000000" d="M1111,-122.2222C1111,-140.8285 1111,-167 1111,-167 1111,-167 660.7966,-167 660.7966,-167"/>
<polygon fill="#000000" stroke="#000000" points="660.7966,-163.5001 650.7966,-167 660.7965,-170.5001 660.7966,-163.5001"/>
</g>
<!-- TableToolbarActions -->
<g id="node3" class="node">
<title>TableToolbarActions</title>
<polygon fill="#ffffb3" stroke="#000000" points="1046.7381,-122 911.2619,-122 911.2619,-86 1046.7381,-86 1046.7381,-122"/>
<text text-anchor="middle" x="979" y="-99.8" font-family="Times,serif" font-size="14.00" fill="#000000">TableToolbarActions</text>
</g>
<!-- TableToolbarActions&#45;&gt;TableModule -->
<g id="edge3" class="edge">
<title>TableToolbarActions&#45;&gt;TableModule</title>
<path fill="none" stroke="#000000" d="M979,-122.0336C979,-139.0597 979,-162 979,-162 979,-162 660.8597,-162 660.8597,-162"/>
<polygon fill="#000000" stroke="#000000" points="660.8598,-158.5001 650.8597,-162 660.8597,-165.5001 660.8598,-158.5001"/>
</g>
<!-- TableToolbarContent -->
<g id="node4" class="node">
<title>TableToolbarContent</title>
<polygon fill="#ffffb3" stroke="#000000" points="893.024,-122 756.976,-122 756.976,-86 893.024,-86 893.024,-122"/>
<text text-anchor="middle" x="825" y="-99.8" font-family="Times,serif" font-size="14.00" fill="#000000">TableToolbarContent</text>
</g>
<!-- TableToolbarContent&#45;&gt;TableModule -->
<g id="edge4" class="edge">
<title>TableToolbarContent&#45;&gt;TableModule</title>
<path fill="none" stroke="#000000" d="M772.2919,-122.2396C772.2919,-137.5706 772.2919,-157 772.2919,-157 772.2919,-157 660.7132,-157 660.7132,-157"/>
<polygon fill="#000000" stroke="#000000" points="660.7133,-153.5001 650.7132,-157 660.7132,-160.5001 660.7133,-153.5001"/>
</g>
<!-- TableToolbarSearch -->
<g id="node5" class="node">
<title>TableToolbarSearch</title>
<polygon fill="#ffffb3" stroke="#000000" points="739.2781,-122 608.7219,-122 608.7219,-86 739.2781,-86 739.2781,-122"/>
<text text-anchor="middle" x="674" y="-99.8" font-family="Times,serif" font-size="14.00" fill="#000000">TableToolbarSearch</text>
</g>
<!-- TableToolbarSearch&#45;&gt;TableModule -->
<g id="edge5" class="edge">
<title>TableToolbarSearch&#45;&gt;TableModule</title>
<path fill="none" stroke="#000000" d="M629.7861,-122.1061C629.7861,-122.1061 629.7861,-140.991 629.7861,-140.991"/>
<polygon fill="#000000" stroke="#000000" points="626.2862,-140.9909 629.7861,-150.991 633.2862,-140.991 626.2862,-140.9909"/>
</g>
<!-- Table  -->
<g id="node12" class="node">
<title>Table </title>
<polygon fill="#fb8072" stroke="#000000" points="860,-252 806,-252 806,-216 860,-216 860,-252"/>
<text text-anchor="middle" x="833" y="-229.8" font-family="Times,serif" font-size="14.00" fill="#000000">Table </text>
</g>
<!-- TableModule&#45;&gt;Table  -->
<g id="edge11" class="edge">
<title>TableModule&#45;&gt;Table </title>
<path fill="none" stroke="#000000" stroke-dasharray="5,2" d="M650.8649,-177C717.4447,-177 833,-177 833,-177 833,-177 833,-205.9648 833,-205.9648"/>
<polygon fill="#000000" stroke="#000000" points="829.5001,-205.9648 833,-215.9648 836.5001,-205.9649 829.5001,-205.9648"/>
</g>
<!-- TableToolbar  -->
<g id="node13" class="node">
<title>TableToolbar </title>
<polygon fill="#fb8072" stroke="#000000" points="787.6913,-252 692.3087,-252 692.3087,-216 787.6913,-216 787.6913,-252"/>
<text text-anchor="middle" x="740" y="-229.8" font-family="Times,serif" font-size="14.00" fill="#000000">TableToolbar </text>
</g>
<!-- TableModule&#45;&gt;TableToolbar  -->
<g id="edge12" class="edge">
<title>TableModule&#45;&gt;TableToolbar </title>
<path fill="none" stroke="#000000" stroke-dasharray="5,2" d="M650.9629,-182C681.363,-182 715.6468,-182 715.6468,-182 715.6468,-182 715.6468,-205.8129 715.6468,-205.8129"/>
<polygon fill="#000000" stroke="#000000" points="712.1468,-205.8129 715.6468,-215.8129 719.1468,-205.813 712.1468,-205.8129"/>
</g>
<!-- TableToolbarActions  -->
<g id="node14" class="node">
<title>TableToolbarActions </title>
<polygon fill="#fb8072" stroke="#000000" points="674.738,-252 535.262,-252 535.262,-216 674.738,-216 674.738,-252"/>
<text text-anchor="middle" x="605" y="-229.8" font-family="Times,serif" font-size="14.00" fill="#000000">TableToolbarActions </text>
</g>
<!-- TableModule&#45;&gt;TableToolbarActions  -->
<g id="edge13" class="edge">
<title>TableModule&#45;&gt;TableToolbarActions </title>
<path fill="none" stroke="#000000" stroke-dasharray="5,2" d="M605,-187.1061C605,-187.1061 605,-205.991 605,-205.991"/>
<polygon fill="#000000" stroke="#000000" points="601.5001,-205.9909 605,-215.991 608.5001,-205.991 601.5001,-205.9909"/>
</g>
<!-- TableToolbarContent  -->
<g id="node15" class="node">
<title>TableToolbarContent </title>
<polygon fill="#fb8072" stroke="#000000" points="517.0232,-252 376.9768,-252 376.9768,-216 517.0232,-216 517.0232,-252"/>
<text text-anchor="middle" x="447" y="-229.8" font-family="Times,serif" font-size="14.00" fill="#000000">TableToolbarContent </text>
</g>
<!-- TableModule&#45;&gt;TableToolbarContent  -->
<g id="edge14" class="edge">
<title>TableModule&#45;&gt;TableToolbarContent </title>
<path fill="none" stroke="#000000" stroke-dasharray="5,2" d="M559.2641,-182C531.7801,-182 502.0928,-182 502.0928,-182 502.0928,-182 502.0928,-205.8129 502.0928,-205.8129"/>
<polygon fill="#000000" stroke="#000000" points="498.5928,-205.8129 502.0928,-215.8129 505.5928,-205.813 498.5928,-205.8129"/>
</g>
<!-- TableToolbarSearch  -->
<g id="node16" class="node">
<title>TableToolbarSearch </title>
<polygon fill="#fb8072" stroke="#000000" points="358.778,-252 225.222,-252 225.222,-216 358.778,-216 358.778,-252"/>
<text text-anchor="middle" x="292" y="-229.8" font-family="Times,serif" font-size="14.00" fill="#000000">TableToolbarSearch </text>
</g>
<!-- TableModule&#45;&gt;TableToolbarSearch  -->
<g id="edge15" class="edge">
<title>TableModule&#45;&gt;TableToolbarSearch </title>
<path fill="none" stroke="#000000" stroke-dasharray="5,2" d="M559.2642,-177C478.7969,-177 320.3382,-177 320.3382,-177 320.3382,-177 320.3382,-205.9648 320.3382,-205.9648"/>
<polygon fill="#000000" stroke="#000000" points="316.8383,-205.9648 320.3382,-215.9648 323.8383,-205.9649 316.8383,-205.9648"/>
</g>
<!-- DialogModule -->
<g id="node7" class="node">
<title>DialogModule</title>
<polygon fill="#8dd3c7" stroke="#000000" points="584.6528,-122 581.6528,-126 560.6528,-126 557.6528,-122 487.3472,-122 487.3472,-86 584.6528,-86 584.6528,-122"/>
<text text-anchor="middle" x="536" y="-99.8" font-family="Times,serif" font-size="14.00" fill="#000000">DialogModule</text>
</g>
<!-- DialogModule&#45;&gt;TableModule -->
<g id="edge6" class="edge">
<title>DialogModule&#45;&gt;TableModule</title>
<path fill="none" stroke="#000000" d="M572.0575,-122.1061C572.0575,-122.1061 572.0575,-140.991 572.0575,-140.991"/>
<polygon fill="#000000" stroke="#000000" points="568.5576,-140.9909 572.0575,-150.991 575.5576,-140.991 568.5576,-140.9909"/>
</g>
<!-- I18nModule -->
<g id="node8" class="node">
<title>I18nModule</title>
<polygon fill="#8dd3c7" stroke="#000000" points="469.7107,-122 466.7107,-126 445.7107,-126 442.7107,-122 384.2893,-122 384.2893,-86 469.7107,-86 469.7107,-122"/>
<text text-anchor="middle" x="427" y="-99.8" font-family="Times,serif" font-size="14.00" fill="#000000">I18nModule</text>
</g>
<!-- I18nModule&#45;&gt;TableModule -->
<g id="edge7" class="edge">
<title>I18nModule&#45;&gt;TableModule</title>
<path fill="none" stroke="#000000" d="M427,-122.2396C427,-137.5706 427,-157 427,-157 427,-157 549.1606,-157 549.1606,-157"/>
<polygon fill="#000000" stroke="#000000" points="549.1606,-160.5001 559.1606,-157 549.1605,-153.5001 549.1606,-160.5001"/>
</g>
<!-- IconModule -->
<g id="node9" class="node">
<title>IconModule</title>
<polygon fill="#8dd3c7" stroke="#000000" points="366.4261,-122 363.4261,-126 342.4261,-126 339.4261,-122 281.5739,-122 281.5739,-86 366.4261,-86 366.4261,-122"/>
<text text-anchor="middle" x="324" y="-99.8" font-family="Times,serif" font-size="14.00" fill="#000000">IconModule</text>
</g>
<!-- IconModule&#45;&gt;TableModule -->
<g id="edge8" class="edge">
<title>IconModule&#45;&gt;TableModule</title>
<path fill="none" stroke="#000000" d="M362.5507,-122.0336C362.5507,-139.0597 362.5507,-162 362.5507,-162 362.5507,-162 549.1121,-162 549.1121,-162"/>
<polygon fill="#000000" stroke="#000000" points="549.1121,-165.5001 559.1121,-162 549.1121,-158.5001 549.1121,-165.5001"/>
</g>
<!-- NFormsModule -->
<g id="node10" class="node">
<title>NFormsModule</title>
<polygon fill="#8dd3c7" stroke="#000000" points="263.9357,-122 260.9357,-126 239.9357,-126 236.9357,-122 158.0643,-122 158.0643,-86 263.9357,-86 263.9357,-122"/>
<text text-anchor="middle" x="211" y="-99.8" font-family="Times,serif" font-size="14.00" fill="#000000">NFormsModule</text>
</g>
<!-- NFormsModule&#45;&gt;TableModule -->
<g id="edge9" class="edge">
<title>NFormsModule&#45;&gt;TableModule</title>
<path fill="none" stroke="#000000" d="M244.4143,-122.2222C244.4143,-140.8285 244.4143,-167 244.4143,-167 244.4143,-167 548.9653,-167 548.9653,-167"/>
<polygon fill="#000000" stroke="#000000" points="548.9653,-170.5001 558.9653,-167 548.9653,-163.5001 548.9653,-170.5001"/>
</g>
<!-- StaticIconModule -->
<g id="node11" class="node">
<title>StaticIconModule</title>
<polygon fill="#8dd3c7" stroke="#000000" points="140.309,-122 137.309,-126 116.309,-126 113.309,-122 23.691,-122 23.691,-86 140.309,-86 140.309,-122"/>
<text text-anchor="middle" x="82" y="-99.8" font-family="Times,serif" font-size="14.00" fill="#000000">StaticIconModule</text>
</g>
<!-- StaticIconModule&#45;&gt;TableModule -->
<g id="edge10" class="edge">
<title>StaticIconModule&#45;&gt;TableModule</title>
<path fill="none" stroke="#000000" d="M82,-122.2228C82,-142.3652 82,-172 82,-172 82,-172 549.0456,-172 549.0456,-172"/>
<polygon fill="#000000" stroke="#000000" points="549.0456,-175.5001 559.0456,-172 549.0456,-168.5001 549.0456,-175.5001"/>
</g>
</g>
</svg>
