<?xml version="1.0" encoding="UTF-8" standalone="no"?>
<!DOCTYPE svg PUBLIC "-//W3C//DTD SVG 1.1//EN"
 "http://www.w3.org/Graphics/SVG/1.1/DTD/svg11.dtd">
<!-- Generated by graphviz version 2.47.0 (20210316.0004)
 -->
<!-- Title: dependencies Pages: 1 -->
<svg width="504pt" height="284pt"
 viewBox="0.00 0.00 504.00 284.00" xmlns="http://www.w3.org/2000/svg" xmlns:xlink="http://www.w3.org/1999/xlink">
<g id="graph0" class="graph" transform="scale(1 1) rotate(0) translate(4 280)">
<title>dependencies</title>
<polygon fill="white" stroke="transparent" points="-4,4 -4,-280 500,-280 500,4 -4,4"/>
<text text-anchor="start" x="227.01" y="-42.4" font-family="Times-12" font-weight="bold" font-size="14.00">Legend</text>
<polygon fill="#ffffb3" stroke="transparent" points="14,-10 14,-30 34,-30 34,-10 14,-10"/>
<text text-anchor="start" x="37.63" y="-15.4" font-family="Times-12" font-size="14.00"> &#160;Declarations</text>
<polygon fill="#8dd3c7" stroke="transparent" points="127,-10 127,-30 147,-30 147,-10 127,-10"/>
<text text-anchor="start" x="150.73" y="-15.4" font-family="Times-12" font-size="14.00"> &#160;Module</text>
<polygon fill="#80b1d3" stroke="transparent" points="213,-10 213,-30 233,-30 233,-10 213,-10"/>
<text text-anchor="start" x="236.78" y="-15.4" font-family="Times-12" font-size="14.00"> &#160;Bootstrap</text>
<polygon fill="#fdb462" stroke="transparent" points="310,-10 310,-30 330,-30 330,-10 310,-10"/>
<text text-anchor="start" x="333.67" y="-15.4" font-family="Times-12" font-size="14.00"> &#160;Providers</text>
<polygon fill="#fb8072" stroke="transparent" points="406,-10 406,-30 426,-30 426,-10 406,-10"/>
<text text-anchor="start" x="429.73" y="-15.4" font-family="Times-12" font-size="14.00"> &#160;Exports</text>
<g id="clust1" class="cluster">
<title>cluster_PanelModule</title>
<polygon fill="none" stroke="black" stroke-dasharray="1,5" points="31.5,-70 31.5,-268 464.5,-268 464.5,-70 31.5,-70"/>
</g>
<g id="clust6" class="cluster">
<title>cluster_PanelModule_imports</title>
<polygon fill="none" stroke="black" points="354.5,-78 354.5,-130 456.5,-130 456.5,-78 354.5,-78"/>
</g>
<g id="clust2" class="cluster">
<title>cluster_PanelModule_declarations</title>
<polygon fill="none" stroke="black" points="39.5,-78 39.5,-130 346.5,-130 346.5,-78 39.5,-78"/>
</g>
<g id="clust7" class="cluster">
<title>cluster_PanelModule_exports</title>
<polygon fill="none" stroke="black" points="81.5,-208 81.5,-260 395.5,-260 395.5,-208 81.5,-208"/>
</g>
<!-- Panel -->
<g id="node1" class="node">
<title>Panel</title>
<polygon fill="#ffffb3" stroke="black" points="338.5,-122 284.5,-122 284.5,-86 338.5,-86 338.5,-122"/>
<text text-anchor="middle" x="311.5" y="-99.8" font-family="Times,serif" font-size="14.00">Panel</text>
</g>
<!-- PanelModule -->
<g id="node4" class="node">
<title>PanelModule</title>
<polygon fill="#8dd3c7" stroke="black" points="314.65,-187 311.65,-191 290.65,-191 287.65,-187 224.35,-187 224.35,-151 314.65,-151 314.65,-187"/>
<text text-anchor="middle" x="269.5" y="-164.8" font-family="Times,serif" font-size="14.00">PanelModule</text>
</g>
<!-- Panel&#45;&gt;PanelModule -->
<g id="edge1" class="edge">
<title>Panel&#45;&gt;PanelModule</title>
<path fill="none" stroke="black" d="M299.66,-122.11C299.66,-122.11 299.66,-140.99 299.66,-140.99"/>
<polygon fill="black" stroke="black" points="296.16,-140.99 299.66,-150.99 303.16,-140.99 296.16,-140.99"/>
</g>
<!-- SwitcherList -->
<g id="node2" class="node">
<title>SwitcherList</title>
<polygon fill="#ffffb3" stroke="black" points="266.04,-122 178.96,-122 178.96,-86 266.04,-86 266.04,-122"/>
<text text-anchor="middle" x="222.5" y="-99.8" font-family="Times,serif" font-size="14.00">SwitcherList</text>
</g>
<!-- SwitcherList&#45;&gt;PanelModule -->
<g id="edge2" class="edge">
<title>SwitcherList&#45;&gt;PanelModule</title>
<path fill="none" stroke="black" d="M245.22,-122.11C245.22,-122.11 245.22,-140.99 245.22,-140.99"/>
<polygon fill="black" stroke="black" points="241.72,-140.99 245.22,-150.99 248.72,-140.99 241.72,-140.99"/>
</g>
<!-- SwitcherListItem -->
<g id="node3" class="node">
<title>SwitcherListItem</title>
<polygon fill="#ffffb3" stroke="black" points="161.2,-122 47.8,-122 47.8,-86 161.2,-86 161.2,-122"/>
<text text-anchor="middle" x="104.5" y="-99.8" font-family="Times,serif" font-size="14.00">SwitcherListItem</text>
</g>
<!-- SwitcherListItem&#45;&gt;PanelModule -->
<g id="edge3" class="edge">
<title>SwitcherListItem&#45;&gt;PanelModule</title>
<path fill="none" stroke="black" d="M125.12,-122.02C125.12,-139.37 125.12,-163 125.12,-163 125.12,-163 214.21,-163 214.21,-163"/>
<polygon fill="black" stroke="black" points="214.22,-166.5 224.21,-163 214.21,-159.5 214.22,-166.5"/>
</g>
<!-- Panel  -->
<g id="node6" class="node">
<title>Panel </title>
<polygon fill="#fb8072" stroke="black" points="387.5,-252 333.5,-252 333.5,-216 387.5,-216 387.5,-252"/>
<text text-anchor="middle" x="360.5" y="-229.8" font-family="Times,serif" font-size="14.00">Panel </text>
</g>
<!-- PanelModule&#45;&gt;Panel  -->
<g id="edge5" class="edge">
<title>PanelModule&#45;&gt;Panel </title>
<path fill="none" stroke="black" stroke-dasharray="5,2" d="M314.85,-175C333.45,-175 350.7,-175 350.7,-175 350.7,-175 350.7,-205.98 350.7,-205.98"/>
<polygon fill="black" stroke="black" points="347.2,-205.98 350.7,-215.98 354.2,-205.98 347.2,-205.98"/>
</g>
<!-- SwitcherList  -->
<g id="node7" class="node">
<title>SwitcherList </title>
<polygon fill="#fb8072" stroke="black" points="315.04,-252 223.96,-252 223.96,-216 315.04,-216 315.04,-252"/>
<text text-anchor="middle" x="269.5" y="-229.8" font-family="Times,serif" font-size="14.00">SwitcherList </text>
</g>
<!-- PanelModule&#45;&gt;SwitcherList  -->
<g id="edge6" class="edge">
<title>PanelModule&#45;&gt;SwitcherList </title>
<path fill="none" stroke="black" stroke-dasharray="5,2" d="M269.5,-187.11C269.5,-187.11 269.5,-205.99 269.5,-205.99"/>
<polygon fill="black" stroke="black" points="266,-205.99 269.5,-215.99 273,-205.99 266,-205.99"/>
</g>
<!-- SwitcherListItem  -->
<g id="node8" class="node">
<title>SwitcherListItem </title>
<polygon fill="#fb8072" stroke="black" points="205.7,-252 89.3,-252 89.3,-216 205.7,-216 205.7,-252"/>
<text text-anchor="middle" x="147.5" y="-229.8" font-family="Times,serif" font-size="14.00">SwitcherListItem </text>
</g>
<!-- PanelModule&#45;&gt;SwitcherListItem  -->
<g id="edge7" class="edge">
<title>PanelModule&#45;&gt;SwitcherListItem </title>
<path fill="none" stroke="black" stroke-dasharray="5,2" d="M224.14,-175C207.33,-175 192.29,-175 192.29,-175 192.29,-175 192.29,-205.98 192.29,-205.98"/>
<polygon fill="black" stroke="black" points="188.79,-205.98 192.29,-215.98 195.79,-205.98 188.79,-205.98"/>
</g>
<!-- I18nModule -->
<g id="node5" class="node">
<title>I18nModule</title>
<polygon fill="#8dd3c7" stroke="black" points="448.21,-122 445.21,-126 424.21,-126 421.21,-122 362.79,-122 362.79,-86 448.21,-86 448.21,-122"/>
<text text-anchor="middle" x="405.5" y="-99.8" font-family="Times,serif" font-size="14.00">I18nModule</text>
</g>
<!-- I18nModule&#45;&gt;PanelModule -->
<g id="edge4" class="edge">
<title>I18nModule&#45;&gt;PanelModule</title>
<path fill="none" stroke="black" d="M375.2,-122.02C375.2,-139.37 375.2,-163 375.2,-163 375.2,-163 324.94,-163 324.94,-163"/>
<polygon fill="black" stroke="black" points="324.94,-159.5 314.94,-163 324.94,-166.5 324.94,-159.5"/>
</g>
</g>
</svg>
