<?xml version="1.0" encoding="UTF-8" standalone="no"?>
<!DOCTYPE svg PUBLIC "-//W3C//DTD SVG 1.1//EN"
 "http://www.w3.org/Graphics/SVG/1.1/DTD/svg11.dtd">
<!-- Generated by graphviz version 2.47.0 (20210316.0004)
 -->
<!-- Title: dependencies Pages: 1 -->
<svg width="646pt" height="396pt"
 viewBox="0.00 0.00 646.00 395.59" xmlns="http://www.w3.org/2000/svg" xmlns:xlink="http://www.w3.org/1999/xlink">
<g id="graph0" class="graph" transform="scale(1 1) rotate(0) translate(4 391.59)">
<title>dependencies</title>
<polygon fill="white" stroke="transparent" points="-4,4 -4,-391.59 642,-391.59 642,4 -4,4"/>
<text text-anchor="start" x="298.01" y="-42.4" font-family="Times-12" font-weight="bold" font-size="14.00">Legend</text>
<polygon fill="#ffffb3" stroke="transparent" points="85,-10 85,-30 105,-30 105,-10 85,-10"/>
<text text-anchor="start" x="108.63" y="-15.4" font-family="Times-12" font-size="14.00"> &#160;Declarations</text>
<polygon fill="#8dd3c7" stroke="transparent" points="198,-10 198,-30 218,-30 218,-10 198,-10"/>
<text text-anchor="start" x="221.73" y="-15.4" font-family="Times-12" font-size="14.00"> &#160;Module</text>
<polygon fill="#80b1d3" stroke="transparent" points="284,-10 284,-30 304,-30 304,-10 284,-10"/>
<text text-anchor="start" x="307.78" y="-15.4" font-family="Times-12" font-size="14.00"> &#160;Bootstrap</text>
<polygon fill="#fdb462" stroke="transparent" points="381,-10 381,-30 401,-30 401,-10 381,-10"/>
<text text-anchor="start" x="404.67" y="-15.4" font-family="Times-12" font-size="14.00"> &#160;Providers</text>
<polygon fill="#fb8072" stroke="transparent" points="477,-10 477,-30 497,-30 497,-10 477,-10"/>
<text text-anchor="start" x="500.73" y="-15.4" font-family="Times-12" font-size="14.00"> &#160;Exports</text>
<g id="clust1" class="cluster">
<title>cluster_SearchModule</title>
<polygon fill="none" stroke="black" stroke-dasharray="1,5" points="8,-70 8,-379.59 630,-379.59 630,-70 8,-70"/>
</g>
<g id="clust4" class="cluster">
<title>cluster_SearchModule_imports</title>
<polygon fill="none" stroke="black" points="362,-189.59 362,-241.59 566,-241.59 566,-189.59 362,-189.59"/>
</g>
<g id="clust5" class="cluster">
<title>cluster_SearchModule_exports</title>
<polygon fill="none" stroke="black" points="375,-319.59 375,-371.59 449,-371.59 449,-319.59 375,-319.59"/>
</g>
<g id="clust2" class="cluster">
<title>cluster_SearchModule_declarations</title>
<polygon fill="none" stroke="black" points="284,-189.59 284,-241.59 354,-241.59 354,-189.59 284,-189.59"/>
</g>
<g id="clust3" class="cluster">
<title>cluster_SearchModule_Search_providers</title>
<polygon fill="none" stroke="black" points="16,-78 16,-176.59 622,-176.59 622,-78 16,-78"/>
</g>
<!-- Search -->
<g id="node1" class="node">
<title>Search</title>
<polygon fill="#ffffb3" stroke="black" points="346.09,-233.59 291.91,-233.59 291.91,-197.59 346.09,-197.59 346.09,-233.59"/>
<text text-anchor="middle" x="319" y="-211.39" font-family="Times,serif" font-size="14.00">Search</text>
</g>
<!-- SearchModule -->
<g id="node2" class="node">
<title>SearchModule</title>
<polygon fill="#8dd3c7" stroke="black" points="460.64,-298.59 457.64,-302.59 436.64,-302.59 433.64,-298.59 363.36,-298.59 363.36,-262.59 460.64,-262.59 460.64,-298.59"/>
<text text-anchor="middle" x="412" y="-276.39" font-family="Times,serif" font-size="14.00">SearchModule</text>
</g>
<!-- Search&#45;&gt;SearchModule -->
<g id="edge1" class="edge">
<title>Search&#45;&gt;SearchModule</title>
<path fill="none" stroke="black" d="M319,-233.7C319,-252.93 319,-280.59 319,-280.59 319,-280.59 353.32,-280.59 353.32,-280.59"/>
<polygon fill="black" stroke="black" points="353.32,-284.09 363.32,-280.59 353.32,-277.09 353.32,-284.09"/>
</g>
<!-- Search  -->
<g id="node6" class="node">
<title>Search </title>
<polygon fill="#fb8072" stroke="black" points="440.59,-363.59 383.41,-363.59 383.41,-327.59 440.59,-327.59 440.59,-363.59"/>
<text text-anchor="middle" x="412" y="-341.39" font-family="Times,serif" font-size="14.00">Search </text>
</g>
<!-- SearchModule&#45;&gt;Search  -->
<g id="edge5" class="edge">
<title>SearchModule&#45;&gt;Search </title>
<path fill="none" stroke="black" stroke-dasharray="5,2" d="M412,-298.7C412,-298.7 412,-317.58 412,-317.58"/>
<polygon fill="black" stroke="black" points="408.5,-317.58 412,-327.58 415.5,-317.58 408.5,-317.58"/>
</g>
<!-- {
 &#160;&#160;&#160;provide: NG_VALUE_ACCESSOR, useExisting: Search, multi: true
} -->
<g id="node3" class="node">
<title>{
 &#160;&#160;&#160;provide: NG_VALUE_ACCESSOR, useExisting: Search, multi: true
}</title>
<ellipse fill="#fdb462" stroke="black" cx="319" cy="-127.3" rx="295.16" ry="41.09"/>
<text text-anchor="middle" x="319" y="-139.9" font-family="Times,serif" font-size="14.00">{</text>
<text text-anchor="middle" x="319" y="-123.1" font-family="Times,serif" font-size="14.00"> &#160;&#160;&#160;provide: NG_VALUE_ACCESSOR, useExisting: Search, multi: true</text>
<text text-anchor="middle" x="319" y="-106.3" font-family="Times,serif" font-size="14.00">}</text>
</g>
<!-- {
 &#160;&#160;&#160;provide: NG_VALUE_ACCESSOR, useExisting: Search, multi: true
}&#45;&gt;Search -->
<g id="edge2" class="edge">
<title>{
 &#160;&#160;&#160;provide: NG_VALUE_ACCESSOR, useExisting: Search, multi: true
}&#45;&gt;Search</title>
<path fill="none" stroke="black" d="M319,-168.6C319,-168.6 319,-187.26 319,-187.26"/>
<polygon fill="black" stroke="black" points="315.5,-187.26 319,-197.26 322.5,-187.26 315.5,-187.26"/>
</g>
<!-- I18nModule -->
<g id="node4" class="node">
<title>I18nModule</title>
<polygon fill="#8dd3c7" stroke="black" points="557.71,-233.59 554.71,-237.59 533.71,-237.59 530.71,-233.59 472.29,-233.59 472.29,-197.59 557.71,-197.59 557.71,-233.59"/>
<text text-anchor="middle" x="515" y="-211.39" font-family="Times,serif" font-size="14.00">I18nModule</text>
</g>
<!-- I18nModule&#45;&gt;SearchModule -->
<g id="edge3" class="edge">
<title>I18nModule&#45;&gt;SearchModule</title>
<path fill="none" stroke="black" d="M515,-233.7C515,-252.93 515,-280.59 515,-280.59 515,-280.59 470.79,-280.59 470.79,-280.59"/>
<polygon fill="black" stroke="black" points="470.79,-277.09 460.79,-280.59 470.79,-284.09 470.79,-277.09"/>
</g>
<!-- IconModule -->
<g id="node5" class="node">
<title>IconModule</title>
<polygon fill="#8dd3c7" stroke="black" points="454.43,-233.59 451.43,-237.59 430.43,-237.59 427.43,-233.59 369.57,-233.59 369.57,-197.59 454.43,-197.59 454.43,-233.59"/>
<text text-anchor="middle" x="412" y="-211.39" font-family="Times,serif" font-size="14.00">IconModule</text>
</g>
<!-- IconModule&#45;&gt;SearchModule -->
<g id="edge4" class="edge">
<title>IconModule&#45;&gt;SearchModule</title>
<path fill="none" stroke="black" d="M412,-233.7C412,-233.7 412,-252.58 412,-252.58"/>
<polygon fill="black" stroke="black" points="408.5,-252.58 412,-262.58 415.5,-252.58 408.5,-252.58"/>
</g>
</g>
</svg>
