<?xml version="1.0" encoding="UTF-8" standalone="no"?>
<!DOCTYPE svg PUBLIC "-//W3C//DTD SVG 1.1//EN"
 "http://www.w3.org/Graphics/SVG/1.1/DTD/svg11.dtd">
<!-- Generated by graphviz version 2.40.1 (20161225.0304)
 -->
<!-- Title: dependencies Pages: 1 -->
<svg width="1300pt" height="284pt"
 viewBox="0.00 0.00 1300.00 284.00" xmlns="http://www.w3.org/2000/svg" xmlns:xlink="http://www.w3.org/1999/xlink">
<g id="graph0" class="graph" transform="scale(1 1) rotate(0) translate(4 280)">
<title>dependencies</title>
<polygon fill="#ffffff" stroke="transparent" points="-4,4 -4,-280 1296,-280 1296,4 -4,4"/>
<text text-anchor="start" x="625.0091" y="-42.4" font-family="sans-serif" font-weight="bold" font-size="14.00" fill="#000000">Legend</text>
<polygon fill="#ffffb3" stroke="transparent" points="412,-10 412,-30 432,-30 432,-10 412,-10"/>
<text text-anchor="start" x="435.629" y="-15.4" font-family="sans-serif" font-size="14.00" fill="#000000"> &#160;Declarations</text>
<polygon fill="#8dd3c7" stroke="transparent" points="525,-10 525,-30 545,-30 545,-10 525,-10"/>
<text text-anchor="start" x="548.7251" y="-15.4" font-family="sans-serif" font-size="14.00" fill="#000000"> &#160;Module</text>
<polygon fill="#80b1d3" stroke="transparent" points="611,-10 611,-30 631,-30 631,-10 611,-10"/>
<text text-anchor="start" x="634.7812" y="-15.4" font-family="sans-serif" font-size="14.00" fill="#000000"> &#160;Bootstrap</text>
<polygon fill="#fdb462" stroke="transparent" points="708,-10 708,-30 728,-30 728,-10 708,-10"/>
<text text-anchor="start" x="731.6732" y="-15.4" font-family="sans-serif" font-size="14.00" fill="#000000"> &#160;Providers</text>
<polygon fill="#fb8072" stroke="transparent" points="804,-10 804,-30 824,-30 824,-10 804,-10"/>
<text text-anchor="start" x="827.7258" y="-15.4" font-family="sans-serif" font-size="14.00" fill="#000000"> &#160;Exports</text>
<g id="clust1" class="cluster">
<title>cluster_ModalModule</title>
<polygon fill="none" stroke="#000000" stroke-dasharray="1,5" points="8,-70 8,-268 1284,-268 1284,-70 8,-70"/>
</g>
<g id="clust2" class="cluster">
<title>cluster_ModalModule_declarations</title>
<polygon fill="none" stroke="#000000" points="673,-78 673,-130 1276,-130 1276,-78 673,-78"/>
</g>
<g id="clust9" class="cluster">
<title>cluster_ModalModule_imports</title>
<polygon fill="none" stroke="#000000" points="170,-78 170,-130 665,-130 665,-78 170,-78"/>
</g>
<g id="clust10" class="cluster">
<title>cluster_ModalModule_exports</title>
<polygon fill="none" stroke="#000000" points="451,-208 451,-260 990,-260 990,-208 451,-208"/>
</g>
<g id="clust12" class="cluster">
<title>cluster_ModalModule_providers</title>
<polygon fill="none" stroke="#000000" points="16,-78 16,-130 162,-130 162,-78 16,-78"/>
</g>
<!-- AlertModal -->
<g id="node1" class="node">
<title>AlertModal</title>
<polygon fill="#ffffb3" stroke="#000000" points="1267.8134,-122 1186.1866,-122 1186.1866,-86 1267.8134,-86 1267.8134,-122"/>
<text text-anchor="middle" x="1227" y="-99.8" font-family="Times,serif" font-size="14.00" fill="#000000">AlertModal</text>
</g>
<!-- ModalModule -->
<g id="node7" class="node">
<title>ModalModule</title>
<polygon fill="#8dd3c7" stroke="#000000" points="760.0997,-187 757.0997,-191 736.0997,-191 733.0997,-187 663.9003,-187 663.9003,-151 760.0997,-151 760.0997,-187"/>
<text text-anchor="middle" x="712" y="-164.8" font-family="Times,serif" font-size="14.00" fill="#000000">ModalModule</text>
</g>
<!-- AlertModal&#45;&gt;ModalModule -->
<g id="edge1" class="edge">
<title>AlertModal&#45;&gt;ModalModule</title>
<path fill="none" stroke="#000000" d="M1227,-122.2843C1227,-143.3211 1227,-175 1227,-175 1227,-175 770.4499,-175 770.4499,-175"/>
<polygon fill="#000000" stroke="#000000" points="770.45,-171.5001 760.4499,-175 770.4499,-178.5001 770.45,-171.5001"/>
</g>
<!-- ModalPlaceholder -->
<g id="node2" class="node">
<title>ModalPlaceholder</title>
<polygon fill="#ffffb3" stroke="#000000" points="1168.1332,-122 1049.8668,-122 1049.8668,-86 1168.1332,-86 1168.1332,-122"/>
<text text-anchor="middle" x="1109" y="-99.8" font-family="Times,serif" font-size="14.00" fill="#000000">ModalPlaceholder</text>
</g>
<!-- ModalPlaceholder&#45;&gt;ModalModule -->
<g id="edge2" class="edge">
<title>ModalPlaceholder&#45;&gt;ModalModule</title>
<path fill="none" stroke="#000000" d="M1109,-122.1061C1109,-141.3391 1109,-169 1109,-169 1109,-169 770.2831,-169 770.2831,-169"/>
<polygon fill="#000000" stroke="#000000" points="770.2831,-165.5001 760.2831,-169 770.2831,-172.5001 770.2831,-165.5001"/>
</g>
<!-- Modal -->
<g id="node3" class="node">
<title>Modal</title>
<polygon fill="#ffffb3" stroke="#000000" points="1032,-122 978,-122 978,-86 1032,-86 1032,-122"/>
<text text-anchor="middle" x="1005" y="-99.8" font-family="Times,serif" font-size="14.00" fill="#000000">Modal</text>
</g>
<!-- Modal&#45;&gt;ModalModule -->
<g id="edge3" class="edge">
<title>Modal&#45;&gt;ModalModule</title>
<path fill="none" stroke="#000000" d="M1007.2032,-122.0225C1007.2032,-139.3734 1007.2032,-163 1007.2032,-163 1007.2032,-163 770.0865,-163 770.0865,-163"/>
<polygon fill="#000000" stroke="#000000" points="770.0865,-159.5001 760.0865,-163 770.0865,-166.5001 770.0865,-159.5001"/>
</g>
<!-- ModalHeader -->
<g id="node4" class="node">
<title>ModalHeader</title>
<polygon fill="#ffffb3" stroke="#000000" points="960.4608,-122 867.5392,-122 867.5392,-86 960.4608,-86 960.4608,-122"/>
<text text-anchor="middle" x="914" y="-99.8" font-family="Times,serif" font-size="14.00" fill="#000000">ModalHeader</text>
</g>
<!-- ModalHeader&#45;&gt;ModalModule -->
<g id="edge4" class="edge">
<title>ModalHeader&#45;&gt;ModalModule</title>
<path fill="none" stroke="#000000" d="M873.793,-122.2396C873.793,-137.5706 873.793,-157 873.793,-157 873.793,-157 770.1052,-157 770.1052,-157"/>
<polygon fill="#000000" stroke="#000000" points="770.1052,-153.5001 760.1052,-157 770.1051,-160.5001 770.1052,-153.5001"/>
</g>
<!-- ModalFooter -->
<g id="node5" class="node">
<title>ModalFooter</title>
<polygon fill="#ffffb3" stroke="#000000" points="849.5983,-122 760.4017,-122 760.4017,-86 849.5983,-86 849.5983,-122"/>
<text text-anchor="middle" x="805" y="-99.8" font-family="Times,serif" font-size="14.00" fill="#000000">ModalFooter</text>
</g>
<!-- ModalFooter&#45;&gt;ModalModule -->
<g id="edge5" class="edge">
<title>ModalFooter&#45;&gt;ModalModule</title>
<path fill="none" stroke="#000000" d="M760.1647,-104C754.8662,-104 751.2967,-104 751.2967,-104 751.2967,-104 751.2967,-140.8939 751.2967,-140.8939"/>
<polygon fill="#000000" stroke="#000000" points="747.7967,-140.8938 751.2967,-150.8939 754.7967,-140.8939 747.7967,-140.8938"/>
</g>
<!-- Overlay -->
<g id="node6" class="node">
<title>Overlay</title>
<polygon fill="#ffffb3" stroke="#000000" points="742.5871,-122 681.4129,-122 681.4129,-86 742.5871,-86 742.5871,-122"/>
<text text-anchor="middle" x="712" y="-99.8" font-family="Times,serif" font-size="14.00" fill="#000000">Overlay</text>
</g>
<!-- Overlay&#45;&gt;ModalModule -->
<g id="edge6" class="edge">
<title>Overlay&#45;&gt;ModalModule</title>
<path fill="none" stroke="#000000" d="M712,-122.1061C712,-122.1061 712,-140.991 712,-140.991"/>
<polygon fill="#000000" stroke="#000000" points="708.5001,-140.9909 712,-150.991 715.5001,-140.991 708.5001,-140.9909"/>
</g>
<!-- AlertModal  -->
<g id="node12" class="node">
<title>AlertModal </title>
<polygon fill="#fb8072" stroke="#000000" points="982.313,-252 897.687,-252 897.687,-216 982.313,-216 982.313,-252"/>
<text text-anchor="middle" x="940" y="-229.8" font-family="Times,serif" font-size="14.00" fill="#000000">AlertModal </text>
</g>
<!-- ModalModule&#45;&gt;AlertModal  -->
<g id="edge11" class="edge">
<title>ModalModule&#45;&gt;AlertModal </title>
<path fill="none" stroke="#000000" stroke-dasharray="5,2" d="M760.1675,-181C824.1084,-181 929.037,-181 929.037,-181 929.037,-181 929.037,-205.7604 929.037,-205.7604"/>
<polygon fill="#000000" stroke="#000000" points="925.5371,-205.7604 929.037,-215.7604 932.5371,-205.7604 925.5371,-205.7604"/>
</g>
<!-- ModalPlaceholder  -->
<g id="node13" class="node">
<title>ModalPlaceholder </title>
<polygon fill="#fb8072" stroke="#000000" points="880.1327,-252 757.8673,-252 757.8673,-216 880.1327,-216 880.1327,-252"/>
<text text-anchor="middle" x="819" y="-229.8" font-family="Times,serif" font-size="14.00" fill="#000000">ModalPlaceholder </text>
</g>
<!-- ModalModule&#45;&gt;ModalPlaceholder  -->
<g id="edge12" class="edge">
<title>ModalModule&#45;&gt;ModalPlaceholder </title>
<path fill="none" stroke="#000000" stroke-dasharray="5,2" d="M748.9793,-187.1061C748.9793,-206.3391 748.9793,-234 748.9793,-234 748.9793,-234 749.8661,-234 749.8661,-234"/>
<polygon fill="#000000" stroke="#000000" points="747.8475,-237.5001 757.8475,-234 747.8474,-230.5001 747.8475,-237.5001"/>
</g>
<!-- Modal  -->
<g id="node14" class="node">
<title>Modal </title>
<polygon fill="#fb8072" stroke="#000000" points="740.0498,-252 683.9502,-252 683.9502,-216 740.0498,-216 740.0498,-252"/>
<text text-anchor="middle" x="712" y="-229.8" font-family="Times,serif" font-size="14.00" fill="#000000">Modal </text>
</g>
<!-- ModalModule&#45;&gt;Modal  -->
<g id="edge13" class="edge">
<title>ModalModule&#45;&gt;Modal </title>
<path fill="none" stroke="#000000" stroke-dasharray="5,2" d="M712,-187.1061C712,-187.1061 712,-205.991 712,-205.991"/>
<polygon fill="#000000" stroke="#000000" points="708.5001,-205.9909 712,-215.991 715.5001,-205.991 708.5001,-205.9909"/>
</g>
<!-- ModalHeader  -->
<g id="node15" class="node">
<title>ModalHeader </title>
<polygon fill="#fb8072" stroke="#000000" points="666.4619,-252 569.5381,-252 569.5381,-216 666.4619,-216 666.4619,-252"/>
<text text-anchor="middle" x="618" y="-229.8" font-family="Times,serif" font-size="14.00" fill="#000000">ModalHeader </text>
</g>
<!-- ModalModule&#45;&gt;ModalHeader  -->
<g id="edge14" class="edge">
<title>ModalModule&#45;&gt;ModalHeader </title>
<path fill="none" stroke="#000000" stroke-dasharray="5,2" d="M663.7781,-182C661.652,-182 660.392,-182 660.392,-182 660.392,-182 660.392,-205.8129 660.392,-205.8129"/>
<polygon fill="#000000" stroke="#000000" points="656.8921,-205.8129 660.392,-215.8129 663.8921,-205.813 656.8921,-205.8129"/>
</g>
<!-- ModalFooter  -->
<g id="node16" class="node">
<title>ModalFooter </title>
<polygon fill="#fb8072" stroke="#000000" points="551.0991,-252 458.9009,-252 458.9009,-216 551.0991,-216 551.0991,-252"/>
<text text-anchor="middle" x="505" y="-229.8" font-family="Times,serif" font-size="14.00" fill="#000000">ModalFooter </text>
</g>
<!-- ModalModule&#45;&gt;ModalFooter  -->
<g id="edge15" class="edge">
<title>ModalModule&#45;&gt;ModalFooter </title>
<path fill="none" stroke="#000000" stroke-dasharray="5,2" d="M663.6059,-177C614.6756,-177 546.2267,-177 546.2267,-177 546.2267,-177 546.2267,-205.9648 546.2267,-205.9648"/>
<polygon fill="#000000" stroke="#000000" points="542.7268,-205.9648 546.2267,-215.9648 549.7268,-205.9649 542.7268,-205.9648"/>
</g>
<!-- ButtonModule -->
<g id="node8" class="node">
<title>ButtonModule</title>
<polygon fill="#8dd3c7" stroke="#000000" points="656.6682,-122 653.6682,-126 632.6682,-126 629.6682,-122 559.3318,-122 559.3318,-86 656.6682,-86 656.6682,-122"/>
<text text-anchor="middle" x="608" y="-99.8" font-family="Times,serif" font-size="14.00" fill="#000000">ButtonModule</text>
</g>
<!-- ButtonModule&#45;&gt;ModalModule -->
<g id="edge7" class="edge">
<title>ButtonModule&#45;&gt;ModalModule</title>
<path fill="none" stroke="#000000" d="M656.7093,-104C665.9019,-104 672.7034,-104 672.7034,-104 672.7034,-104 672.7034,-140.8939 672.7034,-140.8939"/>
<polygon fill="#000000" stroke="#000000" points="669.2034,-140.8938 672.7034,-150.8939 676.2034,-140.8939 669.2034,-140.8938"/>
</g>
<!-- StaticIconModule -->
<g id="node9" class="node">
<title>StaticIconModule</title>
<polygon fill="#8dd3c7" stroke="#000000" points="541.309,-122 538.309,-126 517.309,-126 514.309,-122 424.691,-122 424.691,-86 541.309,-86 541.309,-122"/>
<text text-anchor="middle" x="483" y="-99.8" font-family="Times,serif" font-size="14.00" fill="#000000">StaticIconModule</text>
</g>
<!-- StaticIconModule&#45;&gt;ModalModule -->
<g id="edge8" class="edge">
<title>StaticIconModule&#45;&gt;ModalModule</title>
<path fill="none" stroke="#000000" d="M499.9276,-122.2396C499.9276,-137.5706 499.9276,-157 499.9276,-157 499.9276,-157 653.8775,-157 653.8775,-157"/>
<polygon fill="#000000" stroke="#000000" points="653.8775,-160.5001 663.8775,-157 653.8775,-153.5001 653.8775,-160.5001"/>
</g>
<!-- I18nModule -->
<g id="node10" class="node">
<title>I18nModule</title>
<polygon fill="#8dd3c7" stroke="#000000" points="406.7107,-122 403.7107,-126 382.7107,-126 379.7107,-122 321.2893,-122 321.2893,-86 406.7107,-86 406.7107,-122"/>
<text text-anchor="middle" x="364" y="-99.8" font-family="Times,serif" font-size="14.00" fill="#000000">I18nModule</text>
</g>
<!-- I18nModule&#45;&gt;ModalModule -->
<g id="edge9" class="edge">
<title>I18nModule&#45;&gt;ModalModule</title>
<path fill="none" stroke="#000000" d="M364,-122.0336C364,-139.0597 364,-162 364,-162 364,-162 653.6121,-162 653.6121,-162"/>
<polygon fill="#000000" stroke="#000000" points="653.6121,-165.5001 663.6121,-162 653.6121,-158.5001 653.6121,-165.5001"/>
</g>
<!-- PlaceholderModule -->
<g id="node11" class="node">
<title>PlaceholderModule</title>
<polygon fill="#8dd3c7" stroke="#000000" points="303.6331,-122 300.6331,-126 279.6331,-126 276.6331,-122 178.3669,-122 178.3669,-86 303.6331,-86 303.6331,-122"/>
<text text-anchor="middle" x="241" y="-99.8" font-family="Times,serif" font-size="14.00" fill="#000000">PlaceholderModule</text>
</g>
<!-- PlaceholderModule&#45;&gt;ModalModule -->
<g id="edge10" class="edge">
<title>PlaceholderModule&#45;&gt;ModalModule</title>
<path fill="none" stroke="#000000" d="M241,-122.2222C241,-140.8285 241,-167 241,-167 241,-167 653.8082,-167 653.8082,-167"/>
<polygon fill="#000000" stroke="#000000" points="653.8082,-170.5001 663.8082,-167 653.8082,-163.5001 653.8082,-170.5001"/>
</g>
<!-- ModalService -->
<g id="node17" class="node">
<title>ModalService</title>
<ellipse fill="#fdb462" stroke="#000000" cx="89" cy="-104" rx="65.4072" ry="18"/>
<text text-anchor="middle" x="89" y="-99.8" font-family="Times,serif" font-size="14.00" fill="#000000">ModalService</text>
</g>
<!-- ModalService&#45;&gt;ModalModule -->
<g id="edge16" class="edge">
<title>ModalService&#45;&gt;ModalModule</title>
<path fill="none" stroke="#000000" d="M89,-122.2228C89,-142.3652 89,-172 89,-172 89,-172 653.891,-172 653.891,-172"/>
<polygon fill="#000000" stroke="#000000" points="653.891,-175.5001 663.891,-172 653.8909,-168.5001 653.891,-175.5001"/>
</g>
</g>
</svg>
