<?xml version="1.0" encoding="UTF-8" standalone="no"?>
<!DOCTYPE svg PUBLIC "-//W3C//DTD SVG 1.1//EN"
 "http://www.w3.org/Graphics/SVG/1.1/DTD/svg11.dtd">
<!-- Generated by graphviz version 2.40.1 (20161225.0304)
 -->
<!-- Title: dependencies Pages: 1 -->
<svg width="642pt" height="396pt"
 viewBox="0.00 0.00 642.00 395.59" xmlns="http://www.w3.org/2000/svg" xmlns:xlink="http://www.w3.org/1999/xlink">
<g id="graph0" class="graph" transform="scale(1 1) rotate(0) translate(4 391.5901)">
<title>dependencies</title>
<polygon fill="#ffffff" stroke="transparent" points="-4,4 -4,-391.5901 638,-391.5901 638,4 -4,4"/>
<text text-anchor="start" x="296.0091" y="-42.4" font-family="sans-serif" font-weight="bold" font-size="14.00" fill="#000000">Legend</text>
<polygon fill="#ffffb3" stroke="transparent" points="83,-10 83,-30 103,-30 103,-10 83,-10"/>
<text text-anchor="start" x="106.629" y="-15.4" font-family="sans-serif" font-size="14.00" fill="#000000"> &#160;Declarations</text>
<polygon fill="#8dd3c7" stroke="transparent" points="196,-10 196,-30 216,-30 216,-10 196,-10"/>
<text text-anchor="start" x="219.7251" y="-15.4" font-family="sans-serif" font-size="14.00" fill="#000000"> &#160;Module</text>
<polygon fill="#80b1d3" stroke="transparent" points="282,-10 282,-30 302,-30 302,-10 282,-10"/>
<text text-anchor="start" x="305.7812" y="-15.4" font-family="sans-serif" font-size="14.00" fill="#000000"> &#160;Bootstrap</text>
<polygon fill="#fdb462" stroke="transparent" points="379,-10 379,-30 399,-30 399,-10 379,-10"/>
<text text-anchor="start" x="402.6732" y="-15.4" font-family="sans-serif" font-size="14.00" fill="#000000"> &#160;Providers</text>
<polygon fill="#fb8072" stroke="transparent" points="475,-10 475,-30 495,-30 495,-10 475,-10"/>
<text text-anchor="start" x="498.7258" y="-15.4" font-family="sans-serif" font-size="14.00" fill="#000000"> &#160;Exports</text>
<g id="clust1" class="cluster">
<title>cluster_SelectModule</title>
<polygon fill="none" stroke="#000000" stroke-dasharray="1,5" points="8,-70 8,-379.5901 626,-379.5901 626,-70 8,-70"/>
</g>
<g id="clust2" class="cluster">
<title>cluster_SelectModule_declarations</title>
<polygon fill="none" stroke="#000000" points="282,-189.5901 282,-241.5901 515,-241.5901 515,-189.5901 282,-189.5901"/>
</g>
<g id="clust5" class="cluster">
<title>cluster_SelectModule_Select_providers</title>
<polygon fill="none" stroke="#000000" points="16,-78 16,-176.5901 618,-176.5901 618,-78 16,-78"/>
</g>
<g id="clust7" class="cluster">
<title>cluster_SelectModule_exports</title>
<polygon fill="none" stroke="#000000" points="280,-319.5901 280,-371.5901 520,-371.5901 520,-319.5901 280,-319.5901"/>
</g>
<!-- OptGroup -->
<g id="node1" class="node">
<title>OptGroup</title>
<polygon fill="#ffffb3" stroke="#000000" points="507.2648,-233.5901 434.7352,-233.5901 434.7352,-197.5901 507.2648,-197.5901 507.2648,-233.5901"/>
<text text-anchor="middle" x="471" y="-211.3901" font-family="Times,serif" font-size="14.00" fill="#000000">OptGroup</text>
</g>
<!-- SelectModule -->
<g id="node4" class="node">
<title>SelectModule</title>
<polygon fill="#8dd3c7" stroke="#000000" points="435.7577,-298.5901 432.7577,-302.5901 411.7577,-302.5901 408.7577,-298.5901 342.2423,-298.5901 342.2423,-262.5901 435.7577,-262.5901 435.7577,-298.5901"/>
<text text-anchor="middle" x="389" y="-276.3901" font-family="Times,serif" font-size="14.00" fill="#000000">SelectModule</text>
</g>
<!-- OptGroup&#45;&gt;SelectModule -->
<g id="edge1" class="edge">
<title>OptGroup&#45;&gt;SelectModule</title>
<path fill="none" stroke="#000000" d="M434.7322,-215.5901C429.3301,-215.5901 425.5309,-215.5901 425.5309,-215.5901 425.5309,-215.5901 425.5309,-252.4839 425.5309,-252.4839"/>
<polygon fill="#000000" stroke="#000000" points="422.0309,-252.4839 425.5309,-262.4839 429.0309,-252.484 422.0309,-252.4839"/>
</g>
<!-- Option -->
<g id="node2" class="node">
<title>Option</title>
<polygon fill="#ffffb3" stroke="#000000" points="416.3879,-233.5901 361.6121,-233.5901 361.6121,-197.5901 416.3879,-197.5901 416.3879,-233.5901"/>
<text text-anchor="middle" x="389" y="-211.3901" font-family="Times,serif" font-size="14.00" fill="#000000">Option</text>
</g>
<!-- Option&#45;&gt;SelectModule -->
<g id="edge2" class="edge">
<title>Option&#45;&gt;SelectModule</title>
<path fill="none" stroke="#000000" d="M389,-233.6962C389,-233.6962 389,-252.581 389,-252.581"/>
<polygon fill="#000000" stroke="#000000" points="385.5001,-252.581 389,-262.581 392.5001,-252.5811 385.5001,-252.581"/>
</g>
<!-- Select -->
<g id="node3" class="node">
<title>Select</title>
<polygon fill="#ffffb3" stroke="#000000" points="344,-233.5901 290,-233.5901 290,-197.5901 344,-197.5901 344,-233.5901"/>
<text text-anchor="middle" x="317" y="-211.3901" font-family="Times,serif" font-size="14.00" fill="#000000">Select</text>
</g>
<!-- Select&#45;&gt;SelectModule -->
<g id="edge3" class="edge">
<title>Select&#45;&gt;SelectModule</title>
<path fill="none" stroke="#000000" d="M344.1172,-215.5901C349.1072,-215.5901 352.7781,-215.5901 352.7781,-215.5901 352.7781,-215.5901 352.7781,-252.4839 352.7781,-252.4839"/>
<polygon fill="#000000" stroke="#000000" points="349.2781,-252.4839 352.7781,-262.4839 356.2781,-252.484 349.2781,-252.4839"/>
</g>
<!-- OptGroup  -->
<g id="node6" class="node">
<title>OptGroup </title>
<polygon fill="#fb8072" stroke="#000000" points="512.2649,-363.5901 435.7351,-363.5901 435.7351,-327.5901 512.2649,-327.5901 512.2649,-363.5901"/>
<text text-anchor="middle" x="474" y="-341.3901" font-family="Times,serif" font-size="14.00" fill="#000000">OptGroup </text>
</g>
<!-- SelectModule&#45;&gt;OptGroup  -->
<g id="edge5" class="edge">
<title>SelectModule&#45;&gt;OptGroup </title>
<path fill="none" stroke="#000000" stroke-dasharray="5,2" d="M427.0309,-298.6962C427.0309,-317.9292 427.0309,-345.5901 427.0309,-345.5901 427.0309,-345.5901 427.8923,-345.5901 427.8923,-345.5901"/>
<polygon fill="#000000" stroke="#000000" points="425.6458,-349.0902 435.6457,-345.5901 425.6457,-342.0902 425.6458,-349.0902"/>
</g>
<!-- Option  -->
<g id="node7" class="node">
<title>Option </title>
<polygon fill="#fb8072" stroke="#000000" points="418.3891,-363.5901 359.6109,-363.5901 359.6109,-327.5901 418.3891,-327.5901 418.3891,-363.5901"/>
<text text-anchor="middle" x="389" y="-341.3901" font-family="Times,serif" font-size="14.00" fill="#000000">Option </text>
</g>
<!-- SelectModule&#45;&gt;Option  -->
<g id="edge6" class="edge">
<title>SelectModule&#45;&gt;Option </title>
<path fill="none" stroke="#000000" stroke-dasharray="5,2" d="M389,-298.6962C389,-298.6962 389,-317.581 389,-317.581"/>
<polygon fill="#000000" stroke="#000000" points="385.5001,-317.581 389,-327.581 392.5001,-317.5811 385.5001,-317.581"/>
</g>
<!-- Select  -->
<g id="node8" class="node">
<title>Select </title>
<polygon fill="#fb8072" stroke="#000000" points="342,-363.5901 288,-363.5901 288,-327.5901 342,-327.5901 342,-363.5901"/>
<text text-anchor="middle" x="315" y="-341.3901" font-family="Times,serif" font-size="14.00" fill="#000000">Select </text>
</g>
<!-- SelectModule&#45;&gt;Select  -->
<g id="edge7" class="edge">
<title>SelectModule&#45;&gt;Select </title>
<path fill="none" stroke="#000000" stroke-dasharray="5,2" d="M350.9637,-298.6962C350.9637,-317.9292 350.9637,-345.5901 350.9637,-345.5901 350.9637,-345.5901 350.0931,-345.5901 350.0931,-345.5901"/>
<polygon fill="#000000" stroke="#000000" points="352.2579,-342.0902 342.2579,-345.5901 352.2578,-349.0902 352.2579,-342.0902"/>
</g>
<!-- {
 &#160;&#160;&#160;provide: NG_VALUE_ACCESSOR, useExisting: Select, multi: true
} -->
<g id="node5" class="node">
<title>{
 &#160;&#160;&#160;provide: NG_VALUE_ACCESSOR, useExisting: Select, multi: true
}</title>
<ellipse fill="#fdb462" stroke="#000000" cx="317" cy="-127.295" rx="292.6742" ry="41.0911"/>
<text text-anchor="middle" x="317" y="-139.895" font-family="Times,serif" font-size="14.00" fill="#000000">{</text>
<text text-anchor="middle" x="317" y="-123.095" font-family="Times,serif" font-size="14.00" fill="#000000"> &#160;&#160;&#160;provide: NG_VALUE_ACCESSOR, useExisting: Select, multi: true</text>
<text text-anchor="middle" x="317" y="-106.295" font-family="Times,serif" font-size="14.00" fill="#000000">}</text>
</g>
<!-- {
 &#160;&#160;&#160;provide: NG_VALUE_ACCESSOR, useExisting: Select, multi: true
}&#45;&gt;Select -->
<g id="edge4" class="edge">
<title>{
 &#160;&#160;&#160;provide: NG_VALUE_ACCESSOR, useExisting: Select, multi: true
}&#45;&gt;Select</title>
<path fill="none" stroke="#000000" d="M317,-168.5989C317,-168.5989 317,-187.2551 317,-187.2551"/>
<polygon fill="#000000" stroke="#000000" points="313.5001,-187.255 317,-197.2551 320.5001,-187.2551 313.5001,-187.255"/>
</g>
</g>
</svg>
