<?xml version="1.0" encoding="UTF-8" standalone="no"?>
<!DOCTYPE svg PUBLIC "-//W3C//DTD SVG 1.1//EN"
 "http://www.w3.org/Graphics/SVG/1.1/DTD/svg11.dtd">
<!-- Generated by graphviz version 2.47.0 (20210316.0004)
 -->
<!-- Title: dependencies Pages: 1 -->
<svg width="504pt" height="284pt"
 viewBox="0.00 0.00 504.00 284.00" xmlns="http://www.w3.org/2000/svg" xmlns:xlink="http://www.w3.org/1999/xlink">
<g id="graph0" class="graph" transform="scale(1 1) rotate(0) translate(4 280)">
<title>dependencies</title>
<polygon fill="white" stroke="transparent" points="-4,4 -4,-280 500,-280 500,4 -4,4"/>
<text text-anchor="start" x="227.01" y="-42.4" font-family="Times-12" font-weight="bold" font-size="14.00">Legend</text>
<polygon fill="#ffffb3" stroke="transparent" points="14,-10 14,-30 34,-30 34,-10 14,-10"/>
<text text-anchor="start" x="37.63" y="-15.4" font-family="Times-12" font-size="14.00"> &#160;Declarations</text>
<polygon fill="#8dd3c7" stroke="transparent" points="127,-10 127,-30 147,-30 147,-10 127,-10"/>
<text text-anchor="start" x="150.73" y="-15.4" font-family="Times-12" font-size="14.00"> &#160;Module</text>
<polygon fill="#80b1d3" stroke="transparent" points="213,-10 213,-30 233,-30 233,-10 213,-10"/>
<text text-anchor="start" x="236.78" y="-15.4" font-family="Times-12" font-size="14.00"> &#160;Bootstrap</text>
<polygon fill="#fdb462" stroke="transparent" points="310,-10 310,-30 330,-30 330,-10 310,-10"/>
<text text-anchor="start" x="333.67" y="-15.4" font-family="Times-12" font-size="14.00"> &#160;Providers</text>
<polygon fill="#fb8072" stroke="transparent" points="406,-10 406,-30 426,-30 426,-10 406,-10"/>
<text text-anchor="start" x="429.73" y="-15.4" font-family="Times-12" font-size="14.00"> &#160;Exports</text>
<g id="clust1" class="cluster">
<title>cluster_PanelModule</title>
<polygon fill="none" stroke="black" stroke-dasharray="1,5" points="31.5,-70 31.5,-268 464.5,-268 464.5,-70 31.5,-70"/>
</g>
<g id="clust2" class="cluster">
<title>cluster_PanelModule_declarations</title>
<polygon fill="none" stroke="black" points="149.5,-78 149.5,-130 456.5,-130 456.5,-78 149.5,-78"/>
</g>
<g id="clust7" class="cluster">
<title>cluster_PanelModule_exports</title>
<polygon fill="none" stroke="black" points="90.5,-208 90.5,-260 404.5,-260 404.5,-208 90.5,-208"/>
</g>
<g id="clust6" class="cluster">
<title>cluster_PanelModule_imports</title>
<polygon fill="none" stroke="black" points="39.5,-78 39.5,-130 141.5,-130 141.5,-78 39.5,-78"/>
</g>
<!-- Panel -->
<g id="node1" class="node">
<title>Panel</title>
<polygon fill="#ffffb3" stroke="black" points="448.5,-122 394.5,-122 394.5,-86 448.5,-86 448.5,-122"/>
<text text-anchor="middle" x="421.5" y="-99.8" font-family="Times,serif" font-size="14.00">Panel</text>
</g>
<!-- PanelModule -->
<g id="node4" class="node">
<title>PanelModule</title>
<polygon fill="#8dd3c7" stroke="black" points="323.65,-187 320.65,-191 299.65,-191 296.65,-187 233.35,-187 233.35,-151 323.65,-151 323.65,-187"/>
<text text-anchor="middle" x="278.5" y="-164.8" font-family="Times,serif" font-size="14.00">PanelModule</text>
</g>
<!-- Panel&#45;&gt;PanelModule -->
<g id="edge1" class="edge">
<title>Panel&#45;&gt;PanelModule</title>
<path fill="none" stroke="black" d="M422.5,-122.02C422.5,-139.37 422.5,-163 422.5,-163 422.5,-163 333.67,-163 333.67,-163"/>
<polygon fill="black" stroke="black" points="333.67,-159.5 323.67,-163 333.67,-166.5 333.67,-159.5"/>
</g>
<!-- SwitcherList -->
<g id="node2" class="node">
<title>SwitcherList</title>
<polygon fill="#ffffb3" stroke="black" points="376.04,-122 288.96,-122 288.96,-86 376.04,-86 376.04,-122"/>
<text text-anchor="middle" x="332.5" y="-99.8" font-family="Times,serif" font-size="14.00">SwitcherList</text>
</g>
<!-- SwitcherList&#45;&gt;PanelModule -->
<g id="edge2" class="edge">
<title>SwitcherList&#45;&gt;PanelModule</title>
<path fill="none" stroke="black" d="M306.28,-122.11C306.28,-122.11 306.28,-140.99 306.28,-140.99"/>
<polygon fill="black" stroke="black" points="302.78,-140.99 306.28,-150.99 309.78,-140.99 302.78,-140.99"/>
</g>
<!-- SwitcherListItem -->
<g id="node3" class="node">
<title>SwitcherListItem</title>
<polygon fill="#ffffb3" stroke="black" points="271.2,-122 157.8,-122 157.8,-86 271.2,-86 271.2,-122"/>
<text text-anchor="middle" x="214.5" y="-99.8" font-family="Times,serif" font-size="14.00">SwitcherListItem</text>
</g>
<!-- SwitcherListItem&#45;&gt;PanelModule -->
<g id="edge3" class="edge">
<title>SwitcherListItem&#45;&gt;PanelModule</title>
<path fill="none" stroke="black" d="M252.14,-122.11C252.14,-122.11 252.14,-140.99 252.14,-140.99"/>
<polygon fill="black" stroke="black" points="248.64,-140.99 252.14,-150.99 255.64,-140.99 248.64,-140.99"/>
</g>
<!-- Panel  -->
<g id="node6" class="node">
<title>Panel </title>
<polygon fill="#fb8072" stroke="black" points="396.5,-252 342.5,-252 342.5,-216 396.5,-216 396.5,-252"/>
<text text-anchor="middle" x="369.5" y="-229.8" font-family="Times,serif" font-size="14.00">Panel </text>
</g>
<!-- PanelModule&#45;&gt;Panel  -->
<g id="edge5" class="edge">
<title>PanelModule&#45;&gt;Panel </title>
<path fill="none" stroke="black" stroke-dasharray="5,2" d="M323.67,-175C342.2,-175 359.38,-175 359.38,-175 359.38,-175 359.38,-205.98 359.38,-205.98"/>
<polygon fill="black" stroke="black" points="355.88,-205.98 359.38,-215.98 362.88,-205.98 355.88,-205.98"/>
</g>
<!-- SwitcherList  -->
<g id="node7" class="node">
<title>SwitcherList </title>
<polygon fill="#fb8072" stroke="black" points="324.04,-252 232.96,-252 232.96,-216 324.04,-216 324.04,-252"/>
<text text-anchor="middle" x="278.5" y="-229.8" font-family="Times,serif" font-size="14.00">SwitcherList </text>
</g>
<!-- PanelModule&#45;&gt;SwitcherList  -->
<g id="edge6" class="edge">
<title>PanelModule&#45;&gt;SwitcherList </title>
<path fill="none" stroke="black" stroke-dasharray="5,2" d="M278.5,-187.11C278.5,-187.11 278.5,-205.99 278.5,-205.99"/>
<polygon fill="black" stroke="black" points="275,-205.99 278.5,-215.99 282,-205.99 275,-205.99"/>
</g>
<!-- SwitcherListItem  -->
<g id="node8" class="node">
<title>SwitcherListItem </title>
<polygon fill="#fb8072" stroke="black" points="214.7,-252 98.3,-252 98.3,-216 214.7,-216 214.7,-252"/>
<text text-anchor="middle" x="156.5" y="-229.8" font-family="Times,serif" font-size="14.00">SwitcherListItem </text>
</g>
<!-- PanelModule&#45;&gt;SwitcherListItem  -->
<g id="edge7" class="edge">
<title>PanelModule&#45;&gt;SwitcherListItem </title>
<path fill="none" stroke="black" stroke-dasharray="5,2" d="M233.25,-175C209.95,-175 186.38,-175 186.38,-175 186.38,-175 186.38,-205.98 186.38,-205.98"/>
<polygon fill="black" stroke="black" points="182.88,-205.98 186.38,-215.98 189.88,-205.98 182.88,-205.98"/>
</g>
<!-- I18nModule -->
<g id="node5" class="node">
<title>I18nModule</title>
<polygon fill="#8dd3c7" stroke="black" points="133.21,-122 130.21,-126 109.21,-126 106.21,-122 47.79,-122 47.79,-86 133.21,-86 133.21,-122"/>
<text text-anchor="middle" x="90.5" y="-99.8" font-family="Times,serif" font-size="14.00">I18nModule</text>
</g>
<!-- I18nModule&#45;&gt;PanelModule -->
<g id="edge4" class="edge">
<title>I18nModule&#45;&gt;PanelModule</title>
<path fill="none" stroke="black" d="M115.63,-122.02C115.63,-139.37 115.63,-163 115.63,-163 115.63,-163 223.13,-163 223.13,-163"/>
<polygon fill="black" stroke="black" points="223.13,-166.5 233.13,-163 223.13,-159.5 223.13,-166.5"/>
</g>
</g>
</svg>
