<?xml version="1.0" encoding="UTF-8" standalone="no"?>
<!DOCTYPE svg PUBLIC "-//W3C//DTD SVG 1.1//EN"
 "http://www.w3.org/Graphics/SVG/1.1/DTD/svg11.dtd">
<!-- Generated by graphviz version 2.40.1 (20161225.0304)
 -->
<!-- Title: dependencies Pages: 1 -->
<svg width="641pt" height="284pt"
 viewBox="0.00 0.00 641.00 284.00" xmlns="http://www.w3.org/2000/svg" xmlns:xlink="http://www.w3.org/1999/xlink">
<g id="graph0" class="graph" transform="scale(1 1) rotate(0) translate(4 280)">
<title>dependencies</title>
<polygon fill="#ffffff" stroke="transparent" points="-4,4 -4,-280 637,-280 637,4 -4,4"/>
<text text-anchor="start" x="295.5091" y="-42.4" font-family="sans-serif" font-weight="bold" font-size="14.00" fill="#000000">Legend</text>
<polygon fill="#ffffb3" stroke="transparent" points="82.5,-10 82.5,-30 102.5,-30 102.5,-10 82.5,-10"/>
<text text-anchor="start" x="106.129" y="-15.4" font-family="sans-serif" font-size="14.00" fill="#000000"> &#160;Declarations</text>
<polygon fill="#8dd3c7" stroke="transparent" points="195.5,-10 195.5,-30 215.5,-30 215.5,-10 195.5,-10"/>
<text text-anchor="start" x="219.2251" y="-15.4" font-family="sans-serif" font-size="14.00" fill="#000000"> &#160;Module</text>
<polygon fill="#80b1d3" stroke="transparent" points="281.5,-10 281.5,-30 301.5,-30 301.5,-10 281.5,-10"/>
<text text-anchor="start" x="305.2812" y="-15.4" font-family="sans-serif" font-size="14.00" fill="#000000"> &#160;Bootstrap</text>
<polygon fill="#fdb462" stroke="transparent" points="378.5,-10 378.5,-30 398.5,-30 398.5,-10 378.5,-10"/>
<text text-anchor="start" x="402.1732" y="-15.4" font-family="sans-serif" font-size="14.00" fill="#000000"> &#160;Providers</text>
<polygon fill="#fb8072" stroke="transparent" points="474.5,-10 474.5,-30 494.5,-30 494.5,-10 474.5,-10"/>
<text text-anchor="start" x="498.2258" y="-15.4" font-family="sans-serif" font-size="14.00" fill="#000000"> &#160;Exports</text>
<g id="clust1" class="cluster">
<title>cluster_NFormsModule</title>
<polygon fill="none" stroke="#000000" stroke-dasharray="1,5" points="8,-70 8,-268 625,-268 625,-70 8,-70"/>
</g>
<g id="clust3" class="cluster">
<title>cluster_NFormsModule_imports</title>
<polygon fill="none" stroke="#000000" points="26,-78 26,-130 608,-130 608,-78 26,-78"/>
</g>
<g id="clust4" class="cluster">
<title>cluster_NFormsModule_exports</title>
<polygon fill="none" stroke="#000000" points="16,-208 16,-260 617,-260 617,-208 16,-208"/>
</g>
<!-- CheckboxModule -->
<g id="node1" class="node">
<title>CheckboxModule</title>
<polygon fill="#8dd3c7" stroke="#000000" points="600.316,-122 597.316,-126 576.316,-126 573.316,-122 483.684,-122 483.684,-86 600.316,-86 600.316,-122"/>
<text text-anchor="middle" x="542" y="-99.8" font-family="Times,serif" font-size="14.00" fill="#000000">CheckboxModule</text>
</g>
<!-- NFormsModule -->
<g id="node6" class="node">
<title>NFormsModule</title>
<polygon fill="#8dd3c7" stroke="#000000" points="355.9357,-187 352.9357,-191 331.9357,-191 328.9357,-187 250.0643,-187 250.0643,-151 355.9357,-151 355.9357,-187"/>
<text text-anchor="middle" x="303" y="-164.8" font-family="Times,serif" font-size="14.00" fill="#000000">NFormsModule</text>
</g>
<!-- CheckboxModule&#45;&gt;NFormsModule -->
<g id="edge1" class="edge">
<title>CheckboxModule&#45;&gt;NFormsModule</title>
<path fill="none" stroke="#000000" d="M563.1359,-122.2667C563.1359,-140.5552 563.1359,-166 563.1359,-166 563.1359,-166 365.9559,-166 365.9559,-166"/>
<polygon fill="#000000" stroke="#000000" points="365.956,-162.5001 355.9559,-166 365.9559,-169.5001 365.956,-162.5001"/>
</g>
<!-- SwitchModule -->
<g id="node2" class="node">
<title>SwitchModule</title>
<polygon fill="#8dd3c7" stroke="#000000" points="466.4358,-122 463.4358,-126 442.4358,-126 439.4358,-122 367.5642,-122 367.5642,-86 466.4358,-86 466.4358,-122"/>
<text text-anchor="middle" x="417" y="-99.8" font-family="Times,serif" font-size="14.00" fill="#000000">SwitchModule</text>
</g>
<!-- SwitchModule&#45;&gt;NFormsModule -->
<g id="edge2" class="edge">
<title>SwitchModule&#45;&gt;NFormsModule</title>
<path fill="none" stroke="#000000" d="M433.8225,-122.0091C433.8225,-138.0494 433.8225,-159 433.8225,-159 433.8225,-159 365.8334,-159 365.8334,-159"/>
<polygon fill="#000000" stroke="#000000" points="365.8334,-155.5001 355.8334,-159 365.8334,-162.5001 365.8334,-155.5001"/>
</g>
<!-- RadioModule -->
<g id="node3" class="node">
<title>RadioModule</title>
<polygon fill="#8dd3c7" stroke="#000000" points="349.4916,-122 346.4916,-126 325.4916,-126 322.4916,-122 256.5084,-122 256.5084,-86 349.4916,-86 349.4916,-122"/>
<text text-anchor="middle" x="303" y="-99.8" font-family="Times,serif" font-size="14.00" fill="#000000">RadioModule</text>
</g>
<!-- RadioModule&#45;&gt;NFormsModule -->
<g id="edge3" class="edge">
<title>RadioModule&#45;&gt;NFormsModule</title>
<path fill="none" stroke="#000000" d="M303,-122.1061C303,-122.1061 303,-140.991 303,-140.991"/>
<polygon fill="#000000" stroke="#000000" points="299.5001,-140.9909 303,-150.991 306.5001,-140.991 299.5001,-140.9909"/>
</g>
<!-- InputModule -->
<g id="node4" class="node">
<title>InputModule</title>
<polygon fill="#8dd3c7" stroke="#000000" points="238.6011,-122 235.6011,-126 214.6011,-126 211.6011,-122 149.3989,-122 149.3989,-86 238.6011,-86 238.6011,-122"/>
<text text-anchor="middle" x="194" y="-99.8" font-family="Times,serif" font-size="14.00" fill="#000000">InputModule</text>
</g>
<!-- InputModule&#45;&gt;NFormsModule -->
<g id="edge4" class="edge">
<title>InputModule&#45;&gt;NFormsModule</title>
<path fill="none" stroke="#000000" d="M207.3502,-122.0091C207.3502,-138.0494 207.3502,-159 207.3502,-159 207.3502,-159 240.1394,-159 240.1394,-159"/>
<polygon fill="#000000" stroke="#000000" points="240.1394,-162.5001 250.1394,-159 240.1393,-155.5001 240.1394,-162.5001"/>
</g>
<!-- ButtonModule -->
<g id="node5" class="node">
<title>ButtonModule</title>
<polygon fill="#8dd3c7" stroke="#000000" points="131.6682,-122 128.6682,-126 107.6682,-126 104.6682,-122 34.3318,-122 34.3318,-86 131.6682,-86 131.6682,-122"/>
<text text-anchor="middle" x="83" y="-99.8" font-family="Times,serif" font-size="14.00" fill="#000000">ButtonModule</text>
</g>
<!-- ButtonModule&#45;&gt;NFormsModule -->
<g id="edge5" class="edge">
<title>ButtonModule&#45;&gt;NFormsModule</title>
<path fill="none" stroke="#000000" d="M95.1113,-122.2667C95.1113,-140.5552 95.1113,-166 95.1113,-166 95.1113,-166 240.2721,-166 240.2721,-166"/>
<polygon fill="#000000" stroke="#000000" points="240.2722,-169.5001 250.2721,-166 240.2721,-162.5001 240.2722,-169.5001"/>
</g>
<!-- CheckboxModule  -->
<g id="node7" class="node">
<title>CheckboxModule </title>
<polygon fill="#fb8072" stroke="#000000" points="608.8157,-252 489.1843,-252 489.1843,-216 608.8157,-216 608.8157,-252"/>
<text text-anchor="middle" x="549" y="-229.8" font-family="Times,serif" font-size="14.00" fill="#000000">CheckboxModule </text>
</g>
<!-- NFormsModule&#45;&gt;CheckboxModule  -->
<g id="edge6" class="edge">
<title>NFormsModule&#45;&gt;CheckboxModule </title>
<path fill="none" stroke="#000000" stroke-dasharray="5,2" d="M355.8749,-173C421.8528,-173 526.1141,-173 526.1141,-173 526.1141,-173 526.1141,-205.698 526.1141,-205.698"/>
<polygon fill="#000000" stroke="#000000" points="522.6142,-205.698 526.1141,-215.698 529.6142,-205.698 522.6142,-205.698"/>
</g>
<!-- SwitchModule  -->
<g id="node8" class="node">
<title>SwitchModule </title>
<polygon fill="#fb8072" stroke="#000000" points="470.9348,-252 369.0652,-252 369.0652,-216 470.9348,-216 470.9348,-252"/>
<text text-anchor="middle" x="420" y="-229.8" font-family="Times,serif" font-size="14.00" fill="#000000">SwitchModule </text>
</g>
<!-- NFormsModule&#45;&gt;SwitchModule  -->
<g id="edge7" class="edge">
<title>NFormsModule&#45;&gt;SwitchModule </title>
<path fill="none" stroke="#000000" stroke-dasharray="5,2" d="M355.9592,-180C379.2563,-180 401.4275,-180 401.4275,-180 401.4275,-180 401.4275,-205.7181 401.4275,-205.7181"/>
<polygon fill="#000000" stroke="#000000" points="397.9276,-205.718 401.4275,-215.7181 404.9276,-205.7181 397.9276,-205.718"/>
</g>
<!-- RadioModule  -->
<g id="node9" class="node">
<title>RadioModule </title>
<polygon fill="#fb8072" stroke="#000000" points="351.4929,-252 254.5071,-252 254.5071,-216 351.4929,-216 351.4929,-252"/>
<text text-anchor="middle" x="303" y="-229.8" font-family="Times,serif" font-size="14.00" fill="#000000">RadioModule </text>
</g>
<!-- NFormsModule&#45;&gt;RadioModule  -->
<g id="edge8" class="edge">
<title>NFormsModule&#45;&gt;RadioModule </title>
<path fill="none" stroke="#000000" stroke-dasharray="5,2" d="M303,-187.1061C303,-187.1061 303,-205.991 303,-205.991"/>
<polygon fill="#000000" stroke="#000000" points="299.5001,-205.9909 303,-215.991 306.5001,-205.991 299.5001,-205.9909"/>
</g>
<!-- InputModule  -->
<g id="node10" class="node">
<title>InputModule </title>
<polygon fill="#fb8072" stroke="#000000" points="236.1019,-252 143.8981,-252 143.8981,-216 236.1019,-216 236.1019,-252"/>
<text text-anchor="middle" x="190" y="-229.8" font-family="Times,serif" font-size="14.00" fill="#000000">InputModule </text>
</g>
<!-- NFormsModule&#45;&gt;InputModule  -->
<g id="edge9" class="edge">
<title>NFormsModule&#45;&gt;InputModule </title>
<path fill="none" stroke="#000000" stroke-dasharray="5,2" d="M250.1583,-180C216.1985,-180 178.3998,-180 178.3998,-180 178.3998,-180 178.3998,-205.7181 178.3998,-205.7181"/>
<polygon fill="#000000" stroke="#000000" points="174.8999,-205.718 178.3998,-215.7181 181.8999,-205.7181 174.8999,-205.718"/>
</g>
<!-- ButtonModule  -->
<g id="node11" class="node">
<title>ButtonModule </title>
<polygon fill="#fb8072" stroke="#000000" points="125.6677,-252 24.3323,-252 24.3323,-216 125.6677,-216 125.6677,-252"/>
<text text-anchor="middle" x="75" y="-229.8" font-family="Times,serif" font-size="14.00" fill="#000000">ButtonModule </text>
</g>
<!-- NFormsModule&#45;&gt;ButtonModule  -->
<g id="edge10" class="edge">
<title>NFormsModule&#45;&gt;ButtonModule </title>
<path fill="none" stroke="#000000" stroke-dasharray="5,2" d="M250.0999,-173C179.8767,-173 64.6387,-173 64.6387,-173 64.6387,-173 64.6387,-205.698 64.6387,-205.698"/>
<polygon fill="#000000" stroke="#000000" points="61.1388,-205.698 64.6387,-215.698 68.1388,-205.698 61.1388,-205.698"/>
</g>
</g>
</svg>
