<?xml version="1.0" encoding="UTF-8" standalone="no"?>
<!DOCTYPE svg PUBLIC "-//W3C//DTD SVG 1.1//EN"
 "http://www.w3.org/Graphics/SVG/1.1/DTD/svg11.dtd">
<!-- Generated by graphviz version 2.40.1 (20161225.0304)
 -->
<!-- Title: dependencies Pages: 1 -->
<svg width="839pt" height="396pt"
 viewBox="0.00 0.00 839.00 395.59" xmlns="http://www.w3.org/2000/svg" xmlns:xlink="http://www.w3.org/1999/xlink">
<g id="graph0" class="graph" transform="scale(1 1) rotate(0) translate(4 391.5901)">
<title>dependencies</title>
<polygon fill="#ffffff" stroke="transparent" points="-4,4 -4,-391.5901 835,-391.5901 835,4 -4,4"/>
<text text-anchor="start" x="394.5091" y="-42.4" font-family="sans-serif" font-weight="bold" font-size="14.00" fill="#000000">Legend</text>
<polygon fill="#ffffb3" stroke="transparent" points="181.5,-10 181.5,-30 201.5,-30 201.5,-10 181.5,-10"/>
<text text-anchor="start" x="205.129" y="-15.4" font-family="sans-serif" font-size="14.00" fill="#000000"> &#160;Declarations</text>
<polygon fill="#8dd3c7" stroke="transparent" points="294.5,-10 294.5,-30 314.5,-30 314.5,-10 294.5,-10"/>
<text text-anchor="start" x="318.2251" y="-15.4" font-family="sans-serif" font-size="14.00" fill="#000000"> &#160;Module</text>
<polygon fill="#80b1d3" stroke="transparent" points="380.5,-10 380.5,-30 400.5,-30 400.5,-10 380.5,-10"/>
<text text-anchor="start" x="404.2812" y="-15.4" font-family="sans-serif" font-size="14.00" fill="#000000"> &#160;Bootstrap</text>
<polygon fill="#fdb462" stroke="transparent" points="477.5,-10 477.5,-30 497.5,-30 497.5,-10 477.5,-10"/>
<text text-anchor="start" x="501.1732" y="-15.4" font-family="sans-serif" font-size="14.00" fill="#000000"> &#160;Providers</text>
<polygon fill="#fb8072" stroke="transparent" points="573.5,-10 573.5,-30 593.5,-30 593.5,-10 573.5,-10"/>
<text text-anchor="start" x="597.2258" y="-15.4" font-family="sans-serif" font-size="14.00" fill="#000000"> &#160;Exports</text>
<g id="clust1" class="cluster">
<title>cluster_NFormsModule</title>
<polygon fill="none" stroke="#000000" stroke-dasharray="1,5" points="8,-70 8,-379.5901 823,-379.5901 823,-70 8,-70"/>
</g>
<g id="clust2" class="cluster">
<title>cluster_NFormsModule_declarations</title>
<polygon fill="none" stroke="#000000" points="156,-189.5901 156,-241.5901 815,-241.5901 815,-189.5901 156,-189.5901"/>
</g>
<g id="clust3" class="cluster">
<title>cluster_NFormsModule_CheckboxComponent_providers</title>
<polygon fill="none" stroke="#000000" points="668,-78 668,-176.5901 808,-176.5901 808,-78 668,-78"/>
</g>
<g id="clust8" class="cluster">
<title>cluster_NFormsModule_imports</title>
<polygon fill="none" stroke="#000000" points="16,-189.5901 16,-241.5901 148,-241.5901 148,-189.5901 16,-189.5901"/>
</g>
<g id="clust9" class="cluster">
<title>cluster_NFormsModule_exports</title>
<polygon fill="none" stroke="#000000" points="84,-319.5901 84,-371.5901 761,-371.5901 761,-319.5901 84,-319.5901"/>
</g>
<!-- CheckboxComponent -->
<g id="node1" class="node">
<title>CheckboxComponent</title>
<polygon fill="#ffffb3" stroke="#000000" points="807.0982,-233.5901 668.9018,-233.5901 668.9018,-197.5901 807.0982,-197.5901 807.0982,-233.5901"/>
<text text-anchor="middle" x="738" y="-211.3901" font-family="Times,serif" font-size="14.00" fill="#000000">CheckboxComponent</text>
</g>
<!-- NFormsModule -->
<g id="node6" class="node">
<title>NFormsModule</title>
<polygon fill="#8dd3c7" stroke="#000000" points="444.9357,-298.5901 441.9357,-302.5901 420.9357,-302.5901 417.9357,-298.5901 339.0643,-298.5901 339.0643,-262.5901 444.9357,-262.5901 444.9357,-298.5901"/>
<text text-anchor="middle" x="392" y="-276.3901" font-family="Times,serif" font-size="14.00" fill="#000000">NFormsModule</text>
</g>
<!-- CheckboxComponent&#45;&gt;NFormsModule -->
<g id="edge1" class="edge">
<title>CheckboxComponent&#45;&gt;NFormsModule</title>
<path fill="none" stroke="#000000" d="M710.875,-233.8568C710.875,-252.1452 710.875,-277.5901 710.875,-277.5901 710.875,-277.5901 455.0137,-277.5901 455.0137,-277.5901"/>
<polygon fill="#000000" stroke="#000000" points="455.0137,-274.0902 445.0137,-277.5901 455.0136,-281.0902 455.0137,-274.0902"/>
</g>
<!-- SwitchComponent -->
<g id="node2" class="node">
<title>SwitchComponent</title>
<polygon fill="#ffffb3" stroke="#000000" points="651.2176,-233.5901 530.7824,-233.5901 530.7824,-197.5901 651.2176,-197.5901 651.2176,-233.5901"/>
<text text-anchor="middle" x="591" y="-211.3901" font-family="Times,serif" font-size="14.00" fill="#000000">SwitchComponent</text>
</g>
<!-- SwitchComponent&#45;&gt;NFormsModule -->
<g id="edge3" class="edge">
<title>SwitchComponent&#45;&gt;NFormsModule</title>
<path fill="none" stroke="#000000" d="M561.875,-233.5991C561.875,-249.6394 561.875,-270.5901 561.875,-270.5901 561.875,-270.5901 454.8183,-270.5901 454.8183,-270.5901"/>
<polygon fill="#000000" stroke="#000000" points="454.8184,-267.0902 444.8183,-270.5901 454.8183,-274.0902 454.8184,-267.0902"/>
</g>
<!-- RadioComponent -->
<g id="node3" class="node">
<title>RadioComponent</title>
<polygon fill="#ffffb3" stroke="#000000" points="513.2744,-233.5901 398.7256,-233.5901 398.7256,-197.5901 513.2744,-197.5901 513.2744,-233.5901"/>
<text text-anchor="middle" x="456" y="-211.3901" font-family="Times,serif" font-size="14.00" fill="#000000">RadioComponent</text>
</g>
<!-- RadioComponent&#45;&gt;NFormsModule -->
<g id="edge4" class="edge">
<title>RadioComponent&#45;&gt;NFormsModule</title>
<path fill="none" stroke="#000000" d="M421.6652,-233.6962C421.6652,-233.6962 421.6652,-252.581 421.6652,-252.581"/>
<polygon fill="#000000" stroke="#000000" points="418.1652,-252.581 421.6652,-262.581 425.1652,-252.5811 418.1652,-252.581"/>
</g>
<!-- RadioGroup -->
<g id="node4" class="node">
<title>RadioGroup</title>
<polygon fill="#ffffb3" stroke="#000000" points="380.7093,-233.5901 295.2907,-233.5901 295.2907,-197.5901 380.7093,-197.5901 380.7093,-233.5901"/>
<text text-anchor="middle" x="338" y="-211.3901" font-family="Times,serif" font-size="14.00" fill="#000000">RadioGroup</text>
</g>
<!-- RadioGroup&#45;&gt;NFormsModule -->
<g id="edge5" class="edge">
<title>RadioGroup&#45;&gt;NFormsModule</title>
<path fill="none" stroke="#000000" d="M359.9436,-233.6962C359.9436,-233.6962 359.9436,-252.581 359.9436,-252.581"/>
<polygon fill="#000000" stroke="#000000" points="356.4436,-252.581 359.9436,-262.581 363.4436,-252.5811 356.4436,-252.581"/>
</g>
<!-- LabelComponent -->
<g id="node5" class="node">
<title>LabelComponent</title>
<polygon fill="#ffffb3" stroke="#000000" points="277.705,-233.5901 164.295,-233.5901 164.295,-197.5901 277.705,-197.5901 277.705,-233.5901"/>
<text text-anchor="middle" x="221" y="-211.3901" font-family="Times,serif" font-size="14.00" fill="#000000">LabelComponent</text>
</g>
<!-- LabelComponent&#45;&gt;NFormsModule -->
<g id="edge6" class="edge">
<title>LabelComponent&#45;&gt;NFormsModule</title>
<path fill="none" stroke="#000000" d="M252.124,-233.5991C252.124,-249.6394 252.124,-270.5901 252.124,-270.5901 252.124,-270.5901 329.1189,-270.5901 329.1189,-270.5901"/>
<polygon fill="#000000" stroke="#000000" points="329.1189,-274.0902 339.1189,-270.5901 329.1188,-267.0902 329.1189,-274.0902"/>
</g>
<!-- CheckboxComponent  -->
<g id="node9" class="node">
<title>CheckboxComponent </title>
<polygon fill="#fb8072" stroke="#000000" points="752.5988,-363.5901 611.4012,-363.5901 611.4012,-327.5901 752.5988,-327.5901 752.5988,-363.5901"/>
<text text-anchor="middle" x="682" y="-341.3901" font-family="Times,serif" font-size="14.00" fill="#000000">CheckboxComponent </text>
</g>
<!-- NFormsModule&#45;&gt;CheckboxComponent  -->
<g id="edge8" class="edge">
<title>NFormsModule&#45;&gt;CheckboxComponent </title>
<path fill="none" stroke="#000000" stroke-dasharray="5,2" d="M444.7796,-284.5901C515.2081,-284.5901 631.1548,-284.5901 631.1548,-284.5901 631.1548,-284.5901 631.1548,-317.2881 631.1548,-317.2881"/>
<polygon fill="#000000" stroke="#000000" points="627.6549,-317.288 631.1548,-327.2881 634.6549,-317.2881 627.6549,-317.288"/>
</g>
<!-- SwitchComponent  -->
<g id="node10" class="node">
<title>SwitchComponent </title>
<polygon fill="#fb8072" stroke="#000000" points="592.7177,-363.5901 469.2823,-363.5901 469.2823,-327.5901 592.7177,-327.5901 592.7177,-363.5901"/>
<text text-anchor="middle" x="531" y="-341.3901" font-family="Times,serif" font-size="14.00" fill="#000000">SwitchComponent </text>
</g>
<!-- NFormsModule&#45;&gt;SwitchComponent  -->
<g id="edge9" class="edge">
<title>NFormsModule&#45;&gt;SwitchComponent </title>
<path fill="none" stroke="#000000" stroke-dasharray="5,2" d="M444.8291,-291.5901C468.535,-291.5901 491.2642,-291.5901 491.2642,-291.5901 491.2642,-291.5901 491.2642,-317.3081 491.2642,-317.3081"/>
<polygon fill="#000000" stroke="#000000" points="487.7643,-317.3081 491.2642,-327.3081 494.7643,-317.3082 487.7643,-317.3081"/>
</g>
<!-- RadioComponent  -->
<g id="node11" class="node">
<title>RadioComponent </title>
<polygon fill="#fb8072" stroke="#000000" points="451.2745,-363.5901 332.7255,-363.5901 332.7255,-327.5901 451.2745,-327.5901 451.2745,-363.5901"/>
<text text-anchor="middle" x="392" y="-341.3901" font-family="Times,serif" font-size="14.00" fill="#000000">RadioComponent </text>
</g>
<!-- NFormsModule&#45;&gt;RadioComponent  -->
<g id="edge10" class="edge">
<title>NFormsModule&#45;&gt;RadioComponent </title>
<path fill="none" stroke="#000000" stroke-dasharray="5,2" d="M392,-298.6962C392,-298.6962 392,-317.581 392,-317.581"/>
<polygon fill="#000000" stroke="#000000" points="388.5001,-317.581 392,-327.581 395.5001,-317.5811 388.5001,-317.581"/>
</g>
<!-- RadioGroup  -->
<g id="node12" class="node">
<title>RadioGroup </title>
<polygon fill="#fb8072" stroke="#000000" points="315.2095,-363.5901 226.7905,-363.5901 226.7905,-327.5901 315.2095,-327.5901 315.2095,-363.5901"/>
<text text-anchor="middle" x="271" y="-341.3901" font-family="Times,serif" font-size="14.00" fill="#000000">RadioGroup </text>
</g>
<!-- NFormsModule&#45;&gt;RadioGroup  -->
<g id="edge11" class="edge">
<title>NFormsModule&#45;&gt;RadioGroup </title>
<path fill="none" stroke="#000000" stroke-dasharray="5,2" d="M339.1145,-291.5901C321.0792,-291.5901 305.375,-291.5901 305.375,-291.5901 305.375,-291.5901 305.375,-317.3081 305.375,-317.3081"/>
<polygon fill="#000000" stroke="#000000" points="301.8751,-317.3081 305.375,-327.3081 308.8751,-317.3082 301.8751,-317.3081"/>
</g>
<!-- LabelComponent  -->
<g id="node13" class="node">
<title>LabelComponent </title>
<polygon fill="#fb8072" stroke="#000000" points="208.2052,-363.5901 91.7948,-363.5901 91.7948,-327.5901 208.2052,-327.5901 208.2052,-363.5901"/>
<text text-anchor="middle" x="150" y="-341.3901" font-family="Times,serif" font-size="14.00" fill="#000000">LabelComponent </text>
</g>
<!-- NFormsModule&#45;&gt;LabelComponent  -->
<g id="edge12" class="edge">
<title>NFormsModule&#45;&gt;LabelComponent </title>
<path fill="none" stroke="#000000" stroke-dasharray="5,2" d="M339.0465,-284.5901C278.1212,-284.5901 186.375,-284.5901 186.375,-284.5901 186.375,-284.5901 186.375,-317.2881 186.375,-317.2881"/>
<polygon fill="#000000" stroke="#000000" points="182.8751,-317.288 186.375,-327.2881 189.8751,-317.2881 182.8751,-317.288"/>
</g>
<!-- {
 &#160;&#160;&#160;: , : , : true
} -->
<g id="node7" class="node">
<title>{
 &#160;&#160;&#160;: , : , : true
}</title>
<ellipse fill="#fdb462" stroke="#000000" cx="738" cy="-127.295" rx="62.3631" ry="41.0911"/>
<text text-anchor="middle" x="738" y="-139.895" font-family="Times,serif" font-size="14.00" fill="#000000">{</text>
<text text-anchor="middle" x="738" y="-123.095" font-family="Times,serif" font-size="14.00" fill="#000000"> &#160;&#160;&#160;: , : , : true</text>
<text text-anchor="middle" x="738" y="-106.295" font-family="Times,serif" font-size="14.00" fill="#000000">}</text>
</g>
<!-- {
 &#160;&#160;&#160;: , : , : true
}&#45;&gt;CheckboxComponent -->
<g id="edge2" class="edge">
<title>{
 &#160;&#160;&#160;: , : , : true
}&#45;&gt;CheckboxComponent</title>
<path fill="none" stroke="#000000" d="M738,-168.5989C738,-168.5989 738,-187.2551 738,-187.2551"/>
<polygon fill="#000000" stroke="#000000" points="734.5001,-187.255 738,-197.2551 741.5001,-187.2551 734.5001,-187.255"/>
</g>
<!-- StaticIconModule -->
<g id="node8" class="node">
<title>StaticIconModule</title>
<polygon fill="#8dd3c7" stroke="#000000" points="140.309,-233.5901 137.309,-237.5901 116.309,-237.5901 113.309,-233.5901 23.691,-233.5901 23.691,-197.5901 140.309,-197.5901 140.309,-233.5901"/>
<text text-anchor="middle" x="82" y="-211.3901" font-family="Times,serif" font-size="14.00" fill="#000000">StaticIconModule</text>
</g>
<!-- StaticIconModule&#45;&gt;NFormsModule -->
<g id="edge7" class="edge">
<title>StaticIconModule&#45;&gt;NFormsModule</title>
<path fill="none" stroke="#000000" d="M115.901,-233.8568C115.901,-252.1452 115.901,-277.5901 115.9009,-277.5901 115.9009,-277.5901 329.092,-277.5901 329.092,-277.5901"/>
<polygon fill="#000000" stroke="#000000" points="329.092,-281.0902 339.092,-277.5901 329.092,-274.0902 329.092,-281.0902"/>
</g>
</g>
</svg>
