<?xml version="1.0" encoding="UTF-8" standalone="no"?>
<!DOCTYPE svg PUBLIC "-//W3C//DTD SVG 1.1//EN"
 "http://www.w3.org/Graphics/SVG/1.1/DTD/svg11.dtd">
<!-- Generated by graphviz version 2.47.0 (20210316.0004)
 -->
<!-- Title: dependencies Pages: 1 -->
<svg width="674pt" height="396pt"
 viewBox="0.00 0.00 674.00 395.59" xmlns="http://www.w3.org/2000/svg" xmlns:xlink="http://www.w3.org/1999/xlink">
<g id="graph0" class="graph" transform="scale(1 1) rotate(0) translate(4 391.59)">
<title>dependencies</title>
<polygon fill="white" stroke="transparent" points="-4,4 -4,-391.59 670,-391.59 670,4 -4,4"/>
<text text-anchor="start" x="312.01" y="-42.4" font-family="Times-12" font-weight="bold" font-size="14.00">Legend</text>
<polygon fill="#ffffb3" stroke="transparent" points="99,-10 99,-30 119,-30 119,-10 99,-10"/>
<text text-anchor="start" x="122.63" y="-15.4" font-family="Times-12" font-size="14.00"> &#160;Declarations</text>
<polygon fill="#8dd3c7" stroke="transparent" points="212,-10 212,-30 232,-30 232,-10 212,-10"/>
<text text-anchor="start" x="235.73" y="-15.4" font-family="Times-12" font-size="14.00"> &#160;Module</text>
<polygon fill="#80b1d3" stroke="transparent" points="298,-10 298,-30 318,-30 318,-10 298,-10"/>
<text text-anchor="start" x="321.78" y="-15.4" font-family="Times-12" font-size="14.00"> &#160;Bootstrap</text>
<polygon fill="#fdb462" stroke="transparent" points="395,-10 395,-30 415,-30 415,-10 395,-10"/>
<text text-anchor="start" x="418.67" y="-15.4" font-family="Times-12" font-size="14.00"> &#160;Providers</text>
<polygon fill="#fb8072" stroke="transparent" points="491,-10 491,-30 511,-30 511,-10 491,-10"/>
<text text-anchor="start" x="514.73" y="-15.4" font-family="Times-12" font-size="14.00"> &#160;Exports</text>
<g id="clust1" class="cluster">
<title>cluster_CheckboxModule</title>
<polygon fill="none" stroke="black" stroke-dasharray="1,5" points="8,-70 8,-379.59 658,-379.59 658,-70 8,-70"/>
</g>
<g id="clust2" class="cluster">
<title>cluster_CheckboxModule_declarations</title>
<polygon fill="none" stroke="black" points="289,-189.59 289,-241.59 377,-241.59 377,-189.59 289,-189.59"/>
</g>
<g id="clust3" class="cluster">
<title>cluster_CheckboxModule_Checkbox_providers</title>
<polygon fill="none" stroke="black" points="16,-78 16,-176.59 650,-176.59 650,-78 16,-78"/>
</g>
<g id="clust5" class="cluster">
<title>cluster_CheckboxModule_exports</title>
<polygon fill="none" stroke="black" points="287,-319.59 287,-371.59 379,-371.59 379,-319.59 287,-319.59"/>
</g>
<!-- Checkbox -->
<g id="node1" class="node">
<title>Checkbox</title>
<polygon fill="#ffffb3" stroke="black" points="369.27,-233.59 296.73,-233.59 296.73,-197.59 369.27,-197.59 369.27,-233.59"/>
<text text-anchor="middle" x="333" y="-211.39" font-family="Times,serif" font-size="14.00">Checkbox</text>
</g>
<!-- CheckboxModule -->
<g id="node2" class="node">
<title>CheckboxModule</title>
<polygon fill="#8dd3c7" stroke="black" points="391.32,-298.59 388.32,-302.59 367.32,-302.59 364.32,-298.59 274.68,-298.59 274.68,-262.59 391.32,-262.59 391.32,-298.59"/>
<text text-anchor="middle" x="333" y="-276.39" font-family="Times,serif" font-size="14.00">CheckboxModule</text>
</g>
<!-- Checkbox&#45;&gt;CheckboxModule -->
<g id="edge1" class="edge">
<title>Checkbox&#45;&gt;CheckboxModule</title>
<path fill="none" stroke="black" d="M333,-233.7C333,-233.7 333,-252.58 333,-252.58"/>
<polygon fill="black" stroke="black" points="329.5,-252.58 333,-262.58 336.5,-252.58 329.5,-252.58"/>
</g>
<!-- Checkbox  -->
<g id="node4" class="node">
<title>Checkbox </title>
<polygon fill="#fb8072" stroke="black" points="371.27,-363.59 294.73,-363.59 294.73,-327.59 371.27,-327.59 371.27,-363.59"/>
<text text-anchor="middle" x="333" y="-341.39" font-family="Times,serif" font-size="14.00">Checkbox </text>
</g>
<!-- CheckboxModule&#45;&gt;Checkbox  -->
<g id="edge3" class="edge">
<title>CheckboxModule&#45;&gt;Checkbox </title>
<path fill="none" stroke="black" stroke-dasharray="5,2" d="M333,-298.7C333,-298.7 333,-317.58 333,-317.58"/>
<polygon fill="black" stroke="black" points="329.5,-317.58 333,-327.58 336.5,-317.58 329.5,-317.58"/>
</g>
<!-- {
 &#160;&#160;&#160;provide: NG_VALUE_ACCESSOR, useExisting: Checkbox, multi: true
} -->
<g id="node3" class="node">
<title>{
 &#160;&#160;&#160;provide: NG_VALUE_ACCESSOR, useExisting: Checkbox, multi: true
}</title>
<ellipse fill="#fdb462" stroke="black" cx="333" cy="-127.3" rx="308.58" ry="41.09"/>
<text text-anchor="middle" x="333" y="-139.9" font-family="Times,serif" font-size="14.00">{</text>
<text text-anchor="middle" x="333" y="-123.1" font-family="Times,serif" font-size="14.00"> &#160;&#160;&#160;provide: NG_VALUE_ACCESSOR, useExisting: Checkbox, multi: true</text>
<text text-anchor="middle" x="333" y="-106.3" font-family="Times,serif" font-size="14.00">}</text>
</g>
<!-- {
 &#160;&#160;&#160;provide: NG_VALUE_ACCESSOR, useExisting: Checkbox, multi: true
}&#45;&gt;Checkbox -->
<g id="edge2" class="edge">
<title>{
 &#160;&#160;&#160;provide: NG_VALUE_ACCESSOR, useExisting: Checkbox, multi: true
}&#45;&gt;Checkbox</title>
<path fill="none" stroke="black" d="M333,-168.6C333,-168.6 333,-187.26 333,-187.26"/>
<polygon fill="black" stroke="black" points="329.5,-187.26 333,-197.26 336.5,-187.26 329.5,-187.26"/>
</g>
</g>
</svg>
