<?xml version="1.0" encoding="UTF-8" standalone="no"?>
<!DOCTYPE svg PUBLIC "-//W3C//DTD SVG 1.1//EN"
 "http://www.w3.org/Graphics/SVG/1.1/DTD/svg11.dtd">
<!-- Generated by graphviz version 2.47.0 (20210316.0004)
 -->
<!-- Title: dependencies Pages: 1 -->
<svg width="1099pt" height="396pt"
 viewBox="0.00 0.00 1099.00 395.59" xmlns="http://www.w3.org/2000/svg" xmlns:xlink="http://www.w3.org/1999/xlink">
<g id="graph0" class="graph" transform="scale(1 1) rotate(0) translate(4 391.59)">
<title>dependencies</title>
<polygon fill="white" stroke="transparent" points="-4,4 -4,-391.59 1095,-391.59 1095,4 -4,4"/>
<text text-anchor="start" x="524.51" y="-42.4" font-family="Times-12" font-weight="bold" font-size="14.00">Legend</text>
<polygon fill="#ffffb3" stroke="transparent" points="311.5,-10 311.5,-30 331.5,-30 331.5,-10 311.5,-10"/>
<text text-anchor="start" x="335.13" y="-15.4" font-family="Times-12" font-size="14.00"> &#160;Declarations</text>
<polygon fill="#8dd3c7" stroke="transparent" points="424.5,-10 424.5,-30 444.5,-30 444.5,-10 424.5,-10"/>
<text text-anchor="start" x="448.23" y="-15.4" font-family="Times-12" font-size="14.00"> &#160;Module</text>
<polygon fill="#80b1d3" stroke="transparent" points="510.5,-10 510.5,-30 530.5,-30 530.5,-10 510.5,-10"/>
<text text-anchor="start" x="534.28" y="-15.4" font-family="Times-12" font-size="14.00"> &#160;Bootstrap</text>
<polygon fill="#fdb462" stroke="transparent" points="607.5,-10 607.5,-30 627.5,-30 627.5,-10 607.5,-10"/>
<text text-anchor="start" x="631.17" y="-15.4" font-family="Times-12" font-size="14.00"> &#160;Providers</text>
<polygon fill="#fb8072" stroke="transparent" points="703.5,-10 703.5,-30 723.5,-30 723.5,-10 703.5,-10"/>
<text text-anchor="start" x="727.23" y="-15.4" font-family="Times-12" font-size="14.00"> &#160;Exports</text>
<g id="clust1" class="cluster">
<title>cluster_StructuredListModule</title>
<polygon fill="none" stroke="black" stroke-dasharray="1,5" points="8,-70 8,-379.59 1083,-379.59 1083,-70 8,-70"/>
</g>
<g id="clust6" class="cluster">
<title>cluster_StructuredListModule_StructuredList_providers</title>
<polygon fill="none" stroke="black" points="409,-78 409,-241.59 1075,-241.59 1075,-78 409,-78"/>
</g>
<g id="clust7" class="cluster">
<title>cluster_StructuredListModule_imports</title>
<polygon fill="none" stroke="black" points="301,-189.59 301,-241.59 401,-241.59 401,-189.59 301,-189.59"/>
</g>
<g id="clust8" class="cluster">
<title>cluster_StructuredListModule_exports</title>
<polygon fill="none" stroke="black" points="50,-319.59 50,-371.59 456,-371.59 456,-319.59 50,-319.59"/>
</g>
<g id="clust2" class="cluster">
<title>cluster_StructuredListModule_declarations</title>
<polygon fill="none" stroke="black" points="16,-189.59 16,-241.59 293,-241.59 293,-189.59 16,-189.59"/>
</g>
<!-- ListColumn -->
<g id="node1" class="node">
<title>ListColumn</title>
<polygon fill="#ffffb3" stroke="black" points="285.4,-233.59 202.6,-233.59 202.6,-197.59 285.4,-197.59 285.4,-233.59"/>
<text text-anchor="middle" x="244" y="-211.39" font-family="Times,serif" font-size="14.00">ListColumn</text>
</g>
<!-- StructuredListModule -->
<g id="node5" class="node">
<title>StructuredListModule</title>
<polygon fill="#8dd3c7" stroke="black" points="313.64,-298.59 310.64,-302.59 289.64,-302.59 286.64,-298.59 174.36,-298.59 174.36,-262.59 313.64,-262.59 313.64,-298.59"/>
<text text-anchor="middle" x="244" y="-276.39" font-family="Times,serif" font-size="14.00">StructuredListModule</text>
</g>
<!-- ListColumn&#45;&gt;StructuredListModule -->
<g id="edge1" class="edge">
<title>ListColumn&#45;&gt;StructuredListModule</title>
<path fill="none" stroke="black" d="M244,-233.7C244,-233.7 244,-252.58 244,-252.58"/>
<polygon fill="black" stroke="black" points="240.5,-252.58 244,-262.58 247.5,-252.58 240.5,-252.58"/>
</g>
<!-- ListHeader -->
<g id="node2" class="node">
<title>ListHeader</title>
<polygon fill="#ffffb3" stroke="black" points="184.19,-233.59 105.81,-233.59 105.81,-197.59 184.19,-197.59 184.19,-233.59"/>
<text text-anchor="middle" x="145" y="-211.39" font-family="Times,serif" font-size="14.00">ListHeader</text>
</g>
<!-- ListHeader&#45;&gt;StructuredListModule -->
<g id="edge2" class="edge">
<title>ListHeader&#45;&gt;StructuredListModule</title>
<path fill="none" stroke="black" d="M179.14,-233.7C179.14,-233.7 179.14,-252.58 179.14,-252.58"/>
<polygon fill="black" stroke="black" points="175.64,-252.58 179.14,-262.58 182.64,-252.58 175.64,-252.58"/>
</g>
<!-- ListRow -->
<g id="node3" class="node">
<title>ListRow</title>
<polygon fill="#ffffb3" stroke="black" points="88.22,-233.59 23.78,-233.59 23.78,-197.59 88.22,-197.59 88.22,-233.59"/>
<text text-anchor="middle" x="56" y="-211.39" font-family="Times,serif" font-size="14.00">ListRow</text>
</g>
<!-- ListRow&#45;&gt;StructuredListModule -->
<g id="edge3" class="edge">
<title>ListRow&#45;&gt;StructuredListModule</title>
<path fill="none" stroke="black" d="M73.16,-233.61C73.16,-250.96 73.16,-274.59 73.16,-274.59 73.16,-274.59 164.02,-274.59 164.02,-274.59"/>
<polygon fill="black" stroke="black" points="164.02,-278.09 174.02,-274.59 164.02,-271.09 164.02,-278.09"/>
</g>
<!-- StructuredList -->
<g id="node4" class="node">
<title>StructuredList</title>
<polygon fill="#ffffb3" stroke="black" points="651.09,-233.59 554.91,-233.59 554.91,-197.59 651.09,-197.59 651.09,-233.59"/>
<text text-anchor="middle" x="603" y="-211.39" font-family="Times,serif" font-size="14.00">StructuredList</text>
</g>
<!-- StructuredList&#45;&gt;StructuredListModule -->
<g id="edge4" class="edge">
<title>StructuredList&#45;&gt;StructuredListModule</title>
<path fill="none" stroke="black" d="M603,-233.61C603,-250.96 603,-274.59 603,-274.59 603,-274.59 323.64,-274.59 323.64,-274.59"/>
<polygon fill="black" stroke="black" points="323.64,-271.09 313.64,-274.59 323.64,-278.09 323.64,-271.09"/>
</g>
<!-- ListColumn  -->
<g id="node8" class="node">
<title>ListColumn </title>
<polygon fill="#fb8072" stroke="black" points="448.4,-363.59 361.6,-363.59 361.6,-327.59 448.4,-327.59 448.4,-363.59"/>
<text text-anchor="middle" x="405" y="-341.39" font-family="Times,serif" font-size="14.00">ListColumn </text>
</g>
<!-- StructuredListModule&#45;&gt;ListColumn  -->
<g id="edge7" class="edge">
<title>StructuredListModule&#45;&gt;ListColumn </title>
<path fill="none" stroke="black" stroke-dasharray="5,2" d="M313.88,-286.59C346.18,-286.59 377.51,-286.59 377.51,-286.59 377.51,-286.59 377.51,-317.57 377.51,-317.57"/>
<polygon fill="black" stroke="black" points="374.01,-317.57 377.51,-327.57 381.01,-317.57 374.01,-317.57"/>
</g>
<!-- ListHeader  -->
<g id="node9" class="node">
<title>ListHeader </title>
<polygon fill="#fb8072" stroke="black" points="343.69,-363.59 262.31,-363.59 262.31,-327.59 343.69,-327.59 343.69,-363.59"/>
<text text-anchor="middle" x="303" y="-341.39" font-family="Times,serif" font-size="14.00">ListHeader </text>
</g>
<!-- StructuredListModule&#45;&gt;ListHeader  -->
<g id="edge8" class="edge">
<title>StructuredListModule&#45;&gt;ListHeader </title>
<path fill="none" stroke="black" stroke-dasharray="5,2" d="M287.99,-298.7C287.99,-298.7 287.99,-317.58 287.99,-317.58"/>
<polygon fill="black" stroke="black" points="284.49,-317.58 287.99,-327.58 291.49,-317.58 284.49,-317.58"/>
</g>
<!-- ListRow  -->
<g id="node10" class="node">
<title>ListRow </title>
<polygon fill="#fb8072" stroke="black" points="243.72,-363.59 176.28,-363.59 176.28,-327.59 243.72,-327.59 243.72,-363.59"/>
<text text-anchor="middle" x="210" y="-341.39" font-family="Times,serif" font-size="14.00">ListRow </text>
</g>
<!-- StructuredListModule&#45;&gt;ListRow  -->
<g id="edge9" class="edge">
<title>StructuredListModule&#45;&gt;ListRow </title>
<path fill="none" stroke="black" stroke-dasharray="5,2" d="M210,-298.7C210,-298.7 210,-317.58 210,-317.58"/>
<polygon fill="black" stroke="black" points="206.5,-317.58 210,-327.58 213.5,-317.58 206.5,-317.58"/>
</g>
<!-- StructuredList  -->
<g id="node11" class="node">
<title>StructuredList </title>
<polygon fill="#fb8072" stroke="black" points="157.59,-363.59 58.41,-363.59 58.41,-327.59 157.59,-327.59 157.59,-363.59"/>
<text text-anchor="middle" x="108" y="-341.39" font-family="Times,serif" font-size="14.00">StructuredList </text>
</g>
<!-- StructuredListModule&#45;&gt;StructuredList  -->
<g id="edge10" class="edge">
<title>StructuredListModule&#45;&gt;StructuredList </title>
<path fill="none" stroke="black" stroke-dasharray="5,2" d="M174.25,-286.59C151.44,-286.59 131.85,-286.59 131.85,-286.59 131.85,-286.59 131.85,-317.57 131.85,-317.57"/>
<polygon fill="black" stroke="black" points="128.35,-317.57 131.85,-327.57 135.35,-317.57 128.35,-317.57"/>
</g>
<!-- {
 &#160;&#160;&#160;provide: NG_VALUE_ACCESSOR, useExisting: StructuredList, multi: true
} -->
<g id="node6" class="node">
<title>{
 &#160;&#160;&#160;provide: NG_VALUE_ACCESSOR, useExisting: StructuredList, multi: true
}</title>
<ellipse fill="#fdb462" stroke="black" cx="742" cy="-127.3" rx="325.07" ry="41.09"/>
<text text-anchor="middle" x="742" y="-139.9" font-family="Times,serif" font-size="14.00">{</text>
<text text-anchor="middle" x="742" y="-123.1" font-family="Times,serif" font-size="14.00"> &#160;&#160;&#160;provide: NG_VALUE_ACCESSOR, useExisting: StructuredList, multi: true</text>
<text text-anchor="middle" x="742" y="-106.3" font-family="Times,serif" font-size="14.00">}</text>
</g>
<!-- {
 &#160;&#160;&#160;provide: NG_VALUE_ACCESSOR, useExisting: StructuredList, multi: true
}&#45;&gt;StructuredList -->
<g id="edge5" class="edge">
<title>{
 &#160;&#160;&#160;provide: NG_VALUE_ACCESSOR, useExisting: StructuredList, multi: true
}&#45;&gt;StructuredList</title>
<path fill="none" stroke="black" d="M603,-164.74C603,-164.74 603,-187.34 603,-187.34"/>
<polygon fill="black" stroke="black" points="599.5,-187.34 603,-197.34 606.5,-187.34 599.5,-187.34"/>
</g>
<!-- IconModule -->
<g id="node7" class="node">
<title>IconModule</title>
<polygon fill="#8dd3c7" stroke="black" points="393.43,-233.59 390.43,-237.59 369.43,-237.59 366.43,-233.59 308.57,-233.59 308.57,-197.59 393.43,-197.59 393.43,-233.59"/>
<text text-anchor="middle" x="351" y="-211.39" font-family="Times,serif" font-size="14.00">IconModule</text>
</g>
<!-- IconModule&#45;&gt;StructuredListModule -->
<g id="edge6" class="edge">
<title>IconModule&#45;&gt;StructuredListModule</title>
<path fill="none" stroke="black" d="M308.54,-215.59C301.87,-215.59 297.12,-215.59 297.12,-215.59 297.12,-215.59 297.12,-252.48 297.12,-252.48"/>
<polygon fill="black" stroke="black" points="293.62,-252.48 297.12,-262.48 300.62,-252.48 293.62,-252.48"/>
</g>
</g>
</svg>
