<?xml version="1.0" encoding="UTF-8" standalone="no"?>
<!DOCTYPE svg PUBLIC "-//W3C//DTD SVG 1.1//EN"
 "http://www.w3.org/Graphics/SVG/1.1/DTD/svg11.dtd">
<!-- Generated by graphviz version 2.47.0 (20210316.0004)
 -->
<!-- Title: dependencies Pages: 1 -->
<svg width="504pt" height="284pt"
 viewBox="0.00 0.00 504.00 284.00" xmlns="http://www.w3.org/2000/svg" xmlns:xlink="http://www.w3.org/1999/xlink">
<g id="graph0" class="graph" transform="scale(1 1) rotate(0) translate(4 280)">
<title>dependencies</title>
<polygon fill="white" stroke="transparent" points="-4,4 -4,-280 500,-280 500,4 -4,4"/>
<text text-anchor="start" x="227.01" y="-42.4" font-family="Times-12" font-weight="bold" font-size="14.00">Legend</text>
<polygon fill="#ffffb3" stroke="transparent" points="14,-10 14,-30 34,-30 34,-10 14,-10"/>
<text text-anchor="start" x="37.63" y="-15.4" font-family="Times-12" font-size="14.00"> &#160;Declarations</text>
<polygon fill="#8dd3c7" stroke="transparent" points="127,-10 127,-30 147,-30 147,-10 127,-10"/>
<text text-anchor="start" x="150.73" y="-15.4" font-family="Times-12" font-size="14.00"> &#160;Module</text>
<polygon fill="#80b1d3" stroke="transparent" points="213,-10 213,-30 233,-30 233,-10 213,-10"/>
<text text-anchor="start" x="236.78" y="-15.4" font-family="Times-12" font-size="14.00"> &#160;Bootstrap</text>
<polygon fill="#fdb462" stroke="transparent" points="310,-10 310,-30 330,-30 330,-10 310,-10"/>
<text text-anchor="start" x="333.67" y="-15.4" font-family="Times-12" font-size="14.00"> &#160;Providers</text>
<polygon fill="#fb8072" stroke="transparent" points="406,-10 406,-30 426,-30 426,-10 406,-10"/>
<text text-anchor="start" x="429.73" y="-15.4" font-family="Times-12" font-size="14.00"> &#160;Exports</text>
<g id="clust1" class="cluster">
<title>cluster_LoadingModule</title>
<polygon fill="none" stroke="black" stroke-dasharray="1,5" points="146,-70 146,-268 350,-268 350,-70 146,-70"/>
</g>
<g id="clust2" class="cluster">
<title>cluster_LoadingModule_declarations</title>
<polygon fill="none" stroke="black" points="264,-78 264,-130 342,-130 342,-78 264,-78"/>
</g>
<g id="clust5" class="cluster">
<title>cluster_LoadingModule_exports</title>
<polygon fill="none" stroke="black" points="207,-208 207,-260 289,-260 289,-208 207,-208"/>
</g>
<g id="clust4" class="cluster">
<title>cluster_LoadingModule_imports</title>
<polygon fill="none" stroke="black" points="154,-78 154,-130 256,-130 256,-78 154,-78"/>
</g>
<!-- Loading -->
<g id="node1" class="node">
<title>Loading</title>
<polygon fill="#ffffb3" stroke="black" points="334.16,-122 271.84,-122 271.84,-86 334.16,-86 334.16,-122"/>
<text text-anchor="middle" x="303" y="-99.8" font-family="Times,serif" font-size="14.00">Loading</text>
</g>
<!-- LoadingModule -->
<g id="node2" class="node">
<title>LoadingModule</title>
<polygon fill="#8dd3c7" stroke="black" points="301.21,-187 298.21,-191 277.21,-191 274.21,-187 194.79,-187 194.79,-151 301.21,-151 301.21,-187"/>
<text text-anchor="middle" x="248" y="-164.8" font-family="Times,serif" font-size="14.00">LoadingModule</text>
</g>
<!-- Loading&#45;&gt;LoadingModule -->
<g id="edge1" class="edge">
<title>Loading&#45;&gt;LoadingModule</title>
<path fill="none" stroke="black" d="M286.39,-122.11C286.39,-122.11 286.39,-140.99 286.39,-140.99"/>
<polygon fill="black" stroke="black" points="282.89,-140.99 286.39,-150.99 289.89,-140.99 282.89,-140.99"/>
</g>
<!-- Loading  -->
<g id="node4" class="node">
<title>Loading </title>
<polygon fill="#fb8072" stroke="black" points="281.16,-252 214.84,-252 214.84,-216 281.16,-216 281.16,-252"/>
<text text-anchor="middle" x="248" y="-229.8" font-family="Times,serif" font-size="14.00">Loading </text>
</g>
<!-- LoadingModule&#45;&gt;Loading  -->
<g id="edge3" class="edge">
<title>LoadingModule&#45;&gt;Loading </title>
<path fill="none" stroke="black" stroke-dasharray="5,2" d="M248,-187.11C248,-187.11 248,-205.99 248,-205.99"/>
<polygon fill="black" stroke="black" points="244.5,-205.99 248,-215.99 251.5,-205.99 244.5,-205.99"/>
</g>
<!-- I18nModule -->
<g id="node3" class="node">
<title>I18nModule</title>
<polygon fill="#8dd3c7" stroke="black" points="247.71,-122 244.71,-126 223.71,-126 220.71,-122 162.29,-122 162.29,-86 247.71,-86 247.71,-122"/>
<text text-anchor="middle" x="205" y="-99.8" font-family="Times,serif" font-size="14.00">I18nModule</text>
</g>
<!-- I18nModule&#45;&gt;LoadingModule -->
<g id="edge2" class="edge">
<title>I18nModule&#45;&gt;LoadingModule</title>
<path fill="none" stroke="black" d="M221.25,-122.11C221.25,-122.11 221.25,-140.99 221.25,-140.99"/>
<polygon fill="black" stroke="black" points="217.75,-140.99 221.25,-150.99 224.75,-140.99 217.75,-140.99"/>
</g>
</g>
</svg>
