<?xml version="1.0" encoding="UTF-8" standalone="no"?>
<!DOCTYPE svg PUBLIC "-//W3C//DTD SVG 1.1//EN"
 "http://www.w3.org/Graphics/SVG/1.1/DTD/svg11.dtd">
<!-- Generated by graphviz version 2.40.1 (20161225.0304)
 -->
<!-- Title: dependencies Pages: 1 -->
<svg width="722pt" height="396pt"
 viewBox="0.00 0.00 722.00 395.59" xmlns="http://www.w3.org/2000/svg" xmlns:xlink="http://www.w3.org/1999/xlink">
<g id="graph0" class="graph" transform="scale(1 1) rotate(0) translate(4 391.5901)">
<title>dependencies</title>
<polygon fill="#ffffff" stroke="transparent" points="-4,4 -4,-391.5901 718,-391.5901 718,4 -4,4"/>
<text text-anchor="start" x="336.0091" y="-42.4" font-family="sans-serif" font-weight="bold" font-size="14.00" fill="#000000">Legend</text>
<polygon fill="#ffffb3" stroke="transparent" points="123,-10 123,-30 143,-30 143,-10 123,-10"/>
<text text-anchor="start" x="146.629" y="-15.4" font-family="sans-serif" font-size="14.00" fill="#000000"> &#160;Declarations</text>
<polygon fill="#8dd3c7" stroke="transparent" points="236,-10 236,-30 256,-30 256,-10 236,-10"/>
<text text-anchor="start" x="259.7251" y="-15.4" font-family="sans-serif" font-size="14.00" fill="#000000"> &#160;Module</text>
<polygon fill="#80b1d3" stroke="transparent" points="322,-10 322,-30 342,-30 342,-10 322,-10"/>
<text text-anchor="start" x="345.7812" y="-15.4" font-family="sans-serif" font-size="14.00" fill="#000000"> &#160;Bootstrap</text>
<polygon fill="#fdb462" stroke="transparent" points="419,-10 419,-30 439,-30 439,-10 419,-10"/>
<text text-anchor="start" x="442.6732" y="-15.4" font-family="sans-serif" font-size="14.00" fill="#000000"> &#160;Providers</text>
<polygon fill="#fb8072" stroke="transparent" points="515,-10 515,-30 535,-30 535,-10 515,-10"/>
<text text-anchor="start" x="538.7258" y="-15.4" font-family="sans-serif" font-size="14.00" fill="#000000"> &#160;Exports</text>
<g id="clust1" class="cluster">
<title>cluster_DatePickerInputModule</title>
<polygon fill="none" stroke="#000000" stroke-dasharray="1,5" points="8,-70 8,-379.5901 706,-379.5901 706,-70 8,-70"/>
</g>
<g id="clust2" class="cluster">
<title>cluster_DatePickerInputModule_declarations</title>
<polygon fill="none" stroke="#000000" points="295,-189.5901 295,-241.5901 419,-241.5901 419,-189.5901 295,-189.5901"/>
</g>
<g id="clust3" class="cluster">
<title>cluster_DatePickerInputModule_DatePickerInput_providers</title>
<polygon fill="none" stroke="#000000" points="16,-78 16,-176.5901 698,-176.5901 698,-78 16,-78"/>
</g>
<g id="clust5" class="cluster">
<title>cluster_DatePickerInputModule_exports</title>
<polygon fill="none" stroke="#000000" points="293,-319.5901 293,-371.5901 421,-371.5901 421,-319.5901 293,-319.5901"/>
</g>
<!-- DatePickerInput -->
<g id="node1" class="node">
<title>DatePickerInput</title>
<polygon fill="#ffffb3" stroke="#000000" points="410.7409,-233.5901 303.2591,-233.5901 303.2591,-197.5901 410.7409,-197.5901 410.7409,-233.5901"/>
<text text-anchor="middle" x="357" y="-211.3901" font-family="Times,serif" font-size="14.00" fill="#000000">DatePickerInput</text>
</g>
<!-- DatePickerInputModule -->
<g id="node2" class="node">
<title>DatePickerInputModule</title>
<polygon fill="#8dd3c7" stroke="#000000" points="432.7907,-298.5901 429.7907,-302.5901 408.7907,-302.5901 405.7907,-298.5901 281.2093,-298.5901 281.2093,-262.5901 432.7907,-262.5901 432.7907,-298.5901"/>
<text text-anchor="middle" x="357" y="-276.3901" font-family="Times,serif" font-size="14.00" fill="#000000">DatePickerInputModule</text>
</g>
<!-- DatePickerInput&#45;&gt;DatePickerInputModule -->
<g id="edge1" class="edge">
<title>DatePickerInput&#45;&gt;DatePickerInputModule</title>
<path fill="none" stroke="#000000" d="M357,-233.6962C357,-233.6962 357,-252.581 357,-252.581"/>
<polygon fill="#000000" stroke="#000000" points="353.5001,-252.581 357,-262.581 360.5001,-252.5811 353.5001,-252.581"/>
</g>
<!-- DatePickerInput  -->
<g id="node4" class="node">
<title>DatePickerInput </title>
<polygon fill="#fb8072" stroke="#000000" points="412.7409,-363.5901 301.2591,-363.5901 301.2591,-327.5901 412.7409,-327.5901 412.7409,-363.5901"/>
<text text-anchor="middle" x="357" y="-341.3901" font-family="Times,serif" font-size="14.00" fill="#000000">DatePickerInput </text>
</g>
<!-- DatePickerInputModule&#45;&gt;DatePickerInput  -->
<g id="edge3" class="edge">
<title>DatePickerInputModule&#45;&gt;DatePickerInput </title>
<path fill="none" stroke="#000000" stroke-dasharray="5,2" d="M357,-298.6962C357,-298.6962 357,-317.581 357,-317.581"/>
<polygon fill="#000000" stroke="#000000" points="353.5001,-317.581 357,-327.581 360.5001,-317.5811 353.5001,-317.581"/>
</g>
<!-- {
 &#160;&#160;&#160;provide: NG_VALUE_ACCESSOR, useExisting: DatePickerInput, multi: true
} -->
<g id="node3" class="node">
<title>{
 &#160;&#160;&#160;provide: NG_VALUE_ACCESSOR, useExisting: DatePickerInput, multi: true
}</title>
<ellipse fill="#fdb462" stroke="#000000" cx="357" cy="-127.295" rx="333.0382" ry="41.0911"/>
<text text-anchor="middle" x="357" y="-139.895" font-family="Times,serif" font-size="14.00" fill="#000000">{</text>
<text text-anchor="middle" x="357" y="-123.095" font-family="Times,serif" font-size="14.00" fill="#000000"> &#160;&#160;&#160;provide: NG_VALUE_ACCESSOR, useExisting: DatePickerInput, multi: true</text>
<text text-anchor="middle" x="357" y="-106.295" font-family="Times,serif" font-size="14.00" fill="#000000">}</text>
</g>
<!-- {
 &#160;&#160;&#160;provide: NG_VALUE_ACCESSOR, useExisting: DatePickerInput, multi: true
}&#45;&gt;DatePickerInput -->
<g id="edge2" class="edge">
<title>{
 &#160;&#160;&#160;provide: NG_VALUE_ACCESSOR, useExisting: DatePickerInput, multi: true
}&#45;&gt;DatePickerInput</title>
<path fill="none" stroke="#000000" d="M357,-168.5989C357,-168.5989 357,-187.2551 357,-187.2551"/>
<polygon fill="#000000" stroke="#000000" points="353.5001,-187.255 357,-197.2551 360.5001,-187.2551 353.5001,-187.255"/>
</g>
</g>
</svg>
