<?xml version="1.0" encoding="UTF-8" standalone="no"?>
<!DOCTYPE svg PUBLIC "-//W3C//DTD SVG 1.1//EN"
 "http://www.w3.org/Graphics/SVG/1.1/DTD/svg11.dtd">
<!-- Generated by graphviz version 2.40.1 (20161225.0304)
 -->
<!-- Title: dependencies Pages: 1 -->
<svg width="504pt" height="284pt"
 viewBox="0.00 0.00 504.00 284.00" xmlns="http://www.w3.org/2000/svg" xmlns:xlink="http://www.w3.org/1999/xlink">
<g id="graph0" class="graph" transform="scale(1 1) rotate(0) translate(4 280)">
<title>dependencies</title>
<polygon fill="#ffffff" stroke="transparent" points="-4,4 -4,-280 500,-280 500,4 -4,4"/>
<text text-anchor="start" x="227.0091" y="-42.4" font-family="sans-serif" font-weight="bold" font-size="14.00" fill="#000000">Legend</text>
<polygon fill="#ffffb3" stroke="transparent" points="14,-10 14,-30 34,-30 34,-10 14,-10"/>
<text text-anchor="start" x="37.629" y="-15.4" font-family="sans-serif" font-size="14.00" fill="#000000"> &#160;Declarations</text>
<polygon fill="#8dd3c7" stroke="transparent" points="127,-10 127,-30 147,-30 147,-10 127,-10"/>
<text text-anchor="start" x="150.7251" y="-15.4" font-family="sans-serif" font-size="14.00" fill="#000000"> &#160;Module</text>
<polygon fill="#80b1d3" stroke="transparent" points="213,-10 213,-30 233,-30 233,-10 213,-10"/>
<text text-anchor="start" x="236.7812" y="-15.4" font-family="sans-serif" font-size="14.00" fill="#000000"> &#160;Bootstrap</text>
<polygon fill="#fdb462" stroke="transparent" points="310,-10 310,-30 330,-30 330,-10 310,-10"/>
<text text-anchor="start" x="333.6732" y="-15.4" font-family="sans-serif" font-size="14.00" fill="#000000"> &#160;Providers</text>
<polygon fill="#fb8072" stroke="transparent" points="406,-10 406,-30 426,-30 426,-10 406,-10"/>
<text text-anchor="start" x="429.7258" y="-15.4" font-family="sans-serif" font-size="14.00" fill="#000000"> &#160;Exports</text>
<g id="clust1" class="cluster">
<title>cluster_TabsModule</title>
<polygon fill="none" stroke="#000000" stroke-dasharray="1,5" points="48,-70 48,-268 448,-268 448,-70 48,-70"/>
</g>
<g id="clust2" class="cluster">
<title>cluster_TabsModule_declarations</title>
<polygon fill="none" stroke="#000000" points="196,-78 196,-130 440,-130 440,-78 196,-78"/>
</g>
<g id="clust6" class="cluster">
<title>cluster_TabsModule_imports</title>
<polygon fill="none" stroke="#000000" points="56,-78 56,-130 188,-130 188,-78 56,-78"/>
</g>
<g id="clust7" class="cluster">
<title>cluster_TabsModule_exports</title>
<polygon fill="none" stroke="#000000" points="149,-208 149,-260 397,-260 397,-208 149,-208"/>
</g>
<!-- Tab -->
<g id="node1" class="node">
<title>Tab</title>
<polygon fill="#ffffb3" stroke="#000000" points="432,-122 378,-122 378,-86 432,-86 432,-122"/>
<text text-anchor="middle" x="405" y="-99.8" font-family="Times,serif" font-size="14.00" fill="#000000">Tab</text>
</g>
<!-- TabsModule -->
<g id="node4" class="node">
<title>TabsModule</title>
<polygon fill="#8dd3c7" stroke="#000000" points="316.2619,-187 313.2619,-191 292.2619,-191 289.2619,-187 229.7381,-187 229.7381,-151 316.2619,-151 316.2619,-187"/>
<text text-anchor="middle" x="273" y="-164.8" font-family="Times,serif" font-size="14.00" fill="#000000">TabsModule</text>
</g>
<!-- Tab&#45;&gt;TabsModule -->
<g id="edge1" class="edge">
<title>Tab&#45;&gt;TabsModule</title>
<path fill="none" stroke="#000000" d="M383.5,-122.0225C383.5,-139.3734 383.5,-163 383.5,-163 383.5,-163 326.3554,-163 326.3554,-163"/>
<polygon fill="#000000" stroke="#000000" points="326.3554,-159.5001 316.3554,-163 326.3553,-166.5001 326.3554,-159.5001"/>
</g>
<!-- TabHeaders -->
<g id="node2" class="node">
<title>TabHeaders</title>
<polygon fill="#ffffb3" stroke="#000000" points="359.6236,-122 276.3764,-122 276.3764,-86 359.6236,-86 359.6236,-122"/>
<text text-anchor="middle" x="318" y="-99.8" font-family="Times,serif" font-size="14.00" fill="#000000">TabHeaders</text>
</g>
<!-- TabHeaders&#45;&gt;TabsModule -->
<g id="edge2" class="edge">
<title>TabHeaders&#45;&gt;TabsModule</title>
<path fill="none" stroke="#000000" d="M296.2847,-122.1061C296.2847,-122.1061 296.2847,-140.991 296.2847,-140.991"/>
<polygon fill="#000000" stroke="#000000" points="292.7848,-140.9909 296.2847,-150.991 299.7848,-140.991 292.7848,-140.9909"/>
</g>
<!-- Tabs -->
<g id="node3" class="node">
<title>Tabs</title>
<polygon fill="#ffffb3" stroke="#000000" points="258,-122 204,-122 204,-86 258,-86 258,-122"/>
<text text-anchor="middle" x="231" y="-99.8" font-family="Times,serif" font-size="14.00" fill="#000000">Tabs</text>
</g>
<!-- Tabs&#45;&gt;TabsModule -->
<g id="edge3" class="edge">
<title>Tabs&#45;&gt;TabsModule</title>
<path fill="none" stroke="#000000" d="M243.8096,-122.1061C243.8096,-122.1061 243.8096,-140.991 243.8096,-140.991"/>
<polygon fill="#000000" stroke="#000000" points="240.3097,-140.9909 243.8096,-150.991 247.3097,-140.991 240.3097,-140.9909"/>
</g>
<!-- Tab  -->
<g id="node6" class="node">
<title>Tab </title>
<polygon fill="#fb8072" stroke="#000000" points="389,-252 335,-252 335,-216 389,-216 389,-252"/>
<text text-anchor="middle" x="362" y="-229.8" font-family="Times,serif" font-size="14.00" fill="#000000">Tab </text>
</g>
<!-- TabsModule&#45;&gt;Tab  -->
<g id="edge5" class="edge">
<title>TabsModule&#45;&gt;Tab </title>
<path fill="none" stroke="#000000" stroke-dasharray="5,2" d="M316.2821,-175C332.6508,-175 347.4057,-175 347.4057,-175 347.4057,-175 347.4057,-205.9775 347.4057,-205.9775"/>
<polygon fill="#000000" stroke="#000000" points="343.9058,-205.9774 347.4057,-215.9775 350.9058,-205.9775 343.9058,-205.9774"/>
</g>
<!-- TabHeaders  -->
<g id="node7" class="node">
<title>TabHeaders </title>
<polygon fill="#fb8072" stroke="#000000" points="316.6229,-252 229.3771,-252 229.3771,-216 316.6229,-216 316.6229,-252"/>
<text text-anchor="middle" x="273" y="-229.8" font-family="Times,serif" font-size="14.00" fill="#000000">TabHeaders </text>
</g>
<!-- TabsModule&#45;&gt;TabHeaders  -->
<g id="edge6" class="edge">
<title>TabsModule&#45;&gt;TabHeaders </title>
<path fill="none" stroke="#000000" stroke-dasharray="5,2" d="M273,-187.1061C273,-187.1061 273,-205.991 273,-205.991"/>
<polygon fill="#000000" stroke="#000000" points="269.5001,-205.9909 273,-215.991 276.5001,-205.991 269.5001,-205.9909"/>
</g>
<!-- Tabs  -->
<g id="node8" class="node">
<title>Tabs </title>
<polygon fill="#fb8072" stroke="#000000" points="211,-252 157,-252 157,-216 211,-216 211,-252"/>
<text text-anchor="middle" x="184" y="-229.8" font-family="Times,serif" font-size="14.00" fill="#000000">Tabs </text>
</g>
<!-- TabsModule&#45;&gt;Tabs  -->
<g id="edge7" class="edge">
<title>TabsModule&#45;&gt;Tabs </title>
<path fill="none" stroke="#000000" stroke-dasharray="5,2" d="M229.6753,-175C217.4945,-175 207.5,-175 207.5,-175 207.5,-175 207.5,-205.9775 207.5,-205.9775"/>
<polygon fill="#000000" stroke="#000000" points="204.0001,-205.9774 207.5,-215.9775 211.0001,-205.9775 204.0001,-205.9774"/>
</g>
<!-- StaticIconModule -->
<g id="node5" class="node">
<title>StaticIconModule</title>
<polygon fill="#8dd3c7" stroke="#000000" points="180.309,-122 177.309,-126 156.309,-126 153.309,-122 63.691,-122 63.691,-86 180.309,-86 180.309,-122"/>
<text text-anchor="middle" x="122" y="-99.8" font-family="Times,serif" font-size="14.00" fill="#000000">StaticIconModule</text>
</g>
<!-- StaticIconModule&#45;&gt;TabsModule -->
<g id="edge4" class="edge">
<title>StaticIconModule&#45;&gt;TabsModule</title>
<path fill="none" stroke="#000000" d="M168.5772,-122.0225C168.5772,-139.3734 168.5772,-163 168.5772,-163 168.5772,-163 219.6225,-163 219.6225,-163"/>
<polygon fill="#000000" stroke="#000000" points="219.6225,-166.5001 229.6225,-163 219.6225,-159.5001 219.6225,-166.5001"/>
</g>
</g>
</svg>
