<?xml version="1.0" encoding="UTF-8" standalone="no"?>
<!DOCTYPE svg PUBLIC "-//W3C//DTD SVG 1.1//EN"
 "http://www.w3.org/Graphics/SVG/1.1/DTD/svg11.dtd">
<!-- Generated by graphviz version 2.40.1 (20161225.0304)
 -->
<!-- Title: dependencies Pages: 1 -->
<svg width="504pt" height="396pt"
 viewBox="0.00 0.00 504.00 395.59" xmlns="http://www.w3.org/2000/svg" xmlns:xlink="http://www.w3.org/1999/xlink">
<g id="graph0" class="graph" transform="scale(1 1) rotate(0) translate(4 391.5901)">
<title>dependencies</title>
<polygon fill="#ffffff" stroke="transparent" points="-4,4 -4,-391.5901 500,-391.5901 500,4 -4,4"/>
<text text-anchor="start" x="227.0091" y="-42.4" font-family="sans-serif" font-weight="bold" font-size="14.00" fill="#000000">Legend</text>
<polygon fill="#ffffb3" stroke="transparent" points="14,-10 14,-30 34,-30 34,-10 14,-10"/>
<text text-anchor="start" x="37.629" y="-15.4" font-family="sans-serif" font-size="14.00" fill="#000000"> &#160;Declarations</text>
<polygon fill="#8dd3c7" stroke="transparent" points="127,-10 127,-30 147,-30 147,-10 127,-10"/>
<text text-anchor="start" x="150.7251" y="-15.4" font-family="sans-serif" font-size="14.00" fill="#000000"> &#160;Module</text>
<polygon fill="#80b1d3" stroke="transparent" points="213,-10 213,-30 233,-30 233,-10 213,-10"/>
<text text-anchor="start" x="236.7812" y="-15.4" font-family="sans-serif" font-size="14.00" fill="#000000"> &#160;Bootstrap</text>
<polygon fill="#fdb462" stroke="transparent" points="310,-10 310,-30 330,-30 330,-10 310,-10"/>
<text text-anchor="start" x="333.6732" y="-15.4" font-family="sans-serif" font-size="14.00" fill="#000000"> &#160;Providers</text>
<polygon fill="#fb8072" stroke="transparent" points="406,-10 406,-30 426,-30 426,-10 406,-10"/>
<text text-anchor="start" x="429.7258" y="-15.4" font-family="sans-serif" font-size="14.00" fill="#000000"> &#160;Exports</text>
<g id="clust1" class="cluster">
<title>cluster_SelectModule</title>
<polygon fill="none" stroke="#000000" stroke-dasharray="1,5" points="120,-70 120,-379.5901 376,-379.5901 376,-70 120,-70"/>
</g>
<g id="clust2" class="cluster">
<title>cluster_SelectModule_declarations</title>
<polygon fill="none" stroke="#000000" points="130,-189.5901 130,-241.5901 363,-241.5901 363,-189.5901 130,-189.5901"/>
</g>
<g id="clust3" class="cluster">
<title>cluster_SelectModule_Select_providers</title>
<polygon fill="none" stroke="#000000" points="228,-78 228,-176.5901 368,-176.5901 368,-78 228,-78"/>
</g>
<g id="clust7" class="cluster">
<title>cluster_SelectModule_exports</title>
<polygon fill="none" stroke="#000000" points="128,-319.5901 128,-371.5901 368,-371.5901 368,-319.5901 128,-319.5901"/>
</g>
<!-- Select -->
<g id="node1" class="node">
<title>Select</title>
<polygon fill="#ffffb3" stroke="#000000" points="355,-233.5901 301,-233.5901 301,-197.5901 355,-197.5901 355,-233.5901"/>
<text text-anchor="middle" x="328" y="-211.3901" font-family="Times,serif" font-size="14.00" fill="#000000">Select</text>
</g>
<!-- SelectModule -->
<g id="node4" class="node">
<title>SelectModule</title>
<polygon fill="#8dd3c7" stroke="#000000" points="303.7577,-298.5901 300.7577,-302.5901 279.7577,-302.5901 276.7577,-298.5901 210.2423,-298.5901 210.2423,-262.5901 303.7577,-262.5901 303.7577,-298.5901"/>
<text text-anchor="middle" x="257" y="-276.3901" font-family="Times,serif" font-size="14.00" fill="#000000">SelectModule</text>
</g>
<!-- Select&#45;&gt;SelectModule -->
<g id="edge1" class="edge">
<title>Select&#45;&gt;SelectModule</title>
<path fill="none" stroke="#000000" d="M300.8828,-215.5901C295.8928,-215.5901 292.222,-215.5901 292.222,-215.5901 292.222,-215.5901 292.222,-252.4839 292.222,-252.4839"/>
<polygon fill="#000000" stroke="#000000" points="288.722,-252.4839 292.222,-262.4839 295.722,-252.484 288.722,-252.4839"/>
</g>
<!-- Option -->
<g id="node2" class="node">
<title>Option</title>
<polygon fill="#ffffb3" stroke="#000000" points="283.3879,-233.5901 228.6121,-233.5901 228.6121,-197.5901 283.3879,-197.5901 283.3879,-233.5901"/>
<text text-anchor="middle" x="256" y="-211.3901" font-family="Times,serif" font-size="14.00" fill="#000000">Option</text>
</g>
<!-- Option&#45;&gt;SelectModule -->
<g id="edge3" class="edge">
<title>Option&#45;&gt;SelectModule</title>
<path fill="none" stroke="#000000" d="M256,-233.6962C256,-233.6962 256,-252.581 256,-252.581"/>
<polygon fill="#000000" stroke="#000000" points="252.5001,-252.581 256,-262.581 259.5001,-252.5811 252.5001,-252.581"/>
</g>
<!-- OptGroup -->
<g id="node3" class="node">
<title>OptGroup</title>
<polygon fill="#ffffb3" stroke="#000000" points="210.2648,-233.5901 137.7352,-233.5901 137.7352,-197.5901 210.2648,-197.5901 210.2648,-233.5901"/>
<text text-anchor="middle" x="174" y="-211.3901" font-family="Times,serif" font-size="14.00" fill="#000000">OptGroup</text>
</g>
<!-- OptGroup&#45;&gt;SelectModule -->
<g id="edge4" class="edge">
<title>OptGroup&#45;&gt;SelectModule</title>
<path fill="none" stroke="#000000" d="M210.2678,-215.5901C215.6699,-215.5901 219.4692,-215.5901 219.4692,-215.5901 219.4692,-215.5901 219.4692,-252.4839 219.4692,-252.4839"/>
<polygon fill="#000000" stroke="#000000" points="215.9692,-252.4839 219.4692,-262.4839 222.9692,-252.484 215.9692,-252.4839"/>
</g>
<!-- Select  -->
<g id="node6" class="node">
<title>Select </title>
<polygon fill="#fb8072" stroke="#000000" points="360,-363.5901 306,-363.5901 306,-327.5901 360,-327.5901 360,-363.5901"/>
<text text-anchor="middle" x="333" y="-341.3901" font-family="Times,serif" font-size="14.00" fill="#000000">Select </text>
</g>
<!-- SelectModule&#45;&gt;Select  -->
<g id="edge5" class="edge">
<title>SelectModule&#45;&gt;Select </title>
<path fill="none" stroke="#000000" stroke-dasharray="5,2" d="M296.0363,-298.6962C296.0363,-317.9292 296.0363,-345.5901 296.0363,-345.5901 296.0363,-345.5901 297.0075,-345.5901 297.0075,-345.5901"/>
<polygon fill="#000000" stroke="#000000" points="295.7481,-349.0902 305.7481,-345.5901 295.748,-342.0902 295.7481,-349.0902"/>
</g>
<!-- Option  -->
<g id="node7" class="node">
<title>Option </title>
<polygon fill="#fb8072" stroke="#000000" points="288.3891,-363.5901 229.6109,-363.5901 229.6109,-327.5901 288.3891,-327.5901 288.3891,-363.5901"/>
<text text-anchor="middle" x="259" y="-341.3901" font-family="Times,serif" font-size="14.00" fill="#000000">Option </text>
</g>
<!-- SelectModule&#45;&gt;Option  -->
<g id="edge6" class="edge">
<title>SelectModule&#45;&gt;Option </title>
<path fill="none" stroke="#000000" stroke-dasharray="5,2" d="M259,-298.6962C259,-298.6962 259,-317.581 259,-317.581"/>
<polygon fill="#000000" stroke="#000000" points="255.5001,-317.581 259,-327.581 262.5001,-317.5811 255.5001,-317.581"/>
</g>
<!-- OptGroup  -->
<g id="node8" class="node">
<title>OptGroup </title>
<polygon fill="#fb8072" stroke="#000000" points="212.2649,-363.5901 135.7351,-363.5901 135.7351,-327.5901 212.2649,-327.5901 212.2649,-363.5901"/>
<text text-anchor="middle" x="174" y="-341.3901" font-family="Times,serif" font-size="14.00" fill="#000000">OptGroup </text>
</g>
<!-- SelectModule&#45;&gt;OptGroup  -->
<g id="edge7" class="edge">
<title>SelectModule&#45;&gt;OptGroup </title>
<path fill="none" stroke="#000000" stroke-dasharray="5,2" d="M220.9692,-298.6962C220.9692,-317.9292 220.9692,-345.5901 220.9692,-345.5901 220.9692,-345.5901 220.1077,-345.5901 220.1077,-345.5901"/>
<polygon fill="#000000" stroke="#000000" points="222.3543,-342.0902 212.3543,-345.5901 222.3542,-349.0902 222.3543,-342.0902"/>
</g>
<!-- {
 &#160;&#160;&#160;: , : , : true
} -->
<g id="node5" class="node">
<title>{
 &#160;&#160;&#160;: , : , : true
}</title>
<ellipse fill="#fdb462" stroke="#000000" cx="298" cy="-127.295" rx="62.3631" ry="41.0911"/>
<text text-anchor="middle" x="298" y="-139.895" font-family="Times,serif" font-size="14.00" fill="#000000">{</text>
<text text-anchor="middle" x="298" y="-123.095" font-family="Times,serif" font-size="14.00" fill="#000000"> &#160;&#160;&#160;: , : , : true</text>
<text text-anchor="middle" x="298" y="-106.295" font-family="Times,serif" font-size="14.00" fill="#000000">}</text>
</g>
<!-- {
 &#160;&#160;&#160;: , : , : true
}&#45;&gt;Select -->
<g id="edge2" class="edge">
<title>{
 &#160;&#160;&#160;: , : , : true
}&#45;&gt;Select</title>
<path fill="none" stroke="#000000" d="M328,-163.7178C328,-163.7178 328,-187.3589 328,-187.3589"/>
<polygon fill="#000000" stroke="#000000" points="324.5001,-187.3588 328,-197.3589 331.5001,-187.3589 324.5001,-187.3588"/>
</g>
</g>
</svg>
