<?xml version="1.0" encoding="UTF-8" standalone="no"?>
<!DOCTYPE svg PUBLIC "-//W3C//DTD SVG 1.1//EN"
 "http://www.w3.org/Graphics/SVG/1.1/DTD/svg11.dtd">
<!-- Generated by graphviz version 2.47.0 (20210316.0004)
 -->
<!-- Title: dependencies Pages: 1 -->
<svg width="919pt" height="396pt"
 viewBox="0.00 0.00 919.00 395.59" xmlns="http://www.w3.org/2000/svg" xmlns:xlink="http://www.w3.org/1999/xlink">
<g id="graph0" class="graph" transform="scale(1 1) rotate(0) translate(4 391.59)">
<title>dependencies</title>
<polygon fill="white" stroke="transparent" points="-4,4 -4,-391.59 915,-391.59 915,4 -4,4"/>
<text text-anchor="start" x="434.51" y="-42.4" font-family="Times-12" font-weight="bold" font-size="14.00">Legend</text>
<polygon fill="#ffffb3" stroke="transparent" points="221.5,-10 221.5,-30 241.5,-30 241.5,-10 221.5,-10"/>
<text text-anchor="start" x="245.13" y="-15.4" font-family="Times-12" font-size="14.00"> &#160;Declarations</text>
<polygon fill="#8dd3c7" stroke="transparent" points="334.5,-10 334.5,-30 354.5,-30 354.5,-10 334.5,-10"/>
<text text-anchor="start" x="358.23" y="-15.4" font-family="Times-12" font-size="14.00"> &#160;Module</text>
<polygon fill="#80b1d3" stroke="transparent" points="420.5,-10 420.5,-30 440.5,-30 440.5,-10 420.5,-10"/>
<text text-anchor="start" x="444.28" y="-15.4" font-family="Times-12" font-size="14.00"> &#160;Bootstrap</text>
<polygon fill="#fdb462" stroke="transparent" points="517.5,-10 517.5,-30 537.5,-30 537.5,-10 517.5,-10"/>
<text text-anchor="start" x="541.17" y="-15.4" font-family="Times-12" font-size="14.00"> &#160;Providers</text>
<polygon fill="#fb8072" stroke="transparent" points="613.5,-10 613.5,-30 633.5,-30 633.5,-10 613.5,-10"/>
<text text-anchor="start" x="637.23" y="-15.4" font-family="Times-12" font-size="14.00"> &#160;Exports</text>
<g id="clust1" class="cluster">
<title>cluster_SelectModule</title>
<polygon fill="none" stroke="black" stroke-dasharray="1,5" points="8,-70 8,-379.59 903,-379.59 903,-70 8,-70"/>
</g>
<g id="clust5" class="cluster">
<title>cluster_SelectModule_Select_providers</title>
<polygon fill="none" stroke="black" points="293,-78 293,-241.59 895,-241.59 895,-78 293,-78"/>
</g>
<g id="clust2" class="cluster">
<title>cluster_SelectModule_declarations</title>
<polygon fill="none" stroke="black" points="124,-189.59 124,-241.59 285,-241.59 285,-189.59 124,-189.59"/>
</g>
<g id="clust7" class="cluster">
<title>cluster_SelectModule_exports</title>
<polygon fill="none" stroke="black" points="91,-319.59 91,-371.59 331,-371.59 331,-319.59 91,-319.59"/>
</g>
<g id="clust6" class="cluster">
<title>cluster_SelectModule_imports</title>
<polygon fill="none" stroke="black" points="16,-189.59 16,-241.59 116,-241.59 116,-189.59 16,-189.59"/>
</g>
<!-- OptGroup -->
<g id="node1" class="node">
<title>OptGroup</title>
<polygon fill="#ffffb3" stroke="black" points="277.26,-233.59 204.74,-233.59 204.74,-197.59 277.26,-197.59 277.26,-233.59"/>
<text text-anchor="middle" x="241" y="-211.39" font-family="Times,serif" font-size="14.00">OptGroup</text>
</g>
<!-- SelectModule -->
<g id="node4" class="node">
<title>SelectModule</title>
<polygon fill="#8dd3c7" stroke="black" points="246.76,-298.59 243.76,-302.59 222.76,-302.59 219.76,-298.59 153.24,-298.59 153.24,-262.59 246.76,-262.59 246.76,-298.59"/>
<text text-anchor="middle" x="200" y="-276.39" font-family="Times,serif" font-size="14.00">SelectModule</text>
</g>
<!-- OptGroup&#45;&gt;SelectModule -->
<g id="edge1" class="edge">
<title>OptGroup&#45;&gt;SelectModule</title>
<path fill="none" stroke="black" d="M225.75,-233.7C225.75,-233.7 225.75,-252.58 225.75,-252.58"/>
<polygon fill="black" stroke="black" points="222.25,-252.58 225.75,-262.58 229.25,-252.58 222.25,-252.58"/>
</g>
<!-- Option -->
<g id="node2" class="node">
<title>Option</title>
<polygon fill="#ffffb3" stroke="black" points="186.39,-233.59 131.61,-233.59 131.61,-197.59 186.39,-197.59 186.39,-233.59"/>
<text text-anchor="middle" x="159" y="-211.39" font-family="Times,serif" font-size="14.00">Option</text>
</g>
<!-- Option&#45;&gt;SelectModule -->
<g id="edge2" class="edge">
<title>Option&#45;&gt;SelectModule</title>
<path fill="none" stroke="black" d="M169.78,-233.7C169.78,-233.7 169.78,-252.58 169.78,-252.58"/>
<polygon fill="black" stroke="black" points="166.28,-252.58 169.78,-262.58 173.28,-252.58 166.28,-252.58"/>
</g>
<!-- Select -->
<g id="node3" class="node">
<title>Select</title>
<polygon fill="#ffffb3" stroke="black" points="488,-233.59 434,-233.59 434,-197.59 488,-197.59 488,-233.59"/>
<text text-anchor="middle" x="461" y="-211.39" font-family="Times,serif" font-size="14.00">Select</text>
</g>
<!-- Select&#45;&gt;SelectModule -->
<g id="edge3" class="edge">
<title>Select&#45;&gt;SelectModule</title>
<path fill="none" stroke="black" d="M461,-233.7C461,-252.93 461,-280.59 461,-280.59 461,-280.59 256.96,-280.59 256.96,-280.59"/>
<polygon fill="black" stroke="black" points="256.96,-277.09 246.96,-280.59 256.96,-284.09 256.96,-277.09"/>
</g>
<!-- OptGroup  -->
<g id="node7" class="node">
<title>OptGroup </title>
<polygon fill="#fb8072" stroke="black" points="323.26,-363.59 246.74,-363.59 246.74,-327.59 323.26,-327.59 323.26,-363.59"/>
<text text-anchor="middle" x="285" y="-341.39" font-family="Times,serif" font-size="14.00">OptGroup </text>
</g>
<!-- SelectModule&#45;&gt;OptGroup  -->
<g id="edge6" class="edge">
<title>SelectModule&#45;&gt;OptGroup </title>
<path fill="none" stroke="black" stroke-dasharray="5,2" d="M238.03,-298.7C238.03,-317.93 238.03,-345.59 238.03,-345.59 238.03,-345.59 238.89,-345.59 238.89,-345.59"/>
<polygon fill="black" stroke="black" points="236.65,-349.09 246.65,-345.59 236.65,-342.09 236.65,-349.09"/>
</g>
<!-- Option  -->
<g id="node8" class="node">
<title>Option </title>
<polygon fill="#fb8072" stroke="black" points="229.39,-363.59 170.61,-363.59 170.61,-327.59 229.39,-327.59 229.39,-363.59"/>
<text text-anchor="middle" x="200" y="-341.39" font-family="Times,serif" font-size="14.00">Option </text>
</g>
<!-- SelectModule&#45;&gt;Option  -->
<g id="edge7" class="edge">
<title>SelectModule&#45;&gt;Option </title>
<path fill="none" stroke="black" stroke-dasharray="5,2" d="M200,-298.7C200,-298.7 200,-317.58 200,-317.58"/>
<polygon fill="black" stroke="black" points="196.5,-317.58 200,-327.58 203.5,-317.58 196.5,-317.58"/>
</g>
<!-- Select  -->
<g id="node9" class="node">
<title>Select </title>
<polygon fill="#fb8072" stroke="black" points="153,-363.59 99,-363.59 99,-327.59 153,-327.59 153,-363.59"/>
<text text-anchor="middle" x="126" y="-341.39" font-family="Times,serif" font-size="14.00">Select </text>
</g>
<!-- SelectModule&#45;&gt;Select  -->
<g id="edge8" class="edge">
<title>SelectModule&#45;&gt;Select </title>
<path fill="none" stroke="black" stroke-dasharray="5,2" d="M161.96,-298.7C161.96,-317.93 161.96,-345.59 161.96,-345.59 161.96,-345.59 161.09,-345.59 161.09,-345.59"/>
<polygon fill="black" stroke="black" points="163.26,-342.09 153.26,-345.59 163.26,-349.09 163.26,-342.09"/>
</g>
<!-- {
 &#160;&#160;&#160;provide: NG_VALUE_ACCESSOR, useExisting: Select, multi: true
} -->
<g id="node5" class="node">
<title>{
 &#160;&#160;&#160;provide: NG_VALUE_ACCESSOR, useExisting: Select, multi: true
}</title>
<ellipse fill="#fdb462" stroke="black" cx="594" cy="-127.3" rx="292.67" ry="41.09"/>
<text text-anchor="middle" x="594" y="-139.9" font-family="Times,serif" font-size="14.00">{</text>
<text text-anchor="middle" x="594" y="-123.1" font-family="Times,serif" font-size="14.00"> &#160;&#160;&#160;provide: NG_VALUE_ACCESSOR, useExisting: Select, multi: true</text>
<text text-anchor="middle" x="594" y="-106.3" font-family="Times,serif" font-size="14.00">}</text>
</g>
<!-- {
 &#160;&#160;&#160;provide: NG_VALUE_ACCESSOR, useExisting: Select, multi: true
}&#45;&gt;Select -->
<g id="edge4" class="edge">
<title>{
 &#160;&#160;&#160;provide: NG_VALUE_ACCESSOR, useExisting: Select, multi: true
}&#45;&gt;Select</title>
<path fill="none" stroke="black" d="M461,-164.23C461,-164.23 461,-187.58 461,-187.58"/>
<polygon fill="black" stroke="black" points="457.5,-187.58 461,-197.58 464.5,-187.58 457.5,-187.58"/>
</g>
<!-- IconModule -->
<g id="node6" class="node">
<title>IconModule</title>
<polygon fill="#8dd3c7" stroke="black" points="108.43,-233.59 105.43,-237.59 84.43,-237.59 81.43,-233.59 23.57,-233.59 23.57,-197.59 108.43,-197.59 108.43,-233.59"/>
<text text-anchor="middle" x="66" y="-211.39" font-family="Times,serif" font-size="14.00">IconModule</text>
</g>
<!-- IconModule&#45;&gt;SelectModule -->
<g id="edge5" class="edge">
<title>IconModule&#45;&gt;SelectModule</title>
<path fill="none" stroke="black" d="M103.61,-233.7C103.61,-252.93 103.61,-280.59 103.61,-280.59 103.61,-280.59 143.21,-280.59 143.21,-280.59"/>
<polygon fill="black" stroke="black" points="143.21,-284.09 153.21,-280.59 143.21,-277.09 143.21,-284.09"/>
</g>
</g>
</svg>
