<?xml version="1.0" encoding="UTF-8" standalone="no"?>
<!DOCTYPE svg PUBLIC "-//W3C//DTD SVG 1.1//EN"
 "http://www.w3.org/Graphics/SVG/1.1/DTD/svg11.dtd">
<!-- Generated by graphviz version 2.47.0 (20210316.0004)
 -->
<!-- Title: dependencies Pages: 1 -->
<svg width="919pt" height="396pt"
 viewBox="0.00 0.00 919.00 395.59" xmlns="http://www.w3.org/2000/svg" xmlns:xlink="http://www.w3.org/1999/xlink">
<g id="graph0" class="graph" transform="scale(1 1) rotate(0) translate(4 391.59)">
<title>dependencies</title>
<polygon fill="white" stroke="transparent" points="-4,4 -4,-391.59 915,-391.59 915,4 -4,4"/>
<text text-anchor="start" x="434.51" y="-42.4" font-family="Times-12" font-weight="bold" font-size="14.00">Legend</text>
<polygon fill="#ffffb3" stroke="transparent" points="221.5,-10 221.5,-30 241.5,-30 241.5,-10 221.5,-10"/>
<text text-anchor="start" x="245.13" y="-15.4" font-family="Times-12" font-size="14.00"> &#160;Declarations</text>
<polygon fill="#8dd3c7" stroke="transparent" points="334.5,-10 334.5,-30 354.5,-30 354.5,-10 334.5,-10"/>
<text text-anchor="start" x="358.23" y="-15.4" font-family="Times-12" font-size="14.00"> &#160;Module</text>
<polygon fill="#80b1d3" stroke="transparent" points="420.5,-10 420.5,-30 440.5,-30 440.5,-10 420.5,-10"/>
<text text-anchor="start" x="444.28" y="-15.4" font-family="Times-12" font-size="14.00"> &#160;Bootstrap</text>
<polygon fill="#fdb462" stroke="transparent" points="517.5,-10 517.5,-30 537.5,-30 537.5,-10 517.5,-10"/>
<text text-anchor="start" x="541.17" y="-15.4" font-family="Times-12" font-size="14.00"> &#160;Providers</text>
<polygon fill="#fb8072" stroke="transparent" points="613.5,-10 613.5,-30 633.5,-30 633.5,-10 613.5,-10"/>
<text text-anchor="start" x="637.23" y="-15.4" font-family="Times-12" font-size="14.00"> &#160;Exports</text>
<g id="clust1" class="cluster">
<title>cluster_SelectModule</title>
<polygon fill="none" stroke="black" stroke-dasharray="1,5" points="8,-70 8,-379.59 903,-379.59 903,-70 8,-70"/>
</g>
<g id="clust6" class="cluster">
<title>cluster_SelectModule_imports</title>
<polygon fill="none" stroke="black" points="795,-189.59 795,-241.59 895,-241.59 895,-189.59 795,-189.59"/>
</g>
<g id="clust5" class="cluster">
<title>cluster_SelectModule_Select_providers</title>
<polygon fill="none" stroke="black" points="185,-78 185,-241.59 787,-241.59 787,-78 185,-78"/>
</g>
<g id="clust2" class="cluster">
<title>cluster_SelectModule_declarations</title>
<polygon fill="none" stroke="black" points="16,-189.59 16,-241.59 177,-241.59 177,-189.59 16,-189.59"/>
</g>
<g id="clust7" class="cluster">
<title>cluster_SelectModule_exports</title>
<polygon fill="none" stroke="black" points="134,-319.59 134,-371.59 374,-371.59 374,-319.59 134,-319.59"/>
</g>
<!-- OptGroup -->
<g id="node1" class="node">
<title>OptGroup</title>
<polygon fill="#ffffb3" stroke="black" points="169.26,-233.59 96.74,-233.59 96.74,-197.59 169.26,-197.59 169.26,-233.59"/>
<text text-anchor="middle" x="133" y="-211.39" font-family="Times,serif" font-size="14.00">OptGroup</text>
</g>
<!-- SelectModule -->
<g id="node4" class="node">
<title>SelectModule</title>
<polygon fill="#8dd3c7" stroke="black" points="289.76,-298.59 286.76,-302.59 265.76,-302.59 262.76,-298.59 196.24,-298.59 196.24,-262.59 289.76,-262.59 289.76,-298.59"/>
<text text-anchor="middle" x="243" y="-276.39" font-family="Times,serif" font-size="14.00">SelectModule</text>
</g>
<!-- OptGroup&#45;&gt;SelectModule -->
<g id="edge1" class="edge">
<title>OptGroup&#45;&gt;SelectModule</title>
<path fill="none" stroke="black" d="M155.69,-233.61C155.69,-250.96 155.69,-274.59 155.69,-274.59 155.69,-274.59 186.02,-274.59 186.02,-274.59"/>
<polygon fill="black" stroke="black" points="186.02,-278.09 196.02,-274.59 186.02,-271.09 186.02,-278.09"/>
</g>
<!-- Option -->
<g id="node2" class="node">
<title>Option</title>
<polygon fill="#ffffb3" stroke="black" points="78.39,-233.59 23.61,-233.59 23.61,-197.59 78.39,-197.59 78.39,-233.59"/>
<text text-anchor="middle" x="51" y="-211.39" font-family="Times,serif" font-size="14.00">Option</text>
</g>
<!-- Option&#45;&gt;SelectModule -->
<g id="edge2" class="edge">
<title>Option&#45;&gt;SelectModule</title>
<path fill="none" stroke="black" d="M51,-233.87C51,-254.91 51,-286.59 51,-286.59 51,-286.59 186.03,-286.59 186.03,-286.59"/>
<polygon fill="black" stroke="black" points="186.03,-290.09 196.03,-286.59 186.03,-283.09 186.03,-290.09"/>
</g>
<!-- Select -->
<g id="node3" class="node">
<title>Select</title>
<polygon fill="#ffffb3" stroke="black" points="380,-233.59 326,-233.59 326,-197.59 380,-197.59 380,-233.59"/>
<text text-anchor="middle" x="353" y="-211.39" font-family="Times,serif" font-size="14.00">Select</text>
</g>
<!-- Select&#45;&gt;SelectModule -->
<g id="edge3" class="edge">
<title>Select&#45;&gt;SelectModule</title>
<path fill="none" stroke="black" d="M346.07,-233.61C346.07,-250.96 346.07,-274.59 346.07,-274.59 346.07,-274.59 300.01,-274.59 300.01,-274.59"/>
<polygon fill="black" stroke="black" points="300.01,-271.09 290.01,-274.59 300.01,-278.09 300.01,-271.09"/>
</g>
<!-- OptGroup  -->
<g id="node7" class="node">
<title>OptGroup </title>
<polygon fill="#fb8072" stroke="black" points="366.26,-363.59 289.74,-363.59 289.74,-327.59 366.26,-327.59 366.26,-363.59"/>
<text text-anchor="middle" x="328" y="-341.39" font-family="Times,serif" font-size="14.00">OptGroup </text>
</g>
<!-- SelectModule&#45;&gt;OptGroup  -->
<g id="edge6" class="edge">
<title>SelectModule&#45;&gt;OptGroup </title>
<path fill="none" stroke="black" stroke-dasharray="5,2" d="M281.03,-298.7C281.03,-317.93 281.03,-345.59 281.03,-345.59 281.03,-345.59 281.89,-345.59 281.89,-345.59"/>
<polygon fill="black" stroke="black" points="279.65,-349.09 289.65,-345.59 279.65,-342.09 279.65,-349.09"/>
</g>
<!-- Option  -->
<g id="node8" class="node">
<title>Option </title>
<polygon fill="#fb8072" stroke="black" points="272.39,-363.59 213.61,-363.59 213.61,-327.59 272.39,-327.59 272.39,-363.59"/>
<text text-anchor="middle" x="243" y="-341.39" font-family="Times,serif" font-size="14.00">Option </text>
</g>
<!-- SelectModule&#45;&gt;Option  -->
<g id="edge7" class="edge">
<title>SelectModule&#45;&gt;Option </title>
<path fill="none" stroke="black" stroke-dasharray="5,2" d="M243,-298.7C243,-298.7 243,-317.58 243,-317.58"/>
<polygon fill="black" stroke="black" points="239.5,-317.58 243,-327.58 246.5,-317.58 239.5,-317.58"/>
</g>
<!-- Select  -->
<g id="node9" class="node">
<title>Select </title>
<polygon fill="#fb8072" stroke="black" points="196,-363.59 142,-363.59 142,-327.59 196,-327.59 196,-363.59"/>
<text text-anchor="middle" x="169" y="-341.39" font-family="Times,serif" font-size="14.00">Select </text>
</g>
<!-- SelectModule&#45;&gt;Select  -->
<g id="edge8" class="edge">
<title>SelectModule&#45;&gt;Select </title>
<path fill="none" stroke="black" stroke-dasharray="5,2" d="M204.96,-298.7C204.96,-317.93 204.96,-345.59 204.96,-345.59 204.96,-345.59 204.09,-345.59 204.09,-345.59"/>
<polygon fill="black" stroke="black" points="206.26,-342.09 196.26,-345.59 206.26,-349.09 206.26,-342.09"/>
</g>
<!-- {
 &#160;&#160;&#160;provide: NG_VALUE_ACCESSOR, useExisting: Select, multi: true
} -->
<g id="node5" class="node">
<title>{
 &#160;&#160;&#160;provide: NG_VALUE_ACCESSOR, useExisting: Select, multi: true
}</title>
<ellipse fill="#fdb462" stroke="black" cx="486" cy="-127.3" rx="292.67" ry="41.09"/>
<text text-anchor="middle" x="486" y="-139.9" font-family="Times,serif" font-size="14.00">{</text>
<text text-anchor="middle" x="486" y="-123.1" font-family="Times,serif" font-size="14.00"> &#160;&#160;&#160;provide: NG_VALUE_ACCESSOR, useExisting: Select, multi: true</text>
<text text-anchor="middle" x="486" y="-106.3" font-family="Times,serif" font-size="14.00">}</text>
</g>
<!-- {
 &#160;&#160;&#160;provide: NG_VALUE_ACCESSOR, useExisting: Select, multi: true
}&#45;&gt;Select -->
<g id="edge4" class="edge">
<title>{
 &#160;&#160;&#160;provide: NG_VALUE_ACCESSOR, useExisting: Select, multi: true
}&#45;&gt;Select</title>
<path fill="none" stroke="black" d="M353,-164.23C353,-164.23 353,-187.58 353,-187.58"/>
<polygon fill="black" stroke="black" points="349.5,-187.58 353,-197.58 356.5,-187.58 349.5,-187.58"/>
</g>
<!-- IconModule -->
<g id="node6" class="node">
<title>IconModule</title>
<polygon fill="#8dd3c7" stroke="black" points="887.43,-233.59 884.43,-237.59 863.43,-237.59 860.43,-233.59 802.57,-233.59 802.57,-197.59 887.43,-197.59 887.43,-233.59"/>
<text text-anchor="middle" x="845" y="-211.39" font-family="Times,serif" font-size="14.00">IconModule</text>
</g>
<!-- IconModule&#45;&gt;SelectModule -->
<g id="edge5" class="edge">
<title>IconModule&#45;&gt;SelectModule</title>
<path fill="none" stroke="black" d="M845,-233.87C845,-254.91 845,-286.59 845,-286.59 845,-286.59 300.24,-286.59 300.24,-286.59"/>
<polygon fill="black" stroke="black" points="300.24,-283.09 290.24,-286.59 300.24,-290.09 300.24,-283.09"/>
</g>
</g>
</svg>
