<?xml version="1.0" encoding="UTF-8" standalone="no"?>
<!DOCTYPE svg PUBLIC "-//W3C//DTD SVG 1.1//EN"
 "http://www.w3.org/Graphics/SVG/1.1/DTD/svg11.dtd">
<!-- Generated by graphviz version 2.40.1 (20161225.0304)
 -->
<!-- Title: dependencies Pages: 1 -->
<svg width="504pt" height="284pt"
 viewBox="0.00 0.00 504.00 284.00" xmlns="http://www.w3.org/2000/svg" xmlns:xlink="http://www.w3.org/1999/xlink">
<g id="graph0" class="graph" transform="scale(1 1) rotate(0) translate(4 280)">
<title>dependencies</title>
<polygon fill="#ffffff" stroke="transparent" points="-4,4 -4,-280 500,-280 500,4 -4,4"/>
<text text-anchor="start" x="227.0091" y="-42.4" font-family="sans-serif" font-weight="bold" font-size="14.00" fill="#000000">Legend</text>
<polygon fill="#ffffb3" stroke="transparent" points="14,-10 14,-30 34,-30 34,-10 14,-10"/>
<text text-anchor="start" x="37.629" y="-15.4" font-family="sans-serif" font-size="14.00" fill="#000000"> &#160;Declarations</text>
<polygon fill="#8dd3c7" stroke="transparent" points="127,-10 127,-30 147,-30 147,-10 127,-10"/>
<text text-anchor="start" x="150.7251" y="-15.4" font-family="sans-serif" font-size="14.00" fill="#000000"> &#160;Module</text>
<polygon fill="#80b1d3" stroke="transparent" points="213,-10 213,-30 233,-30 233,-10 213,-10"/>
<text text-anchor="start" x="236.7812" y="-15.4" font-family="sans-serif" font-size="14.00" fill="#000000"> &#160;Bootstrap</text>
<polygon fill="#fdb462" stroke="transparent" points="310,-10 310,-30 330,-30 330,-10 310,-10"/>
<text text-anchor="start" x="333.6732" y="-15.4" font-family="sans-serif" font-size="14.00" fill="#000000"> &#160;Providers</text>
<polygon fill="#fb8072" stroke="transparent" points="406,-10 406,-30 426,-30 426,-10 406,-10"/>
<text text-anchor="start" x="429.7258" y="-15.4" font-family="sans-serif" font-size="14.00" fill="#000000"> &#160;Exports</text>
<g id="clust1" class="cluster">
<title>cluster_SelectModule</title>
<polygon fill="none" stroke="#000000" stroke-dasharray="1,5" points="120,-70 120,-268 376,-268 376,-70 120,-70"/>
</g>
<g id="clust2" class="cluster">
<title>cluster_SelectModule_declarations</title>
<polygon fill="none" stroke="#000000" points="130,-78 130,-130 363,-130 363,-78 130,-78"/>
</g>
<g id="clust7" class="cluster">
<title>cluster_SelectModule_exports</title>
<polygon fill="none" stroke="#000000" points="128,-208 128,-260 368,-260 368,-208 128,-208"/>
</g>
<!-- OptGroup -->
<g id="node1" class="node">
<title>OptGroup</title>
<polygon fill="#ffffb3" stroke="#000000" points="355.2648,-122 282.7352,-122 282.7352,-86 355.2648,-86 355.2648,-122"/>
<text text-anchor="middle" x="319" y="-99.8" font-family="Times,serif" font-size="14.00" fill="#000000">OptGroup</text>
</g>
<!-- SelectModule -->
<g id="node4" class="node">
<title>SelectModule</title>
<polygon fill="#8dd3c7" stroke="#000000" points="283.7577,-187 280.7577,-191 259.7577,-191 256.7577,-187 190.2423,-187 190.2423,-151 283.7577,-151 283.7577,-187"/>
<text text-anchor="middle" x="237" y="-164.8" font-family="Times,serif" font-size="14.00" fill="#000000">SelectModule</text>
</g>
<!-- OptGroup&#45;&gt;SelectModule -->
<g id="edge1" class="edge">
<title>OptGroup&#45;&gt;SelectModule</title>
<path fill="none" stroke="#000000" d="M282.7322,-104C277.3301,-104 273.5309,-104 273.5309,-104 273.5309,-104 273.5309,-140.8939 273.5309,-140.8939"/>
<polygon fill="#000000" stroke="#000000" points="270.0309,-140.8938 273.5309,-150.8939 277.0309,-140.8939 270.0309,-140.8938"/>
</g>
<!-- Option -->
<g id="node2" class="node">
<title>Option</title>
<polygon fill="#ffffb3" stroke="#000000" points="264.3879,-122 209.6121,-122 209.6121,-86 264.3879,-86 264.3879,-122"/>
<text text-anchor="middle" x="237" y="-99.8" font-family="Times,serif" font-size="14.00" fill="#000000">Option</text>
</g>
<!-- Option&#45;&gt;SelectModule -->
<g id="edge2" class="edge">
<title>Option&#45;&gt;SelectModule</title>
<path fill="none" stroke="#000000" d="M237,-122.1061C237,-122.1061 237,-140.991 237,-140.991"/>
<polygon fill="#000000" stroke="#000000" points="233.5001,-140.9909 237,-150.991 240.5001,-140.991 233.5001,-140.9909"/>
</g>
<!-- Select -->
<g id="node3" class="node">
<title>Select</title>
<polygon fill="#ffffb3" stroke="#000000" points="192,-122 138,-122 138,-86 192,-86 192,-122"/>
<text text-anchor="middle" x="165" y="-99.8" font-family="Times,serif" font-size="14.00" fill="#000000">Select</text>
</g>
<!-- Select&#45;&gt;SelectModule -->
<g id="edge3" class="edge">
<title>Select&#45;&gt;SelectModule</title>
<path fill="none" stroke="#000000" d="M192.1172,-104C197.1072,-104 200.7781,-104 200.7781,-104 200.7781,-104 200.7781,-140.8939 200.7781,-140.8939"/>
<polygon fill="#000000" stroke="#000000" points="197.2781,-140.8938 200.7781,-150.8939 204.2781,-140.8939 197.2781,-140.8938"/>
</g>
<!-- OptGroup  -->
<g id="node5" class="node">
<title>OptGroup </title>
<polygon fill="#fb8072" stroke="#000000" points="360.2649,-252 283.7351,-252 283.7351,-216 360.2649,-216 360.2649,-252"/>
<text text-anchor="middle" x="322" y="-229.8" font-family="Times,serif" font-size="14.00" fill="#000000">OptGroup </text>
</g>
<!-- SelectModule&#45;&gt;OptGroup  -->
<g id="edge4" class="edge">
<title>SelectModule&#45;&gt;OptGroup </title>
<path fill="none" stroke="#000000" stroke-dasharray="5,2" d="M275.0309,-187.1061C275.0309,-206.3391 275.0309,-234 275.0309,-234 275.0309,-234 275.8923,-234 275.8923,-234"/>
<polygon fill="#000000" stroke="#000000" points="273.6458,-237.5001 283.6457,-234 273.6457,-230.5001 273.6458,-237.5001"/>
</g>
<!-- Option  -->
<g id="node6" class="node">
<title>Option </title>
<polygon fill="#fb8072" stroke="#000000" points="266.3891,-252 207.6109,-252 207.6109,-216 266.3891,-216 266.3891,-252"/>
<text text-anchor="middle" x="237" y="-229.8" font-family="Times,serif" font-size="14.00" fill="#000000">Option </text>
</g>
<!-- SelectModule&#45;&gt;Option  -->
<g id="edge5" class="edge">
<title>SelectModule&#45;&gt;Option </title>
<path fill="none" stroke="#000000" stroke-dasharray="5,2" d="M237,-187.1061C237,-187.1061 237,-205.991 237,-205.991"/>
<polygon fill="#000000" stroke="#000000" points="233.5001,-205.9909 237,-215.991 240.5001,-205.991 233.5001,-205.9909"/>
</g>
<!-- Select  -->
<g id="node7" class="node">
<title>Select </title>
<polygon fill="#fb8072" stroke="#000000" points="190,-252 136,-252 136,-216 190,-216 190,-252"/>
<text text-anchor="middle" x="163" y="-229.8" font-family="Times,serif" font-size="14.00" fill="#000000">Select </text>
</g>
<!-- SelectModule&#45;&gt;Select  -->
<g id="edge6" class="edge">
<title>SelectModule&#45;&gt;Select </title>
<path fill="none" stroke="#000000" stroke-dasharray="5,2" d="M198.9637,-187.1061C198.9637,-206.3391 198.9637,-234 198.9637,-234 198.9637,-234 198.0931,-234 198.0931,-234"/>
<polygon fill="#000000" stroke="#000000" points="200.2579,-230.5001 190.2579,-234 200.2578,-237.5001 200.2579,-230.5001"/>
</g>
</g>
</svg>
