<?xml version="1.0" encoding="UTF-8" standalone="no"?>
<!DOCTYPE svg PUBLIC "-//W3C//DTD SVG 1.1//EN"
 "http://www.w3.org/Graphics/SVG/1.1/DTD/svg11.dtd">
<!-- Generated by graphviz version 2.40.1 (20161225.0304)
 -->
<!-- Title: dependencies Pages: 1 -->
<svg width="1726pt" height="284pt"
 viewBox="0.00 0.00 1726.00 284.00" xmlns="http://www.w3.org/2000/svg" xmlns:xlink="http://www.w3.org/1999/xlink">
<g id="graph0" class="graph" transform="scale(1 1) rotate(0) translate(4 280)">
<title>dependencies</title>
<polygon fill="#ffffff" stroke="transparent" points="-4,4 -4,-280 1722,-280 1722,4 -4,4"/>
<text text-anchor="start" x="838.0091" y="-42.4" font-family="sans-serif" font-weight="bold" font-size="14.00" fill="#000000">Legend</text>
<polygon fill="#ffffb3" stroke="transparent" points="625,-10 625,-30 645,-30 645,-10 625,-10"/>
<text text-anchor="start" x="648.629" y="-15.4" font-family="sans-serif" font-size="14.00" fill="#000000"> &#160;Declarations</text>
<polygon fill="#8dd3c7" stroke="transparent" points="738,-10 738,-30 758,-30 758,-10 738,-10"/>
<text text-anchor="start" x="761.7251" y="-15.4" font-family="sans-serif" font-size="14.00" fill="#000000"> &#160;Module</text>
<polygon fill="#80b1d3" stroke="transparent" points="824,-10 824,-30 844,-30 844,-10 824,-10"/>
<text text-anchor="start" x="847.7812" y="-15.4" font-family="sans-serif" font-size="14.00" fill="#000000"> &#160;Bootstrap</text>
<polygon fill="#fdb462" stroke="transparent" points="921,-10 921,-30 941,-30 941,-10 921,-10"/>
<text text-anchor="start" x="944.6732" y="-15.4" font-family="sans-serif" font-size="14.00" fill="#000000"> &#160;Providers</text>
<polygon fill="#fb8072" stroke="transparent" points="1017,-10 1017,-30 1037,-30 1037,-10 1017,-10"/>
<text text-anchor="start" x="1040.7258" y="-15.4" font-family="sans-serif" font-size="14.00" fill="#000000"> &#160;Exports</text>
<g id="clust1" class="cluster">
<title>cluster_NotificationModule</title>
<polygon fill="none" stroke="#000000" stroke-dasharray="1,5" points="8,-70 8,-268 1710,-268 1710,-70 8,-70"/>
</g>
<g id="clust2" class="cluster">
<title>cluster_NotificationModule_declarations</title>
<polygon fill="none" stroke="#000000" points="947,-78 947,-130 1702,-130 1702,-78 947,-78"/>
</g>
<g id="clust10" class="cluster">
<title>cluster_NotificationModule_imports</title>
<polygon fill="none" stroke="#000000" points="465,-78 465,-130 939,-130 939,-78 465,-78"/>
</g>
<g id="clust11" class="cluster">
<title>cluster_NotificationModule_exports</title>
<polygon fill="none" stroke="#000000" points="636,-208 636,-260 1413,-260 1413,-208 636,-208"/>
</g>
<g id="clust13" class="cluster">
<title>cluster_NotificationModule_providers</title>
<polygon fill="none" stroke="#000000" points="16,-78 16,-130 457,-130 457,-78 16,-78"/>
</g>
<!-- Notification -->
<g id="node1" class="node">
<title>Notification</title>
<polygon fill="#ffffb3" stroke="#000000" points="1693.6501,-122 1610.3499,-122 1610.3499,-86 1693.6501,-86 1693.6501,-122"/>
<text text-anchor="middle" x="1652" y="-99.8" font-family="Times,serif" font-size="14.00" fill="#000000">Notification</text>
</g>
<!-- NotificationModule -->
<g id="node8" class="node">
<title>NotificationModule</title>
<polygon fill="#8dd3c7" stroke="#000000" points="1055.6994,-187 1052.6994,-191 1031.6994,-191 1028.6994,-187 928.3006,-187 928.3006,-151 1055.6994,-151 1055.6994,-187"/>
<text text-anchor="middle" x="992" y="-164.8" font-family="Times,serif" font-size="14.00" fill="#000000">NotificationModule</text>
</g>
<!-- Notification&#45;&gt;NotificationModule -->
<g id="edge1" class="edge">
<title>Notification&#45;&gt;NotificationModule</title>
<path fill="none" stroke="#000000" d="M1652,-122.0267C1652,-142.7672 1652,-174 1652,-174 1652,-174 1065.8833,-174 1065.8833,-174"/>
<polygon fill="#000000" stroke="#000000" points="1065.8833,-170.5001 1055.8833,-174 1065.8832,-177.5001 1065.8833,-170.5001"/>
</g>
<!-- NotificationSubtitle -->
<g id="node2" class="node">
<title>NotificationSubtitle</title>
<polygon fill="#ffffb3" stroke="#000000" points="1592.7092,-122 1465.2908,-122 1465.2908,-86 1592.7092,-86 1592.7092,-122"/>
<text text-anchor="middle" x="1529" y="-99.8" font-family="Times,serif" font-size="14.00" fill="#000000">NotificationSubtitle</text>
</g>
<!-- NotificationSubtitle&#45;&gt;NotificationModule -->
<g id="edge2" class="edge">
<title>NotificationSubtitle&#45;&gt;NotificationModule</title>
<path fill="none" stroke="#000000" d="M1529,-122.1061C1529,-141.3391 1529,-169 1529,-169 1529,-169 1065.7097,-169 1065.7097,-169"/>
<polygon fill="#000000" stroke="#000000" points="1065.7098,-165.5001 1055.7097,-169 1065.7097,-172.5001 1065.7098,-165.5001"/>
</g>
<!-- NotificationTitle -->
<g id="node3" class="node">
<title>NotificationTitle</title>
<polygon fill="#ffffb3" stroke="#000000" points="1447.0884,-122 1336.9116,-122 1336.9116,-86 1447.0884,-86 1447.0884,-122"/>
<text text-anchor="middle" x="1392" y="-99.8" font-family="Times,serif" font-size="14.00" fill="#000000">NotificationTitle</text>
</g>
<!-- NotificationTitle&#45;&gt;NotificationModule -->
<g id="edge3" class="edge">
<title>NotificationTitle&#45;&gt;NotificationModule</title>
<path fill="none" stroke="#000000" d="M1370.7653,-122.302C1370.7653,-140.2699 1370.7653,-165 1370.7653,-165 1370.7653,-165 1065.8241,-165 1065.8241,-165"/>
<polygon fill="#000000" stroke="#000000" points="1065.8241,-161.5001 1055.8241,-165 1065.824,-168.5001 1065.8241,-161.5001"/>
</g>
<!-- Toast -->
<g id="node4" class="node">
<title>Toast</title>
<polygon fill="#ffffb3" stroke="#000000" points="1319,-122 1265,-122 1265,-86 1319,-86 1319,-122"/>
<text text-anchor="middle" x="1292" y="-99.8" font-family="Times,serif" font-size="14.00" fill="#000000">Toast</text>
</g>
<!-- Toast&#45;&gt;NotificationModule -->
<g id="edge4" class="edge">
<title>Toast&#45;&gt;NotificationModule</title>
<path fill="none" stroke="#000000" d="M1282.1773,-122.027C1282.1773,-138.3976 1282.1773,-160 1282.1773,-160 1282.1773,-160 1065.6806,-160 1065.6806,-160"/>
<polygon fill="#000000" stroke="#000000" points="1065.6807,-156.5001 1055.6806,-160 1065.6806,-163.5001 1065.6807,-156.5001"/>
</g>
<!-- ToastCaption -->
<g id="node5" class="node">
<title>ToastCaption</title>
<polygon fill="#ffffb3" stroke="#000000" points="1246.9358,-122 1155.0642,-122 1155.0642,-86 1246.9358,-86 1246.9358,-122"/>
<text text-anchor="middle" x="1201" y="-99.8" font-family="Times,serif" font-size="14.00" fill="#000000">ToastCaption</text>
</g>
<!-- ToastCaption&#45;&gt;NotificationModule -->
<g id="edge5" class="edge">
<title>ToastCaption&#45;&gt;NotificationModule</title>
<path fill="none" stroke="#000000" d="M1161.9641,-122.1871C1161.9641,-137.1824 1161.9641,-156 1161.9641,-156 1161.9641,-156 1065.7719,-156 1065.7719,-156"/>
<polygon fill="#000000" stroke="#000000" points="1065.7719,-152.5001 1055.7719,-156 1065.7719,-159.5001 1065.7719,-152.5001"/>
</g>
<!-- ToastSubtitle -->
<g id="node6" class="node">
<title>ToastSubtitle</title>
<polygon fill="#ffffb3" stroke="#000000" points="1137.1626,-122 1046.8374,-122 1046.8374,-86 1137.1626,-86 1137.1626,-122"/>
<text text-anchor="middle" x="1092" y="-99.8" font-family="Times,serif" font-size="14.00" fill="#000000">ToastSubtitle</text>
</g>
<!-- ToastSubtitle&#45;&gt;NotificationModule -->
<g id="edge6" class="edge">
<title>ToastSubtitle&#45;&gt;NotificationModule</title>
<path fill="none" stroke="#000000" d="M1051.1343,-122.1061C1051.1343,-122.1061 1051.1343,-140.991 1051.1343,-140.991"/>
<polygon fill="#000000" stroke="#000000" points="1047.6344,-140.9909 1051.1343,-150.991 1054.6344,-140.991 1047.6344,-140.9909"/>
</g>
<!-- ToastTitle -->
<g id="node7" class="node">
<title>ToastTitle</title>
<polygon fill="#ffffb3" stroke="#000000" points="1028.5428,-122 955.4572,-122 955.4572,-86 1028.5428,-86 1028.5428,-122"/>
<text text-anchor="middle" x="992" y="-99.8" font-family="Times,serif" font-size="14.00" fill="#000000">ToastTitle</text>
</g>
<!-- ToastTitle&#45;&gt;NotificationModule -->
<g id="edge7" class="edge">
<title>ToastTitle&#45;&gt;NotificationModule</title>
<path fill="none" stroke="#000000" d="M992,-122.1061C992,-122.1061 992,-140.991 992,-140.991"/>
<polygon fill="#000000" stroke="#000000" points="988.5001,-140.9909 992,-150.991 995.5001,-140.991 988.5001,-140.9909"/>
</g>
<!-- Notification  -->
<g id="node13" class="node">
<title>Notification </title>
<polygon fill="#fb8072" stroke="#000000" points="1404.6495,-252 1317.3505,-252 1317.3505,-216 1404.6495,-216 1404.6495,-252"/>
<text text-anchor="middle" x="1361" y="-229.8" font-family="Times,serif" font-size="14.00" fill="#000000">Notification </text>
</g>
<!-- NotificationModule&#45;&gt;Notification  -->
<g id="edge12" class="edge">
<title>NotificationModule&#45;&gt;Notification </title>
<path fill="none" stroke="#000000" stroke-dasharray="5,2" d="M1055.9857,-178C1153.4666,-178 1327.9779,-178 1327.9779,-178 1327.9779,-178 1327.9779,-205.973 1327.9779,-205.973"/>
<polygon fill="#000000" stroke="#000000" points="1324.478,-205.973 1327.9779,-215.973 1331.478,-205.973 1324.478,-205.973"/>
</g>
<!-- NotificationSubtitle  -->
<g id="node14" class="node">
<title>NotificationSubtitle </title>
<polygon fill="#fb8072" stroke="#000000" points="1299.2093,-252 1168.7907,-252 1168.7907,-216 1299.2093,-216 1299.2093,-252"/>
<text text-anchor="middle" x="1234" y="-229.8" font-family="Times,serif" font-size="14.00" fill="#000000">NotificationSubtitle </text>
</g>
<!-- NotificationModule&#45;&gt;NotificationSubtitle  -->
<g id="edge13" class="edge">
<title>NotificationModule&#45;&gt;NotificationSubtitle </title>
<path fill="none" stroke="#000000" stroke-dasharray="5,2" d="M1055.8361,-183C1119.4354,-183 1207.6815,-183 1207.6815,-183 1207.6815,-183 1207.6815,-205.8757 1207.6815,-205.8757"/>
<polygon fill="#000000" stroke="#000000" points="1204.1815,-205.8757 1207.6815,-215.8757 1211.1815,-205.8757 1204.1815,-205.8757"/>
</g>
<!-- NotificationTitle  -->
<g id="node15" class="node">
<title>NotificationTitle </title>
<polygon fill="#fb8072" stroke="#000000" points="1150.5891,-252 1037.4109,-252 1037.4109,-216 1150.5891,-216 1150.5891,-252"/>
<text text-anchor="middle" x="1094" y="-229.8" font-family="Times,serif" font-size="14.00" fill="#000000">NotificationTitle </text>
</g>
<!-- NotificationModule&#45;&gt;NotificationTitle  -->
<g id="edge14" class="edge">
<title>NotificationModule&#45;&gt;NotificationTitle </title>
<path fill="none" stroke="#000000" stroke-dasharray="5,2" d="M1046.4027,-187.1061C1046.4027,-187.1061 1046.4027,-205.991 1046.4027,-205.991"/>
<polygon fill="#000000" stroke="#000000" points="1042.9028,-205.9909 1046.4027,-215.991 1049.9028,-205.991 1042.9028,-205.9909"/>
</g>
<!-- Toast  -->
<g id="node16" class="node">
<title>Toast </title>
<polygon fill="#fb8072" stroke="#000000" points="1019,-252 965,-252 965,-216 1019,-216 1019,-252"/>
<text text-anchor="middle" x="992" y="-229.8" font-family="Times,serif" font-size="14.00" fill="#000000">Toast </text>
</g>
<!-- NotificationModule&#45;&gt;Toast  -->
<g id="edge15" class="edge">
<title>NotificationModule&#45;&gt;Toast </title>
<path fill="none" stroke="#000000" stroke-dasharray="5,2" d="M992,-187.1061C992,-187.1061 992,-205.991 992,-205.991"/>
<polygon fill="#000000" stroke="#000000" points="988.5001,-205.9909 992,-215.991 995.5001,-205.991 988.5001,-205.9909"/>
</g>
<!-- ToastCaption  -->
<g id="node17" class="node">
<title>ToastCaption </title>
<polygon fill="#fb8072" stroke="#000000" points="947.4348,-252 852.5652,-252 852.5652,-216 947.4348,-216 947.4348,-252"/>
<text text-anchor="middle" x="900" y="-229.8" font-family="Times,serif" font-size="14.00" fill="#000000">ToastCaption </text>
</g>
<!-- NotificationModule&#45;&gt;ToastCaption  -->
<g id="edge16" class="edge">
<title>NotificationModule&#45;&gt;ToastCaption </title>
<path fill="none" stroke="#000000" stroke-dasharray="5,2" d="M937.9339,-187.1061C937.9339,-187.1061 937.9339,-205.991 937.9339,-205.991"/>
<polygon fill="#000000" stroke="#000000" points="934.434,-205.9909 937.9339,-215.991 941.434,-205.991 934.434,-205.9909"/>
</g>
<!-- ToastSubtitle  -->
<g id="node18" class="node">
<title>ToastSubtitle </title>
<polygon fill="#fb8072" stroke="#000000" points="834.1621,-252 739.8379,-252 739.8379,-216 834.1621,-216 834.1621,-252"/>
<text text-anchor="middle" x="787" y="-229.8" font-family="Times,serif" font-size="14.00" fill="#000000">ToastSubtitle </text>
</g>
<!-- NotificationModule&#45;&gt;ToastSubtitle  -->
<g id="edge17" class="edge">
<title>NotificationModule&#45;&gt;ToastSubtitle </title>
<path fill="none" stroke="#000000" stroke-dasharray="5,2" d="M928.1311,-183C880.7463,-183 824.3254,-183 824.3254,-183 824.3254,-183 824.3254,-205.8757 824.3254,-205.8757"/>
<polygon fill="#000000" stroke="#000000" points="820.8255,-205.8757 824.3254,-215.8757 827.8255,-205.8757 820.8255,-205.8757"/>
</g>
<!-- ToastTitle  -->
<g id="node19" class="node">
<title>ToastTitle </title>
<polygon fill="#fb8072" stroke="#000000" points="721.5414,-252 644.4586,-252 644.4586,-216 721.5414,-216 721.5414,-252"/>
<text text-anchor="middle" x="683" y="-229.8" font-family="Times,serif" font-size="14.00" fill="#000000">ToastTitle </text>
</g>
<!-- NotificationModule&#45;&gt;ToastTitle  -->
<g id="edge18" class="edge">
<title>NotificationModule&#45;&gt;ToastTitle </title>
<path fill="none" stroke="#000000" stroke-dasharray="5,2" d="M928.1428,-178C842.4875,-178 701.0181,-178 701.0181,-178 701.0181,-178 701.0181,-205.973 701.0181,-205.973"/>
<polygon fill="#000000" stroke="#000000" points="697.5181,-205.973 701.0181,-215.973 704.5181,-205.973 697.5181,-205.973"/>
</g>
<!-- ButtonModule -->
<g id="node9" class="node">
<title>ButtonModule</title>
<polygon fill="#8dd3c7" stroke="#000000" points="930.6682,-122 927.6682,-126 906.6682,-126 903.6682,-122 833.3318,-122 833.3318,-86 930.6682,-86 930.6682,-122"/>
<text text-anchor="middle" x="882" y="-99.8" font-family="Times,serif" font-size="14.00" fill="#000000">ButtonModule</text>
</g>
<!-- ButtonModule&#45;&gt;NotificationModule -->
<g id="edge8" class="edge">
<title>ButtonModule&#45;&gt;NotificationModule</title>
<path fill="none" stroke="#000000" d="M930.6809,-104C937.9319,-104 943.0316,-104 943.0316,-104 943.0316,-104 943.0316,-140.8939 943.0316,-140.8939"/>
<polygon fill="#000000" stroke="#000000" points="939.5316,-140.8938 943.0316,-150.8939 946.5316,-140.8939 939.5316,-140.8938"/>
</g>
<!-- ExperimentalModule -->
<g id="node10" class="node">
<title>ExperimentalModule</title>
<polygon fill="#8dd3c7" stroke="#000000" points="815.4692,-122 812.4692,-126 791.4692,-126 788.4692,-122 680.5308,-122 680.5308,-86 815.4692,-86 815.4692,-122"/>
<text text-anchor="middle" x="748" y="-99.8" font-family="Times,serif" font-size="14.00" fill="#000000">ExperimentalModule</text>
</g>
<!-- ExperimentalModule&#45;&gt;NotificationModule -->
<g id="edge9" class="edge">
<title>ExperimentalModule&#45;&gt;NotificationModule</title>
<path fill="none" stroke="#000000" d="M777.7018,-122.1871C777.7018,-137.1824 777.7018,-156 777.7018,-156 777.7018,-156 918.2837,-156 918.2837,-156"/>
<polygon fill="#000000" stroke="#000000" points="918.2837,-159.5001 928.2837,-156 918.2837,-152.5001 918.2837,-159.5001"/>
</g>
<!-- I18nModule -->
<g id="node11" class="node">
<title>I18nModule</title>
<polygon fill="#8dd3c7" stroke="#000000" points="662.7107,-122 659.7107,-126 638.7107,-126 635.7107,-122 577.2893,-122 577.2893,-86 662.7107,-86 662.7107,-122"/>
<text text-anchor="middle" x="620" y="-99.8" font-family="Times,serif" font-size="14.00" fill="#000000">I18nModule</text>
</g>
<!-- I18nModule&#45;&gt;NotificationModule -->
<g id="edge10" class="edge">
<title>I18nModule&#45;&gt;NotificationModule</title>
<path fill="none" stroke="#000000" d="M653.5423,-122.027C653.5423,-138.3976 653.5423,-160 653.5423,-160 653.5423,-160 918.3387,-160 918.3387,-160"/>
<polygon fill="#000000" stroke="#000000" points="918.3387,-163.5001 928.3387,-160 918.3387,-156.5001 918.3387,-163.5001"/>
</g>
<!-- LinkModule -->
<g id="node12" class="node">
<title>LinkModule</title>
<polygon fill="#8dd3c7" stroke="#000000" points="558.993,-122 555.993,-126 534.993,-126 531.993,-122 473.007,-122 473.007,-86 558.993,-86 558.993,-122"/>
<text text-anchor="middle" x="516" y="-99.8" font-family="Times,serif" font-size="14.00" fill="#000000">LinkModule</text>
</g>
<!-- LinkModule&#45;&gt;NotificationModule -->
<g id="edge11" class="edge">
<title>LinkModule&#45;&gt;NotificationModule</title>
<path fill="none" stroke="#000000" d="M516,-122.302C516,-140.2699 516,-165 516,-165 516,-165 918.2984,-165 918.2984,-165"/>
<polygon fill="#000000" stroke="#000000" points="918.2985,-168.5001 928.2984,-165 918.2984,-161.5001 918.2985,-168.5001"/>
</g>
<!-- NotificationDisplayService -->
<g id="node20" class="node">
<title>NotificationDisplayService</title>
<ellipse fill="#fdb462" stroke="#000000" cx="332" cy="-104" rx="116.8866" ry="18"/>
<text text-anchor="middle" x="332" y="-99.8" font-family="Times,serif" font-size="14.00" fill="#000000">NotificationDisplayService</text>
</g>
<!-- NotificationDisplayService&#45;&gt;NotificationModule -->
<g id="edge19" class="edge">
<title>NotificationDisplayService&#45;&gt;NotificationModule</title>
<path fill="none" stroke="#000000" d="M332,-122.1061C332,-141.3391 332,-169 332,-169 332,-169 918.1167,-169 918.1167,-169"/>
<polygon fill="#000000" stroke="#000000" points="918.1168,-172.5001 928.1167,-169 918.1167,-165.5001 918.1168,-172.5001"/>
</g>
<!-- NotificationService -->
<g id="node21" class="node">
<title>NotificationService</title>
<ellipse fill="#fdb462" stroke="#000000" cx="111" cy="-104" rx="86.8107" ry="18"/>
<text text-anchor="middle" x="111" y="-99.8" font-family="Times,serif" font-size="14.00" fill="#000000">NotificationService</text>
</g>
<!-- NotificationService&#45;&gt;NotificationModule -->
<g id="edge20" class="edge">
<title>NotificationService&#45;&gt;NotificationModule</title>
<path fill="none" stroke="#000000" d="M111,-122.0267C111,-142.7672 111,-174 111,-174 111,-174 918.2862,-174 918.2862,-174"/>
<polygon fill="#000000" stroke="#000000" points="918.2863,-177.5001 928.2862,-174 918.2862,-170.5001 918.2863,-177.5001"/>
</g>
</g>
</svg>
