<?xml version="1.0" encoding="UTF-8" standalone="no"?>
<!DOCTYPE svg PUBLIC "-//W3C//DTD SVG 1.1//EN"
 "http://www.w3.org/Graphics/SVG/1.1/DTD/svg11.dtd">
<!-- Generated by graphviz version 2.40.1 (20161225.0304)
 -->
<!-- Title: dependencies Pages: 1 -->
<svg width="1907pt" height="349pt"
 viewBox="0.00 0.00 1907.00 349.00" xmlns="http://www.w3.org/2000/svg" xmlns:xlink="http://www.w3.org/1999/xlink">
<g id="graph0" class="graph" transform="scale(1 1) rotate(0) translate(4 345)">
<title>dependencies</title>
<polygon fill="#ffffff" stroke="transparent" points="-4,4 -4,-345 1903,-345 1903,4 -4,4"/>
<text text-anchor="start" x="928.5091" y="-42.4" font-family="sans-serif" font-weight="bold" font-size="14.00" fill="#000000">Legend</text>
<polygon fill="#ffffb3" stroke="transparent" points="715.5,-10 715.5,-30 735.5,-30 735.5,-10 715.5,-10"/>
<text text-anchor="start" x="739.129" y="-15.4" font-family="sans-serif" font-size="14.00" fill="#000000"> &#160;Declarations</text>
<polygon fill="#8dd3c7" stroke="transparent" points="828.5,-10 828.5,-30 848.5,-30 848.5,-10 828.5,-10"/>
<text text-anchor="start" x="852.2251" y="-15.4" font-family="sans-serif" font-size="14.00" fill="#000000"> &#160;Module</text>
<polygon fill="#80b1d3" stroke="transparent" points="914.5,-10 914.5,-30 934.5,-30 934.5,-10 914.5,-10"/>
<text text-anchor="start" x="938.2812" y="-15.4" font-family="sans-serif" font-size="14.00" fill="#000000"> &#160;Bootstrap</text>
<polygon fill="#fdb462" stroke="transparent" points="1011.5,-10 1011.5,-30 1031.5,-30 1031.5,-10 1011.5,-10"/>
<text text-anchor="start" x="1035.1732" y="-15.4" font-family="sans-serif" font-size="14.00" fill="#000000"> &#160;Providers</text>
<polygon fill="#fb8072" stroke="transparent" points="1107.5,-10 1107.5,-30 1127.5,-30 1127.5,-10 1107.5,-10"/>
<text text-anchor="start" x="1131.2258" y="-15.4" font-family="sans-serif" font-size="14.00" fill="#000000"> &#160;Exports</text>
<g id="clust1" class="cluster">
<title>cluster_DialogModule</title>
<polygon fill="none" stroke="#000000" stroke-dasharray="1,5" points="8,-70 8,-333 1891,-333 1891,-70 8,-70"/>
</g>
<g id="clust2" class="cluster">
<title>cluster_DialogModule_declarations</title>
<polygon fill="none" stroke="#000000" points="525,-143 525,-195 1871,-195 1871,-143 525,-143"/>
</g>
<g id="clust4" class="cluster">
<title>cluster_DialogModule_DialogDirective_providers</title>
<polygon fill="none" stroke="#000000" points="1699,-78 1699,-130 1847,-130 1847,-78 1699,-78"/>
</g>
<g id="clust14" class="cluster">
<title>cluster_DialogModule_imports</title>
<polygon fill="none" stroke="#000000" points="16,-143 16,-195 517,-195 517,-143 16,-143"/>
</g>
<g id="clust15" class="cluster">
<title>cluster_DialogModule_exports</title>
<polygon fill="none" stroke="#000000" points="296,-273 296,-325 1681,-325 1681,-273 296,-273"/>
</g>
<!-- Dialog -->
<g id="node1" class="node">
<title>Dialog</title>
<polygon fill="#ffffb3" stroke="#000000" points="1863.1025,-187 1808.8975,-187 1808.8975,-151 1863.1025,-151 1863.1025,-187"/>
<text text-anchor="middle" x="1836" y="-164.8" font-family="Times,serif" font-size="14.00" fill="#000000">Dialog</text>
</g>
<!-- DialogModule -->
<g id="node12" class="node">
<title>DialogModule</title>
<polygon fill="#8dd3c7" stroke="#000000" points="1025.6528,-252 1022.6528,-256 1001.6528,-256 998.6528,-252 928.3472,-252 928.3472,-216 1025.6528,-216 1025.6528,-252"/>
<text text-anchor="middle" x="977" y="-229.8" font-family="Times,serif" font-size="14.00" fill="#000000">DialogModule</text>
</g>
<!-- Dialog&#45;&gt;DialogModule -->
<g id="edge1" class="edge">
<title>Dialog&#45;&gt;DialogModule</title>
<path fill="none" stroke="#000000" d="M1836,-187.1061C1836,-206.3391 1836,-234 1836,-234 1836,-234 1035.9564,-234 1035.9564,-234"/>
<polygon fill="#000000" stroke="#000000" points="1035.9564,-230.5001 1025.9564,-234 1035.9563,-237.5001 1035.9564,-230.5001"/>
</g>
<!-- DialogDirective -->
<g id="node2" class="node">
<title>DialogDirective</title>
<polygon fill="#ffffb3" stroke="#000000" points="1791.1854,-187 1684.8146,-187 1684.8146,-151 1791.1854,-151 1791.1854,-187"/>
<text text-anchor="middle" x="1738" y="-164.8" font-family="Times,serif" font-size="14.00" fill="#000000">DialogDirective</text>
</g>
<!-- DialogDirective&#45;&gt;DialogModule -->
<g id="edge2" class="edge">
<title>DialogDirective&#45;&gt;DialogModule</title>
<path fill="none" stroke="#000000" d="M1738,-187.2667C1738,-205.5552 1738,-231 1738,-231 1738,-231 1035.7616,-231 1035.7616,-231"/>
<polygon fill="#000000" stroke="#000000" points="1035.7617,-227.5001 1025.7616,-231 1035.7616,-234.5001 1035.7617,-227.5001"/>
</g>
<!-- EllipsisTooltip -->
<g id="node3" class="node">
<title>EllipsisTooltip</title>
<polygon fill="#ffffb3" stroke="#000000" points="1666.7289,-187 1567.2711,-187 1567.2711,-151 1666.7289,-151 1666.7289,-187"/>
<text text-anchor="middle" x="1617" y="-164.8" font-family="Times,serif" font-size="14.00" fill="#000000">EllipsisTooltip</text>
</g>
<!-- EllipsisTooltip&#45;&gt;DialogModule -->
<g id="edge4" class="edge">
<title>EllipsisTooltip&#45;&gt;DialogModule</title>
<path fill="none" stroke="#000000" d="M1582.1141,-187.0225C1582.1141,-204.3734 1582.1141,-228 1582.1141,-228 1582.1141,-228 1035.751,-228 1035.751,-228"/>
<polygon fill="#000000" stroke="#000000" points="1035.7511,-224.5001 1025.751,-228 1035.751,-231.5001 1035.7511,-224.5001"/>
</g>
<!-- OverflowMenu -->
<g id="node4" class="node">
<title>OverflowMenu</title>
<polygon fill="#ffffb3" stroke="#000000" points="1549.2992,-187 1446.7008,-187 1446.7008,-151 1549.2992,-151 1549.2992,-187"/>
<text text-anchor="middle" x="1498" y="-164.8" font-family="Times,serif" font-size="14.00" fill="#000000">OverflowMenu</text>
</g>
<!-- OverflowMenu&#45;&gt;DialogModule -->
<g id="edge5" class="edge">
<title>OverflowMenu&#45;&gt;DialogModule</title>
<path fill="none" stroke="#000000" d="M1458.1075,-187.027C1458.1075,-203.3976 1458.1075,-225 1458.1075,-225 1458.1075,-225 1035.7788,-225 1035.7788,-225"/>
<polygon fill="#000000" stroke="#000000" points="1035.7788,-221.5001 1025.7788,-225 1035.7787,-228.5001 1035.7788,-221.5001"/>
</g>
<!-- OverflowMenuDirective -->
<g id="node5" class="node">
<title>OverflowMenuDirective</title>
<polygon fill="#ffffb3" stroke="#000000" points="1429.3821,-187 1274.6179,-187 1274.6179,-151 1429.3821,-151 1429.3821,-187"/>
<text text-anchor="middle" x="1352" y="-164.8" font-family="Times,serif" font-size="14.00" fill="#000000">OverflowMenuDirective</text>
</g>
<!-- OverflowMenuDirective&#45;&gt;DialogModule -->
<g id="edge6" class="edge">
<title>OverflowMenuDirective&#45;&gt;DialogModule</title>
<path fill="none" stroke="#000000" d="M1311.8543,-187.2396C1311.8543,-202.5706 1311.8543,-222 1311.8543,-222 1311.8543,-222 1035.6907,-222 1035.6907,-222"/>
<polygon fill="#000000" stroke="#000000" points="1035.6907,-218.5001 1025.6907,-222 1035.6907,-225.5001 1035.6907,-218.5001"/>
</g>
<!-- OverflowMenuOption -->
<g id="node6" class="node">
<title>OverflowMenuOption</title>
<polygon fill="#ffffb3" stroke="#000000" points="1256.6867,-187 1115.3133,-187 1115.3133,-151 1256.6867,-151 1256.6867,-187"/>
<text text-anchor="middle" x="1186" y="-164.8" font-family="Times,serif" font-size="14.00" fill="#000000">OverflowMenuOption</text>
</g>
<!-- OverflowMenuOption&#45;&gt;DialogModule -->
<g id="edge7" class="edge">
<title>OverflowMenuOption&#45;&gt;DialogModule</title>
<path fill="none" stroke="#000000" d="M1170.1738,-187.0511C1170.1738,-201.373 1170.1738,-219 1170.1738,-219 1170.1738,-219 1035.7459,-219 1035.7459,-219"/>
<polygon fill="#000000" stroke="#000000" points="1035.7459,-215.5001 1025.7459,-219 1035.7459,-222.5001 1035.7459,-215.5001"/>
</g>
<!-- OverflowMenuPane -->
<g id="node7" class="node">
<title>OverflowMenuPane</title>
<polygon fill="#ffffb3" stroke="#000000" points="1097.5115,-187 968.4885,-187 968.4885,-151 1097.5115,-151 1097.5115,-187"/>
<text text-anchor="middle" x="1033" y="-164.8" font-family="Times,serif" font-size="14.00" fill="#000000">OverflowMenuPane</text>
</g>
<!-- OverflowMenuPane&#45;&gt;DialogModule -->
<g id="edge8" class="edge">
<title>OverflowMenuPane&#45;&gt;DialogModule</title>
<path fill="none" stroke="#000000" d="M997.0354,-187.1061C997.0354,-187.1061 997.0354,-205.991 997.0354,-205.991"/>
<polygon fill="#000000" stroke="#000000" points="993.5355,-205.9909 997.0354,-215.991 1000.5355,-205.991 993.5355,-205.9909"/>
</g>
<!-- Tooltip -->
<g id="node8" class="node">
<title>Tooltip</title>
<polygon fill="#ffffb3" stroke="#000000" points="950.7248,-187 893.2752,-187 893.2752,-151 950.7248,-151 950.7248,-187"/>
<text text-anchor="middle" x="922" y="-164.8" font-family="Times,serif" font-size="14.00" fill="#000000">Tooltip</text>
</g>
<!-- Tooltip&#45;&gt;DialogModule -->
<g id="edge9" class="edge">
<title>Tooltip&#45;&gt;DialogModule</title>
<path fill="none" stroke="#000000" d="M939.3931,-187.1061C939.3931,-187.1061 939.3931,-205.991 939.3931,-205.991"/>
<polygon fill="#000000" stroke="#000000" points="935.8931,-205.9909 939.3931,-215.991 942.8931,-205.991 935.8931,-205.9909"/>
</g>
<!-- TooltipDefinition -->
<g id="node9" class="node">
<title>TooltipDefinition</title>
<polygon fill="#ffffb3" stroke="#000000" points="875.2688,-187 760.7312,-187 760.7312,-151 875.2688,-151 875.2688,-187"/>
<text text-anchor="middle" x="818" y="-164.8" font-family="Times,serif" font-size="14.00" fill="#000000">TooltipDefinition</text>
</g>
<!-- TooltipDefinition&#45;&gt;DialogModule -->
<g id="edge10" class="edge">
<title>TooltipDefinition&#45;&gt;DialogModule</title>
<path fill="none" stroke="#000000" d="M818,-187.0511C818,-201.373 818,-219 818,-219 818,-219 917.9974,-219 917.9974,-219"/>
<polygon fill="#000000" stroke="#000000" points="917.9974,-222.5001 927.9974,-219 917.9973,-215.5001 917.9974,-222.5001"/>
</g>
<!-- TooltipDirective -->
<g id="node10" class="node">
<title>TooltipDirective</title>
<polygon fill="#ffffb3" stroke="#000000" points="742.8076,-187 633.1924,-187 633.1924,-151 742.8076,-151 742.8076,-187"/>
<text text-anchor="middle" x="688" y="-164.8" font-family="Times,serif" font-size="14.00" fill="#000000">TooltipDirective</text>
</g>
<!-- TooltipDirective&#45;&gt;DialogModule -->
<g id="edge11" class="edge">
<title>TooltipDirective&#45;&gt;DialogModule</title>
<path fill="none" stroke="#000000" d="M739.0079,-187.2396C739.0079,-202.5706 739.0079,-222 739.0079,-222 739.0079,-222 918.2645,-222 918.2645,-222"/>
<polygon fill="#000000" stroke="#000000" points="918.2645,-225.5001 928.2645,-222 918.2644,-218.5001 918.2645,-225.5001"/>
</g>
<!-- TooltipIcon -->
<g id="node11" class="node">
<title>TooltipIcon</title>
<polygon fill="#ffffb3" stroke="#000000" points="615.0997,-187 532.9003,-187 532.9003,-151 615.0997,-151 615.0997,-187"/>
<text text-anchor="middle" x="574" y="-164.8" font-family="Times,serif" font-size="14.00" fill="#000000">TooltipIcon</text>
</g>
<!-- TooltipIcon&#45;&gt;DialogModule -->
<g id="edge12" class="edge">
<title>TooltipIcon&#45;&gt;DialogModule</title>
<path fill="none" stroke="#000000" d="M576.9578,-187.027C576.9578,-203.3976 576.9578,-225 576.9578,-225 576.9578,-225 918.3469,-225 918.3469,-225"/>
<polygon fill="#000000" stroke="#000000" points="918.3469,-228.5001 928.3469,-225 918.3469,-221.5001 918.3469,-228.5001"/>
</g>
<!-- Dialog  -->
<g id="node18" class="node">
<title>Dialog </title>
<polygon fill="#fb8072" stroke="#000000" points="1672.6038,-317 1615.3962,-317 1615.3962,-281 1672.6038,-281 1672.6038,-317"/>
<text text-anchor="middle" x="1644" y="-294.8" font-family="Times,serif" font-size="14.00" fill="#000000">Dialog </text>
</g>
<!-- DialogModule&#45;&gt;Dialog  -->
<g id="edge17" class="edge">
<title>DialogModule&#45;&gt;Dialog </title>
<path fill="none" stroke="#000000" stroke-dasharray="5,2" d="M1025.8186,-237C1179.1397,-237 1640.9066,-237 1640.9066,-237 1640.9066,-237 1640.9066,-270.7333 1640.9066,-270.7333"/>
<polygon fill="#000000" stroke="#000000" points="1637.4066,-270.7333 1640.9066,-280.7333 1644.4066,-270.7333 1637.4066,-270.7333"/>
</g>
<!-- DialogDirective  -->
<g id="node19" class="node">
<title>DialogDirective </title>
<polygon fill="#fb8072" stroke="#000000" points="1596.6857,-317 1487.3143,-317 1487.3143,-281 1596.6857,-281 1596.6857,-317"/>
<text text-anchor="middle" x="1542" y="-294.8" font-family="Times,serif" font-size="14.00" fill="#000000">DialogDirective </text>
</g>
<!-- DialogModule&#45;&gt;DialogDirective  -->
<g id="edge18" class="edge">
<title>DialogModule&#45;&gt;DialogDirective </title>
<path fill="none" stroke="#000000" stroke-dasharray="5,2" d="M1025.9782,-240C1159.188,-240 1518.1534,-240 1518.1534,-240 1518.1534,-240 1518.1534,-270.9775 1518.1534,-270.9775"/>
<polygon fill="#000000" stroke="#000000" points="1514.6535,-270.9774 1518.1534,-280.9775 1521.6535,-270.9775 1514.6535,-270.9774"/>
</g>
<!-- EllipsisTooltip  -->
<g id="node20" class="node">
<title>EllipsisTooltip </title>
<polygon fill="#fb8072" stroke="#000000" points="1469.229,-317 1366.771,-317 1366.771,-281 1469.229,-281 1469.229,-317"/>
<text text-anchor="middle" x="1418" y="-294.8" font-family="Times,serif" font-size="14.00" fill="#000000">EllipsisTooltip </text>
</g>
<!-- DialogModule&#45;&gt;EllipsisTooltip  -->
<g id="edge19" class="edge">
<title>DialogModule&#45;&gt;EllipsisTooltip </title>
<path fill="none" stroke="#000000" stroke-dasharray="5,2" d="M1025.6953,-243C1136.4927,-243 1397.9133,-243 1397.9133,-243 1397.9133,-243 1397.9133,-270.973 1397.9133,-270.973"/>
<polygon fill="#000000" stroke="#000000" points="1394.4133,-270.973 1397.9133,-280.973 1401.4133,-270.973 1394.4133,-270.973"/>
</g>
<!-- OverflowMenu  -->
<g id="node21" class="node">
<title>OverflowMenu </title>
<polygon fill="#fb8072" stroke="#000000" points="1348.799,-317 1243.201,-317 1243.201,-281 1348.799,-281 1348.799,-317"/>
<text text-anchor="middle" x="1296" y="-294.8" font-family="Times,serif" font-size="14.00" fill="#000000">OverflowMenu </text>
</g>
<!-- DialogModule&#45;&gt;OverflowMenu  -->
<g id="edge20" class="edge">
<title>DialogModule&#45;&gt;OverflowMenu </title>
<path fill="none" stroke="#000000" stroke-dasharray="5,2" d="M1025.7796,-246C1104.26,-246 1249.847,-246 1249.847,-246 1249.847,-246 1249.847,-270.7604 1249.847,-270.7604"/>
<polygon fill="#000000" stroke="#000000" points="1246.347,-270.7604 1249.847,-280.7604 1253.347,-270.7604 1246.347,-270.7604"/>
</g>
<!-- OverflowMenuDirective  -->
<g id="node22" class="node">
<title>OverflowMenuDirective </title>
<polygon fill="#fb8072" stroke="#000000" points="1224.8816,-317 1067.1184,-317 1067.1184,-281 1224.8816,-281 1224.8816,-317"/>
<text text-anchor="middle" x="1146" y="-294.8" font-family="Times,serif" font-size="14.00" fill="#000000">OverflowMenuDirective </text>
</g>
<!-- DialogModule&#45;&gt;OverflowMenuDirective  -->
<g id="edge21" class="edge">
<title>DialogModule&#45;&gt;OverflowMenuDirective </title>
<path fill="none" stroke="#000000" stroke-dasharray="5,2" d="M1025.6925,-249C1053.3111,-249 1082.4073,-249 1082.4073,-249 1082.4073,-249 1082.4073,-270.9489 1082.4073,-270.9489"/>
<polygon fill="#000000" stroke="#000000" points="1078.9073,-270.9488 1082.4073,-280.9489 1085.9073,-270.9489 1078.9073,-270.9488"/>
</g>
<!-- OverflowMenuOption  -->
<g id="node23" class="node">
<title>OverflowMenuOption </title>
<polygon fill="#fb8072" stroke="#000000" points="1049.1869,-317 904.8131,-317 904.8131,-281 1049.1869,-281 1049.1869,-317"/>
<text text-anchor="middle" x="977" y="-294.8" font-family="Times,serif" font-size="14.00" fill="#000000">OverflowMenuOption </text>
</g>
<!-- DialogModule&#45;&gt;OverflowMenuOption  -->
<g id="edge22" class="edge">
<title>DialogModule&#45;&gt;OverflowMenuOption </title>
<path fill="none" stroke="#000000" stroke-dasharray="5,2" d="M977,-252.1061C977,-252.1061 977,-270.991 977,-270.991"/>
<polygon fill="#000000" stroke="#000000" points="973.5001,-270.9909 977,-280.991 980.5001,-270.991 973.5001,-270.9909"/>
</g>
<!-- OverflowMenuPane  -->
<g id="node24" class="node">
<title>OverflowMenuPane </title>
<polygon fill="#fb8072" stroke="#000000" points="886.5106,-317 753.4894,-317 753.4894,-281 886.5106,-281 886.5106,-317"/>
<text text-anchor="middle" x="820" y="-294.8" font-family="Times,serif" font-size="14.00" fill="#000000">OverflowMenuPane </text>
</g>
<!-- DialogModule&#45;&gt;OverflowMenuPane  -->
<g id="edge23" class="edge">
<title>DialogModule&#45;&gt;OverflowMenuPane </title>
<path fill="none" stroke="#000000" stroke-dasharray="5,2" d="M928.1282,-250C904.3991,-250 880.9448,-250 880.9448,-250 880.9448,-250 880.9448,-270.7542 880.9448,-270.7542"/>
<polygon fill="#000000" stroke="#000000" points="877.4449,-270.7542 880.9448,-280.7542 884.4449,-270.7542 877.4449,-270.7542"/>
</g>
<!-- Tooltip  -->
<g id="node25" class="node">
<title>Tooltip </title>
<polygon fill="#fb8072" stroke="#000000" points="735.225,-317 674.775,-317 674.775,-281 735.225,-281 735.225,-317"/>
<text text-anchor="middle" x="705" y="-294.8" font-family="Times,serif" font-size="14.00" fill="#000000">Tooltip </text>
</g>
<!-- DialogModule&#45;&gt;Tooltip  -->
<g id="edge24" class="edge">
<title>DialogModule&#45;&gt;Tooltip </title>
<path fill="none" stroke="#000000" stroke-dasharray="5,2" d="M928.0577,-247C849.7472,-247 705,-247 705,-247 705,-247 705,-270.8129 705,-270.8129"/>
<polygon fill="#000000" stroke="#000000" points="701.5001,-270.8129 705,-280.8129 708.5001,-270.813 701.5001,-270.8129"/>
</g>
<!-- TooltipDefinition  -->
<g id="node26" class="node">
<title>TooltipDefinition </title>
<polygon fill="#fb8072" stroke="#000000" points="657.2689,-317 538.7311,-317 538.7311,-281 657.2689,-281 657.2689,-317"/>
<text text-anchor="middle" x="598" y="-294.8" font-family="Times,serif" font-size="14.00" fill="#000000">TooltipDefinition </text>
</g>
<!-- DialogModule&#45;&gt;TooltipDefinition  -->
<g id="edge25" class="edge">
<title>DialogModule&#45;&gt;TooltipDefinition </title>
<path fill="none" stroke="#000000" stroke-dasharray="5,2" d="M928.0477,-244C835.7632,-244 645.2404,-244 645.2404,-244 645.2404,-244 645.2404,-270.9909 645.2404,-270.9909"/>
<polygon fill="#000000" stroke="#000000" points="641.7404,-270.9909 645.2404,-280.9909 648.7404,-270.991 641.7404,-270.9909"/>
</g>
<!-- TooltipDirective  -->
<g id="node27" class="node">
<title>TooltipDirective </title>
<polygon fill="#fb8072" stroke="#000000" points="520.3074,-317 407.6926,-317 407.6926,-281 520.3074,-281 520.3074,-317"/>
<text text-anchor="middle" x="464" y="-294.8" font-family="Times,serif" font-size="14.00" fill="#000000">TooltipDirective </text>
</g>
<!-- DialogModule&#45;&gt;TooltipDirective  -->
<g id="edge26" class="edge">
<title>DialogModule&#45;&gt;TooltipDirective </title>
<path fill="none" stroke="#000000" stroke-dasharray="5,2" d="M927.9894,-241C809.0737,-241 514.9441,-241 514.9441,-241 514.9441,-241 514.9441,-270.9664 514.9441,-270.9664"/>
<polygon fill="#000000" stroke="#000000" points="511.4442,-270.9663 514.9441,-280.9664 518.4442,-270.9664 511.4442,-270.9663"/>
</g>
<!-- TooltipIcon  -->
<g id="node28" class="node">
<title>TooltipIcon </title>
<polygon fill="#fb8072" stroke="#000000" points="389.6005,-317 304.3995,-317 304.3995,-281 389.6005,-281 389.6005,-317"/>
<text text-anchor="middle" x="347" y="-294.8" font-family="Times,serif" font-size="14.00" fill="#000000">TooltipIcon </text>
</g>
<!-- DialogModule&#45;&gt;TooltipIcon  -->
<g id="edge27" class="edge">
<title>DialogModule&#45;&gt;TooltipIcon </title>
<path fill="none" stroke="#000000" stroke-dasharray="5,2" d="M928.3215,-239C786.2558,-239 382.1576,-239 382.1576,-239 382.1576,-239 382.1576,-270.998 382.1576,-270.998"/>
<polygon fill="#000000" stroke="#000000" points="378.6577,-270.998 382.1576,-280.998 385.6577,-270.9981 378.6577,-270.998"/>
</g>
<!-- DialogService -->
<g id="node13" class="node">
<title>DialogService</title>
<ellipse fill="#fdb462" stroke="#000000" cx="1773" cy="-104" rx="66.0492" ry="18"/>
<text text-anchor="middle" x="1773" y="-99.8" font-family="Times,serif" font-size="14.00" fill="#000000">DialogService</text>
</g>
<!-- DialogService&#45;&gt;DialogDirective -->
<g id="edge3" class="edge">
<title>DialogService&#45;&gt;DialogDirective</title>
<path fill="none" stroke="#000000" d="M1748.9092,-121.078C1748.9092,-121.078 1748.9092,-140.8993 1748.9092,-140.8993"/>
<polygon fill="#000000" stroke="#000000" points="1745.4093,-140.8992 1748.9092,-150.8993 1752.4093,-140.8993 1745.4093,-140.8992"/>
</g>
<!-- DialogService&#45;&gt;DialogModule -->
<g id="edge28" class="edge">
<title>DialogService&#45;&gt;DialogModule</title>
<path fill="none" stroke="#000000" d="M1706.422,-104C1512.1173,-104 959.4285,-104 959.4285,-104 959.4285,-104 959.4285,-205.9241 959.4285,-205.9241"/>
<polygon fill="#000000" stroke="#000000" points="955.9285,-205.924 959.4285,-215.9241 962.9285,-205.9241 955.9285,-205.924"/>
</g>
<!-- ExperimentalModule -->
<g id="node14" class="node">
<title>ExperimentalModule</title>
<polygon fill="#8dd3c7" stroke="#000000" points="509.4692,-187 506.4692,-191 485.4692,-191 482.4692,-187 374.5308,-187 374.5308,-151 509.4692,-151 509.4692,-187"/>
<text text-anchor="middle" x="442" y="-164.8" font-family="Times,serif" font-size="14.00" fill="#000000">ExperimentalModule</text>
</g>
<!-- ExperimentalModule&#45;&gt;DialogModule -->
<g id="edge13" class="edge">
<title>ExperimentalModule&#45;&gt;DialogModule</title>
<path fill="none" stroke="#000000" d="M458.5405,-187.0225C458.5405,-204.3734 458.5405,-228 458.5405,-228 458.5405,-228 918.2246,-228 918.2246,-228"/>
<polygon fill="#000000" stroke="#000000" points="918.2246,-231.5001 928.2246,-228 918.2246,-224.5001 918.2246,-231.5001"/>
</g>
<!-- I18nModule -->
<g id="node15" class="node">
<title>I18nModule</title>
<polygon fill="#8dd3c7" stroke="#000000" points="356.7107,-187 353.7107,-191 332.7107,-191 329.7107,-187 271.2893,-187 271.2893,-151 356.7107,-151 356.7107,-187"/>
<text text-anchor="middle" x="314" y="-164.8" font-family="Times,serif" font-size="14.00" fill="#000000">I18nModule</text>
</g>
<!-- I18nModule&#45;&gt;DialogModule -->
<g id="edge14" class="edge">
<title>I18nModule&#45;&gt;DialogModule</title>
<path fill="none" stroke="#000000" d="M330.4027,-187.302C330.4027,-205.2699 330.4027,-230 330.4027,-230 330.4027,-230 918.1351,-230 918.1351,-230"/>
<polygon fill="#000000" stroke="#000000" points="918.1351,-233.5001 928.1351,-230 918.135,-226.5001 918.1351,-233.5001"/>
</g>
<!-- PlaceholderModule -->
<g id="node16" class="node">
<title>PlaceholderModule</title>
<polygon fill="#8dd3c7" stroke="#000000" points="253.6331,-187 250.6331,-191 229.6331,-191 226.6331,-187 128.3669,-187 128.3669,-151 253.6331,-151 253.6331,-187"/>
<text text-anchor="middle" x="191" y="-164.8" font-family="Times,serif" font-size="14.00" fill="#000000">PlaceholderModule</text>
</g>
<!-- PlaceholderModule&#45;&gt;DialogModule -->
<g id="edge15" class="edge">
<title>PlaceholderModule&#45;&gt;DialogModule</title>
<path fill="none" stroke="#000000" d="M191,-187.1686C191,-206.0898 191,-233 191,-233 191,-233 918.1292,-233 918.1292,-233"/>
<polygon fill="#000000" stroke="#000000" points="918.1292,-236.5001 928.1292,-233 918.1291,-229.5001 918.1292,-236.5001"/>
</g>
<!-- UtilsModule -->
<g id="node17" class="node">
<title>UtilsModule</title>
<polygon fill="#8dd3c7" stroke="#000000" points="110.2731,-187 107.2731,-191 86.2731,-191 83.2731,-187 23.7269,-187 23.7269,-151 110.2731,-151 110.2731,-187"/>
<text text-anchor="middle" x="67" y="-164.8" font-family="Times,serif" font-size="14.00" fill="#000000">UtilsModule</text>
</g>
<!-- UtilsModule&#45;&gt;DialogModule -->
<g id="edge16" class="edge">
<title>UtilsModule&#45;&gt;DialogModule</title>
<path fill="none" stroke="#000000" d="M67,-187.308C67,-207.1455 67,-236 67,-236 67,-236 918.0744,-236 918.0744,-236"/>
<polygon fill="#000000" stroke="#000000" points="918.0745,-239.5001 928.0744,-236 918.0744,-232.5001 918.0745,-239.5001"/>
</g>
</g>
</svg>
