<?xml version="1.0" encoding="UTF-8" standalone="no"?>
<!DOCTYPE svg PUBLIC "-//W3C//DTD SVG 1.1//EN"
 "http://www.w3.org/Graphics/SVG/1.1/DTD/svg11.dtd">
<!-- Generated by graphviz version 2.40.1 (20161225.0304)
 -->
<!-- Title: dependencies Pages: 1 -->
<svg width="504pt" height="284pt"
 viewBox="0.00 0.00 504.00 284.00" xmlns="http://www.w3.org/2000/svg" xmlns:xlink="http://www.w3.org/1999/xlink">
<g id="graph0" class="graph" transform="scale(1 1) rotate(0) translate(4 280)">
<title>dependencies</title>
<polygon fill="#ffffff" stroke="transparent" points="-4,4 -4,-280 500,-280 500,4 -4,4"/>
<text text-anchor="start" x="227.0091" y="-42.4" font-family="sans-serif" font-weight="bold" font-size="14.00" fill="#000000">Legend</text>
<polygon fill="#ffffb3" stroke="transparent" points="14,-10 14,-30 34,-30 34,-10 14,-10"/>
<text text-anchor="start" x="37.629" y="-15.4" font-family="sans-serif" font-size="14.00" fill="#000000"> &#160;Declarations</text>
<polygon fill="#8dd3c7" stroke="transparent" points="127,-10 127,-30 147,-30 147,-10 127,-10"/>
<text text-anchor="start" x="150.7251" y="-15.4" font-family="sans-serif" font-size="14.00" fill="#000000"> &#160;Module</text>
<polygon fill="#80b1d3" stroke="transparent" points="213,-10 213,-30 233,-30 233,-10 213,-10"/>
<text text-anchor="start" x="236.7812" y="-15.4" font-family="sans-serif" font-size="14.00" fill="#000000"> &#160;Bootstrap</text>
<polygon fill="#fdb462" stroke="transparent" points="310,-10 310,-30 330,-30 330,-10 310,-10"/>
<text text-anchor="start" x="333.6732" y="-15.4" font-family="sans-serif" font-size="14.00" fill="#000000"> &#160;Providers</text>
<polygon fill="#fb8072" stroke="transparent" points="406,-10 406,-30 426,-30 426,-10 406,-10"/>
<text text-anchor="start" x="429.7258" y="-15.4" font-family="sans-serif" font-size="14.00" fill="#000000"> &#160;Exports</text>
<g id="clust1" class="cluster">
<title>cluster_TabsModule</title>
<polygon fill="none" stroke="#000000" stroke-dasharray="1,5" points="116,-70 116,-268 380,-268 380,-70 116,-70"/>
</g>
<g id="clust2" class="cluster">
<title>cluster_TabsModule_declarations</title>
<polygon fill="none" stroke="#000000" points="126,-78 126,-130 370,-130 370,-78 126,-78"/>
</g>
<g id="clust7" class="cluster">
<title>cluster_TabsModule_exports</title>
<polygon fill="none" stroke="#000000" points="124,-208 124,-260 372,-260 372,-208 124,-208"/>
</g>
<!-- Tab -->
<g id="node1" class="node">
<title>Tab</title>
<polygon fill="#ffffb3" stroke="#000000" points="362,-122 308,-122 308,-86 362,-86 362,-122"/>
<text text-anchor="middle" x="335" y="-99.8" font-family="Times,serif" font-size="14.00" fill="#000000">Tab</text>
</g>
<!-- TabsModule -->
<g id="node4" class="node">
<title>TabsModule</title>
<polygon fill="#8dd3c7" stroke="#000000" points="291.2619,-187 288.2619,-191 267.2619,-191 264.2619,-187 204.7381,-187 204.7381,-151 291.2619,-151 291.2619,-187"/>
<text text-anchor="middle" x="248" y="-164.8" font-family="Times,serif" font-size="14.00" fill="#000000">TabsModule</text>
</g>
<!-- Tab&#45;&gt;TabsModule -->
<g id="edge1" class="edge">
<title>Tab&#45;&gt;TabsModule</title>
<path fill="none" stroke="#000000" d="M344.6667,-122.0225C344.6667,-139.3734 344.6667,-163 344.6667,-163 344.6667,-163 301.526,-163 301.526,-163"/>
<polygon fill="#000000" stroke="#000000" points="301.526,-159.5001 291.526,-163 301.5259,-166.5001 301.526,-159.5001"/>
</g>
<!-- TabHeaders -->
<g id="node2" class="node">
<title>TabHeaders</title>
<polygon fill="#ffffb3" stroke="#000000" points="289.6236,-122 206.3764,-122 206.3764,-86 289.6236,-86 289.6236,-122"/>
<text text-anchor="middle" x="248" y="-99.8" font-family="Times,serif" font-size="14.00" fill="#000000">TabHeaders</text>
</g>
<!-- TabHeaders&#45;&gt;TabsModule -->
<g id="edge2" class="edge">
<title>TabHeaders&#45;&gt;TabsModule</title>
<path fill="none" stroke="#000000" d="M248,-122.1061C248,-122.1061 248,-140.991 248,-140.991"/>
<polygon fill="#000000" stroke="#000000" points="244.5001,-140.9909 248,-150.991 251.5001,-140.991 244.5001,-140.9909"/>
</g>
<!-- Tabs -->
<g id="node3" class="node">
<title>Tabs</title>
<polygon fill="#ffffb3" stroke="#000000" points="188,-122 134,-122 134,-86 188,-86 188,-122"/>
<text text-anchor="middle" x="161" y="-99.8" font-family="Times,serif" font-size="14.00" fill="#000000">Tabs</text>
</g>
<!-- Tabs&#45;&gt;TabsModule -->
<g id="edge3" class="edge">
<title>Tabs&#45;&gt;TabsModule</title>
<path fill="none" stroke="#000000" d="M168.6667,-122.0225C168.6667,-139.3734 168.6667,-163 168.6667,-163 168.6667,-163 194.6194,-163 194.6194,-163"/>
<polygon fill="#000000" stroke="#000000" points="194.6195,-166.5001 204.6194,-163 194.6194,-159.5001 194.6195,-166.5001"/>
</g>
<!-- Tab  -->
<g id="node5" class="node">
<title>Tab </title>
<polygon fill="#fb8072" stroke="#000000" points="364,-252 310,-252 310,-216 364,-216 364,-252"/>
<text text-anchor="middle" x="337" y="-229.8" font-family="Times,serif" font-size="14.00" fill="#000000">Tab </text>
</g>
<!-- TabsModule&#45;&gt;Tab  -->
<g id="edge4" class="edge">
<title>TabsModule&#45;&gt;Tab </title>
<path fill="none" stroke="#000000" stroke-dasharray="5,2" d="M291.3806,-175C309.9017,-175 327.3333,-175 327.3333,-175 327.3333,-175 327.3333,-205.9775 327.3333,-205.9775"/>
<polygon fill="#000000" stroke="#000000" points="323.8334,-205.9774 327.3333,-215.9775 330.8334,-205.9775 323.8334,-205.9774"/>
</g>
<!-- TabHeaders  -->
<g id="node6" class="node">
<title>TabHeaders </title>
<polygon fill="#fb8072" stroke="#000000" points="291.6229,-252 204.3771,-252 204.3771,-216 291.6229,-216 291.6229,-252"/>
<text text-anchor="middle" x="248" y="-229.8" font-family="Times,serif" font-size="14.00" fill="#000000">TabHeaders </text>
</g>
<!-- TabsModule&#45;&gt;TabHeaders  -->
<g id="edge5" class="edge">
<title>TabsModule&#45;&gt;TabHeaders </title>
<path fill="none" stroke="#000000" stroke-dasharray="5,2" d="M248,-187.1061C248,-187.1061 248,-205.991 248,-205.991"/>
<polygon fill="#000000" stroke="#000000" points="244.5001,-205.9909 248,-215.991 251.5001,-205.991 244.5001,-205.9909"/>
</g>
<!-- Tabs  -->
<g id="node7" class="node">
<title>Tabs </title>
<polygon fill="#fb8072" stroke="#000000" points="186,-252 132,-252 132,-216 186,-216 186,-252"/>
<text text-anchor="middle" x="159" y="-229.8" font-family="Times,serif" font-size="14.00" fill="#000000">Tabs </text>
</g>
<!-- TabsModule&#45;&gt;Tabs  -->
<g id="edge6" class="edge">
<title>TabsModule&#45;&gt;Tabs </title>
<path fill="none" stroke="#000000" stroke-dasharray="5,2" d="M204.474,-175C178.8162,-175 151.3333,-175 151.3333,-175 151.3333,-175 151.3333,-205.9775 151.3333,-205.9775"/>
<polygon fill="#000000" stroke="#000000" points="147.8332,-205.9775 151.3333,-215.9775 154.8332,-205.9774 147.8332,-205.9775"/>
</g>
</g>
</svg>
