<?xml version="1.0" encoding="UTF-8" standalone="no"?>
<!DOCTYPE svg PUBLIC "-//W3C//DTD SVG 1.1//EN"
 "http://www.w3.org/Graphics/SVG/1.1/DTD/svg11.dtd">
<!-- Generated by graphviz version 2.47.0 (20210316.0004)
 -->
<!-- Title: dependencies Pages: 1 -->
<svg width="504pt" height="349pt"
 viewBox="0.00 0.00 504.00 349.00" xmlns="http://www.w3.org/2000/svg" xmlns:xlink="http://www.w3.org/1999/xlink">
<g id="graph0" class="graph" transform="scale(1 1) rotate(0) translate(4 345)">
<title>dependencies</title>
<polygon fill="white" stroke="transparent" points="-4,4 -4,-345 500,-345 500,4 -4,4"/>
<text text-anchor="start" x="227.01" y="-42.4" font-family="Times-12" font-weight="bold" font-size="14.00">Legend</text>
<polygon fill="#ffffb3" stroke="transparent" points="14,-10 14,-30 34,-30 34,-10 14,-10"/>
<text text-anchor="start" x="37.63" y="-15.4" font-family="Times-12" font-size="14.00"> &#160;Declarations</text>
<polygon fill="#8dd3c7" stroke="transparent" points="127,-10 127,-30 147,-30 147,-10 127,-10"/>
<text text-anchor="start" x="150.73" y="-15.4" font-family="Times-12" font-size="14.00"> &#160;Module</text>
<polygon fill="#80b1d3" stroke="transparent" points="213,-10 213,-30 233,-30 233,-10 213,-10"/>
<text text-anchor="start" x="236.78" y="-15.4" font-family="Times-12" font-size="14.00"> &#160;Bootstrap</text>
<polygon fill="#fdb462" stroke="transparent" points="310,-10 310,-30 330,-30 330,-10 310,-10"/>
<text text-anchor="start" x="333.67" y="-15.4" font-family="Times-12" font-size="14.00"> &#160;Providers</text>
<polygon fill="#fb8072" stroke="transparent" points="406,-10 406,-30 426,-30 426,-10 406,-10"/>
<text text-anchor="start" x="429.73" y="-15.4" font-family="Times-12" font-size="14.00"> &#160;Exports</text>
<g id="clust1" class="cluster">
<title>cluster_TreeviewModule</title>
<polygon fill="none" stroke="black" stroke-dasharray="1,5" points="18,-70 18,-333 478,-333 478,-70 18,-70"/>
</g>
<g id="clust4" class="cluster">
<title>cluster_TreeviewModule_TreeViewComponent_providers</title>
<polygon fill="none" stroke="black" points="296,-78 296,-195 470,-195 470,-78 296,-78"/>
</g>
<g id="clust2" class="cluster">
<title>cluster_TreeviewModule_declarations</title>
<polygon fill="none" stroke="black" points="134,-143 134,-195 288,-195 288,-143 134,-143"/>
</g>
<g id="clust5" class="cluster">
<title>cluster_TreeviewModule_imports</title>
<polygon fill="none" stroke="black" points="26,-143 26,-195 126,-195 126,-143 26,-143"/>
</g>
<g id="clust6" class="cluster">
<title>cluster_TreeviewModule_exports</title>
<polygon fill="none" stroke="black" points="80,-273 80,-325 395,-325 395,-273 80,-273"/>
</g>
<!-- TreeNodeComponent -->
<g id="node1" class="node">
<title>TreeNodeComponent</title>
<polygon fill="#ffffb3" stroke="black" points="279.8,-187 142.2,-187 142.2,-151 279.8,-151 279.8,-187"/>
<text text-anchor="middle" x="211" y="-164.8" font-family="Times,serif" font-size="14.00">TreeNodeComponent</text>
</g>
<!-- TreeviewModule -->
<g id="node3" class="node">
<title>TreeviewModule</title>
<polygon fill="#8dd3c7" stroke="black" points="267.4,-252 264.4,-256 243.4,-256 240.4,-252 154.6,-252 154.6,-216 267.4,-216 267.4,-252"/>
<text text-anchor="middle" x="211" y="-229.8" font-family="Times,serif" font-size="14.00">TreeviewModule</text>
</g>
<!-- TreeNodeComponent&#45;&gt;TreeviewModule -->
<g id="edge1" class="edge">
<title>TreeNodeComponent&#45;&gt;TreeviewModule</title>
<path fill="none" stroke="black" d="M211,-187.11C211,-187.11 211,-205.99 211,-205.99"/>
<polygon fill="black" stroke="black" points="207.5,-205.99 211,-215.99 214.5,-205.99 207.5,-205.99"/>
</g>
<!-- TreeViewComponent -->
<g id="node2" class="node">
<title>TreeViewComponent</title>
<polygon fill="#ffffb3" stroke="black" points="446.79,-187 309.21,-187 309.21,-151 446.79,-151 446.79,-187"/>
<text text-anchor="middle" x="378" y="-164.8" font-family="Times,serif" font-size="14.00">TreeViewComponent</text>
</g>
<!-- TreeViewComponent&#45;&gt;TreeviewModule -->
<g id="edge2" class="edge">
<title>TreeViewComponent&#45;&gt;TreeviewModule</title>
<path fill="none" stroke="black" d="M348.38,-187.11C348.38,-206.34 348.38,-234 348.38,-234 348.38,-234 277.27,-234 277.27,-234"/>
<polygon fill="black" stroke="black" points="277.27,-230.5 267.27,-234 277.27,-237.5 277.27,-230.5"/>
</g>
<!-- TreeNodeComponent  -->
<g id="node6" class="node">
<title>TreeNodeComponent </title>
<polygon fill="#fb8072" stroke="black" points="387.3,-317 246.7,-317 246.7,-281 387.3,-281 387.3,-317"/>
<text text-anchor="middle" x="317" y="-294.8" font-family="Times,serif" font-size="14.00">TreeNodeComponent </text>
</g>
<!-- TreeviewModule&#45;&gt;TreeNodeComponent  -->
<g id="edge5" class="edge">
<title>TreeviewModule&#45;&gt;TreeNodeComponent </title>
<path fill="none" stroke="black" stroke-dasharray="5,2" d="M256.9,-252.11C256.9,-252.11 256.9,-270.99 256.9,-270.99"/>
<polygon fill="black" stroke="black" points="253.4,-270.99 256.9,-280.99 260.4,-270.99 253.4,-270.99"/>
</g>
<!-- TreeViewComponent  -->
<g id="node7" class="node">
<title>TreeViewComponent </title>
<polygon fill="#fb8072" stroke="black" points="228.29,-317 87.71,-317 87.71,-281 228.29,-281 228.29,-317"/>
<text text-anchor="middle" x="158" y="-294.8" font-family="Times,serif" font-size="14.00">TreeViewComponent </text>
</g>
<!-- TreeviewModule&#45;&gt;TreeViewComponent  -->
<g id="edge6" class="edge">
<title>TreeviewModule&#45;&gt;TreeViewComponent </title>
<path fill="none" stroke="black" stroke-dasharray="5,2" d="M191.6,-252.11C191.6,-252.11 191.6,-270.99 191.6,-270.99"/>
<polygon fill="black" stroke="black" points="188.1,-270.99 191.6,-280.99 195.1,-270.99 188.1,-270.99"/>
</g>
<!-- TreeViewService -->
<g id="node4" class="node">
<title>TreeViewService</title>
<ellipse fill="#fdb462" stroke="black" cx="383" cy="-104" rx="78.69" ry="18"/>
<text text-anchor="middle" x="383" y="-99.8" font-family="Times,serif" font-size="14.00">TreeViewService</text>
</g>
<!-- TreeViewService&#45;&gt;TreeViewComponent -->
<g id="edge3" class="edge">
<title>TreeViewService&#45;&gt;TreeViewComponent</title>
<path fill="none" stroke="black" d="M378,-122.11C378,-122.11 378,-140.99 378,-140.99"/>
<polygon fill="black" stroke="black" points="374.5,-140.99 378,-150.99 381.5,-140.99 374.5,-140.99"/>
</g>
<!-- IconModule -->
<g id="node5" class="node">
<title>IconModule</title>
<polygon fill="#8dd3c7" stroke="black" points="118.43,-187 115.43,-191 94.43,-191 91.43,-187 33.57,-187 33.57,-151 118.43,-151 118.43,-187"/>
<text text-anchor="middle" x="76" y="-164.8" font-family="Times,serif" font-size="14.00">IconModule</text>
</g>
<!-- IconModule&#45;&gt;TreeviewModule -->
<g id="edge4" class="edge">
<title>IconModule&#45;&gt;TreeviewModule</title>
<path fill="none" stroke="black" d="M102.91,-187.11C102.91,-206.34 102.91,-234 102.91,-234 102.91,-234 144.74,-234 144.74,-234"/>
<polygon fill="black" stroke="black" points="144.74,-237.5 154.74,-234 144.74,-230.5 144.74,-237.5"/>
</g>
</g>
</svg>
