<?xml version="1.0" encoding="UTF-8" standalone="no"?>
<!DOCTYPE svg PUBLIC "-//W3C//DTD SVG 1.1//EN"
 "http://www.w3.org/Graphics/SVG/1.1/DTD/svg11.dtd">
<!-- Generated by graphviz version 2.40.1 (20161225.0304)
 -->
<!-- Title: dependencies Pages: 1 -->
<svg width="676pt" height="396pt"
 viewBox="0.00 0.00 676.00 395.59" xmlns="http://www.w3.org/2000/svg" xmlns:xlink="http://www.w3.org/1999/xlink">
<g id="graph0" class="graph" transform="scale(1 1) rotate(0) translate(4 391.5901)">
<title>dependencies</title>
<polygon fill="#ffffff" stroke="transparent" points="-4,4 -4,-391.5901 672,-391.5901 672,4 -4,4"/>
<text text-anchor="start" x="313.0091" y="-42.4" font-family="sans-serif" font-weight="bold" font-size="14.00" fill="#000000">Legend</text>
<polygon fill="#ffffb3" stroke="transparent" points="100,-10 100,-30 120,-30 120,-10 100,-10"/>
<text text-anchor="start" x="123.629" y="-15.4" font-family="sans-serif" font-size="14.00" fill="#000000"> &#160;Declarations</text>
<polygon fill="#8dd3c7" stroke="transparent" points="213,-10 213,-30 233,-30 233,-10 213,-10"/>
<text text-anchor="start" x="236.7251" y="-15.4" font-family="sans-serif" font-size="14.00" fill="#000000"> &#160;Module</text>
<polygon fill="#80b1d3" stroke="transparent" points="299,-10 299,-30 319,-30 319,-10 299,-10"/>
<text text-anchor="start" x="322.7812" y="-15.4" font-family="sans-serif" font-size="14.00" fill="#000000"> &#160;Bootstrap</text>
<polygon fill="#fdb462" stroke="transparent" points="396,-10 396,-30 416,-30 416,-10 396,-10"/>
<text text-anchor="start" x="419.6732" y="-15.4" font-family="sans-serif" font-size="14.00" fill="#000000"> &#160;Providers</text>
<polygon fill="#fb8072" stroke="transparent" points="492,-10 492,-30 512,-30 512,-10 492,-10"/>
<text text-anchor="start" x="515.7258" y="-15.4" font-family="sans-serif" font-size="14.00" fill="#000000"> &#160;Exports</text>
<g id="clust1" class="cluster">
<title>cluster_TilesModule</title>
<polygon fill="none" stroke="#000000" stroke-dasharray="1,5" points="8,-70 8,-379.5901 660,-379.5901 660,-70 8,-70"/>
</g>
<g id="clust2" class="cluster">
<title>cluster_TilesModule_declarations</title>
<polygon fill="none" stroke="#000000" points="149,-189.5901 149,-241.5901 652,-241.5901 652,-189.5901 149,-189.5901"/>
</g>
<g id="clust7" class="cluster">
<title>cluster_TilesModule_TileGroup_providers</title>
<polygon fill="none" stroke="#000000" points="16,-78 16,-176.5901 652,-176.5901 652,-78 16,-78"/>
</g>
<g id="clust8" class="cluster">
<title>cluster_TilesModule_imports</title>
<polygon fill="none" stroke="#000000" points="39,-189.5901 39,-241.5901 141,-241.5901 141,-189.5901 39,-189.5901"/>
</g>
<g id="clust9" class="cluster">
<title>cluster_TilesModule_exports</title>
<polygon fill="none" stroke="#000000" points="93,-319.5901 93,-371.5901 611,-371.5901 611,-319.5901 93,-319.5901"/>
</g>
<!-- ClickableTile -->
<g id="node1" class="node">
<title>ClickableTile</title>
<polygon fill="#ffffb3" stroke="#000000" points="644.2008,-233.5901 551.7992,-233.5901 551.7992,-197.5901 644.2008,-197.5901 644.2008,-233.5901"/>
<text text-anchor="middle" x="598" y="-211.3901" font-family="Times,serif" font-size="14.00" fill="#000000">ClickableTile</text>
</g>
<!-- TilesModule -->
<g id="node6" class="node">
<title>TilesModule</title>
<polygon fill="#8dd3c7" stroke="#000000" points="359.544,-298.5901 356.544,-302.5901 335.544,-302.5901 332.544,-298.5901 272.456,-298.5901 272.456,-262.5901 359.544,-262.5901 359.544,-298.5901"/>
<text text-anchor="middle" x="316" y="-276.3901" font-family="Times,serif" font-size="14.00" fill="#000000">TilesModule</text>
</g>
<!-- ClickableTile&#45;&gt;TilesModule -->
<g id="edge1" class="edge">
<title>ClickableTile&#45;&gt;TilesModule</title>
<path fill="none" stroke="#000000" d="M577.375,-233.8568C577.375,-252.1452 577.375,-277.5901 577.375,-277.5901 577.375,-277.5901 369.7483,-277.5901 369.7483,-277.5901"/>
<polygon fill="#000000" stroke="#000000" points="369.7483,-274.0902 359.7483,-277.5901 369.7483,-281.0902 369.7483,-274.0902"/>
</g>
<!-- ExpandableTile -->
<g id="node2" class="node">
<title>ExpandableTile</title>
<polygon fill="#ffffb3" stroke="#000000" points="534.136,-233.5901 429.864,-233.5901 429.864,-197.5901 534.136,-197.5901 534.136,-233.5901"/>
<text text-anchor="middle" x="482" y="-211.3901" font-family="Times,serif" font-size="14.00" fill="#000000">ExpandableTile</text>
</g>
<!-- ExpandableTile&#45;&gt;TilesModule -->
<g id="edge2" class="edge">
<title>ExpandableTile&#45;&gt;TilesModule</title>
<path fill="none" stroke="#000000" d="M459.375,-233.5991C459.375,-249.6394 459.375,-270.5901 459.375,-270.5901 459.375,-270.5901 369.7963,-270.5901 369.7963,-270.5901"/>
<polygon fill="#000000" stroke="#000000" points="369.7963,-267.0902 359.7963,-270.5901 369.7962,-274.0902 369.7963,-267.0902"/>
</g>
<!-- SelectionTile -->
<g id="node3" class="node">
<title>SelectionTile</title>
<polygon fill="#ffffb3" stroke="#000000" points="411.1473,-233.5901 320.8527,-233.5901 320.8527,-197.5901 411.1473,-197.5901 411.1473,-233.5901"/>
<text text-anchor="middle" x="366" y="-211.3901" font-family="Times,serif" font-size="14.00" fill="#000000">SelectionTile</text>
</g>
<!-- SelectionTile&#45;&gt;TilesModule -->
<g id="edge3" class="edge">
<title>SelectionTile&#45;&gt;TilesModule</title>
<path fill="none" stroke="#000000" d="M340.2241,-233.6962C340.2241,-233.6962 340.2241,-252.581 340.2241,-252.581"/>
<polygon fill="#000000" stroke="#000000" points="336.7241,-252.581 340.2241,-262.581 343.7241,-252.5811 336.7241,-252.581"/>
</g>
<!-- Tile -->
<g id="node4" class="node">
<title>Tile</title>
<polygon fill="#ffffb3" stroke="#000000" points="303,-233.5901 249,-233.5901 249,-197.5901 303,-197.5901 303,-233.5901"/>
<text text-anchor="middle" x="276" y="-211.3901" font-family="Times,serif" font-size="14.00" fill="#000000">Tile</text>
</g>
<!-- Tile&#45;&gt;TilesModule -->
<g id="edge4" class="edge">
<title>Tile&#45;&gt;TilesModule</title>
<path fill="none" stroke="#000000" d="M287.6143,-233.6962C287.6143,-233.6962 287.6143,-252.581 287.6143,-252.581"/>
<polygon fill="#000000" stroke="#000000" points="284.1144,-252.581 287.6143,-262.581 291.1144,-252.5811 284.1144,-252.581"/>
</g>
<!-- TileGroup -->
<g id="node5" class="node">
<title>TileGroup</title>
<polygon fill="#ffffb3" stroke="#000000" points="231.3163,-233.5901 156.6837,-233.5901 156.6837,-197.5901 231.3163,-197.5901 231.3163,-233.5901"/>
<text text-anchor="middle" x="194" y="-211.3901" font-family="Times,serif" font-size="14.00" fill="#000000">TileGroup</text>
</g>
<!-- TileGroup&#45;&gt;TilesModule -->
<g id="edge5" class="edge">
<title>TileGroup&#45;&gt;TilesModule</title>
<path fill="none" stroke="#000000" d="M214.0789,-233.5991C214.0789,-249.6394 214.0789,-270.5901 214.0789,-270.5901 214.0789,-270.5901 262.1848,-270.5901 262.1848,-270.5901"/>
<polygon fill="#000000" stroke="#000000" points="262.1848,-274.0902 272.1848,-270.5901 262.1847,-267.0902 262.1848,-274.0902"/>
</g>
<!-- ClickableTile  -->
<g id="node9" class="node">
<title>ClickableTile </title>
<polygon fill="#fb8072" stroke="#000000" points="602.7011,-363.5901 507.2989,-363.5901 507.2989,-327.5901 602.7011,-327.5901 602.7011,-363.5901"/>
<text text-anchor="middle" x="555" y="-341.3901" font-family="Times,serif" font-size="14.00" fill="#000000">ClickableTile </text>
</g>
<!-- TilesModule&#45;&gt;ClickableTile  -->
<g id="edge8" class="edge">
<title>TilesModule&#45;&gt;ClickableTile </title>
<path fill="none" stroke="#000000" stroke-dasharray="5,2" d="M359.6694,-284.5901C419.7974,-284.5901 520.7337,-284.5901 520.7337,-284.5901 520.7337,-284.5901 520.7337,-317.2881 520.7337,-317.2881"/>
<polygon fill="#000000" stroke="#000000" points="517.2338,-317.288 520.7337,-327.2881 524.2338,-317.2881 517.2338,-317.288"/>
</g>
<!-- ExpandableTile  -->
<g id="node10" class="node">
<title>ExpandableTile </title>
<polygon fill="#fb8072" stroke="#000000" points="489.1355,-363.5901 380.8645,-363.5901 380.8645,-327.5901 489.1355,-327.5901 489.1355,-363.5901"/>
<text text-anchor="middle" x="435" y="-341.3901" font-family="Times,serif" font-size="14.00" fill="#000000">ExpandableTile </text>
</g>
<!-- TilesModule&#45;&gt;ExpandableTile  -->
<g id="edge9" class="edge">
<title>TilesModule&#45;&gt;ExpandableTile </title>
<path fill="none" stroke="#000000" stroke-dasharray="5,2" d="M359.815,-291.5901C378.5216,-291.5901 396.1278,-291.5901 396.1278,-291.5901 396.1278,-291.5901 396.1278,-317.3081 396.1278,-317.3081"/>
<polygon fill="#000000" stroke="#000000" points="392.6279,-317.3081 396.1278,-327.3081 399.6279,-317.3082 392.6279,-317.3081"/>
</g>
<!-- SelectionTile  -->
<g id="node11" class="node">
<title>SelectionTile </title>
<polygon fill="#fb8072" stroke="#000000" points="363.1467,-363.5901 268.8533,-363.5901 268.8533,-327.5901 363.1467,-327.5901 363.1467,-363.5901"/>
<text text-anchor="middle" x="316" y="-341.3901" font-family="Times,serif" font-size="14.00" fill="#000000">SelectionTile </text>
</g>
<!-- TilesModule&#45;&gt;SelectionTile  -->
<g id="edge10" class="edge">
<title>TilesModule&#45;&gt;SelectionTile </title>
<path fill="none" stroke="#000000" stroke-dasharray="5,2" d="M316,-298.6962C316,-298.6962 316,-317.581 316,-317.581"/>
<polygon fill="#000000" stroke="#000000" points="312.5001,-317.581 316,-327.581 319.5001,-317.5811 312.5001,-317.581"/>
</g>
<!-- Tile  -->
<g id="node12" class="node">
<title>Tile </title>
<polygon fill="#fb8072" stroke="#000000" points="251,-363.5901 197,-363.5901 197,-327.5901 251,-327.5901 251,-363.5901"/>
<text text-anchor="middle" x="224" y="-341.3901" font-family="Times,serif" font-size="14.00" fill="#000000">Tile </text>
</g>
<!-- TilesModule&#45;&gt;Tile  -->
<g id="edge11" class="edge">
<title>TilesModule&#45;&gt;Tile </title>
<path fill="none" stroke="#000000" stroke-dasharray="5,2" d="M272.2763,-291.5901C255.3996,-291.5901 240.0789,-291.5901 240.0789,-291.5901 240.0789,-291.5901 240.0789,-317.3081 240.0789,-317.3081"/>
<polygon fill="#000000" stroke="#000000" points="236.579,-317.3081 240.0789,-327.3081 243.579,-317.3082 236.579,-317.3081"/>
</g>
<!-- TileGroup  -->
<g id="node13" class="node">
<title>TileGroup </title>
<polygon fill="#fb8072" stroke="#000000" points="178.8158,-363.5901 101.1842,-363.5901 101.1842,-327.5901 178.8158,-327.5901 178.8158,-363.5901"/>
<text text-anchor="middle" x="140" y="-341.3901" font-family="Times,serif" font-size="14.00" fill="#000000">TileGroup </text>
</g>
<!-- TilesModule&#45;&gt;TileGroup  -->
<g id="edge12" class="edge">
<title>TilesModule&#45;&gt;TileGroup </title>
<path fill="none" stroke="#000000" stroke-dasharray="5,2" d="M272.3588,-284.5901C228.6656,-284.5901 167.875,-284.5901 167.875,-284.5901 167.875,-284.5901 167.875,-317.2881 167.875,-317.2881"/>
<polygon fill="#000000" stroke="#000000" points="164.3751,-317.288 167.875,-327.2881 171.3751,-317.2881 164.3751,-317.288"/>
</g>
<!-- {
 &#160;&#160;&#160;provide: NG_VALUE_ACCESSOR, useExisting: TileGroup, multi: true
} -->
<g id="node7" class="node">
<title>{
 &#160;&#160;&#160;provide: NG_VALUE_ACCESSOR, useExisting: TileGroup, multi: true
}</title>
<ellipse fill="#fdb462" stroke="#000000" cx="334" cy="-127.295" rx="309.7681" ry="41.0911"/>
<text text-anchor="middle" x="334" y="-139.895" font-family="Times,serif" font-size="14.00" fill="#000000">{</text>
<text text-anchor="middle" x="334" y="-123.095" font-family="Times,serif" font-size="14.00" fill="#000000"> &#160;&#160;&#160;provide: NG_VALUE_ACCESSOR, useExisting: TileGroup, multi: true</text>
<text text-anchor="middle" x="334" y="-106.295" font-family="Times,serif" font-size="14.00" fill="#000000">}</text>
</g>
<!-- {
 &#160;&#160;&#160;provide: NG_VALUE_ACCESSOR, useExisting: TileGroup, multi: true
}&#45;&gt;TileGroup -->
<g id="edge6" class="edge">
<title>{
 &#160;&#160;&#160;provide: NG_VALUE_ACCESSOR, useExisting: TileGroup, multi: true
}&#45;&gt;TileGroup</title>
<path fill="none" stroke="#000000" d="M194,-164.2285C194,-164.2285 194,-187.5825 194,-187.5825"/>
<polygon fill="#000000" stroke="#000000" points="190.5001,-187.5825 194,-197.5825 197.5001,-187.5826 190.5001,-187.5825"/>
</g>
<!-- I18nModule -->
<g id="node8" class="node">
<title>I18nModule</title>
<polygon fill="#8dd3c7" stroke="#000000" points="132.7107,-233.5901 129.7107,-237.5901 108.7107,-237.5901 105.7107,-233.5901 47.2893,-233.5901 47.2893,-197.5901 132.7107,-197.5901 132.7107,-233.5901"/>
<text text-anchor="middle" x="90" y="-211.3901" font-family="Times,serif" font-size="14.00" fill="#000000">I18nModule</text>
</g>
<!-- I18nModule&#45;&gt;TilesModule -->
<g id="edge7" class="edge">
<title>I18nModule&#45;&gt;TilesModule</title>
<path fill="none" stroke="#000000" d="M116.8487,-233.8568C116.8487,-252.1452 116.8487,-277.5901 116.8487,-277.5901 116.8487,-277.5901 262.2954,-277.5901 262.2954,-277.5901"/>
<polygon fill="#000000" stroke="#000000" points="262.2954,-281.0902 272.2954,-277.5901 262.2954,-274.0902 262.2954,-281.0902"/>
</g>
</g>
</svg>
