<?xml version="1.0" encoding="UTF-8" standalone="no"?>
<!DOCTYPE svg PUBLIC "-//W3C//DTD SVG 1.1//EN"
 "http://www.w3.org/Graphics/SVG/1.1/DTD/svg11.dtd">
<!-- Generated by graphviz version 2.40.1 (20161225.0304)
 -->
<!-- Title: dependencies Pages: 1 -->
<svg width="504pt" height="396pt"
 viewBox="0.00 0.00 504.00 395.59" xmlns="http://www.w3.org/2000/svg" xmlns:xlink="http://www.w3.org/1999/xlink">
<g id="graph0" class="graph" transform="scale(1 1) rotate(0) translate(4 391.5901)">
<title>dependencies</title>
<polygon fill="#ffffff" stroke="transparent" points="-4,4 -4,-391.5901 500,-391.5901 500,4 -4,4"/>
<text text-anchor="start" x="227.0091" y="-42.4" font-family="sans-serif" font-weight="bold" font-size="14.00" fill="#000000">Legend</text>
<polygon fill="#ffffb3" stroke="transparent" points="14,-10 14,-30 34,-30 34,-10 14,-10"/>
<text text-anchor="start" x="37.629" y="-15.4" font-family="sans-serif" font-size="14.00" fill="#000000"> &#160;Declarations</text>
<polygon fill="#8dd3c7" stroke="transparent" points="127,-10 127,-30 147,-30 147,-10 127,-10"/>
<text text-anchor="start" x="150.7251" y="-15.4" font-family="sans-serif" font-size="14.00" fill="#000000"> &#160;Module</text>
<polygon fill="#80b1d3" stroke="transparent" points="213,-10 213,-30 233,-30 233,-10 213,-10"/>
<text text-anchor="start" x="236.7812" y="-15.4" font-family="sans-serif" font-size="14.00" fill="#000000"> &#160;Bootstrap</text>
<polygon fill="#fdb462" stroke="transparent" points="310,-10 310,-30 330,-30 330,-10 310,-10"/>
<text text-anchor="start" x="333.6732" y="-15.4" font-family="sans-serif" font-size="14.00" fill="#000000"> &#160;Providers</text>
<polygon fill="#fb8072" stroke="transparent" points="406,-10 406,-30 426,-30 426,-10 406,-10"/>
<text text-anchor="start" x="429.7258" y="-15.4" font-family="sans-serif" font-size="14.00" fill="#000000"> &#160;Exports</text>
<g id="clust1" class="cluster">
<title>cluster_RadioModule</title>
<polygon fill="none" stroke="#000000" stroke-dasharray="1,5" points="152,-70 152,-379.5901 344,-379.5901 344,-70 152,-70"/>
</g>
<g id="clust2" class="cluster">
<title>cluster_RadioModule_declarations</title>
<polygon fill="none" stroke="#000000" points="161,-189.5901 161,-241.5901 335,-241.5901 335,-189.5901 161,-189.5901"/>
</g>
<g id="clust3" class="cluster">
<title>cluster_RadioModule_Radio_providers</title>
<polygon fill="none" stroke="#000000" points="178,-78 178,-176.5901 318,-176.5901 318,-78 178,-78"/>
</g>
<g id="clust6" class="cluster">
<title>cluster_RadioModule_exports</title>
<polygon fill="none" stroke="#000000" points="160,-319.5901 160,-371.5901 336,-371.5901 336,-319.5901 160,-319.5901"/>
</g>
<!-- Radio -->
<g id="node1" class="node">
<title>Radio</title>
<polygon fill="#ffffb3" stroke="#000000" points="327,-233.5901 273,-233.5901 273,-197.5901 327,-197.5901 327,-233.5901"/>
<text text-anchor="middle" x="300" y="-211.3901" font-family="Times,serif" font-size="14.00" fill="#000000">Radio</text>
</g>
<!-- RadioModule -->
<g id="node3" class="node">
<title>RadioModule</title>
<polygon fill="#8dd3c7" stroke="#000000" points="258.4916,-298.5901 255.4916,-302.5901 234.4916,-302.5901 231.4916,-298.5901 165.5084,-298.5901 165.5084,-262.5901 258.4916,-262.5901 258.4916,-298.5901"/>
<text text-anchor="middle" x="212" y="-276.3901" font-family="Times,serif" font-size="14.00" fill="#000000">RadioModule</text>
</g>
<!-- Radio&#45;&gt;RadioModule -->
<g id="edge1" class="edge">
<title>Radio&#45;&gt;RadioModule</title>
<path fill="none" stroke="#000000" d="M309.3333,-233.6126C309.3333,-250.9634 309.3333,-274.5901 309.3333,-274.5901 309.3333,-274.5901 268.6711,-274.5901 268.6711,-274.5901"/>
<polygon fill="#000000" stroke="#000000" points="268.6711,-271.0902 258.6711,-274.5901 268.671,-278.0902 268.6711,-271.0902"/>
</g>
<!-- RadioGroup -->
<g id="node2" class="node">
<title>RadioGroup</title>
<polygon fill="#ffffb3" stroke="#000000" points="254.7093,-233.5901 169.2907,-233.5901 169.2907,-197.5901 254.7093,-197.5901 254.7093,-233.5901"/>
<text text-anchor="middle" x="212" y="-211.3901" font-family="Times,serif" font-size="14.00" fill="#000000">RadioGroup</text>
</g>
<!-- RadioGroup&#45;&gt;RadioModule -->
<g id="edge3" class="edge">
<title>RadioGroup&#45;&gt;RadioModule</title>
<path fill="none" stroke="#000000" d="M212,-233.6962C212,-233.6962 212,-252.581 212,-252.581"/>
<polygon fill="#000000" stroke="#000000" points="208.5001,-252.581 212,-262.581 215.5001,-252.5811 208.5001,-252.581"/>
</g>
<!-- Radio  -->
<g id="node5" class="node">
<title>Radio </title>
<polygon fill="#fb8072" stroke="#000000" points="328,-363.5901 274,-363.5901 274,-327.5901 328,-327.5901 328,-363.5901"/>
<text text-anchor="middle" x="301" y="-341.3901" font-family="Times,serif" font-size="14.00" fill="#000000">Radio </text>
</g>
<!-- RadioModule&#45;&gt;Radio  -->
<g id="edge5" class="edge">
<title>RadioModule&#45;&gt;Radio </title>
<path fill="none" stroke="#000000" stroke-dasharray="5,2" d="M258.8032,-286.5901C276.1445,-286.5901 291.6667,-286.5901 291.6667,-286.5901 291.6667,-286.5901 291.6667,-317.5675 291.6667,-317.5675"/>
<polygon fill="#000000" stroke="#000000" points="288.1668,-317.5675 291.6667,-327.5675 295.1668,-317.5676 288.1668,-317.5675"/>
</g>
<!-- RadioGroup  -->
<g id="node6" class="node">
<title>RadioGroup </title>
<polygon fill="#fb8072" stroke="#000000" points="256.2095,-363.5901 167.7905,-363.5901 167.7905,-327.5901 256.2095,-327.5901 256.2095,-363.5901"/>
<text text-anchor="middle" x="212" y="-341.3901" font-family="Times,serif" font-size="14.00" fill="#000000">RadioGroup </text>
</g>
<!-- RadioModule&#45;&gt;RadioGroup  -->
<g id="edge6" class="edge">
<title>RadioModule&#45;&gt;RadioGroup </title>
<path fill="none" stroke="#000000" stroke-dasharray="5,2" d="M212,-298.6962C212,-298.6962 212,-317.581 212,-317.581"/>
<polygon fill="#000000" stroke="#000000" points="208.5001,-317.581 212,-327.581 215.5001,-317.5811 208.5001,-317.581"/>
</g>
<!-- {
 &#160;&#160;&#160;: , : , : true
} -->
<g id="node4" class="node">
<title>{
 &#160;&#160;&#160;: , : , : true
}</title>
<ellipse fill="#fdb462" stroke="#000000" cx="248" cy="-127.295" rx="62.3631" ry="41.0911"/>
<text text-anchor="middle" x="248" y="-139.895" font-family="Times,serif" font-size="14.00" fill="#000000">{</text>
<text text-anchor="middle" x="248" y="-123.095" font-family="Times,serif" font-size="14.00" fill="#000000"> &#160;&#160;&#160;: , : , : true</text>
<text text-anchor="middle" x="248" y="-106.295" font-family="Times,serif" font-size="14.00" fill="#000000">}</text>
</g>
<!-- {
 &#160;&#160;&#160;: , : , : true
}&#45;&gt;Radio -->
<g id="edge2" class="edge">
<title>{
 &#160;&#160;&#160;: , : , : true
}&#45;&gt;Radio</title>
<path fill="none" stroke="#000000" d="M291.5906,-157.1877C291.5906,-157.1877 291.5906,-187.5759 291.5906,-187.5759"/>
<polygon fill="#000000" stroke="#000000" points="288.0907,-187.5758 291.5906,-197.5759 295.0907,-187.5759 288.0907,-187.5758"/>
</g>
<!-- {
 &#160;&#160;&#160;: , : , : true
}&#45;&gt;RadioGroup -->
<g id="edge4" class="edge">
<title>{
 &#160;&#160;&#160;: , : , : true
}&#45;&gt;RadioGroup</title>
<path fill="none" stroke="#000000" d="M220.2116,-164.4842C220.2116,-164.4842 220.2116,-187.2216 220.2116,-187.2216"/>
<polygon fill="#000000" stroke="#000000" points="216.7117,-187.2215 220.2116,-197.2216 223.7117,-187.2216 216.7117,-187.2215"/>
</g>
</g>
</svg>
