<?xml version="1.0" encoding="UTF-8"?>
<svg height="100%" width="100%" xmlns="http://www.w3.org/2000/svg">
	<defs>
		<font horiz-adv-x="534" id="web">
			<font-face alphabetic="0" ascent="987" descent="-223" font-family="" panose-1="2 11 6 4 2 2 2 2 2 4"/>
			<missing-glyph d="M-4 718H508V0H-4ZM46 667V50H458V667ZM255 609Q309 609 344 573T379 478Q379 446 367 421T315 357Q281 326 274 311Q267 294 267 234H221L219 253Q219 304 232 332T282 395Q328 436 328 474Q328 508 304 533T252 559Q182 559 170 464L120 472Q134 609 255 609ZM218 184H274V117H218Z" horiz-adv-x="504"/>
			<glyph d="" horiz-adv-x="238" unicode=" "/>
			<glyph d="M76 714H171V494L146 183H101L76 494ZM68 111H179V0H68Z" horiz-adv-x="247" unicode="!"/>
			<glyph d="M82 714H150V456H82ZM222 714H290V456H222Z" horiz-adv-x="372" unicode="&quot;"/>
			<glyph d="M197 697H265L236 492H360L390 697H458L429 492H518V424H420L399 274H490V206H389L360 0H291L320 206H196L167 0H98L127 206H30V274H137L158 424H56V492H167ZM227 424L206 274H330L351 424Z" horiz-adv-x="546" unicode="#"/>
			<glyph d="M240 797H295V730Q448 713 492 532H407Q386 631 295 648V402L358 385Q429 364 471 316T514 200Q514 108 455 50T296 -17V-99H240V-17Q137 -6 80 54T14 218H99Q102 153 138 113T240 63V328Q123 356 79 397T35 521Q35 604 90 662T240 731ZM240 651Q187 646 156 614T125 530Q125 485 150 459T240 417ZM295 314V63Q424 73 424 191Q424 235 398 262T295 314Z" horiz-adv-x="529" unicode="$"/>
			<glyph d="M701 722H786L249 -22H163ZM229 709Q389 709 389 509Q389 417 347 362T229 308Q149 308 108 359T67 506Q67 603 108 656T229 709ZM228 654Q142 654 142 507Q142 363 226 363Q314 363 314 509Q314 654 228 654ZM723 389Q883 389 883 189Q883 96 839 42T723 -12Q645 -12 603 38T561 186Q561 283 602 336T723 389ZM723 334Q636 334 636 188Q636 43 720 43Q808 43 808 189Q808 334 723 334Z" horiz-adv-x="946" unicode="%"/>
			<glyph d="M281 714Q357 714 405 673T454 568Q454 459 320 383L449 226Q468 282 472 337H553Q548 283 539 250T505 161L644 0H533L457 88Q426 41 371 14T254 -12Q143 -12 87 44T32 184Q32 251 71 301T199 399L166 444Q120 506 120 567Q120 632 166 673T281 714ZM287 639Q255 639 230 618T205 563Q205 539 219 513T274 439Q329 474 349 502T369 563Q369 594 346 616T287 639ZM246 345Q176 306 149 271T122 185Q122 136 161 99T258 63Q354 63 410 148Z" horiz-adv-x="631" unicode="&amp;"/>
			<glyph d="M97 714H165V456H97Z" horiz-adv-x="259" unicode="'"/>
			<glyph d="M204 731H269Q137 525 137 270Q137 141 167 29T269 -198H204Q121 -68 84 43T47 270Q47 388 87 508T204 731Z" horiz-adv-x="263" unicode="("/>
			<glyph d="M-7 731H58Q140 604 177 493T215 263Q215 142 174 23T58 -198H-7Q60 -92 92 19T125 263Q125 518 -7 731Z" horiz-adv-x="263" unicode=")"/>
			<glyph d="M145 714H198V601L305 641L325 593L216 555L282 464L241 433L172 529L107 433L62 464L127 555L21 593L39 641L145 601Z" horiz-adv-x="347" unicode="*"/>
			<glyph d="M262 506H330V287H548V219H330V0H262V219H44V287H262Z" horiz-adv-x="592" unicode="+"/>
			<glyph d="M50 111H161V4Q161 -52 134 -90T51 -147V-97Q78 -88 93 -63T109 -5V0H50Z" horiz-adv-x="211" unicode=","/>
			<glyph d="M53 318H342V238H53Z" horiz-adv-x="396" unicode="-"/>
			<glyph d="M50 111H161V0H50Z" horiz-adv-x="211" unicode="."/>
			<glyph d="M280 731H353L57 -17H-16Z" horiz-adv-x="338" unicode="/"/>
			<glyph d="M278 709Q394 709 454 632T514 348Q514 141 454 64T278 -12Q159 -12 100 68T42 348Q42 551 101 630T278 709ZM277 634Q210 634 171 577T132 349Q132 188 167 125T278 63Q356 63 390 128T424 346Q424 458 409 516T360 604T277 634Z" horiz-adv-x="556" unicode="0"/>
			<glyph d="M249 709H314V0H229V508H45V576H48Q138 576 187 608T249 709Z" horiz-adv-x="396" unicode="1"/>
			<glyph d="M278 709Q379 709 439 652T500 505Q500 432 459 373T285 237Q209 193 173 157T129 75H493V0H30Q37 92 75 156T219 284Q323 346 366 391T410 505Q410 559 371 596T273 634Q210 634 172 587T135 465V458H50L49 476Q49 581 110 645T278 709Z" horiz-adv-x="531" unicode="2"/>
			<glyph d="M275 709Q377 709 433 658T490 520Q490 476 465 439T392 378V376Q455 362 487 317T520 204Q520 108 453 48T277 -12Q168 -12 104 48T40 216V219H126Q129 144 169 103T277 63Q323 63 358 82T411 132T430 200Q430 263 389 299T276 336Q254 334 228 333V405Q242 404 260 404Q323 404 361 436T401 520Q401 572 368 602T275 634Q212 634 177 593T140 480H55Q61 592 118 650T275 709Z" horiz-adv-x="557" unicode="3"/>
			<glyph d="M348 709H416V241H512V166H416V0H336V166H25V248ZM334 588L98 241H336V588Z" horiz-adv-x="538" unicode="4"/>
			<glyph d="M115 697H465V622H179L141 418L143 416Q189 467 275 467Q381 467 442 401T504 225Q504 121 435 54T256 -12Q157 -12 94 45T30 190V191H115Q119 135 160 99T264 63Q332 63 373 109T414 231Q414 300 369 346T254 392Q179 392 122 325L49 329Z" horiz-adv-x="539" unicode="5"/>
			<glyph d="M307 709Q395 709 447 662T507 528H422Q415 579 383 606T303 634Q137 634 131 365L133 363Q191 456 310 456Q407 456 467 391T527 227Q527 122 464 55T290 -12Q46 -12 46 330Q46 514 112 611T307 709ZM293 381Q228 381 187 336T147 221Q147 151 187 107T294 63Q355 63 396 107T437 220Q437 294 398 337T293 381Z" horiz-adv-x="563" unicode="6"/>
			<glyph d="M1 697H460V624Q353 517 276 346T188 0H93Q105 166 175 323T373 617H1Z" horiz-adv-x="461" unicode="7"/>
			<glyph d="M273 709Q374 709 431 659T488 528Q488 482 463 443T390 381Q516 341 516 204Q516 106 449 47T281 -12Q172 -12 106 46T40 204Q40 267 72 314T164 381Q117 401 91 440T65 528Q65 606 123 657T273 709ZM278 634Q224 634 189 603T155 525Q155 474 188 442T281 411Q335 411 366 442T398 525Q398 577 366 605T278 634ZM279 336Q217 336 173 298T130 200Q130 137 172 100T281 63Q344 63 385 102T426 201Q426 255 383 295T279 336Z" horiz-adv-x="556" unicode="8"/>
			<glyph d="M268 709Q392 709 451 625T511 370Q511 173 449 80T265 -12Q173 -12 116 34T50 171H135Q142 119 177 91T265 63Q343 63 381 130T425 337L423 339Q398 293 355 267T258 241Q153 241 94 306T35 478Q35 579 100 644T268 709ZM263 634Q198 634 161 588T125 466Q125 406 166 361T265 316Q325 316 367 360T410 472Q410 545 369 589T263 634Z" horiz-adv-x="558" unicode="9"/>
			<glyph d="M80 517H191V406H80ZM80 111H191V0H80Z" horiz-adv-x="271" unicode=":"/>
			<glyph d="M77 517H188V406H77ZM77 111H188V-1Q188 -48 161 -89T78 -147V-97Q104 -88 120 -63T136 -5V0H77Z" horiz-adv-x="269" unicode=";"/>
			<glyph d="M550 514V446L125 253L550 60V-8L42 222V284Z" horiz-adv-x="592" unicode="&lt;"/>
			<glyph d="M45 388H549V320H45ZM45 186H549V118H45Z" horiz-adv-x="593" unicode="="/>
			<glyph d="M42 514L550 284V222L42 -8V60L467 253L42 446Z" horiz-adv-x="592" unicode="&gt;"/>
			<glyph d="M266 731Q364 731 420 676T477 531Q477 481 456 441T384 354Q338 311 321 279T304 204V174H219V217Q219 267 239 304T307 386Q357 431 372 462T387 527Q387 585 355 620T266 656Q200 656 164 612T128 491H42V502Q42 600 103 665T266 731ZM205 111H316V0H205Z" horiz-adv-x="520" unicode="?"/>
			<glyph d="M410 731Q555 731 652 641T750 423Q750 350 715 283T624 175T516 133Q488 133 471 150T452 198H449Q390 131 325 131Q262 131 222 177T182 290Q182 403 250 488T417 573Q497 573 529 491L552 554H615L532 272Q520 230 520 219Q520 188 544 188Q591 188 636 264T682 418Q682 531 601 603T411 676Q284 676 195 579T107 355Q107 223 198 131T416 38Q486 38 554 71T664 159H727Q678 75 592 29T414 -17Q311 -17 224 33T88 171T39 360Q39 510 146 620T410 731ZM416 505Q352 505 304 436T257 296Q257 256 280 227T343 199Q402 199 450 269T498 412Q498 449 472 477T416 505Z" horiz-adv-x="790" unicode="@"/>
			<glyph d="M274 714H379L658 0H553L475 215H173L93 0H-5ZM324 628L203 295H445L326 628Z" horiz-adv-x="652" unicode="A"/>
			<glyph d="M68 714H373Q505 714 552 660T600 539Q600 482 572 440T494 379V377Q560 363 595 317T630 205Q630 117 568 58T417 0H68ZM163 634V407H358Q430 407 467 433T505 521Q505 577 473 605T359 634ZM163 327V80H405Q463 80 499 114T535 208Q535 327 376 327Z" horiz-adv-x="665" unicode="B"/>
			<glyph d="M373 731Q492 731 571 668T667 499H572Q556 573 503 612T372 651Q264 651 197 573T130 362Q130 222 195 142T373 63Q463 63 518 120T579 269H674Q659 130 578 56T365 -17Q213 -17 124 83T35 355Q35 522 126 626T373 731Z" horiz-adv-x="703" unicode="C"/>
			<glyph d="M68 714H319Q481 714 568 628T656 374Q656 0 319 0H68ZM163 634V80H324Q437 80 499 153T561 361Q561 503 502 568T328 634Z" horiz-adv-x="692" unicode="D"/>
			<glyph d="M68 714H561V634H163V407H534V327H163V80H564V0H68Z" horiz-adv-x="604" unicode="E"/>
			<glyph d="M68 714H537V634H163V407H491V327H163V0H68Z" horiz-adv-x="562" unicode="F"/>
			<glyph d="M375 731Q502 731 583 670T682 494H587Q573 570 518 610T375 651Q264 651 197 569T130 348Q130 227 197 145T375 63Q474 63 539 124T604 285V296H376V376H689V0H629L604 89Q565 38 505 10T375 -17Q229 -17 132 87T35 343Q35 513 125 622T375 731Z" horiz-adv-x="752" unicode="G"/>
			<glyph d="M68 714H163V407H539V714H634V0H539V327H163V0H68Z" horiz-adv-x="702" unicode="H"/>
			<glyph d="M71 714H166V0H71Z" horiz-adv-x="238" unicode="I"/>
			<glyph d="M343 714H438V175Q438 84 382 33T227 -17Q130 -17 75 34T19 210V235H114V211Q114 130 140 96T229 63Q343 63 343 188Z" horiz-adv-x="506" unicode="J"/>
			<glyph d="M68 714H163V358L525 714H648L347 426L660 0H540L282 361L163 250V0H68Z" horiz-adv-x="657" unicode="K"/>
			<glyph d="M68 714H163V80H541V0H68Z" horiz-adv-x="564" unicode="L"/>
			<glyph d="M66 714H196L421 114L647 714H777V0H687V594H685L462 0H381L158 594H156V0H66Z" horiz-adv-x="844" unicode="M"/>
			<glyph d="M68 714H169L545 135H547V714H637V0H533L160 573H158V0H68Z" horiz-adv-x="705" unicode="N"/>
			<glyph d="M375 731Q530 731 623 625T717 357Q717 191 622 87T375 -17Q221 -17 127 88T33 357Q33 517 125 624T375 731ZM374 651Q260 651 194 568T128 357Q128 226 195 144T375 63Q487 63 554 143T622 357Q622 486 556 568T374 651Z" horiz-adv-x="750" unicode="O"/>
			<glyph d="M68 714H386Q483 714 541 661T600 503Q600 402 544 347T392 292H163V0H68ZM163 634V372H359Q427 372 466 404T505 503Q505 634 353 634Z" horiz-adv-x="632" unicode="P"/>
			<glyph d="M374 731Q528 731 622 628T716 357Q716 179 608 73L702 -2L654 -62L545 26Q474 -17 374 -17Q220 -17 126 88T32 357Q32 517 124 624T374 731ZM373 651Q259 651 193 568T127 357Q127 226 194 144T374 63Q425 63 473 83L394 146L444 204L539 128Q621 210 621 357Q621 486 555 568T373 651Z" horiz-adv-x="749" unicode="Q"/>
			<glyph d="M68 714H408Q505 714 563 663T621 527Q621 381 497 346V344Q553 334 577 293T606 157Q608 94 617 59T646 0H540Q531 12 528 23T523 55L519 133Q517 202 492 253T398 305H163V0H68ZM163 634V385H366Q526 385 526 512Q526 570 494 602T403 634Z" horiz-adv-x="674" unicode="R"/>
			<glyph d="M309 731Q430 731 501 671T572 505H482Q466 651 305 651Q228 651 186 619T145 529Q145 492 176 464T374 402Q489 379 545 330T602 196Q602 96 520 40T323 -17Q188 -17 108 50T28 235H118Q119 152 176 107T326 63Q413 63 460 96T507 193Q507 245 461 275T306 327Q149 358 99 403T50 522Q50 617 121 674T309 731Z" horiz-adv-x="631" unicode="S"/>
			<glyph d="M23 714H594V634H356V0H261V634H23Z" horiz-adv-x="617" unicode="T"/>
			<glyph d="M62 714H157V254Q157 166 206 114T355 63Q448 63 494 115T541 254V714H636V253Q636 123 563 53T355 -17Q208 -17 135 53T62 253Z" horiz-adv-x="699" unicode="U"/>
			<glyph d="M0 714H103L307 95H309L515 714H614L360 0H252Z" horiz-adv-x="614" unicode="V"/>
			<glyph d="M-1 714H96L236 120H238L398 714H501L659 120H661L806 714H901L710 0H611L448 600H446L281 0H182Z" horiz-adv-x="902" unicode="W"/>
			<glyph d="M6 714H120L298 435L484 714H590L354 367L605 0H489L297 295L99 0H-8L241 367Z" horiz-adv-x="598" unicode="X"/>
			<glyph d="M-5 714H108L322 374L531 714H639L366 292V0H271V292Z" horiz-adv-x="634" unicode="Y"/>
			<glyph d="M58 714H580V634L137 80H592V0H24V80L468 634H58Z" horiz-adv-x="616" unicode="Z"/>
			<glyph d="M69 731H256V663H149V-130H256V-198H69Z" horiz-adv-x="255" unicode="["/>
			<glyph d="M-16 731H57L353 -17H280Z" horiz-adv-x="338" unicode="\"/>
			<glyph d="M-1 731H186V-198H-1V-130H106V663H-1Z" horiz-adv-x="255" unicode="]"/>
			<glyph d="M264 697H328L546 264H476L295 624L117 264H46Z" horiz-adv-x="593" unicode="^"/>
			<glyph d="M-4 -75H496V-125H-4Z" horiz-adv-x="492" unicode="_"/>
			<glyph d="M-41 732H68L154 589H90Z" horiz-adv-x="191" unicode="`"/>
			<glyph d="M268 529Q461 529 461 390V92Q461 63 488 63Q501 63 514 68V2Q489 -12 453 -12Q381 -12 381 68Q313 -12 199 -12Q119 -12 73 25T28 133Q28 202 73 243T282 305Q338 312 357 326T377 369Q377 454 262 454Q199 454 167 430T133 356H48Q58 529 268 529ZM376 267Q353 251 316 246L229 233Q172 225 145 202T118 139Q118 103 144 83T218 63Q287 63 331 97T376 178Z" horiz-adv-x="530" unicode="a"/>
			<glyph d="M54 714H139V447H141Q182 529 306 529Q414 529 479 454T544 257Q544 136 479 62T308 -12Q260 -12 214 7T141 69H139V0H54ZM293 454Q221 454 178 401T136 259Q136 169 178 116T299 63Q373 63 413 115T454 263Q454 348 410 401T293 454Z" horiz-adv-x="577" unicode="b"/>
			<glyph d="M275 529Q369 529 428 484T498 351H410Q388 454 282 454Q203 454 162 401T121 252Q121 167 161 115T272 63Q334 63 370 96T414 189H501Q487 92 428 40T273 -12Q161 -12 96 58T31 252Q31 380 96 454T275 529Z" horiz-adv-x="532" unicode="c"/>
			<glyph d="M436 714H521V0H436V70H434Q414 30 370 9T269 -12Q162 -12 96 63T31 260Q31 382 94 455T266 529Q317 529 363 508T434 448H436ZM275 454Q201 454 161 400T121 254Q121 169 165 116T281 63Q354 63 396 116T439 258Q439 346 396 400T275 454Z" horiz-adv-x="575" unicode="d"/>
			<glyph d="M272 529Q382 529 444 450T506 243V233H119V227Q119 152 162 107T280 63Q391 63 414 164H498Q481 77 423 32T277 -12Q155 -12 92 68T29 262Q29 377 98 453T272 529ZM266 454Q207 454 166 414T119 308H416Q412 371 370 412T266 454Z" horiz-adv-x="538" unicode="e"/>
			<glyph d="M229 722Q261 722 285 714V640Q267 647 237 647Q172 647 172 591V517H272V442H172V0H87V442H0V517H87V598Q87 655 122 688T229 722Z" horiz-adv-x="275" unicode="f"/>
			<glyph d="M268 529Q374 529 423 443H424V517H504V39Q504 -210 265 -210Q168 -210 111 -168T50 -58H135Q137 -95 175 -118T269 -142Q424 -142 424 56V88H422Q402 45 358 19T261 -6Q156 -6 93 66T30 256Q30 378 93 453T268 529ZM272 454Q200 454 160 402T120 266Q120 175 158 122T266 69Q336 69 378 124T420 269Q420 352 381 403T272 454Z" horiz-adv-x="558" unicode="g"/>
			<glyph d="M53 714H138V441H140Q158 483 203 506T303 529Q481 529 481 344V0H396V353Q396 396 369 425T290 454Q218 454 178 410T138 295V0H53Z" unicode="h"/>
			<glyph d="M55 714H140V610H55ZM55 517H140V0H55Z" horiz-adv-x="196" unicode="i"/>
			<glyph d="M53 714H138V610H53ZM53 517H138V-69Q138 -132 107 -164T14 -198Q-12 -198 -30 -194V-121Q-25 -123 -2 -123Q15 -123 27 -119T46 -102T53 -56Z" horiz-adv-x="198" unicode="j"/>
			<glyph d="M59 714H144V291L380 517H494L289 329L509 0H401L224 270L144 196V0H59Z" horiz-adv-x="500" unicode="k"/>
			<glyph d="M56 714H141V0H56Z" horiz-adv-x="197" unicode="l"/>
			<glyph d="M304 529Q417 529 446 441Q472 483 514 506T609 529Q697 529 738 489T780 382V0H695V343Q695 399 671 426T595 454Q535 454 497 418T460 325V0H375V343Q375 399 352 426T278 454Q241 454 211 437T160 385T140 324V0H55V517H135V441H137Q195 529 304 529Z" horiz-adv-x="835" unicode="m"/>
			<glyph d="M303 529Q481 529 481 344V0H396V353Q396 396 369 425T290 454Q217 454 177 410T138 295V0H53V517H133V435H135Q191 529 303 529Z" unicode="n"/>
			<glyph d="M282 529Q398 529 465 455T533 258Q533 140 465 64T282 -12Q168 -12 99 61T31 258Q31 382 98 455T282 529ZM281 454Q212 454 166 399T121 258Q121 171 166 117T282 63Q352 63 397 116T443 258Q443 345 398 399T281 454Z" horiz-adv-x="564" unicode="o"/>
			<glyph d="M306 529Q416 529 480 454T544 257Q544 136 479 62T308 -12Q260 -12 214 7T141 69H139V-198H54V517H139V447H141Q182 529 306 529ZM293 454Q221 454 178 402T136 259Q136 169 178 116T299 63Q373 63 413 115T454 263Q454 348 410 401T293 454Z" horiz-adv-x="575" unicode="p"/>
			<glyph d="M267 529Q318 529 364 508T435 448H437V517H522V-198H437V70H435Q415 30 371 9T270 -12Q163 -12 97 63T32 260Q32 383 96 456T267 529ZM276 454Q202 454 162 400T122 254Q122 169 166 116T282 63Q355 63 397 116T440 258Q440 346 397 400T276 454Z" horiz-adv-x="575" unicode="q"/>
			<glyph d="M313 529H325V439Q229 439 183 388T138 231V0H53V517H133V408H135Q194 529 313 529Z" horiz-adv-x="323" unicode="r"/>
			<glyph d="M231 529Q336 529 386 488T442 367H357V368Q353 410 320 432T237 454Q186 454 156 437T127 388Q127 359 153 341T232 312L312 294Q387 277 426 243T465 151Q465 74 406 31T245 -12Q146 -12 88 31T26 163H111Q113 115 149 89T250 63Q375 63 375 140Q375 174 344 194T214 235Q119 254 78 288T37 382Q37 448 89 488T231 529Z" horiz-adv-x="492" unicode="s"/>
			<glyph d="M91 672H176V517H279V442H176V118Q176 95 185 85T230 75H279V0H209Q143 0 117 22T91 108V442H3V517H91Z" horiz-adv-x="308" unicode="t"/>
			<glyph d="M53 517H138V165Q138 120 166 91T243 63Q318 63 357 107T396 222V517H481V0H401V82H399Q346 -12 231 -12Q53 -12 53 172Z" unicode="u"/>
			<glyph d="M0 517H95L240 86H242L383 517H472L283 0H192Z" horiz-adv-x="480" unicode="v"/>
			<glyph d="M8 517H102L219 94H221L325 517H418L527 94H528L644 517H732L568 1L567 0H477L371 411H370L266 0H174Z" horiz-adv-x="740" unicode="w"/>
			<glyph d="M11 517H120L243 337H244L373 517H475L297 279L497 0H388L244 214L100 0H-3L191 272Z" horiz-adv-x="493" unicode="x"/>
			<glyph d="M0 517H96L247 94H249L394 517H484L264 -55Q229 -148 196 -177T109 -207Q75 -207 50 -198V-120Q86 -132 100 -132Q153 -132 172 -80L205 3Z" horiz-adv-x="492" unicode="y"/>
			<glyph d="M38 517H440V459L124 75H454V0H18V65L330 442H38Z" horiz-adv-x="469" unicode="z"/>
			<glyph d="M234 731H306V671H256Q208 671 208 588V398Q208 353 183 316T121 268V265Q159 257 183 220T208 134V-55Q208 -138 256 -138H306V-198H234Q193 -198 160 -160T128 -70V119Q128 161 106 195T45 232V300Q80 302 104 335T128 415V603Q128 655 160 693T234 731Z" horiz-adv-x="328" unicode="{"/>
			<glyph d="M71 786H139V-214H71Z" horiz-adv-x="209" unicode="|"/>
			<glyph d="M21 731H88Q131 731 165 694T199 603V415Q199 370 221 336T282 300V232Q247 230 223 196T199 118V-70Q199 -122 166 -160T93 -198H21V-138H70Q119 -138 119 -55V134Q119 182 145 218T206 265V268Q168 276 143 311T119 398V586Q119 671 70 671H21Z" horiz-adv-x="328" unicode="}"/>
			<glyph d="M490 319L526 269Q497 224 467 203T401 183Q354 183 294 219Q230 255 184 255Q158 255 139 238T100 179L64 229Q107 314 189 315Q237 315 302 282Q379 243 402 243Q436 243 466 285Z" horiz-adv-x="590" unicode="~"/>
			<glyph d="" horiz-adv-x="278" unicode=" "/>
			<glyph d="M68 517H179V406H68ZM101 333H146L171 22V-198H76V22Z" horiz-adv-x="247" unicode="¡"/>
			<glyph d="M264 624H303V529Q484 523 506 351H419Q398 450 303 454V63Q403 73 424 189H509Q496 99 439 43T303 -12V-116H264V-12Q158 -6 98 65T38 252Q38 371 99 446T264 529ZM264 454Q201 447 164 397T128 252Q128 172 163 120T264 63Z" horiz-adv-x="538" unicode="¢"/>
			<glyph d="M271 731Q386 731 446 666T507 483V473H422Q418 656 276 656Q213 656 173 617T133 524Q133 486 145 453T185 372H344V327H207Q227 288 227 251Q227 197 200 156T111 64L113 62L150 77Q183 91 218 91Q276 91 339 68Q371 58 397 58Q441 58 486 95L529 29Q473 -17 383 -17Q345 -17 283 3Q223 24 179 24Q127 24 79 -11L32 55Q142 130 142 233Q142 270 117 327H32V372H90Q43 450 43 528Q43 615 107 673T271 731Z" horiz-adv-x="530" unicode="£"/>
			<glyph d="M478 605L528 554L473 499Q525 445 525 351Q525 261 473 201L528 145L481 98L425 156Q364 101 277 101Q185 101 125 155L70 97L22 145L77 203Q25 267 25 349Q25 441 79 497L22 555L71 604L127 548Q186 599 278 599Q316 599 355 585T421 549ZM277 524Q209 524 159 473T110 349Q110 275 159 225T277 176Q344 176 392 227T440 351Q440 420 393 472T277 524Z" horiz-adv-x="551" unicode="¤"/>
			<glyph d="M-3 714H106L280 361L449 714H553L375 369H468V309H342L324 276V234H468V174H324V0H229V174H88V234H229V276L211 309H88V369H180Z" horiz-adv-x="548" unicode="¥"/>
			<glyph d="M71 661H139V411H71ZM71 161H139V-89H71Z" horiz-adv-x="210" unicode="¦"/>
			<glyph d="M274 731Q361 731 408 683T458 546H373Q372 596 344 626T272 656Q227 656 202 633T177 570Q177 538 206 508T307 442Q424 385 466 336T509 229Q509 183 481 142T405 82Q464 38 464 -38Q464 -109 411 -153T277 -198Q192 -198 137 -149T76 -9H161Q163 -62 193 -92T275 -123Q317 -123 346 -100T376 -40Q376 -15 360 6T316 48T183 126Q104 168 66 215T28 325Q28 368 57 408T135 463Q112 489 100 513T89 569Q89 638 142 684T274 731ZM183 420Q149 408 129 383T110 329Q110 291 136 263T249 189Q307 158 355 124Q427 155 427 217Q427 243 405 271T299 349Q230 387 183 420Z" horiz-adv-x="538" unicode="§"/>
			<glyph d="M-37 706H53V602H-37ZM151 706H241V602H151Z" horiz-adv-x="204" unicode="¨"/>
			<glyph d="M396 731Q548 731 659 623T771 359Q771 203 662 93T396 -17Q239 -17 129 93T19 359Q19 512 129 621T396 731ZM395 676Q264 676 176 584T87 359Q87 225 174 131T396 38Q526 38 614 130T703 359Q703 491 614 583T395 676ZM405 585Q479 585 530 545T593 433H530Q519 479 486 504T406 530Q335 530 294 482T254 359Q254 283 298 233T408 183Q455 183 488 210T530 285H594Q577 210 526 169T408 128Q312 128 249 191T186 357Q186 459 246 522T405 585Z" horiz-adv-x="791" unicode="©"/>
			<glyph d="M159 709Q225 709 257 686T289 625V461Q289 444 291 437T306 430Q322 430 325 432V388Q307 380 282 380Q235 380 231 425Q186 380 114 380Q62 380 30 403T-3 469Q-3 512 27 537T107 567Q201 577 216 584T232 610Q232 636 214 647T155 659Q112 659 93 645T72 603H12Q14 652 52 680T159 709ZM229 546Q217 535 137 525Q97 519 81 506T65 471Q65 449 80 439T127 430Q175 430 202 449T229 500Z" horiz-adv-x="322" unicode="ª"/>
			<glyph d="M202 442V356L102 278L202 200V114L50 234V322ZM398 442V356L298 278L398 200V114L246 234V322Z" horiz-adv-x="455" unicode="«"/>
			<glyph d="M44 388H548V109H480V320H44Z" horiz-adv-x="592" unicode="¬"/>
			<glyph d="M53 318H342V238H53Z" horiz-adv-x="396" unicode="­"/>
			<glyph d="M396 731Q548 731 659 623T771 359Q771 203 662 93T396 -17Q239 -17 129 93T19 359Q19 512 129 621T396 731ZM395 676Q263 676 175 584T87 359Q87 225 174 131T396 38Q526 38 614 130T703 359Q703 493 614 584T395 676ZM250 576H423Q572 576 572 451Q572 347 457 332L582 139H509L390 327H318V139H250ZM318 521V382H396Q458 382 481 398T504 454Q504 521 412 521Z" horiz-adv-x="791" unicode="®"/>
			<glyph d="M-70 682H271V627H-70Z" horiz-adv-x="201" unicode="¯"/>
			<glyph d="M195 709Q255 709 297 666T339 565Q339 504 296 462T195 421Q134 421 92 462T51 565Q51 625 93 667T195 709ZM195 659Q154 659 127 631T101 565Q101 528 126 499T195 471Q238 471 263 499T289 565Q289 604 262 631T195 659Z" horiz-adv-x="390" unicode="°"/>
			<glyph d="M262 505H330V339H548V271H330V104H262V271H44V339H262ZM44 68H548V0H44Z" horiz-adv-x="592" unicode="±"/>
			<glyph d="M176 709Q239 709 281 675T324 583Q324 543 301 510T239 455T145 399T83 335H318V280H15Q17 334 42 374T138 453T232 519T256 584Q256 616 232 635T173 654Q128 654 109 624T91 555H23Q23 624 64 666T176 709Z" horiz-adv-x="338" unicode="²"/>
			<glyph d="M167 709Q232 709 272 678T312 592Q312 563 292 540T244 507V505Q289 497 310 469T331 403Q331 343 285 308T169 273Q98 273 53 310T9 414H77Q78 371 101 349T169 328Q207 328 235 347T263 400Q263 427 248 445T211 471T137 477V527Q190 525 217 541T244 592Q244 622 222 638T167 654Q125 654 106 629T87 568H19Q23 634 61 671T167 709Z" horiz-adv-x="339" unicode="³"/>
			<glyph d="M123 732H232L101 589H37Z" horiz-adv-x="191" unicode="´"/>
			<glyph d="M53 517H138V164Q138 119 165 91T241 63Q311 63 352 107T393 222V517H478V0H398V82H396Q339 -12 239 -12Q173 -12 140 23H138V-198H53Z" unicode="µ"/>
			<glyph d="M262 714H506V-155H438V659H316V-155H248V322Q154 323 96 376T39 508Q39 601 99 657T262 714Z" horiz-adv-x="584" unicode="¶"/>
			<glyph d="M131 375Q159 375 177 355T195 311Q195 286 176 266T132 247Q106 247 86 266T67 311Q67 338 86 356T131 375Z" horiz-adv-x="262" unicode="·"/>
			<glyph d="M94 0H136L94 -53L96 -55Q109 -48 129 -48Q165 -48 188 -67T213 -121Q213 -163 179 -186T89 -210Q41 -210 -3 -191L15 -147Q48 -160 80 -160Q137 -159 138 -129Q138 -116 125 -107T91 -98Q68 -98 50 -106L33 -78Z" horiz-adv-x="204" unicode="¸"/>
			<glyph d="M179 709H229V280H161V588H46V638Q96 638 132 653T179 709Z" horiz-adv-x="346" unicode="¹"/>
			<glyph d="M169 709Q245 709 290 664T336 543Q336 466 291 423T170 380Q95 380 49 424T2 543Q2 618 47 663T169 709ZM168 659Q124 659 97 629T70 543Q70 492 95 461T170 430Q218 430 243 460T268 542Q268 600 242 629T168 659Z" horiz-adv-x="338" unicode="º"/>
			<glyph d="M57 442L209 322V234L57 114V200L157 278L57 356ZM253 442L405 322V234L253 114V200L353 278L253 356Z" horiz-adv-x="455" unicode="»"/>
			<glyph d="M584 725H648L213 -28H149ZM168 709H218V280H150V588H35V638Q85 638 121 652T168 709ZM671 429H722V151H782V96H722V0H660V96H461V154ZM658 344L510 151H660V344Z" horiz-adv-x="846" unicode="¼"/>
			<glyph d="M569 725H633L198 -28H134ZM168 709H218V280H150V588H35V638Q85 638 121 652T168 709ZM654 429Q717 429 759 395T802 303Q802 263 779 230T717 175T623 119T561 55H796V0H493Q495 54 520 94T616 173T710 239T734 304Q734 336 710 355T651 374Q606 374 587 344T569 275H501Q501 344 542 386T654 429Z" horiz-adv-x="846" unicode="½"/>
			<glyph d="M616 725H680L245 -28H181ZM173 709Q238 709 278 678T318 592Q318 563 298 540T250 507V505Q295 497 316 469T337 403Q337 343 291 308T175 273Q104 273 59 310T15 414H83Q84 371 107 349T175 328Q213 328 241 347T269 400Q269 427 254 445T217 471T143 477V527Q196 525 223 541T250 592Q250 622 228 638T173 654Q131 654 112 629T93 568H25Q29 634 67 671T173 709ZM655 429H706V151H766V96H706V0H644V96H445V154ZM643 340L495 147H645V340Z" horiz-adv-x="822" unicode="¾"/>
			<glyph d="M200 517H311V406H200ZM215 339H300V318Q300 256 282 220T209 132Q168 93 150 63T132 -6Q132 -66 164 -100T253 -135Q319 -135 355 -91T392 30H477V28Q477 -80 414 -145T253 -210Q158 -210 100 -156T42 -10Q42 41 61 78T135 167Q188 215 201 244T215 323Z" horiz-adv-x="520" unicode="¿"/>
			<glyph d="M274 714H379L658 0H553L475 215H173L93 0H-5ZM324 628L203 295H445L326 628ZM180 922H289L375 779H311Z" horiz-adv-x="652" unicode="À"/>
			<glyph d="M274 714H379L658 0H553L475 215H173L93 0H-5ZM324 628L203 295H445L326 628ZM364 922H473L342 779H278Z" horiz-adv-x="652" unicode="Á"/>
			<glyph d="M274 714H379L658 0H553L475 215H173L93 0H-5ZM324 628L203 295H445L326 628ZM281 922H374L478 779H394L325 875L255 779H178Z" horiz-adv-x="652" unicode="Â"/>
			<glyph d="M274 714H379L658 0H553L475 215H173L93 0H-5ZM324 628L203 295H445L326 628ZM447 907H499Q480 797 398 796Q380 796 354 804T302 824Q277 835 257 835Q223 835 208 793H156Q180 903 262 903Q292 903 336 883T401 863Q434 863 447 907Z" horiz-adv-x="652" unicode="Ã"/>
			<glyph d="M274 714H379L658 0H553L475 215H173L93 0H-5ZM324 628L203 295H445L326 628ZM187 897H277V793H187ZM375 897H465V793H375Z" horiz-adv-x="652" unicode="Ä"/>
			<glyph d="M274 714H379L658 0H553L475 215H173L93 0H-5ZM324 628L203 295H445L326 628ZM326 973Q373 973 406 940T439 861Q439 815 406 782T326 749Q279 749 246 782T213 861Q213 908 246 940T326 973ZM325 928Q298 928 278 908T259 860Q259 831 278 811T326 792Q356 792 374 812T393 860Q393 888 374 908T325 928Z" horiz-adv-x="652" unicode="Å"/>
			<glyph d="M356 714H891V634H540V407H870V327H540V80H897V0H450V208H204L102 0H-5ZM409 634L241 288H450V634Z" horiz-adv-x="937" unicode="Æ"/>
			<glyph d="M373 731Q492 731 571 668T667 499H572Q556 573 503 612T372 651Q264 651 197 573T130 362Q130 222 195 142T373 63Q463 63 518 120T579 269H674Q659 133 581 60T373 -16L344 -53L346 -55Q359 -48 379 -48Q415 -48 439 -68T463 -121Q463 -163 428 -186T339 -210Q294 -210 247 -191L265 -147Q298 -160 330 -160Q388 -160 388 -129Q388 -115 375 -106T341 -98Q320 -98 300 -106L283 -78L332 -15Q190 -3 112 96T35 355Q35 525 128 628T373 731Z" horiz-adv-x="703" unicode="Ç"/>
			<glyph d="M68 714H561V634H163V407H534V327H163V80H564V0H68ZM158 922H267L353 779H289Z" horiz-adv-x="604" unicode="È"/>
			<glyph d="M68 714H561V634H163V407H534V327H163V80H564V0H68ZM360 922H469L338 779H274Z" horiz-adv-x="604" unicode="É"/>
			<glyph d="M68 714H561V634H163V407H534V327H163V80H564V0H68ZM268 922H361L465 779H381L312 875L242 779H165Z" horiz-adv-x="604" unicode="Ê"/>
			<glyph d="M68 714H561V634H163V407H534V327H163V80H564V0H68ZM179 897H269V793H179ZM367 897H457V793H367Z" horiz-adv-x="604" unicode="Ë"/>
			<glyph d="M71 714H166V0H71ZM-36 922H73L159 779H95Z" horiz-adv-x="230" unicode="Ì"/>
			<glyph d="M71 714H166V0H71ZM158 922H267L136 779H72Z" horiz-adv-x="231" unicode="Í"/>
			<glyph d="M71 714H166V0H71ZM69 922H162L266 779H182L113 875L43 779H-34Z" horiz-adv-x="228" unicode="Î"/>
			<glyph d="M71 714H166V0H71ZM-18 897H72V793H-18ZM170 897H260V793H170Z" horiz-adv-x="238" unicode="Ï"/>
			<glyph d="M69 714H320Q482 714 569 628T657 374Q657 0 320 0H69V339H-1V407H69ZM164 634V407H378V339H164V80H325Q438 80 500 153T562 361Q562 503 503 568T329 634Z" horiz-adv-x="694" unicode="Ð"/>
			<glyph d="M68 714H169L545 135H547V714H637V0H533L160 573H158V0H68ZM476 907H528Q509 797 427 796Q409 796 383 804T331 824Q306 835 286 835Q252 835 237 793H185Q209 903 291 903Q321 903 365 883T430 863Q463 863 476 907Z" horiz-adv-x="705" unicode="Ñ"/>
			<glyph d="M375 731Q530 731 623 625T717 357Q717 191 622 87T375 -17Q221 -17 127 88T33 357Q33 517 125 624T375 731ZM374 651Q260 651 194 568T128 357Q128 226 195 144T375 63Q487 63 554 143T622 357Q622 486 556 568T374 651ZM226 922H335L421 779H357Z" horiz-adv-x="750" unicode="Ò"/>
			<glyph d="M375 731Q530 731 623 625T717 357Q717 191 622 87T375 -17Q221 -17 127 88T33 357Q33 517 125 624T375 731ZM374 651Q260 651 194 568T128 357Q128 226 195 144T375 63Q487 63 554 143T622 357Q622 486 556 568T374 651ZM406 922H515L384 779H320Z" horiz-adv-x="750" unicode="Ó"/>
			<glyph d="M375 731Q530 731 623 625T717 357Q717 191 622 87T375 -17Q221 -17 127 88T33 357Q33 517 125 624T375 731ZM374 651Q260 651 194 568T128 357Q128 226 195 144T375 63Q487 63 554 143T622 357Q622 486 556 568T374 651ZM329 922H422L526 779H442L373 875L303 779H226Z" horiz-adv-x="750" unicode="Ô"/>
			<glyph d="M375 731Q530 731 623 625T717 357Q717 191 622 87T375 -17Q221 -17 127 88T33 357Q33 517 125 624T375 731ZM374 651Q260 651 194 568T128 357Q128 226 195 144T375 63Q487 63 554 143T622 357Q622 486 556 568T374 651ZM496 907H548Q529 797 447 796Q429 796 403 804T351 824Q326 835 306 835Q272 835 257 793H205Q229 903 311 903Q341 903 385 883T450 863Q483 863 496 907Z" horiz-adv-x="750" unicode="Õ"/>
			<glyph d="M375 731Q530 731 623 625T717 357Q717 191 622 87T375 -17Q221 -17 127 88T33 357Q33 517 125 624T375 731ZM374 651Q260 651 194 568T128 357Q128 226 195 144T375 63Q487 63 554 143T622 357Q622 486 556 568T374 651ZM236 897H326V793H236ZM424 897H514V793H424Z" horiz-adv-x="750" unicode="Ö"/>
			<glyph d="M116 482L296 302L476 482L524 434L344 254L525 72L477 24L296 206L115 24L66 72L248 254L67 434Z" horiz-adv-x="592" unicode="×"/>
			<glyph d="M375 731Q517 731 607 643L686 730L718 700L636 610Q717 506 717 357Q717 190 621 86T375 -17Q238 -17 146 69L65 -20L32 10L116 102Q33 203 33 357Q33 517 125 624T375 731ZM374 651Q258 651 193 565T128 357Q128 247 178 170L546 577H547Q481 651 374 651ZM574 541L205 134Q269 63 375 63Q488 63 555 145T622 357Q622 462 574 541Z" horiz-adv-x="751" unicode="Ø"/>
			<glyph d="M62 714H157V254Q157 166 206 114T355 63Q448 63 494 115T541 254V714H636V253Q636 123 563 53T355 -17Q208 -17 135 53T62 253ZM201 922H310L396 779H332Z" horiz-adv-x="699" unicode="Ù"/>
			<glyph d="M62 714H157V254Q157 166 206 114T355 63Q448 63 494 115T541 254V714H636V253Q636 123 563 53T355 -17Q208 -17 135 53T62 253ZM389 922H498L367 779H303Z" horiz-adv-x="699" unicode="Ú"/>
			<glyph d="M62 714H157V254Q157 166 206 114T355 63Q448 63 494 115T541 254V714H636V253Q636 123 563 53T355 -17Q208 -17 135 53T62 253ZM306 922H399L503 779H419L350 875L280 779H203Z" horiz-adv-x="699" unicode="Û"/>
			<glyph d="M62 714H157V254Q157 166 206 114T355 63Q448 63 494 115T541 254V714H636V253Q636 123 563 53T355 -17Q208 -17 135 53T62 253ZM211 897H301V793H211ZM399 897H489V793H399Z" horiz-adv-x="699" unicode="Ü"/>
			<glyph d="M-5 714H108L322 374L531 714H639L366 292V0H271V292ZM373 922H482L351 779H287Z" horiz-adv-x="634" unicode="Ý"/>
			<glyph d="M68 714H163V600H381Q481 600 540 546T600 388Q600 284 543 231T386 178H163V0H68ZM163 520V258H353Q505 258 505 388Q505 520 353 520Z" horiz-adv-x="626" unicode="Þ"/>
			<glyph d="M253 731Q340 731 400 681T460 556Q460 435 356 401V399Q414 393 453 343T492 220Q492 119 427 53T261 -12Q232 -12 218 -8V66Q232 63 248 63Q323 63 362 104T402 209Q402 291 363 325T227 359H218V427H238Q299 427 334 456T370 543Q370 590 337 623T259 656Q192 656 166 620T140 521V0H55V528Q55 618 109 674T253 731Z" horiz-adv-x="538" unicode="ß"/>
			<glyph d="M268 529Q461 529 461 390V92Q461 63 488 63Q501 63 514 68V2Q489 -12 453 -12Q381 -12 381 68Q313 -12 199 -12Q119 -12 73 25T28 133Q28 202 73 243T282 305Q338 312 357 326T377 369Q377 454 262 454Q199 454 167 430T133 356H48Q58 529 268 529ZM376 267Q353 251 316 246L229 233Q172 225 145 202T118 139Q118 103 144 83T218 63Q287 63 331 97T376 178ZM132 732H241L327 589H263Z" horiz-adv-x="530" unicode="à"/>
			<glyph d="M268 529Q461 529 461 390V92Q461 63 488 63Q501 63 514 68V2Q489 -12 453 -12Q381 -12 381 68Q313 -12 199 -12Q119 -12 73 25T28 133Q28 202 73 243T282 305Q338 312 357 326T377 369Q377 454 262 454Q199 454 167 430T133 356H48Q58 529 268 529ZM376 267Q353 251 316 246L229 233Q172 225 145 202T118 139Q118 103 144 83T218 63Q287 63 331 97T376 178ZM310 732H419L288 589H224Z" horiz-adv-x="530" unicode="á"/>
			<glyph d="M268 529Q461 529 461 390V92Q461 63 488 63Q501 63 514 68V2Q489 -12 453 -12Q381 -12 381 68Q313 -12 199 -12Q119 -12 73 25T28 133Q28 202 73 243T282 305Q338 312 357 326T377 369Q377 454 262 454Q199 454 167 430T133 356H48Q58 529 268 529ZM376 267Q353 251 316 246L229 233Q172 225 145 202T118 139Q118 103 144 83T218 63Q287 63 331 97T376 178ZM219 732H312L416 589H332L263 685L193 589H116Z" horiz-adv-x="530" unicode="â"/>
			<glyph d="M268 529Q461 529 461 390V92Q461 63 488 63Q501 63 514 68V2Q489 -12 453 -12Q381 -12 381 68Q313 -12 199 -12Q119 -12 73 25T28 133Q28 202 73 243T282 305Q338 312 357 326T377 369Q377 454 262 454Q199 454 167 430T133 356H48Q58 529 268 529ZM376 267Q353 251 316 246L229 233Q172 225 145 202T118 139Q118 103 144 83T218 63Q287 63 331 97T376 178ZM387 717H439Q420 608 338 606Q318 606 294 614T242 634T197 645Q163 645 148 603H96Q120 713 202 713Q231 713 276 693Q323 673 341 673Q373 673 387 717Z" horiz-adv-x="530" unicode="ã"/>
			<glyph d="M268 529Q461 529 461 390V92Q461 63 488 63Q501 63 514 68V2Q489 -12 453 -12Q381 -12 381 68Q313 -12 199 -12Q119 -12 73 25T28 133Q28 202 73 243T282 305Q338 312 357 326T377 369Q377 454 262 454Q199 454 167 430T133 356H48Q58 529 268 529ZM376 267Q353 251 316 246L229 233Q172 225 145 202T118 139Q118 103 144 83T218 63Q287 63 331 97T376 178ZM125 706H215V602H125ZM313 706H403V602H313Z" horiz-adv-x="530" unicode="ä"/>
			<glyph d="M268 529Q461 529 461 390V92Q461 63 488 63Q501 63 514 68V2Q489 -12 453 -12Q381 -12 381 68Q313 -12 199 -12Q119 -12 73 25T28 133Q28 202 73 243T282 305Q338 312 357 326T377 369Q377 454 262 454Q199 454 167 430T133 356H48Q58 529 268 529ZM376 267Q353 251 316 246L229 233Q172 225 145 202T118 139Q118 103 144 83T218 63Q287 63 331 97T376 178ZM265 787Q312 787 345 754T378 675Q378 629 345 596T265 563Q218 563 185 595T152 675Q152 721 185 754T265 787ZM264 742Q238 742 218 723T198 674Q198 646 216 626T265 606Q295 606 313 626T332 674Q332 702 314 722T264 742Z" horiz-adv-x="530" unicode="å"/>
			<glyph d="M269 529Q337 529 379 511T442 454Q465 489 507 508T607 529Q720 529 779 458T840 233H461Q463 151 505 107T616 63Q668 63 702 89T747 163H834Q814 78 756 33T610 -12Q469 -12 423 89Q365 -10 205 -12Q122 -12 76 25T30 133Q30 180 48 211T99 260T219 294L293 307Q343 315 362 329T381 374Q381 414 355 433T265 454Q198 454 168 429T135 356H50Q60 527 269 529ZM606 454Q542 454 502 414T461 308H750Q748 374 708 414T606 454ZM381 267Q353 249 281 241Q180 229 150 205T120 139Q120 102 148 82T220 63Q288 63 334 97T381 178Z" horiz-adv-x="871" unicode="æ"/>
			<glyph d="M275 529Q369 529 428 484T498 351H410Q388 454 282 454Q203 454 162 401T121 252Q121 167 161 115T272 63Q334 63 370 96T414 189H501Q487 95 432 44T288 -10L255 -53L257 -55Q268 -48 290 -48Q327 -48 350 -68T374 -121Q374 -164 339 -187T250 -210Q201 -210 158 -191L176 -147Q211 -160 241 -160Q266 -160 282 -152T299 -129Q299 -115 285 -106T252 -98Q232 -98 211 -106L194 -78L247 -10H246Q144 -2 87 67T31 252Q31 380 96 454T275 529Z" horiz-adv-x="532" unicode="ç"/>
			<glyph d="M272 529Q382 529 444 450T506 243V233H119V227Q119 152 162 107T280 63Q391 63 414 164H498Q481 77 423 32T277 -12Q155 -12 92 68T29 262Q29 377 98 453T272 529ZM266 454Q207 454 166 414T119 308H416Q412 371 370 412T266 454ZM142 732H251L337 589H273Z" horiz-adv-x="538" unicode="è"/>
			<glyph d="M272 529Q382 529 444 450T506 243V233H119V227Q119 152 162 107T280 63Q391 63 414 164H498Q481 77 423 32T277 -12Q155 -12 92 68T29 262Q29 377 98 453T272 529ZM266 454Q207 454 166 414T119 308H416Q412 371 370 412T266 454ZM319 732H428L297 589H233Z" horiz-adv-x="538" unicode="é"/>
			<glyph d="M272 529Q382 529 444 450T506 243V233H119V227Q119 152 162 107T280 63Q391 63 414 164H498Q481 77 423 32T277 -12Q155 -12 92 68T29 262Q29 377 98 453T272 529ZM266 454Q207 454 166 414T119 308H416Q412 371 370 412T266 454ZM227 732H320L424 589H340L271 685L201 589H124Z" horiz-adv-x="538" unicode="ê"/>
			<glyph d="M272 529Q382 529 444 450T506 243V233H119V227Q119 152 162 107T280 63Q391 63 414 164H498Q481 77 423 32T277 -12Q155 -12 92 68T29 262Q29 377 98 453T272 529ZM266 454Q207 454 166 414T119 308H416Q412 371 370 412T266 454ZM132 706H222V602H132ZM320 706H410V602H320Z" horiz-adv-x="538" unicode="ë"/>
			<glyph d="M55 517H140V0H55ZM-56 732H53L139 589H75Z" horiz-adv-x="190" unicode="ì"/>
			<glyph d="M55 517H140V0H55ZM135 732H244L113 589H49Z" horiz-adv-x="190" unicode="í"/>
			<glyph d="M55 517H140V0H55ZM51 732H144L248 589H164L95 685L25 589H-52Z" horiz-adv-x="187" unicode="î"/>
			<glyph d="M55 517H140V0H55ZM-36 706H54V602H-36ZM152 706H242V602H152Z" horiz-adv-x="202" unicode="ï"/>
			<glyph d="M241 731L318 675L438 731L473 694L358 641Q532 501 532 258Q532 135 462 61T281 -12Q167 -12 98 62T30 257Q30 364 96 435T266 506Q355 506 405 450H407Q386 495 351 536T285 601L170 547L132 587L242 638Q203 669 171 686ZM275 431Q202 431 161 385T120 258Q120 171 165 117T281 63Q351 63 396 116T442 257Q442 335 399 383T275 431Z" horiz-adv-x="567" unicode="ð"/>
			<glyph d="M303 529Q481 529 481 344V0H396V353Q396 396 369 425T290 454Q217 454 177 410T138 295V0H53V517H133V435H135Q191 529 303 529ZM387 717H439Q420 608 338 606Q318 606 294 614T242 634T197 645Q163 645 148 603H96Q120 713 202 713Q231 713 276 693Q323 673 341 673Q373 673 387 717Z" unicode="ñ"/>
			<glyph d="M282 529Q398 529 465 455T533 258Q533 140 465 64T282 -12Q168 -12 99 61T31 258Q31 382 98 455T282 529ZM281 454Q212 454 166 399T121 258Q121 171 166 117T282 63Q352 63 397 116T443 258Q443 345 398 399T281 454ZM122 732H231L317 589H253Z" horiz-adv-x="564" unicode="ò"/>
			<glyph d="M282 529Q398 529 465 455T533 258Q533 140 465 64T282 -12Q168 -12 99 61T31 258Q31 382 98 455T282 529ZM281 454Q212 454 166 399T121 258Q121 171 166 117T282 63Q352 63 397 116T443 258Q443 345 398 399T281 454ZM318 732H427L296 589H232Z" horiz-adv-x="564" unicode="ó"/>
			<glyph d="M282 529Q398 529 465 455T533 258Q533 140 465 64T282 -12Q168 -12 99 61T31 258Q31 382 98 455T282 529ZM281 454Q212 454 166 399T121 258Q121 171 166 117T282 63Q352 63 397 116T443 258Q443 345 398 399T281 454ZM236 732H329L433 589H349L280 685L210 589H133Z" horiz-adv-x="564" unicode="ô"/>
			<glyph d="M282 529Q398 529 465 455T533 258Q533 140 465 64T282 -12Q168 -12 99 61T31 258Q31 382 98 455T282 529ZM281 454Q212 454 166 399T121 258Q121 171 166 117T282 63Q352 63 397 116T443 258Q443 345 398 399T281 454ZM402 717H454Q435 608 353 606Q333 606 309 614T257 634T212 645Q178 645 163 603H111Q135 713 217 713Q246 713 291 693Q338 673 356 673Q388 673 402 717Z" horiz-adv-x="564" unicode="õ"/>
			<glyph d="M282 529Q398 529 465 455T533 258Q533 140 465 64T282 -12Q168 -12 99 61T31 258Q31 382 98 455T282 529ZM281 454Q212 454 166 399T121 258Q121 171 166 117T282 63Q352 63 397 116T443 258Q443 345 398 399T281 454ZM142 706H232V602H142ZM330 706H420V602H330Z" horiz-adv-x="564" unicode="ö"/>
			<glyph d="M296 523Q321 523 340 504T360 459Q360 435 340 415T297 395Q271 395 251 414T232 459Q232 484 250 503T296 523ZM44 287H548V219H44ZM296 111Q322 111 341 92T360 47Q360 23 340 3T297 -17Q271 -17 251 2T232 47Q232 73 251 92T296 111Z" horiz-adv-x="592" unicode="÷"/>
			<glyph d="M508 535L535 509L475 443Q533 373 533 258Q533 140 465 64T282 -12Q183 -12 117 45L57 -22L29 2L91 71Q31 143 31 258Q31 382 100 455T282 529Q387 529 450 470ZM281 454Q212 454 166 399T121 258Q121 190 151 137L392 406H393Q350 454 281 454ZM415 377L174 108Q217 63 282 63Q352 63 397 116T443 258Q443 322 415 377Z" horiz-adv-x="566" unicode="ø"/>
			<glyph d="M53 517H138V165Q138 120 166 91T243 63Q318 63 357 107T396 222V517H481V0H401V82H399Q346 -12 231 -12Q53 -12 53 172ZM114 732H223L309 589H245Z" unicode="ù"/>
			<glyph d="M53 517H138V165Q138 120 166 91T243 63Q318 63 357 107T396 222V517H481V0H401V82H399Q346 -12 231 -12Q53 -12 53 172ZM304 732H413L282 589H218Z" unicode="ú"/>
			<glyph d="M53 517H138V165Q138 120 166 91T243 63Q318 63 357 107T396 222V517H481V0H401V82H399Q346 -12 231 -12Q53 -12 53 172ZM220 732H313L417 589H333L264 685L194 589H117Z" unicode="û"/>
			<glyph d="M53 517H138V165Q138 120 166 91T243 63Q318 63 357 107T396 222V517H481V0H401V82H399Q346 -12 231 -12Q53 -12 53 172ZM127 706H217V602H127ZM315 706H405V602H315Z" unicode="ü"/>
			<glyph d="M0 517H96L247 94H249L394 517H484L264 -55Q229 -148 196 -177T109 -207Q75 -207 50 -198V-120Q86 -132 100 -132Q153 -132 172 -80L205 3ZM299 732H408L277 589H213Z" horiz-adv-x="492" unicode="ý"/>
			<glyph d="M54 714H139V447H141Q182 529 306 529Q414 529 479 455T544 257Q544 136 479 62T308 -12Q260 -12 214 7T141 69H139V-198H54ZM293 454Q221 454 178 402T136 259Q136 169 178 116T299 63Q373 63 413 115T454 263Q454 350 410 402T293 454Z" horiz-adv-x="577" unicode="þ"/>
			<glyph d="M0 517H96L247 94H249L394 517H484L264 -55Q229 -148 196 -177T109 -207Q75 -207 50 -198V-120Q86 -132 100 -132Q153 -132 172 -80L205 3ZM110 706H200V602H110ZM298 706H388V602H298Z" horiz-adv-x="492" unicode="ÿ"/>
			<glyph d="M274 714H379L658 0H553L475 215H173L93 0H-5ZM324 628L203 295H445L326 628ZM155 872H496V817H155Z" horiz-adv-x="652" unicode="Ā"/>
			<glyph d="M268 529Q461 529 461 390V92Q461 63 488 63Q501 63 514 68V2Q489 -12 453 -12Q381 -12 381 68Q313 -12 199 -12Q119 -12 73 25T28 133Q28 202 73 243T282 305Q338 312 357 326T377 369Q377 454 262 454Q199 454 167 430T133 356H48Q58 529 268 529ZM376 267Q353 251 316 246L229 233Q172 225 145 202T118 139Q118 103 144 83T218 63Q287 63 331 97T376 178ZM100 682H441V627H100Z" horiz-adv-x="530" unicode="ā"/>
			<glyph d="M274 714H379L658 0H553L475 215H173L93 0H-5ZM324 628L203 295H445L326 628ZM169 919H219Q243 836 331 836Q366 836 388 853T430 919H481Q468 851 426 816T323 781Q190 781 169 919Z" horiz-adv-x="652" unicode="Ă"/>
			<glyph d="M268 529Q461 529 461 390V92Q461 63 488 63Q501 63 514 68V2Q489 -12 453 -12Q381 -12 381 68Q313 -12 199 -12Q119 -12 73 25T28 133Q28 202 73 243T282 305Q338 312 357 326T377 369Q377 454 262 454Q199 454 167 430T133 356H48Q58 529 268 529ZM376 267Q353 251 316 246L229 233Q172 225 145 202T118 139Q118 103 144 83T218 63Q287 63 331 97T376 178ZM112 729H162Q186 646 274 646Q309 646 332 664T373 729H424Q411 662 370 626T266 591Q132 591 112 729Z" horiz-adv-x="530" unicode="ă"/>
			<glyph d="M274 714H379L658 0H593Q509 -68 509 -118Q509 -160 550 -160Q587 -160 609 -130L641 -148Q606 -210 533 -210Q489 -210 465 -189T441 -134Q441 -66 553 0L475 215H173L93 0H-5ZM324 628L203 295H445L326 628Z" horiz-adv-x="652" unicode="Ą"/>
			<glyph d="M267 529Q461 529 461 391V92Q461 63 488 63Q501 63 514 68V2Q488 -13 444 -13Q374 -71 374 -118Q374 -160 415 -160Q452 -160 474 -130L506 -148Q471 -210 398 -210Q354 -210 330 -189T306 -134Q306 -67 413 -3Q381 13 381 68Q313 -12 199 -12Q119 -12 73 25T28 133Q28 206 73 245T285 305Q340 312 358 327T377 369Q377 454 262 454Q199 454 167 430T133 356H48Q58 529 267 529ZM376 267Q354 251 320 247L229 233Q172 225 145 202T118 139Q118 103 144 83T218 63Q283 63 329 96T376 178Z" horiz-adv-x="530" unicode="ą"/>
			<glyph d="M373 731Q492 731 571 668T667 499H572Q556 573 503 612T372 651Q264 651 197 573T130 362Q130 222 195 142T373 63Q463 63 518 120T579 269H674Q659 130 578 56T365 -17Q213 -17 124 83T35 355Q35 522 126 626T373 731ZM424 922H533L402 779H338Z" horiz-adv-x="703" unicode="Ć"/>
			<glyph d="M275 529Q369 529 428 484T498 351H410Q388 454 282 454Q203 454 162 401T121 252Q121 167 161 115T272 63Q334 63 370 96T414 189H501Q487 92 428 40T273 -12Q161 -12 96 58T31 252Q31 380 96 454T275 529ZM324 732H433L302 589H238Z" horiz-adv-x="532" unicode="ć"/>
			<glyph d="M373 731Q492 731 571 668T667 499H572Q556 573 503 612T372 651Q264 651 197 573T130 362Q130 222 195 142T373 63Q463 63 518 120T579 269H674Q659 130 578 56T365 -17Q213 -17 124 83T35 355Q35 522 126 626T373 731ZM331 922H424L528 779H444L375 875L305 779H228Z" horiz-adv-x="703" unicode="Ĉ"/>
			<glyph d="M275 529Q369 529 428 484T498 351H410Q388 454 282 454Q203 454 162 401T121 252Q121 167 161 115T272 63Q334 63 370 96T414 189H501Q487 92 428 40T273 -12Q161 -12 96 58T31 252Q31 380 96 454T275 529ZM234 732H327L431 589H347L278 685L208 589H131Z" horiz-adv-x="532" unicode="ĉ"/>
			<glyph d="M373 731Q492 731 571 668T667 499H572Q556 573 503 612T372 651Q264 651 197 573T130 362Q130 222 195 142T373 63Q463 63 518 120T579 269H674Q659 130 578 56T365 -17Q213 -17 124 83T35 355Q35 522 126 626T373 731ZM325 897H415V793H325Z" horiz-adv-x="703" unicode="Ċ"/>
			<glyph d="M275 529Q369 529 428 484T498 351H410Q388 454 282 454Q203 454 162 401T121 252Q121 167 161 115T272 63Q334 63 370 96T414 189H501Q487 92 428 40T273 -12Q161 -12 96 58T31 252Q31 380 96 454T275 529ZM231 708H321V604H231Z" horiz-adv-x="532" unicode="ċ"/>
			<glyph d="M373 731Q492 731 571 668T667 499H572Q556 573 503 612T372 651Q264 651 197 573T130 362Q130 222 195 142T373 63Q463 63 518 120T579 269H674Q659 130 578 56T365 -17Q213 -17 124 83T35 355Q35 522 126 626T373 731ZM219 922H303L372 826L442 922H519L416 779H323Z" horiz-adv-x="703" unicode="Č"/>
			<glyph d="M275 529Q369 529 428 484T498 351H410Q388 454 282 454Q203 454 162 401T121 252Q121 167 161 115T272 63Q334 63 370 96T414 189H501Q487 92 428 40T273 -12Q161 -12 96 58T31 252Q31 380 96 454T275 529ZM121 732H205L274 636L344 732H421L318 589H225Z" horiz-adv-x="532" unicode="č"/>
			<glyph d="M68 714H319Q481 714 568 628T656 374Q656 0 319 0H68ZM163 634V80H324Q437 80 499 153T561 361Q561 503 502 568T328 634ZM157 922H241L310 826L380 922H457L354 779H261Z" horiz-adv-x="692" unicode="Ď"/>
			<glyph d="M436 714H521V0H436V70H434Q414 30 370 9T269 -12Q162 -12 96 63T31 260Q31 382 94 455T266 529Q317 529 363 508T434 448H436ZM275 454Q201 454 161 400T121 254Q121 169 165 116T281 63Q354 63 396 116T439 258Q439 346 396 400T275 454ZM597 714H706L631 571H571Z" horiz-adv-x="645" unicode="ď"/>
			<glyph d="M69 714H320Q482 714 569 628T657 374Q657 0 320 0H69V339H-1V407H69ZM164 634V407H378V339H164V80H325Q438 80 500 153T562 361Q562 503 503 568T329 634Z" horiz-adv-x="694" unicode="Đ"/>
			<glyph d="M436 714H521V638H607V583H521V0H436V70H434Q414 30 370 9T269 -12Q162 -12 96 63T31 260Q31 382 94 455T266 529Q319 529 363 508T434 448H436V583H266V638H436ZM275 454Q201 454 161 400T121 254Q121 169 165 116T281 63Q354 63 396 116T439 258Q439 346 396 400T275 454Z" horiz-adv-x="604" unicode="đ"/>
			<glyph d="M68 714H561V634H163V407H534V327H163V80H564V0H68ZM148 872H489V817H148Z" horiz-adv-x="604" unicode="Ē"/>
			<glyph d="M272 529Q382 529 444 450T506 243V233H119V227Q119 152 162 107T280 63Q391 63 414 164H498Q481 77 423 32T277 -12Q155 -12 92 68T29 262Q29 377 98 453T272 529ZM266 454Q207 454 166 414T119 308H416Q412 371 370 412T266 454ZM105 682H446V627H105Z" horiz-adv-x="538" unicode="ē"/>
			<glyph d="M68 714H561V634H163V407H534V327H163V80H564V0H68ZM153 919H203Q227 836 315 836Q350 836 372 853T414 919H465Q452 851 410 816T307 781Q174 781 153 919Z" horiz-adv-x="604" unicode="Ĕ"/>
			<glyph d="M272 529Q382 529 444 450T506 243V233H119V227Q119 152 162 107T280 63Q391 63 414 164H498Q481 77 423 32T277 -12Q155 -12 92 68T29 262Q29 377 98 453T272 529ZM266 454Q207 454 166 414T119 308H416Q412 371 370 412T266 454ZM117 729H167Q191 646 279 646Q314 646 337 664T378 729H429Q416 662 375 626T271 591Q137 591 117 729Z" horiz-adv-x="538" unicode="ĕ"/>
			<glyph d="M68 714H561V634H163V407H534V327H163V80H564V0H68ZM270 897H360V793H270Z" horiz-adv-x="604" unicode="Ė"/>
			<glyph d="M272 529Q382 529 444 450T506 243V233H119V227Q119 152 162 107T280 63Q391 63 414 164H498Q481 77 423 32T277 -12Q155 -12 92 68T29 262Q29 377 98 453T272 529ZM266 454Q207 454 166 414T119 308H416Q412 371 370 412T266 454ZM228 708H318V604H228Z" horiz-adv-x="538" unicode="ė"/>
			<glyph d="M68 714H561V634H163V407H534V327H163V80H564V0H516Q432 -70 432 -118Q432 -160 473 -160Q507 -160 532 -130L564 -148Q529 -210 456 -210Q413 -210 388 -190T364 -134Q364 -64 476 0H68Z" horiz-adv-x="604" unicode="Ę"/>
			<glyph d="M272 529Q381 529 443 450T506 243V233H119V227Q119 152 162 107T280 63Q391 63 414 164H498Q483 87 433 42T307 -10H306Q262 -50 248 -73T235 -118Q235 -160 276 -160Q313 -160 335 -130L367 -148Q332 -210 259 -210Q215 -210 191 -189T167 -134Q167 -72 259 -11Q141 -3 86 76T29 262Q29 375 98 452T272 529ZM266 454Q207 454 165 414T119 308H416Q412 371 370 412T266 454Z" horiz-adv-x="538" unicode="ę"/>
			<glyph d="M68 714H561V634H163V407H534V327H163V80H564V0H68ZM163 922H247L316 826L386 922H463L360 779H267Z" horiz-adv-x="604" unicode="Ě"/>
			<glyph d="M272 529Q382 529 444 450T506 243V233H119V227Q119 152 162 107T280 63Q391 63 414 164H498Q481 77 423 32T277 -12Q155 -12 92 68T29 262Q29 377 98 453T272 529ZM266 454Q207 454 166 414T119 308H416Q412 371 370 412T266 454ZM119 732H203L272 636L342 732H419L316 589H223Z" horiz-adv-x="538" unicode="ě"/>
			<glyph d="M375 731Q502 731 583 670T682 494H587Q573 570 518 610T375 651Q264 651 197 569T130 348Q130 227 197 145T375 63Q474 63 539 124T604 285V296H376V376H689V0H629L604 89Q565 38 505 10T375 -17Q229 -17 132 87T35 343Q35 513 125 622T375 731ZM338 922H431L535 779H451L382 875L312 779H235Z" horiz-adv-x="752" unicode="Ĝ"/>
			<glyph d="M268 529Q374 529 423 443H424V517H504V39Q504 -210 265 -210Q168 -210 111 -168T50 -58H135Q137 -95 175 -118T269 -142Q424 -142 424 56V88H422Q402 45 358 19T261 -6Q156 -6 93 66T30 256Q30 378 93 453T268 529ZM272 454Q200 454 160 402T120 266Q120 175 158 122T266 69Q336 69 378 124T420 269Q420 352 381 403T272 454ZM244 732H337L441 589H357L288 685L218 589H141Z" horiz-adv-x="558" unicode="ĝ"/>
			<glyph d="M375 731Q502 731 583 670T682 494H587Q573 570 518 610T375 651Q264 651 197 569T130 348Q130 227 197 145T375 63Q474 63 539 124T604 285V296H376V376H689V0H629L604 89Q565 38 505 10T375 -17Q229 -17 132 87T35 343Q35 513 125 622T375 731ZM217 919H267Q291 836 379 836Q414 836 436 853T478 919H529Q516 851 474 816T371 781Q238 781 217 919Z" horiz-adv-x="752" unicode="Ğ"/>
			<glyph d="M268 529Q374 529 423 443H424V517H504V39Q504 -210 265 -210Q168 -210 111 -168T50 -58H135Q137 -95 175 -118T269 -142Q424 -142 424 56V88H422Q402 45 358 19T261 -6Q156 -6 93 66T30 256Q30 378 93 453T268 529ZM272 454Q200 454 160 402T120 266Q120 175 158 122T266 69Q336 69 378 124T420 269Q420 352 381 403T272 454ZM124 729H174Q198 646 286 646Q321 646 344 664T385 729H436Q423 662 382 626T278 591Q144 591 124 729Z" horiz-adv-x="558" unicode="ğ"/>
			<glyph d="M375 731Q502 731 583 670T682 494H587Q573 570 518 610T375 651Q264 651 197 569T130 348Q130 227 197 145T375 63Q474 63 539 124T604 285V296H376V376H689V0H629L604 89Q565 38 505 10T375 -17Q229 -17 132 87T35 343Q35 513 125 622T375 731ZM331 897H421V793H331Z" horiz-adv-x="752" unicode="Ġ"/>
			<glyph d="M268 529Q374 529 423 443H424V517H504V39Q504 -210 265 -210Q168 -210 111 -168T50 -58H135Q137 -95 175 -118T269 -142Q424 -142 424 56V88H422Q402 45 358 19T261 -6Q156 -6 93 66T30 256Q30 378 93 453T268 529ZM272 454Q200 454 160 402T120 266Q120 175 158 122T266 69Q336 69 378 124T420 269Q420 352 381 403T272 454ZM236 708H326V604H236Z" horiz-adv-x="558" unicode="ġ"/>
			<glyph d="M375 731Q502 731 583 670T682 494H587Q573 570 518 610T375 651Q264 651 197 569T130 348Q130 227 197 145T375 63Q474 63 539 124T604 285V296H376V376H689V0H629L604 89Q565 38 505 10T375 -17Q229 -17 132 87T35 343Q35 513 125 622T375 731ZM313 -50H424V-129Q424 -206 325 -210V-175Q365 -167 365 -143V-138H313Z" horiz-adv-x="752" unicode="Ģ"/>
			<glyph d="M268 529Q374 529 423 443H424V517H504V39Q504 -210 265 -210Q168 -210 111 -168T50 -58H135Q137 -95 175 -118T269 -142Q424 -142 424 56V88H422Q402 45 358 19T261 -6Q156 -6 93 66T30 256Q30 378 93 453T268 529ZM272 454Q200 454 160 402T120 266Q120 175 158 122T266 69Q336 69 378 124T420 269Q420 352 381 403T272 454ZM323 786V751Q283 741 283 717V714H335V626H224V704Q225 784 323 786Z" horiz-adv-x="559" unicode="ģ"/>
			<glyph d="M68 714H163V407H539V714H634V0H539V327H163V0H68ZM302 922H395L499 779H415L346 875L276 779H199Z" horiz-adv-x="702" unicode="Ĥ"/>
			<glyph d="M53 714H138V441H140Q158 483 203 506T303 529Q481 529 481 344V0H396V353Q396 396 369 425T290 454Q218 454 178 410T138 295V0H53ZM239 922H332L436 779H352L283 875L213 779H136Z" unicode="ĥ"/>
			<glyph d="M68 714H163V517H539V714H634V0H539V317H163V0H68ZM163 462V397H539V462Z" horiz-adv-x="703" unicode="Ħ"/>
			<glyph d="M78 714H163V638H305V583H163V441H165Q183 482 227 505T328 529Q506 529 506 344V0H421V353Q421 396 393 425T316 454Q242 454 202 409T163 295V0H78V583H-6V638H78Z" horiz-adv-x="560" unicode="ħ"/>
			<glyph d="M71 714H166V0H71ZM245 907H297Q278 797 196 796Q178 796 152 804T100 824Q75 835 55 835Q21 835 6 793H-46Q-22 903 60 903Q90 903 134 883T199 863Q232 863 245 907Z" horiz-adv-x="254" unicode="Ĩ"/>
			<glyph d="M55 517H140V0H55ZM226 717H278Q259 608 177 606Q157 606 133 614T81 634T36 645Q2 645 -13 603H-65Q-41 713 41 713Q70 713 115 693Q162 673 180 673Q212 673 226 717Z" horiz-adv-x="214" unicode="ĩ"/>
			<glyph d="M71 714H166V0H71ZM-49 872H292V817H-49Z" horiz-adv-x="238" unicode="Ī"/>
			<glyph d="M55 517H140V0H55ZM-69 682H272V627H-69Z" horiz-adv-x="196" unicode="ī"/>
			<glyph d="M63 714H158V0Q111 -47 97 -70T83 -118Q83 -137 92 -148T118 -160Q150 -160 173 -130L201 -148Q166 -210 110 -210Q69 -210 45 -190T21 -132Q21 -65 122 0H63Z" horiz-adv-x="236" unicode="Į"/>
			<glyph d="M52 714H137V610H52ZM52 517H137V0Q90 -47 76 -70T62 -118Q62 -138 71 -149T96 -160Q131 -160 152 -130L180 -148Q147 -210 89 -210Q48 -210 24 -190T0 -132Q0 -65 101 0H52Z" horiz-adv-x="198" unicode="į"/>
			<glyph d="M71 714H166V0H71ZM75 897H165V793H75Z" horiz-adv-x="230" unicode="İ"/>
			<glyph d="M55 517H140V0H55Z" horiz-adv-x="196" unicode="ı"/>
			<glyph d="M71 714H166V0H71ZM594 714H689V175Q689 84 633 33T478 -17Q381 -17 326 34T270 210V235H365V211Q365 130 391 96T480 63Q594 63 594 188Z" horiz-adv-x="759" unicode="Ĳ"/>
			<glyph d="M55 714H140V610H55ZM55 517H140V0H55ZM269 714H354V610H269ZM269 517H354V-69Q354 -132 323 -164T230 -198Q204 -198 186 -194V-121Q191 -123 214 -123Q231 -123 243 -119T262 -102T269 -56Z" horiz-adv-x="408" unicode="ĳ"/>
			<glyph d="M343 714H438V175Q438 84 382 33T227 -17Q130 -17 75 34T19 210V235H114V211Q114 130 140 96T229 63Q343 63 343 188ZM341 922H434L538 779H454L385 875L315 779H238Z" horiz-adv-x="506" unicode="Ĵ"/>
			<glyph d="M53 517H138V-69Q138 -134 105 -166T14 -198Q-11 -198 -30 -194V-121Q-23 -123 -2 -123Q11 -123 24 -120T45 -104T53 -56ZM49 732H142L246 589H162L93 685L23 589H-54Z" horiz-adv-x="195" unicode="ĵ"/>
			<glyph d="M68 714H163V358L525 714H648L347 426L660 0H540L282 361L163 250V0H68ZM276 -50H387V-129Q387 -206 288 -210V-175Q328 -167 328 -143V-138H276Z" horiz-adv-x="657" unicode="Ķ"/>
			<glyph d="M59 714H144V291L380 517H494L289 329L509 0H401L224 270L144 196V0H59ZM206 -50H317V-129Q317 -206 218 -210V-175Q258 -167 258 -143V-138H206Z" horiz-adv-x="500" unicode="ķ"/>
			<glyph d="M68 714H163V80H541V0H68ZM169 922H278L147 779H83Z" horiz-adv-x="564" unicode="Ĺ"/>
			<glyph d="M56 714H141V0H56ZM143 922H252L121 779H57Z" horiz-adv-x="191" unicode="ĺ"/>
			<glyph d="M68 714H163V80H541V0H68ZM233 -50H344V-129Q344 -206 245 -210V-175Q285 -167 285 -143V-138H233Z" horiz-adv-x="564" unicode="Ļ"/>
			<glyph d="M56 714H141V0H56ZM48 -50H159V-129Q159 -206 60 -210V-175Q100 -167 100 -143V-138H48Z" horiz-adv-x="207" unicode="ļ"/>
			<glyph d="M68 714H163V80H541V0H68ZM296 714H405L330 571H270Z" horiz-adv-x="564" unicode="Ľ"/>
			<glyph d="M56 714H141V0H56ZM217 714H326L251 571H191Z" horiz-adv-x="265" unicode="ľ"/>
			<glyph d="M68 714H163V80H541V0H68ZM299 517H389V413H299Z" horiz-adv-x="565" unicode="Ŀ"/>
			<glyph d="M56 714H141V0H56ZM206 517H296V413H206Z" horiz-adv-x="326" unicode="ŀ"/>
			<glyph d="M66 714H161V384L389 544V468L161 308V80H539V0H66V240L-13 184V260L66 316Z" horiz-adv-x="563" unicode="Ł"/>
			<glyph d="M59 714H144V460L214 516V445L144 389V0H59V321L-11 266V337L59 393Z" horiz-adv-x="203" unicode="ł"/>
			<glyph d="M68 714H169L545 135H547V714H637V0H533L160 573H158V0H68ZM399 922H508L377 779H313Z" horiz-adv-x="705" unicode="Ń"/>
			<glyph d="M303 529Q481 529 481 344V0H396V353Q396 396 369 425T290 454Q217 454 177 410T138 295V0H53V517H133V435H135Q191 529 303 529ZM317 732H426L295 589H231Z" unicode="ń"/>
			<glyph d="M68 714H169L545 135H547V714H637V0H533L160 573H158V0H68ZM292 -50H403V-129Q403 -206 304 -210V-175Q344 -167 344 -143V-138H292Z" horiz-adv-x="705" unicode="Ņ"/>
			<glyph d="M303 529Q481 529 481 344V0H396V353Q396 396 369 425T290 454Q217 454 177 410T138 295V0H53V517H133V435H135Q191 529 303 529ZM210 -50H321V-129Q321 -206 222 -210V-175Q262 -167 262 -143V-138H210Z" unicode="ņ"/>
			<glyph d="M68 714H169L545 135H547V714H637V0H533L160 573H158V0H68ZM199 922H283L352 826L422 922H499L396 779H303Z" horiz-adv-x="705" unicode="Ň"/>
			<glyph d="M303 529Q481 529 481 344V0H396V353Q396 396 369 425T290 454Q217 454 177 410T138 295V0H53V517H133V435H135Q191 529 303 529ZM118 732H202L271 636L341 732H418L315 589H222Z" unicode="ň"/>
			<glyph d="M328 529Q506 529 506 344V0H421V353Q421 396 394 425T315 454Q242 454 202 410T163 295V0H78V517H158V435H160Q216 529 328 529ZM6 802H117V723Q117 646 18 642V677Q58 685 58 709V714H6Z" horiz-adv-x="560" unicode="ŉ"/>
			<glyph d="M375 731Q530 731 623 625T717 357Q717 191 622 87T375 -17Q221 -17 127 88T33 357Q33 517 125 624T375 731ZM374 651Q260 651 194 568T128 357Q128 226 195 144T375 63Q487 63 554 143T622 357Q622 486 556 568T374 651ZM205 872H546V817H205Z" horiz-adv-x="750" unicode="Ō"/>
			<glyph d="M282 529Q398 529 465 455T533 258Q533 140 465 64T282 -12Q168 -12 99 61T31 258Q31 382 98 455T282 529ZM281 454Q212 454 166 399T121 258Q121 171 166 117T282 63Q352 63 397 116T443 258Q443 345 398 399T281 454ZM115 682H456V627H115Z" horiz-adv-x="564" unicode="ō"/>
			<glyph d="M375 731Q530 731 623 625T717 357Q717 191 622 87T375 -17Q221 -17 127 88T33 357Q33 517 125 624T375 731ZM374 651Q260 651 194 568T128 357Q128 226 195 144T375 63Q487 63 554 143T622 357Q622 486 556 568T374 651ZM220 919H270Q294 836 382 836Q417 836 439 853T481 919H532Q519 851 477 816T374 781Q241 781 220 919Z" horiz-adv-x="750" unicode="Ŏ"/>
			<glyph d="M282 529Q398 529 465 455T533 258Q533 140 465 64T282 -12Q168 -12 99 61T31 258Q31 382 98 455T282 529ZM281 454Q212 454 166 399T121 258Q121 171 166 117T282 63Q352 63 397 116T443 258Q443 345 398 399T281 454ZM126 729H176Q200 646 288 646Q323 646 346 664T387 729H438Q425 662 384 626T280 591Q146 591 126 729Z" horiz-adv-x="564" unicode="ŏ"/>
			<glyph d="M375 731Q530 731 623 625T717 357Q717 191 622 87T375 -17Q221 -17 127 88T33 357Q33 517 125 624T375 731ZM374 651Q260 651 194 568T128 357Q128 226 195 144T375 63Q487 63 554 143T622 357Q622 486 556 568T374 651ZM343 922H448L328 779H262ZM499 922H604L484 779H418Z" horiz-adv-x="750" unicode="Ő"/>
			<glyph d="M282 529Q398 529 465 455T533 258Q533 140 465 64T282 -12Q168 -12 99 61T31 258Q31 382 98 455T282 529ZM281 454Q212 454 166 399T121 258Q121 171 166 117T282 63Q352 63 397 116T443 258Q443 345 398 399T281 454ZM246 732H351L231 589H165ZM402 732H507L387 589H321Z" horiz-adv-x="564" unicode="ő"/>
			<glyph d="M369 731Q428 731 478 709T545 655H547V714H1024V634H642V407H992V327H642V80H1030V0H547V69H545Q518 27 468 5T361 -17Q213 -17 123 84T34 355Q34 525 125 628T369 731ZM369 651Q259 651 194 567T129 351Q129 221 195 142T368 63Q442 63 494 103T547 202V515Q547 552 530 577T471 627T369 651Z" horiz-adv-x="1070" unicode="Œ"/>
			<glyph d="M266 529Q338 529 380 507T445 438Q472 482 521 505T628 529Q739 529 799 458T860 252Q860 239 859 233H484V227Q484 155 524 109T633 63Q685 63 722 90T773 164H854Q803 -12 633 -12Q488 -12 445 90Q401 -10 266 -12Q158 -12 95 60T31 259Q31 383 93 455T266 529ZM266 454Q199 454 160 398T121 249Q121 167 160 115T266 63Q336 63 373 114T410 260Q410 453 266 454ZM627 454Q565 454 525 415T484 308H769Q769 376 730 415T627 454Z" horiz-adv-x="885" unicode="œ"/>
			<glyph d="M68 714H408Q505 714 563 663T621 527Q621 381 497 346V344Q553 334 577 293T606 157Q608 94 617 59T646 0H540Q531 12 528 23T523 55L519 133Q517 202 492 253T398 305H163V0H68ZM163 634V385H366Q526 385 526 512Q526 570 494 602T403 634ZM360 922H469L338 779H274Z" horiz-adv-x="674" unicode="Ŕ"/>
			<glyph d="M313 529H325V439Q229 439 183 388T138 231V0H53V517H133V408H135Q194 529 313 529ZM158 732H267L136 589H72Z" horiz-adv-x="323" unicode="ŕ"/>
			<glyph d="M68 714H408Q505 714 563 663T621 527Q621 381 497 346V344Q553 334 577 293T606 157Q608 94 617 59T646 0H540Q531 12 528 23T523 55L519 133Q517 202 492 253T398 305H163V0H68ZM163 634V385H366Q526 385 526 512Q526 570 494 602T403 634ZM285 -50H396V-129Q396 -206 297 -210V-175Q337 -167 337 -143V-138H285Z" horiz-adv-x="674" unicode="Ŗ"/>
			<glyph d="M313 529H325V439Q229 439 183 388T138 231V0H53V517H133V408H135Q194 529 313 529ZM47 -50H158V-129Q158 -206 59 -210V-175Q99 -167 99 -143V-138H47Z" horiz-adv-x="330" unicode="ŗ"/>
			<glyph d="M68 714H408Q505 714 563 663T621 527Q621 381 497 346V344Q553 334 577 293T606 157Q608 94 617 59T646 0H540Q531 12 528 23T523 55L519 133Q517 202 492 253T398 305H163V0H68ZM163 634V385H366Q526 385 526 512Q526 570 494 602T403 634ZM181 922H265L334 826L404 922H481L378 779H285Z" horiz-adv-x="674" unicode="Ř"/>
			<glyph d="M313 529H325V439Q229 439 183 388T138 231V0H53V517H133V408H135Q194 529 313 529ZM26 732H110L179 636L249 732H326L223 589H130Z" horiz-adv-x="318" unicode="ř"/>
			<glyph d="M309 731Q430 731 501 671T572 505H482Q466 651 305 651Q228 651 186 619T145 529Q145 492 176 464T374 402Q489 379 545 330T602 196Q602 96 520 40T323 -17Q188 -17 108 50T28 235H118Q119 152 176 107T326 63Q413 63 460 96T507 193Q507 245 461 275T306 327Q149 358 99 403T50 522Q50 617 121 674T309 731ZM358 922H467L336 779H272Z" horiz-adv-x="631" unicode="Ś"/>
			<glyph d="M231 529Q336 529 386 488T442 367H357V368Q353 410 320 432T237 454Q186 454 156 437T127 388Q127 359 153 341T232 312L312 294Q387 277 426 243T465 151Q465 74 406 31T245 -12Q146 -12 88 31T26 163H111Q113 115 149 89T250 63Q375 63 375 140Q375 174 344 194T214 235Q119 254 78 288T37 382Q37 448 89 488T231 529ZM285 732H394L263 589H199Z" horiz-adv-x="492" unicode="ś"/>
			<glyph d="M309 731Q430 731 501 671T572 505H482Q466 651 305 651Q228 651 186 619T145 529Q145 492 176 464T374 402Q489 379 545 330T602 196Q602 96 520 40T323 -17Q188 -17 108 50T28 235H118Q119 152 176 107T326 63Q413 63 460 96T507 193Q507 245 461 275T306 327Q149 358 99 403T50 522Q50 617 121 674T309 731ZM269 922H362L466 779H382L313 875L243 779H166Z" horiz-adv-x="631" unicode="Ŝ"/>
			<glyph d="M231 529Q336 529 386 488T442 367H357V368Q353 410 320 432T237 454Q186 454 156 437T127 388Q127 359 153 341T232 312L312 294Q387 277 426 243T465 151Q465 74 406 31T245 -12Q146 -12 88 31T26 163H111Q113 115 149 89T250 63Q375 63 375 140Q375 174 344 194T214 235Q119 254 78 288T37 382Q37 448 89 488T231 529ZM201 732H294L398 589H314L245 685L175 589H98Z" horiz-adv-x="492" unicode="ŝ"/>
			<glyph d="M309 731Q428 731 497 673T572 505H482Q466 651 305 651Q228 651 186 619T145 529Q145 489 178 461T374 402Q489 379 545 330T602 196Q602 101 523 42T317 -17L289 -53L291 -55Q304 -48 324 -48Q361 -48 384 -68T408 -121Q408 -164 373 -187T284 -210Q235 -210 192 -191L210 -147Q245 -160 275 -160Q333 -160 333 -129Q333 -115 319 -106T286 -98Q266 -98 245 -106L228 -78L277 -14Q156 0 92 64T28 235H118Q119 152 176 107T326 63Q413 63 460 96T507 193Q507 245 461 275T306 327Q149 358 99 403T50 522Q50 617 122 674T309 731Z" horiz-adv-x="631" unicode="Ş"/>
			<glyph d="M231 529Q336 529 386 488T442 367H357V368Q353 410 321 432T237 454Q186 454 156 437T127 388Q127 359 153 341T232 312L312 294Q387 277 426 243T465 151Q465 78 412 35T252 -12L220 -53L222 -55Q235 -48 255 -48Q292 -48 315 -68T339 -121Q339 -163 304 -186T215 -210Q170 -210 123 -191L141 -147Q174 -160 206 -160Q264 -160 264 -129Q264 -115 251 -106T217 -98Q196 -98 176 -106L159 -78L212 -10Q32 6 26 163H111Q113 115 149 89T250 63Q375 63 375 140Q375 175 343 195T214 235Q116 255 76 289T37 382Q37 447 90 488T231 529Z" horiz-adv-x="492" unicode="ş"/>
			<glyph d="M309 731Q430 731 501 671T572 505H482Q466 651 305 651Q228 651 186 619T145 529Q145 492 176 464T374 402Q489 379 545 330T602 196Q602 96 520 40T323 -17Q188 -17 108 50T28 235H118Q119 152 176 107T326 63Q413 63 460 96T507 193Q507 245 461 275T306 327Q149 358 99 403T50 522Q50 617 121 674T309 731ZM167 922H251L320 826L390 922H467L364 779H271Z" horiz-adv-x="631" unicode="Š"/>
			<glyph d="M231 529Q336 529 386 488T442 367H357V368Q353 410 320 432T237 454Q186 454 156 437T127 388Q127 359 153 341T232 312L312 294Q387 277 426 243T465 151Q465 74 406 31T245 -12Q146 -12 88 31T26 163H111Q113 115 149 89T250 63Q375 63 375 140Q375 174 344 194T214 235Q119 254 78 288T37 382Q37 448 89 488T231 529ZM98 732H182L251 636L321 732H398L295 589H202Z" horiz-adv-x="492" unicode="š"/>
			<glyph d="M23 714H594V634H356V0H261V634H23ZM252 -50H363V-129Q363 -206 264 -210V-175Q304 -167 304 -143V-138H252Z" horiz-adv-x="617" unicode="Ţ"/>
			<glyph d="M91 672H176V517H279V442H176V118Q176 95 185 85T230 75H279V0H209Q143 0 117 22T91 108V442H3V517H91ZM125 -50H236V-129Q236 -206 137 -210V-175Q177 -167 177 -143V-138H125Z" horiz-adv-x="300" unicode="ţ"/>
			<glyph d="M23 714H594V634H356V0H261V634H23ZM156 922H240L309 826L379 922H456L353 779H260Z" horiz-adv-x="617" unicode="Ť"/>
			<glyph d="M91 672H176V517H279V442H176V118Q176 95 185 85T230 75H279V0H209Q143 0 117 22T91 108V442H3V517H91ZM300 714H409L334 571H274Z" horiz-adv-x="348" unicode="ť"/>
			<glyph d="M23 714H594V634H356V486H500V431H356V0H261V431H119V486H261V634H23Z" horiz-adv-x="617" unicode="Ŧ"/>
			<glyph d="M90 672H175V517H278V442H175V346H288V291H175V118Q175 95 184 85T229 75H278V0H208Q142 0 116 22T90 108V291H-8V346H90V442H2V517H90Z" horiz-adv-x="299" unicode="ŧ"/>
			<glyph d="M62 714H157V254Q157 166 206 114T355 63Q448 63 494 115T541 254V714H636V253Q636 123 563 53T355 -17Q208 -17 135 53T62 253ZM470 907H522Q503 797 421 796Q403 796 377 804T325 824Q300 835 280 835Q246 835 231 793H179Q203 903 285 903Q315 903 359 883T424 863Q457 863 470 907Z" horiz-adv-x="699" unicode="Ũ"/>
			<glyph d="M53 517H138V165Q138 120 166 91T243 63Q318 63 357 107T396 222V517H481V0H401V82H399Q346 -12 231 -12Q53 -12 53 172ZM387 717H439Q420 608 338 606Q318 606 294 614T242 634T197 645Q163 645 148 603H96Q120 713 202 713Q231 713 276 693Q323 673 341 673Q373 673 387 717Z" unicode="ũ"/>
			<glyph d="M62 714H157V254Q157 166 206 114T355 63Q448 63 494 115T541 254V714H636V253Q636 123 563 53T355 -17Q208 -17 135 53T62 253ZM180 872H521V817H180Z" horiz-adv-x="699" unicode="Ū"/>
			<glyph d="M53 517H138V165Q138 120 166 91T243 63Q318 63 357 107T396 222V517H481V0H401V82H399Q346 -12 231 -12Q53 -12 53 172ZM101 682H442V627H101Z" unicode="ū"/>
			<glyph d="M62 714H157V254Q157 166 206 114T355 63Q448 63 494 115T541 254V714H636V253Q636 123 563 53T355 -17Q208 -17 135 53T62 253ZM188 919H238Q262 836 350 836Q385 836 407 853T449 919H500Q487 851 445 816T342 781Q209 781 188 919Z" horiz-adv-x="699" unicode="Ŭ"/>
			<glyph d="M53 517H138V165Q138 120 166 91T243 63Q318 63 357 107T396 222V517H481V0H401V82H399Q346 -12 231 -12Q53 -12 53 172ZM111 729H161Q185 646 273 646Q308 646 331 664T372 729H423Q410 662 369 626T265 591Q131 591 111 729Z" unicode="ŭ"/>
			<glyph d="M62 714H157V254Q157 166 206 114T355 63Q448 63 494 115T541 254V714H636V253Q636 123 563 53T355 -17Q208 -17 135 53T62 253ZM348 973Q395 973 428 940T461 861Q461 815 428 782T348 749Q301 749 268 782T235 861Q235 908 268 940T348 973ZM347 928Q320 928 300 908T281 860Q281 831 300 811T348 792Q378 792 396 812T415 860Q415 888 396 908T347 928Z" horiz-adv-x="699" unicode="Ů"/>
			<glyph d="M53 517H138V165Q138 120 166 91T243 63Q318 63 357 107T396 222V517H481V0H401V82H399Q346 -12 231 -12Q53 -12 53 172ZM267 793Q314 793 347 760T380 681Q380 635 347 602T267 569Q220 569 187 601T154 681Q154 727 187 760T267 793ZM266 748Q240 748 220 729T200 680Q200 652 218 632T267 612Q297 612 315 632T334 680Q334 708 316 728T266 748Z" unicode="ů"/>
			<glyph d="M62 714H157V254Q157 166 206 114T355 63Q448 63 494 115T541 254V714H636V253Q636 123 563 53T355 -17Q208 -17 135 53T62 253ZM317 922H422L302 779H236ZM473 922H578L458 779H392Z" horiz-adv-x="699" unicode="Ű"/>
			<glyph d="M53 517H138V165Q138 120 166 91T243 63Q318 63 357 107T396 222V517H481V0H401V82H399Q346 -12 231 -12Q53 -12 53 172ZM233 732H338L218 589H152ZM389 732H494L374 589H308Z" horiz-adv-x="516" unicode="ű"/>
			<glyph d="M62 714H157V254Q157 166 206 114T355 63Q448 63 494 115T541 254V714H636V253Q636 137 575 66T392 -15Q326 -73 326 -118Q326 -160 367 -160Q401 -160 426 -130L458 -148Q423 -210 350 -210Q307 -210 282 -190T258 -134Q258 -73 343 -17Q202 -14 132 55T62 253Z" horiz-adv-x="699" unicode="Ų"/>
			<glyph d="M53 517H138V165Q138 120 166 91T243 63Q318 63 357 108T396 222V517H481V0H441Q357 -67 357 -118Q357 -160 398 -160Q435 -160 457 -130L489 -148Q454 -210 381 -210Q338 -210 313 -190T289 -134Q289 -64 401 0V82H399Q346 -12 231 -12Q53 -12 53 172Z" horiz-adv-x="533" unicode="ų"/>
			<glyph d="M-1 714H96L236 120H238L398 714H501L659 120H661L806 714H901L710 0H611L448 600H446L281 0H182ZM403 922H496L600 779H516L447 875L377 779H300Z" horiz-adv-x="902" unicode="Ŵ"/>
			<glyph d="M8 517H102L219 94H221L325 517H418L527 94H528L644 517H732L568 1L567 0H477L371 411H370L266 0H174ZM327 732H420L524 589H440L371 685L301 589H224Z" horiz-adv-x="740" unicode="ŵ"/>
			<glyph d="M-5 714H108L322 374L531 714H639L366 292V0H271V292ZM275 922H368L472 779H388L319 875L249 779H172Z" horiz-adv-x="634" unicode="Ŷ"/>
			<glyph d="M0 517H96L247 94H249L394 517H484L264 -55Q229 -148 196 -177T109 -207Q75 -207 50 -198V-120Q86 -132 100 -132Q153 -132 172 -80L205 3ZM201 732H294L398 589H314L245 685L175 589H98Z" horiz-adv-x="492" unicode="ŷ"/>
			<glyph d="M-5 714H108L322 374L531 714H639L366 292V0H271V292ZM182 897H272V793H182ZM370 897H460V793H370Z" horiz-adv-x="634" unicode="Ÿ"/>
			<glyph d="M58 714H580V634L137 80H592V0H24V80L468 634H58ZM359 922H468L337 779H273Z" horiz-adv-x="616" unicode="Ź"/>
			<glyph d="M38 517H440V459L124 75H454V0H18V65L330 442H38ZM287 732H396L265 589H201Z" horiz-adv-x="469" unicode="ź"/>
			<glyph d="M58 714H580V634L137 80H592V0H24V80L468 634H58ZM271 897H361V793H271Z" horiz-adv-x="616" unicode="Ż"/>
			<glyph d="M38 517H440V459L124 75H454V0H18V65L330 442H38ZM196 708H286V604H196Z" horiz-adv-x="469" unicode="ż"/>
			<glyph d="M58 714H580V634L137 80H592V0H24V80L468 634H58ZM165 922H249L318 826L388 922H465L362 779H269Z" horiz-adv-x="616" unicode="Ž"/>
			<glyph d="M38 517H440V459L124 75H454V0H18V65L330 442H38ZM87 732H171L240 636L310 732H387L284 589H191Z" horiz-adv-x="469" unicode="ž"/>
			<glyph d="M421 714H488L474 639H414Q364 639 354 589L322 449H424L410 381H310L256 75Q231 -66 190 -115T69 -165H-1L13 -90H47Q130 -90 143 -29L222 381H130L143 449H234L260 584Q286 714 421 714Z" horiz-adv-x="542" unicode="ƒ"/>
			<glyph d="M309 731Q430 731 501 671T572 505H482Q466 651 305 651Q228 651 186 619T145 529Q145 492 176 464T374 402Q489 379 545 330T602 196Q602 96 520 40T323 -17Q188 -17 108 50T28 235H118Q119 152 176 107T326 63Q413 63 460 96T507 193Q507 245 461 275T306 327Q149 358 99 403T50 522Q50 617 121 674T309 731ZM261 -50H372V-129Q372 -206 273 -210V-175Q313 -167 313 -143V-138H261Z" horiz-adv-x="631" unicode="Ș"/>
			<glyph d="M231 529Q336 529 386 488T442 367H357V368Q353 410 320 432T237 454Q186 454 156 437T127 388Q127 359 153 341T232 312L312 294Q387 277 426 243T465 151Q465 74 406 31T245 -12Q146 -12 88 31T26 163H111Q113 115 149 89T250 63Q375 63 375 140Q375 174 344 194T214 235Q119 254 78 288T37 382Q37 448 89 488T231 529ZM191 -50H302V-129Q302 -206 203 -210V-175Q243 -167 243 -143V-138H191Z" horiz-adv-x="492" unicode="ș"/>
			<glyph d="M-2 714H569V634H331V0H236V634H-2ZM228 -50H339V-129Q339 -206 240 -210V-175Q280 -167 280 -143V-138H228Z" horiz-adv-x="569" unicode="Ț"/>
			<glyph d="M91 672H176V517H279V442H176V118Q176 95 185 85T230 75H279V0H209Q143 0 117 22T91 108V442H3V517H91ZM124 -50H235V-129Q235 -206 136 -210V-175Q176 -167 176 -143V-138H124Z" horiz-adv-x="300" unicode="ț"/>
			<glyph d="M49 732H142L246 589H162L93 685L23 589H-54Z" horiz-adv-x="189" unicode="ˆ"/>
			<glyph d="M-58 732H26L95 636L165 732H242L139 589H46Z" horiz-adv-x="189" unicode="ˇ"/>
			<glyph d="M-70 682H271V627H-70Z" horiz-adv-x="201" unicode="ˉ"/>
			<glyph d="M-51 729H-1Q23 646 111 646Q146 646 169 664T210 729H261Q248 662 207 626T103 591Q-31 591 -51 729Z" horiz-adv-x="211" unicode="˘"/>
			<glyph d="M56 708H146V604H56Z" horiz-adv-x="202" unicode="˙"/>
			<glyph d="M103 793Q150 793 183 760T216 681Q216 635 183 602T103 569Q56 569 23 601T-10 681Q-10 727 23 760T103 793ZM102 748Q76 748 56 729T36 680Q36 652 54 632T103 612Q133 612 151 632T170 680Q170 708 152 728T102 748Z" horiz-adv-x="205" unicode="˚"/>
			<glyph d="M140 0H180Q140 -33 118 -61T96 -118Q97 -159 137 -160Q173 -160 196 -130L228 -148Q193 -210 120 -210Q77 -210 53 -191T28 -134Q28 -65 140 0Z" horiz-adv-x="196" unicode="˛"/>
			<glyph d="M226 717H278Q259 608 177 606Q157 606 133 614T81 634T36 645Q2 645 -13 603H-65Q-41 713 41 713Q70 713 115 693Q162 673 180 673Q212 673 226 717Z" horiz-adv-x="214" unicode="˜"/>
			<glyph d="M36 732H141L21 589H-45ZM192 732H297L177 589H111Z" horiz-adv-x="170" unicode="˝"/>
			<glyph d="M287 712H370L657 0H8ZM328 627L115 72H545Z" horiz-adv-x="664" unicode="Δ"/>
			<glyph d="M364 721Q451 721 524 681T641 571T684 415Q684 316 633 240T492 139V67H684V0H428V183Q515 200 559 261T604 410Q604 513 535 581T364 649Q260 649 191 580T123 410Q123 322 169 259T300 183V0H43V67H236V139Q148 164 95 238T43 413Q43 498 84 568T201 679T364 721Z" horiz-adv-x="738" unicode="Ω"/>
			<glyph d="M53 517H138V164Q138 119 165 91T241 63Q311 63 352 107T393 222V517H478V0H398V82H396Q339 -12 239 -12Q173 -12 140 23H138V-198H53Z" unicode="μ"/>
			<glyph d="M-3 479H538V410H462V108Q462 91 468 74T500 58Q510 58 520 60T542 68V11Q524 3 508 -1T473 -6Q429 -6 408 16T387 109V410H141V0H66V410H-3Z" horiz-adv-x="561" unicode="π"/>
			<glyph d="M-4 318H496V238H-4Z" horiz-adv-x="492" unicode="–"/>
			<glyph d="M126 318H866V238H126Z" horiz-adv-x="992" unicode="—"/>
			<glyph d="M208 714V664Q152 663 150 567H209V456H98V560Q98 631 126 672T208 714Z" horiz-adv-x="307" unicode="‘"/>
			<glyph d="M98 714H209V599Q209 533 178 494T99 456V506Q155 507 157 603H98Z" horiz-adv-x="307" unicode="’"/>
			<glyph d="M98 111H209V-3Q209 -69 180 -107T99 -147V-97Q155 -96 157 0H98Z" horiz-adv-x="307" unicode="‚"/>
			<glyph d="M208 714V664Q154 663 150 567H209V456H98V562Q98 631 126 672T208 714ZM391 714V664Q335 664 333 567H392V456H281V566Q281 631 309 672T391 714Z" horiz-adv-x="490" unicode="“"/>
			<glyph d="M98 714H209V599Q209 533 179 494T99 456V506Q155 507 157 603H98ZM281 714H392V600Q392 533 362 494T282 456V506Q338 507 340 603H281Z" horiz-adv-x="490" unicode="”"/>
			<glyph d="M98 111H209V1Q209 -68 180 -107T99 -147V-97Q155 -96 157 0H98ZM281 111H392V1Q392 -66 364 -106T282 -147V-97Q338 -96 340 0H281Z" horiz-adv-x="490" unicode="„"/>
			<glyph d="M229 714H309V517H507V442H309V-155H229V442H35V517H229Z" horiz-adv-x="543" unicode="†"/>
			<glyph d="M229 714H309V517H507V442H309V117H507V42H309V-155H229V42H35V117H229V442H35V517H229Z" horiz-adv-x="543" unicode="‡"/>
			<glyph d="M246 535Q321 535 373 482T425 357Q425 286 373 232T246 178Q169 178 118 231T68 357Q68 431 119 482Q169 535 246 535Z" horiz-adv-x="492" unicode="•"/>
			<glyph d="M107 111H218V0H107ZM440 111H551V0H440ZM773 111H884V0H773Z" horiz-adv-x="993" unicode="…"/>
			<glyph d="M618 722H703L166 -22H80ZM210 709Q282 709 319 665T356 540Q356 462 317 415T208 368Q136 368 99 412T62 535Q62 619 100 664T210 709ZM213 654Q176 654 156 622T137 538Q137 423 209 423Q244 423 262 453T281 537Q281 590 264 622T213 654ZM575 329Q647 329 684 285T721 161Q721 83 682 35T573 -12Q503 -12 465 31T427 155Q427 237 464 283T575 329ZM920 329Q992 329 1029 285T1066 161Q1066 79 1026 33T918 -12Q849 -12 810 29T772 155Q772 240 809 284T920 329ZM577 274Q544 274 523 244T502 158Q502 43 574 43Q646 43 646 157Q646 211 628 242T577 274ZM923 274Q887 274 867 243T847 158Q847 43 919 43Q991 43 991 157Q991 210 974 242T923 274Z" horiz-adv-x="1126" unicode="‰"/>
			<glyph d="M197 442V356L97 278L197 200V114L45 234V322Z" horiz-adv-x="255" unicode="‹"/>
			<glyph d="M57 442L209 322V234L57 114V200L157 278L57 356Z" horiz-adv-x="255" unicode="›"/>
			<glyph d="M265 725H329L-106 -28H-170Z" horiz-adv-x="158" unicode="⁄"/>
			<glyph d="M375 725Q466 725 556 663L510 579Q439 648 367 648Q299 648 252 595T187 450H470L443 389H180Q179 382 179 363Q179 345 180 337H429L403 276H185Q218 61 375 61Q427 61 459 79T529 133V28Q462 -15 375 -16Q131 -16 88 276H11L39 337H84Q83 342 83 362Q83 383 84 389H11L37 450H91Q116 580 189 651T375 725ZZ" horiz-adv-x="545" unicode="€"/>
			<glyph d="M270 721Q316 721 348 687T380 593Q380 452 209 275V122Q209 84 229 61T284 38Q330 38 372 76H374L398 41Q339 -14 268 -14Q211 -14 176 19T141 110V228L83 166H81L55 203L141 287V550Q141 625 177 673T270 721ZM270 673Q242 673 225 641T209 561V335Q263 397 293 464T323 588Q323 626 308 649T270 673Z" horiz-adv-x="470" unicode="ℓ"/>
			<glyph d="M70 714H396V659H267V302H199V659H70ZM480 714H585L708 401L829 714H933V302H865V646H863L728 302H685L550 646H548V302H480Z" horiz-adv-x="1008" unicode="™"/>
			<glyph d="M364 721Q451 721 524 681T641 571T684 415Q684 316 633 240T492 139V67H684V0H428V183Q515 200 559 261T604 410Q604 513 535 581T364 649Q260 649 191 580T123 410Q123 322 169 259T300 183V0H43V67H236V139Q148 164 95 238T43 413Q43 498 84 568T201 679T364 721Z" horiz-adv-x="738" unicode="Ω"/>
			<glyph d="M298 535Q410 535 483 459T557 259H153V78Q182 49 218 34T298 19Q361 19 407 47T491 139L526 118Q480 46 428 14T298 -17Q186 -17 113 61T40 259Q40 381 113 458T298 535ZM296 500Q256 500 220 485T153 440V295H444V440Q413 469 376 484T296 500Z" horiz-adv-x="592" unicode="℮"/>
			<glyph d="M217 721Q340 721 404 621T468 361Q468 180 408 84T236 -12Q147 -12 89 52T32 213Q32 307 88 367T231 427Q327 427 392 352L393 398Q393 514 344 586T220 658Q164 658 106 611L64 661Q133 721 217 721ZM239 365Q180 365 143 320T106 210Q106 140 144 94T238 48Q306 48 347 117T388 280Q323 365 239 365Z" horiz-adv-x="506" unicode="∂"/>
			<glyph d="M287 712H370L657 0H8ZM328 627L115 72H545Z" horiz-adv-x="664" unicode="∆"/>
			<glyph d="M59 786H641V-214H563V714H137V-214H59Z" horiz-adv-x="702" unicode="∏"/>
			<glyph d="M36 786H574V714H137L438 290L119 -142H586V-214H22V-150L344 290L36 722Z" horiz-adv-x="608" unicode="∑"/>
			<glyph d="M44 287H548V219H44Z" horiz-adv-x="592" unicode="−"/>
			<glyph d="M265 725H329L-106 -28H-170Z" horiz-adv-x="158" unicode="∕"/>
			<glyph d="M131 375Q159 375 177 355T195 311Q195 286 176 266T132 247Q106 247 86 266T67 311Q67 338 86 356T131 375Z" horiz-adv-x="262" unicode="∙"/>
			<glyph d="M434 786H510L299 -214H224L62 120L15 98L-13 158L99 210L250 -107Z" horiz-adv-x="496" unicode="√"/>
			<glyph d="M566 410Q631 410 672 366T714 255Q714 186 673 142T567 98Q524 98 479 121T377 207Q302 138 264 118T190 99Q121 99 80 141T39 252Q39 318 79 363T184 408Q230 408 273 382T377 294Q447 367 487 388T566 410ZM566 342Q537 342 507 323T420 251Q470 203 503 184T570 166Q606 166 627 190T649 252Q649 292 627 317T566 342ZM184 341Q148 341 126 315T104 252Q104 214 126 190T187 166Q251 166 334 251Q240 341 184 341Z" horiz-adv-x="753" unicode="∞"/>
			<glyph d="M328 786Q360 786 384 771T408 730Q408 713 395 702T366 692Q344 692 325 723Q317 735 310 735Q279 735 279 641L281 555V7Q281 -113 249 -163T155 -213Q128 -213 107 -199T86 -161Q86 -146 97 -135T123 -125Q143 -125 155 -146Q168 -167 175 -167Q204 -167 204 -54L202 567Q202 687 232 736T328 786Z" horiz-adv-x="530" unicode="∫"/>
			<glyph d="M503 415H553Q545 345 510 307T423 269Q370 269 280 304T152 340Q120 340 100 316T76 263H25Q34 334 67 372T154 411Q204 411 293 375T428 340Q462 340 479 362T503 415ZM502 234H552Q544 164 511 126T423 89Q384 89 328 107T226 143T151 161Q119 161 99 136T76 83H24Q35 154 67 192T153 231Q204 231 293 195T427 160Q461 160 478 182T502 234Z" horiz-adv-x="578" unicode="≈"/>
			<glyph d="M395 532L456 500L395 384H541V313H358L291 186H541V114H254L179 -31L177 -32L116 0L175 114H34V186H212L279 313H34V384H317L393 531Z" horiz-adv-x="575" unicode="≠"/>
			<glyph d="M541 528V450L133 304L541 159V82L34 266V341ZM34 42H541V-30H34Z" horiz-adv-x="575" unicode="≤"/>
			<glyph d="M34 528L541 341V266L34 82V159L442 304L34 450ZM34 42H541V-30H34Z" horiz-adv-x="575" unicode="≥"/>
			<glyph d="M243 747H315L487 356L315 -35H243L72 356ZM279 671L148 356L279 41L411 356Z" horiz-adv-x="559" unicode="◊"/>
			<glyph d="M53 517H138V-69Q138 -134 105 -166T14 -198Q-11 -198 -30 -194V-121Q-23 -123 -2 -123Q11 -123 24 -120T45 -104T53 -56Z" horiz-adv-x="198" unicode=""/>
			<glyph d="M-41 922H68L154 779H90Z" horiz-adv-x="191" unicode=""/>
			<glyph d="M123 922H232L101 779H37Z" horiz-adv-x="191" unicode=""/>
			<glyph d="M49 922H142L246 779H162L93 875L23 779H-54Z" horiz-adv-x="189" unicode=""/>
			<glyph d="M-58 922H26L95 826L165 922H242L139 779H46Z" horiz-adv-x="189" unicode=""/>
			<glyph d="M226 907H278Q259 797 177 796Q159 796 133 804T81 824Q56 835 36 835Q2 835 -13 793H-65Q-41 903 41 903Q71 903 115 883T180 863Q213 863 226 907Z" horiz-adv-x="214" unicode=""/>
			<glyph d="M-37 897H53V793H-37ZM151 897H241V793H151Z" horiz-adv-x="204" unicode=""/>
			<glyph d="M-70 872H271V817H-70Z" horiz-adv-x="201" unicode=""/>
			<glyph d="M-51 919H-1Q23 836 111 836Q146 836 168 853T210 919H261Q248 851 206 816T103 781Q-30 781 -51 919Z" horiz-adv-x="211" unicode=""/>
			<glyph d="M103 973Q150 973 183 940T216 861Q216 815 183 782T103 749Q56 749 23 782T-10 861Q-10 908 23 940T103 973ZM102 928Q75 928 55 908T36 860Q36 831 55 811T103 792Q133 792 151 812T170 860Q170 888 151 908T102 928Z" horiz-adv-x="205" unicode=""/>
			<glyph d="M36 922H141L21 779H-45ZM192 922H297L177 779H111Z" horiz-adv-x="170" unicode=""/>
			<glyph d="M56 897H146V793H56Z" horiz-adv-x="202" unicode=""/>
			<glyph d="M109 714H218L143 571H83Z" horiz-adv-x="188" unicode=""/>
			<glyph d="M85 -50H196V-129Q196 -206 97 -210V-175Q137 -167 137 -143V-138H85Z" horiz-adv-x="274" unicode=""/>
			<glyph d="M180 786V751Q140 741 140 717V714H192V626H81V704Q82 784 180 786Z" horiz-adv-x="274" unicode=""/>
			<glyph d="M-4 718H508V0H-4ZM46 667V50H458V667ZM255 609Q309 609 344 573T379 478Q379 446 367 421T315 357Q281 326 274 311Q267 294 267 234H221L219 253Q219 300 230 328T282 395Q328 436 328 474Q328 508 304 533T252 559Q182 559 170 464L120 472Q134 609 255 609ZM218 184H274V117H218Z" horiz-adv-x="504" unicode=""/>
			<glyph d="M229 722Q261 722 285 714V640Q267 647 237 647Q172 647 172 591V517H272V442H172V0H87V442H0V517H87V598Q87 655 122 688T229 722ZM351 714H436V610H351ZM351 517H436V0H351Z" horiz-adv-x="494" unicode="ﬁ"/>
			<glyph d="M229 722Q261 722 285 714V640Q267 647 237 647Q172 647 172 591V517H272V442H172V0H87V442H0V517H87V598Q87 655 122 688T229 722ZM352 714H437V0H352Z" horiz-adv-x="494" unicode="ﬂ"/>
		</font>
</defs>
</svg>
