<?xml version="1.0" encoding="UTF-8" standalone="no"?>
<!DOCTYPE svg PUBLIC "-//W3C//DTD SVG 1.1//EN"
 "http://www.w3.org/Graphics/SVG/1.1/DTD/svg11.dtd">
<!-- Generated by graphviz version 2.47.0 (20210316.0004)
 -->
<!-- Title: dependencies Pages: 1 -->
<svg width="802pt" height="284pt"
 viewBox="0.00 0.00 802.00 284.00" xmlns="http://www.w3.org/2000/svg" xmlns:xlink="http://www.w3.org/1999/xlink">
<g id="graph0" class="graph" transform="scale(1 1) rotate(0) translate(4 280)">
<title>dependencies</title>
<polygon fill="white" stroke="transparent" points="-4,4 -4,-280 798,-280 798,4 -4,4"/>
<text text-anchor="start" x="376.01" y="-42.4" font-family="Times-12" font-weight="bold" font-size="14.00">Legend</text>
<polygon fill="#ffffb3" stroke="transparent" points="163,-10 163,-30 183,-30 183,-10 163,-10"/>
<text text-anchor="start" x="186.63" y="-15.4" font-family="Times-12" font-size="14.00"> &#160;Declarations</text>
<polygon fill="#8dd3c7" stroke="transparent" points="276,-10 276,-30 296,-30 296,-10 276,-10"/>
<text text-anchor="start" x="299.73" y="-15.4" font-family="Times-12" font-size="14.00"> &#160;Module</text>
<polygon fill="#80b1d3" stroke="transparent" points="362,-10 362,-30 382,-30 382,-10 362,-10"/>
<text text-anchor="start" x="385.78" y="-15.4" font-family="Times-12" font-size="14.00"> &#160;Bootstrap</text>
<polygon fill="#fdb462" stroke="transparent" points="459,-10 459,-30 479,-30 479,-10 459,-10"/>
<text text-anchor="start" x="482.67" y="-15.4" font-family="Times-12" font-size="14.00"> &#160;Providers</text>
<polygon fill="#fb8072" stroke="transparent" points="555,-10 555,-30 575,-30 575,-10 555,-10"/>
<text text-anchor="start" x="578.73" y="-15.4" font-family="Times-12" font-size="14.00"> &#160;Exports</text>
<g id="clust1" class="cluster">
<title>cluster_TagModule</title>
<polygon fill="none" stroke="black" stroke-dasharray="1,5" points="8,-70 8,-268 786,-268 786,-70 8,-70"/>
</g>
<g id="clust2" class="cluster">
<title>cluster_TagModule_declarations</title>
<polygon fill="none" stroke="black" points="124,-78 124,-130 778,-130 778,-78 124,-78"/>
</g>
<g id="clust9" class="cluster">
<title>cluster_TagModule_exports</title>
<polygon fill="none" stroke="black" points="63,-208 63,-260 731,-260 731,-208 63,-208"/>
</g>
<g id="clust8" class="cluster">
<title>cluster_TagModule_imports</title>
<polygon fill="none" stroke="black" points="16,-78 16,-130 116,-130 116,-78 16,-78"/>
</g>
<!-- Tag -->
<g id="node1" class="node">
<title>Tag</title>
<polygon fill="#ffffb3" stroke="black" points="770,-122 716,-122 716,-86 770,-86 770,-122"/>
<text text-anchor="middle" x="743" y="-99.8" font-family="Times,serif" font-size="14.00">Tag</text>
</g>
<!-- TagModule -->
<g id="node6" class="node">
<title>TagModule</title>
<polygon fill="#8dd3c7" stroke="black" points="542.82,-187 539.82,-191 518.82,-191 515.82,-187 461.18,-187 461.18,-151 542.82,-151 542.82,-187"/>
<text text-anchor="middle" x="502" y="-164.8" font-family="Times,serif" font-size="14.00">TagModule</text>
</g>
<!-- Tag&#45;&gt;TagModule -->
<g id="edge1" class="edge">
<title>Tag&#45;&gt;TagModule</title>
<path fill="none" stroke="black" d="M719.5,-122.27C719.5,-140.56 719.5,-166 719.5,-166 719.5,-166 552.91,-166 552.91,-166"/>
<polygon fill="black" stroke="black" points="552.91,-162.5 542.91,-166 552.91,-169.5 552.91,-162.5"/>
</g>
<!-- TagFilter -->
<g id="node2" class="node">
<title>TagFilter</title>
<polygon fill="#ffffb3" stroke="black" points="698.1,-122 629.9,-122 629.9,-86 698.1,-86 698.1,-122"/>
<text text-anchor="middle" x="664" y="-99.8" font-family="Times,serif" font-size="14.00">TagFilter</text>
</g>
<!-- TagFilter&#45;&gt;TagModule -->
<g id="edge2" class="edge">
<title>TagFilter&#45;&gt;TagModule</title>
<path fill="none" stroke="black" d="M640.38,-122.01C640.38,-138.05 640.38,-159 640.38,-159 640.38,-159 552.77,-159 552.77,-159"/>
<polygon fill="black" stroke="black" points="552.77,-155.5 542.77,-159 552.77,-162.5 552.77,-155.5"/>
</g>
<!-- TagIconDirective -->
<g id="node3" class="node">
<title>TagIconDirective</title>
<polygon fill="#ffffb3" stroke="black" points="612.23,-122 497.77,-122 497.77,-86 612.23,-86 612.23,-122"/>
<text text-anchor="middle" x="555" y="-99.8" font-family="Times,serif" font-size="14.00">TagIconDirective</text>
</g>
<!-- TagIconDirective&#45;&gt;TagModule -->
<g id="edge3" class="edge">
<title>TagIconDirective&#45;&gt;TagModule</title>
<path fill="none" stroke="black" d="M520.15,-122.11C520.15,-122.11 520.15,-140.99 520.15,-140.99"/>
<polygon fill="black" stroke="black" points="516.65,-140.99 520.15,-150.99 523.65,-140.99 516.65,-140.99"/>
</g>
<!-- TagOperationalComponent -->
<g id="node4" class="node">
<title>TagOperationalComponent</title>
<polygon fill="#ffffb3" stroke="black" points="479.68,-122 310.32,-122 310.32,-86 479.68,-86 479.68,-122"/>
<text text-anchor="middle" x="395" y="-99.8" font-family="Times,serif" font-size="14.00">TagOperationalComponent</text>
</g>
<!-- TagOperationalComponent&#45;&gt;TagModule -->
<g id="edge4" class="edge">
<title>TagOperationalComponent&#45;&gt;TagModule</title>
<path fill="none" stroke="black" d="M470.47,-122.11C470.47,-122.11 470.47,-140.99 470.47,-140.99"/>
<polygon fill="black" stroke="black" points="466.97,-140.99 470.47,-150.99 473.97,-140.99 466.97,-140.99"/>
</g>
<!-- TagSelectableComponent -->
<g id="node5" class="node">
<title>TagSelectableComponent</title>
<polygon fill="#ffffb3" stroke="black" points="292.13,-122 131.87,-122 131.87,-86 292.13,-86 292.13,-122"/>
<text text-anchor="middle" x="212" y="-99.8" font-family="Times,serif" font-size="14.00">TagSelectableComponent</text>
</g>
<!-- TagSelectableComponent&#45;&gt;TagModule -->
<g id="edge5" class="edge">
<title>TagSelectableComponent&#45;&gt;TagModule</title>
<path fill="none" stroke="black" d="M272.49,-122.01C272.49,-138.05 272.49,-159 272.49,-159 272.49,-159 451.23,-159 451.23,-159"/>
<polygon fill="black" stroke="black" points="451.23,-162.5 461.23,-159 451.23,-155.5 451.23,-162.5"/>
</g>
<!-- Tag  -->
<g id="node8" class="node">
<title>Tag </title>
<polygon fill="#fb8072" stroke="black" points="723,-252 669,-252 669,-216 723,-216 723,-252"/>
<text text-anchor="middle" x="696" y="-229.8" font-family="Times,serif" font-size="14.00">Tag </text>
</g>
<!-- TagModule&#45;&gt;Tag  -->
<g id="edge7" class="edge">
<title>TagModule&#45;&gt;Tag </title>
<path fill="none" stroke="black" stroke-dasharray="5,2" d="M542.74,-173C596.26,-173 683.52,-173 683.52,-173 683.52,-173 683.52,-205.7 683.52,-205.7"/>
<polygon fill="black" stroke="black" points="680.02,-205.7 683.52,-215.7 687.02,-205.7 680.02,-205.7"/>
</g>
<!-- TagFilter  -->
<g id="node9" class="node">
<title>TagFilter </title>
<polygon fill="#fb8072" stroke="black" points="650.6,-252 579.4,-252 579.4,-216 650.6,-216 650.6,-252"/>
<text text-anchor="middle" x="615" y="-229.8" font-family="Times,serif" font-size="14.00">TagFilter </text>
</g>
<!-- TagModule&#45;&gt;TagFilter  -->
<g id="edge8" class="edge">
<title>TagModule&#45;&gt;TagFilter </title>
<path fill="none" stroke="black" stroke-dasharray="5,2" d="M542.86,-180C568.13,-180 595.78,-180 595.78,-180 595.78,-180 595.78,-205.72 595.78,-205.72"/>
<polygon fill="black" stroke="black" points="592.28,-205.72 595.78,-215.72 599.28,-205.72 592.28,-205.72"/>
</g>
<!-- TagIconDirective  -->
<g id="node10" class="node">
<title>TagIconDirective </title>
<polygon fill="#fb8072" stroke="black" points="561.23,-252 442.77,-252 442.77,-216 561.23,-216 561.23,-252"/>
<text text-anchor="middle" x="502" y="-229.8" font-family="Times,serif" font-size="14.00">TagIconDirective </text>
</g>
<!-- TagModule&#45;&gt;TagIconDirective  -->
<g id="edge9" class="edge">
<title>TagModule&#45;&gt;TagIconDirective </title>
<path fill="none" stroke="black" stroke-dasharray="5,2" d="M502,-187.11C502,-187.11 502,-205.99 502,-205.99"/>
<polygon fill="black" stroke="black" points="498.5,-205.99 502,-215.99 505.5,-205.99 498.5,-205.99"/>
</g>
<!-- TagOperationalComponent  -->
<g id="node11" class="node">
<title>TagOperationalComponent </title>
<polygon fill="#fb8072" stroke="black" points="425.18,-252 252.82,-252 252.82,-216 425.18,-216 425.18,-252"/>
<text text-anchor="middle" x="339" y="-229.8" font-family="Times,serif" font-size="14.00">TagOperationalComponent </text>
</g>
<!-- TagModule&#45;&gt;TagOperationalComponent  -->
<g id="edge10" class="edge">
<title>TagModule&#45;&gt;TagOperationalComponent </title>
<path fill="none" stroke="black" stroke-dasharray="5,2" d="M461.03,-180C421.59,-180 367.88,-180 367.88,-180 367.88,-180 367.88,-205.72 367.88,-205.72"/>
<polygon fill="black" stroke="black" points="364.38,-205.72 367.88,-215.72 371.38,-205.72 364.38,-205.72"/>
</g>
<!-- TagSelectableComponent  -->
<g id="node12" class="node">
<title>TagSelectableComponent </title>
<polygon fill="#fb8072" stroke="black" points="235.13,-252 70.87,-252 70.87,-216 235.13,-216 235.13,-252"/>
<text text-anchor="middle" x="153" y="-229.8" font-family="Times,serif" font-size="14.00">TagSelectableComponent </text>
</g>
<!-- TagModule&#45;&gt;TagSelectableComponent  -->
<g id="edge11" class="edge">
<title>TagModule&#45;&gt;TagSelectableComponent </title>
<path fill="none" stroke="black" stroke-dasharray="5,2" d="M461.32,-173C375.42,-173 183.38,-173 183.38,-173 183.38,-173 183.38,-205.7 183.38,-205.7"/>
<polygon fill="black" stroke="black" points="179.88,-205.7 183.38,-215.7 186.88,-205.7 179.88,-205.7"/>
</g>
<!-- IconModule -->
<g id="node7" class="node">
<title>IconModule</title>
<polygon fill="#8dd3c7" stroke="black" points="108.43,-122 105.43,-126 84.43,-126 81.43,-122 23.57,-122 23.57,-86 108.43,-86 108.43,-122"/>
<text text-anchor="middle" x="66" y="-99.8" font-family="Times,serif" font-size="14.00">IconModule</text>
</g>
<!-- IconModule&#45;&gt;TagModule -->
<g id="edge6" class="edge">
<title>IconModule&#45;&gt;TagModule</title>
<path fill="none" stroke="black" d="M89.57,-122.27C89.57,-140.56 89.57,-166 89.57,-166 89.57,-166 451.33,-166 451.33,-166"/>
<polygon fill="black" stroke="black" points="451.33,-169.5 461.33,-166 451.33,-162.5 451.33,-169.5"/>
</g>
</g>
</svg>
