<?xml version="1.0" encoding="UTF-8" standalone="no"?>
<!DOCTYPE svg PUBLIC "-//W3C//DTD SVG 1.1//EN"
 "http://www.w3.org/Graphics/SVG/1.1/DTD/svg11.dtd">
<!-- Generated by graphviz version 2.47.0 (20210316.0004)
 -->
<!-- Title: dependencies Pages: 1 -->
<svg width="722pt" height="396pt"
 viewBox="0.00 0.00 722.00 395.59" xmlns="http://www.w3.org/2000/svg" xmlns:xlink="http://www.w3.org/1999/xlink">
<g id="graph0" class="graph" transform="scale(1 1) rotate(0) translate(4 391.59)">
<title>dependencies</title>
<polygon fill="white" stroke="transparent" points="-4,4 -4,-391.59 718,-391.59 718,4 -4,4"/>
<text text-anchor="start" x="336.01" y="-42.4" font-family="Times-12" font-weight="bold" font-size="14.00">Legend</text>
<polygon fill="#ffffb3" stroke="transparent" points="123,-10 123,-30 143,-30 143,-10 123,-10"/>
<text text-anchor="start" x="146.63" y="-15.4" font-family="Times-12" font-size="14.00"> &#160;Declarations</text>
<polygon fill="#8dd3c7" stroke="transparent" points="236,-10 236,-30 256,-30 256,-10 236,-10"/>
<text text-anchor="start" x="259.73" y="-15.4" font-family="Times-12" font-size="14.00"> &#160;Module</text>
<polygon fill="#80b1d3" stroke="transparent" points="322,-10 322,-30 342,-30 342,-10 322,-10"/>
<text text-anchor="start" x="345.78" y="-15.4" font-family="Times-12" font-size="14.00"> &#160;Bootstrap</text>
<polygon fill="#fdb462" stroke="transparent" points="419,-10 419,-30 439,-30 439,-10 419,-10"/>
<text text-anchor="start" x="442.67" y="-15.4" font-family="Times-12" font-size="14.00"> &#160;Providers</text>
<polygon fill="#fb8072" stroke="transparent" points="515,-10 515,-30 535,-30 535,-10 515,-10"/>
<text text-anchor="start" x="538.73" y="-15.4" font-family="Times-12" font-size="14.00"> &#160;Exports</text>
<g id="clust1" class="cluster">
<title>cluster_DatePickerInputModule</title>
<polygon fill="none" stroke="black" stroke-dasharray="1,5" points="8,-70 8,-379.59 706,-379.59 706,-70 8,-70"/>
</g>
<g id="clust2" class="cluster">
<title>cluster_DatePickerInputModule_declarations</title>
<polygon fill="none" stroke="black" points="295,-189.59 295,-241.59 419,-241.59 419,-189.59 295,-189.59"/>
</g>
<g id="clust4" class="cluster">
<title>cluster_DatePickerInputModule_imports</title>
<polygon fill="none" stroke="black" points="427,-189.59 427,-241.59 527,-241.59 527,-189.59 427,-189.59"/>
</g>
<g id="clust3" class="cluster">
<title>cluster_DatePickerInputModule_DatePickerInput_providers</title>
<polygon fill="none" stroke="black" points="16,-78 16,-176.59 698,-176.59 698,-78 16,-78"/>
</g>
<g id="clust5" class="cluster">
<title>cluster_DatePickerInputModule_exports</title>
<polygon fill="none" stroke="black" points="353,-319.59 353,-371.59 481,-371.59 481,-319.59 353,-319.59"/>
</g>
<!-- DatePickerInput -->
<g id="node1" class="node">
<title>DatePickerInput</title>
<polygon fill="#ffffb3" stroke="black" points="410.74,-233.59 303.26,-233.59 303.26,-197.59 410.74,-197.59 410.74,-233.59"/>
<text text-anchor="middle" x="357" y="-211.39" font-family="Times,serif" font-size="14.00">DatePickerInput</text>
</g>
<!-- DatePickerInputModule -->
<g id="node2" class="node">
<title>DatePickerInputModule</title>
<polygon fill="#8dd3c7" stroke="black" points="492.79,-298.59 489.79,-302.59 468.79,-302.59 465.79,-298.59 341.21,-298.59 341.21,-262.59 492.79,-262.59 492.79,-298.59"/>
<text text-anchor="middle" x="417" y="-276.39" font-family="Times,serif" font-size="14.00">DatePickerInputModule</text>
</g>
<!-- DatePickerInput&#45;&gt;DatePickerInputModule -->
<g id="edge1" class="edge">
<title>DatePickerInput&#45;&gt;DatePickerInputModule</title>
<path fill="none" stroke="black" d="M376.11,-233.7C376.11,-233.7 376.11,-252.58 376.11,-252.58"/>
<polygon fill="black" stroke="black" points="372.61,-252.58 376.11,-262.58 379.61,-252.58 372.61,-252.58"/>
</g>
<!-- DatePickerInput  -->
<g id="node5" class="node">
<title>DatePickerInput </title>
<polygon fill="#fb8072" stroke="black" points="472.74,-363.59 361.26,-363.59 361.26,-327.59 472.74,-327.59 472.74,-363.59"/>
<text text-anchor="middle" x="417" y="-341.39" font-family="Times,serif" font-size="14.00">DatePickerInput </text>
</g>
<!-- DatePickerInputModule&#45;&gt;DatePickerInput  -->
<g id="edge4" class="edge">
<title>DatePickerInputModule&#45;&gt;DatePickerInput </title>
<path fill="none" stroke="black" stroke-dasharray="5,2" d="M417,-298.7C417,-298.7 417,-317.58 417,-317.58"/>
<polygon fill="black" stroke="black" points="413.5,-317.58 417,-327.58 420.5,-317.58 413.5,-317.58"/>
</g>
<!-- {
 &#160;&#160;&#160;provide: NG_VALUE_ACCESSOR, useExisting: DatePickerInput, multi: true
} -->
<g id="node3" class="node">
<title>{
 &#160;&#160;&#160;provide: NG_VALUE_ACCESSOR, useExisting: DatePickerInput, multi: true
}</title>
<ellipse fill="#fdb462" stroke="black" cx="357" cy="-127.3" rx="333.04" ry="41.09"/>
<text text-anchor="middle" x="357" y="-139.9" font-family="Times,serif" font-size="14.00">{</text>
<text text-anchor="middle" x="357" y="-123.1" font-family="Times,serif" font-size="14.00"> &#160;&#160;&#160;provide: NG_VALUE_ACCESSOR, useExisting: DatePickerInput, multi: true</text>
<text text-anchor="middle" x="357" y="-106.3" font-family="Times,serif" font-size="14.00">}</text>
</g>
<!-- {
 &#160;&#160;&#160;provide: NG_VALUE_ACCESSOR, useExisting: DatePickerInput, multi: true
}&#45;&gt;DatePickerInput -->
<g id="edge2" class="edge">
<title>{
 &#160;&#160;&#160;provide: NG_VALUE_ACCESSOR, useExisting: DatePickerInput, multi: true
}&#45;&gt;DatePickerInput</title>
<path fill="none" stroke="black" d="M357,-168.6C357,-168.6 357,-187.26 357,-187.26"/>
<polygon fill="black" stroke="black" points="353.5,-187.26 357,-197.26 360.5,-187.26 353.5,-187.26"/>
</g>
<!-- IconModule -->
<g id="node4" class="node">
<title>IconModule</title>
<polygon fill="#8dd3c7" stroke="black" points="519.43,-233.59 516.43,-237.59 495.43,-237.59 492.43,-233.59 434.57,-233.59 434.57,-197.59 519.43,-197.59 519.43,-233.59"/>
<text text-anchor="middle" x="477" y="-211.39" font-family="Times,serif" font-size="14.00">IconModule</text>
</g>
<!-- IconModule&#45;&gt;DatePickerInputModule -->
<g id="edge3" class="edge">
<title>IconModule&#45;&gt;DatePickerInputModule</title>
<path fill="none" stroke="black" d="M463.72,-233.7C463.72,-233.7 463.72,-252.58 463.72,-252.58"/>
<polygon fill="black" stroke="black" points="460.22,-252.58 463.72,-262.58 467.22,-252.58 460.22,-252.58"/>
</g>
</g>
</svg>
