<?xml version="1.0" encoding="UTF-8" standalone="no"?>
<!DOCTYPE svg PUBLIC "-//W3C//DTD SVG 1.1//EN"
 "http://www.w3.org/Graphics/SVG/1.1/DTD/svg11.dtd">
<!-- Generated by graphviz version 2.40.1 (20161225.0304)
 -->
<!-- Title: dependencies Pages: 1 -->
<svg width="504pt" height="284pt"
 viewBox="0.00 0.00 504.00 284.00" xmlns="http://www.w3.org/2000/svg" xmlns:xlink="http://www.w3.org/1999/xlink">
<g id="graph0" class="graph" transform="scale(1 1) rotate(0) translate(4 280)">
<title>dependencies</title>
<polygon fill="#ffffff" stroke="transparent" points="-4,4 -4,-280 500,-280 500,4 -4,4"/>
<text text-anchor="start" x="227.0091" y="-42.4" font-family="sans-serif" font-weight="bold" font-size="14.00" fill="#000000">Legend</text>
<polygon fill="#ffffb3" stroke="transparent" points="14,-10 14,-30 34,-30 34,-10 14,-10"/>
<text text-anchor="start" x="37.629" y="-15.4" font-family="sans-serif" font-size="14.00" fill="#000000"> &#160;Declarations</text>
<polygon fill="#8dd3c7" stroke="transparent" points="127,-10 127,-30 147,-30 147,-10 127,-10"/>
<text text-anchor="start" x="150.7251" y="-15.4" font-family="sans-serif" font-size="14.00" fill="#000000"> &#160;Module</text>
<polygon fill="#80b1d3" stroke="transparent" points="213,-10 213,-30 233,-30 233,-10 213,-10"/>
<text text-anchor="start" x="236.7812" y="-15.4" font-family="sans-serif" font-size="14.00" fill="#000000"> &#160;Bootstrap</text>
<polygon fill="#fdb462" stroke="transparent" points="310,-10 310,-30 330,-30 330,-10 310,-10"/>
<text text-anchor="start" x="333.6732" y="-15.4" font-family="sans-serif" font-size="14.00" fill="#000000"> &#160;Providers</text>
<polygon fill="#fb8072" stroke="transparent" points="406,-10 406,-30 426,-30 426,-10 406,-10"/>
<text text-anchor="start" x="429.7258" y="-15.4" font-family="sans-serif" font-size="14.00" fill="#000000"> &#160;Exports</text>
<g id="clust1" class="cluster">
<title>cluster_InputModule</title>
<polygon fill="none" stroke="#000000" stroke-dasharray="1,5" points="113.5,-70 113.5,-268 382.5,-268 382.5,-70 113.5,-70"/>
</g>
<g id="clust2" class="cluster">
<title>cluster_InputModule_declarations</title>
<polygon fill="none" stroke="#000000" points="127.5,-78 127.5,-130 373.5,-130 373.5,-78 127.5,-78"/>
</g>
<g id="clust7" class="cluster">
<title>cluster_InputModule_exports</title>
<polygon fill="none" stroke="#000000" points="121.5,-208 121.5,-260 374.5,-260 374.5,-208 121.5,-208"/>
</g>
<!-- Label -->
<g id="node1" class="node">
<title>Label</title>
<polygon fill="#ffffb3" stroke="#000000" points="365.5,-122 311.5,-122 311.5,-86 365.5,-86 365.5,-122"/>
<text text-anchor="middle" x="338.5" y="-99.8" font-family="Times,serif" font-size="14.00" fill="#000000">Label</text>
</g>
<!-- InputModule -->
<g id="node4" class="node">
<title>InputModule</title>
<polygon fill="#8dd3c7" stroke="#000000" points="302.1011,-187 299.1011,-191 278.1011,-191 275.1011,-187 212.8989,-187 212.8989,-151 302.1011,-151 302.1011,-187"/>
<text text-anchor="middle" x="257.5" y="-164.8" font-family="Times,serif" font-size="14.00" fill="#000000">InputModule</text>
</g>
<!-- Label&#45;&gt;InputModule -->
<g id="edge1" class="edge">
<title>Label&#45;&gt;InputModule</title>
<path fill="none" stroke="#000000" d="M311.432,-104C303.8218,-104 297.5775,-104 297.5775,-104 297.5775,-104 297.5775,-140.8939 297.5775,-140.8939"/>
<polygon fill="#000000" stroke="#000000" points="294.0776,-140.8938 297.5775,-150.8939 301.0776,-140.8939 294.0776,-140.8938"/>
</g>
<!-- TextInput -->
<g id="node2" class="node">
<title>TextInput</title>
<polygon fill="#ffffb3" stroke="#000000" points="293.2093,-122 221.7907,-122 221.7907,-86 293.2093,-86 293.2093,-122"/>
<text text-anchor="middle" x="257.5" y="-99.8" font-family="Times,serif" font-size="14.00" fill="#000000">TextInput</text>
</g>
<!-- TextInput&#45;&gt;InputModule -->
<g id="edge2" class="edge">
<title>TextInput&#45;&gt;InputModule</title>
<path fill="none" stroke="#000000" d="M257.5,-122.1061C257.5,-122.1061 257.5,-140.991 257.5,-140.991"/>
<polygon fill="#000000" stroke="#000000" points="254.0001,-140.9909 257.5,-150.991 261.0001,-140.991 254.0001,-140.9909"/>
</g>
<!-- TextArea -->
<g id="node3" class="node">
<title>TextArea</title>
<polygon fill="#ffffb3" stroke="#000000" points="203.8544,-122 135.1456,-122 135.1456,-86 203.8544,-86 203.8544,-122"/>
<text text-anchor="middle" x="169.5" y="-99.8" font-family="Times,serif" font-size="14.00" fill="#000000">TextArea</text>
</g>
<!-- TextArea&#45;&gt;InputModule -->
<g id="edge3" class="edge">
<title>TextArea&#45;&gt;InputModule</title>
<path fill="none" stroke="#000000" d="M204.0734,-104C211.6304,-104 217.4225,-104 217.4225,-104 217.4225,-104 217.4225,-140.8939 217.4225,-140.8939"/>
<polygon fill="#000000" stroke="#000000" points="213.9226,-140.8938 217.4225,-150.8939 220.9226,-140.8939 213.9226,-140.8938"/>
</g>
<!-- Label  -->
<g id="node5" class="node">
<title>Label </title>
<polygon fill="#fb8072" stroke="#000000" points="366.5,-252 312.5,-252 312.5,-216 366.5,-216 366.5,-252"/>
<text text-anchor="middle" x="339.5" y="-229.8" font-family="Times,serif" font-size="14.00" fill="#000000">Label </text>
</g>
<!-- InputModule&#45;&gt;Label  -->
<g id="edge4" class="edge">
<title>InputModule&#45;&gt;Label </title>
<path fill="none" stroke="#000000" stroke-dasharray="5,2" d="M298.4525,-187.1061C298.4525,-206.3391 298.4525,-234 298.4525,-234 298.4525,-234 302.3493,-234 302.3493,-234"/>
<polygon fill="#000000" stroke="#000000" points="302.3493,-237.5001 312.3493,-234 302.3493,-230.5001 302.3493,-237.5001"/>
</g>
<!-- TextInput  -->
<g id="node6" class="node">
<title>TextInput </title>
<polygon fill="#fb8072" stroke="#000000" points="294.7096,-252 220.2904,-252 220.2904,-216 294.7096,-216 294.7096,-252"/>
<text text-anchor="middle" x="257.5" y="-229.8" font-family="Times,serif" font-size="14.00" fill="#000000">TextInput </text>
</g>
<!-- InputModule&#45;&gt;TextInput  -->
<g id="edge5" class="edge">
<title>InputModule&#45;&gt;TextInput </title>
<path fill="none" stroke="#000000" stroke-dasharray="5,2" d="M257.5,-187.1061C257.5,-187.1061 257.5,-205.991 257.5,-205.991"/>
<polygon fill="#000000" stroke="#000000" points="254.0001,-205.9909 257.5,-215.991 261.0001,-205.991 254.0001,-205.9909"/>
</g>
<!-- TextArea  -->
<g id="node7" class="node">
<title>TextArea </title>
<polygon fill="#fb8072" stroke="#000000" points="201.8551,-252 129.1449,-252 129.1449,-216 201.8551,-216 201.8551,-252"/>
<text text-anchor="middle" x="165.5" y="-229.8" font-family="Times,serif" font-size="14.00" fill="#000000">TextArea </text>
</g>
<!-- InputModule&#45;&gt;TextArea  -->
<g id="edge6" class="edge">
<title>InputModule&#45;&gt;TextArea </title>
<path fill="none" stroke="#000000" stroke-dasharray="5,2" d="M216.5475,-187.1061C216.5475,-206.3391 216.5475,-234 216.5475,-234 216.5475,-234 211.7824,-234 211.7824,-234"/>
<polygon fill="#000000" stroke="#000000" points="211.7825,-230.5001 201.7824,-234 211.7824,-237.5001 211.7825,-230.5001"/>
</g>
</g>
</svg>
