<?xml version="1.0" encoding="UTF-8" standalone="no"?>
<!DOCTYPE svg PUBLIC "-//W3C//DTD SVG 1.1//EN"
 "http://www.w3.org/Graphics/SVG/1.1/DTD/svg11.dtd">
<!-- Generated by graphviz version 2.47.0 (20210316.0004)
 -->
<!-- Title: dependencies Pages: 1 -->
<svg width="1020pt" height="284pt"
 viewBox="0.00 0.00 1020.00 284.00" xmlns="http://www.w3.org/2000/svg" xmlns:xlink="http://www.w3.org/1999/xlink">
<g id="graph0" class="graph" transform="scale(1 1) rotate(0) translate(4 280)">
<title>dependencies</title>
<polygon fill="white" stroke="transparent" points="-4,4 -4,-280 1016,-280 1016,4 -4,4"/>
<text text-anchor="start" x="485.01" y="-42.4" font-family="Times-12" font-weight="bold" font-size="14.00">Legend</text>
<polygon fill="#ffffb3" stroke="transparent" points="272,-10 272,-30 292,-30 292,-10 272,-10"/>
<text text-anchor="start" x="295.63" y="-15.4" font-family="Times-12" font-size="14.00"> &#160;Declarations</text>
<polygon fill="#8dd3c7" stroke="transparent" points="385,-10 385,-30 405,-30 405,-10 385,-10"/>
<text text-anchor="start" x="408.73" y="-15.4" font-family="Times-12" font-size="14.00"> &#160;Module</text>
<polygon fill="#80b1d3" stroke="transparent" points="471,-10 471,-30 491,-30 491,-10 471,-10"/>
<text text-anchor="start" x="494.78" y="-15.4" font-family="Times-12" font-size="14.00"> &#160;Bootstrap</text>
<polygon fill="#fdb462" stroke="transparent" points="568,-10 568,-30 588,-30 588,-10 568,-10"/>
<text text-anchor="start" x="591.67" y="-15.4" font-family="Times-12" font-size="14.00"> &#160;Providers</text>
<polygon fill="#fb8072" stroke="transparent" points="664,-10 664,-30 684,-30 684,-10 664,-10"/>
<text text-anchor="start" x="687.73" y="-15.4" font-family="Times-12" font-size="14.00"> &#160;Exports</text>
<g id="clust1" class="cluster">
<title>cluster_PaginationModule</title>
<polygon fill="none" stroke="black" stroke-dasharray="1,5" points="8,-70 8,-268 1004,-268 1004,-70 8,-70"/>
</g>
<g id="clust2" class="cluster">
<title>cluster_PaginationModule_declarations</title>
<polygon fill="none" stroke="black" points="496,-78 496,-130 996,-130 996,-78 496,-78"/>
</g>
<g id="clust8" class="cluster">
<title>cluster_PaginationModule_exports</title>
<polygon fill="none" stroke="black" points="209,-208 209,-260 724,-260 724,-208 209,-208"/>
</g>
<g id="clust7" class="cluster">
<title>cluster_PaginationModule_imports</title>
<polygon fill="none" stroke="black" points="16,-78 16,-130 488,-130 488,-78 16,-78"/>
</g>
<!-- Pagination -->
<g id="node1" class="node">
<title>Pagination</title>
<polygon fill="#ffffb3" stroke="black" points="987.88,-122 912.12,-122 912.12,-86 987.88,-86 987.88,-122"/>
<text text-anchor="middle" x="950" y="-99.8" font-family="Times,serif" font-size="14.00">Pagination</text>
</g>
<!-- PaginationModule -->
<g id="node5" class="node">
<title>PaginationModule</title>
<polygon fill="#8dd3c7" stroke="black" points="559.93,-187 556.93,-191 535.93,-191 532.93,-187 440.07,-187 440.07,-151 559.93,-151 559.93,-187"/>
<text text-anchor="middle" x="500" y="-164.8" font-family="Times,serif" font-size="14.00">PaginationModule</text>
</g>
<!-- Pagination&#45;&gt;PaginationModule -->
<g id="edge1" class="edge">
<title>Pagination&#45;&gt;PaginationModule</title>
<path fill="none" stroke="black" d="M950,-122.13C950,-142.57 950,-173 950,-173 950,-173 569.76,-173 569.76,-173"/>
<polygon fill="black" stroke="black" points="569.76,-169.5 559.76,-173 569.76,-176.5 569.76,-169.5"/>
</g>
<!-- PaginationNav -->
<g id="node2" class="node">
<title>PaginationNav</title>
<polygon fill="#ffffb3" stroke="black" points="893.71,-122 794.29,-122 794.29,-86 893.71,-86 893.71,-122"/>
<text text-anchor="middle" x="844" y="-99.8" font-family="Times,serif" font-size="14.00">PaginationNav</text>
</g>
<!-- PaginationNav&#45;&gt;PaginationModule -->
<g id="edge2" class="edge">
<title>PaginationNav&#45;&gt;PaginationModule</title>
<path fill="none" stroke="black" d="M844,-122.27C844,-140.56 844,-166 844,-166 844,-166 569.92,-166 569.92,-166"/>
<polygon fill="black" stroke="black" points="569.92,-162.5 559.92,-166 569.92,-169.5 569.92,-162.5"/>
</g>
<!-- PaginationNavItem -->
<g id="node3" class="node">
<title>PaginationNavItem</title>
<polygon fill="#ffffb3" stroke="black" points="776.36,-122 651.64,-122 651.64,-86 776.36,-86 776.36,-122"/>
<text text-anchor="middle" x="714" y="-99.8" font-family="Times,serif" font-size="14.00">PaginationNavItem</text>
</g>
<!-- PaginationNavItem&#45;&gt;PaginationModule -->
<g id="edge3" class="edge">
<title>PaginationNavItem&#45;&gt;PaginationModule</title>
<path fill="none" stroke="black" d="M683.63,-122.01C683.63,-138.05 683.63,-159 683.63,-159 683.63,-159 569.87,-159 569.87,-159"/>
<polygon fill="black" stroke="black" points="569.87,-155.5 559.87,-159 569.87,-162.5 569.87,-155.5"/>
</g>
<!-- PaginationOverflow -->
<g id="node4" class="node">
<title>PaginationOverflow</title>
<polygon fill="#ffffb3" stroke="black" points="633.52,-122 504.48,-122 504.48,-86 633.52,-86 633.52,-122"/>
<text text-anchor="middle" x="569" y="-99.8" font-family="Times,serif" font-size="14.00">PaginationOverflow</text>
</g>
<!-- PaginationOverflow&#45;&gt;PaginationModule -->
<g id="edge4" class="edge">
<title>PaginationOverflow&#45;&gt;PaginationModule</title>
<path fill="none" stroke="black" d="M531.98,-122.11C531.98,-122.11 531.98,-140.99 531.98,-140.99"/>
<polygon fill="black" stroke="black" points="528.48,-140.99 531.98,-150.99 535.48,-140.99 528.48,-140.99"/>
</g>
<!-- Pagination  -->
<g id="node10" class="node">
<title>Pagination </title>
<polygon fill="#fb8072" stroke="black" points="715.88,-252 636.12,-252 636.12,-216 715.88,-216 715.88,-252"/>
<text text-anchor="middle" x="676" y="-229.8" font-family="Times,serif" font-size="14.00">Pagination </text>
</g>
<!-- PaginationModule&#45;&gt;Pagination  -->
<g id="edge9" class="edge">
<title>PaginationModule&#45;&gt;Pagination </title>
<path fill="none" stroke="black" stroke-dasharray="5,2" d="M559.79,-180C599.34,-180 643.94,-180 643.94,-180 643.94,-180 643.94,-205.72 643.94,-205.72"/>
<polygon fill="black" stroke="black" points="640.44,-205.72 643.94,-215.72 647.44,-205.72 640.44,-205.72"/>
</g>
<!-- PaginationNav  -->
<g id="node11" class="node">
<title>PaginationNav </title>
<polygon fill="#fb8072" stroke="black" points="618.21,-252 515.79,-252 515.79,-216 618.21,-216 618.21,-252"/>
<text text-anchor="middle" x="567" y="-229.8" font-family="Times,serif" font-size="14.00">PaginationNav </text>
</g>
<!-- PaginationModule&#45;&gt;PaginationNav  -->
<g id="edge10" class="edge">
<title>PaginationModule&#45;&gt;PaginationNav </title>
<path fill="none" stroke="black" stroke-dasharray="5,2" d="M537.68,-187.11C537.68,-187.11 537.68,-205.99 537.68,-205.99"/>
<polygon fill="black" stroke="black" points="534.18,-205.99 537.68,-215.99 541.18,-205.99 534.18,-205.99"/>
</g>
<!-- PaginationNavItem  -->
<g id="node12" class="node">
<title>PaginationNavItem </title>
<polygon fill="#fb8072" stroke="black" points="497.36,-252 368.64,-252 368.64,-216 497.36,-216 497.36,-252"/>
<text text-anchor="middle" x="433" y="-229.8" font-family="Times,serif" font-size="14.00">PaginationNavItem </text>
</g>
<!-- PaginationModule&#45;&gt;PaginationNavItem  -->
<g id="edge11" class="edge">
<title>PaginationModule&#45;&gt;PaginationNavItem </title>
<path fill="none" stroke="black" stroke-dasharray="5,2" d="M468.73,-187.11C468.73,-187.11 468.73,-205.99 468.73,-205.99"/>
<polygon fill="black" stroke="black" points="465.23,-205.99 468.73,-215.99 472.23,-205.99 465.23,-205.99"/>
</g>
<!-- PaginationOverflow  -->
<g id="node13" class="node">
<title>PaginationOverflow </title>
<polygon fill="#fb8072" stroke="black" points="350.52,-252 217.48,-252 217.48,-216 350.52,-216 350.52,-252"/>
<text text-anchor="middle" x="284" y="-229.8" font-family="Times,serif" font-size="14.00">PaginationOverflow </text>
</g>
<!-- PaginationModule&#45;&gt;PaginationOverflow  -->
<g id="edge12" class="edge">
<title>PaginationModule&#45;&gt;PaginationOverflow </title>
<path fill="none" stroke="black" stroke-dasharray="5,2" d="M440.11,-180C378.04,-180 290.01,-180 290.01,-180 290.01,-180 290.01,-205.72 290.01,-205.72"/>
<polygon fill="black" stroke="black" points="286.51,-205.72 290.01,-215.72 293.51,-205.72 286.51,-205.72"/>
</g>
<!-- ButtonModule -->
<g id="node6" class="node">
<title>ButtonModule</title>
<polygon fill="#8dd3c7" stroke="black" points="479.67,-122 476.67,-126 455.67,-126 452.67,-122 382.33,-122 382.33,-86 479.67,-86 479.67,-122"/>
<text text-anchor="middle" x="431" y="-99.8" font-family="Times,serif" font-size="14.00">ButtonModule</text>
</g>
<!-- ButtonModule&#45;&gt;PaginationModule -->
<g id="edge5" class="edge">
<title>ButtonModule&#45;&gt;PaginationModule</title>
<path fill="none" stroke="black" d="M460.06,-122.11C460.06,-122.11 460.06,-140.99 460.06,-140.99"/>
<polygon fill="black" stroke="black" points="456.56,-140.99 460.06,-150.99 463.56,-140.99 456.56,-140.99"/>
</g>
<!-- ExperimentalModule -->
<g id="node7" class="node">
<title>ExperimentalModule</title>
<polygon fill="#8dd3c7" stroke="black" points="364.47,-122 361.47,-126 340.47,-126 337.47,-122 229.53,-122 229.53,-86 364.47,-86 364.47,-122"/>
<text text-anchor="middle" x="297" y="-99.8" font-family="Times,serif" font-size="14.00">ExperimentalModule</text>
</g>
<!-- ExperimentalModule&#45;&gt;PaginationModule -->
<g id="edge6" class="edge">
<title>ExperimentalModule&#45;&gt;PaginationModule</title>
<path fill="none" stroke="black" d="M357.5,-122.01C357.5,-138.05 357.5,-159 357.5,-159 357.5,-159 429.98,-159 429.98,-159"/>
<polygon fill="black" stroke="black" points="429.98,-162.5 439.98,-159 429.98,-155.5 429.98,-162.5"/>
</g>
<!-- I18nModule -->
<g id="node8" class="node">
<title>I18nModule</title>
<polygon fill="#8dd3c7" stroke="black" points="211.71,-122 208.71,-126 187.71,-126 184.71,-122 126.29,-122 126.29,-86 211.71,-86 211.71,-122"/>
<text text-anchor="middle" x="169" y="-99.8" font-family="Times,serif" font-size="14.00">I18nModule</text>
</g>
<!-- I18nModule&#45;&gt;PaginationModule -->
<g id="edge7" class="edge">
<title>I18nModule&#45;&gt;PaginationModule</title>
<path fill="none" stroke="black" d="M169,-122.27C169,-140.56 169,-166 169,-166 169,-166 430.06,-166 430.06,-166"/>
<polygon fill="black" stroke="black" points="430.06,-169.5 440.06,-166 430.06,-162.5 430.06,-169.5"/>
</g>
<!-- IconModule -->
<g id="node9" class="node">
<title>IconModule</title>
<polygon fill="#8dd3c7" stroke="black" points="108.43,-122 105.43,-126 84.43,-126 81.43,-122 23.57,-122 23.57,-86 108.43,-86 108.43,-122"/>
<text text-anchor="middle" x="66" y="-99.8" font-family="Times,serif" font-size="14.00">IconModule</text>
</g>
<!-- IconModule&#45;&gt;PaginationModule -->
<g id="edge8" class="edge">
<title>IconModule&#45;&gt;PaginationModule</title>
<path fill="none" stroke="black" d="M66,-122.13C66,-142.57 66,-173 66,-173 66,-173 430.11,-173 430.11,-173"/>
<polygon fill="black" stroke="black" points="430.11,-176.5 440.11,-173 430.11,-169.5 430.11,-176.5"/>
</g>
</g>
</svg>
