<?xml version="1.0" encoding="UTF-8" standalone="no"?>
<!DOCTYPE svg PUBLIC "-//W3C//DTD SVG 1.1//EN"
 "http://www.w3.org/Graphics/SVG/1.1/DTD/svg11.dtd">
<!-- Generated by graphviz version 2.40.1 (20161225.0304)
 -->
<!-- Title: dependencies Pages: 1 -->
<svg width="2045pt" height="349pt"
 viewBox="0.00 0.00 2045.00 349.00" xmlns="http://www.w3.org/2000/svg" xmlns:xlink="http://www.w3.org/1999/xlink">
<g id="graph0" class="graph" transform="scale(1 1) rotate(0) translate(4 345)">
<title>dependencies</title>
<polygon fill="#ffffff" stroke="transparent" points="-4,4 -4,-345 2041,-345 2041,4 -4,4"/>
<text text-anchor="start" x="997.5091" y="-42.4" font-family="sans-serif" font-weight="bold" font-size="14.00" fill="#000000">Legend</text>
<polygon fill="#ffffb3" stroke="transparent" points="784.5,-10 784.5,-30 804.5,-30 804.5,-10 784.5,-10"/>
<text text-anchor="start" x="808.129" y="-15.4" font-family="sans-serif" font-size="14.00" fill="#000000"> &#160;Declarations</text>
<polygon fill="#8dd3c7" stroke="transparent" points="897.5,-10 897.5,-30 917.5,-30 917.5,-10 897.5,-10"/>
<text text-anchor="start" x="921.2251" y="-15.4" font-family="sans-serif" font-size="14.00" fill="#000000"> &#160;Module</text>
<polygon fill="#80b1d3" stroke="transparent" points="983.5,-10 983.5,-30 1003.5,-30 1003.5,-10 983.5,-10"/>
<text text-anchor="start" x="1007.2812" y="-15.4" font-family="sans-serif" font-size="14.00" fill="#000000"> &#160;Bootstrap</text>
<polygon fill="#fdb462" stroke="transparent" points="1080.5,-10 1080.5,-30 1100.5,-30 1100.5,-10 1080.5,-10"/>
<text text-anchor="start" x="1104.1732" y="-15.4" font-family="sans-serif" font-size="14.00" fill="#000000"> &#160;Providers</text>
<polygon fill="#fb8072" stroke="transparent" points="1176.5,-10 1176.5,-30 1196.5,-30 1196.5,-10 1176.5,-10"/>
<text text-anchor="start" x="1200.2258" y="-15.4" font-family="sans-serif" font-size="14.00" fill="#000000"> &#160;Exports</text>
<g id="clust1" class="cluster">
<title>cluster_DialogModule</title>
<polygon fill="none" stroke="#000000" stroke-dasharray="1,5" points="8,-70 8,-333 2029,-333 2029,-70 8,-70"/>
</g>
<g id="clust2" class="cluster">
<title>cluster_DialogModule_declarations</title>
<polygon fill="none" stroke="#000000" points="525,-143 525,-195 2009,-195 2009,-143 525,-143"/>
</g>
<g id="clust4" class="cluster">
<title>cluster_DialogModule_DialogDirective_providers</title>
<polygon fill="none" stroke="#000000" points="1837,-78 1837,-130 1985,-130 1985,-78 1837,-78"/>
</g>
<g id="clust15" class="cluster">
<title>cluster_DialogModule_imports</title>
<polygon fill="none" stroke="#000000" points="16,-143 16,-195 517,-195 517,-143 16,-143"/>
</g>
<g id="clust16" class="cluster">
<title>cluster_DialogModule_exports</title>
<polygon fill="none" stroke="#000000" points="268,-273 268,-325 1795,-325 1795,-273 268,-273"/>
</g>
<!-- Dialog -->
<g id="node1" class="node">
<title>Dialog</title>
<polygon fill="#ffffb3" stroke="#000000" points="2001.1025,-187 1946.8975,-187 1946.8975,-151 2001.1025,-151 2001.1025,-187"/>
<text text-anchor="middle" x="1974" y="-164.8" font-family="Times,serif" font-size="14.00" fill="#000000">Dialog</text>
</g>
<!-- DialogModule -->
<g id="node13" class="node">
<title>DialogModule</title>
<polygon fill="#8dd3c7" stroke="#000000" points="1081.6528,-252 1078.6528,-256 1057.6528,-256 1054.6528,-252 984.3472,-252 984.3472,-216 1081.6528,-216 1081.6528,-252"/>
<text text-anchor="middle" x="1033" y="-229.8" font-family="Times,serif" font-size="14.00" fill="#000000">DialogModule</text>
</g>
<!-- Dialog&#45;&gt;DialogModule -->
<g id="edge1" class="edge">
<title>Dialog&#45;&gt;DialogModule</title>
<path fill="none" stroke="#000000" d="M1974,-187.2228C1974,-207.3652 1974,-237 1974,-237 1974,-237 1091.9386,-237 1091.9386,-237"/>
<polygon fill="#000000" stroke="#000000" points="1091.9386,-233.5001 1081.9386,-237 1091.9385,-240.5001 1091.9386,-233.5001"/>
</g>
<!-- DialogDirective -->
<g id="node2" class="node">
<title>DialogDirective</title>
<polygon fill="#ffffb3" stroke="#000000" points="1929.1854,-187 1822.8146,-187 1822.8146,-151 1929.1854,-151 1929.1854,-187"/>
<text text-anchor="middle" x="1876" y="-164.8" font-family="Times,serif" font-size="14.00" fill="#000000">DialogDirective</text>
</g>
<!-- DialogDirective&#45;&gt;DialogModule -->
<g id="edge2" class="edge">
<title>DialogDirective&#45;&gt;DialogModule</title>
<path fill="none" stroke="#000000" d="M1876,-187.2222C1876,-205.8285 1876,-232 1876,-232 1876,-232 1091.6586,-232 1091.6586,-232"/>
<polygon fill="#000000" stroke="#000000" points="1091.6587,-228.5001 1081.6586,-232 1091.6586,-235.5001 1091.6587,-228.5001"/>
</g>
<!-- DialogPlaceholder -->
<g id="node3" class="node">
<title>DialogPlaceholder</title>
<polygon fill="#ffffb3" stroke="#000000" points="1805.1853,-187 1684.8147,-187 1684.8147,-151 1805.1853,-151 1805.1853,-187"/>
<text text-anchor="middle" x="1745" y="-164.8" font-family="Times,serif" font-size="14.00" fill="#000000">DialogPlaceholder</text>
</g>
<!-- DialogPlaceholder&#45;&gt;DialogModule -->
<g id="edge4" class="edge">
<title>DialogPlaceholder&#45;&gt;DialogModule</title>
<path fill="none" stroke="#000000" d="M1697.875,-187.002C1697.875,-204.6754 1697.875,-229 1697.875,-229 1697.875,-229 1091.8898,-229 1091.8898,-229"/>
<polygon fill="#000000" stroke="#000000" points="1091.8899,-225.5001 1081.8898,-229 1091.8898,-232.5001 1091.8899,-225.5001"/>
</g>
<!-- EllipsisTooltip -->
<g id="node4" class="node">
<title>EllipsisTooltip</title>
<polygon fill="#ffffb3" stroke="#000000" points="1666.7289,-187 1567.2711,-187 1567.2711,-151 1666.7289,-151 1666.7289,-187"/>
<text text-anchor="middle" x="1617" y="-164.8" font-family="Times,serif" font-size="14.00" fill="#000000">EllipsisTooltip</text>
</g>
<!-- EllipsisTooltip&#45;&gt;DialogModule -->
<g id="edge5" class="edge">
<title>EllipsisTooltip&#45;&gt;DialogModule</title>
<path fill="none" stroke="#000000" d="M1575.1141,-187.0336C1575.1141,-204.0597 1575.1141,-227 1575.1141,-227 1575.1141,-227 1092.0651,-227 1092.0651,-227"/>
<polygon fill="#000000" stroke="#000000" points="1092.0652,-223.5001 1082.0651,-227 1092.0651,-230.5001 1092.0652,-223.5001"/>
</g>
<!-- OverflowMenu -->
<g id="node5" class="node">
<title>OverflowMenu</title>
<polygon fill="#ffffb3" stroke="#000000" points="1549.2992,-187 1446.7008,-187 1446.7008,-151 1549.2992,-151 1549.2992,-187"/>
<text text-anchor="middle" x="1498" y="-164.8" font-family="Times,serif" font-size="14.00" fill="#000000">OverflowMenu</text>
</g>
<!-- OverflowMenu&#45;&gt;DialogModule -->
<g id="edge6" class="edge">
<title>OverflowMenu&#45;&gt;DialogModule</title>
<path fill="none" stroke="#000000" d="M1453.004,-187.0091C1453.004,-203.0494 1453.004,-224 1453.004,-224 1453.004,-224 1092.0018,-224 1092.0018,-224"/>
<polygon fill="#000000" stroke="#000000" points="1092.0018,-220.5001 1082.0018,-224 1092.0018,-227.5001 1092.0018,-220.5001"/>
</g>
<!-- OverflowMenuDirective -->
<g id="node6" class="node">
<title>OverflowMenuDirective</title>
<polygon fill="#ffffb3" stroke="#000000" points="1429.3821,-187 1274.6179,-187 1274.6179,-151 1429.3821,-151 1429.3821,-187"/>
<text text-anchor="middle" x="1352" y="-164.8" font-family="Times,serif" font-size="14.00" fill="#000000">OverflowMenuDirective</text>
</g>
<!-- OverflowMenuDirective&#45;&gt;DialogModule -->
<g id="edge7" class="edge">
<title>OverflowMenuDirective&#45;&gt;DialogModule</title>
<path fill="none" stroke="#000000" d="M1297.8543,-187.2396C1297.8543,-202.5706 1297.8543,-222 1297.8543,-222 1297.8543,-222 1091.887,-222 1091.887,-222"/>
<polygon fill="#000000" stroke="#000000" points="1091.887,-218.5001 1081.887,-222 1091.887,-225.5001 1091.887,-218.5001"/>
</g>
<!-- OverflowMenuOption -->
<g id="node7" class="node">
<title>OverflowMenuOption</title>
<polygon fill="#ffffb3" stroke="#000000" points="1256.6867,-187 1115.3133,-187 1115.3133,-151 1256.6867,-151 1256.6867,-187"/>
<text text-anchor="middle" x="1186" y="-164.8" font-family="Times,serif" font-size="14.00" fill="#000000">OverflowMenuOption</text>
</g>
<!-- OverflowMenuOption&#45;&gt;DialogModule -->
<g id="edge8" class="edge">
<title>OverflowMenuOption&#45;&gt;DialogModule</title>
<path fill="none" stroke="#000000" d="M1156.1738,-187.0511C1156.1738,-201.373 1156.1738,-219 1156.1738,-219 1156.1738,-219 1091.6815,-219 1091.6815,-219"/>
<polygon fill="#000000" stroke="#000000" points="1091.6816,-215.5001 1081.6815,-219 1091.6815,-222.5001 1091.6816,-215.5001"/>
</g>
<!-- OverflowMenuPane -->
<g id="node8" class="node">
<title>OverflowMenuPane</title>
<polygon fill="#ffffb3" stroke="#000000" points="1097.5115,-187 968.4885,-187 968.4885,-151 1097.5115,-151 1097.5115,-187"/>
<text text-anchor="middle" x="1033" y="-164.8" font-family="Times,serif" font-size="14.00" fill="#000000">OverflowMenuPane</text>
</g>
<!-- OverflowMenuPane&#45;&gt;DialogModule -->
<g id="edge9" class="edge">
<title>OverflowMenuPane&#45;&gt;DialogModule</title>
<path fill="none" stroke="#000000" d="M1033,-187.1061C1033,-187.1061 1033,-205.991 1033,-205.991"/>
<polygon fill="#000000" stroke="#000000" points="1029.5001,-205.9909 1033,-215.991 1036.5001,-205.991 1029.5001,-205.9909"/>
</g>
<!-- Tooltip -->
<g id="node9" class="node">
<title>Tooltip</title>
<polygon fill="#ffffb3" stroke="#000000" points="950.7248,-187 893.2752,-187 893.2752,-151 950.7248,-151 950.7248,-187"/>
<text text-anchor="middle" x="922" y="-164.8" font-family="Times,serif" font-size="14.00" fill="#000000">Tooltip</text>
</g>
<!-- Tooltip&#45;&gt;DialogModule -->
<g id="edge10" class="edge">
<title>Tooltip&#45;&gt;DialogModule</title>
<path fill="none" stroke="#000000" d="M922,-187.0511C922,-201.373 922,-219 922,-219 922,-219 974.3138,-219 974.3138,-219"/>
<polygon fill="#000000" stroke="#000000" points="974.3138,-222.5001 984.3138,-219 974.3137,-215.5001 974.3138,-222.5001"/>
</g>
<!-- TooltipDefinition -->
<g id="node10" class="node">
<title>TooltipDefinition</title>
<polygon fill="#ffffb3" stroke="#000000" points="875.2688,-187 760.7312,-187 760.7312,-151 875.2688,-151 875.2688,-187"/>
<text text-anchor="middle" x="818" y="-164.8" font-family="Times,serif" font-size="14.00" fill="#000000">TooltipDefinition</text>
</g>
<!-- TooltipDefinition&#45;&gt;DialogModule -->
<g id="edge11" class="edge">
<title>TooltipDefinition&#45;&gt;DialogModule</title>
<path fill="none" stroke="#000000" d="M866.9448,-187.2396C866.9448,-202.5706 866.9448,-222 866.9448,-222 866.9448,-222 974.0761,-222 974.0761,-222"/>
<polygon fill="#000000" stroke="#000000" points="974.0761,-225.5001 984.0761,-222 974.0761,-218.5001 974.0761,-225.5001"/>
</g>
<!-- TooltipDirective -->
<g id="node11" class="node">
<title>TooltipDirective</title>
<polygon fill="#ffffb3" stroke="#000000" points="742.8076,-187 633.1924,-187 633.1924,-151 742.8076,-151 742.8076,-187"/>
<text text-anchor="middle" x="688" y="-164.8" font-family="Times,serif" font-size="14.00" fill="#000000">TooltipDirective</text>
</g>
<!-- TooltipDirective&#45;&gt;DialogModule -->
<g id="edge12" class="edge">
<title>TooltipDirective&#45;&gt;DialogModule</title>
<path fill="none" stroke="#000000" d="M734.0741,-187.0091C734.0741,-203.0494 734.0741,-224 734.0741,-224 734.0741,-224 974.3071,-224 974.3071,-224"/>
<polygon fill="#000000" stroke="#000000" points="974.3071,-227.5001 984.3071,-224 974.3071,-220.5001 974.3071,-227.5001"/>
</g>
<!-- TooltipIcon -->
<g id="node12" class="node">
<title>TooltipIcon</title>
<polygon fill="#ffffb3" stroke="#000000" points="615.0997,-187 532.9003,-187 532.9003,-151 615.0997,-151 615.0997,-187"/>
<text text-anchor="middle" x="574" y="-164.8" font-family="Times,serif" font-size="14.00" fill="#000000">TooltipIcon</text>
</g>
<!-- TooltipIcon&#45;&gt;DialogModule -->
<g id="edge13" class="edge">
<title>TooltipIcon&#45;&gt;DialogModule</title>
<path fill="none" stroke="#000000" d="M574,-187.0336C574,-204.0597 574,-227 574,-227 574,-227 974.3135,-227 974.3135,-227"/>
<polygon fill="#000000" stroke="#000000" points="974.3135,-230.5001 984.3135,-227 974.3135,-223.5001 974.3135,-230.5001"/>
</g>
<!-- Dialog  -->
<g id="node19" class="node">
<title>Dialog </title>
<polygon fill="#fb8072" stroke="#000000" points="1786.6038,-317 1729.3962,-317 1729.3962,-281 1786.6038,-281 1786.6038,-317"/>
<text text-anchor="middle" x="1758" y="-294.8" font-family="Times,serif" font-size="14.00" fill="#000000">Dialog </text>
</g>
<!-- DialogModule&#45;&gt;Dialog  -->
<g id="edge18" class="edge">
<title>DialogModule&#45;&gt;Dialog </title>
<path fill="none" stroke="#000000" stroke-dasharray="5,2" d="M1081.6951,-240C1244.2491,-240 1758,-240 1758,-240 1758,-240 1758,-270.9775 1758,-270.9775"/>
<polygon fill="#000000" stroke="#000000" points="1754.5001,-270.9774 1758,-280.9775 1761.5001,-270.9775 1754.5001,-270.9774"/>
</g>
<!-- DialogDirective  -->
<g id="node20" class="node">
<title>DialogDirective </title>
<polygon fill="#fb8072" stroke="#000000" points="1710.6857,-317 1601.3143,-317 1601.3143,-281 1710.6857,-281 1710.6857,-317"/>
<text text-anchor="middle" x="1656" y="-294.8" font-family="Times,serif" font-size="14.00" fill="#000000">DialogDirective </text>
</g>
<!-- DialogModule&#45;&gt;DialogDirective  -->
<g id="edge19" class="edge">
<title>DialogModule&#45;&gt;DialogDirective </title>
<path fill="none" stroke="#000000" stroke-dasharray="5,2" d="M1081.664,-242C1224.7143,-242 1633.8859,-242 1633.8859,-242 1633.8859,-242 1633.8859,-270.9648 1633.8859,-270.9648"/>
<polygon fill="#000000" stroke="#000000" points="1630.3859,-270.9648 1633.8859,-280.9648 1637.3859,-270.9649 1630.3859,-270.9648"/>
</g>
<!-- DialogPlaceholder  -->
<g id="node21" class="node">
<title>DialogPlaceholder </title>
<polygon fill="#fb8072" stroke="#000000" points="1582.6856,-317 1459.3144,-317 1459.3144,-281 1582.6856,-281 1582.6856,-317"/>
<text text-anchor="middle" x="1521" y="-294.8" font-family="Times,serif" font-size="14.00" fill="#000000">DialogPlaceholder </text>
</g>
<!-- DialogModule&#45;&gt;DialogPlaceholder  -->
<g id="edge20" class="edge">
<title>DialogModule&#45;&gt;DialogPlaceholder </title>
<path fill="none" stroke="#000000" stroke-dasharray="5,2" d="M1082.0883,-245C1202.7624,-245 1504.1534,-245 1504.1534,-245 1504.1534,-245 1504.1534,-270.7181 1504.1534,-270.7181"/>
<polygon fill="#000000" stroke="#000000" points="1500.6535,-270.718 1504.1534,-280.7181 1507.6535,-270.7181 1500.6535,-270.718"/>
</g>
<!-- EllipsisTooltip  -->
<g id="node22" class="node">
<title>EllipsisTooltip </title>
<polygon fill="#fb8072" stroke="#000000" points="1441.229,-317 1338.771,-317 1338.771,-281 1441.229,-281 1441.229,-317"/>
<text text-anchor="middle" x="1390" y="-294.8" font-family="Times,serif" font-size="14.00" fill="#000000">EllipsisTooltip </text>
</g>
<!-- DialogModule&#45;&gt;EllipsisTooltip  -->
<g id="edge21" class="edge">
<title>DialogModule&#45;&gt;EllipsisTooltip </title>
<path fill="none" stroke="#000000" stroke-dasharray="5,2" d="M1081.793,-247C1178.2143,-247 1383.9133,-247 1383.9133,-247 1383.9133,-247 1383.9133,-270.8129 1383.9133,-270.8129"/>
<polygon fill="#000000" stroke="#000000" points="1380.4133,-270.8129 1383.9133,-280.8129 1387.4133,-270.813 1380.4133,-270.8129"/>
</g>
<!-- OverflowMenu  -->
<g id="node23" class="node">
<title>OverflowMenu </title>
<polygon fill="#fb8072" stroke="#000000" points="1320.799,-317 1215.201,-317 1215.201,-281 1320.799,-281 1320.799,-317"/>
<text text-anchor="middle" x="1268" y="-294.8" font-family="Times,serif" font-size="14.00" fill="#000000">OverflowMenu </text>
</g>
<!-- DialogModule&#45;&gt;OverflowMenu  -->
<g id="edge22" class="edge">
<title>DialogModule&#45;&gt;OverflowMenu </title>
<path fill="none" stroke="#000000" stroke-dasharray="5,2" d="M1081.845,-250C1141.8672,-250 1235.847,-250 1235.847,-250 1235.847,-250 1235.847,-270.7542 1235.847,-270.7542"/>
<polygon fill="#000000" stroke="#000000" points="1232.347,-270.7542 1235.847,-280.7542 1239.347,-270.7542 1232.347,-270.7542"/>
</g>
<!-- OverflowMenuDirective  -->
<g id="node24" class="node">
<title>OverflowMenuDirective </title>
<polygon fill="#fb8072" stroke="#000000" points="1196.8816,-317 1039.1184,-317 1039.1184,-281 1196.8816,-281 1196.8816,-317"/>
<text text-anchor="middle" x="1118" y="-294.8" font-family="Times,serif" font-size="14.00" fill="#000000">OverflowMenuDirective </text>
</g>
<!-- DialogModule&#45;&gt;OverflowMenuDirective  -->
<g id="edge23" class="edge">
<title>DialogModule&#45;&gt;OverflowMenuDirective </title>
<path fill="none" stroke="#000000" stroke-dasharray="5,2" d="M1060.4427,-252.1061C1060.4427,-252.1061 1060.4427,-270.991 1060.4427,-270.991"/>
<polygon fill="#000000" stroke="#000000" points="1056.9427,-270.9909 1060.4427,-280.991 1063.9427,-270.991 1056.9427,-270.9909"/>
</g>
<!-- OverflowMenuOption  -->
<g id="node25" class="node">
<title>OverflowMenuOption </title>
<polygon fill="#fb8072" stroke="#000000" points="1021.1869,-317 876.8131,-317 876.8131,-281 1021.1869,-281 1021.1869,-317"/>
<text text-anchor="middle" x="949" y="-294.8" font-family="Times,serif" font-size="14.00" fill="#000000">OverflowMenuOption </text>
</g>
<!-- DialogModule&#45;&gt;OverflowMenuOption  -->
<g id="edge24" class="edge">
<title>DialogModule&#45;&gt;OverflowMenuOption </title>
<path fill="none" stroke="#000000" stroke-dasharray="5,2" d="M1002.7586,-252.1061C1002.7586,-252.1061 1002.7586,-270.991 1002.7586,-270.991"/>
<polygon fill="#000000" stroke="#000000" points="999.2587,-270.9909 1002.7586,-280.991 1006.2587,-270.991 999.2587,-270.9909"/>
</g>
<!-- OverflowMenuPane  -->
<g id="node26" class="node">
<title>OverflowMenuPane </title>
<polygon fill="#fb8072" stroke="#000000" points="858.5106,-317 725.4894,-317 725.4894,-281 858.5106,-281 858.5106,-317"/>
<text text-anchor="middle" x="792" y="-294.8" font-family="Times,serif" font-size="14.00" fill="#000000">OverflowMenuPane </text>
</g>
<!-- DialogModule&#45;&gt;OverflowMenuPane  -->
<g id="edge25" class="edge">
<title>DialogModule&#45;&gt;OverflowMenuPane </title>
<path fill="none" stroke="#000000" stroke-dasharray="5,2" d="M984.2414,-250C918.4967,-250 809.5605,-250 809.5605,-250 809.5605,-250 809.5605,-270.7542 809.5605,-270.7542"/>
<polygon fill="#000000" stroke="#000000" points="806.0606,-270.7542 809.5605,-280.7542 813.0606,-270.7542 806.0606,-270.7542"/>
</g>
<!-- Tooltip  -->
<g id="node27" class="node">
<title>Tooltip </title>
<polygon fill="#fb8072" stroke="#000000" points="707.225,-317 646.775,-317 646.775,-281 707.225,-281 707.225,-317"/>
<text text-anchor="middle" x="677" y="-294.8" font-family="Times,serif" font-size="14.00" fill="#000000">Tooltip </text>
</g>
<!-- DialogModule&#45;&gt;Tooltip  -->
<g id="edge26" class="edge">
<title>DialogModule&#45;&gt;Tooltip </title>
<path fill="none" stroke="#000000" stroke-dasharray="5,2" d="M984.2462,-247C886.7467,-247 677,-247 677,-247 677,-247 677,-270.8129 677,-270.8129"/>
<polygon fill="#000000" stroke="#000000" points="673.5001,-270.8129 677,-280.8129 680.5001,-270.813 673.5001,-270.8129"/>
</g>
<!-- TooltipDefinition  -->
<g id="node28" class="node">
<title>TooltipDefinition </title>
<polygon fill="#fb8072" stroke="#000000" points="629.2689,-317 510.7311,-317 510.7311,-281 629.2689,-281 629.2689,-317"/>
<text text-anchor="middle" x="570" y="-294.8" font-family="Times,serif" font-size="14.00" fill="#000000">TooltipDefinition </text>
</g>
<!-- DialogModule&#45;&gt;TooltipDefinition  -->
<g id="edge27" class="edge">
<title>DialogModule&#45;&gt;TooltipDefinition </title>
<path fill="none" stroke="#000000" stroke-dasharray="5,2" d="M984.2499,-245C875.4046,-245 622.0921,-245 622.0921,-245 622.0921,-245 622.0921,-270.7181 622.0921,-270.7181"/>
<polygon fill="#000000" stroke="#000000" points="618.5921,-270.718 622.0921,-280.7181 625.5921,-270.7181 618.5921,-270.718"/>
</g>
<!-- TooltipDirective  -->
<g id="node29" class="node">
<title>TooltipDirective </title>
<polygon fill="#fb8072" stroke="#000000" points="492.3074,-317 379.6926,-317 379.6926,-281 492.3074,-281 492.3074,-317"/>
<text text-anchor="middle" x="436" y="-294.8" font-family="Times,serif" font-size="14.00" fill="#000000">TooltipDirective </text>
</g>
<!-- DialogModule&#45;&gt;TooltipDirective  -->
<g id="edge28" class="edge">
<title>DialogModule&#45;&gt;TooltipDirective </title>
<path fill="none" stroke="#000000" stroke-dasharray="5,2" d="M984.145,-242C841.5639,-242 436,-242 436,-242 436,-242 436,-270.9648 436,-270.9648"/>
<polygon fill="#000000" stroke="#000000" points="432.5001,-270.9648 436,-280.9648 439.5001,-270.9649 432.5001,-270.9648"/>
</g>
<!-- TooltipIcon  -->
<g id="node30" class="node">
<title>TooltipIcon </title>
<polygon fill="#fb8072" stroke="#000000" points="361.6005,-317 276.3995,-317 276.3995,-281 361.6005,-281 361.6005,-317"/>
<text text-anchor="middle" x="319" y="-294.8" font-family="Times,serif" font-size="14.00" fill="#000000">TooltipIcon </text>
</g>
<!-- DialogModule&#45;&gt;TooltipIcon  -->
<g id="edge29" class="edge">
<title>DialogModule&#45;&gt;TooltipIcon </title>
<path fill="none" stroke="#000000" stroke-dasharray="5,2" d="M984.1109,-240C824.6416,-240 329.8035,-240 329.8035,-240 329.8035,-240 329.8035,-270.9775 329.8035,-270.9775"/>
<polygon fill="#000000" stroke="#000000" points="326.3034,-270.9775 329.8035,-280.9775 333.3034,-270.9774 326.3034,-270.9775"/>
</g>
<!-- DialogService -->
<g id="node14" class="node">
<title>DialogService</title>
<ellipse fill="#fdb462" stroke="#000000" cx="1911" cy="-104" rx="66.0492" ry="18"/>
<text text-anchor="middle" x="1911" y="-99.8" font-family="Times,serif" font-size="14.00" fill="#000000">DialogService</text>
</g>
<!-- DialogService&#45;&gt;DialogDirective -->
<g id="edge3" class="edge">
<title>DialogService&#45;&gt;DialogDirective</title>
<path fill="none" stroke="#000000" d="M1886.9092,-121.078C1886.9092,-121.078 1886.9092,-140.8993 1886.9092,-140.8993"/>
<polygon fill="#000000" stroke="#000000" points="1883.4093,-140.8992 1886.9092,-150.8993 1890.4093,-140.8993 1883.4093,-140.8992"/>
</g>
<!-- DialogService&#45;&gt;DialogModule -->
<g id="edge30" class="edge">
<title>DialogService&#45;&gt;DialogModule</title>
<path fill="none" stroke="#000000" d="M1938.0207,-120.4646C1938.0207,-155.4458 1938.0207,-234 1938.0207,-234 1938.0207,-234 1091.6578,-234 1091.6578,-234"/>
<polygon fill="#000000" stroke="#000000" points="1091.6579,-230.5001 1081.6578,-234 1091.6578,-237.5001 1091.6579,-230.5001"/>
</g>
<!-- ExperimentalModule -->
<g id="node15" class="node">
<title>ExperimentalModule</title>
<polygon fill="#8dd3c7" stroke="#000000" points="509.4692,-187 506.4692,-191 485.4692,-191 482.4692,-187 374.5308,-187 374.5308,-151 509.4692,-151 509.4692,-187"/>
<text text-anchor="middle" x="442" y="-164.8" font-family="Times,serif" font-size="14.00" fill="#000000">ExperimentalModule</text>
</g>
<!-- ExperimentalModule&#45;&gt;DialogModule -->
<g id="edge14" class="edge">
<title>ExperimentalModule&#45;&gt;DialogModule</title>
<path fill="none" stroke="#000000" d="M500.9441,-187.002C500.9441,-204.6754 500.9441,-229 500.9441,-229 500.9441,-229 973.8991,-229 973.8991,-229"/>
<polygon fill="#000000" stroke="#000000" points="973.8992,-232.5001 983.8991,-229 973.8991,-225.5001 973.8992,-232.5001"/>
</g>
<!-- I18nModule -->
<g id="node16" class="node">
<title>I18nModule</title>
<polygon fill="#8dd3c7" stroke="#000000" points="356.7107,-187 353.7107,-191 332.7107,-191 329.7107,-187 271.2893,-187 271.2893,-151 356.7107,-151 356.7107,-187"/>
<text text-anchor="middle" x="314" y="-164.8" font-family="Times,serif" font-size="14.00" fill="#000000">I18nModule</text>
</g>
<!-- I18nModule&#45;&gt;DialogModule -->
<g id="edge15" class="edge">
<title>I18nModule&#45;&gt;DialogModule</title>
<path fill="none" stroke="#000000" d="M303.0019,-187.2222C303.0019,-205.8285 303.0019,-232 303.0019,-232 303.0019,-232 974.2537,-232 974.2537,-232"/>
<polygon fill="#000000" stroke="#000000" points="974.2537,-235.5001 984.2537,-232 974.2537,-228.5001 974.2537,-235.5001"/>
</g>
<!-- PlaceholderModule -->
<g id="node17" class="node">
<title>PlaceholderModule</title>
<polygon fill="#8dd3c7" stroke="#000000" points="253.6331,-187 250.6331,-191 229.6331,-191 226.6331,-187 128.3669,-187 128.3669,-151 253.6331,-151 253.6331,-187"/>
<text text-anchor="middle" x="191" y="-164.8" font-family="Times,serif" font-size="14.00" fill="#000000">PlaceholderModule</text>
</g>
<!-- PlaceholderModule&#45;&gt;DialogModule -->
<g id="edge16" class="edge">
<title>PlaceholderModule&#45;&gt;DialogModule</title>
<path fill="none" stroke="#000000" d="M191,-187.1061C191,-206.3391 191,-234 191,-234 191,-234 974.0911,-234 974.0911,-234"/>
<polygon fill="#000000" stroke="#000000" points="974.0911,-237.5001 984.0911,-234 974.0911,-230.5001 974.0911,-237.5001"/>
</g>
<!-- UtilsModule -->
<g id="node18" class="node">
<title>UtilsModule</title>
<polygon fill="#8dd3c7" stroke="#000000" points="110.2731,-187 107.2731,-191 86.2731,-191 83.2731,-187 23.7269,-187 23.7269,-151 110.2731,-151 110.2731,-187"/>
<text text-anchor="middle" x="67" y="-164.8" font-family="Times,serif" font-size="14.00" fill="#000000">UtilsModule</text>
</g>
<!-- UtilsModule&#45;&gt;DialogModule -->
<g id="edge17" class="edge">
<title>UtilsModule&#45;&gt;DialogModule</title>
<path fill="none" stroke="#000000" d="M67,-187.2228C67,-207.3652 67,-237 67,-237 67,-237 974.1014,-237 974.1014,-237"/>
<polygon fill="#000000" stroke="#000000" points="974.1014,-240.5001 984.1014,-237 974.1013,-233.5001 974.1014,-240.5001"/>
</g>
</g>
</svg>
