<?xml version="1.0" encoding="UTF-8" standalone="no"?>
<!DOCTYPE svg PUBLIC "-//W3C//DTD SVG 1.1//EN"
 "http://www.w3.org/Graphics/SVG/1.1/DTD/svg11.dtd">
<!-- Generated by graphviz version 2.40.1 (20161225.0304)
 -->
<!-- Title: dependencies Pages: 1 -->
<svg width="1666pt" height="349pt"
 viewBox="0.00 0.00 1666.00 349.00" xmlns="http://www.w3.org/2000/svg" xmlns:xlink="http://www.w3.org/1999/xlink">
<g id="graph0" class="graph" transform="scale(1 1) rotate(0) translate(4 345)">
<title>dependencies</title>
<polygon fill="#ffffff" stroke="transparent" points="-4,4 -4,-345 1662,-345 1662,4 -4,4"/>
<text text-anchor="start" x="808.0091" y="-42.4" font-family="sans-serif" font-weight="bold" font-size="14.00" fill="#000000">Legend</text>
<polygon fill="#ffffb3" stroke="transparent" points="595,-10 595,-30 615,-30 615,-10 595,-10"/>
<text text-anchor="start" x="618.629" y="-15.4" font-family="sans-serif" font-size="14.00" fill="#000000"> &#160;Declarations</text>
<polygon fill="#8dd3c7" stroke="transparent" points="708,-10 708,-30 728,-30 728,-10 708,-10"/>
<text text-anchor="start" x="731.7251" y="-15.4" font-family="sans-serif" font-size="14.00" fill="#000000"> &#160;Module</text>
<polygon fill="#80b1d3" stroke="transparent" points="794,-10 794,-30 814,-30 814,-10 794,-10"/>
<text text-anchor="start" x="817.7812" y="-15.4" font-family="sans-serif" font-size="14.00" fill="#000000"> &#160;Bootstrap</text>
<polygon fill="#fdb462" stroke="transparent" points="891,-10 891,-30 911,-30 911,-10 891,-10"/>
<text text-anchor="start" x="914.6732" y="-15.4" font-family="sans-serif" font-size="14.00" fill="#000000"> &#160;Providers</text>
<polygon fill="#fb8072" stroke="transparent" points="987,-10 987,-30 1007,-30 1007,-10 987,-10"/>
<text text-anchor="start" x="1010.7258" y="-15.4" font-family="sans-serif" font-size="14.00" fill="#000000"> &#160;Exports</text>
<g id="clust1" class="cluster">
<title>cluster_DialogModule</title>
<polygon fill="none" stroke="#000000" stroke-dasharray="1,5" points="8,-70 8,-333 1650,-333 1650,-70 8,-70"/>
</g>
<g id="clust2" class="cluster">
<title>cluster_DialogModule_declarations</title>
<polygon fill="none" stroke="#000000" points="260,-143 260,-195 1630,-195 1630,-143 260,-143"/>
</g>
<g id="clust7" class="cluster">
<title>cluster_DialogModule_DialogDirective_providers</title>
<polygon fill="none" stroke="#000000" points="1286,-78 1286,-130 1434,-130 1434,-78 1286,-78"/>
</g>
<g id="clust13" class="cluster">
<title>cluster_DialogModule_imports</title>
<polygon fill="none" stroke="#000000" points="16,-143 16,-195 252,-195 252,-143 16,-143"/>
</g>
<g id="clust14" class="cluster">
<title>cluster_DialogModule_exports</title>
<polygon fill="none" stroke="#000000" points="177,-273 177,-325 1580,-325 1580,-273 177,-273"/>
</g>
<!-- Dialog -->
<g id="node1" class="node">
<title>Dialog</title>
<polygon fill="#ffffb3" stroke="#000000" points="1622.1025,-187 1567.8975,-187 1567.8975,-151 1622.1025,-151 1622.1025,-187"/>
<text text-anchor="middle" x="1595" y="-164.8" font-family="Times,serif" font-size="14.00" fill="#000000">Dialog</text>
</g>
<!-- DialogModule -->
<g id="node11" class="node">
<title>DialogModule</title>
<polygon fill="#8dd3c7" stroke="#000000" points="1075.6528,-252 1072.6528,-256 1051.6528,-256 1048.6528,-252 978.3472,-252 978.3472,-216 1075.6528,-216 1075.6528,-252"/>
<text text-anchor="middle" x="1027" y="-229.8" font-family="Times,serif" font-size="14.00" fill="#000000">DialogModule</text>
</g>
<!-- Dialog&#45;&gt;DialogModule -->
<g id="edge1" class="edge">
<title>Dialog&#45;&gt;DialogModule</title>
<path fill="none" stroke="#000000" d="M1596.9262,-187.308C1596.9262,-207.1455 1596.9262,-236 1596.9262,-236 1596.9262,-236 1086.0849,-236 1086.0849,-236"/>
<polygon fill="#000000" stroke="#000000" points="1086.0849,-232.5001 1076.0849,-236 1086.0848,-239.5001 1086.0849,-232.5001"/>
</g>
<!-- Tooltip -->
<g id="node2" class="node">
<title>Tooltip</title>
<polygon fill="#ffffb3" stroke="#000000" points="1549.7248,-187 1492.2752,-187 1492.2752,-151 1549.7248,-151 1549.7248,-187"/>
<text text-anchor="middle" x="1521" y="-164.8" font-family="Times,serif" font-size="14.00" fill="#000000">Tooltip</text>
</g>
<!-- Tooltip&#45;&gt;DialogModule -->
<g id="edge2" class="edge">
<title>Tooltip&#45;&gt;DialogModule</title>
<path fill="none" stroke="#000000" d="M1505.2805,-187.1686C1505.2805,-206.0898 1505.2805,-233 1505.2805,-233 1505.2805,-233 1085.9367,-233 1085.9367,-233"/>
<polygon fill="#000000" stroke="#000000" points="1085.9368,-229.5001 1075.9367,-233 1085.9367,-236.5001 1085.9368,-229.5001"/>
</g>
<!-- OverflowMenu -->
<g id="node3" class="node">
<title>OverflowMenu</title>
<polygon fill="#ffffb3" stroke="#000000" points="1474.2992,-187 1371.7008,-187 1371.7008,-151 1474.2992,-151 1474.2992,-187"/>
<text text-anchor="middle" x="1423" y="-164.8" font-family="Times,serif" font-size="14.00" fill="#000000">OverflowMenu</text>
</g>
<!-- OverflowMenu&#45;&gt;DialogModule -->
<g id="edge3" class="edge">
<title>OverflowMenu&#45;&gt;DialogModule</title>
<path fill="none" stroke="#000000" d="M1394.875,-187.302C1394.875,-205.2699 1394.875,-230 1394.875,-230 1394.875,-230 1085.851,-230 1085.851,-230"/>
<polygon fill="#000000" stroke="#000000" points="1085.851,-226.5001 1075.851,-230 1085.8509,-233.5001 1085.851,-226.5001"/>
</g>
<!-- OverflowMenuPane -->
<g id="node4" class="node">
<title>OverflowMenuPane</title>
<polygon fill="#ffffb3" stroke="#000000" points="1353.5115,-187 1224.4885,-187 1224.4885,-151 1353.5115,-151 1353.5115,-187"/>
<text text-anchor="middle" x="1289" y="-164.8" font-family="Times,serif" font-size="14.00" fill="#000000">OverflowMenuPane</text>
</g>
<!-- OverflowMenuPane&#45;&gt;DialogModule -->
<g id="edge4" class="edge">
<title>OverflowMenuPane&#45;&gt;DialogModule</title>
<path fill="none" stroke="#000000" d="M1259.375,-187.2819C1259.375,-202.9478 1259.375,-223 1259.375,-223 1259.375,-223 1085.7134,-223 1085.7134,-223"/>
<polygon fill="#000000" stroke="#000000" points="1085.7134,-219.5001 1075.7134,-223 1085.7134,-226.5001 1085.7134,-219.5001"/>
</g>
<!-- DialogDirective -->
<g id="node5" class="node">
<title>DialogDirective</title>
<polygon fill="#ffffb3" stroke="#000000" points="1206.1854,-187 1099.8146,-187 1099.8146,-151 1206.1854,-151 1206.1854,-187"/>
<text text-anchor="middle" x="1153" y="-164.8" font-family="Times,serif" font-size="14.00" fill="#000000">DialogDirective</text>
</g>
<!-- DialogDirective&#45;&gt;DialogModule -->
<g id="edge5" class="edge">
<title>DialogDirective&#45;&gt;DialogModule</title>
<path fill="none" stroke="#000000" d="M1121.875,-187.1243C1121.875,-201.7832 1121.875,-220 1121.875,-220 1121.875,-220 1085.8271,-220 1085.8271,-220"/>
<polygon fill="#000000" stroke="#000000" points="1085.8271,-216.5001 1075.8271,-220 1085.8271,-223.5001 1085.8271,-216.5001"/>
</g>
<!-- TooltipDirective -->
<g id="node6" class="node">
<title>TooltipDirective</title>
<polygon fill="#ffffb3" stroke="#000000" points="1081.8076,-187 972.1924,-187 972.1924,-151 1081.8076,-151 1081.8076,-187"/>
<text text-anchor="middle" x="1027" y="-164.8" font-family="Times,serif" font-size="14.00" fill="#000000">TooltipDirective</text>
</g>
<!-- TooltipDirective&#45;&gt;DialogModule -->
<g id="edge7" class="edge">
<title>TooltipDirective&#45;&gt;DialogModule</title>
<path fill="none" stroke="#000000" d="M1027,-187.1061C1027,-187.1061 1027,-205.991 1027,-205.991"/>
<polygon fill="#000000" stroke="#000000" points="1023.5001,-205.9909 1027,-215.991 1030.5001,-205.991 1023.5001,-205.9909"/>
</g>
<!-- EllipsisTooltipDirective -->
<g id="node7" class="node">
<title>EllipsisTooltipDirective</title>
<polygon fill="#ffffb3" stroke="#000000" points="954.8117,-187 803.1883,-187 803.1883,-151 954.8117,-151 954.8117,-187"/>
<text text-anchor="middle" x="879" y="-164.8" font-family="Times,serif" font-size="14.00" fill="#000000">EllipsisTooltipDirective</text>
</g>
<!-- EllipsisTooltipDirective&#45;&gt;DialogModule -->
<g id="edge8" class="edge">
<title>EllipsisTooltipDirective&#45;&gt;DialogModule</title>
<path fill="none" stroke="#000000" d="M929.1261,-187.1243C929.1261,-201.7832 929.1261,-220 929.1261,-220 929.1261,-220 968.063,-220 968.063,-220"/>
<polygon fill="#000000" stroke="#000000" points="968.0631,-223.5001 978.063,-220 968.063,-216.5001 968.0631,-223.5001"/>
</g>
<!-- OverflowMenuDirective -->
<g id="node8" class="node">
<title>OverflowMenuDirective</title>
<polygon fill="#ffffb3" stroke="#000000" points="785.3821,-187 630.6179,-187 630.6179,-151 785.3821,-151 785.3821,-187"/>
<text text-anchor="middle" x="708" y="-164.8" font-family="Times,serif" font-size="14.00" fill="#000000">OverflowMenuDirective</text>
</g>
<!-- OverflowMenuDirective&#45;&gt;DialogModule -->
<g id="edge9" class="edge">
<title>OverflowMenuDirective&#45;&gt;DialogModule</title>
<path fill="none" stroke="#000000" d="M757.8926,-187.2819C757.8926,-202.9478 757.8926,-223 757.8926,-223 757.8926,-223 968.2667,-223 968.2667,-223"/>
<polygon fill="#000000" stroke="#000000" points="968.2667,-226.5001 978.2667,-223 968.2666,-219.5001 968.2667,-226.5001"/>
</g>
<!-- OverflowMenuOption -->
<g id="node9" class="node">
<title>OverflowMenuOption</title>
<polygon fill="#ffffb3" stroke="#000000" points="612.6867,-187 471.3133,-187 471.3133,-151 612.6867,-151 612.6867,-187"/>
<text text-anchor="middle" x="542" y="-164.8" font-family="Times,serif" font-size="14.00" fill="#000000">OverflowMenuOption</text>
</g>
<!-- OverflowMenuOption&#45;&gt;DialogModule -->
<g id="edge10" class="edge">
<title>OverflowMenuOption&#45;&gt;DialogModule</title>
<path fill="none" stroke="#000000" d="M583.8263,-187.0352C583.8263,-203.7344 583.8263,-226 583.8263,-226 583.8263,-226 968.3049,-226 968.3049,-226"/>
<polygon fill="#000000" stroke="#000000" points="968.305,-229.5001 978.3049,-226 968.3049,-222.5001 968.305,-229.5001"/>
</g>
<!-- DialogPlaceholderComponent -->
<g id="node10" class="node">
<title>DialogPlaceholderComponent</title>
<polygon fill="#ffffb3" stroke="#000000" points="453.5182,-187 268.4818,-187 268.4818,-151 453.5182,-151 453.5182,-187"/>
<text text-anchor="middle" x="361" y="-164.8" font-family="Times,serif" font-size="14.00" fill="#000000">DialogPlaceholderComponent</text>
</g>
<!-- DialogPlaceholderComponent&#45;&gt;DialogModule -->
<g id="edge11" class="edge">
<title>DialogPlaceholderComponent&#45;&gt;DialogModule</title>
<path fill="none" stroke="#000000" d="M423.2078,-187.302C423.2078,-205.2699 423.2078,-230 423.2078,-230 423.2078,-230 968.1006,-230 968.1006,-230"/>
<polygon fill="#000000" stroke="#000000" points="968.1006,-233.5001 978.1006,-230 968.1006,-226.5001 968.1006,-233.5001"/>
</g>
<!-- Dialog  -->
<g id="node15" class="node">
<title>Dialog </title>
<polygon fill="#fb8072" stroke="#000000" points="1571.6038,-317 1514.3962,-317 1514.3962,-281 1571.6038,-281 1571.6038,-317"/>
<text text-anchor="middle" x="1543" y="-294.8" font-family="Times,serif" font-size="14.00" fill="#000000">Dialog </text>
</g>
<!-- DialogModule&#45;&gt;Dialog  -->
<g id="edge14" class="edge">
<title>DialogModule&#45;&gt;Dialog </title>
<path fill="none" stroke="#000000" stroke-dasharray="5,2" d="M1075.8712,-239C1202.5831,-239 1531.9055,-239 1531.9055,-239 1531.9055,-239 1531.9055,-270.998 1531.9055,-270.998"/>
<polygon fill="#000000" stroke="#000000" points="1528.4056,-270.998 1531.9055,-280.998 1535.4056,-270.9981 1528.4056,-270.998"/>
</g>
<!-- Tooltip  -->
<g id="node16" class="node">
<title>Tooltip </title>
<polygon fill="#fb8072" stroke="#000000" points="1496.225,-317 1435.775,-317 1435.775,-281 1496.225,-281 1496.225,-317"/>
<text text-anchor="middle" x="1466" y="-294.8" font-family="Times,serif" font-size="14.00" fill="#000000">Tooltip </text>
</g>
<!-- DialogModule&#45;&gt;Tooltip  -->
<g id="edge15" class="edge">
<title>DialogModule&#45;&gt;Tooltip </title>
<path fill="none" stroke="#000000" stroke-dasharray="5,2" d="M1075.6682,-243C1187.8188,-243 1454.8936,-243 1454.8936,-243 1454.8936,-243 1454.8936,-270.973 1454.8936,-270.973"/>
<polygon fill="#000000" stroke="#000000" points="1451.3937,-270.973 1454.8936,-280.973 1458.3937,-270.973 1451.3937,-270.973"/>
</g>
<!-- OverflowMenu  -->
<g id="node17" class="node">
<title>OverflowMenu </title>
<polygon fill="#fb8072" stroke="#000000" points="1417.799,-317 1312.201,-317 1312.201,-281 1417.799,-281 1417.799,-317"/>
<text text-anchor="middle" x="1365" y="-294.8" font-family="Times,serif" font-size="14.00" fill="#000000">OverflowMenu </text>
</g>
<!-- DialogModule&#45;&gt;OverflowMenu  -->
<g id="edge16" class="edge">
<title>DialogModule&#45;&gt;OverflowMenu </title>
<path fill="none" stroke="#000000" stroke-dasharray="5,2" d="M1075.8135,-246C1162.1853,-246 1332.928,-246 1332.928,-246 1332.928,-246 1332.928,-270.7604 1332.928,-270.7604"/>
<polygon fill="#000000" stroke="#000000" points="1329.428,-270.7604 1332.928,-280.7604 1336.428,-270.7604 1329.428,-270.7604"/>
</g>
<!-- OverflowMenuPane  -->
<g id="node18" class="node">
<title>OverflowMenuPane </title>
<polygon fill="#fb8072" stroke="#000000" points="1294.5106,-317 1161.4894,-317 1161.4894,-281 1294.5106,-281 1294.5106,-317"/>
<text text-anchor="middle" x="1228" y="-294.8" font-family="Times,serif" font-size="14.00" fill="#000000">OverflowMenuPane </text>
</g>
<!-- DialogModule&#45;&gt;OverflowMenuPane  -->
<g id="edge17" class="edge">
<title>DialogModule&#45;&gt;OverflowMenuPane </title>
<path fill="none" stroke="#000000" stroke-dasharray="5,2" d="M1075.751,-249C1121.7781,-249 1183.7937,-249 1183.7937,-249 1183.7937,-249 1183.7937,-270.9489 1183.7937,-270.9489"/>
<polygon fill="#000000" stroke="#000000" points="1180.2937,-270.9488 1183.7937,-280.9489 1187.2937,-270.9489 1180.2937,-270.9488"/>
</g>
<!-- DialogDirective  -->
<g id="node19" class="node">
<title>DialogDirective </title>
<polygon fill="#fb8072" stroke="#000000" points="1143.6857,-317 1034.3143,-317 1034.3143,-281 1143.6857,-281 1143.6857,-317"/>
<text text-anchor="middle" x="1089" y="-294.8" font-family="Times,serif" font-size="14.00" fill="#000000">DialogDirective </text>
</g>
<!-- DialogModule&#45;&gt;DialogDirective  -->
<g id="edge18" class="edge">
<title>DialogModule&#45;&gt;DialogDirective </title>
<path fill="none" stroke="#000000" stroke-dasharray="5,2" d="M1054.9918,-252.1061C1054.9918,-252.1061 1054.9918,-270.991 1054.9918,-270.991"/>
<polygon fill="#000000" stroke="#000000" points="1051.4918,-270.9909 1054.9918,-280.991 1058.4918,-270.991 1051.4918,-270.9909"/>
</g>
<!-- TooltipDirective  -->
<g id="node20" class="node">
<title>TooltipDirective </title>
<polygon fill="#fb8072" stroke="#000000" points="1016.3074,-317 903.6926,-317 903.6926,-281 1016.3074,-281 1016.3074,-317"/>
<text text-anchor="middle" x="960" y="-294.8" font-family="Times,serif" font-size="14.00" fill="#000000">TooltipDirective </text>
</g>
<!-- DialogModule&#45;&gt;TooltipDirective  -->
<g id="edge19" class="edge">
<title>DialogModule&#45;&gt;TooltipDirective </title>
<path fill="none" stroke="#000000" stroke-dasharray="5,2" d="M997.2888,-252.1061C997.2888,-252.1061 997.2888,-270.991 997.2888,-270.991"/>
<polygon fill="#000000" stroke="#000000" points="993.7888,-270.9909 997.2888,-280.991 1000.7888,-270.991 993.7888,-270.9909"/>
</g>
<!-- EllipsisTooltipDirective  -->
<g id="node21" class="node">
<title>EllipsisTooltipDirective </title>
<polygon fill="#fb8072" stroke="#000000" points="885.3115,-317 730.6885,-317 730.6885,-281 885.3115,-281 885.3115,-317"/>
<text text-anchor="middle" x="808" y="-294.8" font-family="Times,serif" font-size="14.00" fill="#000000">EllipsisTooltipDirective </text>
</g>
<!-- DialogModule&#45;&gt;EllipsisTooltipDirective  -->
<g id="edge20" class="edge">
<title>DialogModule&#45;&gt;EllipsisTooltipDirective </title>
<path fill="none" stroke="#000000" stroke-dasharray="5,2" d="M978.0599,-249C923.9641,-249 844.375,-249 844.375,-249 844.375,-249 844.375,-270.9489 844.375,-270.9489"/>
<polygon fill="#000000" stroke="#000000" points="840.8751,-270.9488 844.375,-280.9489 847.8751,-270.9489 840.8751,-270.9488"/>
</g>
<!-- OverflowMenuDirective  -->
<g id="node22" class="node">
<title>OverflowMenuDirective </title>
<polygon fill="#fb8072" stroke="#000000" points="712.8816,-317 555.1184,-317 555.1184,-281 712.8816,-281 712.8816,-317"/>
<text text-anchor="middle" x="634" y="-294.8" font-family="Times,serif" font-size="14.00" fill="#000000">OverflowMenuDirective </text>
</g>
<!-- DialogModule&#45;&gt;OverflowMenuDirective  -->
<g id="edge21" class="edge">
<title>DialogModule&#45;&gt;OverflowMenuDirective </title>
<path fill="none" stroke="#000000" stroke-dasharray="5,2" d="M977.9942,-246C880.5741,-246 671.875,-246 671.875,-246 671.875,-246 671.875,-270.7604 671.875,-270.7604"/>
<polygon fill="#000000" stroke="#000000" points="668.3751,-270.7604 671.875,-280.7604 675.3751,-270.7604 668.3751,-270.7604"/>
</g>
<!-- OverflowMenuOption  -->
<g id="node23" class="node">
<title>OverflowMenuOption </title>
<polygon fill="#fb8072" stroke="#000000" points="537.1869,-317 392.8131,-317 392.8131,-281 537.1869,-281 537.1869,-317"/>
<text text-anchor="middle" x="465" y="-294.8" font-family="Times,serif" font-size="14.00" fill="#000000">OverflowMenuOption </text>
</g>
<!-- DialogModule&#45;&gt;OverflowMenuOption  -->
<g id="edge22" class="edge">
<title>DialogModule&#45;&gt;OverflowMenuOption </title>
<path fill="none" stroke="#000000" stroke-dasharray="5,2" d="M978.302,-243C848.5603,-243 504.375,-243 504.375,-243 504.375,-243 504.375,-270.973 504.375,-270.973"/>
<polygon fill="#000000" stroke="#000000" points="500.8751,-270.973 504.375,-280.973 507.8751,-270.973 500.8751,-270.973"/>
</g>
<!-- DialogPlaceholderComponent  -->
<g id="node24" class="node">
<title>DialogPlaceholderComponent </title>
<polygon fill="#fb8072" stroke="#000000" points="374.5176,-317 185.4824,-317 185.4824,-281 374.5176,-281 374.5176,-317"/>
<text text-anchor="middle" x="280" y="-294.8" font-family="Times,serif" font-size="14.00" fill="#000000">DialogPlaceholderComponent </text>
</g>
<!-- DialogModule&#45;&gt;DialogPlaceholderComponent  -->
<g id="edge23" class="edge">
<title>DialogModule&#45;&gt;DialogPlaceholderComponent </title>
<path fill="none" stroke="#000000" stroke-dasharray="5,2" d="M978.2211,-239C818.5002,-239 321.375,-239 321.375,-239 321.375,-239 321.375,-270.998 321.375,-270.998"/>
<polygon fill="#000000" stroke="#000000" points="317.8751,-270.998 321.375,-280.998 324.8751,-270.9981 317.8751,-270.998"/>
</g>
<!-- DialogService -->
<g id="node12" class="node">
<title>DialogService</title>
<ellipse fill="#fdb462" stroke="#000000" cx="1360" cy="-104" rx="66.0492" ry="18"/>
<text text-anchor="middle" x="1360" y="-99.8" font-family="Times,serif" font-size="14.00" fill="#000000">DialogService</text>
</g>
<!-- DialogService&#45;&gt;DialogDirective -->
<g id="edge6" class="edge">
<title>DialogService&#45;&gt;DialogDirective</title>
<path fill="none" stroke="#000000" d="M1293.6498,-104C1233.1031,-104 1153,-104 1153,-104 1153,-104 1153,-140.8939 1153,-140.8939"/>
<polygon fill="#000000" stroke="#000000" points="1149.5001,-140.8938 1153,-150.8939 1156.5001,-140.8939 1149.5001,-140.8938"/>
</g>
<!-- DialogService&#45;&gt;DialogModule -->
<g id="edge24" class="edge">
<title>DialogService&#45;&gt;DialogModule</title>
<path fill="none" stroke="#000000" d="M1362.803,-122.0015C1362.803,-155.9379 1362.803,-226 1362.803,-226 1362.803,-226 1085.8286,-226 1085.8286,-226"/>
<polygon fill="#000000" stroke="#000000" points="1085.8287,-222.5001 1075.8286,-226 1085.8286,-229.5001 1085.8287,-222.5001"/>
</g>
<!-- StaticIconModule -->
<g id="node13" class="node">
<title>StaticIconModule</title>
<polygon fill="#8dd3c7" stroke="#000000" points="244.309,-187 241.309,-191 220.309,-191 217.309,-187 127.691,-187 127.691,-151 244.309,-151 244.309,-187"/>
<text text-anchor="middle" x="186" y="-164.8" font-family="Times,serif" font-size="14.00" fill="#000000">StaticIconModule</text>
</g>
<!-- StaticIconModule&#45;&gt;DialogModule -->
<g id="edge12" class="edge">
<title>StaticIconModule&#45;&gt;DialogModule</title>
<path fill="none" stroke="#000000" d="M214.8228,-187.1686C214.8228,-206.0898 214.8228,-233 214.8228,-233 214.8228,-233 968.3257,-233 968.3257,-233"/>
<polygon fill="#000000" stroke="#000000" points="968.3257,-236.5001 978.3257,-233 968.3257,-229.5001 968.3257,-236.5001"/>
</g>
<!-- I18nModule -->
<g id="node14" class="node">
<title>I18nModule</title>
<polygon fill="#8dd3c7" stroke="#000000" points="109.7107,-187 106.7107,-191 85.7107,-191 82.7107,-187 24.2893,-187 24.2893,-151 109.7107,-151 109.7107,-187"/>
<text text-anchor="middle" x="67" y="-164.8" font-family="Times,serif" font-size="14.00" fill="#000000">I18nModule</text>
</g>
<!-- I18nModule&#45;&gt;DialogModule -->
<g id="edge13" class="edge">
<title>I18nModule&#45;&gt;DialogModule</title>
<path fill="none" stroke="#000000" d="M67,-187.308C67,-207.1455 67,-236 67,-236 67,-236 968.0736,-236 968.0736,-236"/>
<polygon fill="#000000" stroke="#000000" points="968.0737,-239.5001 978.0736,-236 968.0736,-232.5001 968.0737,-239.5001"/>
</g>
</g>
</svg>
