<?xml version="1.0" encoding="UTF-8" standalone="no"?>
<!DOCTYPE svg PUBLIC "-//W3C//DTD SVG 1.1//EN"
 "http://www.w3.org/Graphics/SVG/1.1/DTD/svg11.dtd">
<!-- Generated by graphviz version 2.47.0 (20210316.0004)
 -->
<!-- Title: dependencies Pages: 1 -->
<svg width="504pt" height="284pt"
 viewBox="0.00 0.00 504.00 284.00" xmlns="http://www.w3.org/2000/svg" xmlns:xlink="http://www.w3.org/1999/xlink">
<g id="graph0" class="graph" transform="scale(1 1) rotate(0) translate(4 280)">
<title>dependencies</title>
<polygon fill="white" stroke="transparent" points="-4,4 -4,-280 500,-280 500,4 -4,4"/>
<text text-anchor="start" x="227.01" y="-42.4" font-family="Times-12" font-weight="bold" font-size="14.00">Legend</text>
<polygon fill="#ffffb3" stroke="transparent" points="14,-10 14,-30 34,-30 34,-10 14,-10"/>
<text text-anchor="start" x="37.63" y="-15.4" font-family="Times-12" font-size="14.00"> &#160;Declarations</text>
<polygon fill="#8dd3c7" stroke="transparent" points="127,-10 127,-30 147,-30 147,-10 127,-10"/>
<text text-anchor="start" x="150.73" y="-15.4" font-family="Times-12" font-size="14.00"> &#160;Module</text>
<polygon fill="#80b1d3" stroke="transparent" points="213,-10 213,-30 233,-30 233,-10 213,-10"/>
<text text-anchor="start" x="236.78" y="-15.4" font-family="Times-12" font-size="14.00"> &#160;Bootstrap</text>
<polygon fill="#fdb462" stroke="transparent" points="310,-10 310,-30 330,-30 330,-10 310,-10"/>
<text text-anchor="start" x="333.67" y="-15.4" font-family="Times-12" font-size="14.00"> &#160;Providers</text>
<polygon fill="#fb8072" stroke="transparent" points="406,-10 406,-30 426,-30 426,-10 406,-10"/>
<text text-anchor="start" x="429.73" y="-15.4" font-family="Times-12" font-size="14.00"> &#160;Exports</text>
<g id="clust1" class="cluster">
<title>cluster_ContainedListModule</title>
<polygon fill="none" stroke="black" stroke-dasharray="1,5" points="61,-70 61,-268 435,-268 435,-70 61,-70"/>
</g>
<g id="clust2" class="cluster">
<title>cluster_ContainedListModule_declarations</title>
<polygon fill="none" stroke="black" points="177,-78 177,-130 427,-130 427,-78 177,-78"/>
</g>
<g id="clust6" class="cluster">
<title>cluster_ContainedListModule_exports</title>
<polygon fill="none" stroke="black" points="120,-208 120,-260 377,-260 377,-208 120,-208"/>
</g>
<g id="clust5" class="cluster">
<title>cluster_ContainedListModule_imports</title>
<polygon fill="none" stroke="black" points="69,-78 69,-130 169,-130 169,-78 69,-78"/>
</g>
<!-- ContainedList -->
<g id="node1" class="node">
<title>ContainedList</title>
<polygon fill="#ffffb3" stroke="black" points="418.83,-122 323.17,-122 323.17,-86 418.83,-86 418.83,-122"/>
<text text-anchor="middle" x="371" y="-99.8" font-family="Times,serif" font-size="14.00">ContainedList</text>
</g>
<!-- ContainedListModule -->
<g id="node3" class="node">
<title>ContainedListModule</title>
<polygon fill="#8dd3c7" stroke="black" points="314.38,-187 311.38,-191 290.38,-191 287.38,-187 175.62,-187 175.62,-151 314.38,-151 314.38,-187"/>
<text text-anchor="middle" x="245" y="-164.8" font-family="Times,serif" font-size="14.00">ContainedListModule</text>
</g>
<!-- ContainedList&#45;&gt;ContainedListModule -->
<g id="edge1" class="edge">
<title>ContainedList&#45;&gt;ContainedListModule</title>
<path fill="none" stroke="black" d="M323.21,-104C315.49,-104 309.96,-104 309.96,-104 309.96,-104 309.96,-140.89 309.96,-140.89"/>
<polygon fill="black" stroke="black" points="306.46,-140.89 309.96,-150.89 313.46,-140.89 306.46,-140.89"/>
</g>
<!-- ContainedListItem -->
<g id="node2" class="node">
<title>ContainedListItem</title>
<polygon fill="#ffffb3" stroke="black" points="305.48,-122 184.52,-122 184.52,-86 305.48,-86 305.48,-122"/>
<text text-anchor="middle" x="245" y="-99.8" font-family="Times,serif" font-size="14.00">ContainedListItem</text>
</g>
<!-- ContainedListItem&#45;&gt;ContainedListModule -->
<g id="edge2" class="edge">
<title>ContainedListItem&#45;&gt;ContainedListModule</title>
<path fill="none" stroke="black" d="M245,-122.11C245,-122.11 245,-140.99 245,-140.99"/>
<polygon fill="black" stroke="black" points="241.5,-140.99 245,-150.99 248.5,-140.99 241.5,-140.99"/>
</g>
<!-- ContainedList  -->
<g id="node5" class="node">
<title>ContainedList </title>
<polygon fill="#fb8072" stroke="black" points="369.33,-252 270.67,-252 270.67,-216 369.33,-216 369.33,-252"/>
<text text-anchor="middle" x="320" y="-229.8" font-family="Times,serif" font-size="14.00">ContainedList </text>
</g>
<!-- ContainedListModule&#45;&gt;ContainedList  -->
<g id="edge4" class="edge">
<title>ContainedListModule&#45;&gt;ContainedList </title>
<path fill="none" stroke="black" stroke-dasharray="5,2" d="M292.51,-187.11C292.51,-187.11 292.51,-205.99 292.51,-205.99"/>
<polygon fill="black" stroke="black" points="289.01,-205.99 292.51,-215.99 296.01,-205.99 289.01,-205.99"/>
</g>
<!-- ContainedListItem  -->
<g id="node6" class="node">
<title>ContainedListItem </title>
<polygon fill="#fb8072" stroke="black" points="252.48,-252 127.52,-252 127.52,-216 252.48,-216 252.48,-252"/>
<text text-anchor="middle" x="190" y="-229.8" font-family="Times,serif" font-size="14.00">ContainedListItem </text>
</g>
<!-- ContainedListModule&#45;&gt;ContainedListItem  -->
<g id="edge5" class="edge">
<title>ContainedListModule&#45;&gt;ContainedListItem </title>
<path fill="none" stroke="black" stroke-dasharray="5,2" d="M213.9,-187.11C213.9,-187.11 213.9,-205.99 213.9,-205.99"/>
<polygon fill="black" stroke="black" points="210.4,-205.99 213.9,-215.99 217.4,-205.99 210.4,-205.99"/>
</g>
<!-- IconModule -->
<g id="node4" class="node">
<title>IconModule</title>
<polygon fill="#8dd3c7" stroke="black" points="161.43,-122 158.43,-126 137.43,-126 134.43,-122 76.57,-122 76.57,-86 161.43,-86 161.43,-122"/>
<text text-anchor="middle" x="119" y="-99.8" font-family="Times,serif" font-size="14.00">IconModule</text>
</g>
<!-- IconModule&#45;&gt;ContainedListModule -->
<g id="edge3" class="edge">
<title>IconModule&#45;&gt;ContainedListModule</title>
<path fill="none" stroke="black" d="M161.39,-104C171.81,-104 180.04,-104 180.04,-104 180.04,-104 180.04,-140.89 180.04,-140.89"/>
<polygon fill="black" stroke="black" points="176.54,-140.89 180.04,-150.89 183.54,-140.89 176.54,-140.89"/>
</g>
</g>
</svg>
