<?xml version="1.0" encoding="UTF-8" standalone="no"?>
<!DOCTYPE svg PUBLIC "-//W3C//DTD SVG 1.1//EN"
 "http://www.w3.org/Graphics/SVG/1.1/DTD/svg11.dtd">
<!-- Generated by graphviz version 2.40.1 (20161225.0304)
 -->
<!-- Title: dependencies Pages: 1 -->
<svg width="646pt" height="396pt"
 viewBox="0.00 0.00 646.00 395.59" xmlns="http://www.w3.org/2000/svg" xmlns:xlink="http://www.w3.org/1999/xlink">
<g id="graph0" class="graph" transform="scale(1 1) rotate(0) translate(4 391.5901)">
<title>dependencies</title>
<polygon fill="#ffffff" stroke="transparent" points="-4,4 -4,-391.5901 642,-391.5901 642,4 -4,4"/>
<text text-anchor="start" x="298.0091" y="-42.4" font-family="sans-serif" font-weight="bold" font-size="14.00" fill="#000000">Legend</text>
<polygon fill="#ffffb3" stroke="transparent" points="85,-10 85,-30 105,-30 105,-10 85,-10"/>
<text text-anchor="start" x="108.629" y="-15.4" font-family="sans-serif" font-size="14.00" fill="#000000"> &#160;Declarations</text>
<polygon fill="#8dd3c7" stroke="transparent" points="198,-10 198,-30 218,-30 218,-10 198,-10"/>
<text text-anchor="start" x="221.7251" y="-15.4" font-family="sans-serif" font-size="14.00" fill="#000000"> &#160;Module</text>
<polygon fill="#80b1d3" stroke="transparent" points="284,-10 284,-30 304,-30 304,-10 284,-10"/>
<text text-anchor="start" x="307.7812" y="-15.4" font-family="sans-serif" font-size="14.00" fill="#000000"> &#160;Bootstrap</text>
<polygon fill="#fdb462" stroke="transparent" points="381,-10 381,-30 401,-30 401,-10 381,-10"/>
<text text-anchor="start" x="404.6732" y="-15.4" font-family="sans-serif" font-size="14.00" fill="#000000"> &#160;Providers</text>
<polygon fill="#fb8072" stroke="transparent" points="477,-10 477,-30 497,-30 497,-10 477,-10"/>
<text text-anchor="start" x="500.7258" y="-15.4" font-family="sans-serif" font-size="14.00" fill="#000000"> &#160;Exports</text>
<g id="clust1" class="cluster">
<title>cluster_SearchModule</title>
<polygon fill="none" stroke="#000000" stroke-dasharray="1,5" points="8,-70 8,-379.5901 630,-379.5901 630,-70 8,-70"/>
</g>
<g id="clust2" class="cluster">
<title>cluster_SearchModule_declarations</title>
<polygon fill="none" stroke="#000000" points="284,-189.5901 284,-241.5901 354,-241.5901 354,-189.5901 284,-189.5901"/>
</g>
<g id="clust3" class="cluster">
<title>cluster_SearchModule_Search_providers</title>
<polygon fill="none" stroke="#000000" points="16,-78 16,-176.5901 622,-176.5901 622,-78 16,-78"/>
</g>
<g id="clust4" class="cluster">
<title>cluster_SearchModule_imports</title>
<polygon fill="none" stroke="#000000" points="174,-189.5901 174,-241.5901 276,-241.5901 276,-189.5901 174,-189.5901"/>
</g>
<g id="clust5" class="cluster">
<title>cluster_SearchModule_exports</title>
<polygon fill="none" stroke="#000000" points="235,-319.5901 235,-371.5901 309,-371.5901 309,-319.5901 235,-319.5901"/>
</g>
<!-- Search -->
<g id="node1" class="node">
<title>Search</title>
<polygon fill="#ffffb3" stroke="#000000" points="346.0871,-233.5901 291.9129,-233.5901 291.9129,-197.5901 346.0871,-197.5901 346.0871,-233.5901"/>
<text text-anchor="middle" x="319" y="-211.3901" font-family="Times,serif" font-size="14.00" fill="#000000">Search</text>
</g>
<!-- SearchModule -->
<g id="node2" class="node">
<title>SearchModule</title>
<polygon fill="#8dd3c7" stroke="#000000" points="320.6375,-298.5901 317.6375,-302.5901 296.6375,-302.5901 293.6375,-298.5901 223.3625,-298.5901 223.3625,-262.5901 320.6375,-262.5901 320.6375,-298.5901"/>
<text text-anchor="middle" x="272" y="-276.3901" font-family="Times,serif" font-size="14.00" fill="#000000">SearchModule</text>
</g>
<!-- Search&#45;&gt;SearchModule -->
<g id="edge1" class="edge">
<title>Search&#45;&gt;SearchModule</title>
<path fill="none" stroke="#000000" d="M306.3875,-233.6962C306.3875,-233.6962 306.3875,-252.581 306.3875,-252.581"/>
<polygon fill="#000000" stroke="#000000" points="302.8875,-252.581 306.3875,-262.581 309.8875,-252.5811 302.8875,-252.581"/>
</g>
<!-- Search  -->
<g id="node5" class="node">
<title>Search </title>
<polygon fill="#fb8072" stroke="#000000" points="300.5885,-363.5901 243.4115,-363.5901 243.4115,-327.5901 300.5885,-327.5901 300.5885,-363.5901"/>
<text text-anchor="middle" x="272" y="-341.3901" font-family="Times,serif" font-size="14.00" fill="#000000">Search </text>
</g>
<!-- SearchModule&#45;&gt;Search  -->
<g id="edge4" class="edge">
<title>SearchModule&#45;&gt;Search </title>
<path fill="none" stroke="#000000" stroke-dasharray="5,2" d="M272,-298.6962C272,-298.6962 272,-317.581 272,-317.581"/>
<polygon fill="#000000" stroke="#000000" points="268.5001,-317.581 272,-327.581 275.5001,-317.5811 268.5001,-317.581"/>
</g>
<!-- {
 &#160;&#160;&#160;provide: NG_VALUE_ACCESSOR, useExisting: Search, multi: true
} -->
<g id="node3" class="node">
<title>{
 &#160;&#160;&#160;provide: NG_VALUE_ACCESSOR, useExisting: Search, multi: true
}</title>
<ellipse fill="#fdb462" stroke="#000000" cx="319" cy="-127.295" rx="295.1605" ry="41.0911"/>
<text text-anchor="middle" x="319" y="-139.895" font-family="Times,serif" font-size="14.00" fill="#000000">{</text>
<text text-anchor="middle" x="319" y="-123.095" font-family="Times,serif" font-size="14.00" fill="#000000"> &#160;&#160;&#160;provide: NG_VALUE_ACCESSOR, useExisting: Search, multi: true</text>
<text text-anchor="middle" x="319" y="-106.295" font-family="Times,serif" font-size="14.00" fill="#000000">}</text>
</g>
<!-- {
 &#160;&#160;&#160;provide: NG_VALUE_ACCESSOR, useExisting: Search, multi: true
}&#45;&gt;Search -->
<g id="edge2" class="edge">
<title>{
 &#160;&#160;&#160;provide: NG_VALUE_ACCESSOR, useExisting: Search, multi: true
}&#45;&gt;Search</title>
<path fill="none" stroke="#000000" d="M319,-168.5989C319,-168.5989 319,-187.2551 319,-187.2551"/>
<polygon fill="#000000" stroke="#000000" points="315.5001,-187.255 319,-197.2551 322.5001,-187.2551 315.5001,-187.255"/>
</g>
<!-- I18nModule -->
<g id="node4" class="node">
<title>I18nModule</title>
<polygon fill="#8dd3c7" stroke="#000000" points="267.7107,-233.5901 264.7107,-237.5901 243.7107,-237.5901 240.7107,-233.5901 182.2893,-233.5901 182.2893,-197.5901 267.7107,-197.5901 267.7107,-233.5901"/>
<text text-anchor="middle" x="225" y="-211.3901" font-family="Times,serif" font-size="14.00" fill="#000000">I18nModule</text>
</g>
<!-- I18nModule&#45;&gt;SearchModule -->
<g id="edge3" class="edge">
<title>I18nModule&#45;&gt;SearchModule</title>
<path fill="none" stroke="#000000" d="M245.3934,-233.6962C245.3934,-233.6962 245.3934,-252.581 245.3934,-252.581"/>
<polygon fill="#000000" stroke="#000000" points="241.8935,-252.581 245.3934,-262.581 248.8935,-252.5811 241.8935,-252.581"/>
</g>
</g>
</svg>
