<?xml version="1.0" encoding="UTF-8" standalone="no"?>
<!DOCTYPE svg PUBLIC "-//W3C//DTD SVG 1.1//EN"
 "http://www.w3.org/Graphics/SVG/1.1/DTD/svg11.dtd">
<!-- Generated by graphviz version 2.47.0 (20210316.0004)
 -->
<!-- Title: dependencies Pages: 1 -->
<svg width="870pt" height="396pt"
 viewBox="0.00 0.00 870.00 395.59" xmlns="http://www.w3.org/2000/svg" xmlns:xlink="http://www.w3.org/1999/xlink">
<g id="graph0" class="graph" transform="scale(1 1) rotate(0) translate(4 391.59)">
<title>dependencies</title>
<polygon fill="white" stroke="transparent" points="-4,4 -4,-391.59 866,-391.59 866,4 -4,4"/>
<text text-anchor="start" x="410.01" y="-42.4" font-family="Times-12" font-weight="bold" font-size="14.00">Legend</text>
<polygon fill="#ffffb3" stroke="transparent" points="197,-10 197,-30 217,-30 217,-10 197,-10"/>
<text text-anchor="start" x="220.63" y="-15.4" font-family="Times-12" font-size="14.00"> &#160;Declarations</text>
<polygon fill="#8dd3c7" stroke="transparent" points="310,-10 310,-30 330,-30 330,-10 310,-10"/>
<text text-anchor="start" x="333.73" y="-15.4" font-family="Times-12" font-size="14.00"> &#160;Module</text>
<polygon fill="#80b1d3" stroke="transparent" points="396,-10 396,-30 416,-30 416,-10 396,-10"/>
<text text-anchor="start" x="419.78" y="-15.4" font-family="Times-12" font-size="14.00"> &#160;Bootstrap</text>
<polygon fill="#fdb462" stroke="transparent" points="493,-10 493,-30 513,-30 513,-10 493,-10"/>
<text text-anchor="start" x="516.67" y="-15.4" font-family="Times-12" font-size="14.00"> &#160;Providers</text>
<polygon fill="#fb8072" stroke="transparent" points="589,-10 589,-30 609,-30 609,-10 589,-10"/>
<text text-anchor="start" x="612.73" y="-15.4" font-family="Times-12" font-size="14.00"> &#160;Exports</text>
<g id="clust1" class="cluster">
<title>cluster_TimePickerModule</title>
<polygon fill="none" stroke="black" stroke-dasharray="1,5" points="8,-70 8,-379.59 854,-379.59 854,-70 8,-70"/>
</g>
<g id="clust5" class="cluster">
<title>cluster_TimePickerModule_exports</title>
<polygon fill="none" stroke="black" points="603,-319.59 603,-371.59 703,-371.59 703,-319.59 603,-319.59"/>
</g>
<g id="clust4" class="cluster">
<title>cluster_TimePickerModule_imports</title>
<polygon fill="none" stroke="black" points="670,-189.59 670,-241.59 846,-241.59 846,-189.59 670,-189.59"/>
</g>
<g id="clust3" class="cluster">
<title>cluster_TimePickerModule_TimePicker_providers</title>
<polygon fill="none" stroke="black" points="16,-78 16,-241.59 662,-241.59 662,-78 16,-78"/>
</g>
<!-- TimePicker -->
<g id="node1" class="node">
<title>TimePicker</title>
<polygon fill="#ffffb3" stroke="black" points="484.81,-233.59 403.19,-233.59 403.19,-197.59 484.81,-197.59 484.81,-233.59"/>
<text text-anchor="middle" x="444" y="-211.39" font-family="Times,serif" font-size="14.00">TimePicker</text>
</g>
<!-- TimePickerModule -->
<g id="node2" class="node">
<title>TimePickerModule</title>
<polygon fill="#8dd3c7" stroke="black" points="715.36,-298.59 712.36,-302.59 691.36,-302.59 688.36,-298.59 590.64,-298.59 590.64,-262.59 715.36,-262.59 715.36,-298.59"/>
<text text-anchor="middle" x="653" y="-276.39" font-family="Times,serif" font-size="14.00">TimePickerModule</text>
</g>
<!-- TimePicker&#45;&gt;TimePickerModule -->
<g id="edge1" class="edge">
<title>TimePicker&#45;&gt;TimePickerModule</title>
<path fill="none" stroke="black" d="M484.85,-215.59C537.43,-215.59 622.08,-215.59 622.08,-215.59 622.08,-215.59 622.08,-252.48 622.08,-252.48"/>
<polygon fill="black" stroke="black" points="618.58,-252.48 622.08,-262.48 625.58,-252.48 618.58,-252.48"/>
</g>
<!-- TimePicker  -->
<g id="node5" class="node">
<title>TimePicker </title>
<polygon fill="#fb8072" stroke="black" points="695.31,-363.59 610.69,-363.59 610.69,-327.59 695.31,-327.59 695.31,-363.59"/>
<text text-anchor="middle" x="653" y="-341.39" font-family="Times,serif" font-size="14.00">TimePicker </text>
</g>
<!-- TimePickerModule&#45;&gt;TimePicker  -->
<g id="edge4" class="edge">
<title>TimePickerModule&#45;&gt;TimePicker </title>
<path fill="none" stroke="black" stroke-dasharray="5,2" d="M653,-298.7C653,-298.7 653,-317.58 653,-317.58"/>
<polygon fill="black" stroke="black" points="649.5,-317.58 653,-327.58 656.5,-317.58 649.5,-317.58"/>
</g>
<!-- {
 &#160;&#160;&#160;provide: NG_VALUE_ACCESSOR, useExisting: TimePicker, multi: true
} -->
<g id="node3" class="node">
<title>{
 &#160;&#160;&#160;provide: NG_VALUE_ACCESSOR, useExisting: TimePicker, multi: true
}</title>
<ellipse fill="#fdb462" stroke="black" cx="339" cy="-127.3" rx="314.66" ry="41.09"/>
<text text-anchor="middle" x="339" y="-139.9" font-family="Times,serif" font-size="14.00">{</text>
<text text-anchor="middle" x="339" y="-123.1" font-family="Times,serif" font-size="14.00"> &#160;&#160;&#160;provide: NG_VALUE_ACCESSOR, useExisting: TimePicker, multi: true</text>
<text text-anchor="middle" x="339" y="-106.3" font-family="Times,serif" font-size="14.00">}</text>
</g>
<!-- {
 &#160;&#160;&#160;provide: NG_VALUE_ACCESSOR, useExisting: TimePicker, multi: true
}&#45;&gt;TimePicker -->
<g id="edge2" class="edge">
<title>{
 &#160;&#160;&#160;provide: NG_VALUE_ACCESSOR, useExisting: TimePicker, multi: true
}&#45;&gt;TimePicker</title>
<path fill="none" stroke="black" d="M444,-166.28C444,-166.28 444,-187.56 444,-187.56"/>
<polygon fill="black" stroke="black" points="440.5,-187.56 444,-197.56 447.5,-187.56 440.5,-187.56"/>
</g>
<!-- TimePickerSelectModule -->
<g id="node4" class="node">
<title>TimePickerSelectModule</title>
<polygon fill="#8dd3c7" stroke="black" points="837.57,-233.59 834.57,-237.59 813.57,-237.59 810.57,-233.59 678.43,-233.59 678.43,-197.59 837.57,-197.59 837.57,-233.59"/>
<text text-anchor="middle" x="758" y="-211.39" font-family="Times,serif" font-size="14.00">TimePickerSelectModule</text>
</g>
<!-- TimePickerSelectModule&#45;&gt;TimePickerModule -->
<g id="edge3" class="edge">
<title>TimePickerSelectModule&#45;&gt;TimePickerModule</title>
<path fill="none" stroke="black" d="M696.95,-233.7C696.95,-233.7 696.95,-252.58 696.95,-252.58"/>
<polygon fill="black" stroke="black" points="693.45,-252.58 696.95,-262.58 700.45,-252.58 693.45,-252.58"/>
</g>
</g>
</svg>
