<?xml version="1.0" encoding="UTF-8" standalone="no"?>
<!DOCTYPE svg PUBLIC "-//W3C//DTD SVG 1.1//EN"
 "http://www.w3.org/Graphics/SVG/1.1/DTD/svg11.dtd">
<!-- Generated by graphviz version 2.40.1 (20161225.0304)
 -->
<!-- Title: dependencies Pages: 1 -->
<svg width="504pt" height="284pt"
 viewBox="0.00 0.00 504.00 284.00" xmlns="http://www.w3.org/2000/svg" xmlns:xlink="http://www.w3.org/1999/xlink">
<g id="graph0" class="graph" transform="scale(1 1) rotate(0) translate(4 280)">
<title>dependencies</title>
<polygon fill="#ffffff" stroke="transparent" points="-4,4 -4,-280 500,-280 500,4 -4,4"/>
<text text-anchor="start" x="227.0091" y="-42.4" font-family="sans-serif" font-weight="bold" font-size="14.00" fill="#000000">Legend</text>
<polygon fill="#ffffb3" stroke="transparent" points="14,-10 14,-30 34,-30 34,-10 14,-10"/>
<text text-anchor="start" x="37.629" y="-15.4" font-family="sans-serif" font-size="14.00" fill="#000000"> &#160;Declarations</text>
<polygon fill="#8dd3c7" stroke="transparent" points="127,-10 127,-30 147,-30 147,-10 127,-10"/>
<text text-anchor="start" x="150.7251" y="-15.4" font-family="sans-serif" font-size="14.00" fill="#000000"> &#160;Module</text>
<polygon fill="#80b1d3" stroke="transparent" points="213,-10 213,-30 233,-30 233,-10 213,-10"/>
<text text-anchor="start" x="236.7812" y="-15.4" font-family="sans-serif" font-size="14.00" fill="#000000"> &#160;Bootstrap</text>
<polygon fill="#fdb462" stroke="transparent" points="310,-10 310,-30 330,-30 330,-10 310,-10"/>
<text text-anchor="start" x="333.6732" y="-15.4" font-family="sans-serif" font-size="14.00" fill="#000000"> &#160;Providers</text>
<polygon fill="#fb8072" stroke="transparent" points="406,-10 406,-30 426,-30 426,-10 406,-10"/>
<text text-anchor="start" x="429.7258" y="-15.4" font-family="sans-serif" font-size="14.00" fill="#000000"> &#160;Exports</text>
<g id="clust1" class="cluster">
<title>cluster_ComboBoxModule</title>
<polygon fill="none" stroke="#000000" stroke-dasharray="1,5" points="16.5,-70 16.5,-268 479.5,-268 479.5,-70 16.5,-70"/>
</g>
<g id="clust2" class="cluster">
<title>cluster_ComboBoxModule_declarations</title>
<polygon fill="none" stroke="#000000" points="375.5,-78 375.5,-130 471.5,-130 471.5,-78 375.5,-78"/>
</g>
<g id="clust4" class="cluster">
<title>cluster_ComboBoxModule_imports</title>
<polygon fill="none" stroke="#000000" points="24.5,-78 24.5,-130 367.5,-130 367.5,-78 24.5,-78"/>
</g>
<g id="clust5" class="cluster">
<title>cluster_ComboBoxModule_exports</title>
<polygon fill="none" stroke="#000000" points="110.5,-208 110.5,-260 350.5,-260 350.5,-208 110.5,-208"/>
</g>
<!-- ComboBox -->
<g id="node1" class="node">
<title>ComboBox</title>
<polygon fill="#ffffb3" stroke="#000000" points="463.565,-122 383.435,-122 383.435,-86 463.565,-86 463.565,-122"/>
<text text-anchor="middle" x="423.5" y="-99.8" font-family="Times,serif" font-size="14.00" fill="#000000">ComboBox</text>
</g>
<!-- ComboBoxModule -->
<g id="node2" class="node">
<title>ComboBoxModule</title>
<polygon fill="#8dd3c7" stroke="#000000" points="301.6137,-187 298.6137,-191 277.6137,-191 274.6137,-187 177.3863,-187 177.3863,-151 301.6137,-151 301.6137,-187"/>
<text text-anchor="middle" x="239.5" y="-164.8" font-family="Times,serif" font-size="14.00" fill="#000000">ComboBoxModule</text>
</g>
<!-- ComboBox&#45;&gt;ComboBoxModule -->
<g id="edge1" class="edge">
<title>ComboBox&#45;&gt;ComboBoxModule</title>
<path fill="none" stroke="#000000" d="M423.5,-122.1061C423.5,-141.3391 423.5,-169 423.5,-169 423.5,-169 311.794,-169 311.794,-169"/>
<polygon fill="#000000" stroke="#000000" points="311.794,-165.5001 301.794,-169 311.794,-172.5001 311.794,-165.5001"/>
</g>
<!-- ComboBox  -->
<g id="node6" class="node">
<title>ComboBox </title>
<polygon fill="#fb8072" stroke="#000000" points="342.5638,-252 258.4362,-252 258.4362,-216 342.5638,-216 342.5638,-252"/>
<text text-anchor="middle" x="300.5" y="-229.8" font-family="Times,serif" font-size="14.00" fill="#000000">ComboBox </text>
</g>
<!-- ComboBoxModule&#45;&gt;ComboBox  -->
<g id="edge5" class="edge">
<title>ComboBoxModule&#45;&gt;ComboBox </title>
<path fill="none" stroke="#000000" stroke-dasharray="5,2" d="M280.0125,-187.1061C280.0125,-187.1061 280.0125,-205.991 280.0125,-205.991"/>
<polygon fill="#000000" stroke="#000000" points="276.5125,-205.9909 280.0125,-215.991 283.5125,-205.991 276.5125,-205.9909"/>
</g>
<!-- DropdownModule  -->
<g id="node7" class="node">
<title>DropdownModule </title>
<polygon fill="#fb8072" stroke="#000000" points="240.9236,-252 118.0764,-252 118.0764,-216 240.9236,-216 240.9236,-252"/>
<text text-anchor="middle" x="179.5" y="-229.8" font-family="Times,serif" font-size="14.00" fill="#000000">DropdownModule </text>
</g>
<!-- ComboBoxModule&#45;&gt;DropdownModule  -->
<g id="edge6" class="edge">
<title>ComboBoxModule&#45;&gt;DropdownModule </title>
<path fill="none" stroke="#000000" stroke-dasharray="5,2" d="M209.2025,-187.1061C209.2025,-187.1061 209.2025,-205.991 209.2025,-205.991"/>
<polygon fill="#000000" stroke="#000000" points="205.7026,-205.9909 209.2025,-215.991 212.7026,-205.991 205.7026,-205.9909"/>
</g>
<!-- DropdownModule -->
<g id="node3" class="node">
<title>DropdownModule</title>
<polygon fill="#8dd3c7" stroke="#000000" points="359.4244,-122 356.4244,-126 335.4244,-126 332.4244,-122 239.5756,-122 239.5756,-86 359.4244,-86 359.4244,-122"/>
<text text-anchor="middle" x="299.5" y="-99.8" font-family="Times,serif" font-size="14.00" fill="#000000">DropdownModule</text>
</g>
<!-- DropdownModule&#45;&gt;ComboBoxModule -->
<g id="edge2" class="edge">
<title>DropdownModule&#45;&gt;ComboBoxModule</title>
<path fill="none" stroke="#000000" d="M270.6725,-122.1061C270.6725,-122.1061 270.6725,-140.991 270.6725,-140.991"/>
<polygon fill="#000000" stroke="#000000" points="267.1726,-140.9909 270.6725,-150.991 274.1726,-140.991 267.1726,-140.9909"/>
</g>
<!-- I18nModule -->
<g id="node4" class="node">
<title>I18nModule</title>
<polygon fill="#8dd3c7" stroke="#000000" points="222.2107,-122 219.2107,-126 198.2107,-126 195.2107,-122 136.7893,-122 136.7893,-86 222.2107,-86 222.2107,-122"/>
<text text-anchor="middle" x="179.5" y="-99.8" font-family="Times,serif" font-size="14.00" fill="#000000">I18nModule</text>
</g>
<!-- I18nModule&#45;&gt;ComboBoxModule -->
<g id="edge3" class="edge">
<title>I18nModule&#45;&gt;ComboBoxModule</title>
<path fill="none" stroke="#000000" d="M199.7742,-122.1061C199.7742,-122.1061 199.7742,-140.991 199.7742,-140.991"/>
<polygon fill="#000000" stroke="#000000" points="196.2743,-140.9909 199.7742,-150.991 203.2743,-140.991 196.2743,-140.9909"/>
</g>
<!-- UtilsModule -->
<g id="node5" class="node">
<title>UtilsModule</title>
<polygon fill="#8dd3c7" stroke="#000000" points="118.7731,-122 115.7731,-126 94.7731,-126 91.7731,-122 32.2269,-122 32.2269,-86 118.7731,-86 118.7731,-122"/>
<text text-anchor="middle" x="75.5" y="-99.8" font-family="Times,serif" font-size="14.00" fill="#000000">UtilsModule</text>
</g>
<!-- UtilsModule&#45;&gt;ComboBoxModule -->
<g id="edge4" class="edge">
<title>UtilsModule&#45;&gt;ComboBoxModule</title>
<path fill="none" stroke="#000000" d="M75.0759,-122.1061C75.0759,-141.3391 75.0759,-169 75.0759,-169 75.0759,-169 167.3383,-169 167.3383,-169"/>
<polygon fill="#000000" stroke="#000000" points="167.3383,-172.5001 177.3383,-169 167.3383,-165.5001 167.3383,-172.5001"/>
</g>
</g>
</svg>
