<?xml version="1.0" encoding="UTF-8" standalone="no"?>
<!DOCTYPE svg PUBLIC "-//W3C//DTD SVG 1.1//EN"
 "http://www.w3.org/Graphics/SVG/1.1/DTD/svg11.dtd">
<!-- Generated by graphviz version 2.47.0 (20210316.0004)
 -->
<!-- Title: dependencies Pages: 1 -->
<svg width="1080pt" height="443pt"
 viewBox="0.00 0.00 1080.00 443.11" xmlns="http://www.w3.org/2000/svg" xmlns:xlink="http://www.w3.org/1999/xlink">
<g id="graph0" class="graph" transform="scale(1 1) rotate(0) translate(4 439.11)">
<title>dependencies</title>
<polygon fill="white" stroke="transparent" points="-4,4 -4,-439.11 1076,-439.11 1076,4 -4,4"/>
<text text-anchor="start" x="515.01" y="-42.4" font-family="Times-12" font-weight="bold" font-size="14.00">Legend</text>
<polygon fill="#ffffb3" stroke="transparent" points="302,-10 302,-30 322,-30 322,-10 302,-10"/>
<text text-anchor="start" x="325.63" y="-15.4" font-family="Times-12" font-size="14.00"> &#160;Declarations</text>
<polygon fill="#8dd3c7" stroke="transparent" points="415,-10 415,-30 435,-30 435,-10 415,-10"/>
<text text-anchor="start" x="438.73" y="-15.4" font-family="Times-12" font-size="14.00"> &#160;Module</text>
<polygon fill="#80b1d3" stroke="transparent" points="501,-10 501,-30 521,-30 521,-10 501,-10"/>
<text text-anchor="start" x="524.78" y="-15.4" font-family="Times-12" font-size="14.00"> &#160;Bootstrap</text>
<polygon fill="#fdb462" stroke="transparent" points="598,-10 598,-30 618,-30 618,-10 598,-10"/>
<text text-anchor="start" x="621.67" y="-15.4" font-family="Times-12" font-size="14.00"> &#160;Providers</text>
<polygon fill="#fb8072" stroke="transparent" points="694,-10 694,-30 714,-30 714,-10 694,-10"/>
<text text-anchor="start" x="717.73" y="-15.4" font-family="Times-12" font-size="14.00"> &#160;Exports</text>
<g id="clust1" class="cluster">
<title>cluster_GridModule</title>
<polygon fill="none" stroke="black" stroke-dasharray="1,5" points="8,-70 8,-427.11 1064,-427.11 1064,-70 8,-70"/>
</g>
<g id="clust2" class="cluster">
<title>cluster_GridModule_declarations</title>
<polygon fill="none" stroke="black" points="369,-237.11 369,-289.11 722,-289.11 722,-237.11 369,-237.11"/>
</g>
<g id="clust4" class="cluster">
<title>cluster_GridModule_GridDirective_providers</title>
<polygon fill="none" stroke="black" points="16,-78 16,-224.11 1056,-224.11 1056,-78 16,-78"/>
</g>
<g id="clust7" class="cluster">
<title>cluster_GridModule_exports</title>
<polygon fill="none" stroke="black" points="307,-367.11 307,-419.11 671,-419.11 671,-367.11 307,-367.11"/>
</g>
<g id="clust9" class="cluster">
<title>cluster_GridModule_providers</title>
<polygon fill="none" stroke="black" points="229,-237.11 229,-289.11 361,-289.11 361,-237.11 229,-237.11"/>
</g>
<!-- ColumnDirective -->
<g id="node1" class="node">
<title>ColumnDirective</title>
<polygon fill="#ffffb3" stroke="black" points="713.7,-281.11 600.3,-281.11 600.3,-245.11 713.7,-245.11 713.7,-281.11"/>
<text text-anchor="middle" x="657" y="-258.91" font-family="Times,serif" font-size="14.00">ColumnDirective</text>
</g>
<!-- GridModule -->
<g id="node4" class="node">
<title>GridModule</title>
<polygon fill="#8dd3c7" stroke="black" points="522.71,-346.11 519.71,-350.11 498.71,-350.11 495.71,-346.11 437.29,-346.11 437.29,-310.11 522.71,-310.11 522.71,-346.11"/>
<text text-anchor="middle" x="480" y="-323.91" font-family="Times,serif" font-size="14.00">GridModule</text>
</g>
<!-- ColumnDirective&#45;&gt;GridModule -->
<g id="edge1" class="edge">
<title>ColumnDirective&#45;&gt;GridModule</title>
<path fill="none" stroke="black" d="M631.88,-281.13C631.88,-298.48 631.88,-322.11 631.88,-322.11 631.88,-322.11 532.71,-322.11 532.71,-322.11"/>
<polygon fill="black" stroke="black" points="532.71,-318.61 522.71,-322.11 532.71,-325.61 532.71,-318.61"/>
</g>
<!-- GridDirective -->
<g id="node2" class="node">
<title>GridDirective</title>
<polygon fill="#ffffb3" stroke="black" points="582.74,-281.11 489.26,-281.11 489.26,-245.11 582.74,-245.11 582.74,-281.11"/>
<text text-anchor="middle" x="536" y="-258.91" font-family="Times,serif" font-size="14.00">GridDirective</text>
</g>
<!-- GridDirective&#45;&gt;GridModule -->
<g id="edge2" class="edge">
<title>GridDirective&#45;&gt;GridModule</title>
<path fill="none" stroke="black" d="M505.87,-281.21C505.87,-281.21 505.87,-300.1 505.87,-300.1"/>
<polygon fill="black" stroke="black" points="502.37,-300.1 505.87,-310.1 509.37,-300.1 502.37,-300.1"/>
</g>
<!-- RowDirective -->
<g id="node3" class="node">
<title>RowDirective</title>
<polygon fill="#ffffb3" stroke="black" points="471.03,-281.11 376.97,-281.11 376.97,-245.11 471.03,-245.11 471.03,-281.11"/>
<text text-anchor="middle" x="424" y="-258.91" font-family="Times,serif" font-size="14.00">RowDirective</text>
</g>
<!-- RowDirective&#45;&gt;GridModule -->
<g id="edge4" class="edge">
<title>RowDirective&#45;&gt;GridModule</title>
<path fill="none" stroke="black" d="M454.33,-281.21C454.33,-281.21 454.33,-300.1 454.33,-300.1"/>
<polygon fill="black" stroke="black" points="450.83,-300.1 454.33,-310.1 457.83,-300.1 450.83,-300.1"/>
</g>
<!-- ColumnDirective  -->
<g id="node6" class="node">
<title>ColumnDirective </title>
<polygon fill="#fb8072" stroke="black" points="663.2,-411.11 546.8,-411.11 546.8,-375.11 663.2,-375.11 663.2,-411.11"/>
<text text-anchor="middle" x="605" y="-388.91" font-family="Times,serif" font-size="14.00">ColumnDirective </text>
</g>
<!-- GridModule&#45;&gt;ColumnDirective  -->
<g id="edge5" class="edge">
<title>GridModule&#45;&gt;ColumnDirective </title>
<path fill="none" stroke="black" stroke-dasharray="5,2" d="M522.88,-334.11C543.9,-334.11 564.76,-334.11 564.76,-334.11 564.76,-334.11 564.76,-365.09 564.76,-365.09"/>
<polygon fill="black" stroke="black" points="561.26,-365.09 564.76,-375.09 568.26,-365.09 561.26,-365.09"/>
</g>
<!-- GridDirective  -->
<g id="node7" class="node">
<title>GridDirective </title>
<polygon fill="#fb8072" stroke="black" points="528.74,-411.11 431.26,-411.11 431.26,-375.11 528.74,-375.11 528.74,-411.11"/>
<text text-anchor="middle" x="480" y="-388.91" font-family="Times,serif" font-size="14.00">GridDirective </text>
</g>
<!-- GridModule&#45;&gt;GridDirective  -->
<g id="edge6" class="edge">
<title>GridModule&#45;&gt;GridDirective </title>
<path fill="none" stroke="black" stroke-dasharray="5,2" d="M480,-346.21C480,-346.21 480,-365.1 480,-365.1"/>
<polygon fill="black" stroke="black" points="476.5,-365.1 480,-375.1 483.5,-365.1 476.5,-365.1"/>
</g>
<!-- RowDirective  -->
<g id="node8" class="node">
<title>RowDirective </title>
<polygon fill="#fb8072" stroke="black" points="413.03,-411.11 314.97,-411.11 314.97,-375.11 413.03,-375.11 413.03,-411.11"/>
<text text-anchor="middle" x="364" y="-388.91" font-family="Times,serif" font-size="14.00">RowDirective </text>
</g>
<!-- GridModule&#45;&gt;RowDirective  -->
<g id="edge7" class="edge">
<title>GridModule&#45;&gt;RowDirective </title>
<path fill="none" stroke="black" stroke-dasharray="5,2" d="M436.94,-334.11C415.83,-334.11 394.88,-334.11 394.88,-334.11 394.88,-334.11 394.88,-365.09 394.88,-365.09"/>
<polygon fill="black" stroke="black" points="391.38,-365.09 394.88,-375.09 398.38,-365.09 391.38,-365.09"/>
</g>
<!-- {
 &#160;&#160;&#160;provide: GridService, deps: [[new Optional(), new SkipSelf(), GridService]], useFactory: (parentService: GridService) =&gt; {
 &#160;&#160;&#160;&#160;&#160;&#160;&#160;return parentService || new GridService();
 &#160;&#160;&#160;}
} -->
<g id="node5" class="node">
<title>{
 &#160;&#160;&#160;provide: GridService, deps: [[new Optional(), new SkipSelf(), GridService]], useFactory: (parentService: GridService) =&gt; {
 &#160;&#160;&#160;&#160;&#160;&#160;&#160;return parentService || new GridService();
 &#160;&#160;&#160;}
}</title>
<ellipse fill="#fdb462" stroke="black" cx="536" cy="-151.05" rx="512.24" ry="65.11"/>
<text text-anchor="middle" x="536" y="-180.45" font-family="Times,serif" font-size="14.00">{</text>
<text text-anchor="middle" x="536" y="-163.65" font-family="Times,serif" font-size="14.00"> &#160;&#160;&#160;provide: GridService, deps: [[new Optional(), new SkipSelf(), GridService]], useFactory: (parentService: GridService) =&gt; {</text>
<text text-anchor="middle" x="536" y="-146.85" font-family="Times,serif" font-size="14.00"> &#160;&#160;&#160;&#160;&#160;&#160;&#160;return parentService || new GridService();</text>
<text text-anchor="middle" x="536" y="-130.05" font-family="Times,serif" font-size="14.00"> &#160;&#160;&#160;}</text>
<text text-anchor="middle" x="536" y="-113.25" font-family="Times,serif" font-size="14.00">}</text>
</g>
<!-- {
 &#160;&#160;&#160;provide: GridService, deps: [[new Optional(), new SkipSelf(), GridService]], useFactory: (parentService: GridService) =&gt; {
 &#160;&#160;&#160;&#160;&#160;&#160;&#160;return parentService || new GridService();
 &#160;&#160;&#160;}
}&#45;&gt;GridDirective -->
<g id="edge3" class="edge">
<title>{
 &#160;&#160;&#160;provide: GridService, deps: [[new Optional(), new SkipSelf(), GridService]], useFactory: (parentService: GridService) =&gt; {
 &#160;&#160;&#160;&#160;&#160;&#160;&#160;return parentService || new GridService();
 &#160;&#160;&#160;}
}&#45;&gt;GridDirective</title>
<path fill="none" stroke="black" d="M536,-216.24C536,-216.24 536,-235.1 536,-235.1"/>
<polygon fill="black" stroke="black" points="532.5,-235.1 536,-245.1 539.5,-235.1 532.5,-235.1"/>
</g>
<!-- GridService -->
<g id="node9" class="node">
<title>GridService</title>
<ellipse fill="#fdb462" stroke="black" cx="295" cy="-263.11" rx="57.88" ry="18"/>
<text text-anchor="middle" x="295" y="-258.91" font-family="Times,serif" font-size="14.00">GridService</text>
</g>
<!-- GridService&#45;&gt;GridModule -->
<g id="edge8" class="edge">
<title>GridService&#45;&gt;GridModule</title>
<path fill="none" stroke="black" d="M333.84,-276.5C333.84,-293.9 333.84,-322.11 333.84,-322.11 333.84,-322.11 427.33,-322.11 427.33,-322.11"/>
<polygon fill="black" stroke="black" points="427.33,-325.61 437.33,-322.11 427.33,-318.61 427.33,-325.61"/>
</g>
</g>
</svg>
