<?xml version="1.0" encoding="UTF-8"?>
<svg width="320px" height="180px" viewBox="0 0 320 180" version="1.1" xmlns="http://www.w3.org/2000/svg" xmlns:xlink="http://www.w3.org/1999/xlink">
    <title>time-picker-select</title>
    <defs>
        <polygon id="path-1" points="3.75 0 7.5 3.75 6.96975 4.28025 3.75 1.0605 0.53025 4.28025 0 3.75"></polygon>
        <polygon id="path-3" points="3.75 0 7.5 3.75 6.96975 4.28025 3.75 1.0605 0.53025 4.28025 0 3.75"></polygon>
    </defs>
    <g id="time-picker-select" stroke="none" stroke-width="1" fill="none" fill-rule="evenodd">
        <rect id="Rectangle-11-Copy" fill="#F3F3F3" x="56" y="74" width="57" height="32"></rect>
        <rect id="Rectangle-11-Copy-2" fill="#F3F3F3" x="115" y="74" width="56" height="32"></rect>
        <rect id="Rectangle-11-Copy-3" fill="#F3F3F3" x="173" y="74" width="91" height="32"></rect>
        <line x1="56" y1="105.5" x2="113" y2="105.5" id="Path-3-Copy-8" stroke="#8C8C8C"></line>
        <line x1="115" y1="105.5" x2="171" y2="105.5" id="Path-3-Copy-9" stroke="#8C8C8C"></line>
        <line x1="173" y1="105.5" x2="264" y2="105.5" id="Path-3-Copy-10" stroke="#8C8C8C"></line>
        <g id="hh:mm" transform="translate(66.976000, 85.120000)" fill="#525252" fill-rule="nonzero">
            <path d="M0,0 L0.96,0 L0.96,3.696 L1.008,3.696 C1.16,3.344 1.374,3.064 1.65,2.856 C1.926,2.648 2.296,2.544 2.76,2.544 C3.4,2.544 3.906,2.75 4.278,3.162 C4.65,3.574 4.836,4.156 4.836,4.908 L4.836,8.88 L3.876,8.88 L3.876,5.076 C3.876,3.964 3.408,3.408 2.472,3.408 C2.28,3.408 2.094,3.432 1.914,3.48 C1.734,3.528 1.572,3.6 1.428,3.696 C1.284,3.792 1.17,3.914 1.086,4.062 C1.002,4.21 0.96,4.384 0.96,4.584 L0.96,8.88 L0,8.88 L0,0 Z" id="Path"></path>
            <path d="M6.816,0 L7.776,0 L7.776,3.696 L7.824,3.696 C7.976,3.344 8.19,3.064 8.466,2.856 C8.742,2.648 9.112,2.544 9.576,2.544 C10.216,2.544 10.722,2.75 11.094,3.162 C11.466,3.574 11.652,4.156 11.652,4.908 L11.652,8.88 L10.692,8.88 L10.692,5.076 C10.692,3.964 10.224,3.408 9.288,3.408 C9.096,3.408 8.91,3.432 8.73,3.48 C8.55,3.528 8.388,3.6 8.244,3.696 C8.1,3.792 7.986,3.914 7.902,4.062 C7.818,4.21 7.776,4.384 7.776,4.584 L7.776,8.88 L6.816,8.88 L6.816,0 Z" id="Path"></path>
            <path d="M14.364,9.024 C14.108,9.024 13.922,8.96 13.806,8.832 C13.69,8.704 13.632,8.536 13.632,8.328 L13.632,8.172 C13.632,7.964 13.69,7.796 13.806,7.668 C13.922,7.54 14.108,7.476 14.364,7.476 C14.62,7.476 14.806,7.54 14.922,7.668 C15.038,7.796 15.096,7.964 15.096,8.172 L15.096,8.328 C15.096,8.536 15.038,8.704 14.922,8.832 C14.806,8.96 14.62,9.024 14.364,9.024 Z M14.364,4.092 C14.108,4.092 13.922,4.028 13.806,3.9 C13.69,3.772 13.632,3.604 13.632,3.396 L13.632,3.24 C13.632,3.032 13.69,2.864 13.806,2.736 C13.922,2.608 14.108,2.544 14.364,2.544 C14.62,2.544 14.806,2.608 14.922,2.736 C15.038,2.864 15.096,3.032 15.096,3.24 L15.096,3.396 C15.096,3.604 15.038,3.772 14.922,3.9 C14.806,4.028 14.62,4.092 14.364,4.092 Z" id="Shape"></path>
            <path d="M17.136,8.88 L17.136,2.688 L18.096,2.688 L18.096,3.696 L18.144,3.696 C18.216,3.536 18.298,3.386 18.39,3.246 C18.482,3.106 18.594,2.984 18.726,2.88 C18.858,2.776 19.012,2.694 19.188,2.634 C19.364,2.574 19.572,2.544 19.812,2.544 C20.22,2.544 20.596,2.642 20.94,2.838 C21.284,3.034 21.54,3.356 21.708,3.804 L21.732,3.804 C21.844,3.468 22.054,3.174 22.362,2.922 C22.67,2.67 23.088,2.544 23.616,2.544 C24.248,2.544 24.742,2.75 25.098,3.162 C25.454,3.574 25.632,4.156 25.632,4.908 L25.632,8.88 L24.672,8.88 L24.672,5.076 C24.672,4.524 24.564,4.108 24.348,3.828 C24.132,3.548 23.788,3.408 23.316,3.408 C23.124,3.408 22.942,3.432 22.77,3.48 C22.598,3.528 22.444,3.6 22.308,3.696 C22.172,3.792 22.064,3.914 21.984,4.062 C21.904,4.21 21.864,4.384 21.864,4.584 L21.864,8.88 L20.904,8.88 L20.904,5.076 C20.904,4.524 20.796,4.108 20.58,3.828 C20.364,3.548 20.028,3.408 19.572,3.408 C19.38,3.408 19.196,3.432 19.02,3.48 C18.844,3.528 18.688,3.6 18.552,3.696 C18.416,3.792 18.306,3.914 18.222,4.062 C18.138,4.21 18.096,4.384 18.096,4.584 L18.096,8.88 L17.136,8.88 Z" id="Path"></path>
            <path d="M27.612,8.88 L27.612,2.688 L28.572,2.688 L28.572,3.696 L28.62,3.696 C28.692,3.536 28.774,3.386 28.866,3.246 C28.958,3.106 29.07,2.984 29.202,2.88 C29.334,2.776 29.488,2.694 29.664,2.634 C29.84,2.574 30.048,2.544 30.288,2.544 C30.696,2.544 31.072,2.642 31.416,2.838 C31.76,3.034 32.016,3.356 32.184,3.804 L32.208,3.804 C32.32,3.468 32.53,3.174 32.838,2.922 C33.146,2.67 33.564,2.544 34.092,2.544 C34.724,2.544 35.218,2.75 35.574,3.162 C35.93,3.574 36.108,4.156 36.108,4.908 L36.108,8.88 L35.148,8.88 L35.148,5.076 C35.148,4.524 35.04,4.108 34.824,3.828 C34.608,3.548 34.264,3.408 33.792,3.408 C33.6,3.408 33.418,3.432 33.246,3.48 C33.074,3.528 32.92,3.6 32.784,3.696 C32.648,3.792 32.54,3.914 32.46,4.062 C32.38,4.21 32.34,4.384 32.34,4.584 L32.34,8.88 L31.38,8.88 L31.38,5.076 C31.38,4.524 31.272,4.108 31.056,3.828 C30.84,3.548 30.504,3.408 30.048,3.408 C29.856,3.408 29.672,3.432 29.496,3.48 C29.32,3.528 29.164,3.6 29.028,3.696 C28.892,3.792 28.782,3.914 28.698,4.062 C28.614,4.21 28.572,4.384 28.572,4.584 L28.572,8.88 L27.612,8.88 Z" id="Path"></path>
        </g>
        <g id="Timezone" transform="translate(181.044000, 85.120000)" fill="#161616" fill-rule="nonzero">
            <polygon id="Path" points="3.672 1.392 3.672 8.88 2.664 8.88 2.664 1.392 0 1.392 0 0.504 6.336 0.504 6.336 1.392"></polygon>
            <path d="M8.1,1.236 C7.892,1.236 7.742,1.186 7.65,1.086 C7.558,0.986 7.512,0.856 7.512,0.696 L7.512,0.54 C7.512,0.38 7.558,0.25 7.65,0.15 C7.742,0.05 7.892,0 8.1,0 C8.308,0 8.458,0.05 8.55,0.15 C8.642,0.25 8.688,0.38 8.688,0.54 L8.688,0.696 C8.688,0.856 8.642,0.986 8.55,1.086 C8.458,1.186 8.308,1.236 8.1,1.236 Z M7.62,2.688 L8.58,2.688 L8.58,8.88 L7.62,8.88 L7.62,2.688 Z" id="Shape"></path>
            <path d="M10.62,8.88 L10.62,2.688 L11.58,2.688 L11.58,3.696 L11.628,3.696 C11.7,3.536 11.782,3.386 11.874,3.246 C11.966,3.106 12.078,2.984 12.21,2.88 C12.342,2.776 12.496,2.694 12.672,2.634 C12.848,2.574 13.056,2.544 13.296,2.544 C13.704,2.544 14.08,2.642 14.424,2.838 C14.768,3.034 15.024,3.356 15.192,3.804 L15.216,3.804 C15.328,3.468 15.538,3.174 15.846,2.922 C16.154,2.67 16.572,2.544 17.1,2.544 C17.732,2.544 18.226,2.75 18.582,3.162 C18.938,3.574 19.116,4.156 19.116,4.908 L19.116,8.88 L18.156,8.88 L18.156,5.076 C18.156,4.524 18.048,4.108 17.832,3.828 C17.616,3.548 17.272,3.408 16.8,3.408 C16.608,3.408 16.426,3.432 16.254,3.48 C16.082,3.528 15.928,3.6 15.792,3.696 C15.656,3.792 15.548,3.914 15.468,4.062 C15.388,4.21 15.348,4.384 15.348,4.584 L15.348,8.88 L14.388,8.88 L14.388,5.076 C14.388,4.524 14.28,4.108 14.064,3.828 C13.848,3.548 13.512,3.408 13.056,3.408 C12.864,3.408 12.68,3.432 12.504,3.48 C12.328,3.528 12.172,3.6 12.036,3.696 C11.9,3.792 11.79,3.914 11.706,4.062 C11.622,4.21 11.58,4.384 11.58,4.584 L11.58,8.88 L10.62,8.88 Z" id="Path"></path>
            <path d="M23.424,9.024 C23,9.024 22.618,8.948 22.278,8.796 C21.938,8.644 21.646,8.426 21.402,8.142 C21.158,7.858 20.97,7.518 20.838,7.122 C20.706,6.726 20.64,6.28 20.64,5.784 C20.64,5.296 20.706,4.852 20.838,4.452 C20.97,4.052 21.158,3.71 21.402,3.426 C21.646,3.142 21.938,2.924 22.278,2.772 C22.618,2.62 23,2.544 23.424,2.544 C23.84,2.544 24.212,2.62 24.54,2.772 C24.868,2.924 25.148,3.134 25.38,3.402 C25.612,3.67 25.79,3.988 25.914,4.356 C26.038,4.724 26.1,5.128 26.1,5.568 L26.1,6.024 L21.648,6.024 L21.648,6.312 C21.648,6.576 21.69,6.822 21.774,7.05 C21.858,7.278 21.978,7.476 22.134,7.644 C22.29,7.812 22.482,7.944 22.71,8.04 C22.938,8.136 23.196,8.184 23.484,8.184 C23.876,8.184 24.218,8.092 24.51,7.908 C24.802,7.724 25.028,7.46 25.188,7.116 L25.872,7.608 C25.672,8.032 25.36,8.374 24.936,8.634 C24.512,8.894 24.008,9.024 23.424,9.024 Z M23.424,3.348 C23.16,3.348 22.92,3.394 22.704,3.486 C22.488,3.578 22.302,3.708 22.146,3.876 C21.99,4.044 21.868,4.242 21.78,4.47 C21.692,4.698 21.648,4.948 21.648,5.22 L21.648,5.304 L25.068,5.304 L25.068,5.172 C25.068,4.62 24.918,4.178 24.618,3.846 C24.318,3.514 23.92,3.348 23.424,3.348 Z" id="Shape"></path>
            <polygon id="Path" points="27 8.88 27 8.076 30.516 3.528 27.108 3.528 27.108 2.688 31.68 2.688 31.68 3.408 28.092 8.04 31.776 8.04 31.776 8.88"></polygon>
            <path d="M35.412,9.024 C34.996,9.024 34.616,8.948 34.272,8.796 C33.928,8.644 33.634,8.426 33.39,8.142 C33.146,7.858 32.956,7.518 32.82,7.122 C32.684,6.726 32.616,6.28 32.616,5.784 C32.616,5.296 32.684,4.852 32.82,4.452 C32.956,4.052 33.146,3.71 33.39,3.426 C33.634,3.142 33.928,2.924 34.272,2.772 C34.616,2.62 34.996,2.544 35.412,2.544 C35.828,2.544 36.206,2.62 36.546,2.772 C36.886,2.924 37.18,3.142 37.428,3.426 C37.676,3.71 37.868,4.052 38.004,4.452 C38.14,4.852 38.208,5.296 38.208,5.784 C38.208,6.28 38.14,6.726 38.004,7.122 C37.868,7.518 37.676,7.858 37.428,8.142 C37.18,8.426 36.886,8.644 36.546,8.796 C36.206,8.948 35.828,9.024 35.412,9.024 Z M35.412,8.172 C35.932,8.172 36.356,8.012 36.684,7.692 C37.012,7.372 37.176,6.884 37.176,6.228 L37.176,5.34 C37.176,4.684 37.012,4.196 36.684,3.876 C36.356,3.556 35.932,3.396 35.412,3.396 C34.892,3.396 34.468,3.556 34.14,3.876 C33.812,4.196 33.648,4.684 33.648,5.34 L33.648,6.228 C33.648,6.884 33.812,7.372 34.14,7.692 C34.468,8.012 34.892,8.172 35.412,8.172 Z" id="Shape"></path>
            <path d="M39.792,8.88 L39.792,2.688 L40.752,2.688 L40.752,3.696 L40.8,3.696 C40.952,3.344 41.166,3.064 41.442,2.856 C41.718,2.648 42.088,2.544 42.552,2.544 C43.192,2.544 43.698,2.75 44.07,3.162 C44.442,3.574 44.628,4.156 44.628,4.908 L44.628,8.88 L43.668,8.88 L43.668,5.076 C43.668,3.964 43.2,3.408 42.264,3.408 C42.072,3.408 41.886,3.432 41.706,3.48 C41.526,3.528 41.364,3.6 41.22,3.696 C41.076,3.792 40.962,3.914 40.878,4.062 C40.794,4.21 40.752,4.384 40.752,4.584 L40.752,8.88 L39.792,8.88 Z" id="Path"></path>
            <path d="M48.936,9.024 C48.512,9.024 48.13,8.948 47.79,8.796 C47.45,8.644 47.158,8.426 46.914,8.142 C46.67,7.858 46.482,7.518 46.35,7.122 C46.218,6.726 46.152,6.28 46.152,5.784 C46.152,5.296 46.218,4.852 46.35,4.452 C46.482,4.052 46.67,3.71 46.914,3.426 C47.158,3.142 47.45,2.924 47.79,2.772 C48.13,2.62 48.512,2.544 48.936,2.544 C49.352,2.544 49.724,2.62 50.052,2.772 C50.38,2.924 50.66,3.134 50.892,3.402 C51.124,3.67 51.302,3.988 51.426,4.356 C51.55,4.724 51.612,5.128 51.612,5.568 L51.612,6.024 L47.16,6.024 L47.16,6.312 C47.16,6.576 47.202,6.822 47.286,7.05 C47.37,7.278 47.49,7.476 47.646,7.644 C47.802,7.812 47.994,7.944 48.222,8.04 C48.45,8.136 48.708,8.184 48.996,8.184 C49.388,8.184 49.73,8.092 50.022,7.908 C50.314,7.724 50.54,7.46 50.7,7.116 L51.384,7.608 C51.184,8.032 50.872,8.374 50.448,8.634 C50.024,8.894 49.52,9.024 48.936,9.024 Z M48.936,3.348 C48.672,3.348 48.432,3.394 48.216,3.486 C48,3.578 47.814,3.708 47.658,3.876 C47.502,4.044 47.38,4.242 47.292,4.47 C47.204,4.698 47.16,4.948 47.16,5.22 L47.16,5.304 L50.58,5.304 L50.58,5.172 C50.58,4.62 50.43,4.178 50.13,3.846 C49.83,3.514 49.432,3.348 48.936,3.348 Z" id="Shape"></path>
        </g>
        <g id="AM" transform="translate(124.558000, 85.624000)" fill="#161616" fill-rule="nonzero">
            <path d="M6.084,8.376 L5.244,5.904 L1.86,5.904 L1.02,8.376 L0,8.376 L2.928,0 L4.212,0 L7.14,8.376 L6.084,8.376 Z M3.576,0.936 L3.516,0.936 L2.1,5.016 L4.992,5.016 L3.576,0.936 Z" id="Shape"></path>
            <polygon id="Path" points="15.06 1.32 15 1.32 14.292 2.724 12.288 6.372 10.284 2.724 9.576 1.32 9.516 1.32 9.516 8.376 8.532 8.376 8.532 0 9.876 0 12.276 4.512 12.336 4.512 14.748 0 16.044 0 16.044 8.376 15.06 8.376"></polygon>
        </g>
        <g id="Group" transform="translate(244.000000, 84.000000)">
            <g id="Group" transform="translate(6.000000, 6.000000) scale(1, -1) translate(-6.000000, -6.000000) ">
                <g id="chevron--up" transform="translate(2.250000, 3.750000)">
                    <mask id="mask-2" fill="white">
                        <use xlink:href="#path-1"></use>
                    </mask>
                    <use id="Mask" fill="#000000" fill-rule="nonzero" xlink:href="#path-1"></use>
                    <g id="Group" mask="url(#mask-2)">
                        <g transform="translate(-2.250000, -3.750000)" id="icon-color">
                            <rect id="Rectangle" fill="#171717" x="0" y="0" width="30" height="30"></rect>
                        </g>
                    </g>
                </g>
                <polygon id="transparent-rectangle" transform="translate(6.000000, 6.000000) rotate(-90.000000) translate(-6.000000, -6.000000) " points="8.8817842e-16 7.34788079e-16 12 7.34788079e-16 12 12 8.8817842e-16 12"></polygon>
            </g>
        </g>
        <g id="Group" transform="translate(151.000000, 84.000000)">
            <g id="Group" transform="translate(6.000000, 6.000000) scale(1, -1) translate(-6.000000, -6.000000) ">
                <g id="chevron--up" transform="translate(2.250000, 3.750000)">
                    <mask id="mask-4" fill="white">
                        <use xlink:href="#path-3"></use>
                    </mask>
                    <use id="Mask" fill="#000000" fill-rule="nonzero" xlink:href="#path-3"></use>
                    <g id="Group" mask="url(#mask-4)">
                        <g transform="translate(-2.250000, -3.750000)" id="icon-color">
                            <rect id="Rectangle" fill="#171717" x="0" y="0" width="30" height="30"></rect>
                        </g>
                    </g>
                </g>
                <polygon id="transparent-rectangle" transform="translate(6.000000, 6.000000) rotate(-90.000000) translate(-6.000000, -6.000000) " points="8.8817842e-16 7.34788079e-16 12 7.34788079e-16 12 12 8.8817842e-16 12"></polygon>
            </g>
        </g>
        <rect id="Rectangle-3-Copy-9" fill="#8D8D8D" x="56" y="63" width="43" height="5"></rect>
        <rect id="Rectangle-3-Copy-10" x="56" y="111" width="50" height="5"></rect>
    </g>
</svg>