<?xml version="1.0" encoding="UTF-8" standalone="no"?>
<!DOCTYPE svg PUBLIC "-//W3C//DTD SVG 1.1//EN"
 "http://www.w3.org/Graphics/SVG/1.1/DTD/svg11.dtd">
<!-- Generated by graphviz version 2.47.0 (20210316.0004)
 -->
<!-- Title: dependencies Pages: 1 -->
<svg width="1178pt" height="396pt"
 viewBox="0.00 0.00 1178.00 395.59" xmlns="http://www.w3.org/2000/svg" xmlns:xlink="http://www.w3.org/1999/xlink">
<g id="graph0" class="graph" transform="scale(1 1) rotate(0) translate(4 391.59)">
<title>dependencies</title>
<polygon fill="white" stroke="transparent" points="-4,4 -4,-391.59 1174,-391.59 1174,4 -4,4"/>
<text text-anchor="start" x="564.01" y="-42.4" font-family="Times-12" font-weight="bold" font-size="14.00">Legend</text>
<polygon fill="#ffffb3" stroke="transparent" points="351,-10 351,-30 371,-30 371,-10 351,-10"/>
<text text-anchor="start" x="374.63" y="-15.4" font-family="Times-12" font-size="14.00"> &#160;Declarations</text>
<polygon fill="#8dd3c7" stroke="transparent" points="464,-10 464,-30 484,-30 484,-10 464,-10"/>
<text text-anchor="start" x="487.73" y="-15.4" font-family="Times-12" font-size="14.00"> &#160;Module</text>
<polygon fill="#80b1d3" stroke="transparent" points="550,-10 550,-30 570,-30 570,-10 550,-10"/>
<text text-anchor="start" x="573.78" y="-15.4" font-family="Times-12" font-size="14.00"> &#160;Bootstrap</text>
<polygon fill="#fdb462" stroke="transparent" points="647,-10 647,-30 667,-30 667,-10 647,-10"/>
<text text-anchor="start" x="670.67" y="-15.4" font-family="Times-12" font-size="14.00"> &#160;Providers</text>
<polygon fill="#fb8072" stroke="transparent" points="743,-10 743,-30 763,-30 763,-10 743,-10"/>
<text text-anchor="start" x="766.73" y="-15.4" font-family="Times-12" font-size="14.00"> &#160;Exports</text>
<g id="clust1" class="cluster">
<title>cluster_DropdownModule</title>
<polygon fill="none" stroke="black" stroke-dasharray="1,5" points="8,-70 8,-379.59 1162,-379.59 1162,-70 8,-70"/>
</g>
<g id="clust2" class="cluster">
<title>cluster_DropdownModule_declarations</title>
<polygon fill="none" stroke="black" points="202,-189.59 202,-241.59 694,-241.59 694,-189.59 202,-189.59"/>
</g>
<g id="clust7" class="cluster">
<title>cluster_DropdownModule_imports</title>
<polygon fill="none" stroke="black" points="702,-189.59 702,-241.59 1154,-241.59 1154,-189.59 702,-189.59"/>
</g>
<g id="clust4" class="cluster">
<title>cluster_DropdownModule_Dropdown_providers</title>
<polygon fill="none" stroke="black" points="157,-78 157,-176.59 795,-176.59 795,-78 157,-78"/>
</g>
<g id="clust10" class="cluster">
<title>cluster_DropdownModule_providers</title>
<polygon fill="none" stroke="black" points="16,-189.59 16,-241.59 194,-241.59 194,-189.59 16,-189.59"/>
</g>
<g id="clust8" class="cluster">
<title>cluster_DropdownModule_exports</title>
<polygon fill="none" stroke="black" points="380,-319.59 380,-371.59 886,-371.59 886,-319.59 380,-319.59"/>
</g>
<!-- AbstractDropdownView -->
<g id="node1" class="node">
<title>AbstractDropdownView</title>
<polygon fill="#ffffb3" stroke="black" points="685.61,-233.59 532.39,-233.59 532.39,-197.59 685.61,-197.59 685.61,-233.59"/>
<text text-anchor="middle" x="609" y="-211.39" font-family="Times,serif" font-size="14.00">AbstractDropdownView</text>
</g>
<!-- DropdownModule -->
<g id="node5" class="node">
<title>DropdownModule</title>
<polygon fill="#8dd3c7" stroke="black" points="668.92,-298.59 665.92,-302.59 644.92,-302.59 641.92,-298.59 549.08,-298.59 549.08,-262.59 668.92,-262.59 668.92,-298.59"/>
<text text-anchor="middle" x="609" y="-276.39" font-family="Times,serif" font-size="14.00">DropdownModule</text>
</g>
<!-- AbstractDropdownView&#45;&gt;DropdownModule -->
<g id="edge1" class="edge">
<title>AbstractDropdownView&#45;&gt;DropdownModule</title>
<path fill="none" stroke="black" d="M609,-233.7C609,-233.7 609,-252.58 609,-252.58"/>
<polygon fill="black" stroke="black" points="605.5,-252.58 609,-262.58 612.5,-252.58 605.5,-252.58"/>
</g>
<!-- Dropdown -->
<g id="node2" class="node">
<title>Dropdown</title>
<polygon fill="#ffffb3" stroke="black" points="513.87,-233.59 438.13,-233.59 438.13,-197.59 513.87,-197.59 513.87,-233.59"/>
<text text-anchor="middle" x="476" y="-211.39" font-family="Times,serif" font-size="14.00">Dropdown</text>
</g>
<!-- Dropdown&#45;&gt;DropdownModule -->
<g id="edge2" class="edge">
<title>Dropdown&#45;&gt;DropdownModule</title>
<path fill="none" stroke="black" d="M509.18,-233.83C509.18,-249.16 509.18,-268.59 509.18,-268.59 509.18,-268.59 539.21,-268.59 539.21,-268.59"/>
<polygon fill="black" stroke="black" points="539.21,-272.09 549.21,-268.59 539.21,-265.09 539.21,-272.09"/>
</g>
<!-- DropdownList -->
<g id="node3" class="node">
<title>DropdownList</title>
<polygon fill="#ffffb3" stroke="black" points="419.65,-233.59 322.35,-233.59 322.35,-197.59 419.65,-197.59 419.65,-233.59"/>
<text text-anchor="middle" x="371" y="-211.39" font-family="Times,serif" font-size="14.00">DropdownList</text>
</g>
<!-- DropdownList&#45;&gt;DropdownModule -->
<g id="edge4" class="edge">
<title>DropdownList&#45;&gt;DropdownModule</title>
<path fill="none" stroke="black" d="M403.9,-233.61C403.9,-250.96 403.9,-274.59 403.9,-274.59 403.9,-274.59 539.13,-274.59 539.13,-274.59"/>
<polygon fill="black" stroke="black" points="539.13,-278.09 549.13,-274.59 539.13,-271.09 539.13,-278.09"/>
</g>
<!-- ScrollableList -->
<g id="node4" class="node">
<title>ScrollableList</title>
<polygon fill="#ffffb3" stroke="black" points="304.04,-233.59 209.96,-233.59 209.96,-197.59 304.04,-197.59 304.04,-233.59"/>
<text text-anchor="middle" x="257" y="-211.39" font-family="Times,serif" font-size="14.00">ScrollableList</text>
</g>
<!-- ScrollableList&#45;&gt;DropdownModule -->
<g id="edge5" class="edge">
<title>ScrollableList&#45;&gt;DropdownModule</title>
<path fill="none" stroke="black" d="M257,-233.7C257,-252.93 257,-280.59 257,-280.59 257,-280.59 539.29,-280.59 539.29,-280.59"/>
<polygon fill="black" stroke="black" points="539.29,-284.09 549.29,-280.59 539.29,-277.09 539.29,-284.09"/>
</g>
<!-- AbstractDropdownView  -->
<g id="node11" class="node">
<title>AbstractDropdownView </title>
<polygon fill="#fb8072" stroke="black" points="877.61,-363.59 720.39,-363.59 720.39,-327.59 877.61,-327.59 877.61,-363.59"/>
<text text-anchor="middle" x="799" y="-341.39" font-family="Times,serif" font-size="14.00">AbstractDropdownView </text>
</g>
<!-- DropdownModule&#45;&gt;AbstractDropdownView  -->
<g id="edge10" class="edge">
<title>DropdownModule&#45;&gt;AbstractDropdownView </title>
<path fill="none" stroke="black" stroke-dasharray="5,2" d="M668.91,-292.59C710.48,-292.59 758.41,-292.59 758.41,-292.59 758.41,-292.59 758.41,-317.35 758.41,-317.35"/>
<polygon fill="black" stroke="black" points="754.91,-317.35 758.41,-327.35 761.91,-317.35 754.91,-317.35"/>
</g>
<!-- Dropdown  -->
<g id="node12" class="node">
<title>Dropdown </title>
<polygon fill="#fb8072" stroke="black" points="702.87,-363.59 623.13,-363.59 623.13,-327.59 702.87,-327.59 702.87,-363.59"/>
<text text-anchor="middle" x="663" y="-341.39" font-family="Times,serif" font-size="14.00">Dropdown </text>
</g>
<!-- DropdownModule&#45;&gt;Dropdown  -->
<g id="edge11" class="edge">
<title>DropdownModule&#45;&gt;Dropdown </title>
<path fill="none" stroke="black" stroke-dasharray="5,2" d="M646.01,-298.7C646.01,-298.7 646.01,-317.58 646.01,-317.58"/>
<polygon fill="black" stroke="black" points="642.51,-317.58 646.01,-327.58 649.51,-317.58 642.51,-317.58"/>
</g>
<!-- DropdownList  -->
<g id="node13" class="node">
<title>DropdownList </title>
<polygon fill="#fb8072" stroke="black" points="605.65,-363.59 504.35,-363.59 504.35,-327.59 605.65,-327.59 605.65,-363.59"/>
<text text-anchor="middle" x="555" y="-341.39" font-family="Times,serif" font-size="14.00">DropdownList </text>
</g>
<!-- DropdownModule&#45;&gt;DropdownList  -->
<g id="edge12" class="edge">
<title>DropdownModule&#45;&gt;DropdownList </title>
<path fill="none" stroke="black" stroke-dasharray="5,2" d="M577.43,-298.7C577.43,-298.7 577.43,-317.58 577.43,-317.58"/>
<polygon fill="black" stroke="black" points="573.93,-317.58 577.43,-327.58 580.93,-317.58 573.93,-317.58"/>
</g>
<!-- ScrollableList  -->
<g id="node14" class="node">
<title>ScrollableList </title>
<polygon fill="#fb8072" stroke="black" points="486.04,-363.59 387.96,-363.59 387.96,-327.59 486.04,-327.59 486.04,-363.59"/>
<text text-anchor="middle" x="437" y="-341.39" font-family="Times,serif" font-size="14.00">ScrollableList </text>
</g>
<!-- DropdownModule&#45;&gt;ScrollableList  -->
<g id="edge13" class="edge">
<title>DropdownModule&#45;&gt;ScrollableList </title>
<path fill="none" stroke="black" stroke-dasharray="5,2" d="M549.23,-292.59C508.54,-292.59 462.04,-292.59 462.04,-292.59 462.04,-292.59 462.04,-317.35 462.04,-317.35"/>
<polygon fill="black" stroke="black" points="458.54,-317.35 462.04,-327.35 465.54,-317.35 458.54,-317.35"/>
</g>
<!-- {
 &#160;&#160;&#160;provide: NG_VALUE_ACCESSOR, useExisting: Dropdown, multi: true
} -->
<g id="node6" class="node">
<title>{
 &#160;&#160;&#160;provide: NG_VALUE_ACCESSOR, useExisting: Dropdown, multi: true
}</title>
<ellipse fill="#fdb462" stroke="black" cx="476" cy="-127.3" rx="310.97" ry="41.09"/>
<text text-anchor="middle" x="476" y="-139.9" font-family="Times,serif" font-size="14.00">{</text>
<text text-anchor="middle" x="476" y="-123.1" font-family="Times,serif" font-size="14.00"> &#160;&#160;&#160;provide: NG_VALUE_ACCESSOR, useExisting: Dropdown, multi: true</text>
<text text-anchor="middle" x="476" y="-106.3" font-family="Times,serif" font-size="14.00">}</text>
</g>
<!-- {
 &#160;&#160;&#160;provide: NG_VALUE_ACCESSOR, useExisting: Dropdown, multi: true
}&#45;&gt;Dropdown -->
<g id="edge3" class="edge">
<title>{
 &#160;&#160;&#160;provide: NG_VALUE_ACCESSOR, useExisting: Dropdown, multi: true
}&#45;&gt;Dropdown</title>
<path fill="none" stroke="black" d="M476,-168.6C476,-168.6 476,-187.26 476,-187.26"/>
<polygon fill="black" stroke="black" points="472.5,-187.26 476,-197.26 479.5,-187.26 472.5,-187.26"/>
</g>
<!-- I18nModule -->
<g id="node7" class="node">
<title>I18nModule</title>
<polygon fill="#8dd3c7" stroke="black" points="1145.71,-233.59 1142.71,-237.59 1121.71,-237.59 1118.71,-233.59 1060.29,-233.59 1060.29,-197.59 1145.71,-197.59 1145.71,-233.59"/>
<text text-anchor="middle" x="1103" y="-211.39" font-family="Times,serif" font-size="14.00">I18nModule</text>
</g>
<!-- I18nModule&#45;&gt;DropdownModule -->
<g id="edge6" class="edge">
<title>I18nModule&#45;&gt;DropdownModule</title>
<path fill="none" stroke="black" d="M1103,-233.87C1103,-254.91 1103,-286.59 1103,-286.59 1103,-286.59 679.08,-286.59 679.08,-286.59"/>
<polygon fill="black" stroke="black" points="679.08,-283.09 669.08,-286.59 679.08,-290.09 679.08,-283.09"/>
</g>
<!-- IconModule -->
<g id="node8" class="node">
<title>IconModule</title>
<polygon fill="#8dd3c7" stroke="black" points="1042.43,-233.59 1039.43,-237.59 1018.43,-237.59 1015.43,-233.59 957.57,-233.59 957.57,-197.59 1042.43,-197.59 1042.43,-233.59"/>
<text text-anchor="middle" x="1000" y="-211.39" font-family="Times,serif" font-size="14.00">IconModule</text>
</g>
<!-- IconModule&#45;&gt;DropdownModule -->
<g id="edge7" class="edge">
<title>IconModule&#45;&gt;DropdownModule</title>
<path fill="none" stroke="black" d="M1000,-233.7C1000,-252.93 1000,-280.59 1000,-280.59 1000,-280.59 678.81,-280.59 678.81,-280.59"/>
<polygon fill="black" stroke="black" points="678.81,-277.09 668.81,-280.59 678.81,-284.09 678.81,-277.09"/>
</g>
<!-- PlaceholderModule -->
<g id="node9" class="node">
<title>PlaceholderModule</title>
<polygon fill="#8dd3c7" stroke="black" points="939.63,-233.59 936.63,-237.59 915.63,-237.59 912.63,-233.59 814.37,-233.59 814.37,-197.59 939.63,-197.59 939.63,-233.59"/>
<text text-anchor="middle" x="877" y="-211.39" font-family="Times,serif" font-size="14.00">PlaceholderModule</text>
</g>
<!-- PlaceholderModule&#45;&gt;DropdownModule -->
<g id="edge8" class="edge">
<title>PlaceholderModule&#45;&gt;DropdownModule</title>
<path fill="none" stroke="black" d="M845.87,-233.61C845.87,-250.96 845.87,-274.59 845.87,-274.59 845.87,-274.59 678.77,-274.59 678.77,-274.59"/>
<polygon fill="black" stroke="black" points="678.77,-271.09 668.77,-274.59 678.77,-278.09 678.77,-271.09"/>
</g>
<!-- UtilsModule -->
<g id="node10" class="node">
<title>UtilsModule</title>
<polygon fill="#8dd3c7" stroke="black" points="796.27,-233.59 793.27,-237.59 772.27,-237.59 769.27,-233.59 709.73,-233.59 709.73,-197.59 796.27,-197.59 796.27,-233.59"/>
<text text-anchor="middle" x="753" y="-211.39" font-family="Times,serif" font-size="14.00">UtilsModule</text>
</g>
<!-- UtilsModule&#45;&gt;DropdownModule -->
<g id="edge9" class="edge">
<title>UtilsModule&#45;&gt;DropdownModule</title>
<path fill="none" stroke="black" d="M715.03,-233.83C715.03,-249.16 715.03,-268.59 715.03,-268.59 715.03,-268.59 678.83,-268.59 678.83,-268.59"/>
<polygon fill="black" stroke="black" points="678.83,-265.09 668.83,-268.59 678.83,-272.09 678.83,-265.09"/>
</g>
<!-- DropdownService -->
<g id="node15" class="node">
<title>DropdownService</title>
<ellipse fill="#fdb462" stroke="black" cx="105" cy="-215.59" rx="81.08" ry="18"/>
<text text-anchor="middle" x="105" y="-211.39" font-family="Times,serif" font-size="14.00">DropdownService</text>
</g>
<!-- DropdownService&#45;&gt;DropdownModule -->
<g id="edge14" class="edge">
<title>DropdownService&#45;&gt;DropdownModule</title>
<path fill="none" stroke="black" d="M105,-233.87C105,-254.91 105,-286.59 105,-286.59 105,-286.59 539.21,-286.59 539.21,-286.59"/>
<polygon fill="black" stroke="black" points="539.21,-290.09 549.21,-286.59 539.21,-283.09 539.21,-290.09"/>
</g>
</g>
</svg>
