<?xml version="1.0" encoding="UTF-8" standalone="no"?>
<!DOCTYPE svg PUBLIC "-//W3C//DTD SVG 1.1//EN"
 "http://www.w3.org/Graphics/SVG/1.1/DTD/svg11.dtd">
<!-- Generated by graphviz version 2.40.1 (20161225.0304)
 -->
<!-- Title: dependencies Pages: 1 -->
<svg width="799pt" height="396pt"
 viewBox="0.00 0.00 799.00 395.59" xmlns="http://www.w3.org/2000/svg" xmlns:xlink="http://www.w3.org/1999/xlink">
<g id="graph0" class="graph" transform="scale(1 1) rotate(0) translate(4 391.5901)">
<title>dependencies</title>
<polygon fill="#ffffff" stroke="transparent" points="-4,4 -4,-391.5901 795,-391.5901 795,4 -4,4"/>
<text text-anchor="start" x="374.5091" y="-42.4" font-family="sans-serif" font-weight="bold" font-size="14.00" fill="#000000">Legend</text>
<polygon fill="#ffffb3" stroke="transparent" points="161.5,-10 161.5,-30 181.5,-30 181.5,-10 161.5,-10"/>
<text text-anchor="start" x="185.129" y="-15.4" font-family="sans-serif" font-size="14.00" fill="#000000"> &#160;Declarations</text>
<polygon fill="#8dd3c7" stroke="transparent" points="274.5,-10 274.5,-30 294.5,-30 294.5,-10 274.5,-10"/>
<text text-anchor="start" x="298.2251" y="-15.4" font-family="sans-serif" font-size="14.00" fill="#000000"> &#160;Module</text>
<polygon fill="#80b1d3" stroke="transparent" points="360.5,-10 360.5,-30 380.5,-30 380.5,-10 360.5,-10"/>
<text text-anchor="start" x="384.2812" y="-15.4" font-family="sans-serif" font-size="14.00" fill="#000000"> &#160;Bootstrap</text>
<polygon fill="#fdb462" stroke="transparent" points="457.5,-10 457.5,-30 477.5,-30 477.5,-10 457.5,-10"/>
<text text-anchor="start" x="481.1732" y="-15.4" font-family="sans-serif" font-size="14.00" fill="#000000"> &#160;Providers</text>
<polygon fill="#fb8072" stroke="transparent" points="553.5,-10 553.5,-30 573.5,-30 573.5,-10 553.5,-10"/>
<text text-anchor="start" x="577.2258" y="-15.4" font-family="sans-serif" font-size="14.00" fill="#000000"> &#160;Exports</text>
<g id="clust1" class="cluster">
<title>cluster_DropdownModule</title>
<polygon fill="none" stroke="#000000" stroke-dasharray="1,5" points="8,-70 8,-379.5901 783,-379.5901 783,-70 8,-70"/>
</g>
<g id="clust2" class="cluster">
<title>cluster_DropdownModule_declarations</title>
<polygon fill="none" stroke="#000000" points="455,-189.5901 455,-241.5901 775,-241.5901 775,-189.5901 455,-189.5901"/>
</g>
<g id="clust3" class="cluster">
<title>cluster_DropdownModule_Dropdown_providers</title>
<polygon fill="none" stroke="#000000" points="137,-78 137,-176.5901 775,-176.5901 775,-78 137,-78"/>
</g>
<g id="clust6" class="cluster">
<title>cluster_DropdownModule_imports</title>
<polygon fill="none" stroke="#000000" points="202,-189.5901 202,-241.5901 447,-241.5901 447,-189.5901 202,-189.5901"/>
</g>
<g id="clust7" class="cluster">
<title>cluster_DropdownModule_exports</title>
<polygon fill="none" stroke="#000000" points="278,-319.5901 278,-371.5901 609,-371.5901 609,-319.5901 278,-319.5901"/>
</g>
<g id="clust9" class="cluster">
<title>cluster_DropdownModule_providers</title>
<polygon fill="none" stroke="#000000" points="16,-189.5901 16,-241.5901 194,-241.5901 194,-189.5901 16,-189.5901"/>
</g>
<!-- Dropdown -->
<g id="node1" class="node">
<title>Dropdown</title>
<polygon fill="#ffffb3" stroke="#000000" points="766.8739,-233.5901 691.1261,-233.5901 691.1261,-197.5901 766.8739,-197.5901 766.8739,-233.5901"/>
<text text-anchor="middle" x="729" y="-211.3901" font-family="Times,serif" font-size="14.00" fill="#000000">Dropdown</text>
</g>
<!-- DropdownModule -->
<g id="node4" class="node">
<title>DropdownModule</title>
<polygon fill="#8dd3c7" stroke="#000000" points="512.9244,-298.5901 509.9244,-302.5901 488.9244,-302.5901 485.9244,-298.5901 393.0756,-298.5901 393.0756,-262.5901 512.9244,-262.5901 512.9244,-298.5901"/>
<text text-anchor="middle" x="453" y="-276.3901" font-family="Times,serif" font-size="14.00" fill="#000000">DropdownModule</text>
</g>
<!-- Dropdown&#45;&gt;DropdownModule -->
<g id="edge1" class="edge">
<title>Dropdown&#45;&gt;DropdownModule</title>
<path fill="none" stroke="#000000" d="M729,-233.8743C729,-254.9111 729,-286.5901 729,-286.5901 729,-286.5901 522.8879,-286.5901 522.8879,-286.5901"/>
<polygon fill="#000000" stroke="#000000" points="522.8879,-283.0902 512.8879,-286.5901 522.8879,-290.0902 522.8879,-283.0902"/>
</g>
<!-- DropdownList -->
<g id="node2" class="node">
<title>DropdownList</title>
<polygon fill="#ffffb3" stroke="#000000" points="672.6528,-233.5901 575.3472,-233.5901 575.3472,-197.5901 672.6528,-197.5901 672.6528,-233.5901"/>
<text text-anchor="middle" x="624" y="-211.3901" font-family="Times,serif" font-size="14.00" fill="#000000">DropdownList</text>
</g>
<!-- DropdownList&#45;&gt;DropdownModule -->
<g id="edge3" class="edge">
<title>DropdownList&#45;&gt;DropdownModule</title>
<path fill="none" stroke="#000000" d="M587.9304,-233.6126C587.9304,-250.9634 587.9304,-274.5901 587.9304,-274.5901 587.9304,-274.5901 522.9682,-274.5901 522.9682,-274.5901"/>
<polygon fill="#000000" stroke="#000000" points="522.9683,-271.0902 512.9682,-274.5901 522.9682,-278.0902 522.9683,-271.0902"/>
</g>
<!-- ScrollableList -->
<g id="node3" class="node">
<title>ScrollableList</title>
<polygon fill="#ffffb3" stroke="#000000" points="557.0383,-233.5901 462.9617,-233.5901 462.9617,-197.5901 557.0383,-197.5901 557.0383,-233.5901"/>
<text text-anchor="middle" x="510" y="-211.3901" font-family="Times,serif" font-size="14.00" fill="#000000">ScrollableList</text>
</g>
<!-- ScrollableList&#45;&gt;DropdownModule -->
<g id="edge4" class="edge">
<title>ScrollableList&#45;&gt;DropdownModule</title>
<path fill="none" stroke="#000000" d="M487.7216,-233.6962C487.7216,-233.6962 487.7216,-252.581 487.7216,-252.581"/>
<polygon fill="#000000" stroke="#000000" points="484.2217,-252.581 487.7216,-262.581 491.2217,-252.5811 484.2217,-252.581"/>
</g>
<!-- Dropdown  -->
<g id="node8" class="node">
<title>Dropdown </title>
<polygon fill="#fb8072" stroke="#000000" points="600.8747,-363.5901 521.1253,-363.5901 521.1253,-327.5901 600.8747,-327.5901 600.8747,-363.5901"/>
<text text-anchor="middle" x="561" y="-341.3901" font-family="Times,serif" font-size="14.00" fill="#000000">Dropdown </text>
</g>
<!-- DropdownModule&#45;&gt;Dropdown  -->
<g id="edge7" class="edge">
<title>DropdownModule&#45;&gt;Dropdown </title>
<path fill="none" stroke="#000000" stroke-dasharray="5,2" d="M508.144,-298.6962C508.144,-317.9292 508.144,-345.5901 508.144,-345.5901 508.144,-345.5901 511.2095,-345.5901 511.2095,-345.5901"/>
<polygon fill="#000000" stroke="#000000" points="511.2095,-349.0902 521.2095,-345.5901 511.2095,-342.0902 511.2095,-349.0902"/>
</g>
<!-- DropdownList  -->
<g id="node9" class="node">
<title>DropdownList </title>
<polygon fill="#fb8072" stroke="#000000" points="503.6523,-363.5901 402.3477,-363.5901 402.3477,-327.5901 503.6523,-327.5901 503.6523,-363.5901"/>
<text text-anchor="middle" x="453" y="-341.3901" font-family="Times,serif" font-size="14.00" fill="#000000">DropdownList </text>
</g>
<!-- DropdownModule&#45;&gt;DropdownList  -->
<g id="edge8" class="edge">
<title>DropdownModule&#45;&gt;DropdownList </title>
<path fill="none" stroke="#000000" stroke-dasharray="5,2" d="M453,-298.6962C453,-298.6962 453,-317.581 453,-317.581"/>
<polygon fill="#000000" stroke="#000000" points="449.5001,-317.581 453,-327.581 456.5001,-317.5811 449.5001,-317.581"/>
</g>
<!-- ScrollableList  -->
<g id="node10" class="node">
<title>ScrollableList </title>
<polygon fill="#fb8072" stroke="#000000" points="384.0372,-363.5901 285.9628,-363.5901 285.9628,-327.5901 384.0372,-327.5901 384.0372,-363.5901"/>
<text text-anchor="middle" x="335" y="-341.3901" font-family="Times,serif" font-size="14.00" fill="#000000">ScrollableList </text>
</g>
<!-- DropdownModule&#45;&gt;ScrollableList  -->
<g id="edge9" class="edge">
<title>DropdownModule&#45;&gt;ScrollableList </title>
<path fill="none" stroke="#000000" stroke-dasharray="5,2" d="M397.8561,-298.6962C397.8561,-317.9292 397.8561,-345.5901 397.8561,-345.5901 397.8561,-345.5901 394.2172,-345.5901 394.2172,-345.5901"/>
<polygon fill="#000000" stroke="#000000" points="394.2173,-342.0902 384.2172,-345.5901 394.2172,-349.0902 394.2173,-342.0902"/>
</g>
<!-- {
 &#160;&#160;&#160;provide: NG_VALUE_ACCESSOR, useExisting: Dropdown, multi: true
} -->
<g id="node5" class="node">
<title>{
 &#160;&#160;&#160;provide: NG_VALUE_ACCESSOR, useExisting: Dropdown, multi: true
}</title>
<ellipse fill="#fdb462" stroke="#000000" cx="456" cy="-127.295" rx="310.9718" ry="41.0911"/>
<text text-anchor="middle" x="456" y="-139.895" font-family="Times,serif" font-size="14.00" fill="#000000">{</text>
<text text-anchor="middle" x="456" y="-123.095" font-family="Times,serif" font-size="14.00" fill="#000000"> &#160;&#160;&#160;provide: NG_VALUE_ACCESSOR, useExisting: Dropdown, multi: true</text>
<text text-anchor="middle" x="456" y="-106.295" font-family="Times,serif" font-size="14.00" fill="#000000">}</text>
</g>
<!-- {
 &#160;&#160;&#160;provide: NG_VALUE_ACCESSOR, useExisting: Dropdown, multi: true
}&#45;&gt;Dropdown -->
<g id="edge2" class="edge">
<title>{
 &#160;&#160;&#160;provide: NG_VALUE_ACCESSOR, useExisting: Dropdown, multi: true
}&#45;&gt;Dropdown</title>
<path fill="none" stroke="#000000" d="M728.8995,-147.3305C728.8995,-147.3305 728.8995,-187.4358 728.8995,-187.4358"/>
<polygon fill="#000000" stroke="#000000" points="725.3996,-187.4357 728.8995,-197.4358 732.3996,-187.4358 725.3996,-187.4357"/>
</g>
<!-- I18nModule -->
<g id="node6" class="node">
<title>I18nModule</title>
<polygon fill="#8dd3c7" stroke="#000000" points="438.7107,-233.5901 435.7107,-237.5901 414.7107,-237.5901 411.7107,-233.5901 353.2893,-233.5901 353.2893,-197.5901 438.7107,-197.5901 438.7107,-233.5901"/>
<text text-anchor="middle" x="396" y="-211.3901" font-family="Times,serif" font-size="14.00" fill="#000000">I18nModule</text>
</g>
<!-- I18nModule&#45;&gt;DropdownModule -->
<g id="edge5" class="edge">
<title>I18nModule&#45;&gt;DropdownModule</title>
<path fill="none" stroke="#000000" d="M415.9467,-233.6962C415.9467,-233.6962 415.9467,-252.581 415.9467,-252.581"/>
<polygon fill="#000000" stroke="#000000" points="412.4468,-252.581 415.9467,-262.581 419.4468,-252.5811 412.4468,-252.581"/>
</g>
<!-- PlaceholderModule -->
<g id="node7" class="node">
<title>PlaceholderModule</title>
<polygon fill="#8dd3c7" stroke="#000000" points="335.6331,-233.5901 332.6331,-237.5901 311.6331,-237.5901 308.6331,-233.5901 210.3669,-233.5901 210.3669,-197.5901 335.6331,-197.5901 335.6331,-233.5901"/>
<text text-anchor="middle" x="273" y="-211.3901" font-family="Times,serif" font-size="14.00" fill="#000000">PlaceholderModule</text>
</g>
<!-- PlaceholderModule&#45;&gt;DropdownModule -->
<g id="edge6" class="edge">
<title>PlaceholderModule&#45;&gt;DropdownModule</title>
<path fill="none" stroke="#000000" d="M310.8989,-233.6126C310.8989,-250.9634 310.8989,-274.5901 310.8989,-274.5901 310.8989,-274.5901 383.1482,-274.5901 383.1482,-274.5901"/>
<polygon fill="#000000" stroke="#000000" points="383.1482,-278.0902 393.1482,-274.5901 383.1481,-271.0902 383.1482,-278.0902"/>
</g>
<!-- DropdownService -->
<g id="node11" class="node">
<title>DropdownService</title>
<ellipse fill="#fdb462" stroke="#000000" cx="105" cy="-215.5901" rx="81.084" ry="18"/>
<text text-anchor="middle" x="105" y="-211.3901" font-family="Times,serif" font-size="14.00" fill="#000000">DropdownService</text>
</g>
<!-- DropdownService&#45;&gt;DropdownModule -->
<g id="edge10" class="edge">
<title>DropdownService&#45;&gt;DropdownModule</title>
<path fill="none" stroke="#000000" d="M105,-233.8743C105,-254.9111 105,-286.5901 105,-286.5901 105,-286.5901 383.1767,-286.5901 383.1767,-286.5901"/>
<polygon fill="#000000" stroke="#000000" points="383.1767,-290.0902 393.1767,-286.5901 383.1766,-283.0902 383.1767,-290.0902"/>
</g>
</g>
</svg>
