<?xml version="1.0" encoding="UTF-8" standalone="no"?>
<!DOCTYPE svg PUBLIC "-//W3C//DTD SVG 1.1//EN"
 "http://www.w3.org/Graphics/SVG/1.1/DTD/svg11.dtd">
<!-- Generated by graphviz version 2.47.0 (20210316.0004)
 -->
<!-- Title: dependencies Pages: 1 -->
<svg width="504pt" height="284pt"
 viewBox="0.00 0.00 504.00 284.00" xmlns="http://www.w3.org/2000/svg" xmlns:xlink="http://www.w3.org/1999/xlink">
<g id="graph0" class="graph" transform="scale(1 1) rotate(0) translate(4 280)">
<title>dependencies</title>
<polygon fill="white" stroke="transparent" points="-4,4 -4,-280 500,-280 500,4 -4,4"/>
<text text-anchor="start" x="227.01" y="-42.4" font-family="Times-12" font-weight="bold" font-size="14.00">Legend</text>
<polygon fill="#ffffb3" stroke="transparent" points="14,-10 14,-30 34,-30 34,-10 14,-10"/>
<text text-anchor="start" x="37.63" y="-15.4" font-family="Times-12" font-size="14.00"> &#160;Declarations</text>
<polygon fill="#8dd3c7" stroke="transparent" points="127,-10 127,-30 147,-30 147,-10 127,-10"/>
<text text-anchor="start" x="150.73" y="-15.4" font-family="Times-12" font-size="14.00"> &#160;Module</text>
<polygon fill="#80b1d3" stroke="transparent" points="213,-10 213,-30 233,-30 233,-10 213,-10"/>
<text text-anchor="start" x="236.78" y="-15.4" font-family="Times-12" font-size="14.00"> &#160;Bootstrap</text>
<polygon fill="#fdb462" stroke="transparent" points="310,-10 310,-30 330,-30 330,-10 310,-10"/>
<text text-anchor="start" x="333.67" y="-15.4" font-family="Times-12" font-size="14.00"> &#160;Providers</text>
<polygon fill="#fb8072" stroke="transparent" points="406,-10 406,-30 426,-30 426,-10 406,-10"/>
<text text-anchor="start" x="429.73" y="-15.4" font-family="Times-12" font-size="14.00"> &#160;Exports</text>
<g id="clust1" class="cluster">
<title>cluster_TooltipModule</title>
<polygon fill="none" stroke="black" stroke-dasharray="1,5" points="72,-70 72,-268 424,-268 424,-70 72,-70"/>
</g>
<g id="clust6" class="cluster">
<title>cluster_TooltipModule_exports</title>
<polygon fill="none" stroke="black" points="131,-208 131,-260 343,-260 343,-208 131,-208"/>
</g>
<g id="clust5" class="cluster">
<title>cluster_TooltipModule_imports</title>
<polygon fill="none" stroke="black" points="294,-78 294,-130 416,-130 416,-78 294,-78"/>
</g>
<g id="clust2" class="cluster">
<title>cluster_TooltipModule_declarations</title>
<polygon fill="none" stroke="black" points="80,-78 80,-130 286,-130 286,-78 80,-78"/>
</g>
<!-- Tooltip -->
<g id="node1" class="node">
<title>Tooltip</title>
<polygon fill="#ffffb3" stroke="black" points="277.72,-122 220.28,-122 220.28,-86 277.72,-86 277.72,-122"/>
<text text-anchor="middle" x="249" y="-99.8" font-family="Times,serif" font-size="14.00">Tooltip</text>
</g>
<!-- TooltipModule -->
<g id="node3" class="node">
<title>TooltipModule</title>
<polygon fill="#8dd3c7" stroke="black" points="299.27,-187 296.27,-191 275.27,-191 272.27,-187 198.73,-187 198.73,-151 299.27,-151 299.27,-187"/>
<text text-anchor="middle" x="249" y="-164.8" font-family="Times,serif" font-size="14.00">TooltipModule</text>
</g>
<!-- Tooltip&#45;&gt;TooltipModule -->
<g id="edge1" class="edge">
<title>Tooltip&#45;&gt;TooltipModule</title>
<path fill="none" stroke="black" d="M249,-122.11C249,-122.11 249,-140.99 249,-140.99"/>
<polygon fill="black" stroke="black" points="245.5,-140.99 249,-150.99 252.5,-140.99 245.5,-140.99"/>
</g>
<!-- TooltipDefinition -->
<g id="node2" class="node">
<title>TooltipDefinition</title>
<polygon fill="#ffffb3" stroke="black" points="202.27,-122 87.73,-122 87.73,-86 202.27,-86 202.27,-122"/>
<text text-anchor="middle" x="145" y="-99.8" font-family="Times,serif" font-size="14.00">TooltipDefinition</text>
</g>
<!-- TooltipDefinition&#45;&gt;TooltipModule -->
<g id="edge2" class="edge">
<title>TooltipDefinition&#45;&gt;TooltipModule</title>
<path fill="none" stroke="black" d="M202.43,-104C207.86,-104 211.39,-104 211.39,-104 211.39,-104 211.39,-140.89 211.39,-140.89"/>
<polygon fill="black" stroke="black" points="207.89,-140.89 211.39,-150.89 214.89,-140.89 207.89,-140.89"/>
</g>
<!-- Tooltip  -->
<g id="node5" class="node">
<title>Tooltip </title>
<polygon fill="#fb8072" stroke="black" points="335.23,-252 274.77,-252 274.77,-216 335.23,-216 335.23,-252"/>
<text text-anchor="middle" x="305" y="-229.8" font-family="Times,serif" font-size="14.00">Tooltip </text>
</g>
<!-- TooltipModule&#45;&gt;Tooltip  -->
<g id="edge4" class="edge">
<title>TooltipModule&#45;&gt;Tooltip </title>
<path fill="none" stroke="black" stroke-dasharray="5,2" d="M287.01,-187.11C287.01,-187.11 287.01,-205.99 287.01,-205.99"/>
<polygon fill="black" stroke="black" points="283.51,-205.99 287.01,-215.99 290.51,-205.99 283.51,-205.99"/>
</g>
<!-- TooltipDefinition  -->
<g id="node6" class="node">
<title>TooltipDefinition </title>
<polygon fill="#fb8072" stroke="black" points="257.27,-252 138.73,-252 138.73,-216 257.27,-216 257.27,-252"/>
<text text-anchor="middle" x="198" y="-229.8" font-family="Times,serif" font-size="14.00">TooltipDefinition </text>
</g>
<!-- TooltipModule&#45;&gt;TooltipDefinition  -->
<g id="edge5" class="edge">
<title>TooltipModule&#45;&gt;TooltipDefinition </title>
<path fill="none" stroke="black" stroke-dasharray="5,2" d="M227.87,-187.11C227.87,-187.11 227.87,-205.99 227.87,-205.99"/>
<polygon fill="black" stroke="black" points="224.37,-205.99 227.87,-215.99 231.37,-205.99 224.37,-205.99"/>
</g>
<!-- PopoverModule -->
<g id="node4" class="node">
<title>PopoverModule</title>
<polygon fill="#8dd3c7" stroke="black" points="408.21,-122 405.21,-126 384.21,-126 381.21,-122 301.79,-122 301.79,-86 408.21,-86 408.21,-122"/>
<text text-anchor="middle" x="355" y="-99.8" font-family="Times,serif" font-size="14.00">PopoverModule</text>
</g>
<!-- PopoverModule&#45;&gt;TooltipModule -->
<g id="edge3" class="edge">
<title>PopoverModule&#45;&gt;TooltipModule</title>
<path fill="none" stroke="black" d="M301.64,-104C293.91,-104 288.5,-104 288.5,-104 288.5,-104 288.5,-140.89 288.5,-140.89"/>
<polygon fill="black" stroke="black" points="285,-140.89 288.5,-150.89 292,-140.89 285,-140.89"/>
</g>
</g>
</svg>
