<?xml version="1.0" encoding="UTF-8" standalone="no"?>
<!DOCTYPE svg PUBLIC "-//W3C//DTD SVG 1.1//EN"
 "http://www.w3.org/Graphics/SVG/1.1/DTD/svg11.dtd">
<!-- Generated by graphviz version 2.40.1 (20161225.0304)
 -->
<!-- Title: dependencies Pages: 1 -->
<svg width="523pt" height="284pt"
 viewBox="0.00 0.00 523.00 284.00" xmlns="http://www.w3.org/2000/svg" xmlns:xlink="http://www.w3.org/1999/xlink">
<g id="graph0" class="graph" transform="scale(1 1) rotate(0) translate(4 280)">
<title>dependencies</title>
<polygon fill="#ffffff" stroke="transparent" points="-4,4 -4,-280 519,-280 519,4 -4,4"/>
<text text-anchor="start" x="236.5091" y="-42.4" font-family="sans-serif" font-weight="bold" font-size="14.00" fill="#000000">Legend</text>
<polygon fill="#ffffb3" stroke="transparent" points="23.5,-10 23.5,-30 43.5,-30 43.5,-10 23.5,-10"/>
<text text-anchor="start" x="47.129" y="-15.4" font-family="sans-serif" font-size="14.00" fill="#000000"> &#160;Declarations</text>
<polygon fill="#8dd3c7" stroke="transparent" points="136.5,-10 136.5,-30 156.5,-30 156.5,-10 136.5,-10"/>
<text text-anchor="start" x="160.2251" y="-15.4" font-family="sans-serif" font-size="14.00" fill="#000000"> &#160;Module</text>
<polygon fill="#80b1d3" stroke="transparent" points="222.5,-10 222.5,-30 242.5,-30 242.5,-10 222.5,-10"/>
<text text-anchor="start" x="246.2812" y="-15.4" font-family="sans-serif" font-size="14.00" fill="#000000"> &#160;Bootstrap</text>
<polygon fill="#fdb462" stroke="transparent" points="319.5,-10 319.5,-30 339.5,-30 339.5,-10 319.5,-10"/>
<text text-anchor="start" x="343.1732" y="-15.4" font-family="sans-serif" font-size="14.00" fill="#000000"> &#160;Providers</text>
<polygon fill="#fb8072" stroke="transparent" points="415.5,-10 415.5,-30 435.5,-30 435.5,-10 415.5,-10"/>
<text text-anchor="start" x="439.2258" y="-15.4" font-family="sans-serif" font-size="14.00" fill="#000000"> &#160;Exports</text>
<g id="clust1" class="cluster">
<title>cluster_TabsModule</title>
<polygon fill="none" stroke="#000000" stroke-dasharray="1,5" points="8,-70 8,-268 507,-268 507,-70 8,-70"/>
</g>
<g id="clust2" class="cluster">
<title>cluster_TabsModule_declarations</title>
<polygon fill="none" stroke="#000000" points="21,-78 21,-130 493,-130 493,-78 21,-78"/>
</g>
<g id="clust9" class="cluster">
<title>cluster_TabsModule_exports</title>
<polygon fill="none" stroke="#000000" points="16,-208 16,-260 499,-260 499,-208 16,-208"/>
</g>
<!-- Tab -->
<g id="node1" class="node">
<title>Tab</title>
<polygon fill="#ffffb3" stroke="#000000" points="485,-122 431,-122 431,-86 485,-86 485,-122"/>
<text text-anchor="middle" x="458" y="-99.8" font-family="Times,serif" font-size="14.00" fill="#000000">Tab</text>
</g>
<!-- TabsModule -->
<g id="node6" class="node">
<title>TabsModule</title>
<polygon fill="#8dd3c7" stroke="#000000" points="303.2619,-187 300.2619,-191 279.2619,-191 276.2619,-187 216.7381,-187 216.7381,-151 303.2619,-151 303.2619,-187"/>
<text text-anchor="middle" x="260" y="-164.8" font-family="Times,serif" font-size="14.00" fill="#000000">TabsModule</text>
</g>
<!-- Tab&#45;&gt;TabsModule -->
<g id="edge1" class="edge">
<title>Tab&#45;&gt;TabsModule</title>
<path fill="none" stroke="#000000" d="M469,-122.2667C469,-140.5552 469,-166 469,-166 469,-166 313.3049,-166 313.3049,-166"/>
<polygon fill="#000000" stroke="#000000" points="313.305,-162.5001 303.3049,-166 313.3049,-169.5001 313.305,-162.5001"/>
</g>
<!-- TabHeader -->
<g id="node2" class="node">
<title>TabHeader</title>
<polygon fill="#ffffb3" stroke="#000000" points="413.1784,-122 334.8216,-122 334.8216,-86 413.1784,-86 413.1784,-122"/>
<text text-anchor="middle" x="374" y="-99.8" font-family="Times,serif" font-size="14.00" fill="#000000">TabHeader</text>
</g>
<!-- TabHeader&#45;&gt;TabsModule -->
<g id="edge2" class="edge">
<title>TabHeader&#45;&gt;TabsModule</title>
<path fill="none" stroke="#000000" d="M387.7797,-122.0091C387.7797,-138.0494 387.7797,-159 387.7797,-159 387.7797,-159 313.6171,-159 313.6171,-159"/>
<polygon fill="#000000" stroke="#000000" points="313.6172,-155.5001 303.6171,-159 313.6171,-162.5001 313.6172,-155.5001"/>
</g>
<!-- TabHeaderGroup -->
<g id="node3" class="node">
<title>TabHeaderGroup</title>
<polygon fill="#ffffb3" stroke="#000000" points="316.9454,-122 203.0546,-122 203.0546,-86 316.9454,-86 316.9454,-122"/>
<text text-anchor="middle" x="260" y="-99.8" font-family="Times,serif" font-size="14.00" fill="#000000">TabHeaderGroup</text>
</g>
<!-- TabHeaderGroup&#45;&gt;TabsModule -->
<g id="edge3" class="edge">
<title>TabHeaderGroup&#45;&gt;TabsModule</title>
<path fill="none" stroke="#000000" d="M260,-122.1061C260,-122.1061 260,-140.991 260,-140.991"/>
<polygon fill="#000000" stroke="#000000" points="256.5001,-140.9909 260,-150.991 263.5001,-140.991 256.5001,-140.9909"/>
</g>
<!-- TabHeaders -->
<g id="node4" class="node">
<title>TabHeaders</title>
<polygon fill="#ffffb3" stroke="#000000" points="184.6236,-122 101.3764,-122 101.3764,-86 184.6236,-86 184.6236,-122"/>
<text text-anchor="middle" x="143" y="-99.8" font-family="Times,serif" font-size="14.00" fill="#000000">TabHeaders</text>
</g>
<!-- TabHeaders&#45;&gt;TabsModule -->
<g id="edge4" class="edge">
<title>TabHeaders&#45;&gt;TabsModule</title>
<path fill="none" stroke="#000000" d="M156.1038,-122.0091C156.1038,-138.0494 156.1038,-159 156.1038,-159 156.1038,-159 206.5406,-159 206.5406,-159"/>
<polygon fill="#000000" stroke="#000000" points="206.5407,-162.5001 216.5406,-159 206.5406,-155.5001 206.5407,-162.5001"/>
</g>
<!-- Tabs -->
<g id="node5" class="node">
<title>Tabs</title>
<polygon fill="#ffffb3" stroke="#000000" points="83,-122 29,-122 29,-86 83,-86 83,-122"/>
<text text-anchor="middle" x="56" y="-99.8" font-family="Times,serif" font-size="14.00" fill="#000000">Tabs</text>
</g>
<!-- Tabs&#45;&gt;TabsModule -->
<g id="edge5" class="edge">
<title>Tabs&#45;&gt;TabsModule</title>
<path fill="none" stroke="#000000" d="M61.6667,-122.2667C61.6667,-140.5552 61.6667,-166 61.6667,-166 61.6667,-166 206.4749,-166 206.4749,-166"/>
<polygon fill="#000000" stroke="#000000" points="206.4749,-169.5001 216.4749,-166 206.4749,-162.5001 206.4749,-169.5001"/>
</g>
<!-- Tab  -->
<g id="node7" class="node">
<title>Tab </title>
<polygon fill="#fb8072" stroke="#000000" points="491,-252 437,-252 437,-216 491,-216 491,-252"/>
<text text-anchor="middle" x="464" y="-229.8" font-family="Times,serif" font-size="14.00" fill="#000000">Tab </text>
</g>
<!-- TabsModule&#45;&gt;Tab  -->
<g id="edge6" class="edge">
<title>TabsModule&#45;&gt;Tab </title>
<path fill="none" stroke="#000000" stroke-dasharray="5,2" d="M303.313,-173C360.2158,-173 453,-173 453,-173 453,-173 453,-205.698 453,-205.698"/>
<polygon fill="#000000" stroke="#000000" points="449.5001,-205.698 453,-215.698 456.5001,-205.698 449.5001,-205.698"/>
</g>
<!-- TabHeader  -->
<g id="node8" class="node">
<title>TabHeader </title>
<polygon fill="#fb8072" stroke="#000000" points="418.6788,-252 337.3212,-252 337.3212,-216 418.6788,-216 418.6788,-252"/>
<text text-anchor="middle" x="378" y="-229.8" font-family="Times,serif" font-size="14.00" fill="#000000">TabHeader </text>
</g>
<!-- TabsModule&#45;&gt;TabHeader  -->
<g id="edge7" class="edge">
<title>TabsModule&#45;&gt;TabHeader </title>
<path fill="none" stroke="#000000" stroke-dasharray="5,2" d="M303.4566,-180C331.3849,-180 362.4703,-180 362.4703,-180 362.4703,-180 362.4703,-205.7181 362.4703,-205.7181"/>
<polygon fill="#000000" stroke="#000000" points="358.9704,-205.718 362.4703,-215.7181 365.9704,-205.7181 358.9704,-205.718"/>
</g>
<!-- TabHeaderGroup  -->
<g id="node9" class="node">
<title>TabHeaderGroup </title>
<polygon fill="#fb8072" stroke="#000000" points="318.9462,-252 201.0538,-252 201.0538,-216 318.9462,-216 318.9462,-252"/>
<text text-anchor="middle" x="260" y="-229.8" font-family="Times,serif" font-size="14.00" fill="#000000">TabHeaderGroup </text>
</g>
<!-- TabsModule&#45;&gt;TabHeaderGroup  -->
<g id="edge8" class="edge">
<title>TabsModule&#45;&gt;TabHeaderGroup </title>
<path fill="none" stroke="#000000" stroke-dasharray="5,2" d="M260,-187.1061C260,-187.1061 260,-205.991 260,-205.991"/>
<polygon fill="#000000" stroke="#000000" points="256.5001,-205.9909 260,-215.991 263.5001,-205.991 256.5001,-205.9909"/>
</g>
<!-- TabHeaders  -->
<g id="node10" class="node">
<title>TabHeaders </title>
<polygon fill="#fb8072" stroke="#000000" points="183.6229,-252 96.3771,-252 96.3771,-216 183.6229,-216 183.6229,-252"/>
<text text-anchor="middle" x="140" y="-229.8" font-family="Times,serif" font-size="14.00" fill="#000000">TabHeaders </text>
</g>
<!-- TabsModule&#45;&gt;TabHeaders  -->
<g id="edge9" class="edge">
<title>TabsModule&#45;&gt;TabHeaders </title>
<path fill="none" stroke="#000000" stroke-dasharray="5,2" d="M216.6258,-180C178.3654,-180 128.6462,-180 128.6462,-180 128.6462,-180 128.6462,-205.7181 128.6462,-205.7181"/>
<polygon fill="#000000" stroke="#000000" points="125.1463,-205.718 128.6462,-215.7181 132.1463,-205.7181 125.1463,-205.718"/>
</g>
<!-- Tabs  -->
<g id="node11" class="node">
<title>Tabs </title>
<polygon fill="#fb8072" stroke="#000000" points="78,-252 24,-252 24,-216 78,-216 78,-252"/>
<text text-anchor="middle" x="51" y="-229.8" font-family="Times,serif" font-size="14.00" fill="#000000">Tabs </text>
</g>
<!-- TabsModule&#45;&gt;Tabs  -->
<g id="edge10" class="edge">
<title>TabsModule&#45;&gt;Tabs </title>
<path fill="none" stroke="#000000" stroke-dasharray="5,2" d="M216.559,-173C153.8328,-173 45.3333,-173 45.3333,-173 45.3333,-173 45.3333,-205.698 45.3333,-205.698"/>
<polygon fill="#000000" stroke="#000000" points="41.8334,-205.698 45.3333,-215.698 48.8334,-205.698 41.8334,-205.698"/>
</g>
</g>
</svg>
