<?xml version="1.0" encoding="UTF-8" standalone="no"?>
<!DOCTYPE svg PUBLIC "-//W3C//DTD SVG 1.1//EN"
 "http://www.w3.org/Graphics/SVG/1.1/DTD/svg11.dtd">
<!-- Generated by graphviz version 2.40.1 (20161225.0304)
 -->
<!-- Title: dependencies Pages: 1 -->
<svg width="933pt" height="284pt"
 viewBox="0.00 0.00 933.00 284.00" xmlns="http://www.w3.org/2000/svg" xmlns:xlink="http://www.w3.org/1999/xlink">
<g id="graph0" class="graph" transform="scale(1 1) rotate(0) translate(4 280)">
<title>dependencies</title>
<polygon fill="#ffffff" stroke="transparent" points="-4,4 -4,-280 929,-280 929,4 -4,4"/>
<text text-anchor="start" x="441.5091" y="-42.4" font-family="sans-serif" font-weight="bold" font-size="14.00" fill="#000000">Legend</text>
<polygon fill="#ffffb3" stroke="transparent" points="228.5,-10 228.5,-30 248.5,-30 248.5,-10 228.5,-10"/>
<text text-anchor="start" x="252.129" y="-15.4" font-family="sans-serif" font-size="14.00" fill="#000000"> &#160;Declarations</text>
<polygon fill="#8dd3c7" stroke="transparent" points="341.5,-10 341.5,-30 361.5,-30 361.5,-10 341.5,-10"/>
<text text-anchor="start" x="365.2251" y="-15.4" font-family="sans-serif" font-size="14.00" fill="#000000"> &#160;Module</text>
<polygon fill="#80b1d3" stroke="transparent" points="427.5,-10 427.5,-30 447.5,-30 447.5,-10 427.5,-10"/>
<text text-anchor="start" x="451.2812" y="-15.4" font-family="sans-serif" font-size="14.00" fill="#000000"> &#160;Bootstrap</text>
<polygon fill="#fdb462" stroke="transparent" points="524.5,-10 524.5,-30 544.5,-30 544.5,-10 524.5,-10"/>
<text text-anchor="start" x="548.1732" y="-15.4" font-family="sans-serif" font-size="14.00" fill="#000000"> &#160;Providers</text>
<polygon fill="#fb8072" stroke="transparent" points="620.5,-10 620.5,-30 640.5,-30 640.5,-10 620.5,-10"/>
<text text-anchor="start" x="644.2258" y="-15.4" font-family="sans-serif" font-size="14.00" fill="#000000"> &#160;Exports</text>
<g id="clust1" class="cluster">
<title>cluster_DropdownModule</title>
<polygon fill="none" stroke="#000000" stroke-dasharray="1,5" points="8,-70 8,-268 917,-268 917,-70 8,-70"/>
</g>
<g id="clust2" class="cluster">
<title>cluster_DropdownModule_declarations</title>
<polygon fill="none" stroke="#000000" points="589,-78 589,-130 909,-130 909,-78 589,-78"/>
</g>
<g id="clust6" class="cluster">
<title>cluster_DropdownModule_imports</title>
<polygon fill="none" stroke="#000000" points="202,-78 202,-130 581,-130 581,-78 202,-78"/>
</g>
<g id="clust7" class="cluster">
<title>cluster_DropdownModule_exports</title>
<polygon fill="none" stroke="#000000" points="355,-208 355,-260 686,-260 686,-208 355,-208"/>
</g>
<g id="clust9" class="cluster">
<title>cluster_DropdownModule_providers</title>
<polygon fill="none" stroke="#000000" points="16,-78 16,-130 194,-130 194,-78 16,-78"/>
</g>
<!-- Dropdown -->
<g id="node1" class="node">
<title>Dropdown</title>
<polygon fill="#ffffb3" stroke="#000000" points="900.8739,-122 825.1261,-122 825.1261,-86 900.8739,-86 900.8739,-122"/>
<text text-anchor="middle" x="863" y="-99.8" font-family="Times,serif" font-size="14.00" fill="#000000">Dropdown</text>
</g>
<!-- DropdownModule -->
<g id="node4" class="node">
<title>DropdownModule</title>
<polygon fill="#8dd3c7" stroke="#000000" points="589.9244,-187 586.9244,-191 565.9244,-191 562.9244,-187 470.0756,-187 470.0756,-151 589.9244,-151 589.9244,-187"/>
<text text-anchor="middle" x="530" y="-164.8" font-family="Times,serif" font-size="14.00" fill="#000000">DropdownModule</text>
</g>
<!-- Dropdown&#45;&gt;DropdownModule -->
<g id="edge1" class="edge">
<title>Dropdown&#45;&gt;DropdownModule</title>
<path fill="none" stroke="#000000" d="M863,-122.2843C863,-143.3211 863,-175 863,-175 863,-175 599.9183,-175 599.9183,-175"/>
<polygon fill="#000000" stroke="#000000" points="599.9184,-171.5001 589.9183,-175 599.9183,-178.5001 599.9184,-171.5001"/>
</g>
<!-- DropdownList -->
<g id="node2" class="node">
<title>DropdownList</title>
<polygon fill="#ffffb3" stroke="#000000" points="806.6528,-122 709.3472,-122 709.3472,-86 806.6528,-86 806.6528,-122"/>
<text text-anchor="middle" x="758" y="-99.8" font-family="Times,serif" font-size="14.00" fill="#000000">DropdownList</text>
</g>
<!-- DropdownList&#45;&gt;DropdownModule -->
<g id="edge2" class="edge">
<title>DropdownList&#45;&gt;DropdownModule</title>
<path fill="none" stroke="#000000" d="M758,-122.0225C758,-139.3734 758,-163 758,-163 758,-163 599.9043,-163 599.9043,-163"/>
<polygon fill="#000000" stroke="#000000" points="599.9044,-159.5001 589.9043,-163 599.9043,-166.5001 599.9044,-159.5001"/>
</g>
<!-- ScrollableList -->
<g id="node3" class="node">
<title>ScrollableList</title>
<polygon fill="#ffffb3" stroke="#000000" points="691.0383,-122 596.9617,-122 596.9617,-86 691.0383,-86 691.0383,-122"/>
<text text-anchor="middle" x="644" y="-99.8" font-family="Times,serif" font-size="14.00" fill="#000000">ScrollableList</text>
</g>
<!-- ScrollableList&#45;&gt;DropdownModule -->
<g id="edge3" class="edge">
<title>ScrollableList&#45;&gt;DropdownModule</title>
<path fill="none" stroke="#000000" d="M596.6924,-104C587.7643,-104 581.1585,-104 581.1585,-104 581.1585,-104 581.1585,-140.8939 581.1585,-140.8939"/>
<polygon fill="#000000" stroke="#000000" points="577.6586,-140.8938 581.1585,-150.8939 584.6586,-140.8939 577.6586,-140.8938"/>
</g>
<!-- Dropdown  -->
<g id="node8" class="node">
<title>Dropdown </title>
<polygon fill="#fb8072" stroke="#000000" points="677.8747,-252 598.1253,-252 598.1253,-216 677.8747,-216 677.8747,-252"/>
<text text-anchor="middle" x="638" y="-229.8" font-family="Times,serif" font-size="14.00" fill="#000000">Dropdown </text>
</g>
<!-- DropdownModule&#45;&gt;Dropdown  -->
<g id="edge7" class="edge">
<title>DropdownModule&#45;&gt;Dropdown </title>
<path fill="none" stroke="#000000" stroke-dasharray="5,2" d="M585.144,-187.1061C585.144,-206.3391 585.144,-234 585.144,-234 585.144,-234 588.2095,-234 588.2095,-234"/>
<polygon fill="#000000" stroke="#000000" points="588.2095,-237.5001 598.2095,-234 588.2095,-230.5001 588.2095,-237.5001"/>
</g>
<!-- DropdownList  -->
<g id="node9" class="node">
<title>DropdownList </title>
<polygon fill="#fb8072" stroke="#000000" points="580.6523,-252 479.3477,-252 479.3477,-216 580.6523,-216 580.6523,-252"/>
<text text-anchor="middle" x="530" y="-229.8" font-family="Times,serif" font-size="14.00" fill="#000000">DropdownList </text>
</g>
<!-- DropdownModule&#45;&gt;DropdownList  -->
<g id="edge8" class="edge">
<title>DropdownModule&#45;&gt;DropdownList </title>
<path fill="none" stroke="#000000" stroke-dasharray="5,2" d="M530,-187.1061C530,-187.1061 530,-205.991 530,-205.991"/>
<polygon fill="#000000" stroke="#000000" points="526.5001,-205.9909 530,-215.991 533.5001,-205.991 526.5001,-205.9909"/>
</g>
<!-- ScrollableList  -->
<g id="node10" class="node">
<title>ScrollableList </title>
<polygon fill="#fb8072" stroke="#000000" points="461.0372,-252 362.9628,-252 362.9628,-216 461.0372,-216 461.0372,-252"/>
<text text-anchor="middle" x="412" y="-229.8" font-family="Times,serif" font-size="14.00" fill="#000000">ScrollableList </text>
</g>
<!-- DropdownModule&#45;&gt;ScrollableList  -->
<g id="edge9" class="edge">
<title>DropdownModule&#45;&gt;ScrollableList </title>
<path fill="none" stroke="#000000" stroke-dasharray="5,2" d="M474.8561,-187.1061C474.8561,-206.3391 474.8561,-234 474.8561,-234 474.8561,-234 471.2172,-234 471.2172,-234"/>
<polygon fill="#000000" stroke="#000000" points="471.2173,-230.5001 461.2172,-234 471.2172,-237.5001 471.2173,-230.5001"/>
</g>
<!-- I18nModule -->
<g id="node5" class="node">
<title>I18nModule</title>
<polygon fill="#8dd3c7" stroke="#000000" points="572.7107,-122 569.7107,-126 548.7107,-126 545.7107,-122 487.2893,-122 487.2893,-86 572.7107,-86 572.7107,-122"/>
<text text-anchor="middle" x="530" y="-99.8" font-family="Times,serif" font-size="14.00" fill="#000000">I18nModule</text>
</g>
<!-- I18nModule&#45;&gt;DropdownModule -->
<g id="edge4" class="edge">
<title>I18nModule&#45;&gt;DropdownModule</title>
<path fill="none" stroke="#000000" d="M530,-122.1061C530,-122.1061 530,-140.991 530,-140.991"/>
<polygon fill="#000000" stroke="#000000" points="526.5001,-140.9909 530,-150.991 533.5001,-140.991 526.5001,-140.9909"/>
</g>
<!-- PlaceholderModule -->
<g id="node6" class="node">
<title>PlaceholderModule</title>
<polygon fill="#8dd3c7" stroke="#000000" points="469.6331,-122 466.6331,-126 445.6331,-126 442.6331,-122 344.3669,-122 344.3669,-86 469.6331,-86 469.6331,-122"/>
<text text-anchor="middle" x="407" y="-99.8" font-family="Times,serif" font-size="14.00" fill="#000000">PlaceholderModule</text>
</g>
<!-- PlaceholderModule&#45;&gt;DropdownModule -->
<g id="edge5" class="edge">
<title>PlaceholderModule&#45;&gt;DropdownModule</title>
<path fill="none" stroke="#000000" d="M465.4175,-122.027C465.4175,-138.3976 465.4175,-160 465.4175,-160 465.4175,-160 465.8819,-160 465.8819,-160"/>
<polygon fill="#000000" stroke="#000000" points="460.0622,-163.5002 470.0621,-160 460.062,-156.5002 460.0622,-163.5002"/>
</g>
<!-- StaticIconModule -->
<g id="node7" class="node">
<title>StaticIconModule</title>
<polygon fill="#8dd3c7" stroke="#000000" points="326.309,-122 323.309,-126 302.309,-126 299.309,-122 209.691,-122 209.691,-86 326.309,-86 326.309,-122"/>
<text text-anchor="middle" x="268" y="-99.8" font-family="Times,serif" font-size="14.00" fill="#000000">StaticIconModule</text>
</g>
<!-- StaticIconModule&#45;&gt;DropdownModule -->
<g id="edge6" class="edge">
<title>StaticIconModule&#45;&gt;DropdownModule</title>
<path fill="none" stroke="#000000" d="M268,-122.1061C268,-141.3391 268,-169 268,-169 268,-169 460.2203,-169 460.2203,-169"/>
<polygon fill="#000000" stroke="#000000" points="460.2203,-172.5001 470.2203,-169 460.2203,-165.5001 460.2203,-172.5001"/>
</g>
<!-- DropdownService -->
<g id="node11" class="node">
<title>DropdownService</title>
<ellipse fill="#fdb462" stroke="#000000" cx="105" cy="-104" rx="81.084" ry="18"/>
<text text-anchor="middle" x="105" y="-99.8" font-family="Times,serif" font-size="14.00" fill="#000000">DropdownService</text>
</g>
<!-- DropdownService&#45;&gt;DropdownModule -->
<g id="edge10" class="edge">
<title>DropdownService&#45;&gt;DropdownModule</title>
<path fill="none" stroke="#000000" d="M105,-122.2921C105,-144.2057 105,-178 105,-178 105,-178 460.0093,-178 460.0093,-178"/>
<polygon fill="#000000" stroke="#000000" points="460.0093,-181.5001 470.0093,-178 460.0092,-174.5001 460.0093,-181.5001"/>
</g>
</g>
</svg>
