<?xml version="1.0" encoding="UTF-8" standalone="no"?>
<!DOCTYPE svg PUBLIC "-//W3C//DTD SVG 1.1//EN"
 "http://www.w3.org/Graphics/SVG/1.1/DTD/svg11.dtd">
<!-- Generated by graphviz version 2.47.0 (20210316.0004)
 -->
<!-- Title: dependencies Pages: 1 -->
<svg width="1470pt" height="443pt"
 viewBox="0.00 0.00 1470.00 443.11" xmlns="http://www.w3.org/2000/svg" xmlns:xlink="http://www.w3.org/1999/xlink">
<g id="graph0" class="graph" transform="scale(1 1) rotate(0) translate(4 439.11)">
<title>dependencies</title>
<polygon fill="white" stroke="transparent" points="-4,4 -4,-439.11 1466,-439.11 1466,4 -4,4"/>
<text text-anchor="start" x="710.01" y="-42.4" font-family="Times-12" font-weight="bold" font-size="14.00">Legend</text>
<polygon fill="#ffffb3" stroke="transparent" points="497,-10 497,-30 517,-30 517,-10 497,-10"/>
<text text-anchor="start" x="520.63" y="-15.4" font-family="Times-12" font-size="14.00"> &#160;Declarations</text>
<polygon fill="#8dd3c7" stroke="transparent" points="610,-10 610,-30 630,-30 630,-10 610,-10"/>
<text text-anchor="start" x="633.73" y="-15.4" font-family="Times-12" font-size="14.00"> &#160;Module</text>
<polygon fill="#80b1d3" stroke="transparent" points="696,-10 696,-30 716,-30 716,-10 696,-10"/>
<text text-anchor="start" x="719.78" y="-15.4" font-family="Times-12" font-size="14.00"> &#160;Bootstrap</text>
<polygon fill="#fdb462" stroke="transparent" points="793,-10 793,-30 813,-30 813,-10 793,-10"/>
<text text-anchor="start" x="816.67" y="-15.4" font-family="Times-12" font-size="14.00"> &#160;Providers</text>
<polygon fill="#fb8072" stroke="transparent" points="889,-10 889,-30 909,-30 909,-10 889,-10"/>
<text text-anchor="start" x="912.73" y="-15.4" font-family="Times-12" font-size="14.00"> &#160;Exports</text>
<g id="clust1" class="cluster">
<title>cluster_GridModule</title>
<polygon fill="none" stroke="black" stroke-dasharray="1,5" points="8,-70 8,-427.11 1454,-427.11 1454,-70 8,-70"/>
</g>
<g id="clust4" class="cluster">
<title>cluster_GridModule_GridDirective_providers</title>
<polygon fill="none" stroke="black" points="406,-78 406,-289.11 1446,-289.11 1446,-78 406,-78"/>
</g>
<g id="clust9" class="cluster">
<title>cluster_GridModule_providers</title>
<polygon fill="none" stroke="black" points="266,-237.11 266,-289.11 398,-289.11 398,-237.11 266,-237.11"/>
</g>
<g id="clust7" class="cluster">
<title>cluster_GridModule_exports</title>
<polygon fill="none" stroke="black" points="89,-367.11 89,-419.11 453,-419.11 453,-367.11 89,-367.11"/>
</g>
<g id="clust2" class="cluster">
<title>cluster_GridModule_declarations</title>
<polygon fill="none" stroke="black" points="16,-237.11 16,-289.11 258,-289.11 258,-237.11 16,-237.11"/>
</g>
<!-- ColumnDirective -->
<g id="node1" class="node">
<title>ColumnDirective</title>
<polygon fill="#ffffb3" stroke="black" points="249.7,-281.11 136.3,-281.11 136.3,-245.11 249.7,-245.11 249.7,-281.11"/>
<text text-anchor="middle" x="193" y="-258.91" font-family="Times,serif" font-size="14.00">ColumnDirective</text>
</g>
<!-- GridModule -->
<g id="node4" class="node">
<title>GridModule</title>
<polygon fill="#8dd3c7" stroke="black" points="304.71,-346.11 301.71,-350.11 280.71,-350.11 277.71,-346.11 219.29,-346.11 219.29,-310.11 304.71,-310.11 304.71,-346.11"/>
<text text-anchor="middle" x="262" y="-323.91" font-family="Times,serif" font-size="14.00">GridModule</text>
</g>
<!-- ColumnDirective&#45;&gt;GridModule -->
<g id="edge1" class="edge">
<title>ColumnDirective&#45;&gt;GridModule</title>
<path fill="none" stroke="black" d="M234.5,-281.21C234.5,-281.21 234.5,-300.1 234.5,-300.1"/>
<polygon fill="black" stroke="black" points="231,-300.1 234.5,-310.1 238,-300.1 231,-300.1"/>
</g>
<!-- GridDirective -->
<g id="node2" class="node">
<title>GridDirective</title>
<polygon fill="#ffffb3" stroke="black" points="739.74,-281.11 646.26,-281.11 646.26,-245.11 739.74,-245.11 739.74,-281.11"/>
<text text-anchor="middle" x="693" y="-258.91" font-family="Times,serif" font-size="14.00">GridDirective</text>
</g>
<!-- GridDirective&#45;&gt;GridModule -->
<g id="edge2" class="edge">
<title>GridDirective&#45;&gt;GridModule</title>
<path fill="none" stroke="black" d="M693,-281.13C693,-298.48 693,-322.11 693,-322.11 693,-322.11 314.9,-322.11 314.9,-322.11"/>
<polygon fill="black" stroke="black" points="314.9,-318.61 304.9,-322.11 314.9,-325.61 314.9,-318.61"/>
</g>
<!-- RowDirective -->
<g id="node3" class="node">
<title>RowDirective</title>
<polygon fill="#ffffb3" stroke="black" points="118.03,-281.11 23.97,-281.11 23.97,-245.11 118.03,-245.11 118.03,-281.11"/>
<text text-anchor="middle" x="71" y="-258.91" font-family="Times,serif" font-size="14.00">RowDirective</text>
</g>
<!-- RowDirective&#45;&gt;GridModule -->
<g id="edge4" class="edge">
<title>RowDirective&#45;&gt;GridModule</title>
<path fill="none" stroke="black" d="M107.62,-281.13C107.62,-298.48 107.62,-322.11 107.62,-322.11 107.62,-322.11 209,-322.11 209,-322.11"/>
<polygon fill="black" stroke="black" points="209,-325.61 219,-322.11 209,-318.61 209,-325.61"/>
</g>
<!-- ColumnDirective  -->
<g id="node6" class="node">
<title>ColumnDirective </title>
<polygon fill="#fb8072" stroke="black" points="445.2,-411.11 328.8,-411.11 328.8,-375.11 445.2,-375.11 445.2,-411.11"/>
<text text-anchor="middle" x="387" y="-388.91" font-family="Times,serif" font-size="14.00">ColumnDirective </text>
</g>
<!-- GridModule&#45;&gt;ColumnDirective  -->
<g id="edge5" class="edge">
<title>GridModule&#45;&gt;ColumnDirective </title>
<path fill="none" stroke="black" stroke-dasharray="5,2" d="M304.62,-334.11C330.73,-334.11 359.17,-334.11 359.17,-334.11 359.17,-334.11 359.17,-365.09 359.17,-365.09"/>
<polygon fill="black" stroke="black" points="355.67,-365.09 359.17,-375.09 362.67,-365.09 355.67,-365.09"/>
</g>
<!-- GridDirective  -->
<g id="node7" class="node">
<title>GridDirective </title>
<polygon fill="#fb8072" stroke="black" points="310.74,-411.11 213.26,-411.11 213.26,-375.11 310.74,-375.11 310.74,-411.11"/>
<text text-anchor="middle" x="262" y="-388.91" font-family="Times,serif" font-size="14.00">GridDirective </text>
</g>
<!-- GridModule&#45;&gt;GridDirective  -->
<g id="edge6" class="edge">
<title>GridModule&#45;&gt;GridDirective </title>
<path fill="none" stroke="black" stroke-dasharray="5,2" d="M262,-346.21C262,-346.21 262,-365.1 262,-365.1"/>
<polygon fill="black" stroke="black" points="258.5,-365.1 262,-375.1 265.5,-365.1 258.5,-365.1"/>
</g>
<!-- RowDirective  -->
<g id="node8" class="node">
<title>RowDirective </title>
<polygon fill="#fb8072" stroke="black" points="195.03,-411.11 96.97,-411.11 96.97,-375.11 195.03,-375.11 195.03,-411.11"/>
<text text-anchor="middle" x="146" y="-388.91" font-family="Times,serif" font-size="14.00">RowDirective </text>
</g>
<!-- GridModule&#45;&gt;RowDirective  -->
<g id="edge7" class="edge">
<title>GridModule&#45;&gt;RowDirective </title>
<path fill="none" stroke="black" stroke-dasharray="5,2" d="M219.2,-334.11C193.49,-334.11 165.71,-334.11 165.71,-334.11 165.71,-334.11 165.71,-365.09 165.71,-365.09"/>
<polygon fill="black" stroke="black" points="162.21,-365.09 165.71,-375.09 169.21,-365.09 162.21,-365.09"/>
</g>
<!-- {
 &#160;&#160;&#160;provide: GridService, deps: [[new Optional(), new SkipSelf(), GridService]], useFactory: (parentService: GridService) =&gt; {
 &#160;&#160;&#160;&#160;&#160;&#160;&#160;return parentService || new GridService();
 &#160;&#160;&#160;}
} -->
<g id="node5" class="node">
<title>{
 &#160;&#160;&#160;provide: GridService, deps: [[new Optional(), new SkipSelf(), GridService]], useFactory: (parentService: GridService) =&gt; {
 &#160;&#160;&#160;&#160;&#160;&#160;&#160;return parentService || new GridService();
 &#160;&#160;&#160;}
}</title>
<ellipse fill="#fdb462" stroke="black" cx="926" cy="-151.05" rx="512.24" ry="65.11"/>
<text text-anchor="middle" x="926" y="-180.45" font-family="Times,serif" font-size="14.00">{</text>
<text text-anchor="middle" x="926" y="-163.65" font-family="Times,serif" font-size="14.00"> &#160;&#160;&#160;provide: GridService, deps: [[new Optional(), new SkipSelf(), GridService]], useFactory: (parentService: GridService) =&gt; {</text>
<text text-anchor="middle" x="926" y="-146.85" font-family="Times,serif" font-size="14.00"> &#160;&#160;&#160;&#160;&#160;&#160;&#160;return parentService || new GridService();</text>
<text text-anchor="middle" x="926" y="-130.05" font-family="Times,serif" font-size="14.00"> &#160;&#160;&#160;}</text>
<text text-anchor="middle" x="926" y="-113.25" font-family="Times,serif" font-size="14.00">}</text>
</g>
<!-- {
 &#160;&#160;&#160;provide: GridService, deps: [[new Optional(), new SkipSelf(), GridService]], useFactory: (parentService: GridService) =&gt; {
 &#160;&#160;&#160;&#160;&#160;&#160;&#160;return parentService || new GridService();
 &#160;&#160;&#160;}
}&#45;&gt;GridDirective -->
<g id="edge3" class="edge">
<title>{
 &#160;&#160;&#160;provide: GridService, deps: [[new Optional(), new SkipSelf(), GridService]], useFactory: (parentService: GridService) =&gt; {
 &#160;&#160;&#160;&#160;&#160;&#160;&#160;return parentService || new GridService();
 &#160;&#160;&#160;}
}&#45;&gt;GridDirective</title>
<path fill="none" stroke="black" d="M693,-209.05C693,-209.05 693,-234.89 693,-234.89"/>
<polygon fill="black" stroke="black" points="689.5,-234.89 693,-244.89 696.5,-234.89 689.5,-234.89"/>
</g>
<!-- GridService -->
<g id="node9" class="node">
<title>GridService</title>
<ellipse fill="#fdb462" stroke="black" cx="332" cy="-263.11" rx="57.88" ry="18"/>
<text text-anchor="middle" x="332" y="-258.91" font-family="Times,serif" font-size="14.00">GridService</text>
</g>
<!-- GridService&#45;&gt;GridModule -->
<g id="edge8" class="edge">
<title>GridService&#45;&gt;GridModule</title>
<path fill="none" stroke="black" d="M289.46,-275.33C289.46,-275.33 289.46,-299.79 289.46,-299.79"/>
<polygon fill="black" stroke="black" points="285.96,-299.79 289.46,-309.79 292.96,-299.79 285.96,-299.79"/>
</g>
</g>
</svg>
