<?xml version="1.0" encoding="UTF-8" standalone="no"?>
<!DOCTYPE svg PUBLIC "-//W3C//DTD SVG 1.1//EN"
 "http://www.w3.org/Graphics/SVG/1.1/DTD/svg11.dtd">
<!-- Generated by graphviz version 2.40.1 (20161225.0304)
 -->
<!-- Title: dependencies Pages: 1 -->
<svg width="604pt" height="396pt"
 viewBox="0.00 0.00 604.00 395.59" xmlns="http://www.w3.org/2000/svg" xmlns:xlink="http://www.w3.org/1999/xlink">
<g id="graph0" class="graph" transform="scale(1 1) rotate(0) translate(4 391.5901)">
<title>dependencies</title>
<polygon fill="#ffffff" stroke="transparent" points="-4,4 -4,-391.5901 600,-391.5901 600,4 -4,4"/>
<text text-anchor="start" x="277.0091" y="-42.4" font-family="sans-serif" font-weight="bold" font-size="14.00" fill="#000000">Legend</text>
<polygon fill="#ffffb3" stroke="transparent" points="64,-10 64,-30 84,-30 84,-10 64,-10"/>
<text text-anchor="start" x="87.629" y="-15.4" font-family="sans-serif" font-size="14.00" fill="#000000"> &#160;Declarations</text>
<polygon fill="#8dd3c7" stroke="transparent" points="177,-10 177,-30 197,-30 197,-10 177,-10"/>
<text text-anchor="start" x="200.7251" y="-15.4" font-family="sans-serif" font-size="14.00" fill="#000000"> &#160;Module</text>
<polygon fill="#80b1d3" stroke="transparent" points="263,-10 263,-30 283,-30 283,-10 263,-10"/>
<text text-anchor="start" x="286.7812" y="-15.4" font-family="sans-serif" font-size="14.00" fill="#000000"> &#160;Bootstrap</text>
<polygon fill="#fdb462" stroke="transparent" points="360,-10 360,-30 380,-30 380,-10 360,-10"/>
<text text-anchor="start" x="383.6732" y="-15.4" font-family="sans-serif" font-size="14.00" fill="#000000"> &#160;Providers</text>
<polygon fill="#fb8072" stroke="transparent" points="456,-10 456,-30 476,-30 476,-10 456,-10"/>
<text text-anchor="start" x="479.7258" y="-15.4" font-family="sans-serif" font-size="14.00" fill="#000000"> &#160;Exports</text>
<g id="clust1" class="cluster">
<title>cluster_DropdownModule</title>
<polygon fill="none" stroke="#000000" stroke-dasharray="1,5" points="8,-70 8,-379.5901 588,-379.5901 588,-70 8,-70"/>
</g>
<g id="clust2" class="cluster">
<title>cluster_DropdownModule_declarations</title>
<polygon fill="none" stroke="#000000" points="260,-189.5901 260,-241.5901 580,-241.5901 580,-189.5901 260,-189.5901"/>
</g>
<g id="clust3" class="cluster">
<title>cluster_DropdownModule_Dropdown_providers</title>
<polygon fill="none" stroke="#000000" points="440,-78 440,-176.5901 580,-176.5901 580,-78 440,-78"/>
</g>
<g id="clust6" class="cluster">
<title>cluster_DropdownModule_imports</title>
<polygon fill="none" stroke="#000000" points="16,-189.5901 16,-241.5901 252,-241.5901 252,-189.5901 16,-189.5901"/>
</g>
<g id="clust7" class="cluster">
<title>cluster_DropdownModule_exports</title>
<polygon fill="none" stroke="#000000" points="140,-319.5901 140,-371.5901 471,-371.5901 471,-319.5901 140,-319.5901"/>
</g>
<!-- Dropdown -->
<g id="node1" class="node">
<title>Dropdown</title>
<polygon fill="#ffffb3" stroke="#000000" points="571.8739,-233.5901 496.1261,-233.5901 496.1261,-197.5901 571.8739,-197.5901 571.8739,-233.5901"/>
<text text-anchor="middle" x="534" y="-211.3901" font-family="Times,serif" font-size="14.00" fill="#000000">Dropdown</text>
</g>
<!-- DropdownModule -->
<g id="node4" class="node">
<title>DropdownModule</title>
<polygon fill="#8dd3c7" stroke="#000000" points="374.9244,-298.5901 371.9244,-302.5901 350.9244,-302.5901 347.9244,-298.5901 255.0756,-298.5901 255.0756,-262.5901 374.9244,-262.5901 374.9244,-298.5901"/>
<text text-anchor="middle" x="315" y="-276.3901" font-family="Times,serif" font-size="14.00" fill="#000000">DropdownModule</text>
</g>
<!-- Dropdown&#45;&gt;DropdownModule -->
<g id="edge1" class="edge">
<title>Dropdown&#45;&gt;DropdownModule</title>
<path fill="none" stroke="#000000" d="M534,-233.6962C534,-252.9292 534,-280.5901 534,-280.5901 534,-280.5901 384.8427,-280.5901 384.8427,-280.5901"/>
<polygon fill="#000000" stroke="#000000" points="384.8427,-277.0902 374.8427,-280.5901 384.8427,-284.0902 384.8427,-277.0902"/>
</g>
<!-- DropdownList -->
<g id="node2" class="node">
<title>DropdownList</title>
<polygon fill="#ffffb3" stroke="#000000" points="477.6528,-233.5901 380.3472,-233.5901 380.3472,-197.5901 477.6528,-197.5901 477.6528,-233.5901"/>
<text text-anchor="middle" x="429" y="-211.3901" font-family="Times,serif" font-size="14.00" fill="#000000">DropdownList</text>
</g>
<!-- DropdownList&#45;&gt;DropdownModule -->
<g id="edge3" class="edge">
<title>DropdownList&#45;&gt;DropdownModule</title>
<path fill="none" stroke="#000000" d="M380.1571,-215.5901C373.2766,-215.5901 368.4902,-215.5901 368.4902,-215.5901 368.4902,-215.5901 368.4902,-252.4839 368.4902,-252.4839"/>
<polygon fill="#000000" stroke="#000000" points="364.9903,-252.4839 368.4902,-262.4839 371.9903,-252.484 364.9903,-252.4839"/>
</g>
<!-- ScrollableList -->
<g id="node3" class="node">
<title>ScrollableList</title>
<polygon fill="#ffffb3" stroke="#000000" points="362.0383,-233.5901 267.9617,-233.5901 267.9617,-197.5901 362.0383,-197.5901 362.0383,-233.5901"/>
<text text-anchor="middle" x="315" y="-211.3901" font-family="Times,serif" font-size="14.00" fill="#000000">ScrollableList</text>
</g>
<!-- ScrollableList&#45;&gt;DropdownModule -->
<g id="edge4" class="edge">
<title>ScrollableList&#45;&gt;DropdownModule</title>
<path fill="none" stroke="#000000" d="M315,-233.6962C315,-233.6962 315,-252.581 315,-252.581"/>
<polygon fill="#000000" stroke="#000000" points="311.5001,-252.581 315,-262.581 318.5001,-252.5811 311.5001,-252.581"/>
</g>
<!-- Dropdown  -->
<g id="node8" class="node">
<title>Dropdown </title>
<polygon fill="#fb8072" stroke="#000000" points="462.8747,-363.5901 383.1253,-363.5901 383.1253,-327.5901 462.8747,-327.5901 462.8747,-363.5901"/>
<text text-anchor="middle" x="423" y="-341.3901" font-family="Times,serif" font-size="14.00" fill="#000000">Dropdown </text>
</g>
<!-- DropdownModule&#45;&gt;Dropdown  -->
<g id="edge7" class="edge">
<title>DropdownModule&#45;&gt;Dropdown </title>
<path fill="none" stroke="#000000" stroke-dasharray="5,2" d="M370.144,-298.6962C370.144,-317.9292 370.144,-345.5901 370.144,-345.5901 370.144,-345.5901 373.2095,-345.5901 373.2095,-345.5901"/>
<polygon fill="#000000" stroke="#000000" points="373.2095,-349.0902 383.2095,-345.5901 373.2095,-342.0902 373.2095,-349.0902"/>
</g>
<!-- DropdownList  -->
<g id="node9" class="node">
<title>DropdownList </title>
<polygon fill="#fb8072" stroke="#000000" points="365.6523,-363.5901 264.3477,-363.5901 264.3477,-327.5901 365.6523,-327.5901 365.6523,-363.5901"/>
<text text-anchor="middle" x="315" y="-341.3901" font-family="Times,serif" font-size="14.00" fill="#000000">DropdownList </text>
</g>
<!-- DropdownModule&#45;&gt;DropdownList  -->
<g id="edge8" class="edge">
<title>DropdownModule&#45;&gt;DropdownList </title>
<path fill="none" stroke="#000000" stroke-dasharray="5,2" d="M315,-298.6962C315,-298.6962 315,-317.581 315,-317.581"/>
<polygon fill="#000000" stroke="#000000" points="311.5001,-317.581 315,-327.581 318.5001,-317.5811 311.5001,-317.581"/>
</g>
<!-- ScrollableList  -->
<g id="node10" class="node">
<title>ScrollableList </title>
<polygon fill="#fb8072" stroke="#000000" points="246.0372,-363.5901 147.9628,-363.5901 147.9628,-327.5901 246.0372,-327.5901 246.0372,-363.5901"/>
<text text-anchor="middle" x="197" y="-341.3901" font-family="Times,serif" font-size="14.00" fill="#000000">ScrollableList </text>
</g>
<!-- DropdownModule&#45;&gt;ScrollableList  -->
<g id="edge9" class="edge">
<title>DropdownModule&#45;&gt;ScrollableList </title>
<path fill="none" stroke="#000000" stroke-dasharray="5,2" d="M259.8561,-298.6962C259.8561,-317.9292 259.8561,-345.5901 259.8561,-345.5901 259.8561,-345.5901 256.2172,-345.5901 256.2172,-345.5901"/>
<polygon fill="#000000" stroke="#000000" points="256.2173,-342.0902 246.2172,-345.5901 256.2172,-349.0902 256.2173,-342.0902"/>
</g>
<!-- {
 &#160;&#160;&#160;: , : , : true
} -->
<g id="node5" class="node">
<title>{
 &#160;&#160;&#160;: , : , : true
}</title>
<ellipse fill="#fdb462" stroke="#000000" cx="510" cy="-127.295" rx="62.3631" ry="41.0911"/>
<text text-anchor="middle" x="510" y="-139.895" font-family="Times,serif" font-size="14.00" fill="#000000">{</text>
<text text-anchor="middle" x="510" y="-123.095" font-family="Times,serif" font-size="14.00" fill="#000000"> &#160;&#160;&#160;: , : , : true</text>
<text text-anchor="middle" x="510" y="-106.295" font-family="Times,serif" font-size="14.00" fill="#000000">}</text>
</g>
<!-- {
 &#160;&#160;&#160;: , : , : true
}&#45;&gt;Dropdown -->
<g id="edge2" class="edge">
<title>{
 &#160;&#160;&#160;: , : , : true
}&#45;&gt;Dropdown</title>
<path fill="none" stroke="#000000" d="M534,-165.509C534,-165.509 534,-187.2098 534,-187.2098"/>
<polygon fill="#000000" stroke="#000000" points="530.5001,-187.2098 534,-197.2098 537.5001,-187.2099 530.5001,-187.2098"/>
</g>
<!-- StaticIconModule -->
<g id="node6" class="node">
<title>StaticIconModule</title>
<polygon fill="#8dd3c7" stroke="#000000" points="244.309,-233.5901 241.309,-237.5901 220.309,-237.5901 217.309,-233.5901 127.691,-233.5901 127.691,-197.5901 244.309,-197.5901 244.309,-233.5901"/>
<text text-anchor="middle" x="186" y="-211.3901" font-family="Times,serif" font-size="14.00" fill="#000000">StaticIconModule</text>
</g>
<!-- StaticIconModule&#45;&gt;DropdownModule -->
<g id="edge5" class="edge">
<title>StaticIconModule&#45;&gt;DropdownModule</title>
<path fill="none" stroke="#000000" d="M244.3755,-215.5901C254.319,-215.5901 261.5098,-215.5901 261.5098,-215.5901 261.5098,-215.5901 261.5098,-252.4839 261.5098,-252.4839"/>
<polygon fill="#000000" stroke="#000000" points="258.0099,-252.4839 261.5098,-262.4839 265.0099,-252.484 258.0099,-252.4839"/>
</g>
<!-- I18nModule -->
<g id="node7" class="node">
<title>I18nModule</title>
<polygon fill="#8dd3c7" stroke="#000000" points="109.7107,-233.5901 106.7107,-237.5901 85.7107,-237.5901 82.7107,-233.5901 24.2893,-233.5901 24.2893,-197.5901 109.7107,-197.5901 109.7107,-233.5901"/>
<text text-anchor="middle" x="67" y="-211.3901" font-family="Times,serif" font-size="14.00" fill="#000000">I18nModule</text>
</g>
<!-- I18nModule&#45;&gt;DropdownModule -->
<g id="edge6" class="edge">
<title>I18nModule&#45;&gt;DropdownModule</title>
<path fill="none" stroke="#000000" d="M67,-233.6962C67,-252.9292 67,-280.5901 67,-280.5901 67,-280.5901 245.2822,-280.5901 245.2822,-280.5901"/>
<polygon fill="#000000" stroke="#000000" points="245.2823,-284.0902 255.2822,-280.5901 245.2822,-277.0902 245.2823,-284.0902"/>
</g>
</g>
</svg>
