<?xml version="1.0" encoding="UTF-8" standalone="no"?>
<!DOCTYPE svg PUBLIC "-//W3C//DTD SVG 1.1//EN"
 "http://www.w3.org/Graphics/SVG/1.1/DTD/svg11.dtd">
<!-- Generated by graphviz version 2.40.1 (20161225.0304)
 -->
<!-- Title: dependencies Pages: 1 -->
<svg width="504pt" height="284pt"
 viewBox="0.00 0.00 504.00 284.00" xmlns="http://www.w3.org/2000/svg" xmlns:xlink="http://www.w3.org/1999/xlink">
<g id="graph0" class="graph" transform="scale(1 1) rotate(0) translate(4 280)">
<title>dependencies</title>
<polygon fill="#ffffff" stroke="transparent" points="-4,4 -4,-280 500,-280 500,4 -4,4"/>
<text text-anchor="start" x="227.0091" y="-42.4" font-family="sans-serif" font-weight="bold" font-size="14.00" fill="#000000">Legend</text>
<polygon fill="#ffffb3" stroke="transparent" points="14,-10 14,-30 34,-30 34,-10 14,-10"/>
<text text-anchor="start" x="37.629" y="-15.4" font-family="sans-serif" font-size="14.00" fill="#000000"> &#160;Declarations</text>
<polygon fill="#8dd3c7" stroke="transparent" points="127,-10 127,-30 147,-30 147,-10 127,-10"/>
<text text-anchor="start" x="150.7251" y="-15.4" font-family="sans-serif" font-size="14.00" fill="#000000"> &#160;Module</text>
<polygon fill="#80b1d3" stroke="transparent" points="213,-10 213,-30 233,-30 233,-10 213,-10"/>
<text text-anchor="start" x="236.7812" y="-15.4" font-family="sans-serif" font-size="14.00" fill="#000000"> &#160;Bootstrap</text>
<polygon fill="#fdb462" stroke="transparent" points="310,-10 310,-30 330,-30 330,-10 310,-10"/>
<text text-anchor="start" x="333.6732" y="-15.4" font-family="sans-serif" font-size="14.00" fill="#000000"> &#160;Providers</text>
<polygon fill="#fb8072" stroke="transparent" points="406,-10 406,-30 426,-30 426,-10 406,-10"/>
<text text-anchor="start" x="429.7258" y="-15.4" font-family="sans-serif" font-size="14.00" fill="#000000"> &#160;Exports</text>
<g id="clust1" class="cluster">
<title>cluster_ContentSwitcherModule</title>
<polygon fill="none" stroke="#000000" stroke-dasharray="1,5" points="90,-70 90,-268 406,-268 406,-70 90,-70"/>
</g>
<g id="clust2" class="cluster">
<title>cluster_ContentSwitcherModule_declarations</title>
<polygon fill="none" stroke="#000000" points="102,-78 102,-130 395,-130 395,-78 102,-78"/>
</g>
<g id="clust6" class="cluster">
<title>cluster_ContentSwitcherModule_exports</title>
<polygon fill="none" stroke="#000000" points="98,-208 98,-260 398,-260 398,-208 98,-208"/>
</g>
<!-- ContentSwitcher -->
<g id="node1" class="node">
<title>ContentSwitcher</title>
<polygon fill="#ffffb3" stroke="#000000" points="387.0926,-122 276.9074,-122 276.9074,-86 387.0926,-86 387.0926,-122"/>
<text text-anchor="middle" x="332" y="-99.8" font-family="Times,serif" font-size="14.00" fill="#000000">ContentSwitcher</text>
</g>
<!-- ContentSwitcherModule -->
<g id="node3" class="node">
<title>ContentSwitcherModule</title>
<polygon fill="#8dd3c7" stroke="#000000" points="261.6428,-187 258.6428,-191 237.6428,-191 234.6428,-187 108.3572,-187 108.3572,-151 261.6428,-151 261.6428,-187"/>
<text text-anchor="middle" x="185" y="-164.8" font-family="Times,serif" font-size="14.00" fill="#000000">ContentSwitcherModule</text>
</g>
<!-- ContentSwitcher&#45;&gt;ContentSwitcherModule -->
<g id="edge1" class="edge">
<title>ContentSwitcher&#45;&gt;ContentSwitcherModule</title>
<path fill="none" stroke="#000000" d="M350.3488,-122.0225C350.3488,-139.3734 350.3488,-163 350.3488,-163 350.3488,-163 271.8656,-163 271.8656,-163"/>
<polygon fill="#000000" stroke="#000000" points="271.8656,-159.5001 261.8656,-163 271.8656,-166.5001 271.8656,-159.5001"/>
</g>
<!-- ContentSwitcherOption -->
<g id="node2" class="node">
<title>ContentSwitcherOption</title>
<polygon fill="#ffffb3" stroke="#000000" points="258.4804,-122 109.5196,-122 109.5196,-86 258.4804,-86 258.4804,-122"/>
<text text-anchor="middle" x="184" y="-99.8" font-family="Times,serif" font-size="14.00" fill="#000000">ContentSwitcherOption</text>
</g>
<!-- ContentSwitcherOption&#45;&gt;ContentSwitcherModule -->
<g id="edge2" class="edge">
<title>ContentSwitcherOption&#45;&gt;ContentSwitcherModule</title>
<path fill="none" stroke="#000000" d="M184,-122.1061C184,-122.1061 184,-140.991 184,-140.991"/>
<polygon fill="#000000" stroke="#000000" points="180.5001,-140.9909 184,-150.991 187.5001,-140.991 180.5001,-140.9909"/>
</g>
<!-- ContentSwitcher  -->
<g id="node4" class="node">
<title>ContentSwitcher </title>
<polygon fill="#fb8072" stroke="#000000" points="389.5933,-252 276.4067,-252 276.4067,-216 389.5933,-216 389.5933,-252"/>
<text text-anchor="middle" x="333" y="-229.8" font-family="Times,serif" font-size="14.00" fill="#000000">ContentSwitcher </text>
</g>
<!-- ContentSwitcherModule&#45;&gt;ContentSwitcher  -->
<g id="edge3" class="edge">
<title>ContentSwitcherModule&#45;&gt;ContentSwitcher </title>
<path fill="none" stroke="#000000" stroke-dasharray="5,2" d="M261.6947,-175C289.246,-175 313.6512,-175 313.6512,-175 313.6512,-175 313.6512,-205.9775 313.6512,-205.9775"/>
<polygon fill="#000000" stroke="#000000" points="310.1513,-205.9774 313.6512,-215.9775 317.1513,-205.9775 310.1513,-205.9774"/>
</g>
<!-- ContentSwitcherOption  -->
<g id="node5" class="node">
<title>ContentSwitcherOption </title>
<polygon fill="#fb8072" stroke="#000000" points="258.4812,-252 105.5188,-252 105.5188,-216 258.4812,-216 258.4812,-252"/>
<text text-anchor="middle" x="182" y="-229.8" font-family="Times,serif" font-size="14.00" fill="#000000">ContentSwitcherOption </text>
</g>
<!-- ContentSwitcherModule&#45;&gt;ContentSwitcherOption  -->
<g id="edge4" class="edge">
<title>ContentSwitcherModule&#45;&gt;ContentSwitcherOption </title>
<path fill="none" stroke="#000000" stroke-dasharray="5,2" d="M183.2095,-187.1061C183.2095,-187.1061 183.2095,-205.991 183.2095,-205.991"/>
<polygon fill="#000000" stroke="#000000" points="179.7096,-205.9909 183.2095,-215.991 186.7096,-205.991 179.7096,-205.9909"/>
</g>
</g>
</svg>
