<?xml version="1.0" encoding="UTF-8" standalone="no"?>
<!DOCTYPE svg PUBLIC "-//W3C//DTD SVG 1.1//EN"
 "http://www.w3.org/Graphics/SVG/1.1/DTD/svg11.dtd">
<!-- Generated by graphviz version 2.47.0 (20210316.0004)
 -->
<!-- Title: dependencies Pages: 1 -->
<svg width="698pt" height="396pt"
 viewBox="0.00 0.00 698.00 395.59" xmlns="http://www.w3.org/2000/svg" xmlns:xlink="http://www.w3.org/1999/xlink">
<g id="graph0" class="graph" transform="scale(1 1) rotate(0) translate(4 391.59)">
<title>dependencies</title>
<polygon fill="white" stroke="transparent" points="-4,4 -4,-391.59 694,-391.59 694,4 -4,4"/>
<text text-anchor="start" x="324.01" y="-42.4" font-family="Times-12" font-weight="bold" font-size="14.00">Legend</text>
<polygon fill="#ffffb3" stroke="transparent" points="111,-10 111,-30 131,-30 131,-10 111,-10"/>
<text text-anchor="start" x="134.63" y="-15.4" font-family="Times-12" font-size="14.00"> &#160;Declarations</text>
<polygon fill="#8dd3c7" stroke="transparent" points="224,-10 224,-30 244,-30 244,-10 224,-10"/>
<text text-anchor="start" x="247.73" y="-15.4" font-family="Times-12" font-size="14.00"> &#160;Module</text>
<polygon fill="#80b1d3" stroke="transparent" points="310,-10 310,-30 330,-30 330,-10 310,-10"/>
<text text-anchor="start" x="333.78" y="-15.4" font-family="Times-12" font-size="14.00"> &#160;Bootstrap</text>
<polygon fill="#fdb462" stroke="transparent" points="407,-10 407,-30 427,-30 427,-10 407,-10"/>
<text text-anchor="start" x="430.67" y="-15.4" font-family="Times-12" font-size="14.00"> &#160;Providers</text>
<polygon fill="#fb8072" stroke="transparent" points="503,-10 503,-30 523,-30 523,-10 503,-10"/>
<text text-anchor="start" x="526.73" y="-15.4" font-family="Times-12" font-size="14.00"> &#160;Exports</text>
<g id="clust1" class="cluster">
<title>cluster_FileUploaderModule</title>
<polygon fill="none" stroke="black" stroke-dasharray="1,5" points="8,-70 8,-379.59 682,-379.59 682,-70 8,-70"/>
</g>
<g id="clust2" class="cluster">
<title>cluster_FileUploaderModule_declarations</title>
<polygon fill="none" stroke="black" points="99,-189.59 99,-241.59 326,-241.59 326,-189.59 99,-189.59"/>
</g>
<g id="clust6" class="cluster">
<title>cluster_FileUploaderModule_exports</title>
<polygon fill="none" stroke="black" points="281,-319.59 281,-371.59 515,-371.59 515,-319.59 281,-319.59"/>
</g>
<g id="clust5" class="cluster">
<title>cluster_FileUploaderModule_imports</title>
<polygon fill="none" stroke="black" points="334,-189.59 334,-241.59 674,-241.59 674,-189.59 334,-189.59"/>
</g>
<g id="clust4" class="cluster">
<title>cluster_FileUploaderModule_FileUploader_providers</title>
<polygon fill="none" stroke="black" points="16,-78 16,-176.59 674,-176.59 674,-78 16,-78"/>
</g>
<!-- FileComponent -->
<g id="node1" class="node">
<title>FileComponent</title>
<polygon fill="#ffffb3" stroke="black" points="317.61,-233.59 214.39,-233.59 214.39,-197.59 317.61,-197.59 317.61,-233.59"/>
<text text-anchor="middle" x="266" y="-211.39" font-family="Times,serif" font-size="14.00">FileComponent</text>
</g>
<!-- FileUploaderModule -->
<g id="node3" class="node">
<title>FileUploaderModule</title>
<polygon fill="#8dd3c7" stroke="black" points="461.92,-298.59 458.92,-302.59 437.92,-302.59 434.92,-298.59 328.08,-298.59 328.08,-262.59 461.92,-262.59 461.92,-298.59"/>
<text text-anchor="middle" x="395" y="-276.39" font-family="Times,serif" font-size="14.00">FileUploaderModule</text>
</g>
<!-- FileComponent&#45;&gt;FileUploaderModule -->
<g id="edge1" class="edge">
<title>FileComponent&#45;&gt;FileUploaderModule</title>
<path fill="none" stroke="black" d="M317.66,-215.59C327.66,-215.59 335.09,-215.59 335.09,-215.59 335.09,-215.59 335.09,-252.48 335.09,-252.48"/>
<polygon fill="black" stroke="black" points="331.59,-252.48 335.09,-262.48 338.59,-252.48 331.59,-252.48"/>
</g>
<!-- FileUploader -->
<g id="node2" class="node">
<title>FileUploader</title>
<polygon fill="#ffffb3" stroke="black" points="196.87,-233.59 107.13,-233.59 107.13,-197.59 196.87,-197.59 196.87,-233.59"/>
<text text-anchor="middle" x="152" y="-211.39" font-family="Times,serif" font-size="14.00">FileUploader</text>
</g>
<!-- FileUploader&#45;&gt;FileUploaderModule -->
<g id="edge2" class="edge">
<title>FileUploader&#45;&gt;FileUploaderModule</title>
<path fill="none" stroke="black" d="M152,-233.7C152,-252.93 152,-280.59 152,-280.59 152,-280.59 318.28,-280.59 318.28,-280.59"/>
<polygon fill="black" stroke="black" points="318.28,-284.09 328.28,-280.59 318.28,-277.09 318.28,-284.09"/>
</g>
<!-- FileComponent  -->
<g id="node8" class="node">
<title>FileComponent </title>
<polygon fill="#fb8072" stroke="black" points="507.11,-363.59 400.89,-363.59 400.89,-327.59 507.11,-327.59 507.11,-363.59"/>
<text text-anchor="middle" x="454" y="-341.39" font-family="Times,serif" font-size="14.00">FileComponent </text>
</g>
<!-- FileUploaderModule&#45;&gt;FileComponent  -->
<g id="edge7" class="edge">
<title>FileUploaderModule&#45;&gt;FileComponent </title>
<path fill="none" stroke="black" stroke-dasharray="5,2" d="M431.2,-298.7C431.2,-298.7 431.2,-317.58 431.2,-317.58"/>
<polygon fill="black" stroke="black" points="427.7,-317.58 431.2,-327.58 434.7,-317.58 427.7,-317.58"/>
</g>
<!-- FileUploader  -->
<g id="node9" class="node">
<title>FileUploader </title>
<polygon fill="#fb8072" stroke="black" points="382.87,-363.59 289.13,-363.59 289.13,-327.59 382.87,-327.59 382.87,-363.59"/>
<text text-anchor="middle" x="336" y="-341.39" font-family="Times,serif" font-size="14.00">FileUploader </text>
</g>
<!-- FileUploaderModule&#45;&gt;FileUploader  -->
<g id="edge8" class="edge">
<title>FileUploaderModule&#45;&gt;FileUploader </title>
<path fill="none" stroke="black" stroke-dasharray="5,2" d="M355.49,-298.7C355.49,-298.7 355.49,-317.58 355.49,-317.58"/>
<polygon fill="black" stroke="black" points="351.99,-317.58 355.49,-327.58 358.99,-317.58 351.99,-317.58"/>
</g>
<!-- {
 &#160;&#160;&#160;provide: NG_VALUE_ACCESSOR, useExisting: FileUploader, multi: true
} -->
<g id="node4" class="node">
<title>{
 &#160;&#160;&#160;provide: NG_VALUE_ACCESSOR, useExisting: FileUploader, multi: true
}</title>
<ellipse fill="#fdb462" stroke="black" cx="345" cy="-127.3" rx="320.76" ry="41.09"/>
<text text-anchor="middle" x="345" y="-139.9" font-family="Times,serif" font-size="14.00">{</text>
<text text-anchor="middle" x="345" y="-123.1" font-family="Times,serif" font-size="14.00"> &#160;&#160;&#160;provide: NG_VALUE_ACCESSOR, useExisting: FileUploader, multi: true</text>
<text text-anchor="middle" x="345" y="-106.3" font-family="Times,serif" font-size="14.00">}</text>
</g>
<!-- {
 &#160;&#160;&#160;provide: NG_VALUE_ACCESSOR, useExisting: FileUploader, multi: true
}&#45;&gt;FileUploader -->
<g id="edge3" class="edge">
<title>{
 &#160;&#160;&#160;provide: NG_VALUE_ACCESSOR, useExisting: FileUploader, multi: true
}&#45;&gt;FileUploader</title>
<path fill="none" stroke="black" d="M152,-160.42C152,-160.42 152,-187.4 152,-187.4"/>
<polygon fill="black" stroke="black" points="148.5,-187.4 152,-197.4 155.5,-187.4 148.5,-187.4"/>
</g>
<!-- ButtonModule -->
<g id="node5" class="node">
<title>ButtonModule</title>
<polygon fill="#8dd3c7" stroke="black" points="665.67,-233.59 662.67,-237.59 641.67,-237.59 638.67,-233.59 568.33,-233.59 568.33,-197.59 665.67,-197.59 665.67,-233.59"/>
<text text-anchor="middle" x="617" y="-211.39" font-family="Times,serif" font-size="14.00">ButtonModule</text>
</g>
<!-- ButtonModule&#45;&gt;FileUploaderModule -->
<g id="edge4" class="edge">
<title>ButtonModule&#45;&gt;FileUploaderModule</title>
<path fill="none" stroke="black" d="M617,-233.7C617,-252.93 617,-280.59 617,-280.59 617,-280.59 471.91,-280.59 471.91,-280.59"/>
<polygon fill="black" stroke="black" points="471.91,-277.09 461.91,-280.59 471.91,-284.09 471.91,-277.09"/>
</g>
<!-- IconModule -->
<g id="node6" class="node">
<title>IconModule</title>
<polygon fill="#8dd3c7" stroke="black" points="550.43,-233.59 547.43,-237.59 526.43,-237.59 523.43,-233.59 465.57,-233.59 465.57,-197.59 550.43,-197.59 550.43,-233.59"/>
<text text-anchor="middle" x="508" y="-211.39" font-family="Times,serif" font-size="14.00">IconModule</text>
</g>
<!-- IconModule&#45;&gt;FileUploaderModule -->
<g id="edge5" class="edge">
<title>IconModule&#45;&gt;FileUploaderModule</title>
<path fill="none" stroke="black" d="M465.65,-215.59C459.34,-215.59 454.91,-215.59 454.91,-215.59 454.91,-215.59 454.91,-252.48 454.91,-252.48"/>
<polygon fill="black" stroke="black" points="451.41,-252.48 454.91,-262.48 458.41,-252.48 451.41,-252.48"/>
</g>
<!-- LoadingModule -->
<g id="node7" class="node">
<title>LoadingModule</title>
<polygon fill="#8dd3c7" stroke="black" points="448.21,-233.59 445.21,-237.59 424.21,-237.59 421.21,-233.59 341.79,-233.59 341.79,-197.59 448.21,-197.59 448.21,-233.59"/>
<text text-anchor="middle" x="395" y="-211.39" font-family="Times,serif" font-size="14.00">LoadingModule</text>
</g>
<!-- LoadingModule&#45;&gt;FileUploaderModule -->
<g id="edge6" class="edge">
<title>LoadingModule&#45;&gt;FileUploaderModule</title>
<path fill="none" stroke="black" d="M395,-233.7C395,-233.7 395,-252.58 395,-252.58"/>
<polygon fill="black" stroke="black" points="391.5,-252.58 395,-262.58 398.5,-252.58 391.5,-252.58"/>
</g>
</g>
</svg>
