<?xml version="1.0" encoding="UTF-8" standalone="no"?>
<!DOCTYPE svg PUBLIC "-//W3C//DTD SVG 1.1//EN"
 "http://www.w3.org/Graphics/SVG/1.1/DTD/svg11.dtd">
<!-- Generated by graphviz version 2.40.1 (20161225.0304)
 -->
<!-- Title: dependencies Pages: 1 -->
<svg width="698pt" height="396pt"
 viewBox="0.00 0.00 698.00 395.59" xmlns="http://www.w3.org/2000/svg" xmlns:xlink="http://www.w3.org/1999/xlink">
<g id="graph0" class="graph" transform="scale(1 1) rotate(0) translate(4 391.5901)">
<title>dependencies</title>
<polygon fill="#ffffff" stroke="transparent" points="-4,4 -4,-391.5901 694,-391.5901 694,4 -4,4"/>
<text text-anchor="start" x="324.0091" y="-42.4" font-family="sans-serif" font-weight="bold" font-size="14.00" fill="#000000">Legend</text>
<polygon fill="#ffffb3" stroke="transparent" points="111,-10 111,-30 131,-30 131,-10 111,-10"/>
<text text-anchor="start" x="134.629" y="-15.4" font-family="sans-serif" font-size="14.00" fill="#000000"> &#160;Declarations</text>
<polygon fill="#8dd3c7" stroke="transparent" points="224,-10 224,-30 244,-30 244,-10 224,-10"/>
<text text-anchor="start" x="247.7251" y="-15.4" font-family="sans-serif" font-size="14.00" fill="#000000"> &#160;Module</text>
<polygon fill="#80b1d3" stroke="transparent" points="310,-10 310,-30 330,-30 330,-10 310,-10"/>
<text text-anchor="start" x="333.7812" y="-15.4" font-family="sans-serif" font-size="14.00" fill="#000000"> &#160;Bootstrap</text>
<polygon fill="#fdb462" stroke="transparent" points="407,-10 407,-30 427,-30 427,-10 407,-10"/>
<text text-anchor="start" x="430.6732" y="-15.4" font-family="sans-serif" font-size="14.00" fill="#000000"> &#160;Providers</text>
<polygon fill="#fb8072" stroke="transparent" points="503,-10 503,-30 523,-30 523,-10 503,-10"/>
<text text-anchor="start" x="526.7258" y="-15.4" font-family="sans-serif" font-size="14.00" fill="#000000"> &#160;Exports</text>
<g id="clust1" class="cluster">
<title>cluster_FileUploaderModule</title>
<polygon fill="none" stroke="#000000" stroke-dasharray="1,5" points="8,-70 8,-379.5901 682,-379.5901 682,-70 8,-70"/>
</g>
<g id="clust2" class="cluster">
<title>cluster_FileUploaderModule_declarations</title>
<polygon fill="none" stroke="#000000" points="292,-189.5901 292,-241.5901 470,-241.5901 470,-189.5901 292,-189.5901"/>
</g>
<g id="clust4" class="cluster">
<title>cluster_FileUploaderModule_FileUploader_providers</title>
<polygon fill="none" stroke="#000000" points="16,-78 16,-176.5901 674,-176.5901 674,-78 16,-78"/>
</g>
<g id="clust5" class="cluster">
<title>cluster_FileUploaderModule_imports</title>
<polygon fill="none" stroke="#000000" points="46,-189.5901 46,-241.5901 284,-241.5901 284,-189.5901 46,-189.5901"/>
</g>
<g id="clust6" class="cluster">
<title>cluster_FileUploaderModule_exports</title>
<polygon fill="none" stroke="#000000" points="231,-319.5901 231,-371.5901 341,-371.5901 341,-319.5901 231,-319.5901"/>
</g>
<!-- File -->
<g id="node1" class="node">
<title>File</title>
<polygon fill="#ffffb3" stroke="#000000" points="462,-233.5901 408,-233.5901 408,-197.5901 462,-197.5901 462,-233.5901"/>
<text text-anchor="middle" x="435" y="-211.3901" font-family="Times,serif" font-size="14.00" fill="#000000">File</text>
</g>
<!-- FileUploaderModule -->
<g id="node3" class="node">
<title>FileUploaderModule</title>
<polygon fill="#8dd3c7" stroke="#000000" points="352.9158,-298.5901 349.9158,-302.5901 328.9158,-302.5901 325.9158,-298.5901 219.0842,-298.5901 219.0842,-262.5901 352.9158,-262.5901 352.9158,-298.5901"/>
<text text-anchor="middle" x="286" y="-276.3901" font-family="Times,serif" font-size="14.00" fill="#000000">FileUploaderModule</text>
</g>
<!-- File&#45;&gt;FileUploaderModule -->
<g id="edge1" class="edge">
<title>File&#45;&gt;FileUploaderModule</title>
<path fill="none" stroke="#000000" d="M435,-233.6962C435,-252.9292 435,-280.5901 435,-280.5901 435,-280.5901 363.09,-280.5901 363.09,-280.5901"/>
<polygon fill="#000000" stroke="#000000" points="363.09,-277.0902 353.09,-280.5901 363.09,-284.0902 363.09,-277.0902"/>
</g>
<!-- FileUploader -->
<g id="node2" class="node">
<title>FileUploader</title>
<polygon fill="#ffffb3" stroke="#000000" points="389.8655,-233.5901 300.1345,-233.5901 300.1345,-197.5901 389.8655,-197.5901 389.8655,-233.5901"/>
<text text-anchor="middle" x="345" y="-211.3901" font-family="Times,serif" font-size="14.00" fill="#000000">FileUploader</text>
</g>
<!-- FileUploader&#45;&gt;FileUploaderModule -->
<g id="edge2" class="edge">
<title>FileUploader&#45;&gt;FileUploaderModule</title>
<path fill="none" stroke="#000000" d="M326.3875,-233.6962C326.3875,-233.6962 326.3875,-252.581 326.3875,-252.581"/>
<polygon fill="#000000" stroke="#000000" points="322.8875,-252.581 326.3875,-262.581 329.8875,-252.5811 322.8875,-252.581"/>
</g>
<!-- FileUploader  -->
<g id="node7" class="node">
<title>FileUploader </title>
<polygon fill="#fb8072" stroke="#000000" points="332.8661,-363.5901 239.1339,-363.5901 239.1339,-327.5901 332.8661,-327.5901 332.8661,-363.5901"/>
<text text-anchor="middle" x="286" y="-341.3901" font-family="Times,serif" font-size="14.00" fill="#000000">FileUploader </text>
</g>
<!-- FileUploaderModule&#45;&gt;FileUploader  -->
<g id="edge6" class="edge">
<title>FileUploaderModule&#45;&gt;FileUploader </title>
<path fill="none" stroke="#000000" stroke-dasharray="5,2" d="M286,-298.6962C286,-298.6962 286,-317.581 286,-317.581"/>
<polygon fill="#000000" stroke="#000000" points="282.5001,-317.581 286,-327.581 289.5001,-317.5811 282.5001,-317.581"/>
</g>
<!-- {
 &#160;&#160;&#160;provide: NG_VALUE_ACCESSOR, useExisting: FileUploader, multi: true
} -->
<g id="node4" class="node">
<title>{
 &#160;&#160;&#160;provide: NG_VALUE_ACCESSOR, useExisting: FileUploader, multi: true
}</title>
<ellipse fill="#fdb462" stroke="#000000" cx="345" cy="-127.295" rx="320.7588" ry="41.0911"/>
<text text-anchor="middle" x="345" y="-139.895" font-family="Times,serif" font-size="14.00" fill="#000000">{</text>
<text text-anchor="middle" x="345" y="-123.095" font-family="Times,serif" font-size="14.00" fill="#000000"> &#160;&#160;&#160;provide: NG_VALUE_ACCESSOR, useExisting: FileUploader, multi: true</text>
<text text-anchor="middle" x="345" y="-106.295" font-family="Times,serif" font-size="14.00" fill="#000000">}</text>
</g>
<!-- {
 &#160;&#160;&#160;provide: NG_VALUE_ACCESSOR, useExisting: FileUploader, multi: true
}&#45;&gt;FileUploader -->
<g id="edge3" class="edge">
<title>{
 &#160;&#160;&#160;provide: NG_VALUE_ACCESSOR, useExisting: FileUploader, multi: true
}&#45;&gt;FileUploader</title>
<path fill="none" stroke="#000000" d="M345,-168.5989C345,-168.5989 345,-187.2551 345,-187.2551"/>
<polygon fill="#000000" stroke="#000000" points="341.5001,-187.255 345,-197.2551 348.5001,-187.2551 341.5001,-187.255"/>
</g>
<!-- ButtonModule -->
<g id="node5" class="node">
<title>ButtonModule</title>
<polygon fill="#8dd3c7" stroke="#000000" points="275.6682,-233.5901 272.6682,-237.5901 251.6682,-237.5901 248.6682,-233.5901 178.3318,-233.5901 178.3318,-197.5901 275.6682,-197.5901 275.6682,-233.5901"/>
<text text-anchor="middle" x="227" y="-211.3901" font-family="Times,serif" font-size="14.00" fill="#000000">ButtonModule</text>
</g>
<!-- ButtonModule&#45;&gt;FileUploaderModule -->
<g id="edge4" class="edge">
<title>ButtonModule&#45;&gt;FileUploaderModule</title>
<path fill="none" stroke="#000000" d="M247.5631,-233.6962C247.5631,-233.6962 247.5631,-252.581 247.5631,-252.581"/>
<polygon fill="#000000" stroke="#000000" points="244.0632,-252.581 247.5631,-262.581 251.0632,-252.5811 244.0632,-252.581"/>
</g>
<!-- LoadingModule -->
<g id="node6" class="node">
<title>LoadingModule</title>
<polygon fill="#8dd3c7" stroke="#000000" points="160.2078,-233.5901 157.2078,-237.5901 136.2078,-237.5901 133.2078,-233.5901 53.7922,-233.5901 53.7922,-197.5901 160.2078,-197.5901 160.2078,-233.5901"/>
<text text-anchor="middle" x="107" y="-211.3901" font-family="Times,serif" font-size="14.00" fill="#000000">LoadingModule</text>
</g>
<!-- LoadingModule&#45;&gt;FileUploaderModule -->
<g id="edge5" class="edge">
<title>LoadingModule&#45;&gt;FileUploaderModule</title>
<path fill="none" stroke="#000000" d="M107,-233.6962C107,-252.9292 107,-280.5901 107,-280.5901 107,-280.5901 209.0925,-280.5901 209.0925,-280.5901"/>
<polygon fill="#000000" stroke="#000000" points="209.0925,-284.0902 219.0925,-280.5901 209.0924,-277.0902 209.0925,-284.0902"/>
</g>
</g>
</svg>
