<?xml version="1.0" encoding="UTF-8" standalone="no"?>
<!DOCTYPE svg PUBLIC "-//W3C//DTD SVG 1.1//EN"
 "http://www.w3.org/Graphics/SVG/1.1/DTD/svg11.dtd">
<!-- Generated by graphviz version 2.40.1 (20161225.0304)
 -->
<!-- Title: dependencies Pages: 1 -->
<svg width="889pt" height="284pt"
 viewBox="0.00 0.00 889.00 284.00" xmlns="http://www.w3.org/2000/svg" xmlns:xlink="http://www.w3.org/1999/xlink">
<g id="graph0" class="graph" transform="scale(1 1) rotate(0) translate(4 280)">
<title>dependencies</title>
<polygon fill="#ffffff" stroke="transparent" points="-4,4 -4,-280 885,-280 885,4 -4,4"/>
<text text-anchor="start" x="419.5091" y="-42.4" font-family="sans-serif" font-weight="bold" font-size="14.00" fill="#000000">Legend</text>
<polygon fill="#ffffb3" stroke="transparent" points="206.5,-10 206.5,-30 226.5,-30 226.5,-10 206.5,-10"/>
<text text-anchor="start" x="230.129" y="-15.4" font-family="sans-serif" font-size="14.00" fill="#000000"> &#160;Declarations</text>
<polygon fill="#8dd3c7" stroke="transparent" points="319.5,-10 319.5,-30 339.5,-30 339.5,-10 319.5,-10"/>
<text text-anchor="start" x="343.2251" y="-15.4" font-family="sans-serif" font-size="14.00" fill="#000000"> &#160;Module</text>
<polygon fill="#80b1d3" stroke="transparent" points="405.5,-10 405.5,-30 425.5,-30 425.5,-10 405.5,-10"/>
<text text-anchor="start" x="429.2812" y="-15.4" font-family="sans-serif" font-size="14.00" fill="#000000"> &#160;Bootstrap</text>
<polygon fill="#fdb462" stroke="transparent" points="502.5,-10 502.5,-30 522.5,-30 522.5,-10 502.5,-10"/>
<text text-anchor="start" x="526.1732" y="-15.4" font-family="sans-serif" font-size="14.00" fill="#000000"> &#160;Providers</text>
<polygon fill="#fb8072" stroke="transparent" points="598.5,-10 598.5,-30 618.5,-30 618.5,-10 598.5,-10"/>
<text text-anchor="start" x="622.2258" y="-15.4" font-family="sans-serif" font-size="14.00" fill="#000000"> &#160;Exports</text>
<g id="clust1" class="cluster">
<title>cluster_HeaderModule</title>
<polygon fill="none" stroke="#000000" stroke-dasharray="1,5" points="8,-70 8,-268 873,-268 873,-70 8,-70"/>
</g>
<g id="clust2" class="cluster">
<title>cluster_HeaderModule_declarations</title>
<polygon fill="none" stroke="#000000" points="126,-78 126,-130 865,-130 865,-78 126,-78"/>
</g>
<g id="clust10" class="cluster">
<title>cluster_HeaderModule_imports</title>
<polygon fill="none" stroke="#000000" points="16,-78 16,-130 118,-130 118,-78 16,-78"/>
</g>
<g id="clust11" class="cluster">
<title>cluster_HeaderModule_exports</title>
<polygon fill="none" stroke="#000000" points="58,-208 58,-260 822,-260 822,-208 58,-208"/>
</g>
<!-- Hamburger -->
<g id="node1" class="node">
<title>Hamburger</title>
<polygon fill="#ffffb3" stroke="#000000" points="856.748,-122 777.252,-122 777.252,-86 856.748,-86 856.748,-122"/>
<text text-anchor="middle" x="817" y="-99.8" font-family="Times,serif" font-size="14.00" fill="#000000">Hamburger</text>
</g>
<!-- HeaderModule -->
<g id="node8" class="node">
<title>HeaderModule</title>
<polygon fill="#8dd3c7" stroke="#000000" points="518.9608,-187 515.9608,-191 494.9608,-191 491.9608,-187 419.0392,-187 419.0392,-151 518.9608,-151 518.9608,-187"/>
<text text-anchor="middle" x="469" y="-164.8" font-family="Times,serif" font-size="14.00" fill="#000000">HeaderModule</text>
</g>
<!-- Hamburger&#45;&gt;HeaderModule -->
<g id="edge1" class="edge">
<title>Hamburger&#45;&gt;HeaderModule</title>
<path fill="none" stroke="#000000" d="M795.375,-122.2222C795.375,-140.8285 795.375,-167 795.375,-167 795.375,-167 529.2808,-167 529.2808,-167"/>
<polygon fill="#000000" stroke="#000000" points="529.2809,-163.5001 519.2808,-167 529.2808,-170.5001 529.2809,-163.5001"/>
</g>
<!-- Header -->
<g id="node2" class="node">
<title>Header</title>
<polygon fill="#ffffb3" stroke="#000000" points="759.4125,-122 702.5875,-122 702.5875,-86 759.4125,-86 759.4125,-122"/>
<text text-anchor="middle" x="731" y="-99.8" font-family="Times,serif" font-size="14.00" fill="#000000">Header</text>
</g>
<!-- Header&#45;&gt;HeaderModule -->
<g id="edge2" class="edge">
<title>Header&#45;&gt;HeaderModule</title>
<path fill="none" stroke="#000000" d="M707.375,-122.0336C707.375,-139.0597 707.375,-162 707.375,-162 707.375,-162 528.9712,-162 528.9712,-162"/>
<polygon fill="#000000" stroke="#000000" points="528.9712,-158.5001 518.9712,-162 528.9712,-165.5001 528.9712,-158.5001"/>
</g>
<!-- HeaderAction -->
<g id="node3" class="node">
<title>HeaderAction</title>
<polygon fill="#ffffb3" stroke="#000000" points="685.0146,-122 590.9854,-122 590.9854,-86 685.0146,-86 685.0146,-122"/>
<text text-anchor="middle" x="638" y="-99.8" font-family="Times,serif" font-size="14.00" fill="#000000">HeaderAction</text>
</g>
<!-- HeaderAction&#45;&gt;HeaderModule -->
<g id="edge3" class="edge">
<title>HeaderAction&#45;&gt;HeaderModule</title>
<path fill="none" stroke="#000000" d="M612.375,-122.2396C612.375,-137.5706 612.375,-157 612.375,-157 612.375,-157 529.1456,-157 529.1456,-157"/>
<polygon fill="#000000" stroke="#000000" points="529.1457,-153.5001 519.1456,-157 529.1456,-160.5001 529.1457,-153.5001"/>
</g>
<!-- HeaderGlobal -->
<g id="node4" class="node">
<title>HeaderGlobal</title>
<polygon fill="#ffffb3" stroke="#000000" points="572.0146,-122 477.9854,-122 477.9854,-86 572.0146,-86 572.0146,-122"/>
<text text-anchor="middle" x="525" y="-99.8" font-family="Times,serif" font-size="14.00" fill="#000000">HeaderGlobal</text>
</g>
<!-- HeaderGlobal&#45;&gt;HeaderModule -->
<g id="edge4" class="edge">
<title>HeaderGlobal&#45;&gt;HeaderModule</title>
<path fill="none" stroke="#000000" d="M498.3619,-122.1061C498.3619,-122.1061 498.3619,-140.991 498.3619,-140.991"/>
<polygon fill="#000000" stroke="#000000" points="494.8619,-140.9909 498.3619,-150.991 501.8619,-140.991 494.8619,-140.9909"/>
</g>
<!-- HeaderItem -->
<g id="node5" class="node">
<title>HeaderItem</title>
<polygon fill="#ffffb3" stroke="#000000" points="460.0674,-122 377.9326,-122 377.9326,-86 460.0674,-86 460.0674,-122"/>
<text text-anchor="middle" x="419" y="-99.8" font-family="Times,serif" font-size="14.00" fill="#000000">HeaderItem</text>
</g>
<!-- HeaderItem&#45;&gt;HeaderModule -->
<g id="edge5" class="edge">
<title>HeaderItem&#45;&gt;HeaderModule</title>
<path fill="none" stroke="#000000" d="M439.5267,-122.1061C439.5267,-122.1061 439.5267,-140.991 439.5267,-140.991"/>
<polygon fill="#000000" stroke="#000000" points="436.0267,-140.9909 439.5267,-150.991 443.0267,-140.991 436.0267,-140.9909"/>
</g>
<!-- HeaderMenu -->
<g id="node6" class="node">
<title>HeaderMenu</title>
<polygon fill="#ffffb3" stroke="#000000" points="359.5702,-122 270.4298,-122 270.4298,-86 359.5702,-86 359.5702,-122"/>
<text text-anchor="middle" x="315" y="-99.8" font-family="Times,serif" font-size="14.00" fill="#000000">HeaderMenu</text>
</g>
<!-- HeaderMenu&#45;&gt;HeaderModule -->
<g id="edge6" class="edge">
<title>HeaderMenu&#45;&gt;HeaderModule</title>
<path fill="none" stroke="#000000" d="M337.8757,-122.2396C337.8757,-137.5706 337.8757,-157 337.8757,-157 337.8757,-157 408.6789,-157 408.6789,-157"/>
<polygon fill="#000000" stroke="#000000" points="408.679,-160.5001 418.6789,-157 408.6789,-153.5001 408.679,-160.5001"/>
</g>
<!-- HeaderNavigation -->
<g id="node7" class="node">
<title>HeaderNavigation</title>
<polygon fill="#ffffb3" stroke="#000000" points="252.1192,-122 133.8808,-122 133.8808,-86 252.1192,-86 252.1192,-122"/>
<text text-anchor="middle" x="193" y="-99.8" font-family="Times,serif" font-size="14.00" fill="#000000">HeaderNavigation</text>
</g>
<!-- HeaderNavigation&#45;&gt;HeaderModule -->
<g id="edge7" class="edge">
<title>HeaderNavigation&#45;&gt;HeaderModule</title>
<path fill="none" stroke="#000000" d="M229.0121,-122.0336C229.0121,-139.0597 229.0121,-162 229.0121,-162 229.0121,-162 408.9828,-162 408.9828,-162"/>
<polygon fill="#000000" stroke="#000000" points="408.9828,-165.5001 418.9828,-162 408.9828,-158.5001 408.9828,-165.5001"/>
</g>
<!-- Hamburger  -->
<g id="node10" class="node">
<title>Hamburger </title>
<polygon fill="#fb8072" stroke="#000000" points="813.748,-252 730.252,-252 730.252,-216 813.748,-216 813.748,-252"/>
<text text-anchor="middle" x="772" y="-229.8" font-family="Times,serif" font-size="14.00" fill="#000000">Hamburger </text>
</g>
<!-- HeaderModule&#45;&gt;Hamburger  -->
<g id="edge9" class="edge">
<title>HeaderModule&#45;&gt;Hamburger </title>
<path fill="none" stroke="#000000" stroke-dasharray="5,2" d="M519.2636,-172C598.8111,-172 744.7909,-172 744.7909,-172 744.7909,-172 744.7909,-205.7333 744.7909,-205.7333"/>
<polygon fill="#000000" stroke="#000000" points="741.2909,-205.7333 744.7909,-215.7333 748.2909,-205.7333 741.2909,-205.7333"/>
</g>
<!-- Header  -->
<g id="node11" class="node">
<title>Header </title>
<polygon fill="#fb8072" stroke="#000000" points="711.9111,-252 652.0889,-252 652.0889,-216 711.9111,-216 711.9111,-252"/>
<text text-anchor="middle" x="682" y="-229.8" font-family="Times,serif" font-size="14.00" fill="#000000">Header </text>
</g>
<!-- HeaderModule&#45;&gt;Header  -->
<g id="edge10" class="edge">
<title>HeaderModule&#45;&gt;Header </title>
<path fill="none" stroke="#000000" stroke-dasharray="5,2" d="M519.1226,-177C578.2629,-177 668.6506,-177 668.6506,-177 668.6506,-177 668.6506,-205.9648 668.6506,-205.9648"/>
<polygon fill="#000000" stroke="#000000" points="665.1507,-205.9648 668.6506,-215.9648 672.1507,-205.9649 665.1507,-205.9648"/>
</g>
<!-- HeaderAction  -->
<g id="node12" class="node">
<title>HeaderAction </title>
<polygon fill="#fb8072" stroke="#000000" points="634.0134,-252 535.9866,-252 535.9866,-216 634.0134,-216 634.0134,-252"/>
<text text-anchor="middle" x="585" y="-229.8" font-family="Times,serif" font-size="14.00" fill="#000000">HeaderAction </text>
</g>
<!-- HeaderModule&#45;&gt;HeaderAction  -->
<g id="edge11" class="edge">
<title>HeaderModule&#45;&gt;HeaderAction </title>
<path fill="none" stroke="#000000" stroke-dasharray="5,2" d="M519.0099,-182C537.5393,-182 554.125,-182 554.125,-182 554.125,-182 554.125,-205.8129 554.125,-205.8129"/>
<polygon fill="#000000" stroke="#000000" points="550.6251,-205.8129 554.125,-215.8129 557.6251,-205.813 550.6251,-205.8129"/>
</g>
<!-- HeaderGlobal  -->
<g id="node13" class="node">
<title>HeaderGlobal </title>
<polygon fill="#fb8072" stroke="#000000" points="518.0134,-252 419.9866,-252 419.9866,-216 518.0134,-216 518.0134,-252"/>
<text text-anchor="middle" x="469" y="-229.8" font-family="Times,serif" font-size="14.00" fill="#000000">HeaderGlobal </text>
</g>
<!-- HeaderModule&#45;&gt;HeaderGlobal  -->
<g id="edge12" class="edge">
<title>HeaderModule&#45;&gt;HeaderGlobal </title>
<path fill="none" stroke="#000000" stroke-dasharray="5,2" d="M469,-187.1061C469,-187.1061 469,-205.991 469,-205.991"/>
<polygon fill="#000000" stroke="#000000" points="465.5001,-205.9909 469,-215.991 472.5001,-205.991 465.5001,-205.9909"/>
</g>
<!-- HeaderItem  -->
<g id="node14" class="node">
<title>HeaderItem </title>
<polygon fill="#fb8072" stroke="#000000" points="401.5685,-252 316.4315,-252 316.4315,-216 401.5685,-216 401.5685,-252"/>
<text text-anchor="middle" x="359" y="-229.8" font-family="Times,serif" font-size="14.00" fill="#000000">HeaderItem </text>
</g>
<!-- HeaderModule&#45;&gt;HeaderItem  -->
<g id="edge13" class="edge">
<title>HeaderModule&#45;&gt;HeaderItem </title>
<path fill="none" stroke="#000000" stroke-dasharray="5,2" d="M418.8889,-182C403.1861,-182 389.875,-182 389.875,-182 389.875,-182 389.875,-205.8129 389.875,-205.8129"/>
<polygon fill="#000000" stroke="#000000" points="386.3751,-205.8129 389.875,-215.8129 393.3751,-205.813 386.3751,-205.8129"/>
</g>
<!-- HeaderMenu  -->
<g id="node15" class="node">
<title>HeaderMenu </title>
<polygon fill="#fb8072" stroke="#000000" points="298.0712,-252 205.9288,-252 205.9288,-216 298.0712,-216 298.0712,-252"/>
<text text-anchor="middle" x="252" y="-229.8" font-family="Times,serif" font-size="14.00" fill="#000000">HeaderMenu </text>
</g>
<!-- HeaderModule&#45;&gt;HeaderMenu  -->
<g id="edge14" class="edge">
<title>HeaderModule&#45;&gt;HeaderMenu </title>
<path fill="none" stroke="#000000" stroke-dasharray="5,2" d="M419.0378,-177C364.3603,-177 284.375,-177 284.375,-177 284.375,-177 284.375,-205.9648 284.375,-205.9648"/>
<polygon fill="#000000" stroke="#000000" points="280.8751,-205.9648 284.375,-215.9648 287.8751,-205.9649 280.8751,-205.9648"/>
</g>
<!-- HeaderNavigation  -->
<g id="node16" class="node">
<title>HeaderNavigation </title>
<polygon fill="#fb8072" stroke="#000000" points="188.1187,-252 65.8813,-252 65.8813,-216 188.1187,-216 188.1187,-252"/>
<text text-anchor="middle" x="127" y="-229.8" font-family="Times,serif" font-size="14.00" fill="#000000">HeaderNavigation </text>
</g>
<!-- HeaderModule&#45;&gt;HeaderNavigation  -->
<g id="edge15" class="edge">
<title>HeaderModule&#45;&gt;HeaderNavigation </title>
<path fill="none" stroke="#000000" stroke-dasharray="5,2" d="M418.8086,-172C331.4978,-172 160.875,-172 160.875,-172 160.875,-172 160.875,-205.7333 160.875,-205.7333"/>
<polygon fill="#000000" stroke="#000000" points="157.3751,-205.7333 160.875,-215.7333 164.3751,-205.7333 157.3751,-205.7333"/>
</g>
<!-- I18nModule -->
<g id="node9" class="node">
<title>I18nModule</title>
<polygon fill="#8dd3c7" stroke="#000000" points="109.7107,-122 106.7107,-126 85.7107,-126 82.7107,-122 24.2893,-122 24.2893,-86 109.7107,-86 109.7107,-122"/>
<text text-anchor="middle" x="67" y="-99.8" font-family="Times,serif" font-size="14.00" fill="#000000">I18nModule</text>
</g>
<!-- I18nModule&#45;&gt;HeaderModule -->
<g id="edge8" class="edge">
<title>I18nModule&#45;&gt;HeaderModule</title>
<path fill="none" stroke="#000000" d="M87.773,-122.2222C87.773,-140.8285 87.773,-167 87.7729,-167 87.7729,-167 408.7692,-167 408.7692,-167"/>
<polygon fill="#000000" stroke="#000000" points="408.7692,-170.5001 418.7692,-167 408.7692,-163.5001 408.7692,-170.5001"/>
</g>
</g>
</svg>
