<?xml version="1.0" encoding="UTF-8" standalone="no"?>
<!DOCTYPE svg PUBLIC "-//W3C//DTD SVG 1.1//EN"
 "http://www.w3.org/Graphics/SVG/1.1/DTD/svg11.dtd">
<!-- Generated by graphviz version 2.40.1 (20161225.0304)
 -->
<!-- Title: dependencies Pages: 1 -->
<svg width="504pt" height="396pt"
 viewBox="0.00 0.00 504.00 395.59" xmlns="http://www.w3.org/2000/svg" xmlns:xlink="http://www.w3.org/1999/xlink">
<g id="graph0" class="graph" transform="scale(1 1) rotate(0) translate(4 391.5901)">
<title>dependencies</title>
<polygon fill="#ffffff" stroke="transparent" points="-4,4 -4,-391.5901 500,-391.5901 500,4 -4,4"/>
<text text-anchor="start" x="227.0091" y="-42.4" font-family="sans-serif" font-weight="bold" font-size="14.00" fill="#000000">Legend</text>
<polygon fill="#ffffb3" stroke="transparent" points="14,-10 14,-30 34,-30 34,-10 14,-10"/>
<text text-anchor="start" x="37.629" y="-15.4" font-family="sans-serif" font-size="14.00" fill="#000000"> &#160;Declarations</text>
<polygon fill="#8dd3c7" stroke="transparent" points="127,-10 127,-30 147,-30 147,-10 127,-10"/>
<text text-anchor="start" x="150.7251" y="-15.4" font-family="sans-serif" font-size="14.00" fill="#000000"> &#160;Module</text>
<polygon fill="#80b1d3" stroke="transparent" points="213,-10 213,-30 233,-30 233,-10 213,-10"/>
<text text-anchor="start" x="236.7812" y="-15.4" font-family="sans-serif" font-size="14.00" fill="#000000"> &#160;Bootstrap</text>
<polygon fill="#fdb462" stroke="transparent" points="310,-10 310,-30 330,-30 330,-10 310,-10"/>
<text text-anchor="start" x="333.6732" y="-15.4" font-family="sans-serif" font-size="14.00" fill="#000000"> &#160;Providers</text>
<polygon fill="#fb8072" stroke="transparent" points="406,-10 406,-30 426,-30 426,-10 406,-10"/>
<text text-anchor="start" x="429.7258" y="-15.4" font-family="sans-serif" font-size="14.00" fill="#000000"> &#160;Exports</text>
<g id="clust1" class="cluster">
<title>cluster_DropdownModule</title>
<polygon fill="none" stroke="#000000" stroke-dasharray="1,5" points="10,-70 10,-379.5901 486,-379.5901 486,-70 10,-70"/>
</g>
<g id="clust2" class="cluster">
<title>cluster_DropdownModule_declarations</title>
<polygon fill="none" stroke="#000000" points="158,-189.5901 158,-241.5901 478,-241.5901 478,-189.5901 158,-189.5901"/>
</g>
<g id="clust3" class="cluster">
<title>cluster_DropdownModule_Dropdown_providers</title>
<polygon fill="none" stroke="#000000" points="338,-78 338,-176.5901 478,-176.5901 478,-78 338,-78"/>
</g>
<g id="clust6" class="cluster">
<title>cluster_DropdownModule_imports</title>
<polygon fill="none" stroke="#000000" points="18,-189.5901 18,-241.5901 150,-241.5901 150,-189.5901 18,-189.5901"/>
</g>
<g id="clust7" class="cluster">
<title>cluster_DropdownModule_exports</title>
<polygon fill="none" stroke="#000000" points="92,-319.5901 92,-371.5901 423,-371.5901 423,-319.5901 92,-319.5901"/>
</g>
<!-- Dropdown -->
<g id="node1" class="node">
<title>Dropdown</title>
<polygon fill="#ffffb3" stroke="#000000" points="469.8739,-233.5901 394.1261,-233.5901 394.1261,-197.5901 469.8739,-197.5901 469.8739,-233.5901"/>
<text text-anchor="middle" x="432" y="-211.3901" font-family="Times,serif" font-size="14.00" fill="#000000">Dropdown</text>
</g>
<!-- DropdownModule -->
<g id="node4" class="node">
<title>DropdownModule</title>
<polygon fill="#8dd3c7" stroke="#000000" points="326.9244,-298.5901 323.9244,-302.5901 302.9244,-302.5901 299.9244,-298.5901 207.0756,-298.5901 207.0756,-262.5901 326.9244,-262.5901 326.9244,-298.5901"/>
<text text-anchor="middle" x="267" y="-276.3901" font-family="Times,serif" font-size="14.00" fill="#000000">DropdownModule</text>
</g>
<!-- Dropdown&#45;&gt;DropdownModule -->
<g id="edge1" class="edge">
<title>Dropdown&#45;&gt;DropdownModule</title>
<path fill="none" stroke="#000000" d="M404.375,-233.6962C404.375,-252.9292 404.375,-280.5901 404.375,-280.5901 404.375,-280.5901 336.855,-280.5901 336.855,-280.5901"/>
<polygon fill="#000000" stroke="#000000" points="336.8551,-277.0902 326.855,-280.5901 336.855,-284.0902 336.8551,-277.0902"/>
</g>
<!-- DropdownList -->
<g id="node2" class="node">
<title>DropdownList</title>
<polygon fill="#ffffb3" stroke="#000000" points="375.6528,-233.5901 278.3472,-233.5901 278.3472,-197.5901 375.6528,-197.5901 375.6528,-233.5901"/>
<text text-anchor="middle" x="327" y="-211.3901" font-family="Times,serif" font-size="14.00" fill="#000000">DropdownList</text>
</g>
<!-- DropdownList&#45;&gt;DropdownModule -->
<g id="edge3" class="edge">
<title>DropdownList&#45;&gt;DropdownModule</title>
<path fill="none" stroke="#000000" d="M302.4429,-233.6962C302.4429,-233.6962 302.4429,-252.581 302.4429,-252.581"/>
<polygon fill="#000000" stroke="#000000" points="298.9429,-252.581 302.4429,-262.581 305.9429,-252.5811 298.9429,-252.581"/>
</g>
<!-- ScrollableList -->
<g id="node3" class="node">
<title>ScrollableList</title>
<polygon fill="#ffffb3" stroke="#000000" points="260.0383,-233.5901 165.9617,-233.5901 165.9617,-197.5901 260.0383,-197.5901 260.0383,-233.5901"/>
<text text-anchor="middle" x="213" y="-211.3901" font-family="Times,serif" font-size="14.00" fill="#000000">ScrollableList</text>
</g>
<!-- ScrollableList&#45;&gt;DropdownModule -->
<g id="edge4" class="edge">
<title>ScrollableList&#45;&gt;DropdownModule</title>
<path fill="none" stroke="#000000" d="M233.7784,-233.6962C233.7784,-233.6962 233.7784,-252.581 233.7784,-252.581"/>
<polygon fill="#000000" stroke="#000000" points="230.2785,-252.581 233.7784,-262.581 237.2785,-252.5811 230.2785,-252.581"/>
</g>
<!-- Dropdown  -->
<g id="node7" class="node">
<title>Dropdown </title>
<polygon fill="#fb8072" stroke="#000000" points="414.8747,-363.5901 335.1253,-363.5901 335.1253,-327.5901 414.8747,-327.5901 414.8747,-363.5901"/>
<text text-anchor="middle" x="375" y="-341.3901" font-family="Times,serif" font-size="14.00" fill="#000000">Dropdown </text>
</g>
<!-- DropdownModule&#45;&gt;Dropdown  -->
<g id="edge6" class="edge">
<title>DropdownModule&#45;&gt;Dropdown </title>
<path fill="none" stroke="#000000" stroke-dasharray="5,2" d="M322.144,-298.6962C322.144,-317.9292 322.144,-345.5901 322.144,-345.5901 322.144,-345.5901 325.2095,-345.5901 325.2095,-345.5901"/>
<polygon fill="#000000" stroke="#000000" points="325.2095,-349.0902 335.2095,-345.5901 325.2095,-342.0902 325.2095,-349.0902"/>
</g>
<!-- DropdownList  -->
<g id="node8" class="node">
<title>DropdownList </title>
<polygon fill="#fb8072" stroke="#000000" points="317.6523,-363.5901 216.3477,-363.5901 216.3477,-327.5901 317.6523,-327.5901 317.6523,-363.5901"/>
<text text-anchor="middle" x="267" y="-341.3901" font-family="Times,serif" font-size="14.00" fill="#000000">DropdownList </text>
</g>
<!-- DropdownModule&#45;&gt;DropdownList  -->
<g id="edge7" class="edge">
<title>DropdownModule&#45;&gt;DropdownList </title>
<path fill="none" stroke="#000000" stroke-dasharray="5,2" d="M267,-298.6962C267,-298.6962 267,-317.581 267,-317.581"/>
<polygon fill="#000000" stroke="#000000" points="263.5001,-317.581 267,-327.581 270.5001,-317.5811 263.5001,-317.581"/>
</g>
<!-- ScrollableList  -->
<g id="node9" class="node">
<title>ScrollableList </title>
<polygon fill="#fb8072" stroke="#000000" points="198.0372,-363.5901 99.9628,-363.5901 99.9628,-327.5901 198.0372,-327.5901 198.0372,-363.5901"/>
<text text-anchor="middle" x="149" y="-341.3901" font-family="Times,serif" font-size="14.00" fill="#000000">ScrollableList </text>
</g>
<!-- DropdownModule&#45;&gt;ScrollableList  -->
<g id="edge8" class="edge">
<title>DropdownModule&#45;&gt;ScrollableList </title>
<path fill="none" stroke="#000000" stroke-dasharray="5,2" d="M211.8561,-298.6962C211.8561,-317.9292 211.8561,-345.5901 211.8561,-345.5901 211.8561,-345.5901 208.2172,-345.5901 208.2172,-345.5901"/>
<polygon fill="#000000" stroke="#000000" points="208.2173,-342.0902 198.2172,-345.5901 208.2172,-349.0902 208.2173,-342.0902"/>
</g>
<!-- {
 &#160;&#160;&#160;: , : , : true
} -->
<g id="node5" class="node">
<title>{
 &#160;&#160;&#160;: , : , : true
}</title>
<ellipse fill="#fdb462" stroke="#000000" cx="408" cy="-127.295" rx="62.3631" ry="41.0911"/>
<text text-anchor="middle" x="408" y="-139.895" font-family="Times,serif" font-size="14.00" fill="#000000">{</text>
<text text-anchor="middle" x="408" y="-123.095" font-family="Times,serif" font-size="14.00" fill="#000000"> &#160;&#160;&#160;: , : , : true</text>
<text text-anchor="middle" x="408" y="-106.295" font-family="Times,serif" font-size="14.00" fill="#000000">}</text>
</g>
<!-- {
 &#160;&#160;&#160;: , : , : true
}&#45;&gt;Dropdown -->
<g id="edge2" class="edge">
<title>{
 &#160;&#160;&#160;: , : , : true
}&#45;&gt;Dropdown</title>
<path fill="none" stroke="#000000" d="M432,-165.509C432,-165.509 432,-187.2098 432,-187.2098"/>
<polygon fill="#000000" stroke="#000000" points="428.5001,-187.2098 432,-197.2098 435.5001,-187.2099 428.5001,-187.2098"/>
</g>
<!-- StaticIconModule -->
<g id="node6" class="node">
<title>StaticIconModule</title>
<polygon fill="#8dd3c7" stroke="#000000" points="142.309,-233.5901 139.309,-237.5901 118.309,-237.5901 115.309,-233.5901 25.691,-233.5901 25.691,-197.5901 142.309,-197.5901 142.309,-233.5901"/>
<text text-anchor="middle" x="84" y="-211.3901" font-family="Times,serif" font-size="14.00" fill="#000000">StaticIconModule</text>
</g>
<!-- StaticIconModule&#45;&gt;DropdownModule -->
<g id="edge5" class="edge">
<title>StaticIconModule&#45;&gt;DropdownModule</title>
<path fill="none" stroke="#000000" d="M121.0679,-233.6962C121.0679,-252.9292 121.0679,-280.5901 121.0679,-280.5901 121.0679,-280.5901 197.2227,-280.5901 197.2227,-280.5901"/>
<polygon fill="#000000" stroke="#000000" points="197.2228,-284.0902 207.2227,-280.5901 197.2227,-277.0902 197.2228,-284.0902"/>
</g>
</g>
</svg>
