<?xml version="1.0" encoding="UTF-8" standalone="no"?>
<!DOCTYPE svg PUBLIC "-//W3C//DTD SVG 1.1//EN"
 "http://www.w3.org/Graphics/SVG/1.1/DTD/svg11.dtd">
<!-- Generated by graphviz version 2.40.1 (20161225.0304)
 -->
<!-- Title: dependencies Pages: 1 -->
<svg width="504pt" height="284pt"
 viewBox="0.00 0.00 504.00 284.00" xmlns="http://www.w3.org/2000/svg" xmlns:xlink="http://www.w3.org/1999/xlink">
<g id="graph0" class="graph" transform="scale(1 1) rotate(0) translate(4 280)">
<title>dependencies</title>
<polygon fill="#ffffff" stroke="transparent" points="-4,4 -4,-280 500,-280 500,4 -4,4"/>
<text text-anchor="start" x="227.0091" y="-42.4" font-family="sans-serif" font-weight="bold" font-size="14.00" fill="#000000">Legend</text>
<polygon fill="#ffffb3" stroke="transparent" points="14,-10 14,-30 34,-30 34,-10 14,-10"/>
<text text-anchor="start" x="37.629" y="-15.4" font-family="sans-serif" font-size="14.00" fill="#000000"> &#160;Declarations</text>
<polygon fill="#8dd3c7" stroke="transparent" points="127,-10 127,-30 147,-30 147,-10 127,-10"/>
<text text-anchor="start" x="150.7251" y="-15.4" font-family="sans-serif" font-size="14.00" fill="#000000"> &#160;Module</text>
<polygon fill="#80b1d3" stroke="transparent" points="213,-10 213,-30 233,-30 233,-10 213,-10"/>
<text text-anchor="start" x="236.7812" y="-15.4" font-family="sans-serif" font-size="14.00" fill="#000000"> &#160;Bootstrap</text>
<polygon fill="#fdb462" stroke="transparent" points="310,-10 310,-30 330,-30 330,-10 310,-10"/>
<text text-anchor="start" x="333.6732" y="-15.4" font-family="sans-serif" font-size="14.00" fill="#000000"> &#160;Providers</text>
<polygon fill="#fb8072" stroke="transparent" points="406,-10 406,-30 426,-30 426,-10 406,-10"/>
<text text-anchor="start" x="429.7258" y="-15.4" font-family="sans-serif" font-size="14.00" fill="#000000"> &#160;Exports</text>
<g id="clust1" class="cluster">
<title>cluster_DropdownModule</title>
<polygon fill="none" stroke="#000000" stroke-dasharray="1,5" points="10,-70 10,-268 486,-268 486,-70 10,-70"/>
</g>
<g id="clust2" class="cluster">
<title>cluster_DropdownModule_declarations</title>
<polygon fill="none" stroke="#000000" points="158,-78 158,-130 478,-130 478,-78 158,-78"/>
</g>
<g id="clust6" class="cluster">
<title>cluster_DropdownModule_imports</title>
<polygon fill="none" stroke="#000000" points="18,-78 18,-130 150,-130 150,-78 18,-78"/>
</g>
<g id="clust7" class="cluster">
<title>cluster_DropdownModule_exports</title>
<polygon fill="none" stroke="#000000" points="92,-208 92,-260 423,-260 423,-208 92,-208"/>
</g>
<!-- Dropdown -->
<g id="node1" class="node">
<title>Dropdown</title>
<polygon fill="#ffffb3" stroke="#000000" points="469.8739,-122 394.1261,-122 394.1261,-86 469.8739,-86 469.8739,-122"/>
<text text-anchor="middle" x="432" y="-99.8" font-family="Times,serif" font-size="14.00" fill="#000000">Dropdown</text>
</g>
<!-- DropdownModule -->
<g id="node4" class="node">
<title>DropdownModule</title>
<polygon fill="#8dd3c7" stroke="#000000" points="326.9244,-187 323.9244,-191 302.9244,-191 299.9244,-187 207.0756,-187 207.0756,-151 326.9244,-151 326.9244,-187"/>
<text text-anchor="middle" x="267" y="-164.8" font-family="Times,serif" font-size="14.00" fill="#000000">DropdownModule</text>
</g>
<!-- Dropdown&#45;&gt;DropdownModule -->
<g id="edge1" class="edge">
<title>Dropdown&#45;&gt;DropdownModule</title>
<path fill="none" stroke="#000000" d="M404.375,-122.1061C404.375,-141.3391 404.375,-169 404.375,-169 404.375,-169 336.855,-169 336.855,-169"/>
<polygon fill="#000000" stroke="#000000" points="336.8551,-165.5001 326.855,-169 336.855,-172.5001 336.8551,-165.5001"/>
</g>
<!-- DropdownList -->
<g id="node2" class="node">
<title>DropdownList</title>
<polygon fill="#ffffb3" stroke="#000000" points="375.6528,-122 278.3472,-122 278.3472,-86 375.6528,-86 375.6528,-122"/>
<text text-anchor="middle" x="327" y="-99.8" font-family="Times,serif" font-size="14.00" fill="#000000">DropdownList</text>
</g>
<!-- DropdownList&#45;&gt;DropdownModule -->
<g id="edge2" class="edge">
<title>DropdownList&#45;&gt;DropdownModule</title>
<path fill="none" stroke="#000000" d="M302.4429,-122.1061C302.4429,-122.1061 302.4429,-140.991 302.4429,-140.991"/>
<polygon fill="#000000" stroke="#000000" points="298.9429,-140.9909 302.4429,-150.991 305.9429,-140.991 298.9429,-140.9909"/>
</g>
<!-- ScrollableList -->
<g id="node3" class="node">
<title>ScrollableList</title>
<polygon fill="#ffffb3" stroke="#000000" points="260.0383,-122 165.9617,-122 165.9617,-86 260.0383,-86 260.0383,-122"/>
<text text-anchor="middle" x="213" y="-99.8" font-family="Times,serif" font-size="14.00" fill="#000000">ScrollableList</text>
</g>
<!-- ScrollableList&#45;&gt;DropdownModule -->
<g id="edge3" class="edge">
<title>ScrollableList&#45;&gt;DropdownModule</title>
<path fill="none" stroke="#000000" d="M233.7784,-122.1061C233.7784,-122.1061 233.7784,-140.991 233.7784,-140.991"/>
<polygon fill="#000000" stroke="#000000" points="230.2785,-140.9909 233.7784,-150.991 237.2785,-140.991 230.2785,-140.9909"/>
</g>
<!-- Dropdown  -->
<g id="node6" class="node">
<title>Dropdown </title>
<polygon fill="#fb8072" stroke="#000000" points="414.8747,-252 335.1253,-252 335.1253,-216 414.8747,-216 414.8747,-252"/>
<text text-anchor="middle" x="375" y="-229.8" font-family="Times,serif" font-size="14.00" fill="#000000">Dropdown </text>
</g>
<!-- DropdownModule&#45;&gt;Dropdown  -->
<g id="edge5" class="edge">
<title>DropdownModule&#45;&gt;Dropdown </title>
<path fill="none" stroke="#000000" stroke-dasharray="5,2" d="M322.144,-187.1061C322.144,-206.3391 322.144,-234 322.144,-234 322.144,-234 325.2095,-234 325.2095,-234"/>
<polygon fill="#000000" stroke="#000000" points="325.2095,-237.5001 335.2095,-234 325.2095,-230.5001 325.2095,-237.5001"/>
</g>
<!-- DropdownList  -->
<g id="node7" class="node">
<title>DropdownList </title>
<polygon fill="#fb8072" stroke="#000000" points="317.6523,-252 216.3477,-252 216.3477,-216 317.6523,-216 317.6523,-252"/>
<text text-anchor="middle" x="267" y="-229.8" font-family="Times,serif" font-size="14.00" fill="#000000">DropdownList </text>
</g>
<!-- DropdownModule&#45;&gt;DropdownList  -->
<g id="edge6" class="edge">
<title>DropdownModule&#45;&gt;DropdownList </title>
<path fill="none" stroke="#000000" stroke-dasharray="5,2" d="M267,-187.1061C267,-187.1061 267,-205.991 267,-205.991"/>
<polygon fill="#000000" stroke="#000000" points="263.5001,-205.9909 267,-215.991 270.5001,-205.991 263.5001,-205.9909"/>
</g>
<!-- ScrollableList  -->
<g id="node8" class="node">
<title>ScrollableList </title>
<polygon fill="#fb8072" stroke="#000000" points="198.0372,-252 99.9628,-252 99.9628,-216 198.0372,-216 198.0372,-252"/>
<text text-anchor="middle" x="149" y="-229.8" font-family="Times,serif" font-size="14.00" fill="#000000">ScrollableList </text>
</g>
<!-- DropdownModule&#45;&gt;ScrollableList  -->
<g id="edge7" class="edge">
<title>DropdownModule&#45;&gt;ScrollableList </title>
<path fill="none" stroke="#000000" stroke-dasharray="5,2" d="M211.8561,-187.1061C211.8561,-206.3391 211.8561,-234 211.8561,-234 211.8561,-234 208.2172,-234 208.2172,-234"/>
<polygon fill="#000000" stroke="#000000" points="208.2173,-230.5001 198.2172,-234 208.2172,-237.5001 208.2173,-230.5001"/>
</g>
<!-- StaticIconModule -->
<g id="node5" class="node">
<title>StaticIconModule</title>
<polygon fill="#8dd3c7" stroke="#000000" points="142.309,-122 139.309,-126 118.309,-126 115.309,-122 25.691,-122 25.691,-86 142.309,-86 142.309,-122"/>
<text text-anchor="middle" x="84" y="-99.8" font-family="Times,serif" font-size="14.00" fill="#000000">StaticIconModule</text>
</g>
<!-- StaticIconModule&#45;&gt;DropdownModule -->
<g id="edge4" class="edge">
<title>StaticIconModule&#45;&gt;DropdownModule</title>
<path fill="none" stroke="#000000" d="M121.0679,-122.1061C121.0679,-141.3391 121.0679,-169 121.0679,-169 121.0679,-169 197.2227,-169 197.2227,-169"/>
<polygon fill="#000000" stroke="#000000" points="197.2228,-172.5001 207.2227,-169 197.2227,-165.5001 197.2228,-172.5001"/>
</g>
</g>
</svg>
