<?xml version="1.0" encoding="UTF-8" standalone="no"?>
<!DOCTYPE svg PUBLIC "-//W3C//DTD SVG 1.1//EN"
 "http://www.w3.org/Graphics/SVG/1.1/DTD/svg11.dtd">
<!-- Generated by graphviz version 2.40.1 (20161225.0304)
 -->
<!-- Title: dependencies Pages: 1 -->
<svg width="905pt" height="349pt"
 viewBox="0.00 0.00 905.00 349.00" xmlns="http://www.w3.org/2000/svg" xmlns:xlink="http://www.w3.org/1999/xlink">
<g id="graph0" class="graph" transform="scale(1 1) rotate(0) translate(4 345)">
<title>dependencies</title>
<polygon fill="#ffffff" stroke="transparent" points="-4,4 -4,-345 901,-345 901,4 -4,4"/>
<text text-anchor="start" x="427.5091" y="-42.4" font-family="sans-serif" font-weight="bold" font-size="14.00" fill="#000000">Legend</text>
<polygon fill="#ffffb3" stroke="transparent" points="214.5,-10 214.5,-30 234.5,-30 234.5,-10 214.5,-10"/>
<text text-anchor="start" x="238.129" y="-15.4" font-family="sans-serif" font-size="14.00" fill="#000000"> &#160;Declarations</text>
<polygon fill="#8dd3c7" stroke="transparent" points="327.5,-10 327.5,-30 347.5,-30 347.5,-10 327.5,-10"/>
<text text-anchor="start" x="351.2251" y="-15.4" font-family="sans-serif" font-size="14.00" fill="#000000"> &#160;Module</text>
<polygon fill="#80b1d3" stroke="transparent" points="413.5,-10 413.5,-30 433.5,-30 433.5,-10 413.5,-10"/>
<text text-anchor="start" x="437.2812" y="-15.4" font-family="sans-serif" font-size="14.00" fill="#000000"> &#160;Bootstrap</text>
<polygon fill="#fdb462" stroke="transparent" points="510.5,-10 510.5,-30 530.5,-30 530.5,-10 510.5,-10"/>
<text text-anchor="start" x="534.1732" y="-15.4" font-family="sans-serif" font-size="14.00" fill="#000000"> &#160;Providers</text>
<polygon fill="#fb8072" stroke="transparent" points="606.5,-10 606.5,-30 626.5,-30 626.5,-10 606.5,-10"/>
<text text-anchor="start" x="630.2258" y="-15.4" font-family="sans-serif" font-size="14.00" fill="#000000"> &#160;Exports</text>
<g id="clust1" class="cluster">
<title>cluster_NotificationModule</title>
<polygon fill="none" stroke="#000000" stroke-dasharray="1,5" points="8,-70 8,-333 889,-333 889,-70 8,-70"/>
</g>
<g id="clust2" class="cluster">
<title>cluster_NotificationModule_declarations</title>
<polygon fill="none" stroke="#000000" points="709,-143 709,-195 881,-195 881,-143 709,-143"/>
</g>
<g id="clust4" class="cluster">
<title>cluster_NotificationModule_Toast_providers</title>
<polygon fill="none" stroke="#000000" points="668,-78 668,-130 820,-130 820,-78 668,-78"/>
</g>
<g id="clust5" class="cluster">
<title>cluster_NotificationModule_imports</title>
<polygon fill="none" stroke="#000000" points="465,-143 465,-195 701,-195 701,-143 465,-143"/>
</g>
<g id="clust6" class="cluster">
<title>cluster_NotificationModule_exports</title>
<polygon fill="none" stroke="#000000" points="538,-273 538,-325 642,-325 642,-273 538,-273"/>
</g>
<g id="clust8" class="cluster">
<title>cluster_NotificationModule_providers</title>
<polygon fill="none" stroke="#000000" points="16,-143 16,-195 457,-195 457,-143 16,-143"/>
</g>
<!-- Notification -->
<g id="node1" class="node">
<title>Notification</title>
<polygon fill="#ffffb3" stroke="#000000" points="872.6501,-187 789.3499,-187 789.3499,-151 872.6501,-151 872.6501,-187"/>
<text text-anchor="middle" x="831" y="-164.8" font-family="Times,serif" font-size="14.00" fill="#000000">Notification</text>
</g>
<!-- NotificationModule -->
<g id="node3" class="node">
<title>NotificationModule</title>
<polygon fill="#8dd3c7" stroke="#000000" points="653.6994,-252 650.6994,-256 629.6994,-256 626.6994,-252 526.3006,-252 526.3006,-216 653.6994,-216 653.6994,-252"/>
<text text-anchor="middle" x="590" y="-229.8" font-family="Times,serif" font-size="14.00" fill="#000000">NotificationModule</text>
</g>
<!-- Notification&#45;&gt;NotificationModule -->
<g id="edge1" class="edge">
<title>Notification&#45;&gt;NotificationModule</title>
<path fill="none" stroke="#000000" d="M831,-187.2843C831,-208.3211 831,-240 831,-240 831,-240 663.6352,-240 663.6352,-240"/>
<polygon fill="#000000" stroke="#000000" points="663.6352,-236.5001 653.6352,-240 663.6351,-243.5001 663.6352,-236.5001"/>
</g>
<!-- Toast -->
<g id="node2" class="node">
<title>Toast</title>
<polygon fill="#ffffb3" stroke="#000000" points="771,-187 717,-187 717,-151 771,-151 771,-187"/>
<text text-anchor="middle" x="744" y="-164.8" font-family="Times,serif" font-size="14.00" fill="#000000">Toast</text>
</g>
<!-- Toast&#45;&gt;NotificationModule -->
<g id="edge2" class="edge">
<title>Toast&#45;&gt;NotificationModule</title>
<path fill="none" stroke="#000000" d="M744,-187.0225C744,-204.3734 744,-228 744,-228 744,-228 663.972,-228 663.972,-228"/>
<polygon fill="#000000" stroke="#000000" points="663.972,-224.5001 653.972,-228 663.9719,-231.5001 663.972,-224.5001"/>
</g>
<!-- Notification  -->
<g id="node7" class="node">
<title>Notification </title>
<polygon fill="#fb8072" stroke="#000000" points="633.6495,-317 546.3505,-317 546.3505,-281 633.6495,-281 633.6495,-317"/>
<text text-anchor="middle" x="590" y="-294.8" font-family="Times,serif" font-size="14.00" fill="#000000">Notification </text>
</g>
<!-- NotificationModule&#45;&gt;Notification  -->
<g id="edge6" class="edge">
<title>NotificationModule&#45;&gt;Notification </title>
<path fill="none" stroke="#000000" stroke-dasharray="5,2" d="M590,-252.1061C590,-252.1061 590,-270.991 590,-270.991"/>
<polygon fill="#000000" stroke="#000000" points="586.5001,-270.9909 590,-280.991 593.5001,-270.991 586.5001,-270.9909"/>
</g>
<!-- BannerService -->
<g id="node4" class="node">
<title>BannerService</title>
<ellipse fill="#fdb462" stroke="#000000" cx="744" cy="-104" rx="67.7548" ry="18"/>
<text text-anchor="middle" x="744" y="-99.8" font-family="Times,serif" font-size="14.00" fill="#000000">BannerService</text>
</g>
<!-- BannerService&#45;&gt;Toast -->
<g id="edge3" class="edge">
<title>BannerService&#45;&gt;Toast</title>
<path fill="none" stroke="#000000" d="M744,-122.1061C744,-122.1061 744,-140.991 744,-140.991"/>
<polygon fill="#000000" stroke="#000000" points="740.5001,-140.9909 744,-150.991 747.5001,-140.991 740.5001,-140.9909"/>
</g>
<!-- I18nModule -->
<g id="node5" class="node">
<title>I18nModule</title>
<polygon fill="#8dd3c7" stroke="#000000" points="692.7107,-187 689.7107,-191 668.7107,-191 665.7107,-187 607.2893,-187 607.2893,-151 692.7107,-151 692.7107,-187"/>
<text text-anchor="middle" x="650" y="-164.8" font-family="Times,serif" font-size="14.00" fill="#000000">I18nModule</text>
</g>
<!-- I18nModule&#45;&gt;NotificationModule -->
<g id="edge4" class="edge">
<title>I18nModule&#45;&gt;NotificationModule</title>
<path fill="none" stroke="#000000" d="M630.4972,-187.1061C630.4972,-187.1061 630.4972,-205.991 630.4972,-205.991"/>
<polygon fill="#000000" stroke="#000000" points="626.9973,-205.9909 630.4972,-215.991 633.9973,-205.991 626.9973,-205.9909"/>
</g>
<!-- StaticIconModule -->
<g id="node6" class="node">
<title>StaticIconModule</title>
<polygon fill="#8dd3c7" stroke="#000000" points="589.309,-187 586.309,-191 565.309,-191 562.309,-187 472.691,-187 472.691,-151 589.309,-151 589.309,-187"/>
<text text-anchor="middle" x="531" y="-164.8" font-family="Times,serif" font-size="14.00" fill="#000000">StaticIconModule</text>
</g>
<!-- StaticIconModule&#45;&gt;NotificationModule -->
<g id="edge5" class="edge">
<title>StaticIconModule&#45;&gt;NotificationModule</title>
<path fill="none" stroke="#000000" d="M557.7774,-187.1061C557.7774,-187.1061 557.7774,-205.991 557.7774,-205.991"/>
<polygon fill="#000000" stroke="#000000" points="554.2774,-205.9909 557.7774,-215.991 561.2774,-205.991 554.2774,-205.9909"/>
</g>
<!-- NotificationDisplayService -->
<g id="node8" class="node">
<title>NotificationDisplayService</title>
<ellipse fill="#fdb462" stroke="#000000" cx="332" cy="-169" rx="116.8866" ry="18"/>
<text text-anchor="middle" x="332" y="-164.8" font-family="Times,serif" font-size="14.00" fill="#000000">NotificationDisplayService</text>
</g>
<!-- NotificationDisplayService&#45;&gt;NotificationModule -->
<g id="edge7" class="edge">
<title>NotificationDisplayService&#45;&gt;NotificationModule</title>
<path fill="none" stroke="#000000" d="M332,-187.0225C332,-204.3734 332,-228 332,-228 332,-228 516.2247,-228 516.2247,-228"/>
<polygon fill="#000000" stroke="#000000" points="516.2247,-231.5001 526.2247,-228 516.2247,-224.5001 516.2247,-231.5001"/>
</g>
<!-- NotificationService -->
<g id="node9" class="node">
<title>NotificationService</title>
<ellipse fill="#fdb462" stroke="#000000" cx="111" cy="-169" rx="86.8107" ry="18"/>
<text text-anchor="middle" x="111" y="-164.8" font-family="Times,serif" font-size="14.00" fill="#000000">NotificationService</text>
</g>
<!-- NotificationService&#45;&gt;NotificationModule -->
<g id="edge8" class="edge">
<title>NotificationService&#45;&gt;NotificationModule</title>
<path fill="none" stroke="#000000" d="M111,-187.2843C111,-208.3211 111,-240 111,-240 111,-240 516.3925,-240 516.3925,-240"/>
<polygon fill="#000000" stroke="#000000" points="516.3925,-243.5001 526.3925,-240 516.3925,-236.5001 516.3925,-243.5001"/>
</g>
</g>
</svg>
