<?xml version="1.0" encoding="UTF-8" standalone="no"?>
<!DOCTYPE svg PUBLIC "-//W3C//DTD SVG 1.1//EN"
 "http://www.w3.org/Graphics/SVG/1.1/DTD/svg11.dtd">
<!-- Generated by graphviz version 2.40.1 (20161225.0304)
 -->
<!-- Title: dependencies Pages: 1 -->
<svg width="684pt" height="396pt"
 viewBox="0.00 0.00 684.00 395.59" xmlns="http://www.w3.org/2000/svg" xmlns:xlink="http://www.w3.org/1999/xlink">
<g id="graph0" class="graph" transform="scale(1 1) rotate(0) translate(4 391.5901)">
<title>dependencies</title>
<polygon fill="#ffffff" stroke="transparent" points="-4,4 -4,-391.5901 680,-391.5901 680,4 -4,4"/>
<text text-anchor="start" x="317.0091" y="-42.4" font-family="sans-serif" font-weight="bold" font-size="14.00" fill="#000000">Legend</text>
<polygon fill="#ffffb3" stroke="transparent" points="104,-10 104,-30 124,-30 124,-10 104,-10"/>
<text text-anchor="start" x="127.629" y="-15.4" font-family="sans-serif" font-size="14.00" fill="#000000"> &#160;Declarations</text>
<polygon fill="#8dd3c7" stroke="transparent" points="217,-10 217,-30 237,-30 237,-10 217,-10"/>
<text text-anchor="start" x="240.7251" y="-15.4" font-family="sans-serif" font-size="14.00" fill="#000000"> &#160;Module</text>
<polygon fill="#80b1d3" stroke="transparent" points="303,-10 303,-30 323,-30 323,-10 303,-10"/>
<text text-anchor="start" x="326.7812" y="-15.4" font-family="sans-serif" font-size="14.00" fill="#000000"> &#160;Bootstrap</text>
<polygon fill="#fdb462" stroke="transparent" points="400,-10 400,-30 420,-30 420,-10 400,-10"/>
<text text-anchor="start" x="423.6732" y="-15.4" font-family="sans-serif" font-size="14.00" fill="#000000"> &#160;Providers</text>
<polygon fill="#fb8072" stroke="transparent" points="496,-10 496,-30 516,-30 516,-10 496,-10"/>
<text text-anchor="start" x="519.7258" y="-15.4" font-family="sans-serif" font-size="14.00" fill="#000000"> &#160;Exports</text>
<g id="clust1" class="cluster">
<title>cluster_ComboBoxModule</title>
<polygon fill="none" stroke="#000000" stroke-dasharray="1,5" points="8,-70 8,-379.5901 668,-379.5901 668,-70 8,-70"/>
</g>
<g id="clust2" class="cluster">
<title>cluster_ComboBoxModule_declarations</title>
<polygon fill="none" stroke="#000000" points="367,-189.5901 367,-241.5901 463,-241.5901 463,-189.5901 367,-189.5901"/>
</g>
<g id="clust3" class="cluster">
<title>cluster_ComboBoxModule_ComboBox_providers</title>
<polygon fill="none" stroke="#000000" points="16,-78 16,-176.5901 660,-176.5901 660,-78 16,-78"/>
</g>
<g id="clust4" class="cluster">
<title>cluster_ComboBoxModule_imports</title>
<polygon fill="none" stroke="#000000" points="16,-189.5901 16,-241.5901 359,-241.5901 359,-189.5901 16,-189.5901"/>
</g>
<g id="clust5" class="cluster">
<title>cluster_ComboBoxModule_exports</title>
<polygon fill="none" stroke="#000000" points="102,-319.5901 102,-371.5901 342,-371.5901 342,-319.5901 102,-319.5901"/>
</g>
<!-- ComboBox -->
<g id="node1" class="node">
<title>ComboBox</title>
<polygon fill="#ffffb3" stroke="#000000" points="455.065,-233.5901 374.935,-233.5901 374.935,-197.5901 455.065,-197.5901 455.065,-233.5901"/>
<text text-anchor="middle" x="415" y="-211.3901" font-family="Times,serif" font-size="14.00" fill="#000000">ComboBox</text>
</g>
<!-- ComboBoxModule -->
<g id="node2" class="node">
<title>ComboBoxModule</title>
<polygon fill="#8dd3c7" stroke="#000000" points="293.1137,-298.5901 290.1137,-302.5901 269.1137,-302.5901 266.1137,-298.5901 168.8863,-298.5901 168.8863,-262.5901 293.1137,-262.5901 293.1137,-298.5901"/>
<text text-anchor="middle" x="231" y="-276.3901" font-family="Times,serif" font-size="14.00" fill="#000000">ComboBoxModule</text>
</g>
<!-- ComboBox&#45;&gt;ComboBoxModule -->
<g id="edge1" class="edge">
<title>ComboBox&#45;&gt;ComboBoxModule</title>
<path fill="none" stroke="#000000" d="M415,-233.6962C415,-252.9292 415,-280.5901 415,-280.5901 415,-280.5901 303.294,-280.5901 303.294,-280.5901"/>
<polygon fill="#000000" stroke="#000000" points="303.294,-277.0902 293.294,-280.5901 303.294,-284.0902 303.294,-277.0902"/>
</g>
<!-- ComboBox  -->
<g id="node7" class="node">
<title>ComboBox </title>
<polygon fill="#fb8072" stroke="#000000" points="334.0638,-363.5901 249.9362,-363.5901 249.9362,-327.5901 334.0638,-327.5901 334.0638,-363.5901"/>
<text text-anchor="middle" x="292" y="-341.3901" font-family="Times,serif" font-size="14.00" fill="#000000">ComboBox </text>
</g>
<!-- ComboBoxModule&#45;&gt;ComboBox  -->
<g id="edge6" class="edge">
<title>ComboBoxModule&#45;&gt;ComboBox </title>
<path fill="none" stroke="#000000" stroke-dasharray="5,2" d="M271.5125,-298.6962C271.5125,-298.6962 271.5125,-317.581 271.5125,-317.581"/>
<polygon fill="#000000" stroke="#000000" points="268.0125,-317.581 271.5125,-327.581 275.0125,-317.5811 268.0125,-317.581"/>
</g>
<!-- DropdownModule  -->
<g id="node8" class="node">
<title>DropdownModule </title>
<polygon fill="#fb8072" stroke="#000000" points="232.4236,-363.5901 109.5764,-363.5901 109.5764,-327.5901 232.4236,-327.5901 232.4236,-363.5901"/>
<text text-anchor="middle" x="171" y="-341.3901" font-family="Times,serif" font-size="14.00" fill="#000000">DropdownModule </text>
</g>
<!-- ComboBoxModule&#45;&gt;DropdownModule  -->
<g id="edge7" class="edge">
<title>ComboBoxModule&#45;&gt;DropdownModule </title>
<path fill="none" stroke="#000000" stroke-dasharray="5,2" d="M200.7025,-298.6962C200.7025,-298.6962 200.7025,-317.581 200.7025,-317.581"/>
<polygon fill="#000000" stroke="#000000" points="197.2026,-317.581 200.7025,-327.581 204.2026,-317.5811 197.2026,-317.581"/>
</g>
<!-- {
 &#160;&#160;&#160;provide: NG_VALUE_ACCESSOR, useExisting: ComboBox, multi: true
} -->
<g id="node3" class="node">
<title>{
 &#160;&#160;&#160;provide: NG_VALUE_ACCESSOR, useExisting: ComboBox, multi: true
}</title>
<ellipse fill="#fdb462" stroke="#000000" cx="338" cy="-127.295" rx="314.1043" ry="41.0911"/>
<text text-anchor="middle" x="338" y="-139.895" font-family="Times,serif" font-size="14.00" fill="#000000">{</text>
<text text-anchor="middle" x="338" y="-123.095" font-family="Times,serif" font-size="14.00" fill="#000000"> &#160;&#160;&#160;provide: NG_VALUE_ACCESSOR, useExisting: ComboBox, multi: true</text>
<text text-anchor="middle" x="338" y="-106.295" font-family="Times,serif" font-size="14.00" fill="#000000">}</text>
</g>
<!-- {
 &#160;&#160;&#160;provide: NG_VALUE_ACCESSOR, useExisting: ComboBox, multi: true
}&#45;&gt;ComboBox -->
<g id="edge2" class="edge">
<title>{
 &#160;&#160;&#160;provide: NG_VALUE_ACCESSOR, useExisting: ComboBox, multi: true
}&#45;&gt;ComboBox</title>
<path fill="none" stroke="#000000" d="M415,-167.5668C415,-167.5668 415,-187.2266 415,-187.2266"/>
<polygon fill="#000000" stroke="#000000" points="411.5001,-187.2266 415,-197.2266 418.5001,-187.2266 411.5001,-187.2266"/>
</g>
<!-- DropdownModule -->
<g id="node4" class="node">
<title>DropdownModule</title>
<polygon fill="#8dd3c7" stroke="#000000" points="350.9244,-233.5901 347.9244,-237.5901 326.9244,-237.5901 323.9244,-233.5901 231.0756,-233.5901 231.0756,-197.5901 350.9244,-197.5901 350.9244,-233.5901"/>
<text text-anchor="middle" x="291" y="-211.3901" font-family="Times,serif" font-size="14.00" fill="#000000">DropdownModule</text>
</g>
<!-- DropdownModule&#45;&gt;ComboBoxModule -->
<g id="edge3" class="edge">
<title>DropdownModule&#45;&gt;ComboBoxModule</title>
<path fill="none" stroke="#000000" d="M262.1725,-233.6962C262.1725,-233.6962 262.1725,-252.581 262.1725,-252.581"/>
<polygon fill="#000000" stroke="#000000" points="258.6726,-252.581 262.1725,-262.581 265.6726,-252.5811 258.6726,-252.581"/>
</g>
<!-- I18nModule -->
<g id="node5" class="node">
<title>I18nModule</title>
<polygon fill="#8dd3c7" stroke="#000000" points="213.7107,-233.5901 210.7107,-237.5901 189.7107,-237.5901 186.7107,-233.5901 128.2893,-233.5901 128.2893,-197.5901 213.7107,-197.5901 213.7107,-233.5901"/>
<text text-anchor="middle" x="171" y="-211.3901" font-family="Times,serif" font-size="14.00" fill="#000000">I18nModule</text>
</g>
<!-- I18nModule&#45;&gt;ComboBoxModule -->
<g id="edge4" class="edge">
<title>I18nModule&#45;&gt;ComboBoxModule</title>
<path fill="none" stroke="#000000" d="M191.2742,-233.6962C191.2742,-233.6962 191.2742,-252.581 191.2742,-252.581"/>
<polygon fill="#000000" stroke="#000000" points="187.7743,-252.581 191.2742,-262.581 194.7743,-252.5811 187.7743,-252.581"/>
</g>
<!-- UtilsModule -->
<g id="node6" class="node">
<title>UtilsModule</title>
<polygon fill="#8dd3c7" stroke="#000000" points="110.2731,-233.5901 107.2731,-237.5901 86.2731,-237.5901 83.2731,-233.5901 23.7269,-233.5901 23.7269,-197.5901 110.2731,-197.5901 110.2731,-233.5901"/>
<text text-anchor="middle" x="67" y="-211.3901" font-family="Times,serif" font-size="14.00" fill="#000000">UtilsModule</text>
</g>
<!-- UtilsModule&#45;&gt;ComboBoxModule -->
<g id="edge5" class="edge">
<title>UtilsModule&#45;&gt;ComboBoxModule</title>
<path fill="none" stroke="#000000" d="M66.5759,-233.6962C66.5759,-252.9292 66.5759,-280.5901 66.5759,-280.5901 66.5759,-280.5901 158.8383,-280.5901 158.8383,-280.5901"/>
<polygon fill="#000000" stroke="#000000" points="158.8383,-284.0902 168.8383,-280.5901 158.8383,-277.0902 158.8383,-284.0902"/>
</g>
</g>
</svg>
