<?xml version="1.0" encoding="UTF-8" standalone="no"?>
<!DOCTYPE svg PUBLIC "-//W3C//DTD SVG 1.1//EN"
 "http://www.w3.org/Graphics/SVG/1.1/DTD/svg11.dtd">
<!-- Generated by graphviz version 2.47.0 (20210316.0004)
 -->
<!-- Title: dependencies Pages: 1 -->
<svg width="504pt" height="284pt"
 viewBox="0.00 0.00 504.00 284.00" xmlns="http://www.w3.org/2000/svg" xmlns:xlink="http://www.w3.org/1999/xlink">
<g id="graph0" class="graph" transform="scale(1 1) rotate(0) translate(4 280)">
<title>dependencies</title>
<polygon fill="white" stroke="transparent" points="-4,4 -4,-280 500,-280 500,4 -4,4"/>
<text text-anchor="start" x="227.01" y="-42.4" font-family="Times-12" font-weight="bold" font-size="14.00">Legend</text>
<polygon fill="#ffffb3" stroke="transparent" points="14,-10 14,-30 34,-30 34,-10 14,-10"/>
<text text-anchor="start" x="37.63" y="-15.4" font-family="Times-12" font-size="14.00"> &#160;Declarations</text>
<polygon fill="#8dd3c7" stroke="transparent" points="127,-10 127,-30 147,-30 147,-10 127,-10"/>
<text text-anchor="start" x="150.73" y="-15.4" font-family="Times-12" font-size="14.00"> &#160;Module</text>
<polygon fill="#80b1d3" stroke="transparent" points="213,-10 213,-30 233,-30 233,-10 213,-10"/>
<text text-anchor="start" x="236.78" y="-15.4" font-family="Times-12" font-size="14.00"> &#160;Bootstrap</text>
<polygon fill="#fdb462" stroke="transparent" points="310,-10 310,-30 330,-30 330,-10 310,-10"/>
<text text-anchor="start" x="333.67" y="-15.4" font-family="Times-12" font-size="14.00"> &#160;Providers</text>
<polygon fill="#fb8072" stroke="transparent" points="406,-10 406,-30 426,-30 426,-10 406,-10"/>
<text text-anchor="start" x="429.73" y="-15.4" font-family="Times-12" font-size="14.00"> &#160;Exports</text>
<g id="clust1" class="cluster">
<title>cluster_PopoverModule</title>
<polygon fill="none" stroke="black" stroke-dasharray="1,5" points="107,-70 107,-268 389,-268 389,-70 107,-70"/>
</g>
<g id="clust2" class="cluster">
<title>cluster_PopoverModule_declarations</title>
<polygon fill="none" stroke="black" points="119,-78 119,-130 377,-130 377,-78 119,-78"/>
</g>
<g id="clust6" class="cluster">
<title>cluster_PopoverModule_exports</title>
<polygon fill="none" stroke="black" points="115,-208 115,-260 381,-260 381,-208 115,-208"/>
</g>
<!-- PopoverContainer -->
<g id="node1" class="node">
<title>PopoverContainer</title>
<polygon fill="#ffffb3" stroke="black" points="368.87,-122 251.13,-122 251.13,-86 368.87,-86 368.87,-122"/>
<text text-anchor="middle" x="310" y="-99.8" font-family="Times,serif" font-size="14.00">PopoverContainer</text>
</g>
<!-- PopoverModule -->
<g id="node3" class="node">
<title>PopoverModule</title>
<polygon fill="#8dd3c7" stroke="black" points="234.21,-187 231.21,-191 210.21,-191 207.21,-187 127.79,-187 127.79,-151 234.21,-151 234.21,-187"/>
<text text-anchor="middle" x="181" y="-164.8" font-family="Times,serif" font-size="14.00">PopoverModule</text>
</g>
<!-- PopoverContainer&#45;&gt;PopoverModule -->
<g id="edge1" class="edge">
<title>PopoverContainer&#45;&gt;PopoverModule</title>
<path fill="none" stroke="black" d="M329.73,-122.02C329.73,-139.37 329.73,-163 329.73,-163 329.73,-163 244.27,-163 244.27,-163"/>
<polygon fill="black" stroke="black" points="244.27,-159.5 234.27,-163 244.27,-166.5 244.27,-159.5"/>
</g>
<!-- PopoverContent -->
<g id="node2" class="node">
<title>PopoverContent</title>
<polygon fill="#ffffb3" stroke="black" points="233.49,-122 126.51,-122 126.51,-86 233.49,-86 233.49,-122"/>
<text text-anchor="middle" x="180" y="-99.8" font-family="Times,serif" font-size="14.00">PopoverContent</text>
</g>
<!-- PopoverContent&#45;&gt;PopoverModule -->
<g id="edge2" class="edge">
<title>PopoverContent&#45;&gt;PopoverModule</title>
<path fill="none" stroke="black" d="M180.7,-122.11C180.7,-122.11 180.7,-140.99 180.7,-140.99"/>
<polygon fill="black" stroke="black" points="177.2,-140.99 180.7,-150.99 184.2,-140.99 177.2,-140.99"/>
</g>
<!-- PopoverContainer  -->
<g id="node4" class="node">
<title>PopoverContainer </title>
<polygon fill="#fb8072" stroke="black" points="372.87,-252 251.13,-252 251.13,-216 372.87,-216 372.87,-252"/>
<text text-anchor="middle" x="312" y="-229.8" font-family="Times,serif" font-size="14.00">PopoverContainer </text>
</g>
<!-- PopoverModule&#45;&gt;PopoverContainer  -->
<g id="edge3" class="edge">
<title>PopoverModule&#45;&gt;PopoverContainer </title>
<path fill="none" stroke="black" stroke-dasharray="5,2" d="M234.16,-175C262.06,-175 290.52,-175 290.52,-175 290.52,-175 290.52,-205.98 290.52,-205.98"/>
<polygon fill="black" stroke="black" points="287.02,-205.98 290.52,-215.98 294.02,-205.98 287.02,-205.98"/>
</g>
<!-- PopoverContent  -->
<g id="node5" class="node">
<title>PopoverContent </title>
<polygon fill="#fb8072" stroke="black" points="233.49,-252 122.51,-252 122.51,-216 233.49,-216 233.49,-252"/>
<text text-anchor="middle" x="178" y="-229.8" font-family="Times,serif" font-size="14.00">PopoverContent </text>
</g>
<!-- PopoverModule&#45;&gt;PopoverContent  -->
<g id="edge4" class="edge">
<title>PopoverModule&#45;&gt;PopoverContent </title>
<path fill="none" stroke="black" stroke-dasharray="5,2" d="M180.57,-187.11C180.57,-187.11 180.57,-205.99 180.57,-205.99"/>
<polygon fill="black" stroke="black" points="177.07,-205.99 180.57,-215.99 184.07,-205.99 177.07,-205.99"/>
</g>
</g>
</svg>
