<?xml version="1.0" encoding="UTF-8" standalone="no"?>
<!DOCTYPE svg PUBLIC "-//W3C//DTD SVG 1.1//EN"
 "http://www.w3.org/Graphics/SVG/1.1/DTD/svg11.dtd">
<!-- Generated by graphviz version 2.47.0 (20210316.0004)
 -->
<!-- Title: dependencies Pages: 1 -->
<svg width="919pt" height="396pt"
 viewBox="0.00 0.00 919.00 395.59" xmlns="http://www.w3.org/2000/svg" xmlns:xlink="http://www.w3.org/1999/xlink">
<g id="graph0" class="graph" transform="scale(1 1) rotate(0) translate(4 391.59)">
<title>dependencies</title>
<polygon fill="white" stroke="transparent" points="-4,4 -4,-391.59 915,-391.59 915,4 -4,4"/>
<text text-anchor="start" x="434.51" y="-42.4" font-family="Times-12" font-weight="bold" font-size="14.00">Legend</text>
<polygon fill="#ffffb3" stroke="transparent" points="221.5,-10 221.5,-30 241.5,-30 241.5,-10 221.5,-10"/>
<text text-anchor="start" x="245.13" y="-15.4" font-family="Times-12" font-size="14.00"> &#160;Declarations</text>
<polygon fill="#8dd3c7" stroke="transparent" points="334.5,-10 334.5,-30 354.5,-30 354.5,-10 334.5,-10"/>
<text text-anchor="start" x="358.23" y="-15.4" font-family="Times-12" font-size="14.00"> &#160;Module</text>
<polygon fill="#80b1d3" stroke="transparent" points="420.5,-10 420.5,-30 440.5,-30 440.5,-10 420.5,-10"/>
<text text-anchor="start" x="444.28" y="-15.4" font-family="Times-12" font-size="14.00"> &#160;Bootstrap</text>
<polygon fill="#fdb462" stroke="transparent" points="517.5,-10 517.5,-30 537.5,-30 537.5,-10 517.5,-10"/>
<text text-anchor="start" x="541.17" y="-15.4" font-family="Times-12" font-size="14.00"> &#160;Providers</text>
<polygon fill="#fb8072" stroke="transparent" points="613.5,-10 613.5,-30 633.5,-30 633.5,-10 613.5,-10"/>
<text text-anchor="start" x="637.23" y="-15.4" font-family="Times-12" font-size="14.00"> &#160;Exports</text>
<g id="clust1" class="cluster">
<title>cluster_SelectModule</title>
<polygon fill="none" stroke="black" stroke-dasharray="1,5" points="8,-70 8,-379.59 903,-379.59 903,-70 8,-70"/>
</g>
<g id="clust5" class="cluster">
<title>cluster_SelectModule_Select_providers</title>
<polygon fill="none" stroke="black" points="293,-78 293,-241.59 895,-241.59 895,-78 293,-78"/>
</g>
<g id="clust6" class="cluster">
<title>cluster_SelectModule_imports</title>
<polygon fill="none" stroke="black" points="185,-189.59 185,-241.59 285,-241.59 285,-189.59 185,-189.59"/>
</g>
<g id="clust2" class="cluster">
<title>cluster_SelectModule_declarations</title>
<polygon fill="none" stroke="black" points="16,-189.59 16,-241.59 177,-241.59 177,-189.59 16,-189.59"/>
</g>
<g id="clust7" class="cluster">
<title>cluster_SelectModule_exports</title>
<polygon fill="none" stroke="black" points="75,-319.59 75,-371.59 315,-371.59 315,-319.59 75,-319.59"/>
</g>
<!-- OptGroup -->
<g id="node1" class="node">
<title>OptGroup</title>
<polygon fill="#ffffb3" stroke="black" points="169.26,-233.59 96.74,-233.59 96.74,-197.59 169.26,-197.59 169.26,-233.59"/>
<text text-anchor="middle" x="133" y="-211.39" font-family="Times,serif" font-size="14.00">OptGroup</text>
</g>
<!-- SelectModule -->
<g id="node4" class="node">
<title>SelectModule</title>
<polygon fill="#8dd3c7" stroke="black" points="230.76,-298.59 227.76,-302.59 206.76,-302.59 203.76,-298.59 137.24,-298.59 137.24,-262.59 230.76,-262.59 230.76,-298.59"/>
<text text-anchor="middle" x="184" y="-276.39" font-family="Times,serif" font-size="14.00">SelectModule</text>
</g>
<!-- OptGroup&#45;&gt;SelectModule -->
<g id="edge1" class="edge">
<title>OptGroup&#45;&gt;SelectModule</title>
<path fill="none" stroke="black" d="M153.25,-233.7C153.25,-233.7 153.25,-252.58 153.25,-252.58"/>
<polygon fill="black" stroke="black" points="149.75,-252.58 153.25,-262.58 156.75,-252.58 149.75,-252.58"/>
</g>
<!-- Option -->
<g id="node2" class="node">
<title>Option</title>
<polygon fill="#ffffb3" stroke="black" points="78.39,-233.59 23.61,-233.59 23.61,-197.59 78.39,-197.59 78.39,-233.59"/>
<text text-anchor="middle" x="51" y="-211.39" font-family="Times,serif" font-size="14.00">Option</text>
</g>
<!-- Option&#45;&gt;SelectModule -->
<g id="edge2" class="edge">
<title>Option&#45;&gt;SelectModule</title>
<path fill="none" stroke="black" d="M51,-233.7C51,-252.93 51,-280.59 51,-280.59 51,-280.59 127.11,-280.59 127.11,-280.59"/>
<polygon fill="black" stroke="black" points="127.11,-284.09 137.11,-280.59 127.11,-277.09 127.11,-284.09"/>
</g>
<!-- Select -->
<g id="node3" class="node">
<title>Select</title>
<polygon fill="#ffffb3" stroke="black" points="488,-233.59 434,-233.59 434,-197.59 488,-197.59 488,-233.59"/>
<text text-anchor="middle" x="461" y="-211.39" font-family="Times,serif" font-size="14.00">Select</text>
</g>
<!-- Select&#45;&gt;SelectModule -->
<g id="edge3" class="edge">
<title>Select&#45;&gt;SelectModule</title>
<path fill="none" stroke="black" d="M461,-233.7C461,-252.93 461,-280.59 461,-280.59 461,-280.59 240.99,-280.59 240.99,-280.59"/>
<polygon fill="black" stroke="black" points="240.99,-277.09 230.99,-280.59 240.99,-284.09 240.99,-277.09"/>
</g>
<!-- OptGroup  -->
<g id="node7" class="node">
<title>OptGroup </title>
<polygon fill="#fb8072" stroke="black" points="307.26,-363.59 230.74,-363.59 230.74,-327.59 307.26,-327.59 307.26,-363.59"/>
<text text-anchor="middle" x="269" y="-341.39" font-family="Times,serif" font-size="14.00">OptGroup </text>
</g>
<!-- SelectModule&#45;&gt;OptGroup  -->
<g id="edge6" class="edge">
<title>SelectModule&#45;&gt;OptGroup </title>
<path fill="none" stroke="black" stroke-dasharray="5,2" d="M222.03,-298.7C222.03,-317.93 222.03,-345.59 222.03,-345.59 222.03,-345.59 222.89,-345.59 222.89,-345.59"/>
<polygon fill="black" stroke="black" points="220.65,-349.09 230.65,-345.59 220.65,-342.09 220.65,-349.09"/>
</g>
<!-- Option  -->
<g id="node8" class="node">
<title>Option </title>
<polygon fill="#fb8072" stroke="black" points="213.39,-363.59 154.61,-363.59 154.61,-327.59 213.39,-327.59 213.39,-363.59"/>
<text text-anchor="middle" x="184" y="-341.39" font-family="Times,serif" font-size="14.00">Option </text>
</g>
<!-- SelectModule&#45;&gt;Option  -->
<g id="edge7" class="edge">
<title>SelectModule&#45;&gt;Option </title>
<path fill="none" stroke="black" stroke-dasharray="5,2" d="M184,-298.7C184,-298.7 184,-317.58 184,-317.58"/>
<polygon fill="black" stroke="black" points="180.5,-317.58 184,-327.58 187.5,-317.58 180.5,-317.58"/>
</g>
<!-- Select  -->
<g id="node9" class="node">
<title>Select </title>
<polygon fill="#fb8072" stroke="black" points="137,-363.59 83,-363.59 83,-327.59 137,-327.59 137,-363.59"/>
<text text-anchor="middle" x="110" y="-341.39" font-family="Times,serif" font-size="14.00">Select </text>
</g>
<!-- SelectModule&#45;&gt;Select  -->
<g id="edge8" class="edge">
<title>SelectModule&#45;&gt;Select </title>
<path fill="none" stroke="black" stroke-dasharray="5,2" d="M145.96,-298.7C145.96,-317.93 145.96,-345.59 145.96,-345.59 145.96,-345.59 145.09,-345.59 145.09,-345.59"/>
<polygon fill="black" stroke="black" points="147.26,-342.09 137.26,-345.59 147.26,-349.09 147.26,-342.09"/>
</g>
<!-- {
 &#160;&#160;&#160;provide: NG_VALUE_ACCESSOR, useExisting: Select, multi: true
} -->
<g id="node5" class="node">
<title>{
 &#160;&#160;&#160;provide: NG_VALUE_ACCESSOR, useExisting: Select, multi: true
}</title>
<ellipse fill="#fdb462" stroke="black" cx="594" cy="-127.3" rx="292.67" ry="41.09"/>
<text text-anchor="middle" x="594" y="-139.9" font-family="Times,serif" font-size="14.00">{</text>
<text text-anchor="middle" x="594" y="-123.1" font-family="Times,serif" font-size="14.00"> &#160;&#160;&#160;provide: NG_VALUE_ACCESSOR, useExisting: Select, multi: true</text>
<text text-anchor="middle" x="594" y="-106.3" font-family="Times,serif" font-size="14.00">}</text>
</g>
<!-- {
 &#160;&#160;&#160;provide: NG_VALUE_ACCESSOR, useExisting: Select, multi: true
}&#45;&gt;Select -->
<g id="edge4" class="edge">
<title>{
 &#160;&#160;&#160;provide: NG_VALUE_ACCESSOR, useExisting: Select, multi: true
}&#45;&gt;Select</title>
<path fill="none" stroke="black" d="M461,-164.23C461,-164.23 461,-187.58 461,-187.58"/>
<polygon fill="black" stroke="black" points="457.5,-187.58 461,-197.58 464.5,-187.58 457.5,-187.58"/>
</g>
<!-- IconModule -->
<g id="node6" class="node">
<title>IconModule</title>
<polygon fill="#8dd3c7" stroke="black" points="277.43,-233.59 274.43,-237.59 253.43,-237.59 250.43,-233.59 192.57,-233.59 192.57,-197.59 277.43,-197.59 277.43,-233.59"/>
<text text-anchor="middle" x="235" y="-211.39" font-family="Times,serif" font-size="14.00">IconModule</text>
</g>
<!-- IconModule&#45;&gt;SelectModule -->
<g id="edge5" class="edge">
<title>IconModule&#45;&gt;SelectModule</title>
<path fill="none" stroke="black" d="M211.83,-233.7C211.83,-233.7 211.83,-252.58 211.83,-252.58"/>
<polygon fill="black" stroke="black" points="208.33,-252.58 211.83,-262.58 215.33,-252.58 208.33,-252.58"/>
</g>
</g>
</svg>
