<?xml version="1.0" encoding="UTF-8" standalone="no"?>
<!DOCTYPE svg PUBLIC "-//W3C//DTD SVG 1.1//EN"
 "http://www.w3.org/Graphics/SVG/1.1/DTD/svg11.dtd">
<!-- Generated by graphviz version 2.40.1 (20161225.0304)
 -->
<!-- Title: dependencies Pages: 1 -->
<svg width="504pt" height="349pt"
 viewBox="0.00 0.00 504.00 349.00" xmlns="http://www.w3.org/2000/svg" xmlns:xlink="http://www.w3.org/1999/xlink">
<g id="graph0" class="graph" transform="scale(1 1) rotate(0) translate(4 345)">
<title>dependencies</title>
<polygon fill="#ffffff" stroke="transparent" points="-4,4 -4,-345 500,-345 500,4 -4,4"/>
<text text-anchor="start" x="227.0091" y="-42.4" font-family="sans-serif" font-weight="bold" font-size="14.00" fill="#000000">Legend</text>
<polygon fill="#ffffb3" stroke="transparent" points="14,-10 14,-30 34,-30 34,-10 14,-10"/>
<text text-anchor="start" x="37.629" y="-15.4" font-family="sans-serif" font-size="14.00" fill="#000000"> &#160;Declarations</text>
<polygon fill="#8dd3c7" stroke="transparent" points="127,-10 127,-30 147,-30 147,-10 127,-10"/>
<text text-anchor="start" x="150.7251" y="-15.4" font-family="sans-serif" font-size="14.00" fill="#000000"> &#160;Module</text>
<polygon fill="#80b1d3" stroke="transparent" points="213,-10 213,-30 233,-30 233,-10 213,-10"/>
<text text-anchor="start" x="236.7812" y="-15.4" font-family="sans-serif" font-size="14.00" fill="#000000"> &#160;Bootstrap</text>
<polygon fill="#fdb462" stroke="transparent" points="310,-10 310,-30 330,-30 330,-10 310,-10"/>
<text text-anchor="start" x="333.6732" y="-15.4" font-family="sans-serif" font-size="14.00" fill="#000000"> &#160;Providers</text>
<polygon fill="#fb8072" stroke="transparent" points="406,-10 406,-30 426,-30 426,-10 406,-10"/>
<text text-anchor="start" x="429.7258" y="-15.4" font-family="sans-serif" font-size="14.00" fill="#000000"> &#160;Exports</text>
<g id="clust1" class="cluster">
<title>cluster_NotificationModule</title>
<polygon fill="none" stroke="#000000" stroke-dasharray="1,5" points="26,-70 26,-333 470,-333 470,-70 26,-70"/>
</g>
<g id="clust2" class="cluster">
<title>cluster_NotificationModule_declarations</title>
<polygon fill="none" stroke="#000000" points="278,-143 278,-195 450,-195 450,-143 278,-143"/>
</g>
<g id="clust3" class="cluster">
<title>cluster_NotificationModule_Notification_providers</title>
<polygon fill="none" stroke="#000000" points="272,-78 272,-130 462,-130 462,-78 272,-78"/>
</g>
<g id="clust4" class="cluster">
<title>cluster_NotificationModule_Toast_providers</title>
<polygon fill="none" stroke="#000000" points="112,-78 112,-130 264,-130 264,-78 112,-78"/>
</g>
<g id="clust5" class="cluster">
<title>cluster_NotificationModule_imports</title>
<polygon fill="none" stroke="#000000" points="34,-143 34,-195 270,-195 270,-143 34,-143"/>
</g>
<g id="clust6" class="cluster">
<title>cluster_NotificationModule_exports</title>
<polygon fill="none" stroke="#000000" points="233,-273 233,-325 409,-325 409,-273 233,-273"/>
</g>
<!-- Notification -->
<g id="node1" class="node">
<title>Notification</title>
<polygon fill="#ffffb3" stroke="#000000" points="441.6501,-187 358.3499,-187 358.3499,-151 441.6501,-151 441.6501,-187"/>
<text text-anchor="middle" x="400" y="-164.8" font-family="Times,serif" font-size="14.00" fill="#000000">Notification</text>
</g>
<!-- NotificationModule -->
<g id="node3" class="node">
<title>NotificationModule</title>
<polygon fill="#8dd3c7" stroke="#000000" points="376.6994,-252 373.6994,-256 352.6994,-256 349.6994,-252 249.3006,-252 249.3006,-216 376.6994,-216 376.6994,-252"/>
<text text-anchor="middle" x="313" y="-229.8" font-family="Times,serif" font-size="14.00" fill="#000000">NotificationModule</text>
</g>
<!-- Notification&#45;&gt;NotificationModule -->
<g id="edge1" class="edge">
<title>Notification&#45;&gt;NotificationModule</title>
<path fill="none" stroke="#000000" d="M367.3875,-187.1061C367.3875,-187.1061 367.3875,-205.991 367.3875,-205.991"/>
<polygon fill="#000000" stroke="#000000" points="363.8875,-205.9909 367.3875,-215.991 370.8875,-205.991 363.8875,-205.9909"/>
</g>
<!-- Toast -->
<g id="node2" class="node">
<title>Toast</title>
<polygon fill="#ffffb3" stroke="#000000" points="340,-187 286,-187 286,-151 340,-151 340,-187"/>
<text text-anchor="middle" x="313" y="-164.8" font-family="Times,serif" font-size="14.00" fill="#000000">Toast</text>
</g>
<!-- Toast&#45;&gt;NotificationModule -->
<g id="edge3" class="edge">
<title>Toast&#45;&gt;NotificationModule</title>
<path fill="none" stroke="#000000" d="M313,-187.1061C313,-187.1061 313,-205.991 313,-205.991"/>
<polygon fill="#000000" stroke="#000000" points="309.5001,-205.9909 313,-215.991 316.5001,-205.991 309.5001,-205.9909"/>
</g>
<!-- Notification  -->
<g id="node8" class="node">
<title>Notification </title>
<polygon fill="#fb8072" stroke="#000000" points="400.6495,-317 313.3505,-317 313.3505,-281 400.6495,-281 400.6495,-317"/>
<text text-anchor="middle" x="357" y="-294.8" font-family="Times,serif" font-size="14.00" fill="#000000">Notification </text>
</g>
<!-- NotificationModule&#45;&gt;Notification  -->
<g id="edge7" class="edge">
<title>NotificationModule&#45;&gt;Notification </title>
<path fill="none" stroke="#000000" stroke-dasharray="5,2" d="M345.0125,-252.1061C345.0125,-252.1061 345.0125,-270.991 345.0125,-270.991"/>
<polygon fill="#000000" stroke="#000000" points="341.5125,-270.9909 345.0125,-280.991 348.5125,-270.991 341.5125,-270.9909"/>
</g>
<!-- Toast  -->
<g id="node9" class="node">
<title>Toast </title>
<polygon fill="#fb8072" stroke="#000000" points="295,-317 241,-317 241,-281 295,-281 295,-317"/>
<text text-anchor="middle" x="268" y="-294.8" font-family="Times,serif" font-size="14.00" fill="#000000">Toast </text>
</g>
<!-- NotificationModule&#45;&gt;Toast  -->
<g id="edge8" class="edge">
<title>NotificationModule&#45;&gt;Toast </title>
<path fill="none" stroke="#000000" stroke-dasharray="5,2" d="M272.2002,-252.1061C272.2002,-252.1061 272.2002,-270.991 272.2002,-270.991"/>
<polygon fill="#000000" stroke="#000000" points="268.7003,-270.9909 272.2002,-280.991 275.7003,-270.991 268.7003,-270.9909"/>
</g>
<!-- NotificationService -->
<g id="node4" class="node">
<title>NotificationService</title>
<ellipse fill="#fdb462" stroke="#000000" cx="367" cy="-104" rx="86.8107" ry="18"/>
<text text-anchor="middle" x="367" y="-99.8" font-family="Times,serif" font-size="14.00" fill="#000000">NotificationService</text>
</g>
<!-- NotificationService&#45;&gt;Notification -->
<g id="edge2" class="edge">
<title>NotificationService&#45;&gt;Notification</title>
<path fill="none" stroke="#000000" d="M400,-120.7391C400,-120.7391 400,-140.7182 400,-140.7182"/>
<polygon fill="#000000" stroke="#000000" points="396.5001,-140.7182 400,-150.7182 403.5001,-140.7182 396.5001,-140.7182"/>
</g>
<!-- NotificationService&#45;&gt;NotificationModule -->
<g id="edge9" class="edge">
<title>NotificationService&#45;&gt;NotificationModule</title>
<path fill="none" stroke="#000000" d="M349.0877,-121.8034C349.0877,-121.8034 349.0877,-205.9945 349.0877,-205.9945"/>
<polygon fill="#000000" stroke="#000000" points="345.5877,-205.9944 349.0877,-215.9945 352.5877,-205.9945 345.5877,-205.9944"/>
</g>
<!-- BannerService -->
<g id="node5" class="node">
<title>BannerService</title>
<ellipse fill="#fdb462" stroke="#000000" cx="188" cy="-104" rx="67.7548" ry="18"/>
<text text-anchor="middle" x="188" y="-99.8" font-family="Times,serif" font-size="14.00" fill="#000000">BannerService</text>
</g>
<!-- BannerService&#45;&gt;Toast -->
<g id="edge4" class="edge">
<title>BannerService&#45;&gt;Toast</title>
<path fill="none" stroke="#000000" d="M255.9803,-104C265.0251,-104 271.2495,-104 271.2495,-104 271.2495,-104 271.2495,-169 271.2495,-169 271.2495,-169 275.8518,-169 275.8518,-169"/>
<polygon fill="#000000" stroke="#000000" points="275.8519,-172.5001 285.8518,-169 275.8518,-165.5001 275.8519,-172.5001"/>
</g>
<!-- StaticIconModule -->
<g id="node6" class="node">
<title>StaticIconModule</title>
<polygon fill="#8dd3c7" stroke="#000000" points="262.309,-187 259.309,-191 238.309,-191 235.309,-187 145.691,-187 145.691,-151 262.309,-151 262.309,-187"/>
<text text-anchor="middle" x="204" y="-164.8" font-family="Times,serif" font-size="14.00" fill="#000000">StaticIconModule</text>
</g>
<!-- StaticIconModule&#45;&gt;NotificationModule -->
<g id="edge5" class="edge">
<title>StaticIconModule&#45;&gt;NotificationModule</title>
<path fill="none" stroke="#000000" d="M255.7774,-187.1061C255.7774,-187.1061 255.7774,-205.991 255.7774,-205.991"/>
<polygon fill="#000000" stroke="#000000" points="252.2774,-205.9909 255.7774,-215.991 259.2774,-205.991 252.2774,-205.9909"/>
</g>
<!-- I18nModule -->
<g id="node7" class="node">
<title>I18nModule</title>
<polygon fill="#8dd3c7" stroke="#000000" points="127.7107,-187 124.7107,-191 103.7107,-191 100.7107,-187 42.2893,-187 42.2893,-151 127.7107,-151 127.7107,-187"/>
<text text-anchor="middle" x="85" y="-164.8" font-family="Times,serif" font-size="14.00" fill="#000000">I18nModule</text>
</g>
<!-- I18nModule&#45;&gt;NotificationModule -->
<g id="edge6" class="edge">
<title>I18nModule&#45;&gt;NotificationModule</title>
<path fill="none" stroke="#000000" d="M85,-187.1061C85,-206.3391 85,-234 85,-234 85,-234 239.1861,-234 239.1861,-234"/>
<polygon fill="#000000" stroke="#000000" points="239.1861,-237.5001 249.1861,-234 239.1861,-230.5001 239.1861,-237.5001"/>
</g>
</g>
</svg>
