<?xml version="1.0" encoding="UTF-8" standalone="no"?>
<!DOCTYPE svg PUBLIC "-//W3C//DTD SVG 1.1//EN"
 "http://www.w3.org/Graphics/SVG/1.1/DTD/svg11.dtd">
<!-- Generated by graphviz version 2.40.1 (20161225.0304)
 -->
<!-- Title: dependencies Pages: 1 -->
<svg width="734pt" height="211pt"
 viewBox="0.00 0.00 734.00 211.00" xmlns="http://www.w3.org/2000/svg" xmlns:xlink="http://www.w3.org/1999/xlink">
<g id="graph0" class="graph" transform="scale(1 1) rotate(0) translate(4 207)">
<title>dependencies</title>
<polygon fill="#ffffff" stroke="transparent" points="-4,4 -4,-207 730,-207 730,4 -4,4"/>
<text text-anchor="start" x="342.0091" y="-42.4" font-family="sans-serif" font-weight="bold" font-size="14.00" fill="#000000">Legend</text>
<polygon fill="#ffffb3" stroke="transparent" points="129,-10 129,-30 149,-30 149,-10 129,-10"/>
<text text-anchor="start" x="152.629" y="-15.4" font-family="sans-serif" font-size="14.00" fill="#000000"> &#160;Declarations</text>
<polygon fill="#8dd3c7" stroke="transparent" points="242,-10 242,-30 262,-30 262,-10 242,-10"/>
<text text-anchor="start" x="265.7251" y="-15.4" font-family="sans-serif" font-size="14.00" fill="#000000"> &#160;Module</text>
<polygon fill="#80b1d3" stroke="transparent" points="328,-10 328,-30 348,-30 348,-10 328,-10"/>
<text text-anchor="start" x="351.7812" y="-15.4" font-family="sans-serif" font-size="14.00" fill="#000000"> &#160;Bootstrap</text>
<polygon fill="#fdb462" stroke="transparent" points="425,-10 425,-30 445,-30 445,-10 425,-10"/>
<text text-anchor="start" x="448.6732" y="-15.4" font-family="sans-serif" font-size="14.00" fill="#000000"> &#160;Providers</text>
<polygon fill="#fb8072" stroke="transparent" points="521,-10 521,-30 541,-30 541,-10 521,-10"/>
<text text-anchor="start" x="544.7258" y="-15.4" font-family="sans-serif" font-size="14.00" fill="#000000"> &#160;Exports</text>
<g id="clust1" class="cluster">
<title>cluster_UtilsModule</title>
<polygon fill="none" stroke="#000000" stroke-dasharray="1,5" points="8,-70 8,-195 718,-195 718,-70 8,-70"/>
</g>
<g id="clust6" class="cluster">
<title>cluster_UtilsModule_providers</title>
<polygon fill="none" stroke="#000000" points="16,-78 16,-130 710,-130 710,-78 16,-78"/>
</g>
<!-- AnimationFrameService -->
<g id="node1" class="node">
<title>AnimationFrameService</title>
<ellipse fill="#fdb462" stroke="#000000" cx="596" cy="-104" rx="105.9344" ry="18"/>
<text text-anchor="middle" x="596" y="-99.8" font-family="Times,serif" font-size="14.00" fill="#000000">AnimationFrameService</text>
</g>
<!-- UtilsModule -->
<g id="node4" class="node">
<title>UtilsModule</title>
<polygon fill="#8dd3c7" stroke="#000000" points="372.2731,-187 369.2731,-191 348.2731,-191 345.2731,-187 285.7269,-187 285.7269,-151 372.2731,-151 372.2731,-187"/>
<text text-anchor="middle" x="329" y="-164.8" font-family="Times,serif" font-size="14.00" fill="#000000">UtilsModule</text>
</g>
<!-- AnimationFrameService&#45;&gt;UtilsModule -->
<g id="edge1" class="edge">
<title>AnimationFrameService&#45;&gt;UtilsModule</title>
<path fill="none" stroke="#000000" d="M596,-122.1061C596,-141.3391 596,-169 596,-169 596,-169 382.4924,-169 382.4924,-169"/>
<polygon fill="#000000" stroke="#000000" points="382.4924,-165.5001 372.4924,-169 382.4924,-172.5001 382.4924,-165.5001"/>
</g>
<!-- AnimationFrameServiceSingleton -->
<g id="node2" class="node">
<title>AnimationFrameServiceSingleton</title>
<ellipse fill="#fdb462" stroke="#000000" cx="329" cy="-104" rx="142.9741" ry="18"/>
<text text-anchor="middle" x="329" y="-99.8" font-family="Times,serif" font-size="14.00" fill="#000000">AnimationFrameServiceSingleton</text>
</g>
<!-- AnimationFrameServiceSingleton&#45;&gt;UtilsModule -->
<g id="edge2" class="edge">
<title>AnimationFrameServiceSingleton&#45;&gt;UtilsModule</title>
<path fill="none" stroke="#000000" d="M329,-122.1061C329,-122.1061 329,-140.991 329,-140.991"/>
<polygon fill="#000000" stroke="#000000" points="325.5001,-140.9909 329,-150.991 332.5001,-140.991 325.5001,-140.9909"/>
</g>
<!-- ElementService -->
<g id="node3" class="node">
<title>ElementService</title>
<ellipse fill="#fdb462" stroke="#000000" cx="96" cy="-104" rx="72.3458" ry="18"/>
<text text-anchor="middle" x="96" y="-99.8" font-family="Times,serif" font-size="14.00" fill="#000000">ElementService</text>
</g>
<!-- ElementService&#45;&gt;UtilsModule -->
<g id="edge3" class="edge">
<title>ElementService&#45;&gt;UtilsModule</title>
<path fill="none" stroke="#000000" d="M96,-122.1061C96,-141.3391 96,-169 96,-169 96,-169 275.7205,-169 275.7205,-169"/>
<polygon fill="#000000" stroke="#000000" points="275.7206,-172.5001 285.7205,-169 275.7205,-165.5001 275.7206,-172.5001"/>
</g>
</g>
</svg>
