<?xml version="1.0" encoding="UTF-8" standalone="no"?>
<!DOCTYPE svg PUBLIC "-//W3C//DTD SVG 1.1//EN"
 "http://www.w3.org/Graphics/SVG/1.1/DTD/svg11.dtd">
<!-- Generated by graphviz version 2.47.0 (20210316.0004)
 -->
<!-- Title: dependencies Pages: 1 -->
<svg width="504pt" height="284pt"
 viewBox="0.00 0.00 504.00 284.00" xmlns="http://www.w3.org/2000/svg" xmlns:xlink="http://www.w3.org/1999/xlink">
<g id="graph0" class="graph" transform="scale(1 1) rotate(0) translate(4 280)">
<title>dependencies</title>
<polygon fill="white" stroke="transparent" points="-4,4 -4,-280 500,-280 500,4 -4,4"/>
<text text-anchor="start" x="227.01" y="-42.4" font-family="Times-12" font-weight="bold" font-size="14.00">Legend</text>
<polygon fill="#ffffb3" stroke="transparent" points="14,-10 14,-30 34,-30 34,-10 14,-10"/>
<text text-anchor="start" x="37.63" y="-15.4" font-family="Times-12" font-size="14.00"> &#160;Declarations</text>
<polygon fill="#8dd3c7" stroke="transparent" points="127,-10 127,-30 147,-30 147,-10 127,-10"/>
<text text-anchor="start" x="150.73" y="-15.4" font-family="Times-12" font-size="14.00"> &#160;Module</text>
<polygon fill="#80b1d3" stroke="transparent" points="213,-10 213,-30 233,-30 233,-10 213,-10"/>
<text text-anchor="start" x="236.78" y="-15.4" font-family="Times-12" font-size="14.00"> &#160;Bootstrap</text>
<polygon fill="#fdb462" stroke="transparent" points="310,-10 310,-30 330,-30 330,-10 310,-10"/>
<text text-anchor="start" x="333.67" y="-15.4" font-family="Times-12" font-size="14.00"> &#160;Providers</text>
<polygon fill="#fb8072" stroke="transparent" points="406,-10 406,-30 426,-30 426,-10 406,-10"/>
<text text-anchor="start" x="429.73" y="-15.4" font-family="Times-12" font-size="14.00"> &#160;Exports</text>
<g id="clust1" class="cluster">
<title>cluster_ThemeModule</title>
<polygon fill="none" stroke="black" stroke-dasharray="1,5" points="121,-70 121,-268 375,-268 375,-70 121,-70"/>
</g>
<g id="clust2" class="cluster">
<title>cluster_ThemeModule_declarations</title>
<polygon fill="none" stroke="black" points="245,-78 245,-130 367,-130 367,-78 245,-78"/>
</g>
<g id="clust5" class="cluster">
<title>cluster_ThemeModule_exports</title>
<polygon fill="none" stroke="black" points="185,-208 185,-260 311,-260 311,-208 185,-208"/>
</g>
<g id="clust4" class="cluster">
<title>cluster_ThemeModule_imports</title>
<polygon fill="none" stroke="black" points="129,-78 129,-130 237,-130 237,-78 129,-78"/>
</g>
<!-- ThemeDirective -->
<g id="node1" class="node">
<title>ThemeDirective</title>
<polygon fill="#ffffb3" stroke="black" points="359.46,-122 252.54,-122 252.54,-86 359.46,-86 359.46,-122"/>
<text text-anchor="middle" x="306" y="-99.8" font-family="Times,serif" font-size="14.00">ThemeDirective</text>
</g>
<!-- ThemeModule -->
<g id="node2" class="node">
<title>ThemeModule</title>
<polygon fill="#8dd3c7" stroke="black" points="297.42,-187 294.42,-191 273.42,-191 270.42,-187 198.58,-187 198.58,-151 297.42,-151 297.42,-187"/>
<text text-anchor="middle" x="248" y="-164.8" font-family="Times,serif" font-size="14.00">ThemeModule</text>
</g>
<!-- ThemeDirective&#45;&gt;ThemeModule -->
<g id="edge1" class="edge">
<title>ThemeDirective&#45;&gt;ThemeModule</title>
<path fill="none" stroke="black" d="M274.87,-122.11C274.87,-122.11 274.87,-140.99 274.87,-140.99"/>
<polygon fill="black" stroke="black" points="271.37,-140.99 274.87,-150.99 278.37,-140.99 271.37,-140.99"/>
</g>
<!-- ThemeDirective  -->
<g id="node4" class="node">
<title>ThemeDirective </title>
<polygon fill="#fb8072" stroke="black" points="303.46,-252 192.54,-252 192.54,-216 303.46,-216 303.46,-252"/>
<text text-anchor="middle" x="248" y="-229.8" font-family="Times,serif" font-size="14.00">ThemeDirective </text>
</g>
<!-- ThemeModule&#45;&gt;ThemeDirective  -->
<g id="edge3" class="edge">
<title>ThemeModule&#45;&gt;ThemeDirective </title>
<path fill="none" stroke="black" stroke-dasharray="5,2" d="M248,-187.11C248,-187.11 248,-205.99 248,-205.99"/>
<polygon fill="black" stroke="black" points="244.5,-205.99 248,-215.99 251.5,-205.99 244.5,-205.99"/>
</g>
<!-- LayerModule -->
<g id="node3" class="node">
<title>LayerModule</title>
<polygon fill="#8dd3c7" stroke="black" points="229.19,-122 226.19,-126 205.19,-126 202.19,-122 136.81,-122 136.81,-86 229.19,-86 229.19,-122"/>
<text text-anchor="middle" x="183" y="-99.8" font-family="Times,serif" font-size="14.00">LayerModule</text>
</g>
<!-- LayerModule&#45;&gt;ThemeModule -->
<g id="edge2" class="edge">
<title>LayerModule&#45;&gt;ThemeModule</title>
<path fill="none" stroke="black" d="M213.94,-122.11C213.94,-122.11 213.94,-140.99 213.94,-140.99"/>
<polygon fill="black" stroke="black" points="210.44,-140.99 213.94,-150.99 217.44,-140.99 210.44,-140.99"/>
</g>
</g>
</svg>
