<?xml version="1.0" encoding="UTF-8" standalone="no"?>
<!DOCTYPE svg PUBLIC "-//W3C//DTD SVG 1.1//EN"
 "http://www.w3.org/Graphics/SVG/1.1/DTD/svg11.dtd">
<!-- Generated by graphviz version 2.47.0 (20210316.0004)
 -->
<!-- Title: dependencies Pages: 1 -->
<svg width="1298pt" height="396pt"
 viewBox="0.00 0.00 1298.00 395.59" xmlns="http://www.w3.org/2000/svg" xmlns:xlink="http://www.w3.org/1999/xlink">
<g id="graph0" class="graph" transform="scale(1 1) rotate(0) translate(4 391.59)">
<title>dependencies</title>
<polygon fill="white" stroke="transparent" points="-4,4 -4,-391.59 1294,-391.59 1294,4 -4,4"/>
<text text-anchor="start" x="624.01" y="-42.4" font-family="Times-12" font-weight="bold" font-size="14.00">Legend</text>
<polygon fill="#ffffb3" stroke="transparent" points="411,-10 411,-30 431,-30 431,-10 411,-10"/>
<text text-anchor="start" x="434.63" y="-15.4" font-family="Times-12" font-size="14.00"> &#160;Declarations</text>
<polygon fill="#8dd3c7" stroke="transparent" points="524,-10 524,-30 544,-30 544,-10 524,-10"/>
<text text-anchor="start" x="547.73" y="-15.4" font-family="Times-12" font-size="14.00"> &#160;Module</text>
<polygon fill="#80b1d3" stroke="transparent" points="610,-10 610,-30 630,-30 630,-10 610,-10"/>
<text text-anchor="start" x="633.78" y="-15.4" font-family="Times-12" font-size="14.00"> &#160;Bootstrap</text>
<polygon fill="#fdb462" stroke="transparent" points="707,-10 707,-30 727,-30 727,-10 707,-10"/>
<text text-anchor="start" x="730.67" y="-15.4" font-family="Times-12" font-size="14.00"> &#160;Providers</text>
<polygon fill="#fb8072" stroke="transparent" points="803,-10 803,-30 823,-30 823,-10 803,-10"/>
<text text-anchor="start" x="826.73" y="-15.4" font-family="Times-12" font-size="14.00"> &#160;Exports</text>
<g id="clust1" class="cluster">
<title>cluster_RadioModule</title>
<polygon fill="none" stroke="black" stroke-dasharray="1,5" points="8,-70 8,-379.59 1282,-379.59 1282,-70 8,-70"/>
</g>
<g id="clust5" class="cluster">
<title>cluster_RadioModule_imports</title>
<polygon fill="none" stroke="black" points="735,-189.59 735,-241.59 835,-241.59 835,-189.59 735,-189.59"/>
</g>
<g id="clust6" class="cluster">
<title>cluster_RadioModule_exports</title>
<polygon fill="none" stroke="black" points="580,-319.59 580,-371.59 756,-371.59 756,-319.59 580,-319.59"/>
</g>
<g id="clust2" class="cluster">
<title>cluster_RadioModule_declarations</title>
<polygon fill="none" stroke="black" points="553,-189.59 553,-241.59 727,-241.59 727,-189.59 553,-189.59"/>
</g>
<g id="clust4" class="cluster">
<title>cluster_RadioModule_RadioGroup_providers</title>
<polygon fill="none" stroke="black" points="624,-78 624,-176.59 1274,-176.59 1274,-78 624,-78"/>
</g>
<g id="clust3" class="cluster">
<title>cluster_RadioModule_Radio_providers</title>
<polygon fill="none" stroke="black" points="16,-78 16,-176.59 616,-176.59 616,-78 16,-78"/>
</g>
<!-- Radio -->
<g id="node1" class="node">
<title>Radio</title>
<polygon fill="#ffffb3" stroke="black" points="615,-233.59 561,-233.59 561,-197.59 615,-197.59 615,-233.59"/>
<text text-anchor="middle" x="588" y="-211.39" font-family="Times,serif" font-size="14.00">Radio</text>
</g>
<!-- RadioModule -->
<g id="node3" class="node">
<title>RadioModule</title>
<polygon fill="#8dd3c7" stroke="black" points="722.49,-298.59 719.49,-302.59 698.49,-302.59 695.49,-298.59 629.51,-298.59 629.51,-262.59 722.49,-262.59 722.49,-298.59"/>
<text text-anchor="middle" x="676" y="-276.39" font-family="Times,serif" font-size="14.00">RadioModule</text>
</g>
<!-- Radio&#45;&gt;RadioModule -->
<g id="edge1" class="edge">
<title>Radio&#45;&gt;RadioModule</title>
<path fill="none" stroke="black" d="M601.32,-233.7C601.32,-252.93 601.32,-280.59 601.32,-280.59 601.32,-280.59 619.13,-280.59 619.13,-280.59"/>
<polygon fill="black" stroke="black" points="619.13,-284.09 629.13,-280.59 619.13,-277.09 619.13,-284.09"/>
</g>
<!-- RadioGroup -->
<g id="node2" class="node">
<title>RadioGroup</title>
<polygon fill="#ffffb3" stroke="black" points="718.71,-233.59 633.29,-233.59 633.29,-197.59 718.71,-197.59 718.71,-233.59"/>
<text text-anchor="middle" x="676" y="-211.39" font-family="Times,serif" font-size="14.00">RadioGroup</text>
</g>
<!-- RadioGroup&#45;&gt;RadioModule -->
<g id="edge3" class="edge">
<title>RadioGroup&#45;&gt;RadioModule</title>
<path fill="none" stroke="black" d="M676,-233.7C676,-233.7 676,-252.58 676,-252.58"/>
<polygon fill="black" stroke="black" points="672.5,-252.58 676,-262.58 679.5,-252.58 672.5,-252.58"/>
</g>
<!-- Radio  -->
<g id="node7" class="node">
<title>Radio </title>
<polygon fill="#fb8072" stroke="black" points="748,-363.59 694,-363.59 694,-327.59 748,-327.59 748,-363.59"/>
<text text-anchor="middle" x="721" y="-341.39" font-family="Times,serif" font-size="14.00">Radio </text>
</g>
<!-- RadioModule&#45;&gt;Radio  -->
<g id="edge6" class="edge">
<title>RadioModule&#45;&gt;Radio </title>
<path fill="none" stroke="black" stroke-dasharray="5,2" d="M708.25,-298.7C708.25,-298.7 708.25,-317.58 708.25,-317.58"/>
<polygon fill="black" stroke="black" points="704.75,-317.58 708.25,-327.58 711.75,-317.58 704.75,-317.58"/>
</g>
<!-- RadioGroup  -->
<g id="node8" class="node">
<title>RadioGroup </title>
<polygon fill="#fb8072" stroke="black" points="676.21,-363.59 587.79,-363.59 587.79,-327.59 676.21,-327.59 676.21,-363.59"/>
<text text-anchor="middle" x="632" y="-341.39" font-family="Times,serif" font-size="14.00">RadioGroup </text>
</g>
<!-- RadioModule&#45;&gt;RadioGroup  -->
<g id="edge7" class="edge">
<title>RadioModule&#45;&gt;RadioGroup </title>
<path fill="none" stroke="black" stroke-dasharray="5,2" d="M652.93,-298.7C652.93,-298.7 652.93,-317.58 652.93,-317.58"/>
<polygon fill="black" stroke="black" points="649.43,-317.58 652.93,-327.58 656.43,-317.58 649.43,-317.58"/>
</g>
<!-- {
 &#160;&#160;&#160;provide: NG_VALUE_ACCESSOR, useExisting: Radio, multi: true
} -->
<g id="node4" class="node">
<title>{
 &#160;&#160;&#160;provide: NG_VALUE_ACCESSOR, useExisting: Radio, multi: true
}</title>
<ellipse fill="#fdb462" stroke="black" cx="316" cy="-127.3" rx="292.09" ry="41.09"/>
<text text-anchor="middle" x="316" y="-139.9" font-family="Times,serif" font-size="14.00">{</text>
<text text-anchor="middle" x="316" y="-123.1" font-family="Times,serif" font-size="14.00"> &#160;&#160;&#160;provide: NG_VALUE_ACCESSOR, useExisting: Radio, multi: true</text>
<text text-anchor="middle" x="316" y="-106.3" font-family="Times,serif" font-size="14.00">}</text>
</g>
<!-- {
 &#160;&#160;&#160;provide: NG_VALUE_ACCESSOR, useExisting: Radio, multi: true
}&#45;&gt;Radio -->
<g id="edge2" class="edge">
<title>{
 &#160;&#160;&#160;provide: NG_VALUE_ACCESSOR, useExisting: Radio, multi: true
}&#45;&gt;Radio</title>
<path fill="none" stroke="black" d="M584.52,-143.9C584.52,-143.9 584.52,-187.54 584.52,-187.54"/>
<polygon fill="black" stroke="black" points="581.02,-187.54 584.52,-197.54 588.02,-187.54 581.02,-187.54"/>
</g>
<!-- {
 &#160;&#160;&#160;provide: NG_VALUE_ACCESSOR, useExisting: RadioGroup, multi: true
} -->
<g id="node5" class="node">
<title>{
 &#160;&#160;&#160;provide: NG_VALUE_ACCESSOR, useExisting: RadioGroup, multi: true
}</title>
<ellipse fill="#fdb462" stroke="black" cx="949" cy="-127.3" rx="317.17" ry="41.09"/>
<text text-anchor="middle" x="949" y="-139.9" font-family="Times,serif" font-size="14.00">{</text>
<text text-anchor="middle" x="949" y="-123.1" font-family="Times,serif" font-size="14.00"> &#160;&#160;&#160;provide: NG_VALUE_ACCESSOR, useExisting: RadioGroup, multi: true</text>
<text text-anchor="middle" x="949" y="-106.3" font-family="Times,serif" font-size="14.00">}</text>
</g>
<!-- {
 &#160;&#160;&#160;provide: NG_VALUE_ACCESSOR, useExisting: RadioGroup, multi: true
}&#45;&gt;RadioGroup -->
<g id="edge4" class="edge">
<title>{
 &#160;&#160;&#160;provide: NG_VALUE_ACCESSOR, useExisting: RadioGroup, multi: true
}&#45;&gt;RadioGroup</title>
<path fill="none" stroke="black" d="M676,-148.67C676,-148.67 676,-187.4 676,-187.4"/>
<polygon fill="black" stroke="black" points="672.5,-187.4 676,-197.4 679.5,-187.4 672.5,-187.4"/>
</g>
<!-- IconModule -->
<g id="node6" class="node">
<title>IconModule</title>
<polygon fill="#8dd3c7" stroke="black" points="827.43,-233.59 824.43,-237.59 803.43,-237.59 800.43,-233.59 742.57,-233.59 742.57,-197.59 827.43,-197.59 827.43,-233.59"/>
<text text-anchor="middle" x="785" y="-211.39" font-family="Times,serif" font-size="14.00">IconModule</text>
</g>
<!-- IconModule&#45;&gt;RadioModule -->
<g id="edge5" class="edge">
<title>IconModule&#45;&gt;RadioModule</title>
<path fill="none" stroke="black" d="M787.61,-233.7C787.61,-252.93 787.61,-280.59 787.61,-280.59 787.61,-280.59 732.68,-280.59 732.68,-280.59"/>
<polygon fill="black" stroke="black" points="732.68,-277.09 722.68,-280.59 732.68,-284.09 732.68,-277.09"/>
</g>
</g>
</svg>
