<?xml version="1.0" encoding="UTF-8" standalone="no"?>
<!DOCTYPE svg PUBLIC "-//W3C//DTD SVG 1.1//EN"
 "http://www.w3.org/Graphics/SVG/1.1/DTD/svg11.dtd">
<!-- Generated by graphviz version 2.40.1 (20161225.0304)
 -->
<!-- Title: dependencies Pages: 1 -->
<svg width="680pt" height="396pt"
 viewBox="0.00 0.00 680.00 395.59" xmlns="http://www.w3.org/2000/svg" xmlns:xlink="http://www.w3.org/1999/xlink">
<g id="graph0" class="graph" transform="scale(1 1) rotate(0) translate(4 391.5901)">
<title>dependencies</title>
<polygon fill="#ffffff" stroke="transparent" points="-4,4 -4,-391.5901 676,-391.5901 676,4 -4,4"/>
<text text-anchor="start" x="315.0091" y="-42.4" font-family="sans-serif" font-weight="bold" font-size="14.00" fill="#000000">Legend</text>
<polygon fill="#ffffb3" stroke="transparent" points="102,-10 102,-30 122,-30 122,-10 102,-10"/>
<text text-anchor="start" x="125.629" y="-15.4" font-family="sans-serif" font-size="14.00" fill="#000000"> &#160;Declarations</text>
<polygon fill="#8dd3c7" stroke="transparent" points="215,-10 215,-30 235,-30 235,-10 215,-10"/>
<text text-anchor="start" x="238.7251" y="-15.4" font-family="sans-serif" font-size="14.00" fill="#000000"> &#160;Module</text>
<polygon fill="#80b1d3" stroke="transparent" points="301,-10 301,-30 321,-30 321,-10 301,-10"/>
<text text-anchor="start" x="324.7812" y="-15.4" font-family="sans-serif" font-size="14.00" fill="#000000"> &#160;Bootstrap</text>
<polygon fill="#fdb462" stroke="transparent" points="398,-10 398,-30 418,-30 418,-10 398,-10"/>
<text text-anchor="start" x="421.6732" y="-15.4" font-family="sans-serif" font-size="14.00" fill="#000000"> &#160;Providers</text>
<polygon fill="#fb8072" stroke="transparent" points="494,-10 494,-30 514,-30 514,-10 494,-10"/>
<text text-anchor="start" x="517.7258" y="-15.4" font-family="sans-serif" font-size="14.00" fill="#000000"> &#160;Exports</text>
<g id="clust1" class="cluster">
<title>cluster_DatePickerModule</title>
<polygon fill="none" stroke="#000000" stroke-dasharray="1,5" points="8,-70 8,-379.5901 664,-379.5901 664,-70 8,-70"/>
</g>
<g id="clust2" class="cluster">
<title>cluster_DatePickerModule_declarations</title>
<polygon fill="none" stroke="#000000" points="399,-189.5901 399,-241.5901 493,-241.5901 493,-189.5901 399,-189.5901"/>
</g>
<g id="clust3" class="cluster">
<title>cluster_DatePickerModule_DatePicker_providers</title>
<polygon fill="none" stroke="#000000" points="16,-78 16,-176.5901 656,-176.5901 656,-78 16,-78"/>
</g>
<g id="clust4" class="cluster">
<title>cluster_DatePickerModule_imports</title>
<polygon fill="none" stroke="#000000" points="16,-189.5901 16,-241.5901 391,-241.5901 391,-189.5901 16,-189.5901"/>
</g>
<g id="clust5" class="cluster">
<title>cluster_DatePickerModule_exports</title>
<polygon fill="none" stroke="#000000" points="86,-319.5901 86,-371.5901 356,-371.5901 356,-319.5901 86,-319.5901"/>
</g>
<!-- DatePicker -->
<g id="node1" class="node">
<title>DatePicker</title>
<polygon fill="#ffffb3" stroke="#000000" points="485.1896,-233.5901 406.8104,-233.5901 406.8104,-197.5901 485.1896,-197.5901 485.1896,-233.5901"/>
<text text-anchor="middle" x="446" y="-211.3901" font-family="Times,serif" font-size="14.00" fill="#000000">DatePicker</text>
</g>
<!-- DatePickerModule -->
<g id="node2" class="node">
<title>DatePickerModule</title>
<polygon fill="#8dd3c7" stroke="#000000" points="299.7395,-298.5901 296.7395,-302.5901 275.7395,-302.5901 272.7395,-298.5901 178.2605,-298.5901 178.2605,-262.5901 299.7395,-262.5901 299.7395,-298.5901"/>
<text text-anchor="middle" x="239" y="-276.3901" font-family="Times,serif" font-size="14.00" fill="#000000">DatePickerModule</text>
</g>
<!-- DatePicker&#45;&gt;DatePickerModule -->
<g id="edge1" class="edge">
<title>DatePicker&#45;&gt;DatePickerModule</title>
<path fill="none" stroke="#000000" d="M446,-233.6962C446,-252.9292 446,-280.5901 446,-280.5901 446,-280.5901 309.9872,-280.5901 309.9872,-280.5901"/>
<polygon fill="#000000" stroke="#000000" points="309.9873,-277.0902 299.9872,-280.5901 309.9872,-284.0902 309.9873,-277.0902"/>
</g>
<!-- DatePicker  -->
<g id="node7" class="node">
<title>DatePicker </title>
<polygon fill="#fb8072" stroke="#000000" points="347.69,-363.5901 266.31,-363.5901 266.31,-327.5901 347.69,-327.5901 347.69,-363.5901"/>
<text text-anchor="middle" x="307" y="-341.3901" font-family="Times,serif" font-size="14.00" fill="#000000">DatePicker </text>
</g>
<!-- DatePickerModule&#45;&gt;DatePicker  -->
<g id="edge6" class="edge">
<title>DatePickerModule&#45;&gt;DatePicker </title>
<path fill="none" stroke="#000000" stroke-dasharray="5,2" d="M283.0125,-298.6962C283.0125,-298.6962 283.0125,-317.581 283.0125,-317.581"/>
<polygon fill="#000000" stroke="#000000" points="279.5125,-317.581 283.0125,-327.581 286.5125,-317.5811 279.5125,-317.581"/>
</g>
<!-- DatePickerInputModule  -->
<g id="node8" class="node">
<title>DatePickerInputModule </title>
<polygon fill="#fb8072" stroke="#000000" points="248.2905,-363.5901 93.7095,-363.5901 93.7095,-327.5901 248.2905,-327.5901 248.2905,-363.5901"/>
<text text-anchor="middle" x="171" y="-341.3901" font-family="Times,serif" font-size="14.00" fill="#000000">DatePickerInputModule </text>
</g>
<!-- DatePickerModule&#45;&gt;DatePickerInputModule  -->
<g id="edge7" class="edge">
<title>DatePickerModule&#45;&gt;DatePickerInputModule </title>
<path fill="none" stroke="#000000" stroke-dasharray="5,2" d="M213.2628,-298.6962C213.2628,-298.6962 213.2628,-317.581 213.2628,-317.581"/>
<polygon fill="#000000" stroke="#000000" points="209.7629,-317.581 213.2628,-327.581 216.7629,-317.5811 209.7629,-317.581"/>
</g>
<!-- {
 &#160;&#160;&#160;provide: NG_VALUE_ACCESSOR, useExisting: DatePicker, multi: true
} -->
<g id="node3" class="node">
<title>{
 &#160;&#160;&#160;provide: NG_VALUE_ACCESSOR, useExisting: DatePicker, multi: true
}</title>
<ellipse fill="#fdb462" stroke="#000000" cx="336" cy="-127.295" rx="312.2464" ry="41.0911"/>
<text text-anchor="middle" x="336" y="-139.895" font-family="Times,serif" font-size="14.00" fill="#000000">{</text>
<text text-anchor="middle" x="336" y="-123.095" font-family="Times,serif" font-size="14.00" fill="#000000"> &#160;&#160;&#160;provide: NG_VALUE_ACCESSOR, useExisting: DatePicker, multi: true</text>
<text text-anchor="middle" x="336" y="-106.295" font-family="Times,serif" font-size="14.00" fill="#000000">}</text>
</g>
<!-- {
 &#160;&#160;&#160;provide: NG_VALUE_ACCESSOR, useExisting: DatePicker, multi: true
}&#45;&gt;DatePicker -->
<g id="edge2" class="edge">
<title>{
 &#160;&#160;&#160;provide: NG_VALUE_ACCESSOR, useExisting: DatePicker, multi: true
}&#45;&gt;DatePicker</title>
<path fill="none" stroke="#000000" d="M446,-166.0225C446,-166.0225 446,-187.4408 446,-187.4408"/>
<polygon fill="#000000" stroke="#000000" points="442.5001,-187.4407 446,-197.4408 449.5001,-187.4408 442.5001,-187.4407"/>
</g>
<!-- DatePickerInputModule -->
<g id="node4" class="node">
<title>DatePickerInputModule</title>
<polygon fill="#8dd3c7" stroke="#000000" points="382.7907,-233.5901 379.7907,-237.5901 358.7907,-237.5901 355.7907,-233.5901 231.2093,-233.5901 231.2093,-197.5901 382.7907,-197.5901 382.7907,-233.5901"/>
<text text-anchor="middle" x="307" y="-211.3901" font-family="Times,serif" font-size="14.00" fill="#000000">DatePickerInputModule</text>
</g>
<!-- DatePickerInputModule&#45;&gt;DatePickerModule -->
<g id="edge3" class="edge">
<title>DatePickerInputModule&#45;&gt;DatePickerModule</title>
<path fill="none" stroke="#000000" d="M265.6122,-233.6962C265.6122,-233.6962 265.6122,-252.581 265.6122,-252.581"/>
<polygon fill="#000000" stroke="#000000" points="262.1123,-252.581 265.6122,-262.581 269.1123,-252.5811 262.1123,-252.581"/>
</g>
<!-- I18nModule -->
<g id="node5" class="node">
<title>I18nModule</title>
<polygon fill="#8dd3c7" stroke="#000000" points="213.7107,-233.5901 210.7107,-237.5901 189.7107,-237.5901 186.7107,-233.5901 128.2893,-233.5901 128.2893,-197.5901 213.7107,-197.5901 213.7107,-233.5901"/>
<text text-anchor="middle" x="171" y="-211.3901" font-family="Times,serif" font-size="14.00" fill="#000000">I18nModule</text>
</g>
<!-- I18nModule&#45;&gt;DatePickerModule -->
<g id="edge4" class="edge">
<title>I18nModule&#45;&gt;DatePickerModule</title>
<path fill="none" stroke="#000000" d="M195.8678,-233.6962C195.8678,-233.6962 195.8678,-252.581 195.8678,-252.581"/>
<polygon fill="#000000" stroke="#000000" points="192.3679,-252.581 195.8678,-262.581 199.3679,-252.5811 192.3679,-252.581"/>
</g>
<!-- UtilsModule -->
<g id="node6" class="node">
<title>UtilsModule</title>
<polygon fill="#8dd3c7" stroke="#000000" points="110.2731,-233.5901 107.2731,-237.5901 86.2731,-237.5901 83.2731,-233.5901 23.7269,-233.5901 23.7269,-197.5901 110.2731,-197.5901 110.2731,-233.5901"/>
<text text-anchor="middle" x="67" y="-211.3901" font-family="Times,serif" font-size="14.00" fill="#000000">UtilsModule</text>
</g>
<!-- UtilsModule&#45;&gt;DatePickerModule -->
<g id="edge5" class="edge">
<title>UtilsModule&#45;&gt;DatePickerModule</title>
<path fill="none" stroke="#000000" d="M101.9956,-233.6962C101.9956,-252.9292 101.9956,-280.5901 101.9956,-280.5901 101.9956,-280.5901 168.11,-280.5901 168.11,-280.5901"/>
<polygon fill="#000000" stroke="#000000" points="168.1101,-284.0902 178.11,-280.5901 168.11,-277.0902 168.1101,-284.0902"/>
</g>
</g>
</svg>
