<?xml version="1.0" encoding="UTF-8" standalone="no"?>
<!DOCTYPE svg PUBLIC "-//W3C//DTD SVG 1.1//EN"
 "http://www.w3.org/Graphics/SVG/1.1/DTD/svg11.dtd">
<!-- Generated by graphviz version 2.40.1 (20161225.0304)
 -->
<!-- Title: dependencies Pages: 1 -->
<svg width="504pt" height="284pt"
 viewBox="0.00 0.00 504.00 284.00" xmlns="http://www.w3.org/2000/svg" xmlns:xlink="http://www.w3.org/1999/xlink">
<g id="graph0" class="graph" transform="scale(1 1) rotate(0) translate(4 280)">
<title>dependencies</title>
<polygon fill="#ffffff" stroke="transparent" points="-4,4 -4,-280 500,-280 500,4 -4,4"/>
<text text-anchor="start" x="227.0091" y="-42.4" font-family="sans-serif" font-weight="bold" font-size="14.00" fill="#000000">Legend</text>
<polygon fill="#ffffb3" stroke="transparent" points="14,-10 14,-30 34,-30 34,-10 14,-10"/>
<text text-anchor="start" x="37.629" y="-15.4" font-family="sans-serif" font-size="14.00" fill="#000000"> &#160;Declarations</text>
<polygon fill="#8dd3c7" stroke="transparent" points="127,-10 127,-30 147,-30 147,-10 127,-10"/>
<text text-anchor="start" x="150.7251" y="-15.4" font-family="sans-serif" font-size="14.00" fill="#000000"> &#160;Module</text>
<polygon fill="#80b1d3" stroke="transparent" points="213,-10 213,-30 233,-30 233,-10 213,-10"/>
<text text-anchor="start" x="236.7812" y="-15.4" font-family="sans-serif" font-size="14.00" fill="#000000"> &#160;Bootstrap</text>
<polygon fill="#fdb462" stroke="transparent" points="310,-10 310,-30 330,-30 330,-10 310,-10"/>
<text text-anchor="start" x="333.6732" y="-15.4" font-family="sans-serif" font-size="14.00" fill="#000000"> &#160;Providers</text>
<polygon fill="#fb8072" stroke="transparent" points="406,-10 406,-30 426,-30 426,-10 406,-10"/>
<text text-anchor="start" x="429.7258" y="-15.4" font-family="sans-serif" font-size="14.00" fill="#000000"> &#160;Exports</text>
<g id="clust1" class="cluster">
<title>cluster_SearchModule</title>
<polygon fill="none" stroke="#000000" stroke-dasharray="1,5" points="150,-70 150,-268 346,-268 346,-70 150,-70"/>
</g>
<g id="clust2" class="cluster">
<title>cluster_SearchModule_declarations</title>
<polygon fill="none" stroke="#000000" points="268,-78 268,-130 338,-130 338,-78 268,-78"/>
</g>
<g id="clust4" class="cluster">
<title>cluster_SearchModule_imports</title>
<polygon fill="none" stroke="#000000" points="158,-78 158,-130 260,-130 260,-78 158,-78"/>
</g>
<g id="clust5" class="cluster">
<title>cluster_SearchModule_exports</title>
<polygon fill="none" stroke="#000000" points="212,-208 212,-260 286,-260 286,-208 212,-208"/>
</g>
<!-- Search -->
<g id="node1" class="node">
<title>Search</title>
<polygon fill="#ffffb3" stroke="#000000" points="330.0871,-122 275.9129,-122 275.9129,-86 330.0871,-86 330.0871,-122"/>
<text text-anchor="middle" x="303" y="-99.8" font-family="Times,serif" font-size="14.00" fill="#000000">Search</text>
</g>
<!-- SearchModule -->
<g id="node2" class="node">
<title>SearchModule</title>
<polygon fill="#8dd3c7" stroke="#000000" points="297.6375,-187 294.6375,-191 273.6375,-191 270.6375,-187 200.3625,-187 200.3625,-151 297.6375,-151 297.6375,-187"/>
<text text-anchor="middle" x="249" y="-164.8" font-family="Times,serif" font-size="14.00" fill="#000000">SearchModule</text>
</g>
<!-- Search&#45;&gt;SearchModule -->
<g id="edge1" class="edge">
<title>Search&#45;&gt;SearchModule</title>
<path fill="none" stroke="#000000" d="M286.8875,-122.1061C286.8875,-122.1061 286.8875,-140.991 286.8875,-140.991"/>
<polygon fill="#000000" stroke="#000000" points="283.3875,-140.9909 286.8875,-150.991 290.3875,-140.991 283.3875,-140.9909"/>
</g>
<!-- Search  -->
<g id="node4" class="node">
<title>Search </title>
<polygon fill="#fb8072" stroke="#000000" points="277.5885,-252 220.4115,-252 220.4115,-216 277.5885,-216 277.5885,-252"/>
<text text-anchor="middle" x="249" y="-229.8" font-family="Times,serif" font-size="14.00" fill="#000000">Search </text>
</g>
<!-- SearchModule&#45;&gt;Search  -->
<g id="edge3" class="edge">
<title>SearchModule&#45;&gt;Search </title>
<path fill="none" stroke="#000000" stroke-dasharray="5,2" d="M249,-187.1061C249,-187.1061 249,-205.991 249,-205.991"/>
<polygon fill="#000000" stroke="#000000" points="245.5001,-205.9909 249,-215.991 252.5001,-205.991 245.5001,-205.9909"/>
</g>
<!-- I18nModule -->
<g id="node3" class="node">
<title>I18nModule</title>
<polygon fill="#8dd3c7" stroke="#000000" points="251.7107,-122 248.7107,-126 227.7107,-126 224.7107,-122 166.2893,-122 166.2893,-86 251.7107,-86 251.7107,-122"/>
<text text-anchor="middle" x="209" y="-99.8" font-family="Times,serif" font-size="14.00" fill="#000000">I18nModule</text>
</g>
<!-- I18nModule&#45;&gt;SearchModule -->
<g id="edge2" class="edge">
<title>I18nModule&#45;&gt;SearchModule</title>
<path fill="none" stroke="#000000" d="M225.8934,-122.1061C225.8934,-122.1061 225.8934,-140.991 225.8934,-140.991"/>
<polygon fill="#000000" stroke="#000000" points="222.3935,-140.9909 225.8934,-150.991 229.3935,-140.991 222.3935,-140.9909"/>
</g>
</g>
</svg>
