<?xml version="1.0" encoding="UTF-8" standalone="no"?>
<!DOCTYPE svg PUBLIC "-//W3C//DTD SVG 1.1//EN"
 "http://www.w3.org/Graphics/SVG/1.1/DTD/svg11.dtd">
<!-- Generated by graphviz version 2.40.1 (20161225.0304)
 -->
<!-- Title: dependencies Pages: 1 -->
<svg width="504pt" height="284pt"
 viewBox="0.00 0.00 504.00 284.00" xmlns="http://www.w3.org/2000/svg" xmlns:xlink="http://www.w3.org/1999/xlink">
<g id="graph0" class="graph" transform="scale(1 1) rotate(0) translate(4 280)">
<title>dependencies</title>
<polygon fill="#ffffff" stroke="transparent" points="-4,4 -4,-280 500,-280 500,4 -4,4"/>
<text text-anchor="start" x="227.0091" y="-42.4" font-family="sans-serif" font-weight="bold" font-size="14.00" fill="#000000">Legend</text>
<polygon fill="#ffffb3" stroke="transparent" points="14,-10 14,-30 34,-30 34,-10 14,-10"/>
<text text-anchor="start" x="37.629" y="-15.4" font-family="sans-serif" font-size="14.00" fill="#000000"> &#160;Declarations</text>
<polygon fill="#8dd3c7" stroke="transparent" points="127,-10 127,-30 147,-30 147,-10 127,-10"/>
<text text-anchor="start" x="150.7251" y="-15.4" font-family="sans-serif" font-size="14.00" fill="#000000"> &#160;Module</text>
<polygon fill="#80b1d3" stroke="transparent" points="213,-10 213,-30 233,-30 233,-10 213,-10"/>
<text text-anchor="start" x="236.7812" y="-15.4" font-family="sans-serif" font-size="14.00" fill="#000000"> &#160;Bootstrap</text>
<polygon fill="#fdb462" stroke="transparent" points="310,-10 310,-30 330,-30 330,-10 310,-10"/>
<text text-anchor="start" x="333.6732" y="-15.4" font-family="sans-serif" font-size="14.00" fill="#000000"> &#160;Providers</text>
<polygon fill="#fb8072" stroke="transparent" points="406,-10 406,-30 426,-30 426,-10 406,-10"/>
<text text-anchor="start" x="429.7258" y="-15.4" font-family="sans-serif" font-size="14.00" fill="#000000"> &#160;Exports</text>
<g id="clust1" class="cluster">
<title>cluster_SampleModule</title>
<polygon fill="none" stroke="#000000" stroke-dasharray="1,5" points="150.5,-70 150.5,-268 345.5,-268 345.5,-70 150.5,-70"/>
</g>
<g id="clust2" class="cluster">
<title>cluster_SampleModule_declarations</title>
<polygon fill="none" stroke="#000000" points="161.5,-78 161.5,-130 333.5,-130 333.5,-78 161.5,-78"/>
</g>
<g id="clust6" class="cluster">
<title>cluster_SampleModule_exports</title>
<polygon fill="none" stroke="#000000" points="158.5,-208 158.5,-260 337.5,-260 337.5,-208 158.5,-208"/>
</g>
<!-- Sample -->
<g id="node1" class="node">
<title>Sample</title>
<polygon fill="#ffffb3" stroke="#000000" points="325.493,-122 267.507,-122 267.507,-86 325.493,-86 325.493,-122"/>
<text text-anchor="middle" x="296.5" y="-99.8" font-family="Times,serif" font-size="14.00" fill="#000000">Sample</text>
</g>
<!-- SampleModule -->
<g id="node3" class="node">
<title>SampleModule</title>
<polygon fill="#8dd3c7" stroke="#000000" points="298.0438,-187 295.0438,-191 274.0438,-191 271.0438,-187 196.9562,-187 196.9562,-151 298.0438,-151 298.0438,-187"/>
<text text-anchor="middle" x="247.5" y="-164.8" font-family="Times,serif" font-size="14.00" fill="#000000">SampleModule</text>
</g>
<!-- Sample&#45;&gt;SampleModule -->
<g id="edge1" class="edge">
<title>Sample&#45;&gt;SampleModule</title>
<path fill="none" stroke="#000000" d="M282.8875,-122.1061C282.8875,-122.1061 282.8875,-140.991 282.8875,-140.991"/>
<polygon fill="#000000" stroke="#000000" points="279.3875,-140.9909 282.8875,-150.991 286.3875,-140.991 279.3875,-140.9909"/>
</g>
<!-- SampleSub -->
<g id="node2" class="node">
<title>SampleSub</title>
<polygon fill="#ffffb3" stroke="#000000" points="249.2759,-122 169.7241,-122 169.7241,-86 249.2759,-86 249.2759,-122"/>
<text text-anchor="middle" x="209.5" y="-99.8" font-family="Times,serif" font-size="14.00" fill="#000000">SampleSub</text>
</g>
<!-- SampleSub&#45;&gt;SampleModule -->
<g id="edge2" class="edge">
<title>SampleSub&#45;&gt;SampleModule</title>
<path fill="none" stroke="#000000" d="M223.0582,-122.1061C223.0582,-122.1061 223.0582,-140.991 223.0582,-140.991"/>
<polygon fill="#000000" stroke="#000000" points="219.5583,-140.9909 223.0582,-150.991 226.5583,-140.991 219.5583,-140.9909"/>
</g>
<!-- Sample  -->
<g id="node4" class="node">
<title>Sample </title>
<polygon fill="#fb8072" stroke="#000000" points="329.495,-252 267.505,-252 267.505,-216 329.495,-216 329.495,-252"/>
<text text-anchor="middle" x="298.5" y="-229.8" font-family="Times,serif" font-size="14.00" fill="#000000">Sample </text>
</g>
<!-- SampleModule&#45;&gt;Sample  -->
<g id="edge3" class="edge">
<title>SampleModule&#45;&gt;Sample </title>
<path fill="none" stroke="#000000" stroke-dasharray="5,2" d="M283.0125,-187.1061C283.0125,-187.1061 283.0125,-205.991 283.0125,-205.991"/>
<polygon fill="#000000" stroke="#000000" points="279.5125,-205.9909 283.0125,-215.991 286.5125,-205.991 279.5125,-205.9909"/>
</g>
<!-- SampleSub  -->
<g id="node5" class="node">
<title>SampleSub </title>
<polygon fill="#fb8072" stroke="#000000" points="250.2761,-252 166.7239,-252 166.7239,-216 250.2761,-216 250.2761,-252"/>
<text text-anchor="middle" x="208.5" y="-229.8" font-family="Times,serif" font-size="14.00" fill="#000000">SampleSub </text>
</g>
<!-- SampleModule&#45;&gt;SampleSub  -->
<g id="edge4" class="edge">
<title>SampleModule&#45;&gt;SampleSub </title>
<path fill="none" stroke="#000000" stroke-dasharray="5,2" d="M223.4332,-187.1061C223.4332,-187.1061 223.4332,-205.991 223.4332,-205.991"/>
<polygon fill="#000000" stroke="#000000" points="219.9333,-205.9909 223.4332,-215.991 226.9333,-205.991 219.9333,-205.9909"/>
</g>
</g>
</svg>
