<?xml version="1.0" encoding="UTF-8" standalone="no"?>
<!DOCTYPE svg PUBLIC "-//W3C//DTD SVG 1.1//EN"
 "http://www.w3.org/Graphics/SVG/1.1/DTD/svg11.dtd">
<!-- Generated by graphviz version 2.47.0 (20210316.0004)
 -->
<!-- Title: dependencies Pages: 1 -->
<svg width="544pt" height="284pt"
 viewBox="0.00 0.00 544.00 284.00" xmlns="http://www.w3.org/2000/svg" xmlns:xlink="http://www.w3.org/1999/xlink">
<g id="graph0" class="graph" transform="scale(1 1) rotate(0) translate(4 280)">
<title>dependencies</title>
<polygon fill="white" stroke="transparent" points="-4,4 -4,-280 540,-280 540,4 -4,4"/>
<text text-anchor="start" x="247.01" y="-42.4" font-family="Times-12" font-weight="bold" font-size="14.00">Legend</text>
<polygon fill="#ffffb3" stroke="transparent" points="34,-10 34,-30 54,-30 54,-10 34,-10"/>
<text text-anchor="start" x="57.63" y="-15.4" font-family="Times-12" font-size="14.00"> &#160;Declarations</text>
<polygon fill="#8dd3c7" stroke="transparent" points="147,-10 147,-30 167,-30 167,-10 147,-10"/>
<text text-anchor="start" x="170.73" y="-15.4" font-family="Times-12" font-size="14.00"> &#160;Module</text>
<polygon fill="#80b1d3" stroke="transparent" points="233,-10 233,-30 253,-30 253,-10 233,-10"/>
<text text-anchor="start" x="256.78" y="-15.4" font-family="Times-12" font-size="14.00"> &#160;Bootstrap</text>
<polygon fill="#fdb462" stroke="transparent" points="330,-10 330,-30 350,-30 350,-10 330,-10"/>
<text text-anchor="start" x="353.67" y="-15.4" font-family="Times-12" font-size="14.00"> &#160;Providers</text>
<polygon fill="#fb8072" stroke="transparent" points="426,-10 426,-30 446,-30 446,-10 426,-10"/>
<text text-anchor="start" x="449.73" y="-15.4" font-family="Times-12" font-size="14.00"> &#160;Exports</text>
<g id="clust1" class="cluster">
<title>cluster_ButtonModule</title>
<polygon fill="none" stroke="black" stroke-dasharray="1,5" points="8,-70 8,-268 528,-268 528,-70 8,-70"/>
</g>
<g id="clust2" class="cluster">
<title>cluster_ButtonModule_declarations</title>
<polygon fill="none" stroke="black" points="140,-78 140,-130 520,-130 520,-78 140,-78"/>
</g>
<g id="clust8" class="cluster">
<title>cluster_ButtonModule_exports</title>
<polygon fill="none" stroke="black" points="134,-208 134,-260 402,-260 402,-208 134,-208"/>
</g>
<g id="clust7" class="cluster">
<title>cluster_ButtonModule_imports</title>
<polygon fill="none" stroke="black" points="16,-78 16,-130 132,-130 132,-78 16,-78"/>
</g>
<!-- BaseIconButton -->
<g id="node1" class="node">
<title>BaseIconButton</title>
<polygon fill="#ffffb3" stroke="black" points="512.2,-122 405.8,-122 405.8,-86 512.2,-86 512.2,-122"/>
<text text-anchor="middle" x="459" y="-99.8" font-family="Times,serif" font-size="14.00">BaseIconButton</text>
</g>
<!-- ButtonModule -->
<g id="node5" class="node">
<title>ButtonModule</title>
<polygon fill="#8dd3c7" stroke="black" points="328.67,-187 325.67,-191 304.67,-191 301.67,-187 231.33,-187 231.33,-151 328.67,-151 328.67,-187"/>
<text text-anchor="middle" x="280" y="-164.8" font-family="Times,serif" font-size="14.00">ButtonModule</text>
</g>
<!-- BaseIconButton&#45;&gt;ButtonModule -->
<g id="edge1" class="edge">
<title>BaseIconButton&#45;&gt;ButtonModule</title>
<path fill="none" stroke="black" d="M459,-122.11C459,-141.34 459,-169 459,-169 459,-169 338.91,-169 338.91,-169"/>
<polygon fill="black" stroke="black" points="338.91,-165.5 328.91,-169 338.91,-172.5 338.91,-165.5"/>
</g>
<!-- Button -->
<g id="node2" class="node">
<title>Button</title>
<polygon fill="#ffffb3" stroke="black" points="388.12,-122 333.88,-122 333.88,-86 388.12,-86 388.12,-122"/>
<text text-anchor="middle" x="361" y="-99.8" font-family="Times,serif" font-size="14.00">Button</text>
</g>
<!-- Button&#45;&gt;ButtonModule -->
<g id="edge2" class="edge">
<title>Button&#45;&gt;ButtonModule</title>
<path fill="none" stroke="black" d="M333.79,-104C327.4,-104 322.42,-104 322.42,-104 322.42,-104 322.42,-140.89 322.42,-140.89"/>
<polygon fill="black" stroke="black" points="318.92,-140.89 322.42,-150.89 325.92,-140.89 318.92,-140.89"/>
</g>
<!-- ButtonSet -->
<g id="node3" class="node">
<title>ButtonSet</title>
<polygon fill="#ffffb3" stroke="black" points="316.01,-122 243.99,-122 243.99,-86 316.01,-86 316.01,-122"/>
<text text-anchor="middle" x="280" y="-99.8" font-family="Times,serif" font-size="14.00">ButtonSet</text>
</g>
<!-- ButtonSet&#45;&gt;ButtonModule -->
<g id="edge3" class="edge">
<title>ButtonSet&#45;&gt;ButtonModule</title>
<path fill="none" stroke="black" d="M280,-122.11C280,-122.11 280,-140.99 280,-140.99"/>
<polygon fill="black" stroke="black" points="276.5,-140.99 280,-150.99 283.5,-140.99 276.5,-140.99"/>
</g>
<!-- IconButton -->
<g id="node4" class="node">
<title>IconButton</title>
<polygon fill="#ffffb3" stroke="black" points="226.49,-122 147.51,-122 147.51,-86 226.49,-86 226.49,-122"/>
<text text-anchor="middle" x="187" y="-99.8" font-family="Times,serif" font-size="14.00">IconButton</text>
</g>
<!-- IconButton&#45;&gt;ButtonModule -->
<g id="edge4" class="edge">
<title>IconButton&#45;&gt;ButtonModule</title>
<path fill="none" stroke="black" d="M226.85,-104C233.12,-104 237.58,-104 237.58,-104 237.58,-104 237.58,-140.89 237.58,-140.89"/>
<polygon fill="black" stroke="black" points="234.08,-140.89 237.58,-150.89 241.08,-140.89 234.08,-140.89"/>
</g>
<!-- Button  -->
<g id="node7" class="node">
<title>Button </title>
<polygon fill="#fb8072" stroke="black" points="393.62,-252 336.38,-252 336.38,-216 393.62,-216 393.62,-252"/>
<text text-anchor="middle" x="365" y="-229.8" font-family="Times,serif" font-size="14.00">Button </text>
</g>
<!-- ButtonModule&#45;&gt;Button  -->
<g id="edge6" class="edge">
<title>ButtonModule&#45;&gt;Button </title>
<path fill="none" stroke="black" stroke-dasharray="5,2" d="M323.29,-187.11C323.29,-206.34 323.29,-234 323.29,-234 323.29,-234 326.03,-234 326.03,-234"/>
<polygon fill="black" stroke="black" points="326.03,-237.5 336.03,-234 326.03,-230.5 326.03,-237.5"/>
</g>
<!-- ButtonSet  -->
<g id="node8" class="node">
<title>ButtonSet </title>
<polygon fill="#fb8072" stroke="black" points="317.51,-252 242.49,-252 242.49,-216 317.51,-216 317.51,-252"/>
<text text-anchor="middle" x="280" y="-229.8" font-family="Times,serif" font-size="14.00">ButtonSet </text>
</g>
<!-- ButtonModule&#45;&gt;ButtonSet  -->
<g id="edge7" class="edge">
<title>ButtonModule&#45;&gt;ButtonSet </title>
<path fill="none" stroke="black" stroke-dasharray="5,2" d="M280,-187.11C280,-187.11 280,-205.99 280,-205.99"/>
<polygon fill="black" stroke="black" points="276.5,-205.99 280,-215.99 283.5,-205.99 276.5,-205.99"/>
</g>
<!-- IconButton  -->
<g id="node9" class="node">
<title>IconButton </title>
<polygon fill="#fb8072" stroke="black" points="224.49,-252 141.51,-252 141.51,-216 224.49,-216 224.49,-252"/>
<text text-anchor="middle" x="183" y="-229.8" font-family="Times,serif" font-size="14.00">IconButton </text>
</g>
<!-- ButtonModule&#45;&gt;IconButton  -->
<g id="edge8" class="edge">
<title>ButtonModule&#45;&gt;IconButton </title>
<path fill="none" stroke="black" stroke-dasharray="5,2" d="M236.71,-187.11C236.71,-206.34 236.71,-234 236.71,-234 236.71,-234 234.25,-234 234.25,-234"/>
<polygon fill="black" stroke="black" points="234.25,-230.5 224.25,-234 234.25,-237.5 234.25,-230.5"/>
</g>
<!-- TooltipModule -->
<g id="node6" class="node">
<title>TooltipModule</title>
<polygon fill="#8dd3c7" stroke="black" points="124.27,-122 121.27,-126 100.27,-126 97.27,-122 23.73,-122 23.73,-86 124.27,-86 124.27,-122"/>
<text text-anchor="middle" x="74" y="-99.8" font-family="Times,serif" font-size="14.00">TooltipModule</text>
</g>
<!-- TooltipModule&#45;&gt;ButtonModule -->
<g id="edge5" class="edge">
<title>TooltipModule&#45;&gt;ButtonModule</title>
<path fill="none" stroke="black" d="M74,-122.11C74,-141.34 74,-169 74,-169 74,-169 221.18,-169 221.18,-169"/>
<polygon fill="black" stroke="black" points="221.18,-172.5 231.18,-169 221.18,-165.5 221.18,-172.5"/>
</g>
</g>
</svg>
