<?xml version="1.0" encoding="UTF-8" standalone="no"?>
<!DOCTYPE svg PUBLIC "-//W3C//DTD SVG 1.1//EN"
 "http://www.w3.org/Graphics/SVG/1.1/DTD/svg11.dtd">
<!-- Generated by graphviz version 2.47.0 (20210316.0004)
 -->
<!-- Title: dependencies Pages: 1 -->
<svg width="561pt" height="284pt"
 viewBox="0.00 0.00 561.00 284.00" xmlns="http://www.w3.org/2000/svg" xmlns:xlink="http://www.w3.org/1999/xlink">
<g id="graph0" class="graph" transform="scale(1 1) rotate(0) translate(4 280)">
<title>dependencies</title>
<polygon fill="white" stroke="transparent" points="-4,4 -4,-280 557,-280 557,4 -4,4"/>
<text text-anchor="start" x="255.51" y="-42.4" font-family="Times-12" font-weight="bold" font-size="14.00">Legend</text>
<polygon fill="#ffffb3" stroke="transparent" points="42.5,-10 42.5,-30 62.5,-30 62.5,-10 42.5,-10"/>
<text text-anchor="start" x="66.13" y="-15.4" font-family="Times-12" font-size="14.00"> &#160;Declarations</text>
<polygon fill="#8dd3c7" stroke="transparent" points="155.5,-10 155.5,-30 175.5,-30 175.5,-10 155.5,-10"/>
<text text-anchor="start" x="179.23" y="-15.4" font-family="Times-12" font-size="14.00"> &#160;Module</text>
<polygon fill="#80b1d3" stroke="transparent" points="241.5,-10 241.5,-30 261.5,-30 261.5,-10 241.5,-10"/>
<text text-anchor="start" x="265.28" y="-15.4" font-family="Times-12" font-size="14.00"> &#160;Bootstrap</text>
<polygon fill="#fdb462" stroke="transparent" points="338.5,-10 338.5,-30 358.5,-30 358.5,-10 338.5,-10"/>
<text text-anchor="start" x="362.17" y="-15.4" font-family="Times-12" font-size="14.00"> &#160;Providers</text>
<polygon fill="#fb8072" stroke="transparent" points="434.5,-10 434.5,-30 454.5,-30 454.5,-10 434.5,-10"/>
<text text-anchor="start" x="458.23" y="-15.4" font-family="Times-12" font-size="14.00"> &#160;Exports</text>
<g id="clust1" class="cluster">
<title>cluster_BreadcrumbModule</title>
<polygon fill="none" stroke="black" stroke-dasharray="1,5" points="8,-70 8,-268 545,-268 545,-70 8,-70"/>
</g>
<g id="clust2" class="cluster">
<title>cluster_BreadcrumbModule_declarations</title>
<polygon fill="none" stroke="black" points="241,-78 241,-130 537,-130 537,-78 241,-78"/>
</g>
<g id="clust6" class="cluster">
<title>cluster_BreadcrumbModule_exports</title>
<polygon fill="none" stroke="black" points="86,-208 86,-260 388,-260 388,-208 86,-208"/>
</g>
<g id="clust5" class="cluster">
<title>cluster_BreadcrumbModule_imports</title>
<polygon fill="none" stroke="black" points="16,-78 16,-130 233,-130 233,-78 16,-78"/>
</g>
<!-- Breadcrumb -->
<g id="node1" class="node">
<title>Breadcrumb</title>
<polygon fill="#ffffb3" stroke="black" points="528.69,-122 443.31,-122 443.31,-86 528.69,-86 528.69,-122"/>
<text text-anchor="middle" x="486" y="-99.8" font-family="Times,serif" font-size="14.00">Breadcrumb</text>
</g>
<!-- BreadcrumbModule -->
<g id="node3" class="node">
<title>BreadcrumbModule</title>
<polygon fill="#8dd3c7" stroke="black" points="318.24,-187 315.24,-191 294.24,-191 291.24,-187 189.76,-187 189.76,-151 318.24,-151 318.24,-187"/>
<text text-anchor="middle" x="254" y="-164.8" font-family="Times,serif" font-size="14.00">BreadcrumbModule</text>
</g>
<!-- Breadcrumb&#45;&gt;BreadcrumbModule -->
<g id="edge1" class="edge">
<title>Breadcrumb&#45;&gt;BreadcrumbModule</title>
<path fill="none" stroke="black" d="M486,-122.11C486,-141.34 486,-169 486,-169 486,-169 328.32,-169 328.32,-169"/>
<polygon fill="black" stroke="black" points="328.32,-165.5 318.32,-169 328.32,-172.5 328.32,-165.5"/>
</g>
<!-- BreadcrumbItemComponent -->
<g id="node2" class="node">
<title>BreadcrumbItemComponent</title>
<polygon fill="#ffffb3" stroke="black" points="425.18,-122 248.82,-122 248.82,-86 425.18,-86 425.18,-122"/>
<text text-anchor="middle" x="337" y="-99.8" font-family="Times,serif" font-size="14.00">BreadcrumbItemComponent</text>
</g>
<!-- BreadcrumbItemComponent&#45;&gt;BreadcrumbModule -->
<g id="edge2" class="edge">
<title>BreadcrumbItemComponent&#45;&gt;BreadcrumbModule</title>
<path fill="none" stroke="black" d="M283.64,-122.11C283.64,-122.11 283.64,-140.99 283.64,-140.99"/>
<polygon fill="black" stroke="black" points="280.14,-140.99 283.64,-150.99 287.14,-140.99 280.14,-140.99"/>
</g>
<!-- Breadcrumb  -->
<g id="node6" class="node">
<title>Breadcrumb </title>
<polygon fill="#fb8072" stroke="black" points="380.19,-252 291.81,-252 291.81,-216 380.19,-216 380.19,-252"/>
<text text-anchor="middle" x="336" y="-229.8" font-family="Times,serif" font-size="14.00">Breadcrumb </text>
</g>
<!-- BreadcrumbModule&#45;&gt;Breadcrumb  -->
<g id="edge5" class="edge">
<title>BreadcrumbModule&#45;&gt;Breadcrumb </title>
<path fill="none" stroke="black" stroke-dasharray="5,2" d="M305.01,-187.11C305.01,-187.11 305.01,-205.99 305.01,-205.99"/>
<polygon fill="black" stroke="black" points="301.51,-205.99 305.01,-215.99 308.51,-205.99 301.51,-205.99"/>
</g>
<!-- BreadcrumbItemComponent  -->
<g id="node7" class="node">
<title>BreadcrumbItemComponent </title>
<polygon fill="#fb8072" stroke="black" points="273.68,-252 94.32,-252 94.32,-216 273.68,-216 273.68,-252"/>
<text text-anchor="middle" x="184" y="-229.8" font-family="Times,serif" font-size="14.00">BreadcrumbItemComponent </text>
</g>
<!-- BreadcrumbModule&#45;&gt;BreadcrumbItemComponent  -->
<g id="edge6" class="edge">
<title>BreadcrumbModule&#45;&gt;BreadcrumbItemComponent </title>
<path fill="none" stroke="black" stroke-dasharray="5,2" d="M231.73,-187.11C231.73,-187.11 231.73,-205.99 231.73,-205.99"/>
<polygon fill="black" stroke="black" points="228.23,-205.99 231.73,-215.99 235.23,-205.99 228.23,-205.99"/>
</g>
<!-- DialogModule -->
<g id="node4" class="node">
<title>DialogModule</title>
<polygon fill="#8dd3c7" stroke="black" points="224.65,-122 221.65,-126 200.65,-126 197.65,-122 127.35,-122 127.35,-86 224.65,-86 224.65,-122"/>
<text text-anchor="middle" x="176" y="-99.8" font-family="Times,serif" font-size="14.00">DialogModule</text>
</g>
<!-- DialogModule&#45;&gt;BreadcrumbModule -->
<g id="edge3" class="edge">
<title>DialogModule&#45;&gt;BreadcrumbModule</title>
<path fill="none" stroke="black" d="M207.23,-122.11C207.23,-122.11 207.23,-140.99 207.23,-140.99"/>
<polygon fill="black" stroke="black" points="203.73,-140.99 207.23,-150.99 210.73,-140.99 203.73,-140.99"/>
</g>
<!-- I18nModule -->
<g id="node5" class="node">
<title>I18nModule</title>
<polygon fill="#8dd3c7" stroke="black" points="109.71,-122 106.71,-126 85.71,-126 82.71,-122 24.29,-122 24.29,-86 109.71,-86 109.71,-122"/>
<text text-anchor="middle" x="67" y="-99.8" font-family="Times,serif" font-size="14.00">I18nModule</text>
</g>
<!-- I18nModule&#45;&gt;BreadcrumbModule -->
<g id="edge4" class="edge">
<title>I18nModule&#45;&gt;BreadcrumbModule</title>
<path fill="none" stroke="black" d="M101.88,-122.11C101.88,-141.34 101.88,-169 101.88,-169 101.88,-169 179.49,-169 179.49,-169"/>
<polygon fill="black" stroke="black" points="179.49,-172.5 189.49,-169 179.49,-165.5 179.49,-172.5"/>
</g>
</g>
</svg>
