<?xml version="1.0" encoding="UTF-8" standalone="no"?>
<!DOCTYPE svg PUBLIC "-//W3C//DTD SVG 1.1//EN"
 "http://www.w3.org/Graphics/SVG/1.1/DTD/svg11.dtd">
<!-- Generated by graphviz version 2.47.0 (20210316.0004)
 -->
<!-- Title: dependencies Pages: 1 -->
<svg width="640pt" height="396pt"
 viewBox="0.00 0.00 640.00 395.59" xmlns="http://www.w3.org/2000/svg" xmlns:xlink="http://www.w3.org/1999/xlink">
<g id="graph0" class="graph" transform="scale(1 1) rotate(0) translate(4 391.59)">
<title>dependencies</title>
<polygon fill="white" stroke="transparent" points="-4,4 -4,-391.59 636,-391.59 636,4 -4,4"/>
<text text-anchor="start" x="295.01" y="-42.4" font-family="Times-12" font-weight="bold" font-size="14.00">Legend</text>
<polygon fill="#ffffb3" stroke="transparent" points="82,-10 82,-30 102,-30 102,-10 82,-10"/>
<text text-anchor="start" x="105.63" y="-15.4" font-family="Times-12" font-size="14.00"> &#160;Declarations</text>
<polygon fill="#8dd3c7" stroke="transparent" points="195,-10 195,-30 215,-30 215,-10 195,-10"/>
<text text-anchor="start" x="218.73" y="-15.4" font-family="Times-12" font-size="14.00"> &#160;Module</text>
<polygon fill="#80b1d3" stroke="transparent" points="281,-10 281,-30 301,-30 301,-10 281,-10"/>
<text text-anchor="start" x="304.78" y="-15.4" font-family="Times-12" font-size="14.00"> &#160;Bootstrap</text>
<polygon fill="#fdb462" stroke="transparent" points="378,-10 378,-30 398,-30 398,-10 378,-10"/>
<text text-anchor="start" x="401.67" y="-15.4" font-family="Times-12" font-size="14.00"> &#160;Providers</text>
<polygon fill="#fb8072" stroke="transparent" points="474,-10 474,-30 494,-30 494,-10 474,-10"/>
<text text-anchor="start" x="497.73" y="-15.4" font-family="Times-12" font-size="14.00"> &#160;Exports</text>
<g id="clust1" class="cluster">
<title>cluster_SliderModule</title>
<polygon fill="none" stroke="black" stroke-dasharray="1,5" points="8,-70 8,-379.59 624,-379.59 624,-70 8,-70"/>
</g>
<g id="clust5" class="cluster">
<title>cluster_SliderModule_exports</title>
<polygon fill="none" stroke="black" points="328,-319.59 328,-371.59 398,-371.59 398,-319.59 328,-319.59"/>
</g>
<g id="clust4" class="cluster">
<title>cluster_SliderModule_imports</title>
<polygon fill="none" stroke="black" points="359,-189.59 359,-241.59 461,-241.59 461,-189.59 359,-189.59"/>
</g>
<g id="clust2" class="cluster">
<title>cluster_SliderModule_declarations</title>
<polygon fill="none" stroke="black" points="281,-189.59 281,-241.59 351,-241.59 351,-189.59 281,-189.59"/>
</g>
<g id="clust3" class="cluster">
<title>cluster_SliderModule_Slider_providers</title>
<polygon fill="none" stroke="black" points="16,-78 16,-176.59 616,-176.59 616,-78 16,-78"/>
</g>
<!-- Slider -->
<g id="node1" class="node">
<title>Slider</title>
<polygon fill="#ffffb3" stroke="black" points="343,-233.59 289,-233.59 289,-197.59 343,-197.59 343,-233.59"/>
<text text-anchor="middle" x="316" y="-211.39" font-family="Times,serif" font-size="14.00">Slider</text>
</g>
<!-- SliderModule -->
<g id="node2" class="node">
<title>SliderModule</title>
<polygon fill="#8dd3c7" stroke="black" points="409.49,-298.59 406.49,-302.59 385.49,-302.59 382.49,-298.59 316.51,-298.59 316.51,-262.59 409.49,-262.59 409.49,-298.59"/>
<text text-anchor="middle" x="363" y="-276.39" font-family="Times,serif" font-size="14.00">SliderModule</text>
</g>
<!-- Slider&#45;&gt;SliderModule -->
<g id="edge1" class="edge">
<title>Slider&#45;&gt;SliderModule</title>
<path fill="none" stroke="black" d="M329.75,-233.7C329.75,-233.7 329.75,-252.58 329.75,-252.58"/>
<polygon fill="black" stroke="black" points="326.25,-252.58 329.75,-262.58 333.25,-252.58 326.25,-252.58"/>
</g>
<!-- Slider  -->
<g id="node5" class="node">
<title>Slider </title>
<polygon fill="#fb8072" stroke="black" points="390,-363.59 336,-363.59 336,-327.59 390,-327.59 390,-363.59"/>
<text text-anchor="middle" x="363" y="-341.39" font-family="Times,serif" font-size="14.00">Slider </text>
</g>
<!-- SliderModule&#45;&gt;Slider  -->
<g id="edge4" class="edge">
<title>SliderModule&#45;&gt;Slider </title>
<path fill="none" stroke="black" stroke-dasharray="5,2" d="M363,-298.7C363,-298.7 363,-317.58 363,-317.58"/>
<polygon fill="black" stroke="black" points="359.5,-317.58 363,-327.58 366.5,-317.58 359.5,-317.58"/>
</g>
<!-- {
 &#160;&#160;&#160;provide: NG_VALUE_ACCESSOR, useExisting: Slider, multi: true
} -->
<g id="node3" class="node">
<title>{
 &#160;&#160;&#160;provide: NG_VALUE_ACCESSOR, useExisting: Slider, multi: true
}</title>
<ellipse fill="#fdb462" stroke="black" cx="316" cy="-127.3" rx="292.09" ry="41.09"/>
<text text-anchor="middle" x="316" y="-139.9" font-family="Times,serif" font-size="14.00">{</text>
<text text-anchor="middle" x="316" y="-123.1" font-family="Times,serif" font-size="14.00"> &#160;&#160;&#160;provide: NG_VALUE_ACCESSOR, useExisting: Slider, multi: true</text>
<text text-anchor="middle" x="316" y="-106.3" font-family="Times,serif" font-size="14.00">}</text>
</g>
<!-- {
 &#160;&#160;&#160;provide: NG_VALUE_ACCESSOR, useExisting: Slider, multi: true
}&#45;&gt;Slider -->
<g id="edge2" class="edge">
<title>{
 &#160;&#160;&#160;provide: NG_VALUE_ACCESSOR, useExisting: Slider, multi: true
}&#45;&gt;Slider</title>
<path fill="none" stroke="black" d="M316,-168.6C316,-168.6 316,-187.26 316,-187.26"/>
<polygon fill="black" stroke="black" points="312.5,-187.26 316,-197.26 319.5,-187.26 312.5,-187.26"/>
</g>
<!-- UtilsModule -->
<g id="node4" class="node">
<title>UtilsModule</title>
<polygon fill="#8dd3c7" stroke="black" points="453.27,-233.59 450.27,-237.59 429.27,-237.59 426.27,-233.59 366.73,-233.59 366.73,-197.59 453.27,-197.59 453.27,-233.59"/>
<text text-anchor="middle" x="410" y="-211.39" font-family="Times,serif" font-size="14.00">UtilsModule</text>
</g>
<!-- UtilsModule&#45;&gt;SliderModule -->
<g id="edge3" class="edge">
<title>UtilsModule&#45;&gt;SliderModule</title>
<path fill="none" stroke="black" d="M388.05,-233.7C388.05,-233.7 388.05,-252.58 388.05,-252.58"/>
<polygon fill="black" stroke="black" points="384.55,-252.58 388.05,-262.58 391.55,-252.58 384.55,-252.58"/>
</g>
</g>
</svg>
