<?xml version="1.0" encoding="UTF-8" standalone="no"?>
<!DOCTYPE svg PUBLIC "-//W3C//DTD SVG 1.1//EN"
 "http://www.w3.org/Graphics/SVG/1.1/DTD/svg11.dtd">
<!-- Generated by graphviz version 2.40.1 (20161225.0304)
 -->
<!-- Title: dependencies Pages: 1 -->
<svg width="978pt" height="284pt"
 viewBox="0.00 0.00 978.00 284.00" xmlns="http://www.w3.org/2000/svg" xmlns:xlink="http://www.w3.org/1999/xlink">
<g id="graph0" class="graph" transform="scale(1 1) rotate(0) translate(4 280)">
<title>dependencies</title>
<polygon fill="#ffffff" stroke="transparent" points="-4,4 -4,-280 974,-280 974,4 -4,4"/>
<text text-anchor="start" x="464.0091" y="-42.4" font-family="sans-serif" font-weight="bold" font-size="14.00" fill="#000000">Legend</text>
<polygon fill="#ffffb3" stroke="transparent" points="251,-10 251,-30 271,-30 271,-10 251,-10"/>
<text text-anchor="start" x="274.629" y="-15.4" font-family="sans-serif" font-size="14.00" fill="#000000"> &#160;Declarations</text>
<polygon fill="#8dd3c7" stroke="transparent" points="364,-10 364,-30 384,-30 384,-10 364,-10"/>
<text text-anchor="start" x="387.7251" y="-15.4" font-family="sans-serif" font-size="14.00" fill="#000000"> &#160;Module</text>
<polygon fill="#80b1d3" stroke="transparent" points="450,-10 450,-30 470,-30 470,-10 450,-10"/>
<text text-anchor="start" x="473.7812" y="-15.4" font-family="sans-serif" font-size="14.00" fill="#000000"> &#160;Bootstrap</text>
<polygon fill="#fdb462" stroke="transparent" points="547,-10 547,-30 567,-30 567,-10 547,-10"/>
<text text-anchor="start" x="570.6732" y="-15.4" font-family="sans-serif" font-size="14.00" fill="#000000"> &#160;Providers</text>
<polygon fill="#fb8072" stroke="transparent" points="643,-10 643,-30 663,-30 663,-10 643,-10"/>
<text text-anchor="start" x="666.7258" y="-15.4" font-family="sans-serif" font-size="14.00" fill="#000000"> &#160;Exports</text>
<g id="clust1" class="cluster">
<title>cluster_CalendarModule</title>
<polygon fill="none" stroke="#000000" stroke-dasharray="1,5" points="8,-70 8,-268 962,-268 962,-70 8,-70"/>
</g>
<g id="clust2" class="cluster">
<title>cluster_CalendarModule_declarations</title>
<polygon fill="none" stroke="#000000" points="258,-78 258,-130 954,-130 954,-78 258,-78"/>
</g>
<g id="clust9" class="cluster">
<title>cluster_CalendarModule_imports</title>
<polygon fill="none" stroke="#000000" points="16,-78 16,-130 250,-130 250,-78 16,-78"/>
</g>
<g id="clust10" class="cluster">
<title>cluster_CalendarModule_exports</title>
<polygon fill="none" stroke="#000000" points="115,-208 115,-260 832,-260 832,-208 115,-208"/>
</g>
<!-- Calendar -->
<g id="node1" class="node">
<title>Calendar</title>
<polygon fill="#ffffb3" stroke="#000000" points="946.0332,-122 879.9668,-122 879.9668,-86 946.0332,-86 946.0332,-122"/>
<text text-anchor="middle" x="913" y="-99.8" font-family="Times,serif" font-size="14.00" fill="#000000">Calendar</text>
</g>
<!-- CalendarModule -->
<g id="node7" class="node">
<title>CalendarModule</title>
<polygon fill="#8dd3c7" stroke="#000000" points="545.0814,-187 542.0814,-191 521.0814,-191 518.0814,-187 434.9186,-187 434.9186,-151 545.0814,-151 545.0814,-187"/>
<text text-anchor="middle" x="490" y="-164.8" font-family="Times,serif" font-size="14.00" fill="#000000">CalendarModule</text>
</g>
<!-- Calendar&#45;&gt;CalendarModule -->
<g id="edge1" class="edge">
<title>Calendar&#45;&gt;CalendarModule</title>
<path fill="none" stroke="#000000" d="M913,-122.1061C913,-141.3391 913,-169 913,-169 913,-169 555.2999,-169 555.2999,-169"/>
<polygon fill="#000000" stroke="#000000" points="555.2999,-165.5001 545.2999,-169 555.2998,-172.5001 555.2999,-165.5001"/>
</g>
<!-- CalendarHeader -->
<g id="node2" class="node">
<title>CalendarHeader</title>
<polygon fill="#ffffb3" stroke="#000000" points="861.4426,-122 754.5574,-122 754.5574,-86 861.4426,-86 861.4426,-122"/>
<text text-anchor="middle" x="808" y="-99.8" font-family="Times,serif" font-size="14.00" fill="#000000">CalendarHeader</text>
</g>
<!-- CalendarHeader&#45;&gt;CalendarModule -->
<g id="edge2" class="edge">
<title>CalendarHeader&#45;&gt;CalendarModule</title>
<path fill="none" stroke="#000000" d="M777.6911,-122.0225C777.6911,-139.3734 777.6911,-163 777.6911,-163 777.6911,-163 555.1293,-163 555.1293,-163"/>
<polygon fill="#000000" stroke="#000000" points="555.1294,-159.5001 545.1293,-163 555.1293,-166.5001 555.1294,-159.5001"/>
</g>
<!-- CalendarMonth -->
<g id="node3" class="node">
<title>CalendarMonth</title>
<polygon fill="#ffffb3" stroke="#000000" points="736.8669,-122 633.1331,-122 633.1331,-86 736.8669,-86 736.8669,-122"/>
<text text-anchor="middle" x="685" y="-99.8" font-family="Times,serif" font-size="14.00" fill="#000000">CalendarMonth</text>
</g>
<!-- CalendarMonth&#45;&gt;CalendarModule -->
<g id="edge3" class="edge">
<title>CalendarMonth&#45;&gt;CalendarModule</title>
<path fill="none" stroke="#000000" d="M684.644,-122.2396C684.644,-137.5706 684.644,-157 684.644,-157 684.644,-157 555.2565,-157 555.2565,-157"/>
<polygon fill="#000000" stroke="#000000" points="555.2565,-153.5001 545.2565,-157 555.2565,-160.5001 555.2565,-153.5001"/>
</g>
<!-- CalendarMonths -->
<g id="node4" class="node">
<title>CalendarMonths</title>
<polygon fill="#ffffb3" stroke="#000000" points="614.8118,-122 505.1882,-122 505.1882,-86 614.8118,-86 614.8118,-122"/>
<text text-anchor="middle" x="560" y="-99.8" font-family="Times,serif" font-size="14.00" fill="#000000">CalendarMonths</text>
</g>
<!-- CalendarMonths&#45;&gt;CalendarModule -->
<g id="edge4" class="edge">
<title>CalendarMonths&#45;&gt;CalendarModule</title>
<path fill="none" stroke="#000000" d="M525.1925,-122.1061C525.1925,-122.1061 525.1925,-140.991 525.1925,-140.991"/>
<polygon fill="#000000" stroke="#000000" points="521.6926,-140.9909 525.1925,-150.991 528.6926,-140.991 521.6926,-140.9909"/>
</g>
<!-- CalendarQuarter -->
<g id="node5" class="node">
<title>CalendarQuarter</title>
<polygon fill="#ffffb3" stroke="#000000" points="487.7796,-122 378.2204,-122 378.2204,-86 487.7796,-86 487.7796,-122"/>
<text text-anchor="middle" x="433" y="-99.8" font-family="Times,serif" font-size="14.00" fill="#000000">CalendarQuarter</text>
</g>
<!-- CalendarQuarter&#45;&gt;CalendarModule -->
<g id="edge5" class="edge">
<title>CalendarQuarter&#45;&gt;CalendarModule</title>
<path fill="none" stroke="#000000" d="M461.2995,-122.1061C461.2995,-122.1061 461.2995,-140.991 461.2995,-140.991"/>
<polygon fill="#000000" stroke="#000000" points="457.7995,-140.9909 461.2995,-150.991 464.7995,-140.991 457.7995,-140.9909"/>
</g>
<!-- CalendarYear -->
<g id="node6" class="node">
<title>CalendarYear</title>
<polygon fill="#ffffb3" stroke="#000000" points="359.7284,-122 266.2716,-122 266.2716,-86 359.7284,-86 359.7284,-122"/>
<text text-anchor="middle" x="313" y="-99.8" font-family="Times,serif" font-size="14.00" fill="#000000">CalendarYear</text>
</g>
<!-- CalendarYear&#45;&gt;CalendarModule -->
<g id="edge6" class="edge">
<title>CalendarYear&#45;&gt;CalendarModule</title>
<path fill="none" stroke="#000000" d="M355.6268,-122.2396C355.6268,-137.5706 355.6268,-157 355.6268,-157 355.6268,-157 424.9576,-157 424.9576,-157"/>
<polygon fill="#000000" stroke="#000000" points="424.9576,-160.5001 434.9576,-157 424.9575,-153.5001 424.9576,-160.5001"/>
</g>
<!-- Calendar  -->
<g id="node10" class="node">
<title>Calendar </title>
<polygon fill="#fb8072" stroke="#000000" points="824.0316,-252 753.9684,-252 753.9684,-216 824.0316,-216 824.0316,-252"/>
<text text-anchor="middle" x="789" y="-229.8" font-family="Times,serif" font-size="14.00" fill="#000000">Calendar </text>
</g>
<!-- CalendarModule&#45;&gt;Calendar  -->
<g id="edge9" class="edge">
<title>CalendarModule&#45;&gt;Calendar </title>
<path fill="none" stroke="#000000" stroke-dasharray="5,2" d="M545.2162,-175C634.543,-175 800.8534,-175 800.8534,-175 800.8534,-175 800.8534,-205.9775 800.8534,-205.9775"/>
<polygon fill="#000000" stroke="#000000" points="797.3535,-205.9774 800.8534,-215.9775 804.3535,-205.9775 797.3535,-205.9774"/>
</g>
<!-- CalendarHeader  -->
<g id="node11" class="node">
<title>CalendarHeader </title>
<polygon fill="#fb8072" stroke="#000000" points="736.4435,-252 625.5565,-252 625.5565,-216 736.4435,-216 736.4435,-252"/>
<text text-anchor="middle" x="681" y="-229.8" font-family="Times,serif" font-size="14.00" fill="#000000">CalendarHeader </text>
</g>
<!-- CalendarModule&#45;&gt;CalendarHeader  -->
<g id="edge10" class="edge">
<title>CalendarModule&#45;&gt;CalendarHeader </title>
<path fill="none" stroke="#000000" stroke-dasharray="5,2" d="M545.1035,-181C584.0745,-181 629.4227,-181 629.4227,-181 629.4227,-181 629.4227,-205.7604 629.4227,-205.7604"/>
<polygon fill="#000000" stroke="#000000" points="625.9227,-205.7604 629.4227,-215.7604 632.9227,-205.7604 625.9227,-205.7604"/>
</g>
<!-- CalendarMonth  -->
<g id="node12" class="node">
<title>CalendarMonth </title>
<polygon fill="#fb8072" stroke="#000000" points="607.8674,-252 500.1326,-252 500.1326,-216 607.8674,-216 607.8674,-252"/>
<text text-anchor="middle" x="554" y="-229.8" font-family="Times,serif" font-size="14.00" fill="#000000">CalendarMonth </text>
</g>
<!-- CalendarModule&#45;&gt;CalendarMonth  -->
<g id="edge11" class="edge">
<title>CalendarModule&#45;&gt;CalendarMonth </title>
<path fill="none" stroke="#000000" stroke-dasharray="5,2" d="M522.6787,-187.1061C522.6787,-187.1061 522.6787,-205.991 522.6787,-205.991"/>
<polygon fill="#000000" stroke="#000000" points="519.1787,-205.9909 522.6787,-215.991 526.1787,-205.991 519.1787,-205.9909"/>
</g>
<!-- CalendarMonths  -->
<g id="node13" class="node">
<title>CalendarMonths </title>
<polygon fill="#fb8072" stroke="#000000" points="482.3116,-252 369.6884,-252 369.6884,-216 482.3116,-216 482.3116,-252"/>
<text text-anchor="middle" x="426" y="-229.8" font-family="Times,serif" font-size="14.00" fill="#000000">CalendarMonths </text>
</g>
<!-- CalendarModule&#45;&gt;CalendarMonths  -->
<g id="edge12" class="edge">
<title>CalendarModule&#45;&gt;CalendarMonths </title>
<path fill="none" stroke="#000000" stroke-dasharray="5,2" d="M458.6825,-187.1061C458.6825,-187.1061 458.6825,-205.991 458.6825,-205.991"/>
<polygon fill="#000000" stroke="#000000" points="455.1826,-205.9909 458.6825,-215.991 462.1826,-205.991 455.1826,-205.9909"/>
</g>
<!-- CalendarQuarter  -->
<g id="node14" class="node">
<title>CalendarQuarter </title>
<polygon fill="#fb8072" stroke="#000000" points="351.2794,-252 238.7206,-252 238.7206,-216 351.2794,-216 351.2794,-252"/>
<text text-anchor="middle" x="295" y="-229.8" font-family="Times,serif" font-size="14.00" fill="#000000">CalendarQuarter </text>
</g>
<!-- CalendarModule&#45;&gt;CalendarQuarter  -->
<g id="edge13" class="edge">
<title>CalendarModule&#45;&gt;CalendarQuarter </title>
<path fill="none" stroke="#000000" stroke-dasharray="5,2" d="M434.6381,-181C381.3395,-181 308.7628,-181 308.7628,-181 308.7628,-181 308.7628,-205.7604 308.7628,-205.7604"/>
<polygon fill="#000000" stroke="#000000" points="305.2629,-205.7604 308.7628,-215.7604 312.2629,-205.7604 305.2629,-205.7604"/>
</g>
<!-- CalendarYear  -->
<g id="node15" class="node">
<title>CalendarYear </title>
<polygon fill="#fb8072" stroke="#000000" points="220.7283,-252 123.2717,-252 123.2717,-216 220.7283,-216 220.7283,-252"/>
<text text-anchor="middle" x="172" y="-229.8" font-family="Times,serif" font-size="14.00" fill="#000000">CalendarYear </text>
</g>
<!-- CalendarModule&#45;&gt;CalendarYear  -->
<g id="edge14" class="edge">
<title>CalendarModule&#45;&gt;CalendarYear </title>
<path fill="none" stroke="#000000" stroke-dasharray="5,2" d="M434.8288,-175C347.9906,-175 189.2007,-175 189.2007,-175 189.2007,-175 189.2007,-205.9775 189.2007,-205.9775"/>
<polygon fill="#000000" stroke="#000000" points="185.7007,-205.9775 189.2008,-215.9775 192.7007,-205.9774 185.7007,-205.9775"/>
</g>
<!-- IconModule -->
<g id="node8" class="node">
<title>IconModule</title>
<polygon fill="#8dd3c7" stroke="#000000" points="242.4261,-122 239.4261,-126 218.4261,-126 215.4261,-122 157.5739,-122 157.5739,-86 242.4261,-86 242.4261,-122"/>
<text text-anchor="middle" x="200" y="-99.8" font-family="Times,serif" font-size="14.00" fill="#000000">IconModule</text>
</g>
<!-- IconModule&#45;&gt;CalendarModule -->
<g id="edge7" class="edge">
<title>IconModule&#45;&gt;CalendarModule</title>
<path fill="none" stroke="#000000" d="M229.6122,-122.0225C229.6122,-139.3734 229.6122,-163 229.6122,-163 229.6122,-163 424.7784,-163 424.7784,-163"/>
<polygon fill="#000000" stroke="#000000" points="424.7785,-166.5001 434.7784,-163 424.7784,-159.5001 424.7785,-166.5001"/>
</g>
<!-- StaticIconModule -->
<g id="node9" class="node">
<title>StaticIconModule</title>
<polygon fill="#8dd3c7" stroke="#000000" points="140.309,-122 137.309,-126 116.309,-126 113.309,-122 23.691,-122 23.691,-86 140.309,-86 140.309,-122"/>
<text text-anchor="middle" x="82" y="-99.8" font-family="Times,serif" font-size="14.00" fill="#000000">StaticIconModule</text>
</g>
<!-- StaticIconModule&#45;&gt;CalendarModule -->
<g id="edge8" class="edge">
<title>StaticIconModule&#45;&gt;CalendarModule</title>
<path fill="none" stroke="#000000" d="M131.7702,-122.1061C131.7702,-141.3391 131.7702,-169 131.7702,-169 131.7702,-169 424.8117,-169 424.8117,-169"/>
<polygon fill="#000000" stroke="#000000" points="424.8117,-172.5001 434.8117,-169 424.8116,-165.5001 424.8117,-172.5001"/>
</g>
</g>
</svg>
