<?xml version="1.0" encoding="UTF-8" standalone="no"?>
<!DOCTYPE svg PUBLIC "-//W3C//DTD SVG 1.1//EN"
 "http://www.w3.org/Graphics/SVG/1.1/DTD/svg11.dtd">
<!-- Generated by graphviz version 2.47.0 (20210316.0004)
 -->
<!-- Title: dependencies Pages: 1 -->
<svg width="504pt" height="284pt"
 viewBox="0.00 0.00 504.00 284.00" xmlns="http://www.w3.org/2000/svg" xmlns:xlink="http://www.w3.org/1999/xlink">
<g id="graph0" class="graph" transform="scale(1 1) rotate(0) translate(4 280)">
<title>dependencies</title>
<polygon fill="white" stroke="transparent" points="-4,4 -4,-280 500,-280 500,4 -4,4"/>
<text text-anchor="start" x="227.01" y="-42.4" font-family="Times-12" font-weight="bold" font-size="14.00">Legend</text>
<polygon fill="#ffffb3" stroke="transparent" points="14,-10 14,-30 34,-30 34,-10 14,-10"/>
<text text-anchor="start" x="37.63" y="-15.4" font-family="Times-12" font-size="14.00"> &#160;Declarations</text>
<polygon fill="#8dd3c7" stroke="transparent" points="127,-10 127,-30 147,-30 147,-10 127,-10"/>
<text text-anchor="start" x="150.73" y="-15.4" font-family="Times-12" font-size="14.00"> &#160;Module</text>
<polygon fill="#80b1d3" stroke="transparent" points="213,-10 213,-30 233,-30 233,-10 213,-10"/>
<text text-anchor="start" x="236.78" y="-15.4" font-family="Times-12" font-size="14.00"> &#160;Bootstrap</text>
<polygon fill="#fdb462" stroke="transparent" points="310,-10 310,-30 330,-30 330,-10 310,-10"/>
<text text-anchor="start" x="333.67" y="-15.4" font-family="Times-12" font-size="14.00"> &#160;Providers</text>
<polygon fill="#fb8072" stroke="transparent" points="406,-10 406,-30 426,-30 426,-10 406,-10"/>
<text text-anchor="start" x="429.73" y="-15.4" font-family="Times-12" font-size="14.00"> &#160;Exports</text>
<g id="clust1" class="cluster">
<title>cluster_ListModule</title>
<polygon fill="none" stroke="black" stroke-dasharray="1,5" points="136,-70 136,-268 360,-268 360,-70 136,-70"/>
</g>
<g id="clust2" class="cluster">
<title>cluster_ListModule_declarations</title>
<polygon fill="none" stroke="black" points="146,-78 146,-130 350,-130 350,-78 146,-78"/>
</g>
<g id="clust6" class="cluster">
<title>cluster_ListModule_exports</title>
<polygon fill="none" stroke="black" points="144,-208 144,-260 352,-260 352,-208 144,-208"/>
</g>
<!-- List -->
<g id="node1" class="node">
<title>List</title>
<polygon fill="#ffffb3" stroke="black" points="342,-122 288,-122 288,-86 342,-86 342,-122"/>
<text text-anchor="middle" x="315" y="-99.8" font-family="Times,serif" font-size="14.00">List</text>
</g>
<!-- ListModule -->
<g id="node3" class="node">
<title>ListModule</title>
<polygon fill="#8dd3c7" stroke="black" points="253.83,-187 250.83,-191 229.83,-191 226.83,-187 172.17,-187 172.17,-151 253.83,-151 253.83,-187"/>
<text text-anchor="middle" x="213" y="-164.8" font-family="Times,serif" font-size="14.00">ListModule</text>
</g>
<!-- List&#45;&gt;ListModule -->
<g id="edge1" class="edge">
<title>List&#45;&gt;ListModule</title>
<path fill="none" stroke="black" d="M324.67,-122.02C324.67,-139.37 324.67,-163 324.67,-163 324.67,-163 263.95,-163 263.95,-163"/>
<polygon fill="black" stroke="black" points="263.95,-159.5 253.95,-163 263.95,-166.5 263.95,-159.5"/>
</g>
<!-- ListItemDirective -->
<g id="node2" class="node">
<title>ListItemDirective</title>
<polygon fill="#ffffb3" stroke="black" points="269.52,-122 154.48,-122 154.48,-86 269.52,-86 269.52,-122"/>
<text text-anchor="middle" x="212" y="-99.8" font-family="Times,serif" font-size="14.00">ListItemDirective</text>
</g>
<!-- ListItemDirective&#45;&gt;ListModule -->
<g id="edge2" class="edge">
<title>ListItemDirective&#45;&gt;ListModule</title>
<path fill="none" stroke="black" d="M213,-122.11C213,-122.11 213,-140.99 213,-140.99"/>
<polygon fill="black" stroke="black" points="209.5,-140.99 213,-150.99 216.5,-140.99 209.5,-140.99"/>
</g>
<!-- List  -->
<g id="node4" class="node">
<title>List </title>
<polygon fill="#fb8072" stroke="black" points="344,-252 290,-252 290,-216 344,-216 344,-252"/>
<text text-anchor="middle" x="317" y="-229.8" font-family="Times,serif" font-size="14.00">List </text>
</g>
<!-- ListModule&#45;&gt;List  -->
<g id="edge3" class="edge">
<title>ListModule&#45;&gt;List </title>
<path fill="none" stroke="black" stroke-dasharray="5,2" d="M253.83,-175C279.32,-175 307.33,-175 307.33,-175 307.33,-175 307.33,-205.98 307.33,-205.98"/>
<polygon fill="black" stroke="black" points="303.83,-205.98 307.33,-215.98 310.83,-205.98 303.83,-205.98"/>
</g>
<!-- ListItemDirective  -->
<g id="node5" class="node">
<title>ListItemDirective </title>
<polygon fill="#fb8072" stroke="black" points="271.52,-252 152.48,-252 152.48,-216 271.52,-216 271.52,-252"/>
<text text-anchor="middle" x="212" y="-229.8" font-family="Times,serif" font-size="14.00">ListItemDirective </text>
</g>
<!-- ListModule&#45;&gt;ListItemDirective  -->
<g id="edge4" class="edge">
<title>ListModule&#45;&gt;ListItemDirective </title>
<path fill="none" stroke="black" stroke-dasharray="5,2" d="M213,-187.11C213,-187.11 213,-205.99 213,-205.99"/>
<polygon fill="black" stroke="black" points="209.5,-205.99 213,-215.99 216.5,-205.99 209.5,-205.99"/>
</g>
</g>
</svg>
