<?xml version="1.0" encoding="UTF-8" standalone="no"?>
<!DOCTYPE svg PUBLIC "-//W3C//DTD SVG 1.1//EN"
 "http://www.w3.org/Graphics/SVG/1.1/DTD/svg11.dtd">
<!-- Generated by graphviz version 2.47.0 (20210316.0004)
 -->
<!-- Title: dependencies Pages: 1 -->
<svg width="504pt" height="349pt"
 viewBox="0.00 0.00 504.00 349.00" xmlns="http://www.w3.org/2000/svg" xmlns:xlink="http://www.w3.org/1999/xlink">
<g id="graph0" class="graph" transform="scale(1 1) rotate(0) translate(4 345)">
<title>dependencies</title>
<polygon fill="white" stroke="transparent" points="-4,4 -4,-345 500,-345 500,4 -4,4"/>
<text text-anchor="start" x="227.01" y="-42.4" font-family="Times-12" font-weight="bold" font-size="14.00">Legend</text>
<polygon fill="#ffffb3" stroke="transparent" points="14,-10 14,-30 34,-30 34,-10 14,-10"/>
<text text-anchor="start" x="37.63" y="-15.4" font-family="Times-12" font-size="14.00"> &#160;Declarations</text>
<polygon fill="#8dd3c7" stroke="transparent" points="127,-10 127,-30 147,-30 147,-10 127,-10"/>
<text text-anchor="start" x="150.73" y="-15.4" font-family="Times-12" font-size="14.00"> &#160;Module</text>
<polygon fill="#80b1d3" stroke="transparent" points="213,-10 213,-30 233,-30 233,-10 213,-10"/>
<text text-anchor="start" x="236.78" y="-15.4" font-family="Times-12" font-size="14.00"> &#160;Bootstrap</text>
<polygon fill="#fdb462" stroke="transparent" points="310,-10 310,-30 330,-30 330,-10 310,-10"/>
<text text-anchor="start" x="333.67" y="-15.4" font-family="Times-12" font-size="14.00"> &#160;Providers</text>
<polygon fill="#fb8072" stroke="transparent" points="406,-10 406,-30 426,-30 426,-10 406,-10"/>
<text text-anchor="start" x="429.73" y="-15.4" font-family="Times-12" font-size="14.00"> &#160;Exports</text>
<g id="clust1" class="cluster">
<title>cluster_TreeviewModule</title>
<polygon fill="none" stroke="black" stroke-dasharray="1,5" points="31.5,-70 31.5,-333 464.5,-333 464.5,-70 31.5,-70"/>
</g>
<g id="clust5" class="cluster">
<title>cluster_TreeviewModule_imports</title>
<polygon fill="none" stroke="black" points="356.5,-143 356.5,-195 456.5,-195 456.5,-143 356.5,-143"/>
</g>
<g id="clust6" class="cluster">
<title>cluster_TreeviewModule_exports</title>
<polygon fill="none" stroke="black" points="90.5,-273 90.5,-325 405.5,-325 405.5,-273 90.5,-273"/>
</g>
<g id="clust2" class="cluster">
<title>cluster_TreeviewModule_declarations</title>
<polygon fill="none" stroke="black" points="39.5,-143 39.5,-195 348.5,-195 348.5,-143 39.5,-143"/>
</g>
<g id="clust4" class="cluster">
<title>cluster_TreeviewModule_TreeViewComponent_providers</title>
<polygon fill="none" stroke="black" points="39.5,-78 39.5,-130 213.5,-130 213.5,-78 39.5,-78"/>
</g>
<!-- TreeNodeComponent -->
<g id="node1" class="node">
<title>TreeNodeComponent</title>
<polygon fill="#ffffb3" stroke="black" points="340.3,-187 202.7,-187 202.7,-151 340.3,-151 340.3,-187"/>
<text text-anchor="middle" x="271.5" y="-164.8" font-family="Times,serif" font-size="14.00">TreeNodeComponent</text>
</g>
<!-- TreeviewModule -->
<g id="node3" class="node">
<title>TreeviewModule</title>
<polygon fill="#8dd3c7" stroke="black" points="327.9,-252 324.9,-256 303.9,-256 300.9,-252 215.1,-252 215.1,-216 327.9,-216 327.9,-252"/>
<text text-anchor="middle" x="271.5" y="-229.8" font-family="Times,serif" font-size="14.00">TreeviewModule</text>
</g>
<!-- TreeNodeComponent&#45;&gt;TreeviewModule -->
<g id="edge1" class="edge">
<title>TreeNodeComponent&#45;&gt;TreeviewModule</title>
<path fill="none" stroke="black" d="M271.5,-187.11C271.5,-187.11 271.5,-205.99 271.5,-205.99"/>
<polygon fill="black" stroke="black" points="268,-205.99 271.5,-215.99 275,-205.99 268,-205.99"/>
</g>
<!-- TreeViewComponent -->
<g id="node2" class="node">
<title>TreeViewComponent</title>
<polygon fill="#ffffb3" stroke="black" points="185.29,-187 47.71,-187 47.71,-151 185.29,-151 185.29,-187"/>
<text text-anchor="middle" x="116.5" y="-164.8" font-family="Times,serif" font-size="14.00">TreeViewComponent</text>
</g>
<!-- TreeViewComponent&#45;&gt;TreeviewModule -->
<g id="edge2" class="edge">
<title>TreeViewComponent&#45;&gt;TreeviewModule</title>
<path fill="none" stroke="black" d="M141.62,-187.11C141.62,-206.34 141.62,-234 141.62,-234 141.62,-234 205.29,-234 205.29,-234"/>
<polygon fill="black" stroke="black" points="205.29,-237.5 215.29,-234 205.29,-230.5 205.29,-237.5"/>
</g>
<!-- TreeNodeComponent  -->
<g id="node6" class="node">
<title>TreeNodeComponent </title>
<polygon fill="#fb8072" stroke="black" points="397.8,-317 257.2,-317 257.2,-281 397.8,-281 397.8,-317"/>
<text text-anchor="middle" x="327.5" y="-294.8" font-family="Times,serif" font-size="14.00">TreeNodeComponent </text>
</g>
<!-- TreeviewModule&#45;&gt;TreeNodeComponent  -->
<g id="edge5" class="edge">
<title>TreeviewModule&#45;&gt;TreeNodeComponent </title>
<path fill="none" stroke="black" stroke-dasharray="5,2" d="M292.4,-252.11C292.4,-252.11 292.4,-270.99 292.4,-270.99"/>
<polygon fill="black" stroke="black" points="288.9,-270.99 292.4,-280.99 295.9,-270.99 288.9,-270.99"/>
</g>
<!-- TreeViewComponent  -->
<g id="node7" class="node">
<title>TreeViewComponent </title>
<polygon fill="#fb8072" stroke="black" points="238.79,-317 98.21,-317 98.21,-281 238.79,-281 238.79,-317"/>
<text text-anchor="middle" x="168.5" y="-294.8" font-family="Times,serif" font-size="14.00">TreeViewComponent </text>
</g>
<!-- TreeviewModule&#45;&gt;TreeViewComponent  -->
<g id="edge6" class="edge">
<title>TreeviewModule&#45;&gt;TreeViewComponent </title>
<path fill="none" stroke="black" stroke-dasharray="5,2" d="M227.1,-252.11C227.1,-252.11 227.1,-270.99 227.1,-270.99"/>
<polygon fill="black" stroke="black" points="223.6,-270.99 227.1,-280.99 230.6,-270.99 223.6,-270.99"/>
</g>
<!-- TreeViewService -->
<g id="node4" class="node">
<title>TreeViewService</title>
<ellipse fill="#fdb462" stroke="black" cx="126.5" cy="-104" rx="78.69" ry="18"/>
<text text-anchor="middle" x="126.5" y="-99.8" font-family="Times,serif" font-size="14.00">TreeViewService</text>
</g>
<!-- TreeViewService&#45;&gt;TreeViewComponent -->
<g id="edge3" class="edge">
<title>TreeViewService&#45;&gt;TreeViewComponent</title>
<path fill="none" stroke="black" d="M116.53,-122.11C116.53,-122.11 116.53,-140.99 116.53,-140.99"/>
<polygon fill="black" stroke="black" points="113.03,-140.99 116.53,-150.99 120.03,-140.99 113.03,-140.99"/>
</g>
<!-- IconModule -->
<g id="node5" class="node">
<title>IconModule</title>
<polygon fill="#8dd3c7" stroke="black" points="448.93,-187 445.93,-191 424.93,-191 421.93,-187 364.07,-187 364.07,-151 448.93,-151 448.93,-187"/>
<text text-anchor="middle" x="406.5" y="-164.8" font-family="Times,serif" font-size="14.00">IconModule</text>
</g>
<!-- IconModule&#45;&gt;TreeviewModule -->
<g id="edge4" class="edge">
<title>IconModule&#45;&gt;TreeviewModule</title>
<path fill="none" stroke="black" d="M381.09,-187.11C381.09,-206.34 381.09,-234 381.09,-234 381.09,-234 337.9,-234 337.9,-234"/>
<polygon fill="black" stroke="black" points="337.9,-230.5 327.9,-234 337.9,-237.5 337.9,-230.5"/>
</g>
</g>
</svg>
