<?xml version="1.0" encoding="UTF-8" standalone="no"?>
<!DOCTYPE svg PUBLIC "-//W3C//DTD SVG 1.1//EN"
 "http://www.w3.org/Graphics/SVG/1.1/DTD/svg11.dtd">
<!-- Generated by graphviz version 2.40.1 (20161225.0304)
 -->
<!-- Title: dependencies Pages: 1 -->
<svg width="504pt" height="284pt"
 viewBox="0.00 0.00 504.00 284.00" xmlns="http://www.w3.org/2000/svg" xmlns:xlink="http://www.w3.org/1999/xlink">
<g id="graph0" class="graph" transform="scale(1 1) rotate(0) translate(4 280)">
<title>dependencies</title>
<polygon fill="#ffffff" stroke="transparent" points="-4,4 -4,-280 500,-280 500,4 -4,4"/>
<text text-anchor="start" x="227.0091" y="-42.4" font-family="sans-serif" font-weight="bold" font-size="14.00" fill="#000000">Legend</text>
<polygon fill="#ffffb3" stroke="transparent" points="14,-10 14,-30 34,-30 34,-10 14,-10"/>
<text text-anchor="start" x="37.629" y="-15.4" font-family="sans-serif" font-size="14.00" fill="#000000"> &#160;Declarations</text>
<polygon fill="#8dd3c7" stroke="transparent" points="127,-10 127,-30 147,-30 147,-10 127,-10"/>
<text text-anchor="start" x="150.7251" y="-15.4" font-family="sans-serif" font-size="14.00" fill="#000000"> &#160;Module</text>
<polygon fill="#80b1d3" stroke="transparent" points="213,-10 213,-30 233,-30 233,-10 213,-10"/>
<text text-anchor="start" x="236.7812" y="-15.4" font-family="sans-serif" font-size="14.00" fill="#000000"> &#160;Bootstrap</text>
<polygon fill="#fdb462" stroke="transparent" points="310,-10 310,-30 330,-30 330,-10 310,-10"/>
<text text-anchor="start" x="333.6732" y="-15.4" font-family="sans-serif" font-size="14.00" fill="#000000"> &#160;Providers</text>
<polygon fill="#fb8072" stroke="transparent" points="406,-10 406,-30 426,-30 426,-10 406,-10"/>
<text text-anchor="start" x="429.7258" y="-15.4" font-family="sans-serif" font-size="14.00" fill="#000000"> &#160;Exports</text>
<g id="clust1" class="cluster">
<title>cluster_ProgressIndicatorModule</title>
<polygon fill="none" stroke="#000000" stroke-dasharray="1,5" points="38,-70 38,-268 458,-268 458,-70 38,-70"/>
</g>
<g id="clust2" class="cluster">
<title>cluster_ProgressIndicatorModule_declarations</title>
<polygon fill="none" stroke="#000000" points="320,-78 320,-130 450,-130 450,-78 320,-78"/>
</g>
<g id="clust4" class="cluster">
<title>cluster_ProgressIndicatorModule_imports</title>
<polygon fill="none" stroke="#000000" points="46,-78 46,-130 312,-130 312,-78 46,-78"/>
</g>
<g id="clust5" class="cluster">
<title>cluster_ProgressIndicatorModule_exports</title>
<polygon fill="none" stroke="#000000" points="188,-208 188,-260 322,-260 322,-208 188,-208"/>
</g>
<!-- ProgressIndicator -->
<g id="node1" class="node">
<title>ProgressIndicator</title>
<polygon fill="#ffffb3" stroke="#000000" points="442.2395,-122 327.7605,-122 327.7605,-86 442.2395,-86 442.2395,-122"/>
<text text-anchor="middle" x="385" y="-99.8" font-family="Times,serif" font-size="14.00" fill="#000000">ProgressIndicator</text>
</g>
<!-- ProgressIndicatorModule -->
<g id="node2" class="node">
<title>ProgressIndicatorModule</title>
<polygon fill="#8dd3c7" stroke="#000000" points="334.2893,-187 331.2893,-191 310.2893,-191 307.2893,-187 175.7107,-187 175.7107,-151 334.2893,-151 334.2893,-187"/>
<text text-anchor="middle" x="255" y="-164.8" font-family="Times,serif" font-size="14.00" fill="#000000">ProgressIndicatorModule</text>
</g>
<!-- ProgressIndicator&#45;&gt;ProgressIndicatorModule -->
<g id="edge1" class="edge">
<title>ProgressIndicator&#45;&gt;ProgressIndicatorModule</title>
<path fill="none" stroke="#000000" d="M327.4793,-104C320.4731,-104 315.7283,-104 315.7283,-104 315.7283,-104 315.7283,-140.8939 315.7283,-140.8939"/>
<polygon fill="#000000" stroke="#000000" points="312.2283,-140.8938 315.7283,-150.8939 319.2283,-140.8939 312.2283,-140.8938"/>
</g>
<!-- ProgressIndicator  -->
<g id="node5" class="node">
<title>ProgressIndicator </title>
<polygon fill="#fb8072" stroke="#000000" points="314.2394,-252 195.7606,-252 195.7606,-216 314.2394,-216 314.2394,-252"/>
<text text-anchor="middle" x="255" y="-229.8" font-family="Times,serif" font-size="14.00" fill="#000000">ProgressIndicator </text>
</g>
<!-- ProgressIndicatorModule&#45;&gt;ProgressIndicator  -->
<g id="edge4" class="edge">
<title>ProgressIndicatorModule&#45;&gt;ProgressIndicator </title>
<path fill="none" stroke="#000000" stroke-dasharray="5,2" d="M255,-187.1061C255,-187.1061 255,-205.991 255,-205.991"/>
<polygon fill="#000000" stroke="#000000" points="251.5001,-205.9909 255,-215.991 258.5001,-205.991 251.5001,-205.9909"/>
</g>
<!-- DialogModule -->
<g id="node3" class="node">
<title>DialogModule</title>
<polygon fill="#8dd3c7" stroke="#000000" points="303.6528,-122 300.6528,-126 279.6528,-126 276.6528,-122 206.3472,-122 206.3472,-86 303.6528,-86 303.6528,-122"/>
<text text-anchor="middle" x="255" y="-99.8" font-family="Times,serif" font-size="14.00" fill="#000000">DialogModule</text>
</g>
<!-- DialogModule&#45;&gt;ProgressIndicatorModule -->
<g id="edge2" class="edge">
<title>DialogModule&#45;&gt;ProgressIndicatorModule</title>
<path fill="none" stroke="#000000" d="M255,-122.1061C255,-122.1061 255,-140.991 255,-140.991"/>
<polygon fill="#000000" stroke="#000000" points="251.5001,-140.9909 255,-150.991 258.5001,-140.991 251.5001,-140.9909"/>
</g>
<!-- ExperimentalModule -->
<g id="node4" class="node">
<title>ExperimentalModule</title>
<polygon fill="#8dd3c7" stroke="#000000" points="188.4692,-122 185.4692,-126 164.4692,-126 161.4692,-122 53.5308,-122 53.5308,-86 188.4692,-86 188.4692,-122"/>
<text text-anchor="middle" x="121" y="-99.8" font-family="Times,serif" font-size="14.00" fill="#000000">ExperimentalModule</text>
</g>
<!-- ExperimentalModule&#45;&gt;ProgressIndicatorModule -->
<g id="edge3" class="edge">
<title>ExperimentalModule&#45;&gt;ProgressIndicatorModule</title>
<path fill="none" stroke="#000000" d="M182.1701,-122.1061C182.1701,-122.1061 182.1701,-140.991 182.1701,-140.991"/>
<polygon fill="#000000" stroke="#000000" points="178.6701,-140.9909 182.1701,-150.991 185.6701,-140.991 178.6701,-140.9909"/>
</g>
</g>
</svg>
