<?xml version="1.0" encoding="UTF-8" standalone="no"?>
<!DOCTYPE svg PUBLIC "-//W3C//DTD SVG 1.1//EN"
 "http://www.w3.org/Graphics/SVG/1.1/DTD/svg11.dtd">
<!-- Generated by graphviz version 2.47.0 (20210316.0004)
 -->
<!-- Title: dependencies Pages: 1 -->
<svg width="504pt" height="284pt"
 viewBox="0.00 0.00 504.00 284.00" xmlns="http://www.w3.org/2000/svg" xmlns:xlink="http://www.w3.org/1999/xlink">
<g id="graph0" class="graph" transform="scale(1 1) rotate(0) translate(4 280)">
<title>dependencies</title>
<polygon fill="white" stroke="transparent" points="-4,4 -4,-280 500,-280 500,4 -4,4"/>
<text text-anchor="start" x="227.01" y="-42.4" font-family="Times-12" font-weight="bold" font-size="14.00">Legend</text>
<polygon fill="#ffffb3" stroke="transparent" points="14,-10 14,-30 34,-30 34,-10 14,-10"/>
<text text-anchor="start" x="37.63" y="-15.4" font-family="Times-12" font-size="14.00"> &#160;Declarations</text>
<polygon fill="#8dd3c7" stroke="transparent" points="127,-10 127,-30 147,-30 147,-10 127,-10"/>
<text text-anchor="start" x="150.73" y="-15.4" font-family="Times-12" font-size="14.00"> &#160;Module</text>
<polygon fill="#80b1d3" stroke="transparent" points="213,-10 213,-30 233,-30 233,-10 213,-10"/>
<text text-anchor="start" x="236.78" y="-15.4" font-family="Times-12" font-size="14.00"> &#160;Bootstrap</text>
<polygon fill="#fdb462" stroke="transparent" points="310,-10 310,-30 330,-30 330,-10 310,-10"/>
<text text-anchor="start" x="333.67" y="-15.4" font-family="Times-12" font-size="14.00"> &#160;Providers</text>
<polygon fill="#fb8072" stroke="transparent" points="406,-10 406,-30 426,-30 426,-10 406,-10"/>
<text text-anchor="start" x="429.73" y="-15.4" font-family="Times-12" font-size="14.00"> &#160;Exports</text>
<g id="clust1" class="cluster">
<title>cluster_ProgressIndicatorModule</title>
<polygon fill="none" stroke="black" stroke-dasharray="1,5" points="69,-70 69,-268 427,-268 427,-70 69,-70"/>
</g>
<g id="clust5" class="cluster">
<title>cluster_ProgressIndicatorModule_exports</title>
<polygon fill="none" stroke="black" points="198,-208 198,-260 332,-260 332,-208 198,-208"/>
</g>
<g id="clust4" class="cluster">
<title>cluster_ProgressIndicatorModule_imports</title>
<polygon fill="none" stroke="black" points="215,-78 215,-130 419,-130 419,-78 215,-78"/>
</g>
<g id="clust2" class="cluster">
<title>cluster_ProgressIndicatorModule_declarations</title>
<polygon fill="none" stroke="black" points="77,-78 77,-130 207,-130 207,-78 77,-78"/>
</g>
<!-- ProgressIndicator -->
<g id="node1" class="node">
<title>ProgressIndicator</title>
<polygon fill="#ffffb3" stroke="black" points="199.24,-122 84.76,-122 84.76,-86 199.24,-86 199.24,-122"/>
<text text-anchor="middle" x="142" y="-99.8" font-family="Times,serif" font-size="14.00">ProgressIndicator</text>
</g>
<!-- ProgressIndicatorModule -->
<g id="node2" class="node">
<title>ProgressIndicatorModule</title>
<polygon fill="#8dd3c7" stroke="black" points="344.29,-187 341.29,-191 320.29,-191 317.29,-187 185.71,-187 185.71,-151 344.29,-151 344.29,-187"/>
<text text-anchor="middle" x="265" y="-164.8" font-family="Times,serif" font-size="14.00">ProgressIndicatorModule</text>
</g>
<!-- ProgressIndicator&#45;&gt;ProgressIndicatorModule -->
<g id="edge1" class="edge">
<title>ProgressIndicator&#45;&gt;ProgressIndicatorModule</title>
<path fill="none" stroke="black" d="M192.61,-122.11C192.61,-122.11 192.61,-140.99 192.61,-140.99"/>
<polygon fill="black" stroke="black" points="189.11,-140.99 192.61,-150.99 196.11,-140.99 189.11,-140.99"/>
</g>
<!-- ProgressIndicator  -->
<g id="node5" class="node">
<title>ProgressIndicator </title>
<polygon fill="#fb8072" stroke="black" points="324.24,-252 205.76,-252 205.76,-216 324.24,-216 324.24,-252"/>
<text text-anchor="middle" x="265" y="-229.8" font-family="Times,serif" font-size="14.00">ProgressIndicator </text>
</g>
<!-- ProgressIndicatorModule&#45;&gt;ProgressIndicator  -->
<g id="edge4" class="edge">
<title>ProgressIndicatorModule&#45;&gt;ProgressIndicator </title>
<path fill="none" stroke="black" stroke-dasharray="5,2" d="M265,-187.11C265,-187.11 265,-205.99 265,-205.99"/>
<polygon fill="black" stroke="black" points="261.5,-205.99 265,-215.99 268.5,-205.99 261.5,-205.99"/>
</g>
<!-- I18nModule -->
<g id="node3" class="node">
<title>I18nModule</title>
<polygon fill="#8dd3c7" stroke="black" points="410.71,-122 407.71,-126 386.71,-126 383.71,-122 325.29,-122 325.29,-86 410.71,-86 410.71,-122"/>
<text text-anchor="middle" x="368" y="-99.8" font-family="Times,serif" font-size="14.00">I18nModule</text>
</g>
<!-- I18nModule&#45;&gt;ProgressIndicatorModule -->
<g id="edge2" class="edge">
<title>I18nModule&#45;&gt;ProgressIndicatorModule</title>
<path fill="none" stroke="black" d="M334.77,-122.11C334.77,-122.11 334.77,-140.99 334.77,-140.99"/>
<polygon fill="black" stroke="black" points="331.27,-140.99 334.77,-150.99 338.27,-140.99 331.27,-140.99"/>
</g>
<!-- IconModule -->
<g id="node4" class="node">
<title>IconModule</title>
<polygon fill="#8dd3c7" stroke="black" points="307.43,-122 304.43,-126 283.43,-126 280.43,-122 222.57,-122 222.57,-86 307.43,-86 307.43,-122"/>
<text text-anchor="middle" x="265" y="-99.8" font-family="Times,serif" font-size="14.00">IconModule</text>
</g>
<!-- IconModule&#45;&gt;ProgressIndicatorModule -->
<g id="edge3" class="edge">
<title>IconModule&#45;&gt;ProgressIndicatorModule</title>
<path fill="none" stroke="black" d="M265,-122.11C265,-122.11 265,-140.99 265,-140.99"/>
<polygon fill="black" stroke="black" points="261.5,-140.99 265,-150.99 268.5,-140.99 261.5,-140.99"/>
</g>
</g>
</svg>
