<?xml version="1.0" encoding="UTF-8" standalone="no"?>
<!DOCTYPE svg PUBLIC "-//W3C//DTD SVG 1.1//EN"
 "http://www.w3.org/Graphics/SVG/1.1/DTD/svg11.dtd">
<!-- Generated by graphviz version 2.40.1 (20161225.0304)
 -->
<!-- Title: dependencies Pages: 1 -->
<svg width="584pt" height="284pt"
 viewBox="0.00 0.00 584.00 284.00" xmlns="http://www.w3.org/2000/svg" xmlns:xlink="http://www.w3.org/1999/xlink">
<g id="graph0" class="graph" transform="scale(1 1) rotate(0) translate(4 280)">
<title>dependencies</title>
<polygon fill="#ffffff" stroke="transparent" points="-4,4 -4,-280 580,-280 580,4 -4,4"/>
<text text-anchor="start" x="267.0091" y="-42.4" font-family="sans-serif" font-weight="bold" font-size="14.00" fill="#000000">Legend</text>
<polygon fill="#ffffb3" stroke="transparent" points="54,-10 54,-30 74,-30 74,-10 54,-10"/>
<text text-anchor="start" x="77.629" y="-15.4" font-family="sans-serif" font-size="14.00" fill="#000000"> &#160;Declarations</text>
<polygon fill="#8dd3c7" stroke="transparent" points="167,-10 167,-30 187,-30 187,-10 167,-10"/>
<text text-anchor="start" x="190.7251" y="-15.4" font-family="sans-serif" font-size="14.00" fill="#000000"> &#160;Module</text>
<polygon fill="#80b1d3" stroke="transparent" points="253,-10 253,-30 273,-30 273,-10 253,-10"/>
<text text-anchor="start" x="276.7812" y="-15.4" font-family="sans-serif" font-size="14.00" fill="#000000"> &#160;Bootstrap</text>
<polygon fill="#fdb462" stroke="transparent" points="350,-10 350,-30 370,-30 370,-10 350,-10"/>
<text text-anchor="start" x="373.6732" y="-15.4" font-family="sans-serif" font-size="14.00" fill="#000000"> &#160;Providers</text>
<polygon fill="#fb8072" stroke="transparent" points="446,-10 446,-30 466,-30 466,-10 446,-10"/>
<text text-anchor="start" x="469.7258" y="-15.4" font-family="sans-serif" font-size="14.00" fill="#000000"> &#160;Exports</text>
<g id="clust1" class="cluster">
<title>cluster_PanelModule</title>
<polygon fill="none" stroke="#000000" stroke-dasharray="1,5" points="8,-70 8,-268 568,-268 568,-70 8,-70"/>
</g>
<g id="clust2" class="cluster">
<title>cluster_PanelModule_declarations</title>
<polygon fill="none" stroke="#000000" points="126,-78 126,-130 560,-130 560,-78 126,-78"/>
</g>
<g id="clust7" class="cluster">
<title>cluster_PanelModule_imports</title>
<polygon fill="none" stroke="#000000" points="16,-78 16,-130 118,-130 118,-78 16,-78"/>
</g>
<g id="clust8" class="cluster">
<title>cluster_PanelModule_exports</title>
<polygon fill="none" stroke="#000000" points="66,-208 66,-260 510,-260 510,-208 66,-208"/>
</g>
<!-- Panel -->
<g id="node1" class="node">
<title>Panel</title>
<polygon fill="#ffffb3" stroke="#000000" points="552,-122 498,-122 498,-86 552,-86 552,-122"/>
<text text-anchor="middle" x="525" y="-99.8" font-family="Times,serif" font-size="14.00" fill="#000000">Panel</text>
</g>
<!-- PanelModule -->
<g id="node5" class="node">
<title>PanelModule</title>
<polygon fill="#8dd3c7" stroke="#000000" points="354.1529,-187 351.1529,-191 330.1529,-191 327.1529,-187 263.8471,-187 263.8471,-151 354.1529,-151 354.1529,-187"/>
<text text-anchor="middle" x="309" y="-164.8" font-family="Times,serif" font-size="14.00" fill="#000000">PanelModule</text>
</g>
<!-- Panel&#45;&gt;PanelModule -->
<g id="edge1" class="edge">
<title>Panel&#45;&gt;PanelModule</title>
<path fill="none" stroke="#000000" d="M527,-122.1061C527,-141.3391 527,-169 527,-169 527,-169 364.1697,-169 364.1697,-169"/>
<polygon fill="#000000" stroke="#000000" points="364.1698,-165.5001 354.1697,-169 364.1697,-172.5001 364.1698,-165.5001"/>
</g>
<!-- ProductSwitcher -->
<g id="node2" class="node">
<title>ProductSwitcher</title>
<polygon fill="#ffffb3" stroke="#000000" points="479.809,-122 370.191,-122 370.191,-86 479.809,-86 479.809,-122"/>
<text text-anchor="middle" x="425" y="-99.8" font-family="Times,serif" font-size="14.00" fill="#000000">ProductSwitcher</text>
</g>
<!-- ProductSwitcher&#45;&gt;PanelModule -->
<g id="edge2" class="edge">
<title>ProductSwitcher&#45;&gt;PanelModule</title>
<path fill="none" stroke="#000000" d="M400.375,-122.027C400.375,-138.3976 400.375,-160 400.375,-160 400.375,-160 364.4198,-160 364.4198,-160"/>
<polygon fill="#000000" stroke="#000000" points="364.4198,-156.5001 354.4198,-160 364.4198,-163.5001 364.4198,-156.5001"/>
</g>
<!-- SwitcherList -->
<g id="node3" class="node">
<title>SwitcherList</title>
<polygon fill="#ffffb3" stroke="#000000" points="352.5398,-122 265.4602,-122 265.4602,-86 352.5398,-86 352.5398,-122"/>
<text text-anchor="middle" x="309" y="-99.8" font-family="Times,serif" font-size="14.00" fill="#000000">SwitcherList</text>
</g>
<!-- SwitcherList&#45;&gt;PanelModule -->
<g id="edge3" class="edge">
<title>SwitcherList&#45;&gt;PanelModule</title>
<path fill="none" stroke="#000000" d="M309,-122.1061C309,-122.1061 309,-140.991 309,-140.991"/>
<polygon fill="#000000" stroke="#000000" points="305.5001,-140.9909 309,-150.991 312.5001,-140.991 305.5001,-140.9909"/>
</g>
<!-- SwitcherListItem -->
<g id="node4" class="node">
<title>SwitcherListItem</title>
<polygon fill="#ffffb3" stroke="#000000" points="247.6952,-122 134.3048,-122 134.3048,-86 247.6952,-86 247.6952,-122"/>
<text text-anchor="middle" x="191" y="-99.8" font-family="Times,serif" font-size="14.00" fill="#000000">SwitcherListItem</text>
</g>
<!-- SwitcherListItem&#45;&gt;PanelModule -->
<g id="edge4" class="edge">
<title>SwitcherListItem&#45;&gt;PanelModule</title>
<path fill="none" stroke="#000000" d="M228.0391,-122.027C228.0391,-138.3976 228.0391,-160 228.0391,-160 228.0391,-160 253.7854,-160 253.7854,-160"/>
<polygon fill="#000000" stroke="#000000" points="253.7854,-163.5001 263.7854,-160 253.7854,-156.5001 253.7854,-163.5001"/>
</g>
<!-- Panel  -->
<g id="node7" class="node">
<title>Panel </title>
<polygon fill="#fb8072" stroke="#000000" points="502,-252 448,-252 448,-216 502,-216 502,-252"/>
<text text-anchor="middle" x="475" y="-229.8" font-family="Times,serif" font-size="14.00" fill="#000000">Panel </text>
</g>
<!-- PanelModule&#45;&gt;Panel  -->
<g id="edge6" class="edge">
<title>PanelModule&#45;&gt;Panel </title>
<path fill="none" stroke="#000000" stroke-dasharray="5,2" d="M354.1986,-178C399.898,-178 463.8272,-178 463.8272,-178 463.8272,-178 463.8272,-205.973 463.8272,-205.973"/>
<polygon fill="#000000" stroke="#000000" points="460.3272,-205.973 463.8272,-215.973 467.3272,-205.973 460.3272,-205.973"/>
</g>
<!-- ProductSwitcher  -->
<g id="node8" class="node">
<title>ProductSwitcher </title>
<polygon fill="#fb8072" stroke="#000000" points="430.3088,-252 317.6912,-252 317.6912,-216 430.3088,-216 430.3088,-252"/>
<text text-anchor="middle" x="374" y="-229.8" font-family="Times,serif" font-size="14.00" fill="#000000">ProductSwitcher </text>
</g>
<!-- PanelModule&#45;&gt;ProductSwitcher  -->
<g id="edge7" class="edge">
<title>PanelModule&#45;&gt;ProductSwitcher </title>
<path fill="none" stroke="#000000" stroke-dasharray="5,2" d="M335.9609,-187.1061C335.9609,-187.1061 335.9609,-205.991 335.9609,-205.991"/>
<polygon fill="#000000" stroke="#000000" points="332.461,-205.9909 335.9609,-215.991 339.461,-205.991 332.461,-205.9909"/>
</g>
<!-- SwitcherList  -->
<g id="node9" class="node">
<title>SwitcherList </title>
<polygon fill="#fb8072" stroke="#000000" points="299.5386,-252 208.4614,-252 208.4614,-216 299.5386,-216 299.5386,-252"/>
<text text-anchor="middle" x="254" y="-229.8" font-family="Times,serif" font-size="14.00" fill="#000000">SwitcherList </text>
</g>
<!-- PanelModule&#45;&gt;SwitcherList  -->
<g id="edge8" class="edge">
<title>PanelModule&#45;&gt;SwitcherList </title>
<path fill="none" stroke="#000000" stroke-dasharray="5,2" d="M281.5966,-187.1061C281.5966,-187.1061 281.5966,-205.991 281.5966,-205.991"/>
<polygon fill="#000000" stroke="#000000" points="278.0967,-205.9909 281.5966,-215.991 285.0967,-205.991 278.0967,-205.9909"/>
</g>
<!-- SwitcherListItem  -->
<g id="node10" class="node">
<title>SwitcherListItem </title>
<polygon fill="#fb8072" stroke="#000000" points="190.1954,-252 73.8046,-252 73.8046,-216 190.1954,-216 190.1954,-252"/>
<text text-anchor="middle" x="132" y="-229.8" font-family="Times,serif" font-size="14.00" fill="#000000">SwitcherListItem </text>
</g>
<!-- PanelModule&#45;&gt;SwitcherListItem  -->
<g id="edge9" class="edge">
<title>PanelModule&#45;&gt;SwitcherListItem </title>
<path fill="none" stroke="#000000" stroke-dasharray="5,2" d="M263.8113,-178C220.7293,-178 162.375,-178 162.375,-178 162.375,-178 162.375,-205.973 162.375,-205.973"/>
<polygon fill="#000000" stroke="#000000" points="158.8751,-205.973 162.375,-215.973 165.8751,-205.973 158.8751,-205.973"/>
</g>
<!-- I18nModule -->
<g id="node6" class="node">
<title>I18nModule</title>
<polygon fill="#8dd3c7" stroke="#000000" points="109.7107,-122 106.7107,-126 85.7107,-126 82.7107,-122 24.2893,-122 24.2893,-86 109.7107,-86 109.7107,-122"/>
<text text-anchor="middle" x="67" y="-99.8" font-family="Times,serif" font-size="14.00" fill="#000000">I18nModule</text>
</g>
<!-- I18nModule&#45;&gt;PanelModule -->
<g id="edge5" class="edge">
<title>I18nModule&#45;&gt;PanelModule</title>
<path fill="none" stroke="#000000" d="M91.6289,-122.1061C91.6289,-141.3391 91.6289,-169 91.6289,-169 91.6289,-169 253.6965,-169 253.6965,-169"/>
<polygon fill="#000000" stroke="#000000" points="253.6965,-172.5001 263.6965,-169 253.6964,-165.5001 253.6965,-172.5001"/>
</g>
</g>
</svg>
