<?xml version="1.0" encoding="UTF-8" standalone="no"?>
<!DOCTYPE svg PUBLIC "-//W3C//DTD SVG 1.1//EN"
 "http://www.w3.org/Graphics/SVG/1.1/DTD/svg11.dtd">
<!-- Generated by graphviz version 2.40.1 (20161225.0304)
 -->
<!-- Title: dependencies Pages: 1 -->
<svg width="504pt" height="284pt"
 viewBox="0.00 0.00 504.00 284.00" xmlns="http://www.w3.org/2000/svg" xmlns:xlink="http://www.w3.org/1999/xlink">
<g id="graph0" class="graph" transform="scale(1 1) rotate(0) translate(4 280)">
<title>dependencies</title>
<polygon fill="#ffffff" stroke="transparent" points="-4,4 -4,-280 500,-280 500,4 -4,4"/>
<text text-anchor="start" x="227.0091" y="-42.4" font-family="sans-serif" font-weight="bold" font-size="14.00" fill="#000000">Legend</text>
<polygon fill="#ffffb3" stroke="transparent" points="14,-10 14,-30 34,-30 34,-10 14,-10"/>
<text text-anchor="start" x="37.629" y="-15.4" font-family="sans-serif" font-size="14.00" fill="#000000"> &#160;Declarations</text>
<polygon fill="#8dd3c7" stroke="transparent" points="127,-10 127,-30 147,-30 147,-10 127,-10"/>
<text text-anchor="start" x="150.7251" y="-15.4" font-family="sans-serif" font-size="14.00" fill="#000000"> &#160;Module</text>
<polygon fill="#80b1d3" stroke="transparent" points="213,-10 213,-30 233,-30 233,-10 213,-10"/>
<text text-anchor="start" x="236.7812" y="-15.4" font-family="sans-serif" font-size="14.00" fill="#000000"> &#160;Bootstrap</text>
<polygon fill="#fdb462" stroke="transparent" points="310,-10 310,-30 330,-30 330,-10 310,-10"/>
<text text-anchor="start" x="333.6732" y="-15.4" font-family="sans-serif" font-size="14.00" fill="#000000"> &#160;Providers</text>
<polygon fill="#fb8072" stroke="transparent" points="406,-10 406,-30 426,-30 426,-10 406,-10"/>
<text text-anchor="start" x="429.7258" y="-15.4" font-family="sans-serif" font-size="14.00" fill="#000000"> &#160;Exports</text>
<g id="clust1" class="cluster">
<title>cluster_ButtonMenuModule</title>
<polygon fill="none" stroke="#000000" stroke-dasharray="1,5" points="120,-70 120,-268 376,-268 376,-70 120,-70"/>
</g>
<g id="clust2" class="cluster">
<title>cluster_ButtonMenuModule_declarations</title>
<polygon fill="none" stroke="#000000" points="129,-78 129,-130 362,-130 362,-78 129,-78"/>
</g>
<g id="clust6" class="cluster">
<title>cluster_ButtonMenuModule_exports</title>
<polygon fill="none" stroke="#000000" points="128,-208 128,-260 368,-260 368,-208 128,-208"/>
</g>
<!-- ButtonMenu -->
<g id="node1" class="node">
<title>ButtonMenu</title>
<polygon fill="#ffffb3" stroke="#000000" points="354.2773,-122 267.7227,-122 267.7227,-86 354.2773,-86 354.2773,-122"/>
<text text-anchor="middle" x="311" y="-99.8" font-family="Times,serif" font-size="14.00" fill="#000000">ButtonMenu</text>
</g>
<!-- ButtonMenuModule -->
<g id="node3" class="node">
<title>ButtonMenuModule</title>
<polygon fill="#8dd3c7" stroke="#000000" points="313.3272,-187 310.3272,-191 289.3272,-191 286.3272,-187 182.6728,-187 182.6728,-151 313.3272,-151 313.3272,-187"/>
<text text-anchor="middle" x="248" y="-164.8" font-family="Times,serif" font-size="14.00" fill="#000000">ButtonMenuModule</text>
</g>
<!-- ButtonMenu&#45;&gt;ButtonMenuModule -->
<g id="edge1" class="edge">
<title>ButtonMenu&#45;&gt;ButtonMenuModule</title>
<path fill="none" stroke="#000000" d="M290.3875,-122.1061C290.3875,-122.1061 290.3875,-140.991 290.3875,-140.991"/>
<polygon fill="#000000" stroke="#000000" points="286.8875,-140.9909 290.3875,-150.991 293.8875,-140.991 286.8875,-140.9909"/>
</g>
<!-- ButtonMenuItem -->
<g id="node2" class="node">
<title>ButtonMenuItem</title>
<polygon fill="#ffffb3" stroke="#000000" points="249.4342,-122 136.5658,-122 136.5658,-86 249.4342,-86 249.4342,-122"/>
<text text-anchor="middle" x="193" y="-99.8" font-family="Times,serif" font-size="14.00" fill="#000000">ButtonMenuItem</text>
</g>
<!-- ButtonMenuItem&#45;&gt;ButtonMenuModule -->
<g id="edge2" class="edge">
<title>ButtonMenuItem&#45;&gt;ButtonMenuModule</title>
<path fill="none" stroke="#000000" d="M216.0267,-122.1061C216.0267,-122.1061 216.0267,-140.991 216.0267,-140.991"/>
<polygon fill="#000000" stroke="#000000" points="212.5267,-140.9909 216.0267,-150.991 219.5267,-140.991 212.5267,-140.9909"/>
</g>
<!-- ButtonMenu  -->
<g id="node4" class="node">
<title>ButtonMenu </title>
<polygon fill="#fb8072" stroke="#000000" points="360.2774,-252 269.7226,-252 269.7226,-216 360.2774,-216 360.2774,-252"/>
<text text-anchor="middle" x="315" y="-229.8" font-family="Times,serif" font-size="14.00" fill="#000000">ButtonMenu </text>
</g>
<!-- ButtonMenuModule&#45;&gt;ButtonMenu  -->
<g id="edge3" class="edge">
<title>ButtonMenuModule&#45;&gt;ButtonMenu </title>
<path fill="none" stroke="#000000" stroke-dasharray="5,2" d="M291.5125,-187.1061C291.5125,-187.1061 291.5125,-205.991 291.5125,-205.991"/>
<polygon fill="#000000" stroke="#000000" points="288.0125,-205.9909 291.5125,-215.991 295.0125,-205.991 288.0125,-205.9909"/>
</g>
<!-- ButtonMenuItem  -->
<g id="node5" class="node">
<title>ButtonMenuItem </title>
<polygon fill="#fb8072" stroke="#000000" points="251.9334,-252 136.0666,-252 136.0666,-216 251.9334,-216 251.9334,-252"/>
<text text-anchor="middle" x="194" y="-229.8" font-family="Times,serif" font-size="14.00" fill="#000000">ButtonMenuItem </text>
</g>
<!-- ButtonMenuModule&#45;&gt;ButtonMenuItem  -->
<g id="edge4" class="edge">
<title>ButtonMenuModule&#45;&gt;ButtonMenuItem </title>
<path fill="none" stroke="#000000" stroke-dasharray="5,2" d="M217.4017,-187.1061C217.4017,-187.1061 217.4017,-205.991 217.4017,-205.991"/>
<polygon fill="#000000" stroke="#000000" points="213.9017,-205.9909 217.4017,-215.991 220.9017,-205.991 213.9017,-205.9909"/>
</g>
</g>
</svg>
