<?xml version="1.0" encoding="UTF-8" standalone="no"?>
<!DOCTYPE svg PUBLIC "-//W3C//DTD SVG 1.1//EN"
 "http://www.w3.org/Graphics/SVG/1.1/DTD/svg11.dtd">
<!-- Generated by graphviz version 2.47.0 (20210316.0004)
 -->
<!-- Title: dependencies Pages: 1 -->
<svg width="3362pt" height="349pt"
 viewBox="0.00 0.00 3362.00 349.00" xmlns="http://www.w3.org/2000/svg" xmlns:xlink="http://www.w3.org/1999/xlink">
<g id="graph0" class="graph" transform="scale(1 1) rotate(0) translate(4 345)">
<title>dependencies</title>
<polygon fill="white" stroke="transparent" points="-4,4 -4,-345 3358,-345 3358,4 -4,4"/>
<text text-anchor="start" x="1656.01" y="-42.4" font-family="Times-12" font-weight="bold" font-size="14.00">Legend</text>
<polygon fill="#ffffb3" stroke="transparent" points="1443,-10 1443,-30 1463,-30 1463,-10 1443,-10"/>
<text text-anchor="start" x="1466.63" y="-15.4" font-family="Times-12" font-size="14.00"> &#160;Declarations</text>
<polygon fill="#8dd3c7" stroke="transparent" points="1556,-10 1556,-30 1576,-30 1576,-10 1556,-10"/>
<text text-anchor="start" x="1579.73" y="-15.4" font-family="Times-12" font-size="14.00"> &#160;Module</text>
<polygon fill="#80b1d3" stroke="transparent" points="1642,-10 1642,-30 1662,-30 1662,-10 1642,-10"/>
<text text-anchor="start" x="1665.78" y="-15.4" font-family="Times-12" font-size="14.00"> &#160;Bootstrap</text>
<polygon fill="#fdb462" stroke="transparent" points="1739,-10 1739,-30 1759,-30 1759,-10 1739,-10"/>
<text text-anchor="start" x="1762.67" y="-15.4" font-family="Times-12" font-size="14.00"> &#160;Providers</text>
<polygon fill="#fb8072" stroke="transparent" points="1835,-10 1835,-30 1855,-30 1855,-10 1835,-10"/>
<text text-anchor="start" x="1858.73" y="-15.4" font-family="Times-12" font-size="14.00"> &#160;Exports</text>
<g id="clust1" class="cluster">
<title>cluster_TabsModule</title>
<polygon fill="none" stroke="black" stroke-dasharray="1,5" points="8,-70 8,-333 3346,-333 3346,-70 8,-70"/>
</g>
<g id="clust7" class="cluster">
<title>cluster_TabsModule_TabHeaderComponent_providers</title>
<polygon fill="none" stroke="black" points="2648,-78 2648,-195 3338,-195 3338,-78 2648,-78"/>
</g>
<g id="clust6" class="cluster">
<title>cluster_TabsModule_TabHeader_providers</title>
<polygon fill="none" stroke="black" points="2040,-78 2040,-195 2640,-195 2640,-78 2040,-78"/>
</g>
<g id="clust17" class="cluster">
<title>cluster_TabsModule_exports</title>
<polygon fill="none" stroke="black" points="274,-273 274,-325 1712,-325 1712,-273 274,-273"/>
</g>
<g id="clust16" class="cluster">
<title>cluster_TabsModule_imports</title>
<polygon fill="none" stroke="black" points="1707,-143 1707,-195 2032,-195 2032,-143 1707,-143"/>
</g>
<g id="clust4" class="cluster">
<title>cluster_TabsModule_IconTab_providers</title>
<polygon fill="none" stroke="black" points="1213,-78 1213,-195 1699,-195 1699,-78 1213,-78"/>
</g>
<g id="clust2" class="cluster">
<title>cluster_TabsModule_declarations</title>
<polygon fill="none" stroke="black" points="16,-143 16,-195 1205,-195 1205,-143 16,-143"/>
</g>
<!-- BaseTabHeader -->
<g id="node1" class="node">
<title>BaseTabHeader</title>
<polygon fill="#ffffb3" stroke="black" points="1196.89,-187 1091.11,-187 1091.11,-151 1196.89,-151 1196.89,-187"/>
<text text-anchor="middle" x="1144" y="-164.8" font-family="Times,serif" font-size="14.00">BaseTabHeader</text>
</g>
<!-- TabsModule -->
<g id="node14" class="node">
<title>TabsModule</title>
<polygon fill="#8dd3c7" stroke="black" points="1038.26,-252 1035.26,-256 1014.26,-256 1011.26,-252 951.74,-252 951.74,-216 1038.26,-216 1038.26,-252"/>
<text text-anchor="middle" x="995" y="-229.8" font-family="Times,serif" font-size="14.00">TabsModule</text>
</g>
<!-- BaseTabHeader&#45;&gt;TabsModule -->
<g id="edge1" class="edge">
<title>BaseTabHeader&#45;&gt;TabsModule</title>
<path fill="none" stroke="black" d="M1119.78,-187.05C1119.78,-201.37 1119.78,-219 1119.78,-219 1119.78,-219 1048.29,-219 1048.29,-219"/>
<polygon fill="black" stroke="black" points="1048.29,-215.5 1038.29,-219 1048.29,-222.5 1048.29,-215.5"/>
</g>
<!-- IconTab -->
<g id="node2" class="node">
<title>IconTab</title>
<polygon fill="#ffffb3" stroke="black" points="1385.14,-187 1322.86,-187 1322.86,-151 1385.14,-151 1385.14,-187"/>
<text text-anchor="middle" x="1354" y="-164.8" font-family="Times,serif" font-size="14.00">IconTab</text>
</g>
<!-- IconTab&#45;&gt;TabsModule -->
<g id="edge2" class="edge">
<title>IconTab&#45;&gt;TabsModule</title>
<path fill="none" stroke="black" d="M1354,-187.24C1354,-202.57 1354,-222 1354,-222 1354,-222 1048.3,-222 1048.3,-222"/>
<polygon fill="black" stroke="black" points="1048.3,-218.5 1038.3,-222 1048.3,-225.5 1048.3,-218.5"/>
</g>
<!-- Tab -->
<g id="node3" class="node">
<title>Tab</title>
<polygon fill="#ffffb3" stroke="black" points="1073,-187 1019,-187 1019,-151 1073,-151 1073,-187"/>
<text text-anchor="middle" x="1046" y="-164.8" font-family="Times,serif" font-size="14.00">Tab</text>
</g>
<!-- Tab&#45;&gt;TabsModule -->
<g id="edge4" class="edge">
<title>Tab&#45;&gt;TabsModule</title>
<path fill="none" stroke="black" d="M1028.69,-187.11C1028.69,-187.11 1028.69,-205.99 1028.69,-205.99"/>
<polygon fill="black" stroke="black" points="1025.19,-205.99 1028.69,-215.99 1032.19,-205.99 1025.19,-205.99"/>
</g>
<!-- TabHeader -->
<g id="node4" class="node">
<title>TabHeader</title>
<polygon fill="#ffffb3" stroke="black" points="2252.18,-187 2173.82,-187 2173.82,-151 2252.18,-151 2252.18,-187"/>
<text text-anchor="middle" x="2213" y="-164.8" font-family="Times,serif" font-size="14.00">TabHeader</text>
</g>
<!-- TabHeader&#45;&gt;TabsModule -->
<g id="edge5" class="edge">
<title>TabHeader&#45;&gt;TabsModule</title>
<path fill="none" stroke="black" d="M2213,-187.17C2213,-206.09 2213,-233 2213,-233 2213,-233 1048.35,-233 1048.35,-233"/>
<polygon fill="black" stroke="black" points="1048.35,-229.5 1038.35,-233 1048.35,-236.5 1048.35,-229.5"/>
</g>
<!-- TabHeaderComponent -->
<g id="node5" class="node">
<title>TabHeaderComponent</title>
<polygon fill="#ffffb3" stroke="black" points="2931.51,-187 2788.49,-187 2788.49,-151 2931.51,-151 2931.51,-187"/>
<text text-anchor="middle" x="2860" y="-164.8" font-family="Times,serif" font-size="14.00">TabHeaderComponent</text>
</g>
<!-- TabHeaderComponent&#45;&gt;TabsModule -->
<g id="edge7" class="edge">
<title>TabHeaderComponent&#45;&gt;TabsModule</title>
<path fill="none" stroke="black" d="M2860,-187.31C2860,-207.15 2860,-236 2860,-236 2860,-236 1048.36,-236 1048.36,-236"/>
<polygon fill="black" stroke="black" points="1048.36,-232.5 1038.36,-236 1048.36,-239.5 1048.36,-232.5"/>
</g>
<!-- TabHeaderGroup -->
<g id="node6" class="node">
<title>TabHeaderGroup</title>
<polygon fill="#ffffb3" stroke="black" points="1000.95,-187 887.05,-187 887.05,-151 1000.95,-151 1000.95,-187"/>
<text text-anchor="middle" x="944" y="-164.8" font-family="Times,serif" font-size="14.00">TabHeaderGroup</text>
</g>
<!-- TabHeaderGroup&#45;&gt;TabsModule -->
<g id="edge9" class="edge">
<title>TabHeaderGroup&#45;&gt;TabsModule</title>
<path fill="none" stroke="black" d="M976.3,-187.11C976.3,-187.11 976.3,-205.99 976.3,-205.99"/>
<polygon fill="black" stroke="black" points="972.8,-205.99 976.3,-215.99 979.8,-205.99 972.8,-205.99"/>
</g>
<!-- TabHeaderGroupVertical -->
<g id="node7" class="node">
<title>TabHeaderGroupVertical</title>
<polygon fill="#ffffb3" stroke="black" points="869.53,-187 710.47,-187 710.47,-151 869.53,-151 869.53,-187"/>
<text text-anchor="middle" x="790" y="-164.8" font-family="Times,serif" font-size="14.00">TabHeaderGroupVertical</text>
</g>
<!-- TabHeaderGroupVertical&#45;&gt;TabsModule -->
<g id="edge10" class="edge">
<title>TabHeaderGroupVertical&#45;&gt;TabsModule</title>
<path fill="none" stroke="black" d="M865.81,-187.05C865.81,-201.37 865.81,-219 865.81,-219 865.81,-219 941.62,-219 941.62,-219"/>
<polygon fill="black" stroke="black" points="941.62,-222.5 951.62,-219 941.62,-215.5 941.62,-222.5"/>
</g>
<!-- TabHeaders -->
<g id="node8" class="node">
<title>TabHeaders</title>
<polygon fill="#ffffb3" stroke="black" points="692.62,-187 609.38,-187 609.38,-151 692.62,-151 692.62,-187"/>
<text text-anchor="middle" x="651" y="-164.8" font-family="Times,serif" font-size="14.00">TabHeaders</text>
</g>
<!-- TabHeaders&#45;&gt;TabsModule -->
<g id="edge11" class="edge">
<title>TabHeaders&#45;&gt;TabsModule</title>
<path fill="none" stroke="black" d="M657.34,-187.24C657.34,-202.57 657.34,-222 657.34,-222 657.34,-222 941.55,-222 941.55,-222"/>
<polygon fill="black" stroke="black" points="941.55,-225.5 951.55,-222 941.55,-218.5 941.55,-225.5"/>
</g>
<!-- TabHeadersVertical -->
<g id="node9" class="node">
<title>TabHeadersVertical</title>
<polygon fill="#ffffb3" stroke="black" points="591.21,-187 462.79,-187 462.79,-151 591.21,-151 591.21,-187"/>
<text text-anchor="middle" x="527" y="-164.8" font-family="Times,serif" font-size="14.00">TabHeadersVertical</text>
</g>
<!-- TabHeadersVertical&#45;&gt;TabsModule -->
<g id="edge12" class="edge">
<title>TabHeadersVertical&#45;&gt;TabsModule</title>
<path fill="none" stroke="black" d="M570.68,-187.03C570.68,-203.4 570.68,-225 570.68,-225 570.68,-225 941.58,-225 941.58,-225"/>
<polygon fill="black" stroke="black" points="941.58,-228.5 951.58,-225 941.58,-221.5 941.58,-228.5"/>
</g>
<!-- TabSkeleton -->
<g id="node10" class="node">
<title>TabSkeleton</title>
<polygon fill="#ffffb3" stroke="black" points="444.26,-187 357.74,-187 357.74,-151 444.26,-151 444.26,-187"/>
<text text-anchor="middle" x="401" y="-164.8" font-family="Times,serif" font-size="14.00">TabSkeleton</text>
</g>
<!-- TabSkeleton&#45;&gt;TabsModule -->
<g id="edge13" class="edge">
<title>TabSkeleton&#45;&gt;TabsModule</title>
<path fill="none" stroke="black" d="M431.25,-187.02C431.25,-204.37 431.25,-228 431.25,-228 431.25,-228 941.7,-228 941.7,-228"/>
<polygon fill="black" stroke="black" points="941.7,-231.5 951.7,-228 941.7,-224.5 941.7,-231.5"/>
</g>
<!-- Tabs -->
<g id="node11" class="node">
<title>Tabs</title>
<polygon fill="#ffffb3" stroke="black" points="340,-187 286,-187 286,-151 340,-151 340,-187"/>
<text text-anchor="middle" x="313" y="-164.8" font-family="Times,serif" font-size="14.00">Tabs</text>
</g>
<!-- Tabs&#45;&gt;TabsModule -->
<g id="edge14" class="edge">
<title>Tabs&#45;&gt;TabsModule</title>
<path fill="none" stroke="black" d="M313,-187.3C313,-205.27 313,-230 313,-230 313,-230 941.56,-230 941.56,-230"/>
<polygon fill="black" stroke="black" points="941.56,-233.5 951.56,-230 941.56,-226.5 941.56,-233.5"/>
</g>
<!-- TabsVertical -->
<g id="node12" class="node">
<title>TabsVertical</title>
<polygon fill="#ffffb3" stroke="black" points="268.3,-187 179.7,-187 179.7,-151 268.3,-151 268.3,-187"/>
<text text-anchor="middle" x="224" y="-164.8" font-family="Times,serif" font-size="14.00">TabsVertical</text>
</g>
<!-- TabsVertical&#45;&gt;TabsModule -->
<g id="edge15" class="edge">
<title>TabsVertical&#45;&gt;TabsModule</title>
<path fill="none" stroke="black" d="M224,-187.17C224,-206.09 224,-233 224,-233 224,-233 941.62,-233 941.62,-233"/>
<polygon fill="black" stroke="black" points="941.62,-236.5 951.62,-233 941.62,-229.5 941.62,-236.5"/>
</g>
<!-- TabsVerticalGrouped -->
<g id="node13" class="node">
<title>TabsVerticalGrouped</title>
<polygon fill="#ffffb3" stroke="black" points="161.78,-187 24.22,-187 24.22,-151 161.78,-151 161.78,-187"/>
<text text-anchor="middle" x="93" y="-164.8" font-family="Times,serif" font-size="14.00">TabsVerticalGrouped</text>
</g>
<!-- TabsVerticalGrouped&#45;&gt;TabsModule -->
<g id="edge16" class="edge">
<title>TabsVerticalGrouped&#45;&gt;TabsModule</title>
<path fill="none" stroke="black" d="M93,-187.31C93,-207.15 93,-236 93,-236 93,-236 941.49,-236 941.49,-236"/>
<polygon fill="black" stroke="black" points="941.49,-239.5 951.49,-236 941.49,-232.5 941.49,-239.5"/>
</g>
<!-- IconTab  -->
<g id="node21" class="node">
<title>IconTab </title>
<polygon fill="#fb8072" stroke="black" points="1704.14,-317 1637.86,-317 1637.86,-281 1704.14,-281 1704.14,-317"/>
<text text-anchor="middle" x="1671" y="-294.8" font-family="Times,serif" font-size="14.00">IconTab </text>
</g>
<!-- TabsModule&#45;&gt;IconTab  -->
<g id="edge20" class="edge">
<title>TabsModule&#45;&gt;IconTab </title>
<path fill="none" stroke="black" stroke-dasharray="5,2" d="M1038.41,-239C1186.76,-239 1664.46,-239 1664.46,-239 1664.46,-239 1664.46,-271 1664.46,-271"/>
<polygon fill="black" stroke="black" points="1660.96,-271 1664.46,-281 1667.96,-271 1660.96,-271"/>
</g>
<!-- Tab  -->
<g id="node22" class="node">
<title>Tab </title>
<polygon fill="#fb8072" stroke="black" points="1620,-317 1566,-317 1566,-281 1620,-281 1620,-317"/>
<text text-anchor="middle" x="1593" y="-294.8" font-family="Times,serif" font-size="14.00">Tab </text>
</g>
<!-- TabsModule&#45;&gt;Tab  -->
<g id="edge21" class="edge">
<title>TabsModule&#45;&gt;Tab </title>
<path fill="none" stroke="black" stroke-dasharray="5,2" d="M1038.49,-241C1176.1,-241 1593,-241 1593,-241 1593,-241 1593,-270.97 1593,-270.97"/>
<polygon fill="black" stroke="black" points="1589.5,-270.97 1593,-280.97 1596.5,-270.97 1589.5,-270.97"/>
</g>
<!-- TabHeader  -->
<g id="node23" class="node">
<title>TabHeader </title>
<polygon fill="#fb8072" stroke="black" points="1547.68,-317 1466.32,-317 1466.32,-281 1547.68,-281 1547.68,-317"/>
<text text-anchor="middle" x="1507" y="-294.8" font-family="Times,serif" font-size="14.00">TabHeader </text>
</g>
<!-- TabsModule&#45;&gt;TabHeader  -->
<g id="edge22" class="edge">
<title>TabsModule&#45;&gt;TabHeader </title>
<path fill="none" stroke="black" stroke-dasharray="5,2" d="M1038.65,-244C1162.47,-244 1507,-244 1507,-244 1507,-244 1507,-270.99 1507,-270.99"/>
<polygon fill="black" stroke="black" points="1503.5,-270.99 1507,-280.99 1510.5,-270.99 1503.5,-270.99"/>
</g>
<!-- TabHeaderComponent  -->
<g id="node24" class="node">
<title>TabHeaderComponent </title>
<polygon fill="#fb8072" stroke="black" points="1448.51,-317 1301.49,-317 1301.49,-281 1448.51,-281 1448.51,-317"/>
<text text-anchor="middle" x="1375" y="-294.8" font-family="Times,serif" font-size="14.00">TabHeaderComponent </text>
</g>
<!-- TabsModule&#45;&gt;TabHeaderComponent  -->
<g id="edge23" class="edge">
<title>TabsModule&#45;&gt;TabHeaderComponent </title>
<path fill="none" stroke="black" stroke-dasharray="5,2" d="M1038.42,-247C1125.27,-247 1312.09,-247 1312.09,-247 1312.09,-247 1312.09,-270.81 1312.09,-270.81"/>
<polygon fill="black" stroke="black" points="1308.59,-270.81 1312.09,-280.81 1315.59,-270.81 1308.59,-270.81"/>
</g>
<!-- TabHeaderGroup  -->
<g id="node25" class="node">
<title>TabHeaderGroup </title>
<polygon fill="#fb8072" stroke="black" points="1283.95,-317 1166.05,-317 1166.05,-281 1283.95,-281 1283.95,-317"/>
<text text-anchor="middle" x="1225" y="-294.8" font-family="Times,serif" font-size="14.00">TabHeaderGroup </text>
</g>
<!-- TabsModule&#45;&gt;TabHeaderGroup  -->
<g id="edge24" class="edge">
<title>TabsModule&#45;&gt;TabHeaderGroup </title>
<path fill="none" stroke="black" stroke-dasharray="5,2" d="M1038.72,-250C1093.84,-250 1181.49,-250 1181.49,-250 1181.49,-250 1181.49,-270.75 1181.49,-270.75"/>
<polygon fill="black" stroke="black" points="1177.99,-270.75 1181.49,-280.75 1184.99,-270.75 1177.99,-270.75"/>
</g>
<!-- TabHeaderGroupVertical  -->
<g id="node26" class="node">
<title>TabHeaderGroupVertical </title>
<polygon fill="#fb8072" stroke="black" points="1148.03,-317 985.97,-317 985.97,-281 1148.03,-281 1148.03,-317"/>
<text text-anchor="middle" x="1067" y="-294.8" font-family="Times,serif" font-size="14.00">TabHeaderGroupVertical </text>
</g>
<!-- TabsModule&#45;&gt;TabHeaderGroupVertical  -->
<g id="edge25" class="edge">
<title>TabsModule&#45;&gt;TabHeaderGroupVertical </title>
<path fill="none" stroke="black" stroke-dasharray="5,2" d="M1012.06,-252.11C1012.06,-252.11 1012.06,-270.99 1012.06,-270.99"/>
<polygon fill="black" stroke="black" points="1008.56,-270.99 1012.06,-280.99 1015.56,-270.99 1008.56,-270.99"/>
</g>
<!-- TabHeaders  -->
<g id="node27" class="node">
<title>TabHeaders </title>
<polygon fill="#fb8072" stroke="black" points="967.62,-317 880.38,-317 880.38,-281 967.62,-281 967.62,-317"/>
<text text-anchor="middle" x="924" y="-294.8" font-family="Times,serif" font-size="14.00">TabHeaders </text>
</g>
<!-- TabsModule&#45;&gt;TabHeaders  -->
<g id="edge26" class="edge">
<title>TabsModule&#45;&gt;TabHeaders </title>
<path fill="none" stroke="black" stroke-dasharray="5,2" d="M959.59,-252.11C959.59,-252.11 959.59,-270.99 959.59,-270.99"/>
<polygon fill="black" stroke="black" points="956.09,-270.99 959.59,-280.99 963.09,-270.99 956.09,-270.99"/>
</g>
<!-- TabHeadersVertical  -->
<g id="node28" class="node">
<title>TabHeadersVertical </title>
<polygon fill="#fb8072" stroke="black" points="862.21,-317 729.79,-317 729.79,-281 862.21,-281 862.21,-317"/>
<text text-anchor="middle" x="796" y="-294.8" font-family="Times,serif" font-size="14.00">TabHeadersVertical </text>
</g>
<!-- TabsModule&#45;&gt;TabHeadersVertical  -->
<g id="edge27" class="edge">
<title>TabsModule&#45;&gt;TabHeadersVertical </title>
<path fill="none" stroke="black" stroke-dasharray="5,2" d="M951.33,-250C892.75,-250 796,-250 796,-250 796,-250 796,-270.75 796,-270.75"/>
<polygon fill="black" stroke="black" points="792.5,-270.75 796,-280.75 799.5,-270.75 792.5,-270.75"/>
</g>
<!-- TabSkeleton  -->
<g id="node29" class="node">
<title>TabSkeleton </title>
<polygon fill="#fb8072" stroke="black" points="712.26,-317 621.74,-317 621.74,-281 712.26,-281 712.26,-317"/>
<text text-anchor="middle" x="667" y="-294.8" font-family="Times,serif" font-size="14.00">TabSkeleton </text>
</g>
<!-- TabsModule&#45;&gt;TabSkeleton  -->
<g id="edge28" class="edge">
<title>TabsModule&#45;&gt;TabSkeleton </title>
<path fill="none" stroke="black" stroke-dasharray="5,2" d="M951.71,-247C870.11,-247 701.65,-247 701.65,-247 701.65,-247 701.65,-270.81 701.65,-270.81"/>
<polygon fill="black" stroke="black" points="698.15,-270.81 701.65,-280.81 705.15,-270.81 698.15,-270.81"/>
</g>
<!-- Tabs  -->
<g id="node30" class="node">
<title>Tabs </title>
<polygon fill="#fb8072" stroke="black" points="604,-317 550,-317 550,-281 604,-281 604,-317"/>
<text text-anchor="middle" x="577" y="-294.8" font-family="Times,serif" font-size="14.00">Tabs </text>
</g>
<!-- TabsModule&#45;&gt;Tabs  -->
<g id="edge29" class="edge">
<title>TabsModule&#45;&gt;Tabs </title>
<path fill="none" stroke="black" stroke-dasharray="5,2" d="M951.72,-244C848.75,-244 597.68,-244 597.68,-244 597.68,-244 597.68,-270.99 597.68,-270.99"/>
<polygon fill="black" stroke="black" points="594.18,-270.99 597.68,-280.99 601.18,-270.99 594.18,-270.99"/>
</g>
<!-- TabsVertical  -->
<g id="node31" class="node">
<title>TabsVertical </title>
<polygon fill="#fb8072" stroke="black" points="531.79,-317 440.21,-317 440.21,-281 531.79,-281 531.79,-317"/>
<text text-anchor="middle" x="486" y="-294.8" font-family="Times,serif" font-size="14.00">TabsVertical </text>
</g>
<!-- TabsModule&#45;&gt;TabsVertical  -->
<g id="edge30" class="edge">
<title>TabsModule&#45;&gt;TabsVertical </title>
<path fill="none" stroke="black" stroke-dasharray="5,2" d="M951.7,-241C830.61,-241 497.27,-241 497.27,-241 497.27,-241 497.27,-270.97 497.27,-270.97"/>
<polygon fill="black" stroke="black" points="493.77,-270.97 497.27,-280.97 500.77,-270.97 493.77,-270.97"/>
</g>
<!-- TabsVerticalGrouped  -->
<g id="node32" class="node">
<title>TabsVerticalGrouped </title>
<polygon fill="#fb8072" stroke="black" points="422.28,-317 281.72,-317 281.72,-281 422.28,-281 422.28,-317"/>
<text text-anchor="middle" x="352" y="-294.8" font-family="Times,serif" font-size="14.00">TabsVerticalGrouped </text>
</g>
<!-- TabsModule&#45;&gt;TabsVerticalGrouped  -->
<g id="edge31" class="edge">
<title>TabsModule&#45;&gt;TabsVerticalGrouped </title>
<path fill="none" stroke="black" stroke-dasharray="5,2" d="M951.49,-239C812.77,-239 390,-239 390,-239 390,-239 390,-271 390,-271"/>
<polygon fill="black" stroke="black" points="386.5,-271 390,-281 393.5,-271 386.5,-271"/>
</g>
<!-- { provide: Tab, useExisting: forwardRef(() =&gt; IconTab) } -->
<g id="node15" class="node">
<title>{ provide: Tab, useExisting: forwardRef(() =&gt; IconTab) }</title>
<ellipse fill="#fdb462" stroke="black" cx="1456" cy="-104" rx="234.97" ry="18"/>
<text text-anchor="middle" x="1456" y="-99.8" font-family="Times,serif" font-size="14.00">{ provide: Tab, useExisting: forwardRef(() =&gt; IconTab) }</text>
</g>
<!-- { provide: Tab, useExisting: forwardRef(() =&gt; IconTab) }&#45;&gt;IconTab -->
<g id="edge3" class="edge">
<title>{ provide: Tab, useExisting: forwardRef(() =&gt; IconTab) }&#45;&gt;IconTab</title>
<path fill="none" stroke="black" d="M1354,-120.4C1354,-120.4 1354,-140.54 1354,-140.54"/>
<polygon fill="black" stroke="black" points="1350.5,-140.54 1354,-150.54 1357.5,-140.54 1350.5,-140.54"/>
</g>
<!-- { provide: TabHeaderBase, useExisting: forwardRef(() =&gt; TabHeader) } -->
<g id="node16" class="node">
<title>{ provide: TabHeaderBase, useExisting: forwardRef(() =&gt; TabHeader) }</title>
<ellipse fill="#fdb462" stroke="black" cx="2340" cy="-104" rx="292.19" ry="18"/>
<text text-anchor="middle" x="2340" y="-99.8" font-family="Times,serif" font-size="14.00">{ provide: TabHeaderBase, useExisting: forwardRef(() =&gt; TabHeader) }</text>
</g>
<!-- { provide: TabHeaderBase, useExisting: forwardRef(() =&gt; TabHeader) }&#45;&gt;TabHeader -->
<g id="edge6" class="edge">
<title>{ provide: TabHeaderBase, useExisting: forwardRef(() =&gt; TabHeader) }&#45;&gt;TabHeader</title>
<path fill="none" stroke="black" d="M2213,-120.4C2213,-120.4 2213,-140.54 2213,-140.54"/>
<polygon fill="black" stroke="black" points="2209.5,-140.54 2213,-150.54 2216.5,-140.54 2209.5,-140.54"/>
</g>
<!-- { provide: TabHeaderBase, useExisting: forwardRef(() =&gt; TabHeaderComponent) } -->
<g id="node17" class="node">
<title>{ provide: TabHeaderBase, useExisting: forwardRef(() =&gt; TabHeaderComponent) }</title>
<ellipse fill="#fdb462" stroke="black" cx="2993" cy="-104" rx="337.32" ry="18"/>
<text text-anchor="middle" x="2993" y="-99.8" font-family="Times,serif" font-size="14.00">{ provide: TabHeaderBase, useExisting: forwardRef(() =&gt; TabHeaderComponent) }</text>
</g>
<!-- { provide: TabHeaderBase, useExisting: forwardRef(() =&gt; TabHeaderComponent) }&#45;&gt;TabHeaderComponent -->
<g id="edge8" class="edge">
<title>{ provide: TabHeaderBase, useExisting: forwardRef(() =&gt; TabHeaderComponent) }&#45;&gt;TabHeaderComponent</title>
<path fill="none" stroke="black" d="M2860,-120.74C2860,-120.74 2860,-140.72 2860,-140.72"/>
<polygon fill="black" stroke="black" points="2856.5,-140.72 2860,-150.72 2863.5,-140.72 2856.5,-140.72"/>
</g>
<!-- I18nModule -->
<g id="node18" class="node">
<title>I18nModule</title>
<polygon fill="#8dd3c7" stroke="black" points="2023.71,-187 2020.71,-191 1999.71,-191 1996.71,-187 1938.29,-187 1938.29,-151 2023.71,-151 2023.71,-187"/>
<text text-anchor="middle" x="1981" y="-164.8" font-family="Times,serif" font-size="14.00">I18nModule</text>
</g>
<!-- I18nModule&#45;&gt;TabsModule -->
<g id="edge17" class="edge">
<title>I18nModule&#45;&gt;TabsModule</title>
<path fill="none" stroke="black" d="M1981,-187.3C1981,-205.27 1981,-230 1981,-230 1981,-230 1048.32,-230 1048.32,-230"/>
<polygon fill="black" stroke="black" points="1048.32,-226.5 1038.32,-230 1048.32,-233.5 1048.32,-226.5"/>
</g>
<!-- TooltipModule -->
<g id="node19" class="node">
<title>TooltipModule</title>
<polygon fill="#8dd3c7" stroke="black" points="1920.27,-187 1917.27,-191 1896.27,-191 1893.27,-187 1819.73,-187 1819.73,-151 1920.27,-151 1920.27,-187"/>
<text text-anchor="middle" x="1870" y="-164.8" font-family="Times,serif" font-size="14.00">TooltipModule</text>
</g>
<!-- TooltipModule&#45;&gt;TabsModule -->
<g id="edge18" class="edge">
<title>TooltipModule&#45;&gt;TabsModule</title>
<path fill="none" stroke="black" d="M1870,-187.02C1870,-204.37 1870,-228 1870,-228 1870,-228 1048.39,-228 1048.39,-228"/>
<polygon fill="black" stroke="black" points="1048.39,-224.5 1038.39,-228 1048.39,-231.5 1048.39,-224.5"/>
</g>
<!-- UtilsModule -->
<g id="node20" class="node">
<title>UtilsModule</title>
<polygon fill="#8dd3c7" stroke="black" points="1801.27,-187 1798.27,-191 1777.27,-191 1774.27,-187 1714.73,-187 1714.73,-151 1801.27,-151 1801.27,-187"/>
<text text-anchor="middle" x="1758" y="-164.8" font-family="Times,serif" font-size="14.00">UtilsModule</text>
</g>
<!-- UtilsModule&#45;&gt;TabsModule -->
<g id="edge19" class="edge">
<title>UtilsModule&#45;&gt;TabsModule</title>
<path fill="none" stroke="black" d="M1758,-187.03C1758,-203.4 1758,-225 1758,-225 1758,-225 1048.49,-225 1048.49,-225"/>
<polygon fill="black" stroke="black" points="1048.49,-221.5 1038.49,-225 1048.49,-228.5 1048.49,-221.5"/>
</g>
</g>
</svg>
