<?xml version="1.0" encoding="UTF-8" standalone="no"?>
<!DOCTYPE svg PUBLIC "-//W3C//DTD SVG 1.1//EN"
 "http://www.w3.org/Graphics/SVG/1.1/DTD/svg11.dtd">
<!-- Generated by graphviz version 2.40.1 (20161225.0304)
 -->
<!-- Title: dependencies Pages: 1 -->
<svg width="504pt" height="284pt"
 viewBox="0.00 0.00 504.00 284.00" xmlns="http://www.w3.org/2000/svg" xmlns:xlink="http://www.w3.org/1999/xlink">
<g id="graph0" class="graph" transform="scale(1 1) rotate(0) translate(4 280)">
<title>dependencies</title>
<polygon fill="#ffffff" stroke="transparent" points="-4,4 -4,-280 500,-280 500,4 -4,4"/>
<text text-anchor="start" x="227.0091" y="-42.4" font-family="sans-serif" font-weight="bold" font-size="14.00" fill="#000000">Legend</text>
<polygon fill="#ffffb3" stroke="transparent" points="14,-10 14,-30 34,-30 34,-10 14,-10"/>
<text text-anchor="start" x="37.629" y="-15.4" font-family="sans-serif" font-size="14.00" fill="#000000"> &#160;Declarations</text>
<polygon fill="#8dd3c7" stroke="transparent" points="127,-10 127,-30 147,-30 147,-10 127,-10"/>
<text text-anchor="start" x="150.7251" y="-15.4" font-family="sans-serif" font-size="14.00" fill="#000000"> &#160;Module</text>
<polygon fill="#80b1d3" stroke="transparent" points="213,-10 213,-30 233,-30 233,-10 213,-10"/>
<text text-anchor="start" x="236.7812" y="-15.4" font-family="sans-serif" font-size="14.00" fill="#000000"> &#160;Bootstrap</text>
<polygon fill="#fdb462" stroke="transparent" points="310,-10 310,-30 330,-30 330,-10 310,-10"/>
<text text-anchor="start" x="333.6732" y="-15.4" font-family="sans-serif" font-size="14.00" fill="#000000"> &#160;Providers</text>
<polygon fill="#fb8072" stroke="transparent" points="406,-10 406,-30 426,-30 426,-10 406,-10"/>
<text text-anchor="start" x="429.7258" y="-15.4" font-family="sans-serif" font-size="14.00" fill="#000000"> &#160;Exports</text>
<g id="clust1" class="cluster">
<title>cluster_TabsModule</title>
<polygon fill="none" stroke="#000000" stroke-dasharray="1,5" points="48,-70 48,-268 448,-268 448,-70 48,-70"/>
</g>
<g id="clust2" class="cluster">
<title>cluster_TabsModule_declarations</title>
<polygon fill="none" stroke="#000000" points="196,-78 196,-130 440,-130 440,-78 196,-78"/>
</g>
<g id="clust6" class="cluster">
<title>cluster_TabsModule_imports</title>
<polygon fill="none" stroke="#000000" points="56,-78 56,-130 188,-130 188,-78 56,-78"/>
</g>
<g id="clust7" class="cluster">
<title>cluster_TabsModule_exports</title>
<polygon fill="none" stroke="#000000" points="148,-208 148,-260 396,-260 396,-208 148,-208"/>
</g>
<!-- Tabs -->
<g id="node1" class="node">
<title>Tabs</title>
<polygon fill="#ffffb3" stroke="#000000" points="432,-122 378,-122 378,-86 432,-86 432,-122"/>
<text text-anchor="middle" x="405" y="-99.8" font-family="Times,serif" font-size="14.00" fill="#000000">Tabs</text>
</g>
<!-- TabsModule -->
<g id="node4" class="node">
<title>TabsModule</title>
<polygon fill="#8dd3c7" stroke="#000000" points="332.2619,-187 329.2619,-191 308.2619,-191 305.2619,-187 245.7381,-187 245.7381,-151 332.2619,-151 332.2619,-187"/>
<text text-anchor="middle" x="289" y="-164.8" font-family="Times,serif" font-size="14.00" fill="#000000">TabsModule</text>
</g>
<!-- Tabs&#45;&gt;TabsModule -->
<g id="edge1" class="edge">
<title>Tabs&#45;&gt;TabsModule</title>
<path fill="none" stroke="#000000" d="M383,-122.1061C383,-141.3391 383,-169 383,-169 383,-169 342.423,-169 342.423,-169"/>
<polygon fill="#000000" stroke="#000000" points="342.423,-165.5001 332.423,-169 342.423,-172.5001 342.423,-165.5001"/>
</g>
<!-- Tab -->
<g id="node2" class="node">
<title>Tab</title>
<polygon fill="#ffffb3" stroke="#000000" points="360,-122 306,-122 306,-86 360,-86 360,-122"/>
<text text-anchor="middle" x="333" y="-99.8" font-family="Times,serif" font-size="14.00" fill="#000000">Tab</text>
</g>
<!-- Tab&#45;&gt;TabsModule -->
<g id="edge2" class="edge">
<title>Tab&#45;&gt;TabsModule</title>
<path fill="none" stroke="#000000" d="M319.1904,-122.1061C319.1904,-122.1061 319.1904,-140.991 319.1904,-140.991"/>
<polygon fill="#000000" stroke="#000000" points="315.6905,-140.9909 319.1904,-150.991 322.6905,-140.991 315.6905,-140.9909"/>
</g>
<!-- TabHeaders -->
<g id="node3" class="node">
<title>TabHeaders</title>
<polygon fill="#ffffb3" stroke="#000000" points="287.6236,-122 204.3764,-122 204.3764,-86 287.6236,-86 287.6236,-122"/>
<text text-anchor="middle" x="246" y="-99.8" font-family="Times,serif" font-size="14.00" fill="#000000">TabHeaders</text>
</g>
<!-- TabHeaders&#45;&gt;TabsModule -->
<g id="edge3" class="edge">
<title>TabHeaders&#45;&gt;TabsModule</title>
<path fill="none" stroke="#000000" d="M266.7153,-122.1061C266.7153,-122.1061 266.7153,-140.991 266.7153,-140.991"/>
<polygon fill="#000000" stroke="#000000" points="263.2154,-140.9909 266.7153,-150.991 270.2154,-140.991 263.2154,-140.9909"/>
</g>
<!-- Tabs  -->
<g id="node6" class="node">
<title>Tabs </title>
<polygon fill="#fb8072" stroke="#000000" points="388,-252 334,-252 334,-216 388,-216 388,-252"/>
<text text-anchor="middle" x="361" y="-229.8" font-family="Times,serif" font-size="14.00" fill="#000000">Tabs </text>
</g>
<!-- TabsModule&#45;&gt;Tabs  -->
<g id="edge5" class="edge">
<title>TabsModule&#45;&gt;Tabs </title>
<path fill="none" stroke="#000000" stroke-dasharray="5,2" d="M324.1904,-187.1061C324.1904,-206.3391 324.1904,-234 324.1904,-234 324.1904,-234 325.1575,-234 325.1575,-234"/>
<polygon fill="#000000" stroke="#000000" points="323.8617,-237.5001 333.8617,-234 323.8616,-230.5001 323.8617,-237.5001"/>
</g>
<!-- Tab  -->
<g id="node7" class="node">
<title>Tab </title>
<polygon fill="#fb8072" stroke="#000000" points="316,-252 262,-252 262,-216 316,-216 316,-252"/>
<text text-anchor="middle" x="289" y="-229.8" font-family="Times,serif" font-size="14.00" fill="#000000">Tab </text>
</g>
<!-- TabsModule&#45;&gt;Tab  -->
<g id="edge6" class="edge">
<title>TabsModule&#45;&gt;Tab </title>
<path fill="none" stroke="#000000" stroke-dasharray="5,2" d="M289,-187.1061C289,-187.1061 289,-205.991 289,-205.991"/>
<polygon fill="#000000" stroke="#000000" points="285.5001,-205.9909 289,-215.991 292.5001,-205.991 285.5001,-205.9909"/>
</g>
<!-- TabHeaders  -->
<g id="node8" class="node">
<title>TabHeaders </title>
<polygon fill="#fb8072" stroke="#000000" points="243.6229,-252 156.3771,-252 156.3771,-216 243.6229,-216 243.6229,-252"/>
<text text-anchor="middle" x="200" y="-229.8" font-family="Times,serif" font-size="14.00" fill="#000000">TabHeaders </text>
</g>
<!-- TabsModule&#45;&gt;TabHeaders  -->
<g id="edge7" class="edge">
<title>TabsModule&#45;&gt;TabHeaders </title>
<path fill="none" stroke="#000000" stroke-dasharray="5,2" d="M253.8096,-187.1061C253.8096,-206.3391 253.8096,-234 253.8096,-234 253.8096,-234 252.8226,-234 252.8226,-234"/>
<polygon fill="#000000" stroke="#000000" points="253.9401,-230.5001 243.9401,-234 253.9401,-237.5001 253.9401,-230.5001"/>
</g>
<!-- StaticIconModule -->
<g id="node5" class="node">
<title>StaticIconModule</title>
<polygon fill="#8dd3c7" stroke="#000000" points="180.309,-122 177.309,-126 156.309,-126 153.309,-122 63.691,-122 63.691,-86 180.309,-86 180.309,-122"/>
<text text-anchor="middle" x="122" y="-99.8" font-family="Times,serif" font-size="14.00" fill="#000000">StaticIconModule</text>
</g>
<!-- StaticIconModule&#45;&gt;TabsModule -->
<g id="edge4" class="edge">
<title>StaticIconModule&#45;&gt;TabsModule</title>
<path fill="none" stroke="#000000" d="M168.2965,-122.1061C168.2965,-141.3391 168.2965,-169 168.2965,-169 168.2965,-169 235.4232,-169 235.4232,-169"/>
<polygon fill="#000000" stroke="#000000" points="235.4233,-172.5001 245.4232,-169 235.4232,-165.5001 235.4233,-172.5001"/>
</g>
</g>
</svg>
