<?xml version="1.0" encoding="UTF-8" standalone="no"?>
<!DOCTYPE svg PUBLIC "-//W3C//DTD SVG 1.1//EN"
 "http://www.w3.org/Graphics/SVG/1.1/DTD/svg11.dtd">
<!-- Generated by graphviz version 2.47.0 (20210316.0004)
 -->
<!-- Title: dependencies Pages: 1 -->
<svg width="1406pt" height="396pt"
 viewBox="0.00 0.00 1406.00 395.59" xmlns="http://www.w3.org/2000/svg" xmlns:xlink="http://www.w3.org/1999/xlink">
<g id="graph0" class="graph" transform="scale(1 1) rotate(0) translate(4 391.59)">
<title>dependencies</title>
<polygon fill="white" stroke="transparent" points="-4,4 -4,-391.59 1402,-391.59 1402,4 -4,4"/>
<text text-anchor="start" x="678.01" y="-42.4" font-family="Times-12" font-weight="bold" font-size="14.00">Legend</text>
<polygon fill="#ffffb3" stroke="transparent" points="465,-10 465,-30 485,-30 485,-10 465,-10"/>
<text text-anchor="start" x="488.63" y="-15.4" font-family="Times-12" font-size="14.00"> &#160;Declarations</text>
<polygon fill="#8dd3c7" stroke="transparent" points="578,-10 578,-30 598,-30 598,-10 578,-10"/>
<text text-anchor="start" x="601.73" y="-15.4" font-family="Times-12" font-size="14.00"> &#160;Module</text>
<polygon fill="#80b1d3" stroke="transparent" points="664,-10 664,-30 684,-30 684,-10 664,-10"/>
<text text-anchor="start" x="687.78" y="-15.4" font-family="Times-12" font-size="14.00"> &#160;Bootstrap</text>
<polygon fill="#fdb462" stroke="transparent" points="761,-10 761,-30 781,-30 781,-10 761,-10"/>
<text text-anchor="start" x="784.67" y="-15.4" font-family="Times-12" font-size="14.00"> &#160;Providers</text>
<polygon fill="#fb8072" stroke="transparent" points="857,-10 857,-30 877,-30 877,-10 857,-10"/>
<text text-anchor="start" x="880.73" y="-15.4" font-family="Times-12" font-size="14.00"> &#160;Exports</text>
<g id="clust1" class="cluster">
<title>cluster_RadioModule</title>
<polygon fill="none" stroke="black" stroke-dasharray="1,5" points="8,-70 8,-379.59 1390,-379.59 1390,-70 8,-70"/>
</g>
<g id="clust3" class="cluster">
<title>cluster_RadioModule_Radio_providers</title>
<polygon fill="none" stroke="black" points="782,-78 782,-241.59 1382,-241.59 1382,-78 782,-78"/>
</g>
<g id="clust4" class="cluster">
<title>cluster_RadioModule_RadioGroup_providers</title>
<polygon fill="none" stroke="black" points="124,-78 124,-241.59 774,-241.59 774,-78 124,-78"/>
</g>
<g id="clust5" class="cluster">
<title>cluster_RadioModule_imports</title>
<polygon fill="none" stroke="black" points="16,-189.59 16,-241.59 116,-241.59 116,-189.59 16,-189.59"/>
</g>
<g id="clust6" class="cluster">
<title>cluster_RadioModule_exports</title>
<polygon fill="none" stroke="black" points="353,-319.59 353,-371.59 529,-371.59 529,-319.59 353,-319.59"/>
</g>
<!-- Radio -->
<g id="node1" class="node">
<title>Radio</title>
<polygon fill="#ffffb3" stroke="black" points="976,-233.59 922,-233.59 922,-197.59 976,-197.59 976,-233.59"/>
<text text-anchor="middle" x="949" y="-211.39" font-family="Times,serif" font-size="14.00">Radio</text>
</g>
<!-- RadioModule -->
<g id="node3" class="node">
<title>RadioModule</title>
<polygon fill="#8dd3c7" stroke="black" points="495.49,-298.59 492.49,-302.59 471.49,-302.59 468.49,-298.59 402.51,-298.59 402.51,-262.59 495.49,-262.59 495.49,-298.59"/>
<text text-anchor="middle" x="449" y="-276.39" font-family="Times,serif" font-size="14.00">RadioModule</text>
</g>
<!-- Radio&#45;&gt;RadioModule -->
<g id="edge1" class="edge">
<title>Radio&#45;&gt;RadioModule</title>
<path fill="none" stroke="black" d="M949,-233.7C949,-252.93 949,-280.59 949,-280.59 949,-280.59 505.59,-280.59 505.59,-280.59"/>
<polygon fill="black" stroke="black" points="505.59,-277.09 495.59,-280.59 505.59,-284.09 505.59,-277.09"/>
</g>
<!-- RadioGroup -->
<g id="node2" class="node">
<title>RadioGroup</title>
<polygon fill="#ffffb3" stroke="black" points="491.71,-233.59 406.29,-233.59 406.29,-197.59 491.71,-197.59 491.71,-233.59"/>
<text text-anchor="middle" x="449" y="-211.39" font-family="Times,serif" font-size="14.00">RadioGroup</text>
</g>
<!-- RadioGroup&#45;&gt;RadioModule -->
<g id="edge3" class="edge">
<title>RadioGroup&#45;&gt;RadioModule</title>
<path fill="none" stroke="black" d="M449,-233.7C449,-233.7 449,-252.58 449,-252.58"/>
<polygon fill="black" stroke="black" points="445.5,-252.58 449,-262.58 452.5,-252.58 445.5,-252.58"/>
</g>
<!-- Radio  -->
<g id="node7" class="node">
<title>Radio </title>
<polygon fill="#fb8072" stroke="black" points="521,-363.59 467,-363.59 467,-327.59 521,-327.59 521,-363.59"/>
<text text-anchor="middle" x="494" y="-341.39" font-family="Times,serif" font-size="14.00">Radio </text>
</g>
<!-- RadioModule&#45;&gt;Radio  -->
<g id="edge6" class="edge">
<title>RadioModule&#45;&gt;Radio </title>
<path fill="none" stroke="black" stroke-dasharray="5,2" d="M481.25,-298.7C481.25,-298.7 481.25,-317.58 481.25,-317.58"/>
<polygon fill="black" stroke="black" points="477.75,-317.58 481.25,-327.58 484.75,-317.58 477.75,-317.58"/>
</g>
<!-- RadioGroup  -->
<g id="node8" class="node">
<title>RadioGroup </title>
<polygon fill="#fb8072" stroke="black" points="449.21,-363.59 360.79,-363.59 360.79,-327.59 449.21,-327.59 449.21,-363.59"/>
<text text-anchor="middle" x="405" y="-341.39" font-family="Times,serif" font-size="14.00">RadioGroup </text>
</g>
<!-- RadioModule&#45;&gt;RadioGroup  -->
<g id="edge7" class="edge">
<title>RadioModule&#45;&gt;RadioGroup </title>
<path fill="none" stroke="black" stroke-dasharray="5,2" d="M425.93,-298.7C425.93,-298.7 425.93,-317.58 425.93,-317.58"/>
<polygon fill="black" stroke="black" points="422.43,-317.58 425.93,-327.58 429.43,-317.58 422.43,-317.58"/>
</g>
<!-- {
 &#160;&#160;&#160;provide: NG_VALUE_ACCESSOR, useExisting: Radio, multi: true
} -->
<g id="node4" class="node">
<title>{
 &#160;&#160;&#160;provide: NG_VALUE_ACCESSOR, useExisting: Radio, multi: true
}</title>
<ellipse fill="#fdb462" stroke="black" cx="1082" cy="-127.3" rx="292.09" ry="41.09"/>
<text text-anchor="middle" x="1082" y="-139.9" font-family="Times,serif" font-size="14.00">{</text>
<text text-anchor="middle" x="1082" y="-123.1" font-family="Times,serif" font-size="14.00"> &#160;&#160;&#160;provide: NG_VALUE_ACCESSOR, useExisting: Radio, multi: true</text>
<text text-anchor="middle" x="1082" y="-106.3" font-family="Times,serif" font-size="14.00">}</text>
</g>
<!-- {
 &#160;&#160;&#160;provide: NG_VALUE_ACCESSOR, useExisting: Radio, multi: true
}&#45;&gt;Radio -->
<g id="edge2" class="edge">
<title>{
 &#160;&#160;&#160;provide: NG_VALUE_ACCESSOR, useExisting: Radio, multi: true
}&#45;&gt;Radio</title>
<path fill="none" stroke="black" d="M949,-164.23C949,-164.23 949,-187.58 949,-187.58"/>
<polygon fill="black" stroke="black" points="945.5,-187.58 949,-197.58 952.5,-187.58 945.5,-187.58"/>
</g>
<!-- {
 &#160;&#160;&#160;provide: NG_VALUE_ACCESSOR, useExisting: RadioGroup, multi: true
} -->
<g id="node5" class="node">
<title>{
 &#160;&#160;&#160;provide: NG_VALUE_ACCESSOR, useExisting: RadioGroup, multi: true
}</title>
<ellipse fill="#fdb462" stroke="black" cx="449" cy="-127.3" rx="317.17" ry="41.09"/>
<text text-anchor="middle" x="449" y="-139.9" font-family="Times,serif" font-size="14.00">{</text>
<text text-anchor="middle" x="449" y="-123.1" font-family="Times,serif" font-size="14.00"> &#160;&#160;&#160;provide: NG_VALUE_ACCESSOR, useExisting: RadioGroup, multi: true</text>
<text text-anchor="middle" x="449" y="-106.3" font-family="Times,serif" font-size="14.00">}</text>
</g>
<!-- {
 &#160;&#160;&#160;provide: NG_VALUE_ACCESSOR, useExisting: RadioGroup, multi: true
}&#45;&gt;RadioGroup -->
<g id="edge4" class="edge">
<title>{
 &#160;&#160;&#160;provide: NG_VALUE_ACCESSOR, useExisting: RadioGroup, multi: true
}&#45;&gt;RadioGroup</title>
<path fill="none" stroke="black" d="M449,-168.6C449,-168.6 449,-187.26 449,-187.26"/>
<polygon fill="black" stroke="black" points="445.5,-187.26 449,-197.26 452.5,-187.26 445.5,-187.26"/>
</g>
<!-- IconModule -->
<g id="node6" class="node">
<title>IconModule</title>
<polygon fill="#8dd3c7" stroke="black" points="108.43,-233.59 105.43,-237.59 84.43,-237.59 81.43,-233.59 23.57,-233.59 23.57,-197.59 108.43,-197.59 108.43,-233.59"/>
<text text-anchor="middle" x="66" y="-211.39" font-family="Times,serif" font-size="14.00">IconModule</text>
</g>
<!-- IconModule&#45;&gt;RadioModule -->
<g id="edge5" class="edge">
<title>IconModule&#45;&gt;RadioModule</title>
<path fill="none" stroke="black" d="M66,-233.7C66,-252.93 66,-280.59 66,-280.59 66,-280.59 392.42,-280.59 392.42,-280.59"/>
<polygon fill="black" stroke="black" points="392.42,-284.09 402.42,-280.59 392.42,-277.09 392.42,-284.09"/>
</g>
</g>
</svg>
