<?xml version="1.0" encoding="UTF-8" standalone="no"?>
<!DOCTYPE svg PUBLIC "-//W3C//DTD SVG 1.1//EN"
 "http://www.w3.org/Graphics/SVG/1.1/DTD/svg11.dtd">
<!-- Generated by graphviz version 2.40.1 (20161225.0304)
 -->
<!-- Title: dependencies Pages: 1 -->
<svg width="1056pt" height="211pt"
 viewBox="0.00 0.00 1056.00 211.00" xmlns="http://www.w3.org/2000/svg" xmlns:xlink="http://www.w3.org/1999/xlink">
<g id="graph0" class="graph" transform="scale(1 1) rotate(0) translate(4 207)">
<title>dependencies</title>
<polygon fill="#ffffff" stroke="transparent" points="-4,4 -4,-207 1052,-207 1052,4 -4,4"/>
<text text-anchor="start" x="503.0091" y="-42.4" font-family="sans-serif" font-weight="bold" font-size="14.00" fill="#000000">Legend</text>
<polygon fill="#ffffb3" stroke="transparent" points="290,-10 290,-30 310,-30 310,-10 290,-10"/>
<text text-anchor="start" x="313.629" y="-15.4" font-family="sans-serif" font-size="14.00" fill="#000000"> &#160;Declarations</text>
<polygon fill="#8dd3c7" stroke="transparent" points="403,-10 403,-30 423,-30 423,-10 403,-10"/>
<text text-anchor="start" x="426.7251" y="-15.4" font-family="sans-serif" font-size="14.00" fill="#000000"> &#160;Module</text>
<polygon fill="#80b1d3" stroke="transparent" points="489,-10 489,-30 509,-30 509,-10 489,-10"/>
<text text-anchor="start" x="512.7812" y="-15.4" font-family="sans-serif" font-size="14.00" fill="#000000"> &#160;Bootstrap</text>
<polygon fill="#fdb462" stroke="transparent" points="586,-10 586,-30 606,-30 606,-10 586,-10"/>
<text text-anchor="start" x="609.6732" y="-15.4" font-family="sans-serif" font-size="14.00" fill="#000000"> &#160;Providers</text>
<polygon fill="#fb8072" stroke="transparent" points="682,-10 682,-30 702,-30 702,-10 682,-10"/>
<text text-anchor="start" x="705.7258" y="-15.4" font-family="sans-serif" font-size="14.00" fill="#000000"> &#160;Exports</text>
<g id="clust1" class="cluster">
<title>cluster_UtilsModule</title>
<polygon fill="none" stroke="#000000" stroke-dasharray="1,5" points="8,-70 8,-195 1040,-195 1040,-70 8,-70"/>
</g>
<g id="clust6" class="cluster">
<title>cluster_UtilsModule_providers</title>
<polygon fill="none" stroke="#000000" points="16,-78 16,-130 1032,-130 1032,-78 16,-78"/>
</g>
<!-- AnimationFrameService -->
<g id="node1" class="node">
<title>AnimationFrameService</title>
<ellipse fill="#fdb462" stroke="#000000" cx="918" cy="-104" rx="105.9344" ry="18"/>
<text text-anchor="middle" x="918" y="-99.8" font-family="Times,serif" font-size="14.00" fill="#000000">AnimationFrameService</text>
</g>
<!-- UtilsModule -->
<g id="node6" class="node">
<title>UtilsModule</title>
<polygon fill="#8dd3c7" stroke="#000000" points="453.2731,-187 450.2731,-191 429.2731,-191 426.2731,-187 366.7269,-187 366.7269,-151 453.2731,-151 453.2731,-187"/>
<text text-anchor="middle" x="410" y="-164.8" font-family="Times,serif" font-size="14.00" fill="#000000">UtilsModule</text>
</g>
<!-- AnimationFrameService&#45;&gt;UtilsModule -->
<g id="edge1" class="edge">
<title>AnimationFrameService&#45;&gt;UtilsModule</title>
<path fill="none" stroke="#000000" d="M918,-122.2843C918,-143.3211 918,-175 918,-175 918,-175 463.3118,-175 463.3118,-175"/>
<polygon fill="#000000" stroke="#000000" points="463.3118,-171.5001 453.3118,-175 463.3118,-178.5001 463.3118,-171.5001"/>
</g>
<!-- AnimationFrameServiceSingleton -->
<g id="node2" class="node">
<title>AnimationFrameServiceSingleton</title>
<ellipse fill="#fdb462" stroke="#000000" cx="651" cy="-104" rx="142.9741" ry="18"/>
<text text-anchor="middle" x="651" y="-99.8" font-family="Times,serif" font-size="14.00" fill="#000000">AnimationFrameServiceSingleton</text>
</g>
<!-- AnimationFrameServiceSingleton&#45;&gt;UtilsModule -->
<g id="edge2" class="edge">
<title>AnimationFrameServiceSingleton&#45;&gt;UtilsModule</title>
<path fill="none" stroke="#000000" d="M651,-122.0225C651,-139.3734 651,-163 651,-163 651,-163 463.3643,-163 463.3643,-163"/>
<polygon fill="#000000" stroke="#000000" points="463.3643,-159.5001 453.3643,-163 463.3643,-166.5001 463.3643,-159.5001"/>
</g>
<!-- DocumentService -->
<g id="node3" class="node">
<title>DocumentService</title>
<ellipse fill="#fdb462" stroke="#000000" cx="410" cy="-104" rx="80.4364" ry="18"/>
<text text-anchor="middle" x="410" y="-99.8" font-family="Times,serif" font-size="14.00" fill="#000000">DocumentService</text>
</g>
<!-- DocumentService&#45;&gt;UtilsModule -->
<g id="edge3" class="edge">
<title>DocumentService&#45;&gt;UtilsModule</title>
<path fill="none" stroke="#000000" d="M410,-122.1061C410,-122.1061 410,-140.991 410,-140.991"/>
<polygon fill="#000000" stroke="#000000" points="406.5001,-140.9909 410,-150.991 413.5001,-140.991 406.5001,-140.9909"/>
</g>
<!-- ElementService -->
<g id="node4" class="node">
<title>ElementService</title>
<ellipse fill="#fdb462" stroke="#000000" cx="240" cy="-104" rx="72.3458" ry="18"/>
<text text-anchor="middle" x="240" y="-99.8" font-family="Times,serif" font-size="14.00" fill="#000000">ElementService</text>
</g>
<!-- ElementService&#45;&gt;UtilsModule -->
<g id="edge4" class="edge">
<title>ElementService&#45;&gt;UtilsModule</title>
<path fill="none" stroke="#000000" d="M240,-122.0225C240,-139.3734 240,-163 240,-163 240,-163 356.662,-163 356.662,-163"/>
<polygon fill="#000000" stroke="#000000" points="356.662,-166.5001 366.662,-163 356.6619,-159.5001 356.662,-166.5001"/>
</g>
<!-- EventService -->
<g id="node5" class="node">
<title>EventService</title>
<ellipse fill="#fdb462" stroke="#000000" cx="87" cy="-104" rx="62.5373" ry="18"/>
<text text-anchor="middle" x="87" y="-99.8" font-family="Times,serif" font-size="14.00" fill="#000000">EventService</text>
</g>
<!-- EventService&#45;&gt;UtilsModule -->
<g id="edge5" class="edge">
<title>EventService&#45;&gt;UtilsModule</title>
<path fill="none" stroke="#000000" d="M87,-122.2843C87,-143.3211 87,-175 87,-175 87,-175 356.4388,-175 356.4388,-175"/>
<polygon fill="#000000" stroke="#000000" points="356.4388,-178.5001 366.4388,-175 356.4387,-171.5001 356.4388,-178.5001"/>
</g>
</g>
</svg>
