<?xml version="1.0" encoding="UTF-8" standalone="no"?>
<!DOCTYPE svg PUBLIC "-//W3C//DTD SVG 1.1//EN"
 "http://www.w3.org/Graphics/SVG/1.1/DTD/svg11.dtd">
<!-- Generated by graphviz version 2.40.1 (20161225.0304)
 -->
<!-- Title: dependencies Pages: 1 -->
<svg width="878pt" height="211pt"
 viewBox="0.00 0.00 878.00 211.00" xmlns="http://www.w3.org/2000/svg" xmlns:xlink="http://www.w3.org/1999/xlink">
<g id="graph0" class="graph" transform="scale(1 1) rotate(0) translate(4 207)">
<title>dependencies</title>
<polygon fill="#ffffff" stroke="transparent" points="-4,4 -4,-207 874,-207 874,4 -4,4"/>
<text text-anchor="start" x="414.0091" y="-42.4" font-family="sans-serif" font-weight="bold" font-size="14.00" fill="#000000">Legend</text>
<polygon fill="#ffffb3" stroke="transparent" points="201,-10 201,-30 221,-30 221,-10 201,-10"/>
<text text-anchor="start" x="224.629" y="-15.4" font-family="sans-serif" font-size="14.00" fill="#000000"> &#160;Declarations</text>
<polygon fill="#8dd3c7" stroke="transparent" points="314,-10 314,-30 334,-30 334,-10 314,-10"/>
<text text-anchor="start" x="337.7251" y="-15.4" font-family="sans-serif" font-size="14.00" fill="#000000"> &#160;Module</text>
<polygon fill="#80b1d3" stroke="transparent" points="400,-10 400,-30 420,-30 420,-10 400,-10"/>
<text text-anchor="start" x="423.7812" y="-15.4" font-family="sans-serif" font-size="14.00" fill="#000000"> &#160;Bootstrap</text>
<polygon fill="#fdb462" stroke="transparent" points="497,-10 497,-30 517,-30 517,-10 497,-10"/>
<text text-anchor="start" x="520.6732" y="-15.4" font-family="sans-serif" font-size="14.00" fill="#000000"> &#160;Providers</text>
<polygon fill="#fb8072" stroke="transparent" points="593,-10 593,-30 613,-30 613,-10 593,-10"/>
<text text-anchor="start" x="616.7258" y="-15.4" font-family="sans-serif" font-size="14.00" fill="#000000"> &#160;Exports</text>
<g id="clust1" class="cluster">
<title>cluster_UtilsModule</title>
<polygon fill="none" stroke="#000000" stroke-dasharray="1,5" points="8,-70 8,-195 862,-195 862,-70 8,-70"/>
</g>
<g id="clust6" class="cluster">
<title>cluster_UtilsModule_providers</title>
<polygon fill="none" stroke="#000000" points="16,-78 16,-130 854,-130 854,-78 16,-78"/>
</g>
<!-- AnimationFrameService -->
<g id="node1" class="node">
<title>AnimationFrameService</title>
<ellipse fill="#fdb462" stroke="#000000" cx="740" cy="-104" rx="105.9344" ry="18"/>
<text text-anchor="middle" x="740" y="-99.8" font-family="Times,serif" font-size="14.00" fill="#000000">AnimationFrameService</text>
</g>
<!-- UtilsModule -->
<g id="node5" class="node">
<title>UtilsModule</title>
<polygon fill="#8dd3c7" stroke="#000000" points="399.2731,-187 396.2731,-191 375.2731,-191 372.2731,-187 312.7269,-187 312.7269,-151 399.2731,-151 399.2731,-187"/>
<text text-anchor="middle" x="356" y="-164.8" font-family="Times,serif" font-size="14.00" fill="#000000">UtilsModule</text>
</g>
<!-- AnimationFrameService&#45;&gt;UtilsModule -->
<g id="edge1" class="edge">
<title>AnimationFrameService&#45;&gt;UtilsModule</title>
<path fill="none" stroke="#000000" d="M740,-122.1061C740,-141.3391 740,-169 740,-169 740,-169 409.3032,-169 409.3032,-169"/>
<polygon fill="#000000" stroke="#000000" points="409.3033,-165.5001 399.3032,-169 409.3032,-172.5001 409.3033,-165.5001"/>
</g>
<!-- AnimationFrameServiceSingleton -->
<g id="node2" class="node">
<title>AnimationFrameServiceSingleton</title>
<ellipse fill="#fdb462" stroke="#000000" cx="473" cy="-104" rx="142.9741" ry="18"/>
<text text-anchor="middle" x="473" y="-99.8" font-family="Times,serif" font-size="14.00" fill="#000000">AnimationFrameServiceSingleton</text>
</g>
<!-- AnimationFrameServiceSingleton&#45;&gt;UtilsModule -->
<g id="edge2" class="edge">
<title>AnimationFrameServiceSingleton&#45;&gt;UtilsModule</title>
<path fill="none" stroke="#000000" d="M364.6997,-115.922C364.6997,-115.922 364.6997,-140.7669 364.6997,-140.7669"/>
<polygon fill="#000000" stroke="#000000" points="361.1998,-140.7669 364.6997,-150.7669 368.1998,-140.7669 361.1998,-140.7669"/>
</g>
<!-- ElementService -->
<g id="node3" class="node">
<title>ElementService</title>
<ellipse fill="#fdb462" stroke="#000000" cx="240" cy="-104" rx="72.3458" ry="18"/>
<text text-anchor="middle" x="240" y="-99.8" font-family="Times,serif" font-size="14.00" fill="#000000">ElementService</text>
</g>
<!-- ElementService&#45;&gt;UtilsModule -->
<g id="edge3" class="edge">
<title>ElementService&#45;&gt;UtilsModule</title>
<path fill="none" stroke="#000000" d="M312.3006,-104C317.828,-104 321.3133,-104 321.3133,-104 321.3133,-104 321.3133,-140.8939 321.3133,-140.8939"/>
<polygon fill="#000000" stroke="#000000" points="317.8134,-140.8938 321.3133,-150.8939 324.8134,-140.8939 317.8134,-140.8938"/>
</g>
<!-- EventService -->
<g id="node4" class="node">
<title>EventService</title>
<ellipse fill="#fdb462" stroke="#000000" cx="87" cy="-104" rx="62.5373" ry="18"/>
<text text-anchor="middle" x="87" y="-99.8" font-family="Times,serif" font-size="14.00" fill="#000000">EventService</text>
</g>
<!-- EventService&#45;&gt;UtilsModule -->
<g id="edge4" class="edge">
<title>EventService&#45;&gt;UtilsModule</title>
<path fill="none" stroke="#000000" d="M87,-122.1061C87,-141.3391 87,-169 87,-169 87,-169 302.4815,-169 302.4815,-169"/>
<polygon fill="#000000" stroke="#000000" points="302.4816,-172.5001 312.4815,-169 302.4815,-165.5001 302.4816,-172.5001"/>
</g>
</g>
</svg>
