<?xml version="1.0" encoding="UTF-8" standalone="no"?>
<!DOCTYPE svg PUBLIC "-//W3C//DTD SVG 1.1//EN"
 "http://www.w3.org/Graphics/SVG/1.1/DTD/svg11.dtd">
<!-- Generated by graphviz version 2.47.0 (20210316.0004)
 -->
<!-- Title: dependencies Pages: 1 -->
<svg width="1056pt" height="211pt"
 viewBox="0.00 0.00 1056.00 211.00" xmlns="http://www.w3.org/2000/svg" xmlns:xlink="http://www.w3.org/1999/xlink">
<g id="graph0" class="graph" transform="scale(1 1) rotate(0) translate(4 207)">
<title>dependencies</title>
<polygon fill="white" stroke="transparent" points="-4,4 -4,-207 1052,-207 1052,4 -4,4"/>
<text text-anchor="start" x="503.01" y="-42.4" font-family="Times-12" font-weight="bold" font-size="14.00">Legend</text>
<polygon fill="#ffffb3" stroke="transparent" points="290,-10 290,-30 310,-30 310,-10 290,-10"/>
<text text-anchor="start" x="313.63" y="-15.4" font-family="Times-12" font-size="14.00"> &#160;Declarations</text>
<polygon fill="#8dd3c7" stroke="transparent" points="403,-10 403,-30 423,-30 423,-10 403,-10"/>
<text text-anchor="start" x="426.73" y="-15.4" font-family="Times-12" font-size="14.00"> &#160;Module</text>
<polygon fill="#80b1d3" stroke="transparent" points="489,-10 489,-30 509,-30 509,-10 489,-10"/>
<text text-anchor="start" x="512.78" y="-15.4" font-family="Times-12" font-size="14.00"> &#160;Bootstrap</text>
<polygon fill="#fdb462" stroke="transparent" points="586,-10 586,-30 606,-30 606,-10 586,-10"/>
<text text-anchor="start" x="609.67" y="-15.4" font-family="Times-12" font-size="14.00"> &#160;Providers</text>
<polygon fill="#fb8072" stroke="transparent" points="682,-10 682,-30 702,-30 702,-10 682,-10"/>
<text text-anchor="start" x="705.73" y="-15.4" font-family="Times-12" font-size="14.00"> &#160;Exports</text>
<g id="clust1" class="cluster">
<title>cluster_UtilsModule</title>
<polygon fill="none" stroke="black" stroke-dasharray="1,5" points="8,-70 8,-195 1040,-195 1040,-70 8,-70"/>
</g>
<g id="clust6" class="cluster">
<title>cluster_UtilsModule_providers</title>
<polygon fill="none" stroke="black" points="16,-78 16,-130 1032,-130 1032,-78 16,-78"/>
</g>
<!-- AnimationFrameService -->
<g id="node1" class="node">
<title>AnimationFrameService</title>
<ellipse fill="#fdb462" stroke="black" cx="918" cy="-104" rx="105.93" ry="18"/>
<text text-anchor="middle" x="918" y="-99.8" font-family="Times,serif" font-size="14.00">AnimationFrameService</text>
</g>
<!-- UtilsModule -->
<g id="node6" class="node">
<title>UtilsModule</title>
<polygon fill="#8dd3c7" stroke="black" points="453.27,-187 450.27,-191 429.27,-191 426.27,-187 366.73,-187 366.73,-151 453.27,-151 453.27,-187"/>
<text text-anchor="middle" x="410" y="-164.8" font-family="Times,serif" font-size="14.00">UtilsModule</text>
</g>
<!-- AnimationFrameService&#45;&gt;UtilsModule -->
<g id="edge1" class="edge">
<title>AnimationFrameService&#45;&gt;UtilsModule</title>
<path fill="none" stroke="black" d="M918,-122.28C918,-143.32 918,-175 918,-175 918,-175 463.31,-175 463.31,-175"/>
<polygon fill="black" stroke="black" points="463.31,-171.5 453.31,-175 463.31,-178.5 463.31,-171.5"/>
</g>
<!-- AnimationFrameServiceSingleton -->
<g id="node2" class="node">
<title>AnimationFrameServiceSingleton</title>
<ellipse fill="#fdb462" stroke="black" cx="651" cy="-104" rx="142.97" ry="18"/>
<text text-anchor="middle" x="651" y="-99.8" font-family="Times,serif" font-size="14.00">AnimationFrameServiceSingleton</text>
</g>
<!-- AnimationFrameServiceSingleton&#45;&gt;UtilsModule -->
<g id="edge2" class="edge">
<title>AnimationFrameServiceSingleton&#45;&gt;UtilsModule</title>
<path fill="none" stroke="black" d="M651,-122.02C651,-139.37 651,-163 651,-163 651,-163 463.36,-163 463.36,-163"/>
<polygon fill="black" stroke="black" points="463.36,-159.5 453.36,-163 463.36,-166.5 463.36,-159.5"/>
</g>
<!-- DocumentService -->
<g id="node3" class="node">
<title>DocumentService</title>
<ellipse fill="#fdb462" stroke="black" cx="410" cy="-104" rx="80.44" ry="18"/>
<text text-anchor="middle" x="410" y="-99.8" font-family="Times,serif" font-size="14.00">DocumentService</text>
</g>
<!-- DocumentService&#45;&gt;UtilsModule -->
<g id="edge3" class="edge">
<title>DocumentService&#45;&gt;UtilsModule</title>
<path fill="none" stroke="black" d="M410,-122.11C410,-122.11 410,-140.99 410,-140.99"/>
<polygon fill="black" stroke="black" points="406.5,-140.99 410,-150.99 413.5,-140.99 406.5,-140.99"/>
</g>
<!-- ElementService -->
<g id="node4" class="node">
<title>ElementService</title>
<ellipse fill="#fdb462" stroke="black" cx="240" cy="-104" rx="72.35" ry="18"/>
<text text-anchor="middle" x="240" y="-99.8" font-family="Times,serif" font-size="14.00">ElementService</text>
</g>
<!-- ElementService&#45;&gt;UtilsModule -->
<g id="edge4" class="edge">
<title>ElementService&#45;&gt;UtilsModule</title>
<path fill="none" stroke="black" d="M240,-122.02C240,-139.37 240,-163 240,-163 240,-163 356.66,-163 356.66,-163"/>
<polygon fill="black" stroke="black" points="356.66,-166.5 366.66,-163 356.66,-159.5 356.66,-166.5"/>
</g>
<!-- EventService -->
<g id="node5" class="node">
<title>EventService</title>
<ellipse fill="#fdb462" stroke="black" cx="87" cy="-104" rx="62.54" ry="18"/>
<text text-anchor="middle" x="87" y="-99.8" font-family="Times,serif" font-size="14.00">EventService</text>
</g>
<!-- EventService&#45;&gt;UtilsModule -->
<g id="edge5" class="edge">
<title>EventService&#45;&gt;UtilsModule</title>
<path fill="none" stroke="black" d="M87,-122.28C87,-143.32 87,-175 87,-175 87,-175 356.44,-175 356.44,-175"/>
<polygon fill="black" stroke="black" points="356.44,-178.5 366.44,-175 356.44,-171.5 356.44,-178.5"/>
</g>
</g>
</svg>
