<?xml version="1.0" encoding="UTF-8" standalone="no"?>
<!DOCTYPE svg PUBLIC "-//W3C//DTD SVG 1.1//EN"
 "http://www.w3.org/Graphics/SVG/1.1/DTD/svg11.dtd">
<!-- Generated by graphviz version 2.40.1 (20161225.0304)
 -->
<!-- Title: dependencies Pages: 1 -->
<svg width="504pt" height="284pt"
 viewBox="0.00 0.00 504.00 284.00" xmlns="http://www.w3.org/2000/svg" xmlns:xlink="http://www.w3.org/1999/xlink">
<g id="graph0" class="graph" transform="scale(1 1) rotate(0) translate(4 280)">
<title>dependencies</title>
<polygon fill="#ffffff" stroke="transparent" points="-4,4 -4,-280 500,-280 500,4 -4,4"/>
<text text-anchor="start" x="227.0091" y="-42.4" font-family="sans-serif" font-weight="bold" font-size="14.00" fill="#000000">Legend</text>
<polygon fill="#ffffb3" stroke="transparent" points="14,-10 14,-30 34,-30 34,-10 14,-10"/>
<text text-anchor="start" x="37.629" y="-15.4" font-family="sans-serif" font-size="14.00" fill="#000000"> &#160;Declarations</text>
<polygon fill="#8dd3c7" stroke="transparent" points="127,-10 127,-30 147,-30 147,-10 127,-10"/>
<text text-anchor="start" x="150.7251" y="-15.4" font-family="sans-serif" font-size="14.00" fill="#000000"> &#160;Module</text>
<polygon fill="#80b1d3" stroke="transparent" points="213,-10 213,-30 233,-30 233,-10 213,-10"/>
<text text-anchor="start" x="236.7812" y="-15.4" font-family="sans-serif" font-size="14.00" fill="#000000"> &#160;Bootstrap</text>
<polygon fill="#fdb462" stroke="transparent" points="310,-10 310,-30 330,-30 330,-10 310,-10"/>
<text text-anchor="start" x="333.6732" y="-15.4" font-family="sans-serif" font-size="14.00" fill="#000000"> &#160;Providers</text>
<polygon fill="#fb8072" stroke="transparent" points="406,-10 406,-30 426,-30 426,-10 406,-10"/>
<text text-anchor="start" x="429.7258" y="-15.4" font-family="sans-serif" font-size="14.00" fill="#000000"> &#160;Exports</text>
<g id="clust1" class="cluster">
<title>cluster_TagModule</title>
<polygon fill="none" stroke="#000000" stroke-dasharray="1,5" points="160,-70 160,-268 336,-268 336,-70 160,-70"/>
</g>
<g id="clust2" class="cluster">
<title>cluster_TagModule_declarations</title>
<polygon fill="none" stroke="#000000" points="170,-78 170,-130 326,-130 326,-78 170,-78"/>
</g>
<g id="clust6" class="cluster">
<title>cluster_TagModule_exports</title>
<polygon fill="none" stroke="#000000" points="168,-208 168,-260 328,-260 328,-208 168,-208"/>
</g>
<!-- Tag -->
<g id="node1" class="node">
<title>Tag</title>
<polygon fill="#ffffb3" stroke="#000000" points="318,-122 264,-122 264,-86 318,-86 318,-122"/>
<text text-anchor="middle" x="291" y="-99.8" font-family="Times,serif" font-size="14.00" fill="#000000">Tag</text>
</g>
<!-- TagModule -->
<g id="node3" class="node">
<title>TagModule</title>
<polygon fill="#8dd3c7" stroke="#000000" points="253.8176,-187 250.8176,-191 229.8176,-191 226.8176,-187 172.1824,-187 172.1824,-151 253.8176,-151 253.8176,-187"/>
<text text-anchor="middle" x="213" y="-164.8" font-family="Times,serif" font-size="14.00" fill="#000000">TagModule</text>
</g>
<!-- Tag&#45;&gt;TagModule -->
<g id="edge1" class="edge">
<title>Tag&#45;&gt;TagModule</title>
<path fill="none" stroke="#000000" d="M263.7838,-104C256.1319,-104 249.8535,-104 249.8535,-104 249.8535,-104 249.8535,-140.8939 249.8535,-140.8939"/>
<polygon fill="#000000" stroke="#000000" points="246.3535,-140.8938 249.8535,-150.8939 253.3535,-140.8939 246.3535,-140.8938"/>
</g>
<!-- TagFilter -->
<g id="node2" class="node">
<title>TagFilter</title>
<polygon fill="#ffffb3" stroke="#000000" points="246.0969,-122 177.9031,-122 177.9031,-86 246.0969,-86 246.0969,-122"/>
<text text-anchor="middle" x="212" y="-99.8" font-family="Times,serif" font-size="14.00" fill="#000000">TagFilter</text>
</g>
<!-- TagFilter&#45;&gt;TagModule -->
<g id="edge2" class="edge">
<title>TagFilter&#45;&gt;TagModule</title>
<path fill="none" stroke="#000000" d="M212,-122.1061C212,-122.1061 212,-140.991 212,-140.991"/>
<polygon fill="#000000" stroke="#000000" points="208.5001,-140.9909 212,-150.991 215.5001,-140.991 208.5001,-140.9909"/>
</g>
<!-- Tag  -->
<g id="node4" class="node">
<title>Tag </title>
<polygon fill="#fb8072" stroke="#000000" points="320,-252 266,-252 266,-216 320,-216 320,-252"/>
<text text-anchor="middle" x="293" y="-229.8" font-family="Times,serif" font-size="14.00" fill="#000000">Tag </text>
</g>
<!-- TagModule&#45;&gt;Tag  -->
<g id="edge3" class="edge">
<title>TagModule&#45;&gt;Tag </title>
<path fill="none" stroke="#000000" stroke-dasharray="5,2" d="M253.8884,-169C273.1649,-169 292,-169 292,-169 292,-169 292,-205.8939 292,-205.8939"/>
<polygon fill="#000000" stroke="#000000" points="288.5001,-205.8938 292,-215.8939 295.5001,-205.8939 288.5001,-205.8938"/>
</g>
<!-- TagFilter  -->
<g id="node5" class="node">
<title>TagFilter </title>
<polygon fill="#fb8072" stroke="#000000" points="247.5979,-252 176.4021,-252 176.4021,-216 247.5979,-216 247.5979,-252"/>
<text text-anchor="middle" x="212" y="-229.8" font-family="Times,serif" font-size="14.00" fill="#000000">TagFilter </text>
</g>
<!-- TagModule&#45;&gt;TagFilter  -->
<g id="edge4" class="edge">
<title>TagModule&#45;&gt;TagFilter </title>
<path fill="none" stroke="#000000" stroke-dasharray="5,2" d="M212,-187.1061C212,-187.1061 212,-205.991 212,-205.991"/>
<polygon fill="#000000" stroke="#000000" points="208.5001,-205.9909 212,-215.991 215.5001,-205.991 208.5001,-205.9909"/>
</g>
</g>
</svg>
