<?xml version="1.0" encoding="UTF-8" standalone="no"?>
<!DOCTYPE svg PUBLIC "-//W3C//DTD SVG 1.1//EN"
 "http://www.w3.org/Graphics/SVG/1.1/DTD/svg11.dtd">
<!-- Generated by graphviz version 2.40.1 (20161225.0304)
 -->
<!-- Title: dependencies Pages: 1 -->
<svg width="839pt" height="284pt"
 viewBox="0.00 0.00 839.00 284.00" xmlns="http://www.w3.org/2000/svg" xmlns:xlink="http://www.w3.org/1999/xlink">
<g id="graph0" class="graph" transform="scale(1 1) rotate(0) translate(4 280)">
<title>dependencies</title>
<polygon fill="#ffffff" stroke="transparent" points="-4,4 -4,-280 835,-280 835,4 -4,4"/>
<text text-anchor="start" x="394.5091" y="-42.4" font-family="sans-serif" font-weight="bold" font-size="14.00" fill="#000000">Legend</text>
<polygon fill="#ffffb3" stroke="transparent" points="181.5,-10 181.5,-30 201.5,-30 201.5,-10 181.5,-10"/>
<text text-anchor="start" x="205.129" y="-15.4" font-family="sans-serif" font-size="14.00" fill="#000000"> &#160;Declarations</text>
<polygon fill="#8dd3c7" stroke="transparent" points="294.5,-10 294.5,-30 314.5,-30 314.5,-10 294.5,-10"/>
<text text-anchor="start" x="318.2251" y="-15.4" font-family="sans-serif" font-size="14.00" fill="#000000"> &#160;Module</text>
<polygon fill="#80b1d3" stroke="transparent" points="380.5,-10 380.5,-30 400.5,-30 400.5,-10 380.5,-10"/>
<text text-anchor="start" x="404.2812" y="-15.4" font-family="sans-serif" font-size="14.00" fill="#000000"> &#160;Bootstrap</text>
<polygon fill="#fdb462" stroke="transparent" points="477.5,-10 477.5,-30 497.5,-30 497.5,-10 477.5,-10"/>
<text text-anchor="start" x="501.1732" y="-15.4" font-family="sans-serif" font-size="14.00" fill="#000000"> &#160;Providers</text>
<polygon fill="#fb8072" stroke="transparent" points="573.5,-10 573.5,-30 593.5,-30 593.5,-10 573.5,-10"/>
<text text-anchor="start" x="597.2258" y="-15.4" font-family="sans-serif" font-size="14.00" fill="#000000"> &#160;Exports</text>
<g id="clust1" class="cluster">
<title>cluster_TableModule</title>
<polygon fill="none" stroke="#000000" stroke-dasharray="1,5" points="8,-70 8,-268 823,-268 823,-70 8,-70"/>
</g>
<g id="clust2" class="cluster">
<title>cluster_TableModule_declarations</title>
<polygon fill="none" stroke="#000000" points="498,-78 498,-130 815,-130 815,-78 498,-78"/>
</g>
<g id="clust6" class="cluster">
<title>cluster_TableModule_imports</title>
<polygon fill="none" stroke="#000000" points="16,-78 16,-130 490,-130 490,-78 16,-78"/>
</g>
<g id="clust7" class="cluster">
<title>cluster_TableModule_exports</title>
<polygon fill="none" stroke="#000000" points="238,-208 238,-260 562,-260 562,-208 238,-208"/>
</g>
<!-- Table -->
<g id="node1" class="node">
<title>Table</title>
<polygon fill="#ffffb3" stroke="#000000" points="807,-122 753,-122 753,-86 807,-86 807,-122"/>
<text text-anchor="middle" x="780" y="-99.8" font-family="Times,serif" font-size="14.00" fill="#000000">Table</text>
</g>
<!-- TableModule -->
<g id="node4" class="node">
<title>TableModule</title>
<polygon fill="#8dd3c7" stroke="#000000" points="474.9232,-187 471.9232,-191 450.9232,-191 447.9232,-187 383.0768,-187 383.0768,-151 474.9232,-151 474.9232,-187"/>
<text text-anchor="middle" x="429" y="-164.8" font-family="Times,serif" font-size="14.00" fill="#000000">TableModule</text>
</g>
<!-- Table&#45;&gt;TableModule -->
<g id="edge1" class="edge">
<title>Table&#45;&gt;TableModule</title>
<path fill="none" stroke="#000000" d="M780,-122.1289C780,-142.5724 780,-173 780,-173 780,-173 484.8871,-173 484.8871,-173"/>
<polygon fill="#000000" stroke="#000000" points="484.8872,-169.5001 474.8871,-173 484.8871,-176.5001 484.8872,-169.5001"/>
</g>
<!-- TableGotoPage -->
<g id="node2" class="node">
<title>TableGotoPage</title>
<polygon fill="#ffffb3" stroke="#000000" points="734.5814,-122 631.4186,-122 631.4186,-86 734.5814,-86 734.5814,-122"/>
<text text-anchor="middle" x="683" y="-99.8" font-family="Times,serif" font-size="14.00" fill="#000000">TableGotoPage</text>
</g>
<!-- TableGotoPage&#45;&gt;TableModule -->
<g id="edge2" class="edge">
<title>TableGotoPage&#45;&gt;TableModule</title>
<path fill="none" stroke="#000000" d="M683,-122.2667C683,-140.5552 683,-166 683,-166 683,-166 484.9975,-166 484.9975,-166"/>
<polygon fill="#000000" stroke="#000000" points="484.9975,-162.5001 474.9975,-166 484.9974,-169.5001 484.9975,-162.5001"/>
</g>
<!-- TablePagination -->
<g id="node3" class="node">
<title>TablePagination</title>
<polygon fill="#ffffb3" stroke="#000000" points="613.7563,-122 506.2437,-122 506.2437,-86 613.7563,-86 613.7563,-122"/>
<text text-anchor="middle" x="560" y="-99.8" font-family="Times,serif" font-size="14.00" fill="#000000">TablePagination</text>
</g>
<!-- TablePagination&#45;&gt;TableModule -->
<g id="edge3" class="edge">
<title>TablePagination&#45;&gt;TableModule</title>
<path fill="none" stroke="#000000" d="M522.0813,-122.0091C522.0813,-138.0494 522.0813,-159 522.0813,-159 522.0813,-159 484.7226,-159 484.7226,-159"/>
<polygon fill="#000000" stroke="#000000" points="484.7226,-155.5001 474.7226,-159 484.7226,-162.5001 484.7226,-155.5001"/>
</g>
<!-- Table  -->
<g id="node9" class="node">
<title>Table </title>
<polygon fill="#fb8072" stroke="#000000" points="554,-252 500,-252 500,-216 554,-216 554,-252"/>
<text text-anchor="middle" x="527" y="-229.8" font-family="Times,serif" font-size="14.00" fill="#000000">Table </text>
</g>
<!-- TableModule&#45;&gt;Table  -->
<g id="edge8" class="edge">
<title>TableModule&#45;&gt;Table </title>
<path fill="none" stroke="#000000" stroke-dasharray="5,2" d="M474.927,-180C504.7271,-180 538.0407,-180 538.0407,-180 538.0407,-180 538.0407,-205.7181 538.0407,-205.7181"/>
<polygon fill="#000000" stroke="#000000" points="534.5408,-205.718 538.0407,-215.7181 541.5408,-205.7181 534.5408,-205.718"/>
</g>
<!-- TableGotoPage  -->
<g id="node10" class="node">
<title>TableGotoPage </title>
<polygon fill="#fb8072" stroke="#000000" points="482.0822,-252 375.9178,-252 375.9178,-216 482.0822,-216 482.0822,-252"/>
<text text-anchor="middle" x="429" y="-229.8" font-family="Times,serif" font-size="14.00" fill="#000000">TableGotoPage </text>
</g>
<!-- TableModule&#45;&gt;TableGotoPage  -->
<g id="edge9" class="edge">
<title>TableModule&#45;&gt;TableGotoPage </title>
<path fill="none" stroke="#000000" stroke-dasharray="5,2" d="M429,-187.1061C429,-187.1061 429,-205.991 429,-205.991"/>
<polygon fill="#000000" stroke="#000000" points="425.5001,-205.9909 429,-215.991 432.5001,-205.991 425.5001,-205.9909"/>
</g>
<!-- TablePagination  -->
<g id="node11" class="node">
<title>TablePagination </title>
<polygon fill="#fb8072" stroke="#000000" points="357.7563,-252 246.2437,-252 246.2437,-216 357.7563,-216 357.7563,-252"/>
<text text-anchor="middle" x="302" y="-229.8" font-family="Times,serif" font-size="14.00" fill="#000000">TablePagination </text>
</g>
<!-- TableModule&#45;&gt;TablePagination  -->
<g id="edge10" class="edge">
<title>TableModule&#45;&gt;TablePagination </title>
<path fill="none" stroke="#000000" stroke-dasharray="5,2" d="M383.0542,-180C346.6005,-180 301.7343,-180 301.7343,-180 301.7343,-180 301.7343,-205.7181 301.7343,-205.7181"/>
<polygon fill="#000000" stroke="#000000" points="298.2344,-205.718 301.7343,-215.7181 305.2344,-205.7181 298.2344,-205.718"/>
</g>
<!-- NFormsModule -->
<g id="node5" class="node">
<title>NFormsModule</title>
<polygon fill="#8dd3c7" stroke="#000000" points="481.9357,-122 478.9357,-126 457.9357,-126 454.9357,-122 376.0643,-122 376.0643,-86 481.9357,-86 481.9357,-122"/>
<text text-anchor="middle" x="429" y="-99.8" font-family="Times,serif" font-size="14.00" fill="#000000">NFormsModule</text>
</g>
<!-- NFormsModule&#45;&gt;TableModule -->
<g id="edge4" class="edge">
<title>NFormsModule&#45;&gt;TableModule</title>
<path fill="none" stroke="#000000" d="M429,-122.1061C429,-122.1061 429,-140.991 429,-140.991"/>
<polygon fill="#000000" stroke="#000000" points="425.5001,-140.9909 429,-150.991 432.5001,-140.991 425.5001,-140.9909"/>
</g>
<!-- IconModule -->
<g id="node6" class="node">
<title>IconModule</title>
<polygon fill="#8dd3c7" stroke="#000000" points="358.4261,-122 355.4261,-126 334.4261,-126 331.4261,-122 273.5739,-122 273.5739,-86 358.4261,-86 358.4261,-122"/>
<text text-anchor="middle" x="316" y="-99.8" font-family="Times,serif" font-size="14.00" fill="#000000">IconModule</text>
</g>
<!-- IconModule&#45;&gt;TableModule -->
<g id="edge5" class="edge">
<title>IconModule&#45;&gt;TableModule</title>
<path fill="none" stroke="#000000" d="M329.6812,-122.0091C329.6812,-138.0494 329.6812,-159 329.6812,-159 329.6812,-159 373.12,-159 373.12,-159"/>
<polygon fill="#000000" stroke="#000000" points="373.12,-162.5001 383.12,-159 373.1199,-155.5001 373.12,-162.5001"/>
</g>
<!-- DialogModule -->
<g id="node7" class="node">
<title>DialogModule</title>
<polygon fill="#8dd3c7" stroke="#000000" points="255.6528,-122 252.6528,-126 231.6528,-126 228.6528,-122 158.3472,-122 158.3472,-86 255.6528,-86 255.6528,-122"/>
<text text-anchor="middle" x="207" y="-99.8" font-family="Times,serif" font-size="14.00" fill="#000000">DialogModule</text>
</g>
<!-- DialogModule&#45;&gt;TableModule -->
<g id="edge6" class="edge">
<title>DialogModule&#45;&gt;TableModule</title>
<path fill="none" stroke="#000000" d="M251.0991,-122.2667C251.0991,-140.5552 251.0991,-166 251.0991,-166 251.0991,-166 373.1861,-166 373.1861,-166"/>
<polygon fill="#000000" stroke="#000000" points="373.1861,-169.5001 383.1861,-166 373.186,-162.5001 373.1861,-169.5001"/>
</g>
<!-- StaticIconModule -->
<g id="node8" class="node">
<title>StaticIconModule</title>
<polygon fill="#8dd3c7" stroke="#000000" points="140.309,-122 137.309,-126 116.309,-126 113.309,-122 23.691,-122 23.691,-86 140.309,-86 140.309,-122"/>
<text text-anchor="middle" x="82" y="-99.8" font-family="Times,serif" font-size="14.00" fill="#000000">StaticIconModule</text>
</g>
<!-- StaticIconModule&#45;&gt;TableModule -->
<g id="edge7" class="edge">
<title>StaticIconModule&#45;&gt;TableModule</title>
<path fill="none" stroke="#000000" d="M82,-122.1289C82,-142.5724 82,-173 82,-173 82,-173 373.279,-173 373.279,-173"/>
<polygon fill="#000000" stroke="#000000" points="373.279,-176.5001 383.279,-173 373.279,-169.5001 373.279,-176.5001"/>
</g>
</g>
</svg>
