<?xml version="1.0" encoding="UTF-8" standalone="no"?>
<!DOCTYPE svg PUBLIC "-//W3C//DTD SVG 1.1//EN"
 "http://www.w3.org/Graphics/SVG/1.1/DTD/svg11.dtd">
<!-- Generated by graphviz version 2.40.1 (20161225.0304)
 -->
<!-- Title: dependencies Pages: 1 -->
<svg width="592pt" height="284pt"
 viewBox="0.00 0.00 592.00 284.00" xmlns="http://www.w3.org/2000/svg" xmlns:xlink="http://www.w3.org/1999/xlink">
<g id="graph0" class="graph" transform="scale(1 1) rotate(0) translate(4 280)">
<title>dependencies</title>
<polygon fill="#ffffff" stroke="transparent" points="-4,4 -4,-280 588,-280 588,4 -4,4"/>
<text text-anchor="start" x="271.0091" y="-42.4" font-family="sans-serif" font-weight="bold" font-size="14.00" fill="#000000">Legend</text>
<polygon fill="#ffffb3" stroke="transparent" points="58,-10 58,-30 78,-30 78,-10 58,-10"/>
<text text-anchor="start" x="81.629" y="-15.4" font-family="sans-serif" font-size="14.00" fill="#000000"> &#160;Declarations</text>
<polygon fill="#8dd3c7" stroke="transparent" points="171,-10 171,-30 191,-30 191,-10 171,-10"/>
<text text-anchor="start" x="194.7251" y="-15.4" font-family="sans-serif" font-size="14.00" fill="#000000"> &#160;Module</text>
<polygon fill="#80b1d3" stroke="transparent" points="257,-10 257,-30 277,-30 277,-10 257,-10"/>
<text text-anchor="start" x="280.7812" y="-15.4" font-family="sans-serif" font-size="14.00" fill="#000000"> &#160;Bootstrap</text>
<polygon fill="#fdb462" stroke="transparent" points="354,-10 354,-30 374,-30 374,-10 354,-10"/>
<text text-anchor="start" x="377.6732" y="-15.4" font-family="sans-serif" font-size="14.00" fill="#000000"> &#160;Providers</text>
<polygon fill="#fb8072" stroke="transparent" points="450,-10 450,-30 470,-30 470,-10 450,-10"/>
<text text-anchor="start" x="473.7258" y="-15.4" font-family="sans-serif" font-size="14.00" fill="#000000"> &#160;Exports</text>
<g id="clust1" class="cluster">
<title>cluster_TableModule</title>
<polygon fill="none" stroke="#000000" stroke-dasharray="1,5" points="8,-70 8,-268 576,-268 576,-70 8,-70"/>
</g>
<g id="clust2" class="cluster">
<title>cluster_TableModule_declarations</title>
<polygon fill="none" stroke="#000000" points="498,-78 498,-130 568,-130 568,-78 498,-78"/>
</g>
<g id="clust4" class="cluster">
<title>cluster_TableModule_imports</title>
<polygon fill="none" stroke="#000000" points="16,-78 16,-130 490,-130 490,-78 16,-78"/>
</g>
<g id="clust5" class="cluster">
<title>cluster_TableModule_exports</title>
<polygon fill="none" stroke="#000000" points="281,-208 281,-260 351,-260 351,-208 281,-208"/>
</g>
<!-- Table -->
<g id="node1" class="node">
<title>Table</title>
<polygon fill="#ffffb3" stroke="#000000" points="560,-122 506,-122 506,-86 560,-86 560,-122"/>
<text text-anchor="middle" x="533" y="-99.8" font-family="Times,serif" font-size="14.00" fill="#000000">Table</text>
</g>
<!-- TableModule -->
<g id="node2" class="node">
<title>TableModule</title>
<polygon fill="#8dd3c7" stroke="#000000" points="361.9232,-187 358.9232,-191 337.9232,-191 334.9232,-187 270.0768,-187 270.0768,-151 361.9232,-151 361.9232,-187"/>
<text text-anchor="middle" x="316" y="-164.8" font-family="Times,serif" font-size="14.00" fill="#000000">TableModule</text>
</g>
<!-- Table&#45;&gt;TableModule -->
<g id="edge1" class="edge">
<title>Table&#45;&gt;TableModule</title>
<path fill="none" stroke="#000000" d="M533,-122.2843C533,-143.3211 533,-175 533,-175 533,-175 371.755,-175 371.755,-175"/>
<polygon fill="#000000" stroke="#000000" points="371.755,-171.5001 361.755,-175 371.7549,-178.5001 371.755,-171.5001"/>
</g>
<!-- Table  -->
<g id="node7" class="node">
<title>Table </title>
<polygon fill="#fb8072" stroke="#000000" points="343,-252 289,-252 289,-216 343,-216 343,-252"/>
<text text-anchor="middle" x="316" y="-229.8" font-family="Times,serif" font-size="14.00" fill="#000000">Table </text>
</g>
<!-- TableModule&#45;&gt;Table  -->
<g id="edge6" class="edge">
<title>TableModule&#45;&gt;Table </title>
<path fill="none" stroke="#000000" stroke-dasharray="5,2" d="M316,-187.1061C316,-187.1061 316,-205.991 316,-205.991"/>
<polygon fill="#000000" stroke="#000000" points="312.5001,-205.9909 316,-215.991 319.5001,-205.991 312.5001,-205.9909"/>
</g>
<!-- NFormsModule -->
<g id="node3" class="node">
<title>NFormsModule</title>
<polygon fill="#8dd3c7" stroke="#000000" points="481.9357,-122 478.9357,-126 457.9357,-126 454.9357,-122 376.0643,-122 376.0643,-86 481.9357,-86 481.9357,-122"/>
<text text-anchor="middle" x="429" y="-99.8" font-family="Times,serif" font-size="14.00" fill="#000000">NFormsModule</text>
</g>
<!-- NFormsModule&#45;&gt;TableModule -->
<g id="edge2" class="edge">
<title>NFormsModule&#45;&gt;TableModule</title>
<path fill="none" stroke="#000000" d="M429,-122.0225C429,-139.3734 429,-163 429,-163 429,-163 371.9614,-163 371.9614,-163"/>
<polygon fill="#000000" stroke="#000000" points="371.9615,-159.5001 361.9614,-163 371.9614,-166.5001 371.9615,-159.5001"/>
</g>
<!-- IconModule -->
<g id="node4" class="node">
<title>IconModule</title>
<polygon fill="#8dd3c7" stroke="#000000" points="358.4261,-122 355.4261,-126 334.4261,-126 331.4261,-122 273.5739,-122 273.5739,-86 358.4261,-86 358.4261,-122"/>
<text text-anchor="middle" x="316" y="-99.8" font-family="Times,serif" font-size="14.00" fill="#000000">IconModule</text>
</g>
<!-- IconModule&#45;&gt;TableModule -->
<g id="edge3" class="edge">
<title>IconModule&#45;&gt;TableModule</title>
<path fill="none" stroke="#000000" d="M316,-122.1061C316,-122.1061 316,-140.991 316,-140.991"/>
<polygon fill="#000000" stroke="#000000" points="312.5001,-140.9909 316,-150.991 319.5001,-140.991 312.5001,-140.9909"/>
</g>
<!-- DialogModule -->
<g id="node5" class="node">
<title>DialogModule</title>
<polygon fill="#8dd3c7" stroke="#000000" points="255.6528,-122 252.6528,-126 231.6528,-126 228.6528,-122 158.3472,-122 158.3472,-86 255.6528,-86 255.6528,-122"/>
<text text-anchor="middle" x="207" y="-99.8" font-family="Times,serif" font-size="14.00" fill="#000000">DialogModule</text>
</g>
<!-- DialogModule&#45;&gt;TableModule -->
<g id="edge4" class="edge">
<title>DialogModule&#45;&gt;TableModule</title>
<path fill="none" stroke="#000000" d="M207,-122.0225C207,-139.3734 207,-163 207,-163 207,-163 260.0901,-163 260.0901,-163"/>
<polygon fill="#000000" stroke="#000000" points="260.0901,-166.5001 270.0901,-163 260.0901,-159.5001 260.0901,-166.5001"/>
</g>
<!-- StaticIconModule -->
<g id="node6" class="node">
<title>StaticIconModule</title>
<polygon fill="#8dd3c7" stroke="#000000" points="140.309,-122 137.309,-126 116.309,-126 113.309,-122 23.691,-122 23.691,-86 140.309,-86 140.309,-122"/>
<text text-anchor="middle" x="82" y="-99.8" font-family="Times,serif" font-size="14.00" fill="#000000">StaticIconModule</text>
</g>
<!-- StaticIconModule&#45;&gt;TableModule -->
<g id="edge5" class="edge">
<title>StaticIconModule&#45;&gt;TableModule</title>
<path fill="none" stroke="#000000" d="M82,-122.2843C82,-143.3211 82,-175 82,-175 82,-175 260.0483,-175 260.0483,-175"/>
<polygon fill="#000000" stroke="#000000" points="260.0484,-178.5001 270.0483,-175 260.0483,-171.5001 260.0484,-178.5001"/>
</g>
</g>
</svg>
