<?xml version="1.0" encoding="UTF-8" standalone="no"?>
<!DOCTYPE svg PUBLIC "-//W3C//DTD SVG 1.1//EN"
 "http://www.w3.org/Graphics/SVG/1.1/DTD/svg11.dtd">
<!-- Generated by graphviz version 2.40.1 (20161225.0304)
 -->
<!-- Title: dependencies Pages: 1 -->
<svg width="734pt" height="396pt"
 viewBox="0.00 0.00 734.00 395.59" xmlns="http://www.w3.org/2000/svg" xmlns:xlink="http://www.w3.org/1999/xlink">
<g id="graph0" class="graph" transform="scale(1 1) rotate(0) translate(4 391.5901)">
<title>dependencies</title>
<polygon fill="#ffffff" stroke="transparent" points="-4,4 -4,-391.5901 730,-391.5901 730,4 -4,4"/>
<text text-anchor="start" x="342.0091" y="-42.4" font-family="sans-serif" font-weight="bold" font-size="14.00" fill="#000000">Legend</text>
<polygon fill="#ffffb3" stroke="transparent" points="129,-10 129,-30 149,-30 149,-10 129,-10"/>
<text text-anchor="start" x="152.629" y="-15.4" font-family="sans-serif" font-size="14.00" fill="#000000"> &#160;Declarations</text>
<polygon fill="#8dd3c7" stroke="transparent" points="242,-10 242,-30 262,-30 262,-10 242,-10"/>
<text text-anchor="start" x="265.7251" y="-15.4" font-family="sans-serif" font-size="14.00" fill="#000000"> &#160;Module</text>
<polygon fill="#80b1d3" stroke="transparent" points="328,-10 328,-30 348,-30 348,-10 328,-10"/>
<text text-anchor="start" x="351.7812" y="-15.4" font-family="sans-serif" font-size="14.00" fill="#000000"> &#160;Bootstrap</text>
<polygon fill="#fdb462" stroke="transparent" points="425,-10 425,-30 445,-30 445,-10 425,-10"/>
<text text-anchor="start" x="448.6732" y="-15.4" font-family="sans-serif" font-size="14.00" fill="#000000"> &#160;Providers</text>
<polygon fill="#fb8072" stroke="transparent" points="521,-10 521,-30 541,-30 541,-10 521,-10"/>
<text text-anchor="start" x="544.7258" y="-15.4" font-family="sans-serif" font-size="14.00" fill="#000000"> &#160;Exports</text>
<g id="clust1" class="cluster">
<title>cluster_TimePickerSelectModule</title>
<polygon fill="none" stroke="#000000" stroke-dasharray="1,5" points="8,-70 8,-379.5901 718,-379.5901 718,-70 8,-70"/>
</g>
<g id="clust2" class="cluster">
<title>cluster_TimePickerSelectModule_declarations</title>
<polygon fill="none" stroke="#000000" points="297,-189.5901 297,-241.5901 429,-241.5901 429,-189.5901 297,-189.5901"/>
</g>
<g id="clust3" class="cluster">
<title>cluster_TimePickerSelectModule_TimePickerSelect_providers</title>
<polygon fill="none" stroke="#000000" points="16,-78 16,-176.5901 710,-176.5901 710,-78 16,-78"/>
</g>
<g id="clust4" class="cluster">
<title>cluster_TimePickerSelectModule_imports</title>
<polygon fill="none" stroke="#000000" points="179,-189.5901 179,-241.5901 289,-241.5901 289,-189.5901 179,-189.5901"/>
</g>
<g id="clust5" class="cluster">
<title>cluster_TimePickerSelectModule_exports</title>
<polygon fill="none" stroke="#000000" points="230,-319.5901 230,-371.5901 366,-371.5901 366,-319.5901 230,-319.5901"/>
</g>
<!-- TimePickerSelect -->
<g id="node1" class="node">
<title>TimePickerSelect</title>
<polygon fill="#ffffb3" stroke="#000000" points="420.52,-233.5901 305.48,-233.5901 305.48,-197.5901 420.52,-197.5901 420.52,-233.5901"/>
<text text-anchor="middle" x="363" y="-211.3901" font-family="Times,serif" font-size="14.00" fill="#000000">TimePickerSelect</text>
</g>
<!-- TimePickerSelectModule -->
<g id="node2" class="node">
<title>TimePickerSelectModule</title>
<polygon fill="#8dd3c7" stroke="#000000" points="377.5688,-298.5901 374.5688,-302.5901 353.5688,-302.5901 350.5688,-298.5901 218.4312,-298.5901 218.4312,-262.5901 377.5688,-262.5901 377.5688,-298.5901"/>
<text text-anchor="middle" x="298" y="-276.3901" font-family="Times,serif" font-size="14.00" fill="#000000">TimePickerSelectModule</text>
</g>
<!-- TimePickerSelect&#45;&gt;TimePickerSelectModule -->
<g id="edge1" class="edge">
<title>TimePickerSelect&#45;&gt;TimePickerSelectModule</title>
<path fill="none" stroke="#000000" d="M341.3875,-233.6962C341.3875,-233.6962 341.3875,-252.581 341.3875,-252.581"/>
<polygon fill="#000000" stroke="#000000" points="337.8875,-252.581 341.3875,-262.581 344.8875,-252.5811 337.8875,-252.581"/>
</g>
<!-- TimePickerSelect  -->
<g id="node5" class="node">
<title>TimePickerSelect </title>
<polygon fill="#fb8072" stroke="#000000" points="357.519,-363.5901 238.481,-363.5901 238.481,-327.5901 357.519,-327.5901 357.519,-363.5901"/>
<text text-anchor="middle" x="298" y="-341.3901" font-family="Times,serif" font-size="14.00" fill="#000000">TimePickerSelect </text>
</g>
<!-- TimePickerSelectModule&#45;&gt;TimePickerSelect  -->
<g id="edge4" class="edge">
<title>TimePickerSelectModule&#45;&gt;TimePickerSelect </title>
<path fill="none" stroke="#000000" stroke-dasharray="5,2" d="M298,-298.6962C298,-298.6962 298,-317.581 298,-317.581"/>
<polygon fill="#000000" stroke="#000000" points="294.5001,-317.581 298,-327.581 301.5001,-317.5811 294.5001,-317.581"/>
</g>
<!-- {
 &#160;&#160;&#160;provide: NG_VALUE_ACCESSOR, useExisting: TimePickerSelect, multi: true
} -->
<g id="node3" class="node">
<title>{
 &#160;&#160;&#160;provide: NG_VALUE_ACCESSOR, useExisting: TimePickerSelect, multi: true
}</title>
<ellipse fill="#fdb462" stroke="#000000" cx="363" cy="-127.295" rx="338.5386" ry="41.0911"/>
<text text-anchor="middle" x="363" y="-139.895" font-family="Times,serif" font-size="14.00" fill="#000000">{</text>
<text text-anchor="middle" x="363" y="-123.095" font-family="Times,serif" font-size="14.00" fill="#000000"> &#160;&#160;&#160;provide: NG_VALUE_ACCESSOR, useExisting: TimePickerSelect, multi: true</text>
<text text-anchor="middle" x="363" y="-106.295" font-family="Times,serif" font-size="14.00" fill="#000000">}</text>
</g>
<!-- {
 &#160;&#160;&#160;provide: NG_VALUE_ACCESSOR, useExisting: TimePickerSelect, multi: true
}&#45;&gt;TimePickerSelect -->
<g id="edge2" class="edge">
<title>{
 &#160;&#160;&#160;provide: NG_VALUE_ACCESSOR, useExisting: TimePickerSelect, multi: true
}&#45;&gt;TimePickerSelect</title>
<path fill="none" stroke="#000000" d="M363,-168.5989C363,-168.5989 363,-187.2551 363,-187.2551"/>
<polygon fill="#000000" stroke="#000000" points="359.5001,-187.255 363,-197.2551 366.5001,-187.2551 359.5001,-187.255"/>
</g>
<!-- SelectModule -->
<g id="node4" class="node">
<title>SelectModule</title>
<polygon fill="#8dd3c7" stroke="#000000" points="280.7577,-233.5901 277.7577,-237.5901 256.7577,-237.5901 253.7577,-233.5901 187.2423,-233.5901 187.2423,-197.5901 280.7577,-197.5901 280.7577,-233.5901"/>
<text text-anchor="middle" x="234" y="-211.3901" font-family="Times,serif" font-size="14.00" fill="#000000">SelectModule</text>
</g>
<!-- SelectModule&#45;&gt;TimePickerSelectModule -->
<g id="edge3" class="edge">
<title>SelectModule&#45;&gt;TimePickerSelectModule</title>
<path fill="none" stroke="#000000" d="M249.6722,-233.6962C249.6722,-233.6962 249.6722,-252.581 249.6722,-252.581"/>
<polygon fill="#000000" stroke="#000000" points="246.1722,-252.581 249.6722,-262.581 253.1722,-252.5811 246.1722,-252.581"/>
</g>
</g>
</svg>
