<?xml version="1.0" encoding="UTF-8" standalone="no"?>
<!DOCTYPE svg PUBLIC "-//W3C//DTD SVG 1.1//EN"
 "http://www.w3.org/Graphics/SVG/1.1/DTD/svg11.dtd">
<!-- Generated by graphviz version 2.47.0 (20210316.0004)
 -->
<!-- Title: dependencies Pages: 1 -->
<svg width="504pt" height="284pt"
 viewBox="0.00 0.00 504.00 284.00" xmlns="http://www.w3.org/2000/svg" xmlns:xlink="http://www.w3.org/1999/xlink">
<g id="graph0" class="graph" transform="scale(1 1) rotate(0) translate(4 280)">
<title>dependencies</title>
<polygon fill="white" stroke="transparent" points="-4,4 -4,-280 500,-280 500,4 -4,4"/>
<text text-anchor="start" x="227.01" y="-42.4" font-family="Times-12" font-weight="bold" font-size="14.00">Legend</text>
<polygon fill="#ffffb3" stroke="transparent" points="14,-10 14,-30 34,-30 34,-10 14,-10"/>
<text text-anchor="start" x="37.63" y="-15.4" font-family="Times-12" font-size="14.00"> &#160;Declarations</text>
<polygon fill="#8dd3c7" stroke="transparent" points="127,-10 127,-30 147,-30 147,-10 127,-10"/>
<text text-anchor="start" x="150.73" y="-15.4" font-family="Times-12" font-size="14.00"> &#160;Module</text>
<polygon fill="#80b1d3" stroke="transparent" points="213,-10 213,-30 233,-30 233,-10 213,-10"/>
<text text-anchor="start" x="236.78" y="-15.4" font-family="Times-12" font-size="14.00"> &#160;Bootstrap</text>
<polygon fill="#fdb462" stroke="transparent" points="310,-10 310,-30 330,-30 330,-10 310,-10"/>
<text text-anchor="start" x="333.67" y="-15.4" font-family="Times-12" font-size="14.00"> &#160;Providers</text>
<polygon fill="#fb8072" stroke="transparent" points="406,-10 406,-30 426,-30 426,-10 406,-10"/>
<text text-anchor="start" x="429.73" y="-15.4" font-family="Times-12" font-size="14.00"> &#160;Exports</text>
<g id="clust1" class="cluster">
<title>cluster_NumberModule</title>
<polygon fill="none" stroke="black" stroke-dasharray="1,5" points="95,-70 95,-268 401,-268 401,-70 95,-70"/>
</g>
<g id="clust5" class="cluster">
<title>cluster_NumberModule_exports</title>
<polygon fill="none" stroke="black" points="215,-208 215,-260 297,-260 297,-208 215,-208"/>
</g>
<g id="clust2" class="cluster">
<title>cluster_NumberModule_declarations</title>
<polygon fill="none" stroke="black" points="315,-78 315,-130 393,-130 393,-78 315,-78"/>
</g>
<g id="clust4" class="cluster">
<title>cluster_NumberModule_imports</title>
<polygon fill="none" stroke="black" points="103,-78 103,-130 307,-130 307,-78 103,-78"/>
</g>
<!-- Number -->
<g id="node1" class="node">
<title>Number</title>
<polygon fill="#ffffb3" stroke="black" points="384.87,-122 323.13,-122 323.13,-86 384.87,-86 384.87,-122"/>
<text text-anchor="middle" x="354" y="-99.8" font-family="Times,serif" font-size="14.00">Number</text>
</g>
<!-- NumberModule -->
<g id="node2" class="node">
<title>NumberModule</title>
<polygon fill="#8dd3c7" stroke="black" points="308.92,-187 305.92,-191 284.92,-191 281.92,-187 203.08,-187 203.08,-151 308.92,-151 308.92,-187"/>
<text text-anchor="middle" x="256" y="-164.8" font-family="Times,serif" font-size="14.00">NumberModule</text>
</g>
<!-- Number&#45;&gt;NumberModule -->
<g id="edge1" class="edge">
<title>Number&#45;&gt;NumberModule</title>
<path fill="none" stroke="black" d="M322.98,-104C312.62,-104 303.66,-104 303.66,-104 303.66,-104 303.66,-140.89 303.66,-140.89"/>
<polygon fill="black" stroke="black" points="300.16,-140.89 303.66,-150.89 307.16,-140.89 300.16,-140.89"/>
</g>
<!-- Number  -->
<g id="node5" class="node">
<title>Number </title>
<polygon fill="#fb8072" stroke="black" points="288.87,-252 223.13,-252 223.13,-216 288.87,-216 288.87,-252"/>
<text text-anchor="middle" x="256" y="-229.8" font-family="Times,serif" font-size="14.00">Number </text>
</g>
<!-- NumberModule&#45;&gt;Number  -->
<g id="edge4" class="edge">
<title>NumberModule&#45;&gt;Number </title>
<path fill="none" stroke="black" stroke-dasharray="5,2" d="M256,-187.11C256,-187.11 256,-205.99 256,-205.99"/>
<polygon fill="black" stroke="black" points="252.5,-205.99 256,-215.99 259.5,-205.99 252.5,-205.99"/>
</g>
<!-- I18nModule -->
<g id="node3" class="node">
<title>I18nModule</title>
<polygon fill="#8dd3c7" stroke="black" points="298.71,-122 295.71,-126 274.71,-126 271.71,-122 213.29,-122 213.29,-86 298.71,-86 298.71,-122"/>
<text text-anchor="middle" x="256" y="-99.8" font-family="Times,serif" font-size="14.00">I18nModule</text>
</g>
<!-- I18nModule&#45;&gt;NumberModule -->
<g id="edge2" class="edge">
<title>I18nModule&#45;&gt;NumberModule</title>
<path fill="none" stroke="black" d="M256,-122.11C256,-122.11 256,-140.99 256,-140.99"/>
<polygon fill="black" stroke="black" points="252.5,-140.99 256,-150.99 259.5,-140.99 252.5,-140.99"/>
</g>
<!-- IconModule -->
<g id="node4" class="node">
<title>IconModule</title>
<polygon fill="#8dd3c7" stroke="black" points="195.43,-122 192.43,-126 171.43,-126 168.43,-122 110.57,-122 110.57,-86 195.43,-86 195.43,-122"/>
<text text-anchor="middle" x="153" y="-99.8" font-family="Times,serif" font-size="14.00">IconModule</text>
</g>
<!-- IconModule&#45;&gt;NumberModule -->
<g id="edge3" class="edge">
<title>IconModule&#45;&gt;NumberModule</title>
<path fill="none" stroke="black" d="M195.23,-104C202.8,-104 208.34,-104 208.34,-104 208.34,-104 208.34,-140.89 208.34,-140.89"/>
<polygon fill="black" stroke="black" points="204.84,-140.89 208.34,-150.89 211.84,-140.89 204.84,-140.89"/>
</g>
</g>
</svg>
