<?xml version="1.0" encoding="UTF-8" standalone="no"?>
<!DOCTYPE svg PUBLIC "-//W3C//DTD SVG 1.1//EN"
 "http://www.w3.org/Graphics/SVG/1.1/DTD/svg11.dtd">
<!-- Generated by graphviz version 2.40.1 (20161225.0304)
 -->
<!-- Title: dependencies Pages: 1 -->
<svg width="504pt" height="284pt"
 viewBox="0.00 0.00 504.00 284.00" xmlns="http://www.w3.org/2000/svg" xmlns:xlink="http://www.w3.org/1999/xlink">
<g id="graph0" class="graph" transform="scale(1 1) rotate(0) translate(4 280)">
<title>dependencies</title>
<polygon fill="#ffffff" stroke="transparent" points="-4,4 -4,-280 500,-280 500,4 -4,4"/>
<text text-anchor="start" x="227.0091" y="-42.4" font-family="sans-serif" font-weight="bold" font-size="14.00" fill="#000000">Legend</text>
<polygon fill="#ffffb3" stroke="transparent" points="14,-10 14,-30 34,-30 34,-10 14,-10"/>
<text text-anchor="start" x="37.629" y="-15.4" font-family="sans-serif" font-size="14.00" fill="#000000"> &#160;Declarations</text>
<polygon fill="#8dd3c7" stroke="transparent" points="127,-10 127,-30 147,-30 147,-10 127,-10"/>
<text text-anchor="start" x="150.7251" y="-15.4" font-family="sans-serif" font-size="14.00" fill="#000000"> &#160;Module</text>
<polygon fill="#80b1d3" stroke="transparent" points="213,-10 213,-30 233,-30 233,-10 213,-10"/>
<text text-anchor="start" x="236.7812" y="-15.4" font-family="sans-serif" font-size="14.00" fill="#000000"> &#160;Bootstrap</text>
<polygon fill="#fdb462" stroke="transparent" points="310,-10 310,-30 330,-30 330,-10 310,-10"/>
<text text-anchor="start" x="333.6732" y="-15.4" font-family="sans-serif" font-size="14.00" fill="#000000"> &#160;Providers</text>
<polygon fill="#fb8072" stroke="transparent" points="406,-10 406,-30 426,-30 426,-10 406,-10"/>
<text text-anchor="start" x="429.7258" y="-15.4" font-family="sans-serif" font-size="14.00" fill="#000000"> &#160;Exports</text>
<g id="clust1" class="cluster">
<title>cluster_SkeletonModule</title>
<polygon fill="none" stroke="#000000" stroke-dasharray="1,5" points="109,-70 109,-268 387,-268 387,-70 109,-70"/>
</g>
<g id="clust2" class="cluster">
<title>cluster_SkeletonModule_declarations</title>
<polygon fill="none" stroke="#000000" points="118,-78 118,-130 374,-130 374,-78 118,-78"/>
</g>
<g id="clust6" class="cluster">
<title>cluster_SkeletonModule_exports</title>
<polygon fill="none" stroke="#000000" points="117,-208 117,-260 379,-260 379,-208 117,-208"/>
</g>
<!-- SkeletonPlaceholder -->
<g id="node1" class="node">
<title>SkeletonPlaceholder</title>
<polygon fill="#ffffb3" stroke="#000000" points="365.5758,-122 234.4242,-122 234.4242,-86 365.5758,-86 365.5758,-122"/>
<text text-anchor="middle" x="300" y="-99.8" font-family="Times,serif" font-size="14.00" fill="#000000">SkeletonPlaceholder</text>
</g>
<!-- SkeletonModule -->
<g id="node3" class="node">
<title>SkeletonModule</title>
<polygon fill="#8dd3c7" stroke="#000000" points="290.0438,-187 287.0438,-191 266.0438,-191 263.0438,-187 181.9562,-187 181.9562,-151 290.0438,-151 290.0438,-187"/>
<text text-anchor="middle" x="236" y="-164.8" font-family="Times,serif" font-size="14.00" fill="#000000">SkeletonModule</text>
</g>
<!-- SkeletonPlaceholder&#45;&gt;SkeletonModule -->
<g id="edge1" class="edge">
<title>SkeletonPlaceholder&#45;&gt;SkeletonModule</title>
<path fill="none" stroke="#000000" d="M262.3668,-122.1061C262.3668,-122.1061 262.3668,-140.991 262.3668,-140.991"/>
<polygon fill="#000000" stroke="#000000" points="258.8668,-140.9909 262.3668,-150.991 265.8668,-140.991 258.8668,-140.9909"/>
</g>
<!-- SkeletonText -->
<g id="node2" class="node">
<title>SkeletonText</title>
<polygon fill="#ffffb3" stroke="#000000" points="216.1515,-122 125.8485,-122 125.8485,-86 216.1515,-86 216.1515,-122"/>
<text text-anchor="middle" x="171" y="-99.8" font-family="Times,serif" font-size="14.00" fill="#000000">SkeletonText</text>
</g>
<!-- SkeletonText&#45;&gt;SkeletonModule -->
<g id="edge2" class="edge">
<title>SkeletonText&#45;&gt;SkeletonModule</title>
<path fill="none" stroke="#000000" d="M199.027,-122.1061C199.027,-122.1061 199.027,-140.991 199.027,-140.991"/>
<polygon fill="#000000" stroke="#000000" points="195.5271,-140.9909 199.027,-150.991 202.5271,-140.991 195.5271,-140.9909"/>
</g>
<!-- SkeletonPlaceholder  -->
<g id="node4" class="node">
<title>SkeletonPlaceholder </title>
<polygon fill="#fb8072" stroke="#000000" points="371.0765,-252 236.9235,-252 236.9235,-216 371.0765,-216 371.0765,-252"/>
<text text-anchor="middle" x="304" y="-229.8" font-family="Times,serif" font-size="14.00" fill="#000000">SkeletonPlaceholder </text>
</g>
<!-- SkeletonModule&#45;&gt;SkeletonPlaceholder  -->
<g id="edge3" class="edge">
<title>SkeletonModule&#45;&gt;SkeletonPlaceholder </title>
<path fill="none" stroke="#000000" stroke-dasharray="5,2" d="M263.4918,-187.1061C263.4918,-187.1061 263.4918,-205.991 263.4918,-205.991"/>
<polygon fill="#000000" stroke="#000000" points="259.9918,-205.9909 263.4918,-215.991 266.9918,-205.991 259.9918,-205.9909"/>
</g>
<!-- SkeletonText  -->
<g id="node5" class="node">
<title>SkeletonText </title>
<polygon fill="#fb8072" stroke="#000000" points="219.1509,-252 124.8491,-252 124.8491,-216 219.1509,-216 219.1509,-252"/>
<text text-anchor="middle" x="172" y="-229.8" font-family="Times,serif" font-size="14.00" fill="#000000">SkeletonText </text>
</g>
<!-- SkeletonModule&#45;&gt;SkeletonText  -->
<g id="edge4" class="edge">
<title>SkeletonModule&#45;&gt;SkeletonText </title>
<path fill="none" stroke="#000000" stroke-dasharray="5,2" d="M200.402,-187.1061C200.402,-187.1061 200.402,-205.991 200.402,-205.991"/>
<polygon fill="#000000" stroke="#000000" points="196.9021,-205.9909 200.402,-215.991 203.9021,-205.991 196.9021,-205.9909"/>
</g>
</g>
</svg>
