<?xml version="1.0" encoding="UTF-8" standalone="no"?>
<!DOCTYPE svg PUBLIC "-//W3C//DTD SVG 1.1//EN"
 "http://www.w3.org/Graphics/SVG/1.1/DTD/svg11.dtd">
<!-- Generated by graphviz version 2.47.0 (20210316.0004)
 -->
<!-- Title: dependencies Pages: 1 -->
<svg width="504pt" height="284pt"
 viewBox="0.00 0.00 504.00 284.00" xmlns="http://www.w3.org/2000/svg" xmlns:xlink="http://www.w3.org/1999/xlink">
<g id="graph0" class="graph" transform="scale(1 1) rotate(0) translate(4 280)">
<title>dependencies</title>
<polygon fill="white" stroke="transparent" points="-4,4 -4,-280 500,-280 500,4 -4,4"/>
<text text-anchor="start" x="227.01" y="-42.4" font-family="Times-12" font-weight="bold" font-size="14.00">Legend</text>
<polygon fill="#ffffb3" stroke="transparent" points="14,-10 14,-30 34,-30 34,-10 14,-10"/>
<text text-anchor="start" x="37.63" y="-15.4" font-family="Times-12" font-size="14.00"> &#160;Declarations</text>
<polygon fill="#8dd3c7" stroke="transparent" points="127,-10 127,-30 147,-30 147,-10 127,-10"/>
<text text-anchor="start" x="150.73" y="-15.4" font-family="Times-12" font-size="14.00"> &#160;Module</text>
<polygon fill="#80b1d3" stroke="transparent" points="213,-10 213,-30 233,-30 233,-10 213,-10"/>
<text text-anchor="start" x="236.78" y="-15.4" font-family="Times-12" font-size="14.00"> &#160;Bootstrap</text>
<polygon fill="#fdb462" stroke="transparent" points="310,-10 310,-30 330,-30 330,-10 310,-10"/>
<text text-anchor="start" x="333.67" y="-15.4" font-family="Times-12" font-size="14.00"> &#160;Providers</text>
<polygon fill="#fb8072" stroke="transparent" points="406,-10 406,-30 426,-30 426,-10 406,-10"/>
<text text-anchor="start" x="429.73" y="-15.4" font-family="Times-12" font-size="14.00"> &#160;Exports</text>
<g id="clust1" class="cluster">
<title>cluster_TooltipModule</title>
<polygon fill="none" stroke="black" stroke-dasharray="1,5" points="72,-70 72,-268 424,-268 424,-70 72,-70"/>
</g>
<g id="clust6" class="cluster">
<title>cluster_TooltipModule_exports</title>
<polygon fill="none" stroke="black" points="153,-208 153,-260 365,-260 365,-208 153,-208"/>
</g>
<g id="clust2" class="cluster">
<title>cluster_TooltipModule_declarations</title>
<polygon fill="none" stroke="black" points="210,-78 210,-130 416,-130 416,-78 210,-78"/>
</g>
<g id="clust5" class="cluster">
<title>cluster_TooltipModule_imports</title>
<polygon fill="none" stroke="black" points="80,-78 80,-130 202,-130 202,-78 80,-78"/>
</g>
<!-- Tooltip -->
<g id="node1" class="node">
<title>Tooltip</title>
<polygon fill="#ffffb3" stroke="black" points="407.72,-122 350.28,-122 350.28,-86 407.72,-86 407.72,-122"/>
<text text-anchor="middle" x="379" y="-99.8" font-family="Times,serif" font-size="14.00">Tooltip</text>
</g>
<!-- TooltipModule -->
<g id="node3" class="node">
<title>TooltipModule</title>
<polygon fill="#8dd3c7" stroke="black" points="325.27,-187 322.27,-191 301.27,-191 298.27,-187 224.73,-187 224.73,-151 325.27,-151 325.27,-187"/>
<text text-anchor="middle" x="275" y="-164.8" font-family="Times,serif" font-size="14.00">TooltipModule</text>
</g>
<!-- Tooltip&#45;&gt;TooltipModule -->
<g id="edge1" class="edge">
<title>Tooltip&#45;&gt;TooltipModule</title>
<path fill="none" stroke="black" d="M382.49,-122.11C382.49,-141.34 382.49,-169 382.49,-169 382.49,-169 335.28,-169 335.28,-169"/>
<polygon fill="black" stroke="black" points="335.28,-165.5 325.28,-169 335.28,-172.5 335.28,-165.5"/>
</g>
<!-- TooltipDefinition -->
<g id="node2" class="node">
<title>TooltipDefinition</title>
<polygon fill="#ffffb3" stroke="black" points="332.27,-122 217.73,-122 217.73,-86 332.27,-86 332.27,-122"/>
<text text-anchor="middle" x="275" y="-99.8" font-family="Times,serif" font-size="14.00">TooltipDefinition</text>
</g>
<!-- TooltipDefinition&#45;&gt;TooltipModule -->
<g id="edge2" class="edge">
<title>TooltipDefinition&#45;&gt;TooltipModule</title>
<path fill="none" stroke="black" d="M275,-122.11C275,-122.11 275,-140.99 275,-140.99"/>
<polygon fill="black" stroke="black" points="271.5,-140.99 275,-150.99 278.5,-140.99 271.5,-140.99"/>
</g>
<!-- Tooltip  -->
<g id="node5" class="node">
<title>Tooltip </title>
<polygon fill="#fb8072" stroke="black" points="357.23,-252 296.77,-252 296.77,-216 357.23,-216 357.23,-252"/>
<text text-anchor="middle" x="327" y="-229.8" font-family="Times,serif" font-size="14.00">Tooltip </text>
</g>
<!-- TooltipModule&#45;&gt;Tooltip  -->
<g id="edge4" class="edge">
<title>TooltipModule&#45;&gt;Tooltip </title>
<path fill="none" stroke="black" stroke-dasharray="5,2" d="M311.01,-187.11C311.01,-187.11 311.01,-205.99 311.01,-205.99"/>
<polygon fill="black" stroke="black" points="307.51,-205.99 311.01,-215.99 314.51,-205.99 307.51,-205.99"/>
</g>
<!-- TooltipDefinition  -->
<g id="node6" class="node">
<title>TooltipDefinition </title>
<polygon fill="#fb8072" stroke="black" points="279.27,-252 160.73,-252 160.73,-216 279.27,-216 279.27,-252"/>
<text text-anchor="middle" x="220" y="-229.8" font-family="Times,serif" font-size="14.00">TooltipDefinition </text>
</g>
<!-- TooltipModule&#45;&gt;TooltipDefinition  -->
<g id="edge5" class="edge">
<title>TooltipModule&#45;&gt;TooltipDefinition </title>
<path fill="none" stroke="black" stroke-dasharray="5,2" d="M251.87,-187.11C251.87,-187.11 251.87,-205.99 251.87,-205.99"/>
<polygon fill="black" stroke="black" points="248.37,-205.99 251.87,-215.99 255.37,-205.99 248.37,-205.99"/>
</g>
<!-- PopoverModule -->
<g id="node4" class="node">
<title>PopoverModule</title>
<polygon fill="#8dd3c7" stroke="black" points="194.21,-122 191.21,-126 170.21,-126 167.21,-122 87.79,-122 87.79,-86 194.21,-86 194.21,-122"/>
<text text-anchor="middle" x="141" y="-99.8" font-family="Times,serif" font-size="14.00">PopoverModule</text>
</g>
<!-- PopoverModule&#45;&gt;TooltipModule -->
<g id="edge3" class="edge">
<title>PopoverModule&#45;&gt;TooltipModule</title>
<path fill="none" stroke="black" d="M177.48,-122.11C177.48,-141.34 177.48,-169 177.48,-169 177.48,-169 214.53,-169 214.53,-169"/>
<polygon fill="black" stroke="black" points="214.53,-172.5 224.53,-169 214.53,-165.5 214.53,-172.5"/>
</g>
</g>
</svg>
