<?xml version="1.0" encoding="UTF-8" standalone="no"?>
<!DOCTYPE svg PUBLIC "-//W3C//DTD SVG 1.1//EN"
 "http://www.w3.org/Graphics/SVG/1.1/DTD/svg11.dtd">
<!-- Generated by graphviz version 2.47.0 (20210316.0004)
 -->
<!-- Title: dependencies Pages: 1 -->
<svg width="706pt" height="396pt"
 viewBox="0.00 0.00 706.00 395.59" xmlns="http://www.w3.org/2000/svg" xmlns:xlink="http://www.w3.org/1999/xlink">
<g id="graph0" class="graph" transform="scale(1 1) rotate(0) translate(4 391.59)">
<title>dependencies</title>
<polygon fill="white" stroke="transparent" points="-4,4 -4,-391.59 702,-391.59 702,4 -4,4"/>
<text text-anchor="start" x="328.01" y="-42.4" font-family="Times-12" font-weight="bold" font-size="14.00">Legend</text>
<polygon fill="#ffffb3" stroke="transparent" points="115,-10 115,-30 135,-30 135,-10 115,-10"/>
<text text-anchor="start" x="138.63" y="-15.4" font-family="Times-12" font-size="14.00"> &#160;Declarations</text>
<polygon fill="#8dd3c7" stroke="transparent" points="228,-10 228,-30 248,-30 248,-10 228,-10"/>
<text text-anchor="start" x="251.73" y="-15.4" font-family="Times-12" font-size="14.00"> &#160;Module</text>
<polygon fill="#80b1d3" stroke="transparent" points="314,-10 314,-30 334,-30 334,-10 314,-10"/>
<text text-anchor="start" x="337.78" y="-15.4" font-family="Times-12" font-size="14.00"> &#160;Bootstrap</text>
<polygon fill="#fdb462" stroke="transparent" points="411,-10 411,-30 431,-30 431,-10 411,-10"/>
<text text-anchor="start" x="434.67" y="-15.4" font-family="Times-12" font-size="14.00"> &#160;Providers</text>
<polygon fill="#fb8072" stroke="transparent" points="507,-10 507,-30 527,-30 527,-10 507,-10"/>
<text text-anchor="start" x="530.73" y="-15.4" font-family="Times-12" font-size="14.00"> &#160;Exports</text>
<g id="clust1" class="cluster">
<title>cluster_StructuredListModule</title>
<polygon fill="none" stroke="black" stroke-dasharray="1,5" points="8,-70 8,-379.59 690,-379.59 690,-70 8,-70"/>
</g>
<g id="clust2" class="cluster">
<title>cluster_StructuredListModule_declarations</title>
<polygon fill="none" stroke="black" points="291,-189.59 291,-241.59 682,-241.59 682,-189.59 291,-189.59"/>
</g>
<g id="clust6" class="cluster">
<title>cluster_StructuredListModule_StructuredList_providers</title>
<polygon fill="none" stroke="black" points="16,-78 16,-176.59 682,-176.59 682,-78 16,-78"/>
</g>
<g id="clust8" class="cluster">
<title>cluster_StructuredListModule_exports</title>
<polygon fill="none" stroke="black" points="234,-319.59 234,-371.59 640,-371.59 640,-319.59 234,-319.59"/>
</g>
<g id="clust7" class="cluster">
<title>cluster_StructuredListModule_imports</title>
<polygon fill="none" stroke="black" points="183,-189.59 183,-241.59 283,-241.59 283,-189.59 183,-189.59"/>
</g>
<!-- ListColumn -->
<g id="node1" class="node">
<title>ListColumn</title>
<polygon fill="#ffffb3" stroke="black" points="674.4,-233.59 591.6,-233.59 591.6,-197.59 674.4,-197.59 674.4,-233.59"/>
<text text-anchor="middle" x="633" y="-211.39" font-family="Times,serif" font-size="14.00">ListColumn</text>
</g>
<!-- StructuredListModule -->
<g id="node5" class="node">
<title>StructuredListModule</title>
<polygon fill="#8dd3c7" stroke="black" points="514.64,-298.59 511.64,-302.59 490.64,-302.59 487.64,-298.59 375.36,-298.59 375.36,-262.59 514.64,-262.59 514.64,-298.59"/>
<text text-anchor="middle" x="445" y="-276.39" font-family="Times,serif" font-size="14.00">StructuredListModule</text>
</g>
<!-- ListColumn&#45;&gt;StructuredListModule -->
<g id="edge1" class="edge">
<title>ListColumn&#45;&gt;StructuredListModule</title>
<path fill="none" stroke="black" d="M611.88,-233.61C611.88,-250.96 611.88,-274.59 611.88,-274.59 611.88,-274.59 524.8,-274.59 524.8,-274.59"/>
<polygon fill="black" stroke="black" points="524.8,-271.09 514.8,-274.59 524.8,-278.09 524.8,-271.09"/>
</g>
<!-- ListHeader -->
<g id="node2" class="node">
<title>ListHeader</title>
<polygon fill="#ffffb3" stroke="black" points="573.19,-233.59 494.81,-233.59 494.81,-197.59 573.19,-197.59 573.19,-233.59"/>
<text text-anchor="middle" x="534" y="-211.39" font-family="Times,serif" font-size="14.00">ListHeader</text>
</g>
<!-- ListHeader&#45;&gt;StructuredListModule -->
<g id="edge2" class="edge">
<title>ListHeader&#45;&gt;StructuredListModule</title>
<path fill="none" stroke="black" d="M504.86,-233.7C504.86,-233.7 504.86,-252.58 504.86,-252.58"/>
<polygon fill="black" stroke="black" points="501.36,-252.58 504.86,-262.58 508.36,-252.58 501.36,-252.58"/>
</g>
<!-- ListRow -->
<g id="node3" class="node">
<title>ListRow</title>
<polygon fill="#ffffb3" stroke="black" points="477.22,-233.59 412.78,-233.59 412.78,-197.59 477.22,-197.59 477.22,-233.59"/>
<text text-anchor="middle" x="445" y="-211.39" font-family="Times,serif" font-size="14.00">ListRow</text>
</g>
<!-- ListRow&#45;&gt;StructuredListModule -->
<g id="edge3" class="edge">
<title>ListRow&#45;&gt;StructuredListModule</title>
<path fill="none" stroke="black" d="M445,-233.7C445,-233.7 445,-252.58 445,-252.58"/>
<polygon fill="black" stroke="black" points="441.5,-252.58 445,-262.58 448.5,-252.58 441.5,-252.58"/>
</g>
<!-- StructuredList -->
<g id="node4" class="node">
<title>StructuredList</title>
<polygon fill="#ffffb3" stroke="black" points="395.09,-233.59 298.91,-233.59 298.91,-197.59 395.09,-197.59 395.09,-233.59"/>
<text text-anchor="middle" x="347" y="-211.39" font-family="Times,serif" font-size="14.00">StructuredList</text>
</g>
<!-- StructuredList&#45;&gt;StructuredListModule -->
<g id="edge4" class="edge">
<title>StructuredList&#45;&gt;StructuredListModule</title>
<path fill="none" stroke="black" d="M385.11,-233.7C385.11,-233.7 385.11,-252.58 385.11,-252.58"/>
<polygon fill="black" stroke="black" points="381.61,-252.58 385.11,-262.58 388.61,-252.58 381.61,-252.58"/>
</g>
<!-- ListColumn  -->
<g id="node8" class="node">
<title>ListColumn </title>
<polygon fill="#fb8072" stroke="black" points="632.4,-363.59 545.6,-363.59 545.6,-327.59 632.4,-327.59 632.4,-363.59"/>
<text text-anchor="middle" x="589" y="-341.39" font-family="Times,serif" font-size="14.00">ListColumn </text>
</g>
<!-- StructuredListModule&#45;&gt;ListColumn  -->
<g id="edge7" class="edge">
<title>StructuredListModule&#45;&gt;ListColumn </title>
<path fill="none" stroke="black" stroke-dasharray="5,2" d="M514.87,-286.59C538.7,-286.59 559.45,-286.59 559.45,-286.59 559.45,-286.59 559.45,-317.57 559.45,-317.57"/>
<polygon fill="black" stroke="black" points="555.95,-317.57 559.45,-327.57 562.95,-317.57 555.95,-317.57"/>
</g>
<!-- ListHeader  -->
<g id="node9" class="node">
<title>ListHeader </title>
<polygon fill="#fb8072" stroke="black" points="527.69,-363.59 446.31,-363.59 446.31,-327.59 527.69,-327.59 527.69,-363.59"/>
<text text-anchor="middle" x="487" y="-341.39" font-family="Times,serif" font-size="14.00">ListHeader </text>
</g>
<!-- StructuredListModule&#45;&gt;ListHeader  -->
<g id="edge8" class="edge">
<title>StructuredListModule&#45;&gt;ListHeader </title>
<path fill="none" stroke="black" stroke-dasharray="5,2" d="M480.49,-298.7C480.49,-298.7 480.49,-317.58 480.49,-317.58"/>
<polygon fill="black" stroke="black" points="476.99,-317.58 480.49,-327.58 483.99,-317.58 476.99,-317.58"/>
</g>
<!-- ListRow  -->
<g id="node10" class="node">
<title>ListRow </title>
<polygon fill="#fb8072" stroke="black" points="427.72,-363.59 360.28,-363.59 360.28,-327.59 427.72,-327.59 427.72,-363.59"/>
<text text-anchor="middle" x="394" y="-341.39" font-family="Times,serif" font-size="14.00">ListRow </text>
</g>
<!-- StructuredListModule&#45;&gt;ListRow  -->
<g id="edge9" class="edge">
<title>StructuredListModule&#45;&gt;ListRow </title>
<path fill="none" stroke="black" stroke-dasharray="5,2" d="M401.52,-298.7C401.52,-298.7 401.52,-317.58 401.52,-317.58"/>
<polygon fill="black" stroke="black" points="398.02,-317.58 401.52,-327.58 405.02,-317.58 398.02,-317.58"/>
</g>
<!-- StructuredList  -->
<g id="node11" class="node">
<title>StructuredList </title>
<polygon fill="#fb8072" stroke="black" points="341.59,-363.59 242.41,-363.59 242.41,-327.59 341.59,-327.59 341.59,-363.59"/>
<text text-anchor="middle" x="292" y="-341.39" font-family="Times,serif" font-size="14.00">StructuredList </text>
</g>
<!-- StructuredListModule&#45;&gt;StructuredList  -->
<g id="edge10" class="edge">
<title>StructuredListModule&#45;&gt;StructuredList </title>
<path fill="none" stroke="black" stroke-dasharray="5,2" d="M375.04,-286.59C346.63,-286.59 320.38,-286.59 320.38,-286.59 320.38,-286.59 320.38,-317.57 320.38,-317.57"/>
<polygon fill="black" stroke="black" points="316.88,-317.57 320.38,-327.57 323.88,-317.57 316.88,-317.57"/>
</g>
<!-- {
 &#160;&#160;&#160;provide: NG_VALUE_ACCESSOR, useExisting: StructuredList, multi: true
} -->
<g id="node6" class="node">
<title>{
 &#160;&#160;&#160;provide: NG_VALUE_ACCESSOR, useExisting: StructuredList, multi: true
}</title>
<ellipse fill="#fdb462" stroke="black" cx="349" cy="-127.3" rx="325.07" ry="41.09"/>
<text text-anchor="middle" x="349" y="-139.9" font-family="Times,serif" font-size="14.00">{</text>
<text text-anchor="middle" x="349" y="-123.1" font-family="Times,serif" font-size="14.00"> &#160;&#160;&#160;provide: NG_VALUE_ACCESSOR, useExisting: StructuredList, multi: true</text>
<text text-anchor="middle" x="349" y="-106.3" font-family="Times,serif" font-size="14.00">}</text>
</g>
<!-- {
 &#160;&#160;&#160;provide: NG_VALUE_ACCESSOR, useExisting: StructuredList, multi: true
}&#45;&gt;StructuredList -->
<g id="edge5" class="edge">
<title>{
 &#160;&#160;&#160;provide: NG_VALUE_ACCESSOR, useExisting: StructuredList, multi: true
}&#45;&gt;StructuredList</title>
<path fill="none" stroke="black" d="M347,-168.6C347,-168.6 347,-187.26 347,-187.26"/>
<polygon fill="black" stroke="black" points="343.5,-187.26 347,-197.26 350.5,-187.26 343.5,-187.26"/>
</g>
<!-- IconModule -->
<g id="node7" class="node">
<title>IconModule</title>
<polygon fill="#8dd3c7" stroke="black" points="275.43,-233.59 272.43,-237.59 251.43,-237.59 248.43,-233.59 190.57,-233.59 190.57,-197.59 275.43,-197.59 275.43,-233.59"/>
<text text-anchor="middle" x="233" y="-211.39" font-family="Times,serif" font-size="14.00">IconModule</text>
</g>
<!-- IconModule&#45;&gt;StructuredListModule -->
<g id="edge6" class="edge">
<title>IconModule&#45;&gt;StructuredListModule</title>
<path fill="none" stroke="black" d="M258.71,-233.61C258.71,-250.96 258.71,-274.59 258.71,-274.59 258.71,-274.59 365.1,-274.59 365.1,-274.59"/>
<polygon fill="black" stroke="black" points="365.1,-278.09 375.1,-274.59 365.1,-271.09 365.1,-278.09"/>
</g>
</g>
</svg>
