<?xml version="1.0" encoding="UTF-8" standalone="no"?>
<!DOCTYPE svg PUBLIC "-//W3C//DTD SVG 1.1//EN"
 "http://www.w3.org/Graphics/SVG/1.1/DTD/svg11.dtd">
<!-- Generated by graphviz version 2.47.0 (20210316.0004)
 -->
<!-- Title: dependencies Pages: 1 -->
<svg width="758pt" height="396pt"
 viewBox="0.00 0.00 758.00 395.59" xmlns="http://www.w3.org/2000/svg" xmlns:xlink="http://www.w3.org/1999/xlink">
<g id="graph0" class="graph" transform="scale(1 1) rotate(0) translate(4 391.59)">
<title>dependencies</title>
<polygon fill="white" stroke="transparent" points="-4,4 -4,-391.59 754,-391.59 754,4 -4,4"/>
<text text-anchor="start" x="354.01" y="-42.4" font-family="Times-12" font-weight="bold" font-size="14.00">Legend</text>
<polygon fill="#ffffb3" stroke="transparent" points="141,-10 141,-30 161,-30 161,-10 141,-10"/>
<text text-anchor="start" x="164.63" y="-15.4" font-family="Times-12" font-size="14.00"> &#160;Declarations</text>
<polygon fill="#8dd3c7" stroke="transparent" points="254,-10 254,-30 274,-30 274,-10 254,-10"/>
<text text-anchor="start" x="277.73" y="-15.4" font-family="Times-12" font-size="14.00"> &#160;Module</text>
<polygon fill="#80b1d3" stroke="transparent" points="340,-10 340,-30 360,-30 360,-10 340,-10"/>
<text text-anchor="start" x="363.78" y="-15.4" font-family="Times-12" font-size="14.00"> &#160;Bootstrap</text>
<polygon fill="#fdb462" stroke="transparent" points="437,-10 437,-30 457,-30 457,-10 437,-10"/>
<text text-anchor="start" x="460.67" y="-15.4" font-family="Times-12" font-size="14.00"> &#160;Providers</text>
<polygon fill="#fb8072" stroke="transparent" points="533,-10 533,-30 553,-30 553,-10 533,-10"/>
<text text-anchor="start" x="556.73" y="-15.4" font-family="Times-12" font-size="14.00"> &#160;Exports</text>
<g id="clust1" class="cluster">
<title>cluster_ToggleModule</title>
<polygon fill="none" stroke="black" stroke-dasharray="1,5" points="8,-70 8,-379.59 742,-379.59 742,-70 8,-70"/>
</g>
<g id="clust3" class="cluster">
<title>cluster_ToggleModule_Toggle_providers</title>
<polygon fill="none" stroke="black" points="126,-78 126,-241.59 734,-241.59 734,-78 126,-78"/>
</g>
<g id="clust4" class="cluster">
<title>cluster_ToggleModule_imports</title>
<polygon fill="none" stroke="black" points="16,-189.59 16,-241.59 118,-241.59 118,-189.59 16,-189.59"/>
</g>
<g id="clust5" class="cluster">
<title>cluster_ToggleModule_exports</title>
<polygon fill="none" stroke="black" points="143,-319.59 143,-371.59 219,-371.59 219,-319.59 143,-319.59"/>
</g>
<!-- Toggle -->
<g id="node1" class="node">
<title>Toggle</title>
<polygon fill="#ffffb3" stroke="black" points="323.66,-233.59 268.34,-233.59 268.34,-197.59 323.66,-197.59 323.66,-233.59"/>
<text text-anchor="middle" x="296" y="-211.39" font-family="Times,serif" font-size="14.00">Toggle</text>
</g>
<!-- ToggleModule -->
<g id="node2" class="node">
<title>ToggleModule</title>
<polygon fill="#8dd3c7" stroke="black" points="230.71,-298.59 227.71,-302.59 206.71,-302.59 203.71,-298.59 131.29,-298.59 131.29,-262.59 230.71,-262.59 230.71,-298.59"/>
<text text-anchor="middle" x="181" y="-276.39" font-family="Times,serif" font-size="14.00">ToggleModule</text>
</g>
<!-- Toggle&#45;&gt;ToggleModule -->
<g id="edge1" class="edge">
<title>Toggle&#45;&gt;ToggleModule</title>
<path fill="none" stroke="black" d="M296,-233.7C296,-252.93 296,-280.59 296,-280.59 296,-280.59 240.77,-280.59 240.77,-280.59"/>
<polygon fill="black" stroke="black" points="240.77,-277.09 230.77,-280.59 240.77,-284.09 240.77,-277.09"/>
</g>
<!-- Toggle  -->
<g id="node5" class="node">
<title>Toggle </title>
<polygon fill="#fb8072" stroke="black" points="210.66,-363.59 151.34,-363.59 151.34,-327.59 210.66,-327.59 210.66,-363.59"/>
<text text-anchor="middle" x="181" y="-341.39" font-family="Times,serif" font-size="14.00">Toggle </text>
</g>
<!-- ToggleModule&#45;&gt;Toggle  -->
<g id="edge4" class="edge">
<title>ToggleModule&#45;&gt;Toggle </title>
<path fill="none" stroke="black" stroke-dasharray="5,2" d="M181,-298.7C181,-298.7 181,-317.58 181,-317.58"/>
<polygon fill="black" stroke="black" points="177.5,-317.58 181,-327.58 184.5,-317.58 177.5,-317.58"/>
</g>
<!-- {
 &#160;&#160;&#160;provide: NG_VALUE_ACCESSOR, useExisting: Toggle, multi: true
} -->
<g id="node3" class="node">
<title>{
 &#160;&#160;&#160;provide: NG_VALUE_ACCESSOR, useExisting: Toggle, multi: true
}</title>
<ellipse fill="#fdb462" stroke="black" cx="430" cy="-127.3" rx="296.38" ry="41.09"/>
<text text-anchor="middle" x="430" y="-139.9" font-family="Times,serif" font-size="14.00">{</text>
<text text-anchor="middle" x="430" y="-123.1" font-family="Times,serif" font-size="14.00"> &#160;&#160;&#160;provide: NG_VALUE_ACCESSOR, useExisting: Toggle, multi: true</text>
<text text-anchor="middle" x="430" y="-106.3" font-family="Times,serif" font-size="14.00">}</text>
</g>
<!-- {
 &#160;&#160;&#160;provide: NG_VALUE_ACCESSOR, useExisting: Toggle, multi: true
}&#45;&gt;Toggle -->
<g id="edge2" class="edge">
<title>{
 &#160;&#160;&#160;provide: NG_VALUE_ACCESSOR, useExisting: Toggle, multi: true
}&#45;&gt;Toggle</title>
<path fill="none" stroke="black" d="M296,-164.23C296,-164.23 296,-187.58 296,-187.58"/>
<polygon fill="black" stroke="black" points="292.5,-187.58 296,-197.58 299.5,-187.58 292.5,-187.58"/>
</g>
<!-- I18nModule -->
<g id="node4" class="node">
<title>I18nModule</title>
<polygon fill="#8dd3c7" stroke="black" points="109.71,-233.59 106.71,-237.59 85.71,-237.59 82.71,-233.59 24.29,-233.59 24.29,-197.59 109.71,-197.59 109.71,-233.59"/>
<text text-anchor="middle" x="67" y="-211.39" font-family="Times,serif" font-size="14.00">I18nModule</text>
</g>
<!-- I18nModule&#45;&gt;ToggleModule -->
<g id="edge3" class="edge">
<title>I18nModule&#45;&gt;ToggleModule</title>
<path fill="none" stroke="black" d="M67,-233.7C67,-252.93 67,-280.59 67,-280.59 67,-280.59 121.33,-280.59 121.33,-280.59"/>
<polygon fill="black" stroke="black" points="121.33,-284.09 131.33,-280.59 121.33,-277.09 121.33,-284.09"/>
</g>
</g>
</svg>
