<?xml version="1.0" encoding="UTF-8" standalone="no"?>
<!DOCTYPE svg PUBLIC "-//W3C//DTD SVG 1.1//EN"
 "http://www.w3.org/Graphics/SVG/1.1/DTD/svg11.dtd">
<!-- Generated by graphviz version 2.40.1 (20161225.0304)
 -->
<!-- Title: dependencies Pages: 1 -->
<svg width="504pt" height="284pt"
 viewBox="0.00 0.00 504.00 284.00" xmlns="http://www.w3.org/2000/svg" xmlns:xlink="http://www.w3.org/1999/xlink">
<g id="graph0" class="graph" transform="scale(1 1) rotate(0) translate(4 280)">
<title>dependencies</title>
<polygon fill="#ffffff" stroke="transparent" points="-4,4 -4,-280 500,-280 500,4 -4,4"/>
<text text-anchor="start" x="227.0091" y="-42.4" font-family="sans-serif" font-weight="bold" font-size="14.00" fill="#000000">Legend</text>
<polygon fill="#ffffb3" stroke="transparent" points="14,-10 14,-30 34,-30 34,-10 14,-10"/>
<text text-anchor="start" x="37.629" y="-15.4" font-family="sans-serif" font-size="14.00" fill="#000000"> &#160;Declarations</text>
<polygon fill="#8dd3c7" stroke="transparent" points="127,-10 127,-30 147,-30 147,-10 127,-10"/>
<text text-anchor="start" x="150.7251" y="-15.4" font-family="sans-serif" font-size="14.00" fill="#000000"> &#160;Module</text>
<polygon fill="#80b1d3" stroke="transparent" points="213,-10 213,-30 233,-30 233,-10 213,-10"/>
<text text-anchor="start" x="236.7812" y="-15.4" font-family="sans-serif" font-size="14.00" fill="#000000"> &#160;Bootstrap</text>
<polygon fill="#fdb462" stroke="transparent" points="310,-10 310,-30 330,-30 330,-10 310,-10"/>
<text text-anchor="start" x="333.6732" y="-15.4" font-family="sans-serif" font-size="14.00" fill="#000000"> &#160;Providers</text>
<polygon fill="#fb8072" stroke="transparent" points="406,-10 406,-30 426,-30 426,-10 406,-10"/>
<text text-anchor="start" x="429.7258" y="-15.4" font-family="sans-serif" font-size="14.00" fill="#000000"> &#160;Exports</text>
<g id="clust1" class="cluster">
<title>cluster_PaginationModule</title>
<polygon fill="none" stroke="#000000" stroke-dasharray="1,5" points="63,-70 63,-268 433,-268 433,-70 63,-70"/>
</g>
<g id="clust2" class="cluster">
<title>cluster_PaginationModule_declarations</title>
<polygon fill="none" stroke="#000000" points="333,-78 333,-130 425,-130 425,-78 333,-78"/>
</g>
<g id="clust4" class="cluster">
<title>cluster_PaginationModule_imports</title>
<polygon fill="none" stroke="#000000" points="71,-78 71,-130 325,-130 325,-78 71,-78"/>
</g>
<g id="clust5" class="cluster">
<title>cluster_PaginationModule_exports</title>
<polygon fill="none" stroke="#000000" points="202,-208 202,-260 298,-260 298,-208 202,-208"/>
</g>
<!-- Pagination -->
<g id="node1" class="node">
<title>Pagination</title>
<polygon fill="#ffffb3" stroke="#000000" points="416.8837,-122 341.1163,-122 341.1163,-86 416.8837,-86 416.8837,-122"/>
<text text-anchor="middle" x="379" y="-99.8" font-family="Times,serif" font-size="14.00" fill="#000000">Pagination</text>
</g>
<!-- PaginationModule -->
<g id="node2" class="node">
<title>PaginationModule</title>
<polygon fill="#8dd3c7" stroke="#000000" points="309.9342,-187 306.9342,-191 285.9342,-191 282.9342,-187 190.0658,-187 190.0658,-151 309.9342,-151 309.9342,-187"/>
<text text-anchor="middle" x="250" y="-164.8" font-family="Times,serif" font-size="14.00" fill="#000000">PaginationModule</text>
</g>
<!-- Pagination&#45;&gt;PaginationModule -->
<g id="edge1" class="edge">
<title>Pagination&#45;&gt;PaginationModule</title>
<path fill="none" stroke="#000000" d="M379,-122.1061C379,-141.3391 379,-169 379,-169 379,-169 319.9682,-169 319.9682,-169"/>
<polygon fill="#000000" stroke="#000000" points="319.9682,-165.5001 309.9682,-169 319.9681,-172.5001 319.9682,-165.5001"/>
</g>
<!-- Pagination  -->
<g id="node5" class="node">
<title>Pagination </title>
<polygon fill="#fb8072" stroke="#000000" points="289.8845,-252 210.1155,-252 210.1155,-216 289.8845,-216 289.8845,-252"/>
<text text-anchor="middle" x="250" y="-229.8" font-family="Times,serif" font-size="14.00" fill="#000000">Pagination </text>
</g>
<!-- PaginationModule&#45;&gt;Pagination  -->
<g id="edge4" class="edge">
<title>PaginationModule&#45;&gt;Pagination </title>
<path fill="none" stroke="#000000" stroke-dasharray="5,2" d="M250,-187.1061C250,-187.1061 250,-205.991 250,-205.991"/>
<polygon fill="#000000" stroke="#000000" points="246.5001,-205.9909 250,-215.991 253.5001,-205.991 246.5001,-205.9909"/>
</g>
<!-- ExperimentalModule -->
<g id="node3" class="node">
<title>ExperimentalModule</title>
<polygon fill="#8dd3c7" stroke="#000000" points="317.4692,-122 314.4692,-126 293.4692,-126 290.4692,-122 182.5308,-122 182.5308,-86 317.4692,-86 317.4692,-122"/>
<text text-anchor="middle" x="250" y="-99.8" font-family="Times,serif" font-size="14.00" fill="#000000">ExperimentalModule</text>
</g>
<!-- ExperimentalModule&#45;&gt;PaginationModule -->
<g id="edge2" class="edge">
<title>ExperimentalModule&#45;&gt;PaginationModule</title>
<path fill="none" stroke="#000000" d="M250,-122.1061C250,-122.1061 250,-140.991 250,-140.991"/>
<polygon fill="#000000" stroke="#000000" points="246.5001,-140.9909 250,-150.991 253.5001,-140.991 246.5001,-140.9909"/>
</g>
<!-- I18nModule -->
<g id="node4" class="node">
<title>I18nModule</title>
<polygon fill="#8dd3c7" stroke="#000000" points="164.7107,-122 161.7107,-126 140.7107,-126 137.7107,-122 79.2893,-122 79.2893,-86 164.7107,-86 164.7107,-122"/>
<text text-anchor="middle" x="122" y="-99.8" font-family="Times,serif" font-size="14.00" fill="#000000">I18nModule</text>
</g>
<!-- I18nModule&#45;&gt;PaginationModule -->
<g id="edge3" class="edge">
<title>I18nModule&#45;&gt;PaginationModule</title>
<path fill="none" stroke="#000000" d="M122,-122.1061C122,-141.3391 122,-169 122,-169 122,-169 180.1225,-169 180.1225,-169"/>
<polygon fill="#000000" stroke="#000000" points="180.1225,-172.5001 190.1225,-169 180.1224,-165.5001 180.1225,-172.5001"/>
</g>
</g>
</svg>
