<?xml version="1.0" encoding="UTF-8" standalone="no"?>
<!DOCTYPE svg PUBLIC "-//W3C//DTD SVG 1.1//EN"
 "http://www.w3.org/Graphics/SVG/1.1/DTD/svg11.dtd">
<!-- Generated by graphviz version 2.40.1 (20161225.0304)
 -->
<!-- Title: dependencies Pages: 1 -->
<svg width="504pt" height="284pt"
 viewBox="0.00 0.00 504.00 284.00" xmlns="http://www.w3.org/2000/svg" xmlns:xlink="http://www.w3.org/1999/xlink">
<g id="graph0" class="graph" transform="scale(1 1) rotate(0) translate(4 280)">
<title>dependencies</title>
<polygon fill="#ffffff" stroke="transparent" points="-4,4 -4,-280 500,-280 500,4 -4,4"/>
<text text-anchor="start" x="227.0091" y="-42.4" font-family="sans-serif" font-weight="bold" font-size="14.00" fill="#000000">Legend</text>
<polygon fill="#ffffb3" stroke="transparent" points="14,-10 14,-30 34,-30 34,-10 14,-10"/>
<text text-anchor="start" x="37.629" y="-15.4" font-family="sans-serif" font-size="14.00" fill="#000000"> &#160;Declarations</text>
<polygon fill="#8dd3c7" stroke="transparent" points="127,-10 127,-30 147,-30 147,-10 127,-10"/>
<text text-anchor="start" x="150.7251" y="-15.4" font-family="sans-serif" font-size="14.00" fill="#000000"> &#160;Module</text>
<polygon fill="#80b1d3" stroke="transparent" points="213,-10 213,-30 233,-30 233,-10 213,-10"/>
<text text-anchor="start" x="236.7812" y="-15.4" font-family="sans-serif" font-size="14.00" fill="#000000"> &#160;Bootstrap</text>
<polygon fill="#fdb462" stroke="transparent" points="310,-10 310,-30 330,-30 330,-10 310,-10"/>
<text text-anchor="start" x="333.6732" y="-15.4" font-family="sans-serif" font-size="14.00" fill="#000000"> &#160;Providers</text>
<polygon fill="#fb8072" stroke="transparent" points="406,-10 406,-30 426,-30 426,-10 406,-10"/>
<text text-anchor="start" x="429.7258" y="-15.4" font-family="sans-serif" font-size="14.00" fill="#000000"> &#160;Exports</text>
<g id="clust1" class="cluster">
<title>cluster_PaginationModule</title>
<polygon fill="none" stroke="#000000" stroke-dasharray="1,5" points="139,-70 139,-268 357,-268 357,-70 139,-70"/>
</g>
<g id="clust2" class="cluster">
<title>cluster_PaginationModule_declarations</title>
<polygon fill="none" stroke="#000000" points="257,-78 257,-130 349,-130 349,-78 257,-78"/>
</g>
<g id="clust4" class="cluster">
<title>cluster_PaginationModule_imports</title>
<polygon fill="none" stroke="#000000" points="147,-78 147,-130 249,-130 249,-78 147,-78"/>
</g>
<g id="clust5" class="cluster">
<title>cluster_PaginationModule_exports</title>
<polygon fill="none" stroke="#000000" points="200,-208 200,-260 296,-260 296,-208 200,-208"/>
</g>
<!-- Pagination -->
<g id="node1" class="node">
<title>Pagination</title>
<polygon fill="#ffffb3" stroke="#000000" points="340.8837,-122 265.1163,-122 265.1163,-86 340.8837,-86 340.8837,-122"/>
<text text-anchor="middle" x="303" y="-99.8" font-family="Times,serif" font-size="14.00" fill="#000000">Pagination</text>
</g>
<!-- PaginationModule -->
<g id="node2" class="node">
<title>PaginationModule</title>
<polygon fill="#8dd3c7" stroke="#000000" points="307.9342,-187 304.9342,-191 283.9342,-191 280.9342,-187 188.0658,-187 188.0658,-151 307.9342,-151 307.9342,-187"/>
<text text-anchor="middle" x="248" y="-164.8" font-family="Times,serif" font-size="14.00" fill="#000000">PaginationModule</text>
</g>
<!-- Pagination&#45;&gt;PaginationModule -->
<g id="edge1" class="edge">
<title>Pagination&#45;&gt;PaginationModule</title>
<path fill="none" stroke="#000000" d="M286.3875,-122.1061C286.3875,-122.1061 286.3875,-140.991 286.3875,-140.991"/>
<polygon fill="#000000" stroke="#000000" points="282.8875,-140.9909 286.3875,-150.991 289.8875,-140.991 282.8875,-140.9909"/>
</g>
<!-- Pagination  -->
<g id="node4" class="node">
<title>Pagination </title>
<polygon fill="#fb8072" stroke="#000000" points="287.8845,-252 208.1155,-252 208.1155,-216 287.8845,-216 287.8845,-252"/>
<text text-anchor="middle" x="248" y="-229.8" font-family="Times,serif" font-size="14.00" fill="#000000">Pagination </text>
</g>
<!-- PaginationModule&#45;&gt;Pagination  -->
<g id="edge3" class="edge">
<title>PaginationModule&#45;&gt;Pagination </title>
<path fill="none" stroke="#000000" stroke-dasharray="5,2" d="M248,-187.1061C248,-187.1061 248,-205.991 248,-205.991"/>
<polygon fill="#000000" stroke="#000000" points="244.5001,-205.9909 248,-215.991 251.5001,-205.991 244.5001,-205.9909"/>
</g>
<!-- I18nModule -->
<g id="node3" class="node">
<title>I18nModule</title>
<polygon fill="#8dd3c7" stroke="#000000" points="240.7107,-122 237.7107,-126 216.7107,-126 213.7107,-122 155.2893,-122 155.2893,-86 240.7107,-86 240.7107,-122"/>
<text text-anchor="middle" x="198" y="-99.8" font-family="Times,serif" font-size="14.00" fill="#000000">I18nModule</text>
</g>
<!-- I18nModule&#45;&gt;PaginationModule -->
<g id="edge2" class="edge">
<title>I18nModule&#45;&gt;PaginationModule</title>
<path fill="none" stroke="#000000" d="M214.4443,-122.1061C214.4443,-122.1061 214.4443,-140.991 214.4443,-140.991"/>
<polygon fill="#000000" stroke="#000000" points="210.9443,-140.9909 214.4443,-150.991 217.9443,-140.991 210.9443,-140.9909"/>
</g>
</g>
</svg>
