<?xml version="1.0" encoding="UTF-8" standalone="no"?>
<!DOCTYPE svg PUBLIC "-//W3C//DTD SVG 1.1//EN"
 "http://www.w3.org/Graphics/SVG/1.1/DTD/svg11.dtd">
<!-- Generated by graphviz version 2.40.1 (20161225.0304)
 -->
<!-- Title: dependencies Pages: 1 -->
<svg width="504pt" height="284pt"
 viewBox="0.00 0.00 504.00 284.00" xmlns="http://www.w3.org/2000/svg" xmlns:xlink="http://www.w3.org/1999/xlink">
<g id="graph0" class="graph" transform="scale(1 1) rotate(0) translate(4 280)">
<title>dependencies</title>
<polygon fill="#ffffff" stroke="transparent" points="-4,4 -4,-280 500,-280 500,4 -4,4"/>
<text text-anchor="start" x="227.0091" y="-42.4" font-family="sans-serif" font-weight="bold" font-size="14.00" fill="#000000">Legend</text>
<polygon fill="#ffffb3" stroke="transparent" points="14,-10 14,-30 34,-30 34,-10 14,-10"/>
<text text-anchor="start" x="37.629" y="-15.4" font-family="sans-serif" font-size="14.00" fill="#000000"> &#160;Declarations</text>
<polygon fill="#8dd3c7" stroke="transparent" points="127,-10 127,-30 147,-30 147,-10 127,-10"/>
<text text-anchor="start" x="150.7251" y="-15.4" font-family="sans-serif" font-size="14.00" fill="#000000"> &#160;Module</text>
<polygon fill="#80b1d3" stroke="transparent" points="213,-10 213,-30 233,-30 233,-10 213,-10"/>
<text text-anchor="start" x="236.7812" y="-15.4" font-family="sans-serif" font-size="14.00" fill="#000000"> &#160;Bootstrap</text>
<polygon fill="#fdb462" stroke="transparent" points="310,-10 310,-30 330,-30 330,-10 310,-10"/>
<text text-anchor="start" x="333.6732" y="-15.4" font-family="sans-serif" font-size="14.00" fill="#000000"> &#160;Providers</text>
<polygon fill="#fb8072" stroke="transparent" points="406,-10 406,-30 426,-30 426,-10 406,-10"/>
<text text-anchor="start" x="429.7258" y="-15.4" font-family="sans-serif" font-size="14.00" fill="#000000"> &#160;Exports</text>
<g id="clust1" class="cluster">
<title>cluster_AccordionModule</title>
<polygon fill="none" stroke="#000000" stroke-dasharray="1,5" points="132,-70 132,-268 364,-268 364,-70 132,-70"/>
</g>
<g id="clust2" class="cluster">
<title>cluster_AccordionModule_declarations</title>
<polygon fill="none" stroke="#000000" points="141,-78 141,-130 351,-130 351,-78 141,-78"/>
</g>
<g id="clust6" class="cluster">
<title>cluster_AccordionModule_exports</title>
<polygon fill="none" stroke="#000000" points="140,-208 140,-260 356,-260 356,-208 140,-208"/>
</g>
<!-- Accordion -->
<g id="node1" class="node">
<title>Accordion</title>
<polygon fill="#ffffb3" stroke="#000000" points="342.5871,-122 267.4129,-122 267.4129,-86 342.5871,-86 342.5871,-122"/>
<text text-anchor="middle" x="305" y="-99.8" font-family="Times,serif" font-size="14.00" fill="#000000">Accordion</text>
</g>
<!-- AccordionModule -->
<g id="node3" class="node">
<title>AccordionModule</title>
<polygon fill="#8dd3c7" stroke="#000000" points="307.1374,-187 304.1374,-191 283.1374,-191 280.1374,-187 188.8626,-187 188.8626,-151 307.1374,-151 307.1374,-187"/>
<text text-anchor="middle" x="248" y="-164.8" font-family="Times,serif" font-size="14.00" fill="#000000">AccordionModule</text>
</g>
<!-- Accordion&#45;&gt;AccordionModule -->
<g id="edge1" class="edge">
<title>Accordion&#45;&gt;AccordionModule</title>
<path fill="none" stroke="#000000" d="M287.3875,-122.1061C287.3875,-122.1061 287.3875,-140.991 287.3875,-140.991"/>
<polygon fill="#000000" stroke="#000000" points="283.8875,-140.9909 287.3875,-150.991 290.8875,-140.991 283.8875,-140.9909"/>
</g>
<!-- AccordionItem -->
<g id="node2" class="node">
<title>AccordionItem</title>
<polygon fill="#ffffb3" stroke="#000000" points="249.2437,-122 148.7563,-122 148.7563,-86 249.2437,-86 249.2437,-122"/>
<text text-anchor="middle" x="199" y="-99.8" font-family="Times,serif" font-size="14.00" fill="#000000">AccordionItem</text>
</g>
<!-- AccordionItem&#45;&gt;AccordionModule -->
<g id="edge2" class="edge">
<title>AccordionItem&#45;&gt;AccordionModule</title>
<path fill="none" stroke="#000000" d="M219.0267,-122.1061C219.0267,-122.1061 219.0267,-140.991 219.0267,-140.991"/>
<polygon fill="#000000" stroke="#000000" points="215.5267,-140.9909 219.0267,-150.991 222.5267,-140.991 215.5267,-140.9909"/>
</g>
<!-- Accordion  -->
<g id="node4" class="node">
<title>Accordion </title>
<polygon fill="#fb8072" stroke="#000000" points="348.0881,-252 269.9119,-252 269.9119,-216 348.0881,-216 348.0881,-252"/>
<text text-anchor="middle" x="309" y="-229.8" font-family="Times,serif" font-size="14.00" fill="#000000">Accordion </text>
</g>
<!-- AccordionModule&#45;&gt;Accordion  -->
<g id="edge3" class="edge">
<title>AccordionModule&#45;&gt;Accordion </title>
<path fill="none" stroke="#000000" stroke-dasharray="5,2" d="M288.5125,-187.1061C288.5125,-187.1061 288.5125,-205.991 288.5125,-205.991"/>
<polygon fill="#000000" stroke="#000000" points="285.0125,-205.9909 288.5125,-215.991 292.0125,-205.991 285.0125,-205.9909"/>
</g>
<!-- AccordionItem  -->
<g id="node5" class="node">
<title>AccordionItem </title>
<polygon fill="#fb8072" stroke="#000000" points="252.2437,-252 147.7563,-252 147.7563,-216 252.2437,-216 252.2437,-252"/>
<text text-anchor="middle" x="200" y="-229.8" font-family="Times,serif" font-size="14.00" fill="#000000">AccordionItem </text>
</g>
<!-- AccordionModule&#45;&gt;AccordionItem  -->
<g id="edge4" class="edge">
<title>AccordionModule&#45;&gt;AccordionItem </title>
<path fill="none" stroke="#000000" stroke-dasharray="5,2" d="M220.4017,-187.1061C220.4017,-187.1061 220.4017,-205.991 220.4017,-205.991"/>
<polygon fill="#000000" stroke="#000000" points="216.9017,-205.9909 220.4017,-215.991 223.9017,-205.991 216.9017,-205.9909"/>
</g>
</g>
</svg>
