<?xml version="1.0" encoding="UTF-8" standalone="no"?>
<!DOCTYPE svg PUBLIC "-//W3C//DTD SVG 1.1//EN"
 "http://www.w3.org/Graphics/SVG/1.1/DTD/svg11.dtd">
<!-- Generated by graphviz version 2.40.1 (20161225.0304)
 -->
<!-- Title: dependencies Pages: 1 -->
<svg width="1532pt" height="284pt"
 viewBox="0.00 0.00 1532.00 284.00" xmlns="http://www.w3.org/2000/svg" xmlns:xlink="http://www.w3.org/1999/xlink">
<g id="graph0" class="graph" transform="scale(1 1) rotate(0) translate(4 280)">
<title>dependencies</title>
<polygon fill="#ffffff" stroke="transparent" points="-4,4 -4,-280 1528,-280 1528,4 -4,4"/>
<text text-anchor="start" x="741.0091" y="-42.4" font-family="sans-serif" font-weight="bold" font-size="14.00" fill="#000000">Legend</text>
<polygon fill="#ffffb3" stroke="transparent" points="528,-10 528,-30 548,-30 548,-10 528,-10"/>
<text text-anchor="start" x="551.629" y="-15.4" font-family="sans-serif" font-size="14.00" fill="#000000"> &#160;Declarations</text>
<polygon fill="#8dd3c7" stroke="transparent" points="641,-10 641,-30 661,-30 661,-10 641,-10"/>
<text text-anchor="start" x="664.7251" y="-15.4" font-family="sans-serif" font-size="14.00" fill="#000000"> &#160;Module</text>
<polygon fill="#80b1d3" stroke="transparent" points="727,-10 727,-30 747,-30 747,-10 727,-10"/>
<text text-anchor="start" x="750.7812" y="-15.4" font-family="sans-serif" font-size="14.00" fill="#000000"> &#160;Bootstrap</text>
<polygon fill="#fdb462" stroke="transparent" points="824,-10 824,-30 844,-30 844,-10 824,-10"/>
<text text-anchor="start" x="847.6732" y="-15.4" font-family="sans-serif" font-size="14.00" fill="#000000"> &#160;Providers</text>
<polygon fill="#fb8072" stroke="transparent" points="920,-10 920,-30 940,-30 940,-10 920,-10"/>
<text text-anchor="start" x="943.7258" y="-15.4" font-family="sans-serif" font-size="14.00" fill="#000000"> &#160;Exports</text>
<g id="clust1" class="cluster">
<title>cluster_TableModule</title>
<polygon fill="none" stroke="#000000" stroke-dasharray="1,5" points="8,-70 8,-268 1516,-268 1516,-70 8,-70"/>
</g>
<g id="clust2" class="cluster">
<title>cluster_TableModule_declarations</title>
<polygon fill="none" stroke="#000000" points="601,-78 601,-130 1508,-130 1508,-78 601,-78"/>
</g>
<g id="clust10" class="cluster">
<title>cluster_TableModule_imports</title>
<polygon fill="none" stroke="#000000" points="16,-78 16,-130 593,-130 593,-78 16,-78"/>
</g>
<g id="clust11" class="cluster">
<title>cluster_TableModule_exports</title>
<polygon fill="none" stroke="#000000" points="226,-208 226,-260 1155,-260 1155,-208 226,-208"/>
</g>
<!-- DataGridFocus -->
<g id="node1" class="node">
<title>DataGridFocus</title>
<polygon fill="#ffffb3" stroke="#000000" points="1499.5271,-122 1398.4729,-122 1398.4729,-86 1499.5271,-86 1499.5271,-122"/>
<text text-anchor="middle" x="1449" y="-99.8" font-family="Times,serif" font-size="14.00" fill="#000000">DataGridFocus</text>
</g>
<!-- TableModule -->
<g id="node8" class="node">
<title>TableModule</title>
<polygon fill="#8dd3c7" stroke="#000000" points="794.9232,-187 791.9232,-191 770.9232,-191 767.9232,-187 703.0768,-187 703.0768,-151 794.9232,-151 794.9232,-187"/>
<text text-anchor="middle" x="749" y="-164.8" font-family="Times,serif" font-size="14.00" fill="#000000">TableModule</text>
</g>
<!-- DataGridFocus&#45;&gt;TableModule -->
<g id="edge1" class="edge">
<title>DataGridFocus&#45;&gt;TableModule</title>
<path fill="none" stroke="#000000" d="M1449,-122.308C1449,-142.1455 1449,-171 1449,-171 1449,-171 804.929,-171 804.929,-171"/>
<polygon fill="#000000" stroke="#000000" points="804.929,-167.5001 794.929,-171 804.9289,-174.5001 804.929,-167.5001"/>
</g>
<!-- ExpandedRowHover -->
<g id="node2" class="node">
<title>ExpandedRowHover</title>
<polygon fill="#ffffb3" stroke="#000000" points="1380.9074,-122 1247.0926,-122 1247.0926,-86 1380.9074,-86 1380.9074,-122"/>
<text text-anchor="middle" x="1314" y="-99.8" font-family="Times,serif" font-size="14.00" fill="#000000">ExpandedRowHover</text>
</g>
<!-- ExpandedRowHover&#45;&gt;TableModule -->
<g id="edge2" class="edge">
<title>ExpandedRowHover&#45;&gt;TableModule</title>
<path fill="none" stroke="#000000" d="M1314,-122.2222C1314,-140.8285 1314,-167 1314,-167 1314,-167 804.7577,-167 804.7577,-167"/>
<polygon fill="#000000" stroke="#000000" points="804.7578,-163.5001 794.7577,-167 804.7577,-170.5001 804.7578,-163.5001"/>
</g>
<!-- Table -->
<g id="node3" class="node">
<title>Table</title>
<polygon fill="#ffffb3" stroke="#000000" points="1229,-122 1175,-122 1175,-86 1229,-86 1229,-122"/>
<text text-anchor="middle" x="1202" y="-99.8" font-family="Times,serif" font-size="14.00" fill="#000000">Table</text>
</g>
<!-- Table&#45;&gt;TableModule -->
<g id="edge3" class="edge">
<title>Table&#45;&gt;TableModule</title>
<path fill="none" stroke="#000000" d="M1202,-122.0225C1202,-139.3734 1202,-163 1202,-163 1202,-163 804.929,-163 804.929,-163"/>
<polygon fill="#000000" stroke="#000000" points="804.929,-159.5001 794.929,-163 804.929,-166.5001 804.929,-159.5001"/>
</g>
<!-- TableToolbar -->
<g id="node4" class="node">
<title>TableToolbar</title>
<polygon fill="#ffffb3" stroke="#000000" points="1157.191,-122 1064.809,-122 1064.809,-86 1157.191,-86 1157.191,-122"/>
<text text-anchor="middle" x="1111" y="-99.8" font-family="Times,serif" font-size="14.00" fill="#000000">TableToolbar</text>
</g>
<!-- TableToolbar&#45;&gt;TableModule -->
<g id="edge4" class="edge">
<title>TableToolbar&#45;&gt;TableModule</title>
<path fill="none" stroke="#000000" d="M1105.7088,-122.0091C1105.7088,-138.0494 1105.7088,-159 1105.7088,-159 1105.7088,-159 804.9032,-159 804.9032,-159"/>
<polygon fill="#000000" stroke="#000000" points="804.9032,-155.5001 794.9032,-159 804.9031,-162.5001 804.9032,-155.5001"/>
</g>
<!-- TableToolbarActions -->
<g id="node5" class="node">
<title>TableToolbarActions</title>
<polygon fill="#ffffb3" stroke="#000000" points="1046.7381,-122 911.2619,-122 911.2619,-86 1046.7381,-86 1046.7381,-122"/>
<text text-anchor="middle" x="979" y="-99.8" font-family="Times,serif" font-size="14.00" fill="#000000">TableToolbarActions</text>
</g>
<!-- TableToolbarActions&#45;&gt;TableModule -->
<g id="edge5" class="edge">
<title>TableToolbarActions&#45;&gt;TableModule</title>
<path fill="none" stroke="#000000" d="M967.2923,-122.1243C967.2923,-136.7832 967.2923,-155 967.2923,-155 967.2923,-155 804.7612,-155 804.7612,-155"/>
<polygon fill="#000000" stroke="#000000" points="804.7612,-151.5001 794.7612,-155 804.7612,-158.5001 804.7612,-151.5001"/>
</g>
<!-- TableToolbarContent -->
<g id="node6" class="node">
<title>TableToolbarContent</title>
<polygon fill="#ffffb3" stroke="#000000" points="893.024,-122 756.976,-122 756.976,-86 893.024,-86 893.024,-122"/>
<text text-anchor="middle" x="825" y="-99.8" font-family="Times,serif" font-size="14.00" fill="#000000">TableToolbarContent</text>
</g>
<!-- TableToolbarContent&#45;&gt;TableModule -->
<g id="edge6" class="edge">
<title>TableToolbarContent&#45;&gt;TableModule</title>
<path fill="none" stroke="#000000" d="M775.7248,-122.1061C775.7248,-122.1061 775.7248,-140.991 775.7248,-140.991"/>
<polygon fill="#000000" stroke="#000000" points="772.2248,-140.9909 775.7248,-150.991 779.2248,-140.991 772.2248,-140.9909"/>
</g>
<!-- TableToolbarSearch -->
<g id="node7" class="node">
<title>TableToolbarSearch</title>
<polygon fill="#ffffb3" stroke="#000000" points="739.2781,-122 608.7219,-122 608.7219,-86 739.2781,-86 739.2781,-122"/>
<text text-anchor="middle" x="674" y="-99.8" font-family="Times,serif" font-size="14.00" fill="#000000">TableToolbarSearch</text>
</g>
<!-- TableToolbarSearch&#45;&gt;TableModule -->
<g id="edge7" class="edge">
<title>TableToolbarSearch&#45;&gt;TableModule</title>
<path fill="none" stroke="#000000" d="M721.2139,-122.1061C721.2139,-122.1061 721.2139,-140.991 721.2139,-140.991"/>
<polygon fill="#000000" stroke="#000000" points="717.714,-140.9909 721.2139,-150.991 724.714,-140.991 717.714,-140.9909"/>
</g>
<!-- DataGridFocus  -->
<g id="node14" class="node">
<title>DataGridFocus </title>
<polygon fill="#fb8072" stroke="#000000" points="1146.526,-252 1041.474,-252 1041.474,-216 1146.526,-216 1146.526,-252"/>
<text text-anchor="middle" x="1094" y="-229.8" font-family="Times,serif" font-size="14.00" fill="#000000">DataGridFocus </text>
</g>
<!-- TableModule&#45;&gt;DataGridFocus  -->
<g id="edge13" class="edge">
<title>TableModule&#45;&gt;DataGridFocus </title>
<path fill="none" stroke="#000000" stroke-dasharray="5,2" d="M794.944,-175C880.5552,-175 1055.8867,-175 1055.8867,-175 1055.8867,-175 1055.8867,-205.9775 1055.8867,-205.9775"/>
<polygon fill="#000000" stroke="#000000" points="1052.3868,-205.9774 1055.8867,-215.9775 1059.3868,-205.9775 1052.3868,-205.9774"/>
</g>
<!-- ExpandedRowHover  -->
<g id="node15" class="node">
<title>ExpandedRowHover </title>
<polygon fill="#fb8072" stroke="#000000" points="1023.4068,-252 886.5932,-252 886.5932,-216 1023.4068,-216 1023.4068,-252"/>
<text text-anchor="middle" x="955" y="-229.8" font-family="Times,serif" font-size="14.00" fill="#000000">ExpandedRowHover </text>
</g>
<!-- TableModule&#45;&gt;ExpandedRowHover  -->
<g id="edge14" class="edge">
<title>TableModule&#45;&gt;ExpandedRowHover </title>
<path fill="none" stroke="#000000" stroke-dasharray="5,2" d="M794.964,-179C840.0889,-179 902.1964,-179 902.1964,-179 902.1964,-179 902.1964,-205.9909 902.1964,-205.9909"/>
<polygon fill="#000000" stroke="#000000" points="898.6964,-205.9909 902.1964,-215.9909 905.6964,-205.991 898.6964,-205.9909"/>
</g>
<!-- Table  -->
<g id="node16" class="node">
<title>Table </title>
<polygon fill="#fb8072" stroke="#000000" points="869,-252 815,-252 815,-216 869,-216 869,-252"/>
<text text-anchor="middle" x="842" y="-229.8" font-family="Times,serif" font-size="14.00" fill="#000000">Table </text>
</g>
<!-- TableModule&#45;&gt;Table  -->
<g id="edge15" class="edge">
<title>TableModule&#45;&gt;Table </title>
<path fill="none" stroke="#000000" stroke-dasharray="5,2" d="M794.9551,-183C818.3853,-183 842,-183 842,-183 842,-183 842,-205.8757 842,-205.8757"/>
<polygon fill="#000000" stroke="#000000" points="838.5001,-205.8757 842,-215.8757 845.5001,-205.8757 838.5001,-205.8757"/>
</g>
<!-- TableToolbar  -->
<g id="node17" class="node">
<title>TableToolbar </title>
<polygon fill="#fb8072" stroke="#000000" points="796.6913,-252 701.3087,-252 701.3087,-216 796.6913,-216 796.6913,-252"/>
<text text-anchor="middle" x="749" y="-229.8" font-family="Times,serif" font-size="14.00" fill="#000000">TableToolbar </text>
</g>
<!-- TableModule&#45;&gt;TableToolbar  -->
<g id="edge16" class="edge">
<title>TableModule&#45;&gt;TableToolbar </title>
<path fill="none" stroke="#000000" stroke-dasharray="5,2" d="M749,-187.1061C749,-187.1061 749,-205.991 749,-205.991"/>
<polygon fill="#000000" stroke="#000000" points="745.5001,-205.9909 749,-215.991 752.5001,-205.991 745.5001,-205.9909"/>
</g>
<!-- TableToolbarActions  -->
<g id="node18" class="node">
<title>TableToolbarActions </title>
<polygon fill="#fb8072" stroke="#000000" points="683.738,-252 544.262,-252 544.262,-216 683.738,-216 683.738,-252"/>
<text text-anchor="middle" x="614" y="-229.8" font-family="Times,serif" font-size="14.00" fill="#000000">TableToolbarActions </text>
</g>
<!-- TableModule&#45;&gt;TableToolbarActions  -->
<g id="edge17" class="edge">
<title>TableModule&#45;&gt;TableToolbarActions </title>
<path fill="none" stroke="#000000" stroke-dasharray="5,2" d="M703.0301,-183C675.6697,-183 646.24,-183 646.24,-183 646.24,-183 646.24,-205.8757 646.24,-205.8757"/>
<polygon fill="#000000" stroke="#000000" points="642.7401,-205.8757 646.24,-215.8757 649.7401,-205.8757 642.7401,-205.8757"/>
</g>
<!-- TableToolbarContent  -->
<g id="node19" class="node">
<title>TableToolbarContent </title>
<polygon fill="#fb8072" stroke="#000000" points="526.0232,-252 385.9768,-252 385.9768,-216 526.0232,-216 526.0232,-252"/>
<text text-anchor="middle" x="456" y="-229.8" font-family="Times,serif" font-size="14.00" fill="#000000">TableToolbarContent </text>
</g>
<!-- TableModule&#45;&gt;TableToolbarContent  -->
<g id="edge18" class="edge">
<title>TableModule&#45;&gt;TableToolbarContent </title>
<path fill="none" stroke="#000000" stroke-dasharray="5,2" d="M703.1201,-179C632.8437,-179 506.5928,-179 506.5928,-179 506.5928,-179 506.5928,-205.9909 506.5928,-205.9909"/>
<polygon fill="#000000" stroke="#000000" points="503.0928,-205.9909 506.5928,-215.9909 510.0928,-205.991 503.0928,-205.9909"/>
</g>
<!-- TableToolbarSearch  -->
<g id="node20" class="node">
<title>TableToolbarSearch </title>
<polygon fill="#fb8072" stroke="#000000" points="367.778,-252 234.222,-252 234.222,-216 367.778,-216 367.778,-252"/>
<text text-anchor="middle" x="301" y="-229.8" font-family="Times,serif" font-size="14.00" fill="#000000">TableToolbarSearch </text>
</g>
<!-- TableModule&#45;&gt;TableToolbarSearch  -->
<g id="edge19" class="edge">
<title>TableModule&#45;&gt;TableToolbarSearch </title>
<path fill="none" stroke="#000000" stroke-dasharray="5,2" d="M703.2543,-175C590.7973,-175 309.9292,-175 309.9292,-175 309.9292,-175 309.9292,-205.9775 309.9292,-205.9775"/>
<polygon fill="#000000" stroke="#000000" points="306.4293,-205.9774 309.9292,-215.9775 313.4293,-205.9775 306.4293,-205.9774"/>
</g>
<!-- DialogModule -->
<g id="node9" class="node">
<title>DialogModule</title>
<polygon fill="#8dd3c7" stroke="#000000" points="584.6528,-122 581.6528,-126 560.6528,-126 557.6528,-122 487.3472,-122 487.3472,-86 584.6528,-86 584.6528,-122"/>
<text text-anchor="middle" x="536" y="-99.8" font-family="Times,serif" font-size="14.00" fill="#000000">DialogModule</text>
</g>
<!-- DialogModule&#45;&gt;TableModule -->
<g id="edge8" class="edge">
<title>DialogModule&#45;&gt;TableModule</title>
<path fill="none" stroke="#000000" d="M564.6036,-122.1243C564.6036,-136.7832 564.6036,-155 564.6036,-155 564.6036,-155 692.9447,-155 692.9447,-155"/>
<polygon fill="#000000" stroke="#000000" points="692.9447,-158.5001 702.9447,-155 692.9446,-151.5001 692.9447,-158.5001"/>
</g>
<!-- I18nModule -->
<g id="node10" class="node">
<title>I18nModule</title>
<polygon fill="#8dd3c7" stroke="#000000" points="469.7107,-122 466.7107,-126 445.7107,-126 442.7107,-122 384.2893,-122 384.2893,-86 469.7107,-86 469.7107,-122"/>
<text text-anchor="middle" x="427" y="-99.8" font-family="Times,serif" font-size="14.00" fill="#000000">I18nModule</text>
</g>
<!-- I18nModule&#45;&gt;TableModule -->
<g id="edge9" class="edge">
<title>I18nModule&#45;&gt;TableModule</title>
<path fill="none" stroke="#000000" d="M427.7968,-122.0091C427.7968,-138.0494 427.7968,-159 427.7968,-159 427.7968,-159 692.9794,-159 692.9794,-159"/>
<polygon fill="#000000" stroke="#000000" points="692.9794,-162.5001 702.9794,-159 692.9794,-155.5001 692.9794,-162.5001"/>
</g>
<!-- IconModule -->
<g id="node11" class="node">
<title>IconModule</title>
<polygon fill="#8dd3c7" stroke="#000000" points="366.4261,-122 363.4261,-126 342.4261,-126 339.4261,-122 281.5739,-122 281.5739,-86 366.4261,-86 366.4261,-122"/>
<text text-anchor="middle" x="324" y="-99.8" font-family="Times,serif" font-size="14.00" fill="#000000">IconModule</text>
</g>
<!-- IconModule&#45;&gt;TableModule -->
<g id="edge10" class="edge">
<title>IconModule&#45;&gt;TableModule</title>
<path fill="none" stroke="#000000" d="M338.0708,-122.0225C338.0708,-139.3734 338.0708,-163 338.0708,-163 338.0708,-163 693.0573,-163 693.0573,-163"/>
<polygon fill="#000000" stroke="#000000" points="693.0574,-166.5001 703.0573,-163 693.0573,-159.5001 693.0574,-166.5001"/>
</g>
<!-- NFormsModule -->
<g id="node12" class="node">
<title>NFormsModule</title>
<polygon fill="#8dd3c7" stroke="#000000" points="263.9357,-122 260.9357,-126 239.9357,-126 236.9357,-122 158.0643,-122 158.0643,-86 263.9357,-86 263.9357,-122"/>
<text text-anchor="middle" x="211" y="-99.8" font-family="Times,serif" font-size="14.00" fill="#000000">NFormsModule</text>
</g>
<!-- NFormsModule&#45;&gt;TableModule -->
<g id="edge11" class="edge">
<title>NFormsModule&#45;&gt;TableModule</title>
<path fill="none" stroke="#000000" d="M248.9143,-122.2222C248.9143,-140.8285 248.9143,-167 248.9143,-167 248.9143,-167 692.8495,-167 692.8495,-167"/>
<polygon fill="#000000" stroke="#000000" points="692.8495,-170.5001 702.8495,-167 692.8495,-163.5001 692.8495,-170.5001"/>
</g>
<!-- StaticIconModule -->
<g id="node13" class="node">
<title>StaticIconModule</title>
<polygon fill="#8dd3c7" stroke="#000000" points="140.309,-122 137.309,-126 116.309,-126 113.309,-122 23.691,-122 23.691,-86 140.309,-86 140.309,-122"/>
<text text-anchor="middle" x="82" y="-99.8" font-family="Times,serif" font-size="14.00" fill="#000000">StaticIconModule</text>
</g>
<!-- StaticIconModule&#45;&gt;TableModule -->
<g id="edge12" class="edge">
<title>StaticIconModule&#45;&gt;TableModule</title>
<path fill="none" stroke="#000000" d="M82,-122.308C82,-142.1455 82,-171 82,-171 82,-171 693.1544,-171 693.1544,-171"/>
<polygon fill="#000000" stroke="#000000" points="693.1544,-174.5001 703.1544,-171 693.1544,-167.5001 693.1544,-174.5001"/>
</g>
</g>
</svg>
