<?xml version="1.0" encoding="UTF-8" standalone="no"?>
<!DOCTYPE svg PUBLIC "-//W3C//DTD SVG 1.1//EN"
 "http://www.w3.org/Graphics/SVG/1.1/DTD/svg11.dtd">
<!-- Generated by graphviz version 2.40.1 (20161225.0304)
 -->
<!-- Title: dependencies Pages: 1 -->
<svg width="1442pt" height="284pt"
 viewBox="0.00 0.00 1442.00 284.00" xmlns="http://www.w3.org/2000/svg" xmlns:xlink="http://www.w3.org/1999/xlink">
<g id="graph0" class="graph" transform="scale(1 1) rotate(0) translate(4 280)">
<title>dependencies</title>
<polygon fill="#ffffff" stroke="transparent" points="-4,4 -4,-280 1438,-280 1438,4 -4,4"/>
<text text-anchor="start" x="696.0091" y="-42.4" font-family="sans-serif" font-weight="bold" font-size="14.00" fill="#000000">Legend</text>
<polygon fill="#ffffb3" stroke="transparent" points="483,-10 483,-30 503,-30 503,-10 483,-10"/>
<text text-anchor="start" x="506.629" y="-15.4" font-family="sans-serif" font-size="14.00" fill="#000000"> &#160;Declarations</text>
<polygon fill="#8dd3c7" stroke="transparent" points="596,-10 596,-30 616,-30 616,-10 596,-10"/>
<text text-anchor="start" x="619.7251" y="-15.4" font-family="sans-serif" font-size="14.00" fill="#000000"> &#160;Module</text>
<polygon fill="#80b1d3" stroke="transparent" points="682,-10 682,-30 702,-30 702,-10 682,-10"/>
<text text-anchor="start" x="705.7812" y="-15.4" font-family="sans-serif" font-size="14.00" fill="#000000"> &#160;Bootstrap</text>
<polygon fill="#fdb462" stroke="transparent" points="779,-10 779,-30 799,-30 799,-10 779,-10"/>
<text text-anchor="start" x="802.6732" y="-15.4" font-family="sans-serif" font-size="14.00" fill="#000000"> &#160;Providers</text>
<polygon fill="#fb8072" stroke="transparent" points="875,-10 875,-30 895,-30 895,-10 875,-10"/>
<text text-anchor="start" x="898.7258" y="-15.4" font-family="sans-serif" font-size="14.00" fill="#000000"> &#160;Exports</text>
<g id="clust1" class="cluster">
<title>cluster_ModalModule</title>
<polygon fill="none" stroke="#000000" stroke-dasharray="1,5" points="8,-70 8,-268 1426,-268 1426,-70 8,-70"/>
</g>
<g id="clust2" class="cluster">
<title>cluster_ModalModule_declarations</title>
<polygon fill="none" stroke="#000000" points="426,-78 426,-130 1418,-130 1418,-78 426,-78"/>
</g>
<g id="clust9" class="cluster">
<title>cluster_ModalModule_imports</title>
<polygon fill="none" stroke="#000000" points="170,-78 170,-130 418,-130 418,-78 170,-78"/>
</g>
<g id="clust10" class="cluster">
<title>cluster_ModalModule_exports</title>
<polygon fill="none" stroke="#000000" points="230,-208 230,-260 1097,-260 1097,-208 230,-208"/>
</g>
<g id="clust12" class="cluster">
<title>cluster_ModalModule_providers</title>
<polygon fill="none" stroke="#000000" points="16,-78 16,-130 162,-130 162,-78 16,-78"/>
</g>
<!-- AlertModalComponent -->
<g id="node1" class="node">
<title>AlertModalComponent</title>
<polygon fill="#ffffb3" stroke="#000000" points="1410.1456,-122 1263.8544,-122 1263.8544,-86 1410.1456,-86 1410.1456,-122"/>
<text text-anchor="middle" x="1337" y="-99.8" font-family="Times,serif" font-size="14.00" fill="#000000">AlertModalComponent</text>
</g>
<!-- ModalModule -->
<g id="node7" class="node">
<title>ModalModule</title>
<polygon fill="#8dd3c7" stroke="#000000" points="703.0997,-187 700.0997,-191 679.0997,-191 676.0997,-187 606.9003,-187 606.9003,-151 703.0997,-151 703.0997,-187"/>
<text text-anchor="middle" x="655" y="-164.8" font-family="Times,serif" font-size="14.00" fill="#000000">ModalModule</text>
</g>
<!-- AlertModalComponent&#45;&gt;ModalModule -->
<g id="edge1" class="edge">
<title>AlertModalComponent&#45;&gt;ModalModule</title>
<path fill="none" stroke="#000000" d="M1337,-122.2228C1337,-142.3652 1337,-172 1337,-172 1337,-172 713.2286,-172 713.2286,-172"/>
<polygon fill="#000000" stroke="#000000" points="713.2287,-168.5001 703.2286,-172 713.2286,-175.5001 713.2287,-168.5001"/>
</g>
<!-- ModalPlaceholderComponent -->
<g id="node2" class="node">
<title>ModalPlaceholderComponent</title>
<polygon fill="#ffffb3" stroke="#000000" points="1245.965,-122 1062.035,-122 1062.035,-86 1245.965,-86 1245.965,-122"/>
<text text-anchor="middle" x="1154" y="-99.8" font-family="Times,serif" font-size="14.00" fill="#000000">ModalPlaceholderComponent</text>
</g>
<!-- ModalPlaceholderComponent&#45;&gt;ModalModule -->
<g id="edge2" class="edge">
<title>ModalPlaceholderComponent&#45;&gt;ModalModule</title>
<path fill="none" stroke="#000000" d="M1075.5451,-122.2222C1075.5451,-140.8285 1075.5451,-167 1075.5451,-167 1075.5451,-167 713.2419,-167 713.2419,-167"/>
<polygon fill="#000000" stroke="#000000" points="713.2419,-163.5001 703.2419,-167 713.2418,-170.5001 713.2419,-163.5001"/>
</g>
<!-- ModalComponent -->
<g id="node3" class="node">
<title>ModalComponent</title>
<polygon fill="#ffffb3" stroke="#000000" points="1043.8823,-122 926.1177,-122 926.1177,-86 1043.8823,-86 1043.8823,-122"/>
<text text-anchor="middle" x="985" y="-99.8" font-family="Times,serif" font-size="14.00" fill="#000000">ModalComponent</text>
</g>
<!-- ModalComponent&#45;&gt;ModalModule -->
<g id="edge3" class="edge">
<title>ModalComponent&#45;&gt;ModalModule</title>
<path fill="none" stroke="#000000" d="M932.4932,-122.0336C932.4932,-139.0597 932.4932,-162 932.4932,-162 932.4932,-162 713.3356,-162 713.3356,-162"/>
<polygon fill="#000000" stroke="#000000" points="713.3357,-158.5001 703.3356,-162 713.3356,-165.5001 713.3357,-158.5001"/>
</g>
<!-- ModalHeaderComponent -->
<g id="node4" class="node">
<title>ModalHeaderComponent</title>
<polygon fill="#ffffb3" stroke="#000000" points="908.2935,-122 749.7065,-122 749.7065,-86 908.2935,-86 908.2935,-122"/>
<text text-anchor="middle" x="829" y="-99.8" font-family="Times,serif" font-size="14.00" fill="#000000">ModalHeaderComponent</text>
</g>
<!-- ModalHeaderComponent&#45;&gt;ModalModule -->
<g id="edge4" class="edge">
<title>ModalHeaderComponent&#45;&gt;ModalModule</title>
<path fill="none" stroke="#000000" d="M829,-122.2396C829,-137.5706 829,-157 829,-157 829,-157 713.4687,-157 713.4687,-157"/>
<polygon fill="#000000" stroke="#000000" points="713.4687,-153.5001 703.4687,-157 713.4687,-160.5001 713.4687,-153.5001"/>
</g>
<!-- ModalFooterComponent -->
<g id="node5" class="node">
<title>ModalFooterComponent</title>
<polygon fill="#ffffb3" stroke="#000000" points="732.4312,-122 577.5688,-122 577.5688,-86 732.4312,-86 732.4312,-122"/>
<text text-anchor="middle" x="655" y="-99.8" font-family="Times,serif" font-size="14.00" fill="#000000">ModalFooterComponent</text>
</g>
<!-- ModalFooterComponent&#45;&gt;ModalModule -->
<g id="edge5" class="edge">
<title>ModalFooterComponent&#45;&gt;ModalModule</title>
<path fill="none" stroke="#000000" d="M655,-122.1061C655,-122.1061 655,-140.991 655,-140.991"/>
<polygon fill="#000000" stroke="#000000" points="651.5001,-140.9909 655,-150.991 658.5001,-140.991 651.5001,-140.9909"/>
</g>
<!-- OverlayComponent -->
<g id="node6" class="node">
<title>OverlayComponent</title>
<polygon fill="#ffffb3" stroke="#000000" points="560.4201,-122 433.5799,-122 433.5799,-86 560.4201,-86 560.4201,-122"/>
<text text-anchor="middle" x="497" y="-99.8" font-family="Times,serif" font-size="14.00" fill="#000000">OverlayComponent</text>
</g>
<!-- OverlayComponent&#45;&gt;ModalModule -->
<g id="edge6" class="edge">
<title>OverlayComponent&#45;&gt;ModalModule</title>
<path fill="none" stroke="#000000" d="M497,-122.2396C497,-137.5706 497,-157 497,-157 497,-157 596.7363,-157 596.7363,-157"/>
<polygon fill="#000000" stroke="#000000" points="596.7363,-160.5001 606.7363,-157 596.7362,-153.5001 596.7363,-160.5001"/>
</g>
<!-- AlertModalComponent  -->
<g id="node10" class="node">
<title>AlertModalComponent </title>
<polygon fill="#fb8072" stroke="#000000" points="1089.1453,-252 938.8547,-252 938.8547,-216 1089.1453,-216 1089.1453,-252"/>
<text text-anchor="middle" x="1014" y="-229.8" font-family="Times,serif" font-size="14.00" fill="#000000">AlertModalComponent </text>
</g>
<!-- ModalModule&#45;&gt;AlertModalComponent  -->
<g id="edge9" class="edge">
<title>ModalModule&#45;&gt;AlertModalComponent </title>
<path fill="none" stroke="#000000" stroke-dasharray="5,2" d="M703.2028,-177C796.2299,-177 991.4343,-177 991.4343,-177 991.4343,-177 991.4343,-205.9648 991.4343,-205.9648"/>
<polygon fill="#000000" stroke="#000000" points="987.9343,-205.9648 991.4343,-215.9648 994.9343,-205.9649 987.9343,-205.9648"/>
</g>
<!-- ModalPlaceholderComponent  -->
<g id="node11" class="node">
<title>ModalPlaceholderComponent </title>
<polygon fill="#fb8072" stroke="#000000" points="920.9656,-252 733.0344,-252 733.0344,-216 920.9656,-216 920.9656,-252"/>
<text text-anchor="middle" x="827" y="-229.8" font-family="Times,serif" font-size="14.00" fill="#000000">ModalPlaceholderComponent </text>
</g>
<!-- ModalModule&#45;&gt;ModalPlaceholderComponent  -->
<g id="edge10" class="edge">
<title>ModalModule&#45;&gt;ModalPlaceholderComponent </title>
<path fill="none" stroke="#000000" stroke-dasharray="5,2" d="M703.0897,-182C723.0133,-182 741.5604,-182 741.5604,-182 741.5604,-182 741.5604,-205.8129 741.5604,-205.8129"/>
<polygon fill="#000000" stroke="#000000" points="738.0605,-205.8129 741.5604,-215.8129 745.0605,-205.813 738.0605,-205.8129"/>
</g>
<!-- ModalComponent  -->
<g id="node12" class="node">
<title>ModalComponent </title>
<polygon fill="#fb8072" stroke="#000000" points="715.8828,-252 594.1172,-252 594.1172,-216 715.8828,-216 715.8828,-252"/>
<text text-anchor="middle" x="655" y="-229.8" font-family="Times,serif" font-size="14.00" fill="#000000">ModalComponent </text>
</g>
<!-- ModalModule&#45;&gt;ModalComponent  -->
<g id="edge11" class="edge">
<title>ModalModule&#45;&gt;ModalComponent </title>
<path fill="none" stroke="#000000" stroke-dasharray="5,2" d="M655,-187.1061C655,-187.1061 655,-205.991 655,-205.991"/>
<polygon fill="#000000" stroke="#000000" points="651.5001,-205.9909 655,-215.991 658.5001,-205.991 651.5001,-205.9909"/>
</g>
<!-- ModalHeaderComponent  -->
<g id="node13" class="node">
<title>ModalHeaderComponent </title>
<polygon fill="#fb8072" stroke="#000000" points="575.7933,-252 414.2067,-252 414.2067,-216 575.7933,-216 575.7933,-252"/>
<text text-anchor="middle" x="495" y="-229.8" font-family="Times,serif" font-size="14.00" fill="#000000">ModalHeaderComponent </text>
</g>
<!-- ModalModule&#45;&gt;ModalHeaderComponent  -->
<g id="edge12" class="edge">
<title>ModalModule&#45;&gt;ModalHeaderComponent </title>
<path fill="none" stroke="#000000" stroke-dasharray="5,2" d="M606.949,-182C586.8406,-182 568.0532,-182 568.0532,-182 568.0532,-182 568.0532,-205.8129 568.0532,-205.8129"/>
<polygon fill="#000000" stroke="#000000" points="564.5532,-205.8129 568.0532,-215.8129 571.5532,-205.813 564.5532,-205.8129"/>
</g>
<!-- ModalFooterComponent  -->
<g id="node14" class="node">
<title>ModalFooterComponent </title>
<polygon fill="#fb8072" stroke="#000000" points="395.9306,-252 238.0694,-252 238.0694,-216 395.9306,-216 395.9306,-252"/>
<text text-anchor="middle" x="317" y="-229.8" font-family="Times,serif" font-size="14.00" fill="#000000">ModalFooterComponent </text>
</g>
<!-- ModalModule&#45;&gt;ModalFooterComponent  -->
<g id="edge13" class="edge">
<title>ModalModule&#45;&gt;ModalFooterComponent </title>
<path fill="none" stroke="#000000" stroke-dasharray="5,2" d="M606.6497,-177C521.5826,-177 354.0658,-177 354.0658,-177 354.0658,-177 354.0658,-205.9648 354.0658,-205.9648"/>
<polygon fill="#000000" stroke="#000000" points="350.5658,-205.9648 354.0658,-215.9648 357.5658,-205.9649 350.5658,-205.9648"/>
</g>
<!-- ButtonModule -->
<g id="node8" class="node">
<title>ButtonModule</title>
<polygon fill="#8dd3c7" stroke="#000000" points="409.6682,-122 406.6682,-126 385.6682,-126 382.6682,-122 312.3318,-122 312.3318,-86 409.6682,-86 409.6682,-122"/>
<text text-anchor="middle" x="361" y="-99.8" font-family="Times,serif" font-size="14.00" fill="#000000">ButtonModule</text>
</g>
<!-- ButtonModule&#45;&gt;ModalModule -->
<g id="edge7" class="edge">
<title>ButtonModule&#45;&gt;ModalModule</title>
<path fill="none" stroke="#000000" d="M402.8995,-122.0336C402.8995,-139.0597 402.8995,-162 402.8995,-162 402.8995,-162 596.6908,-162 596.6908,-162"/>
<polygon fill="#000000" stroke="#000000" points="596.6908,-165.5001 606.6908,-162 596.6908,-158.5001 596.6908,-165.5001"/>
</g>
<!-- StaticIconModule -->
<g id="node9" class="node">
<title>StaticIconModule</title>
<polygon fill="#8dd3c7" stroke="#000000" points="294.309,-122 291.309,-126 270.309,-126 267.309,-122 177.691,-122 177.691,-86 294.309,-86 294.309,-122"/>
<text text-anchor="middle" x="236" y="-99.8" font-family="Times,serif" font-size="14.00" fill="#000000">StaticIconModule</text>
</g>
<!-- StaticIconModule&#45;&gt;ModalModule -->
<g id="edge8" class="edge">
<title>StaticIconModule&#45;&gt;ModalModule</title>
<path fill="none" stroke="#000000" d="M266.0945,-122.2222C266.0945,-140.8285 266.0945,-167 266.0945,-167 266.0945,-167 596.9225,-167 596.9225,-167"/>
<polygon fill="#000000" stroke="#000000" points="596.9225,-170.5001 606.9225,-167 596.9225,-163.5001 596.9225,-170.5001"/>
</g>
<!-- ModalService -->
<g id="node15" class="node">
<title>ModalService</title>
<ellipse fill="#fdb462" stroke="#000000" cx="89" cy="-104" rx="65.4072" ry="18"/>
<text text-anchor="middle" x="89" y="-99.8" font-family="Times,serif" font-size="14.00" fill="#000000">ModalService</text>
</g>
<!-- ModalService&#45;&gt;ModalModule -->
<g id="edge14" class="edge">
<title>ModalService&#45;&gt;ModalModule</title>
<path fill="none" stroke="#000000" d="M89,-122.2228C89,-142.3652 89,-172 89,-172 89,-172 596.7432,-172 596.7432,-172"/>
<polygon fill="#000000" stroke="#000000" points="596.7432,-175.5001 606.7432,-172 596.7431,-168.5001 596.7432,-175.5001"/>
</g>
</g>
</svg>
