<?xml version="1.0" encoding="UTF-8" standalone="no"?>
<!DOCTYPE svg PUBLIC "-//W3C//DTD SVG 1.1//EN"
 "http://www.w3.org/Graphics/SVG/1.1/DTD/svg11.dtd">
<!-- Generated by graphviz version 2.40.1 (20161225.0304)
 -->
<!-- Title: dependencies Pages: 1 -->
<svg width="1301pt" height="284pt"
 viewBox="0.00 0.00 1301.00 284.00" xmlns="http://www.w3.org/2000/svg" xmlns:xlink="http://www.w3.org/1999/xlink">
<g id="graph0" class="graph" transform="scale(1 1) rotate(0) translate(4 280)">
<title>dependencies</title>
<polygon fill="#ffffff" stroke="transparent" points="-4,4 -4,-280 1297,-280 1297,4 -4,4"/>
<text text-anchor="start" x="625.5091" y="-42.4" font-family="sans-serif" font-weight="bold" font-size="14.00" fill="#000000">Legend</text>
<polygon fill="#ffffb3" stroke="transparent" points="412.5,-10 412.5,-30 432.5,-30 432.5,-10 412.5,-10"/>
<text text-anchor="start" x="436.129" y="-15.4" font-family="sans-serif" font-size="14.00" fill="#000000"> &#160;Declarations</text>
<polygon fill="#8dd3c7" stroke="transparent" points="525.5,-10 525.5,-30 545.5,-30 545.5,-10 525.5,-10"/>
<text text-anchor="start" x="549.2251" y="-15.4" font-family="sans-serif" font-size="14.00" fill="#000000"> &#160;Module</text>
<polygon fill="#80b1d3" stroke="transparent" points="611.5,-10 611.5,-30 631.5,-30 631.5,-10 611.5,-10"/>
<text text-anchor="start" x="635.2812" y="-15.4" font-family="sans-serif" font-size="14.00" fill="#000000"> &#160;Bootstrap</text>
<polygon fill="#fdb462" stroke="transparent" points="708.5,-10 708.5,-30 728.5,-30 728.5,-10 708.5,-10"/>
<text text-anchor="start" x="732.1732" y="-15.4" font-family="sans-serif" font-size="14.00" fill="#000000"> &#160;Providers</text>
<polygon fill="#fb8072" stroke="transparent" points="804.5,-10 804.5,-30 824.5,-30 824.5,-10 804.5,-10"/>
<text text-anchor="start" x="828.2258" y="-15.4" font-family="sans-serif" font-size="14.00" fill="#000000"> &#160;Exports</text>
<g id="clust1" class="cluster">
<title>cluster_ModalModule</title>
<polygon fill="none" stroke="#000000" stroke-dasharray="1,5" points="8,-70 8,-268 1285,-268 1285,-70 8,-70"/>
</g>
<g id="clust2" class="cluster">
<title>cluster_ModalModule_declarations</title>
<polygon fill="none" stroke="#000000" points="672,-78 672,-130 1277,-130 1277,-78 672,-78"/>
</g>
<g id="clust9" class="cluster">
<title>cluster_ModalModule_imports</title>
<polygon fill="none" stroke="#000000" points="170,-78 170,-130 664,-130 664,-78 170,-78"/>
</g>
<g id="clust10" class="cluster">
<title>cluster_ModalModule_exports</title>
<polygon fill="none" stroke="#000000" points="402,-208 402,-260 941,-260 941,-208 402,-208"/>
</g>
<g id="clust12" class="cluster">
<title>cluster_ModalModule_providers</title>
<polygon fill="none" stroke="#000000" points="16,-78 16,-130 162,-130 162,-78 16,-78"/>
</g>
<!-- AlertModal -->
<g id="node1" class="node">
<title>AlertModal</title>
<polygon fill="#ffffb3" stroke="#000000" points="1268.8134,-122 1187.1866,-122 1187.1866,-86 1268.8134,-86 1268.8134,-122"/>
<text text-anchor="middle" x="1228" y="-99.8" font-family="Times,serif" font-size="14.00" fill="#000000">AlertModal</text>
</g>
<!-- ModalModule -->
<g id="node7" class="node">
<title>ModalModule</title>
<polygon fill="#8dd3c7" stroke="#000000" points="759.0997,-187 756.0997,-191 735.0997,-191 732.0997,-187 662.9003,-187 662.9003,-151 759.0997,-151 759.0997,-187"/>
<text text-anchor="middle" x="711" y="-164.8" font-family="Times,serif" font-size="14.00" fill="#000000">ModalModule</text>
</g>
<!-- AlertModal&#45;&gt;ModalModule -->
<g id="edge1" class="edge">
<title>AlertModal&#45;&gt;ModalModule</title>
<path fill="none" stroke="#000000" d="M1228,-122.0267C1228,-142.7672 1228,-174 1228,-174 1228,-174 769.1738,-174 769.1738,-174"/>
<polygon fill="#000000" stroke="#000000" points="769.1739,-170.5001 759.1738,-174 769.1738,-177.5001 769.1739,-170.5001"/>
</g>
<!-- Modal -->
<g id="node2" class="node">
<title>Modal</title>
<polygon fill="#ffffb3" stroke="#000000" points="1169,-122 1115,-122 1115,-86 1169,-86 1169,-122"/>
<text text-anchor="middle" x="1142" y="-99.8" font-family="Times,serif" font-size="14.00" fill="#000000">Modal</text>
</g>
<!-- Modal&#45;&gt;ModalModule -->
<g id="edge2" class="edge">
<title>Modal&#45;&gt;ModalModule</title>
<path fill="none" stroke="#000000" d="M1142,-122.1061C1142,-141.3391 1142,-169 1142,-169 1142,-169 769.1866,-169 769.1866,-169"/>
<polygon fill="#000000" stroke="#000000" points="769.1867,-165.5001 759.1866,-169 769.1866,-172.5001 769.1867,-165.5001"/>
</g>
<!-- ModalFooter -->
<g id="node3" class="node">
<title>ModalFooter</title>
<polygon fill="#ffffb3" stroke="#000000" points="1096.5983,-122 1007.4017,-122 1007.4017,-86 1096.5983,-86 1096.5983,-122"/>
<text text-anchor="middle" x="1052" y="-99.8" font-family="Times,serif" font-size="14.00" fill="#000000">ModalFooter</text>
</g>
<!-- ModalFooter&#45;&gt;ModalModule -->
<g id="edge3" class="edge">
<title>ModalFooter&#45;&gt;ModalModule</title>
<path fill="none" stroke="#000000" d="M1052,-122.302C1052,-140.2699 1052,-165 1052,-165 1052,-165 769.1337,-165 769.1337,-165"/>
<polygon fill="#000000" stroke="#000000" points="769.1338,-161.5001 759.1337,-165 769.1337,-168.5001 769.1338,-161.5001"/>
</g>
<!-- ModalHeader -->
<g id="node4" class="node">
<title>ModalHeader</title>
<polygon fill="#ffffb3" stroke="#000000" points="989.4608,-122 896.5392,-122 896.5392,-86 989.4608,-86 989.4608,-122"/>
<text text-anchor="middle" x="943" y="-99.8" font-family="Times,serif" font-size="14.00" fill="#000000">ModalHeader</text>
</g>
<!-- ModalHeader&#45;&gt;ModalModule -->
<g id="edge4" class="edge">
<title>ModalHeader&#45;&gt;ModalModule</title>
<path fill="none" stroke="#000000" d="M914.963,-122.027C914.963,-138.3976 914.963,-160 914.963,-160 914.963,-160 769.0781,-160 769.0781,-160"/>
<polygon fill="#000000" stroke="#000000" points="769.0781,-156.5001 759.0781,-160 769.0781,-163.5001 769.0781,-156.5001"/>
</g>
<!-- ModalPlaceholder -->
<g id="node5" class="node">
<title>ModalPlaceholder</title>
<polygon fill="#ffffb3" stroke="#000000" points="878.1332,-122 759.8668,-122 759.8668,-86 878.1332,-86 878.1332,-122"/>
<text text-anchor="middle" x="819" y="-99.8" font-family="Times,serif" font-size="14.00" fill="#000000">ModalPlaceholder</text>
</g>
<!-- ModalPlaceholder&#45;&gt;ModalModule -->
<g id="edge5" class="edge">
<title>ModalPlaceholder&#45;&gt;ModalModule</title>
<path fill="none" stroke="#000000" d="M767.3294,-122.1871C767.3294,-137.1824 767.3294,-156 767.3294,-156 767.3294,-156 766.5462,-156 766.5462,-156"/>
<polygon fill="#000000" stroke="#000000" points="769.4971,-152.5001 759.497,-156 769.497,-159.5001 769.4971,-152.5001"/>
</g>
<!-- Overlay -->
<g id="node6" class="node">
<title>Overlay</title>
<polygon fill="#ffffb3" stroke="#000000" points="741.5871,-122 680.4129,-122 680.4129,-86 741.5871,-86 741.5871,-122"/>
<text text-anchor="middle" x="711" y="-99.8" font-family="Times,serif" font-size="14.00" fill="#000000">Overlay</text>
</g>
<!-- Overlay&#45;&gt;ModalModule -->
<g id="edge6" class="edge">
<title>Overlay&#45;&gt;ModalModule</title>
<path fill="none" stroke="#000000" d="M711,-122.1061C711,-122.1061 711,-140.991 711,-140.991"/>
<polygon fill="#000000" stroke="#000000" points="707.5001,-140.9909 711,-150.991 714.5001,-140.991 707.5001,-140.9909"/>
</g>
<!-- AlertModal  -->
<g id="node12" class="node">
<title>AlertModal </title>
<polygon fill="#fb8072" stroke="#000000" points="933.313,-252 848.687,-252 848.687,-216 933.313,-216 933.313,-252"/>
<text text-anchor="middle" x="891" y="-229.8" font-family="Times,serif" font-size="14.00" fill="#000000">AlertModal </text>
</g>
<!-- ModalModule&#45;&gt;AlertModal  -->
<g id="edge11" class="edge">
<title>ModalModule&#45;&gt;AlertModal </title>
<path fill="none" stroke="#000000" stroke-dasharray="5,2" d="M759.2377,-178C803.9022,-178 863.455,-178 863.455,-178 863.455,-178 863.455,-205.973 863.455,-205.973"/>
<polygon fill="#000000" stroke="#000000" points="859.955,-205.973 863.455,-215.973 866.955,-205.973 859.955,-205.973"/>
</g>
<!-- Modal  -->
<g id="node13" class="node">
<title>Modal </title>
<polygon fill="#fb8072" stroke="#000000" points="831.0498,-252 774.9502,-252 774.9502,-216 831.0498,-216 831.0498,-252"/>
<text text-anchor="middle" x="803" y="-229.8" font-family="Times,serif" font-size="14.00" fill="#000000">Modal </text>
</g>
<!-- ModalModule&#45;&gt;Modal  -->
<g id="edge12" class="edge">
<title>ModalModule&#45;&gt;Modal </title>
<path fill="none" stroke="#000000" stroke-dasharray="5,2" d="M759.1555,-183C781.415,-183 803,-183 803,-183 803,-183 803,-205.8757 803,-205.8757"/>
<polygon fill="#000000" stroke="#000000" points="799.5001,-205.8757 803,-215.8757 806.5001,-205.8757 799.5001,-205.8757"/>
</g>
<!-- ModalFooter  -->
<g id="node14" class="node">
<title>ModalFooter </title>
<polygon fill="#fb8072" stroke="#000000" points="757.0991,-252 664.9009,-252 664.9009,-216 757.0991,-216 757.0991,-252"/>
<text text-anchor="middle" x="711" y="-229.8" font-family="Times,serif" font-size="14.00" fill="#000000">ModalFooter </text>
</g>
<!-- ModalModule&#45;&gt;ModalFooter  -->
<g id="edge13" class="edge">
<title>ModalModule&#45;&gt;ModalFooter </title>
<path fill="none" stroke="#000000" stroke-dasharray="5,2" d="M711,-187.1061C711,-187.1061 711,-205.991 711,-205.991"/>
<polygon fill="#000000" stroke="#000000" points="707.5001,-205.9909 711,-215.991 714.5001,-205.991 707.5001,-205.9909"/>
</g>
<!-- ModalHeader  -->
<g id="node15" class="node">
<title>ModalHeader </title>
<polygon fill="#fb8072" stroke="#000000" points="646.4619,-252 549.5381,-252 549.5381,-216 646.4619,-216 646.4619,-252"/>
<text text-anchor="middle" x="598" y="-229.8" font-family="Times,serif" font-size="14.00" fill="#000000">ModalHeader </text>
</g>
<!-- ModalModule&#45;&gt;ModalHeader  -->
<g id="edge14" class="edge">
<title>ModalModule&#45;&gt;ModalHeader </title>
<path fill="none" stroke="#000000" stroke-dasharray="5,2" d="M662.6444,-183C633.5861,-183 602.1983,-183 602.1983,-183 602.1983,-183 602.1983,-205.8757 602.1983,-205.8757"/>
<polygon fill="#000000" stroke="#000000" points="598.6984,-205.8757 602.1983,-215.8757 605.6984,-205.8757 598.6984,-205.8757"/>
</g>
<!-- ModalPlaceholder  -->
<g id="node16" class="node">
<title>ModalPlaceholder </title>
<polygon fill="#fb8072" stroke="#000000" points="532.1327,-252 409.8673,-252 409.8673,-216 532.1327,-216 532.1327,-252"/>
<text text-anchor="middle" x="471" y="-229.8" font-family="Times,serif" font-size="14.00" fill="#000000">ModalPlaceholder </text>
</g>
<!-- ModalModule&#45;&gt;ModalPlaceholder  -->
<g id="edge15" class="edge">
<title>ModalModule&#45;&gt;ModalPlaceholder </title>
<path fill="none" stroke="#000000" stroke-dasharray="5,2" d="M662.7809,-178C598.7715,-178 493.7306,-178 493.7306,-178 493.7306,-178 493.7306,-205.973 493.7306,-205.973"/>
<polygon fill="#000000" stroke="#000000" points="490.2306,-205.973 493.7306,-215.973 497.2306,-205.973 490.2306,-205.973"/>
</g>
<!-- ButtonModule -->
<g id="node8" class="node">
<title>ButtonModule</title>
<polygon fill="#8dd3c7" stroke="#000000" points="655.6682,-122 652.6682,-126 631.6682,-126 628.6682,-122 558.3318,-122 558.3318,-86 655.6682,-86 655.6682,-122"/>
<text text-anchor="middle" x="607" y="-99.8" font-family="Times,serif" font-size="14.00" fill="#000000">ButtonModule</text>
</g>
<!-- ButtonModule&#45;&gt;ModalModule -->
<g id="edge7" class="edge">
<title>ButtonModule&#45;&gt;ModalModule</title>
<path fill="none" stroke="#000000" d="M651.0321,-122.1871C651.0321,-137.1824 651.0321,-156 651.0321,-156 651.0321,-156 652.8798,-156 652.8798,-156"/>
<polygon fill="#000000" stroke="#000000" points="652.8799,-159.5001 662.8798,-156 652.8798,-152.5001 652.8799,-159.5001"/>
</g>
<!-- I18nModule -->
<g id="node9" class="node">
<title>I18nModule</title>
<polygon fill="#8dd3c7" stroke="#000000" points="540.7107,-122 537.7107,-126 516.7107,-126 513.7107,-122 455.2893,-122 455.2893,-86 540.7107,-86 540.7107,-122"/>
<text text-anchor="middle" x="498" y="-99.8" font-family="Times,serif" font-size="14.00" fill="#000000">I18nModule</text>
</g>
<!-- I18nModule&#45;&gt;ModalModule -->
<g id="edge8" class="edge">
<title>I18nModule&#45;&gt;ModalModule</title>
<path fill="none" stroke="#000000" d="M536.3358,-122.027C536.3358,-138.3976 536.3358,-160 536.3358,-160 536.3358,-160 652.8099,-160 652.8099,-160"/>
<polygon fill="#000000" stroke="#000000" points="652.8099,-163.5001 662.8099,-160 652.8098,-156.5001 652.8099,-163.5001"/>
</g>
<!-- PlaceholderModule -->
<g id="node10" class="node">
<title>PlaceholderModule</title>
<polygon fill="#8dd3c7" stroke="#000000" points="437.6331,-122 434.6331,-126 413.6331,-126 410.6331,-122 312.3669,-122 312.3669,-86 437.6331,-86 437.6331,-122"/>
<text text-anchor="middle" x="375" y="-99.8" font-family="Times,serif" font-size="14.00" fill="#000000">PlaceholderModule</text>
</g>
<!-- PlaceholderModule&#45;&gt;ModalModule -->
<g id="edge9" class="edge">
<title>PlaceholderModule&#45;&gt;ModalModule</title>
<path fill="none" stroke="#000000" d="M423.875,-122.302C423.875,-140.2699 423.875,-165 423.875,-165 423.875,-165 652.9417,-165 652.9417,-165"/>
<polygon fill="#000000" stroke="#000000" points="652.9418,-168.5001 662.9417,-165 652.9417,-161.5001 652.9418,-168.5001"/>
</g>
<!-- StaticIconModule -->
<g id="node11" class="node">
<title>StaticIconModule</title>
<polygon fill="#8dd3c7" stroke="#000000" points="294.309,-122 291.309,-126 270.309,-126 267.309,-122 177.691,-122 177.691,-86 294.309,-86 294.309,-122"/>
<text text-anchor="middle" x="236" y="-99.8" font-family="Times,serif" font-size="14.00" fill="#000000">StaticIconModule</text>
</g>
<!-- StaticIconModule&#45;&gt;ModalModule -->
<g id="edge10" class="edge">
<title>StaticIconModule&#45;&gt;ModalModule</title>
<path fill="none" stroke="#000000" d="M236,-122.1061C236,-141.3391 236,-169 236,-169 236,-169 652.8405,-169 652.8405,-169"/>
<polygon fill="#000000" stroke="#000000" points="652.8405,-172.5001 662.8405,-169 652.8404,-165.5001 652.8405,-172.5001"/>
</g>
<!-- ModalService -->
<g id="node17" class="node">
<title>ModalService</title>
<ellipse fill="#fdb462" stroke="#000000" cx="89" cy="-104" rx="65.4072" ry="18"/>
<text text-anchor="middle" x="89" y="-99.8" font-family="Times,serif" font-size="14.00" fill="#000000">ModalService</text>
</g>
<!-- ModalService&#45;&gt;ModalModule -->
<g id="edge16" class="edge">
<title>ModalService&#45;&gt;ModalModule</title>
<path fill="none" stroke="#000000" d="M89,-122.0267C89,-142.7672 89,-174 89,-174 89,-174 652.7103,-174 652.7103,-174"/>
<polygon fill="#000000" stroke="#000000" points="652.7103,-177.5001 662.7103,-174 652.7102,-170.5001 652.7103,-177.5001"/>
</g>
</g>
</svg>
