<?xml version="1.0" encoding="UTF-8" standalone="no"?>
<!DOCTYPE svg PUBLIC "-//W3C//DTD SVG 1.1//EN"
 "http://www.w3.org/Graphics/SVG/1.1/DTD/svg11.dtd">
<!-- Generated by graphviz version 2.40.1 (20161225.0304)
 -->
<!-- Title: dependencies Pages: 1 -->
<svg width="1162pt" height="284pt"
 viewBox="0.00 0.00 1162.00 284.00" xmlns="http://www.w3.org/2000/svg" xmlns:xlink="http://www.w3.org/1999/xlink">
<g id="graph0" class="graph" transform="scale(1 1) rotate(0) translate(4 280)">
<title>dependencies</title>
<polygon fill="#ffffff" stroke="transparent" points="-4,4 -4,-280 1158,-280 1158,4 -4,4"/>
<text text-anchor="start" x="556.0091" y="-42.4" font-family="sans-serif" font-weight="bold" font-size="14.00" fill="#000000">Legend</text>
<polygon fill="#ffffb3" stroke="transparent" points="343,-10 343,-30 363,-30 363,-10 343,-10"/>
<text text-anchor="start" x="366.629" y="-15.4" font-family="sans-serif" font-size="14.00" fill="#000000"> &#160;Declarations</text>
<polygon fill="#8dd3c7" stroke="transparent" points="456,-10 456,-30 476,-30 476,-10 456,-10"/>
<text text-anchor="start" x="479.7251" y="-15.4" font-family="sans-serif" font-size="14.00" fill="#000000"> &#160;Module</text>
<polygon fill="#80b1d3" stroke="transparent" points="542,-10 542,-30 562,-30 562,-10 542,-10"/>
<text text-anchor="start" x="565.7812" y="-15.4" font-family="sans-serif" font-size="14.00" fill="#000000"> &#160;Bootstrap</text>
<polygon fill="#fdb462" stroke="transparent" points="639,-10 639,-30 659,-30 659,-10 639,-10"/>
<text text-anchor="start" x="662.6732" y="-15.4" font-family="sans-serif" font-size="14.00" fill="#000000"> &#160;Providers</text>
<polygon fill="#fb8072" stroke="transparent" points="735,-10 735,-30 755,-30 755,-10 735,-10"/>
<text text-anchor="start" x="758.7258" y="-15.4" font-family="sans-serif" font-size="14.00" fill="#000000"> &#160;Exports</text>
<g id="clust1" class="cluster">
<title>cluster_ModalModule</title>
<polygon fill="none" stroke="#000000" stroke-dasharray="1,5" points="8,-70 8,-268 1146,-268 1146,-70 8,-70"/>
</g>
<g id="clust2" class="cluster">
<title>cluster_ModalModule_declarations</title>
<polygon fill="none" stroke="#000000" points="310,-78 310,-130 1138,-130 1138,-78 310,-78"/>
</g>
<g id="clust8" class="cluster">
<title>cluster_ModalModule_imports</title>
<polygon fill="none" stroke="#000000" points="170,-78 170,-130 302,-130 302,-78 170,-78"/>
</g>
<g id="clust9" class="cluster">
<title>cluster_ModalModule_exports</title>
<polygon fill="none" stroke="#000000" points="194,-208 194,-260 893,-260 893,-208 194,-208"/>
</g>
<g id="clust11" class="cluster">
<title>cluster_ModalModule_providers</title>
<polygon fill="none" stroke="#000000" points="16,-78 16,-130 162,-130 162,-78 16,-78"/>
</g>
<!-- ModalPlaceholderComponent -->
<g id="node1" class="node">
<title>ModalPlaceholderComponent</title>
<polygon fill="#ffffb3" stroke="#000000" points="1129.965,-122 946.035,-122 946.035,-86 1129.965,-86 1129.965,-122"/>
<text text-anchor="middle" x="1038" y="-99.8" font-family="Times,serif" font-size="14.00" fill="#000000">ModalPlaceholderComponent</text>
</g>
<!-- ModalModule -->
<g id="node6" class="node">
<title>ModalModule</title>
<polygon fill="#8dd3c7" stroke="#000000" points="587.0997,-187 584.0997,-191 563.0997,-191 560.0997,-187 490.9003,-187 490.9003,-151 587.0997,-151 587.0997,-187"/>
<text text-anchor="middle" x="539" y="-164.8" font-family="Times,serif" font-size="14.00" fill="#000000">ModalModule</text>
</g>
<!-- ModalPlaceholderComponent&#45;&gt;ModalModule -->
<g id="edge1" class="edge">
<title>ModalPlaceholderComponent&#45;&gt;ModalModule</title>
<path fill="none" stroke="#000000" d="M1038,-122.1289C1038,-142.5724 1038,-173 1038,-173 1038,-173 597.2996,-173 597.2996,-173"/>
<polygon fill="#000000" stroke="#000000" points="597.2997,-169.5001 587.2996,-173 597.2996,-176.5001 597.2997,-169.5001"/>
</g>
<!-- ModalComponent -->
<g id="node2" class="node">
<title>ModalComponent</title>
<polygon fill="#ffffb3" stroke="#000000" points="927.8823,-122 810.1177,-122 810.1177,-86 927.8823,-86 927.8823,-122"/>
<text text-anchor="middle" x="869" y="-99.8" font-family="Times,serif" font-size="14.00" fill="#000000">ModalComponent</text>
</g>
<!-- ModalComponent&#45;&gt;ModalModule -->
<g id="edge2" class="edge">
<title>ModalComponent&#45;&gt;ModalModule</title>
<path fill="none" stroke="#000000" d="M847.3957,-122.2667C847.3957,-140.5552 847.3957,-166 847.3957,-166 847.3957,-166 597.1868,-166 597.1868,-166"/>
<polygon fill="#000000" stroke="#000000" points="597.1869,-162.5001 587.1868,-166 597.1868,-169.5001 597.1869,-162.5001"/>
</g>
<!-- ModalHeaderComponent -->
<g id="node3" class="node">
<title>ModalHeaderComponent</title>
<polygon fill="#ffffb3" stroke="#000000" points="792.2935,-122 633.7065,-122 633.7065,-86 792.2935,-86 792.2935,-122"/>
<text text-anchor="middle" x="713" y="-99.8" font-family="Times,serif" font-size="14.00" fill="#000000">ModalHeaderComponent</text>
</g>
<!-- ModalHeaderComponent&#45;&gt;ModalModule -->
<g id="edge3" class="edge">
<title>ModalHeaderComponent&#45;&gt;ModalModule</title>
<path fill="none" stroke="#000000" d="M656.7723,-122.0091C656.7723,-138.0494 656.7723,-159 656.7723,-159 656.7723,-159 597.2423,-159 597.2423,-159"/>
<polygon fill="#000000" stroke="#000000" points="597.2423,-155.5001 587.2423,-159 597.2423,-162.5001 597.2423,-155.5001"/>
</g>
<!-- ModalFooterComponent -->
<g id="node4" class="node">
<title>ModalFooterComponent</title>
<polygon fill="#ffffb3" stroke="#000000" points="616.4312,-122 461.5688,-122 461.5688,-86 616.4312,-86 616.4312,-122"/>
<text text-anchor="middle" x="539" y="-99.8" font-family="Times,serif" font-size="14.00" fill="#000000">ModalFooterComponent</text>
</g>
<!-- ModalFooterComponent&#45;&gt;ModalModule -->
<g id="edge4" class="edge">
<title>ModalFooterComponent&#45;&gt;ModalModule</title>
<path fill="none" stroke="#000000" d="M539,-122.1061C539,-122.1061 539,-140.991 539,-140.991"/>
<polygon fill="#000000" stroke="#000000" points="535.5001,-140.9909 539,-150.991 542.5001,-140.991 535.5001,-140.9909"/>
</g>
<!-- OverlayComponent -->
<g id="node5" class="node">
<title>OverlayComponent</title>
<polygon fill="#ffffb3" stroke="#000000" points="444.4201,-122 317.5799,-122 317.5799,-86 444.4201,-86 444.4201,-122"/>
<text text-anchor="middle" x="381" y="-99.8" font-family="Times,serif" font-size="14.00" fill="#000000">OverlayComponent</text>
</g>
<!-- OverlayComponent&#45;&gt;ModalModule -->
<g id="edge5" class="edge">
<title>OverlayComponent&#45;&gt;ModalModule</title>
<path fill="none" stroke="#000000" d="M411.1566,-122.0091C411.1566,-138.0494 411.1566,-159 411.1566,-159 411.1566,-159 480.6679,-159 480.6679,-159"/>
<polygon fill="#000000" stroke="#000000" points="480.6679,-162.5001 490.6679,-159 480.6678,-155.5001 480.6679,-162.5001"/>
</g>
<!-- ModalPlaceholderComponent  -->
<g id="node8" class="node">
<title>ModalPlaceholderComponent </title>
<polygon fill="#fb8072" stroke="#000000" points="884.9656,-252 697.0344,-252 697.0344,-216 884.9656,-216 884.9656,-252"/>
<text text-anchor="middle" x="791" y="-229.8" font-family="Times,serif" font-size="14.00" fill="#000000">ModalPlaceholderComponent </text>
</g>
<!-- ModalModule&#45;&gt;ModalPlaceholderComponent  -->
<g id="edge7" class="edge">
<title>ModalModule&#45;&gt;ModalPlaceholderComponent </title>
<path fill="none" stroke="#000000" stroke-dasharray="5,2" d="M587.2292,-180C648.03,-180 744.7071,-180 744.7071,-180 744.7071,-180 744.7071,-205.7181 744.7071,-205.7181"/>
<polygon fill="#000000" stroke="#000000" points="741.2071,-205.718 744.7071,-215.7181 748.2071,-205.7181 741.2071,-205.718"/>
</g>
<!-- ModalComponent  -->
<g id="node9" class="node">
<title>ModalComponent </title>
<polygon fill="#fb8072" stroke="#000000" points="679.8828,-252 558.1172,-252 558.1172,-216 679.8828,-216 679.8828,-252"/>
<text text-anchor="middle" x="619" y="-229.8" font-family="Times,serif" font-size="14.00" fill="#000000">ModalComponent </text>
</g>
<!-- ModalModule&#45;&gt;ModalComponent  -->
<g id="edge8" class="edge">
<title>ModalModule&#45;&gt;ModalComponent </title>
<path fill="none" stroke="#000000" stroke-dasharray="5,2" d="M572.6794,-187.1061C572.6794,-187.1061 572.6794,-205.991 572.6794,-205.991"/>
<polygon fill="#000000" stroke="#000000" points="569.1794,-205.9909 572.6794,-215.991 576.1794,-205.991 569.1794,-205.9909"/>
</g>
<!-- ModalHeaderComponent  -->
<g id="node10" class="node">
<title>ModalHeaderComponent </title>
<polygon fill="#fb8072" stroke="#000000" points="539.7933,-252 378.2067,-252 378.2067,-216 539.7933,-216 539.7933,-252"/>
<text text-anchor="middle" x="459" y="-229.8" font-family="Times,serif" font-size="14.00" fill="#000000">ModalHeaderComponent </text>
</g>
<!-- ModalModule&#45;&gt;ModalHeaderComponent  -->
<g id="edge9" class="edge">
<title>ModalModule&#45;&gt;ModalHeaderComponent </title>
<path fill="none" stroke="#000000" stroke-dasharray="5,2" d="M515.4234,-187.1061C515.4234,-187.1061 515.4234,-205.991 515.4234,-205.991"/>
<polygon fill="#000000" stroke="#000000" points="511.9235,-205.9909 515.4234,-215.991 518.9235,-205.991 511.9235,-205.9909"/>
</g>
<!-- ModalFooterComponent  -->
<g id="node11" class="node">
<title>ModalFooterComponent </title>
<polygon fill="#fb8072" stroke="#000000" points="359.9306,-252 202.0694,-252 202.0694,-216 359.9306,-216 359.9306,-252"/>
<text text-anchor="middle" x="281" y="-229.8" font-family="Times,serif" font-size="14.00" fill="#000000">ModalFooterComponent </text>
</g>
<!-- ModalModule&#45;&gt;ModalFooterComponent  -->
<g id="edge10" class="edge">
<title>ModalModule&#45;&gt;ModalFooterComponent </title>
<path fill="none" stroke="#000000" stroke-dasharray="5,2" d="M490.8111,-180C431.5951,-180 338.8778,-180 338.8778,-180 338.8778,-180 338.8778,-205.7181 338.8778,-205.7181"/>
<polygon fill="#000000" stroke="#000000" points="335.3779,-205.718 338.8778,-215.7181 342.3779,-205.7181 335.3779,-205.718"/>
</g>
<!-- StaticIconModule -->
<g id="node7" class="node">
<title>StaticIconModule</title>
<polygon fill="#8dd3c7" stroke="#000000" points="294.309,-122 291.309,-126 270.309,-126 267.309,-122 177.691,-122 177.691,-86 294.309,-86 294.309,-122"/>
<text text-anchor="middle" x="236" y="-99.8" font-family="Times,serif" font-size="14.00" fill="#000000">StaticIconModule</text>
</g>
<!-- StaticIconModule&#45;&gt;ModalModule -->
<g id="edge6" class="edge">
<title>StaticIconModule&#45;&gt;ModalModule</title>
<path fill="none" stroke="#000000" d="M248.0945,-122.2667C248.0945,-140.5552 248.0945,-166 248.0945,-166 248.0945,-166 480.6363,-166 480.6363,-166"/>
<polygon fill="#000000" stroke="#000000" points="480.6364,-169.5001 490.6363,-166 480.6363,-162.5001 480.6364,-169.5001"/>
</g>
<!-- ModalService -->
<g id="node12" class="node">
<title>ModalService</title>
<ellipse fill="#fdb462" stroke="#000000" cx="89" cy="-104" rx="65.4072" ry="18"/>
<text text-anchor="middle" x="89" y="-99.8" font-family="Times,serif" font-size="14.00" fill="#000000">ModalService</text>
</g>
<!-- ModalService&#45;&gt;ModalModule -->
<g id="edge11" class="edge">
<title>ModalService&#45;&gt;ModalModule</title>
<path fill="none" stroke="#000000" d="M89,-122.1289C89,-142.5724 89,-173 89,-173 89,-173 480.8421,-173 480.8421,-173"/>
<polygon fill="#000000" stroke="#000000" points="480.8422,-176.5001 490.8421,-173 480.8421,-169.5001 480.8422,-176.5001"/>
</g>
</g>
</svg>
