<?xml version="1.0" encoding="UTF-8" standalone="no"?>
<!DOCTYPE svg PUBLIC "-//W3C//DTD SVG 1.1//EN"
 "http://www.w3.org/Graphics/SVG/1.1/DTD/svg11.dtd">
<!-- Generated by graphviz version 2.40.1 (20161225.0304)
 -->
<!-- Title: dependencies Pages: 1 -->
<svg width="1183pt" height="284pt"
 viewBox="0.00 0.00 1183.00 284.00" xmlns="http://www.w3.org/2000/svg" xmlns:xlink="http://www.w3.org/1999/xlink">
<g id="graph0" class="graph" transform="scale(1 1) rotate(0) translate(4 280)">
<title>dependencies</title>
<polygon fill="#ffffff" stroke="transparent" points="-4,4 -4,-280 1179,-280 1179,4 -4,4"/>
<text text-anchor="start" x="566.5091" y="-42.4" font-family="sans-serif" font-weight="bold" font-size="14.00" fill="#000000">Legend</text>
<polygon fill="#ffffb3" stroke="transparent" points="353.5,-10 353.5,-30 373.5,-30 373.5,-10 353.5,-10"/>
<text text-anchor="start" x="377.129" y="-15.4" font-family="sans-serif" font-size="14.00" fill="#000000"> &#160;Declarations</text>
<polygon fill="#8dd3c7" stroke="transparent" points="466.5,-10 466.5,-30 486.5,-30 486.5,-10 466.5,-10"/>
<text text-anchor="start" x="490.2251" y="-15.4" font-family="sans-serif" font-size="14.00" fill="#000000"> &#160;Module</text>
<polygon fill="#80b1d3" stroke="transparent" points="552.5,-10 552.5,-30 572.5,-30 572.5,-10 552.5,-10"/>
<text text-anchor="start" x="576.2812" y="-15.4" font-family="sans-serif" font-size="14.00" fill="#000000"> &#160;Bootstrap</text>
<polygon fill="#fdb462" stroke="transparent" points="649.5,-10 649.5,-30 669.5,-30 669.5,-10 649.5,-10"/>
<text text-anchor="start" x="673.1732" y="-15.4" font-family="sans-serif" font-size="14.00" fill="#000000"> &#160;Providers</text>
<polygon fill="#fb8072" stroke="transparent" points="745.5,-10 745.5,-30 765.5,-30 765.5,-10 745.5,-10"/>
<text text-anchor="start" x="769.2258" y="-15.4" font-family="sans-serif" font-size="14.00" fill="#000000"> &#160;Exports</text>
<g id="clust1" class="cluster">
<title>cluster_ModalModule</title>
<polygon fill="none" stroke="#000000" stroke-dasharray="1,5" points="8,-70 8,-268 1167,-268 1167,-70 8,-70"/>
</g>
<g id="clust2" class="cluster">
<title>cluster_ModalModule_declarations</title>
<polygon fill="none" stroke="#000000" points="691,-78 691,-130 1159,-130 1159,-78 691,-78"/>
</g>
<g id="clust8" class="cluster">
<title>cluster_ModalModule_imports</title>
<polygon fill="none" stroke="#000000" points="170,-78 170,-130 683,-130 683,-78 170,-78"/>
</g>
<g id="clust9" class="cluster">
<title>cluster_ModalModule_exports</title>
<polygon fill="none" stroke="#000000" points="463,-208 463,-260 862,-260 862,-208 463,-208"/>
</g>
<g id="clust11" class="cluster">
<title>cluster_ModalModule_providers</title>
<polygon fill="none" stroke="#000000" points="16,-78 16,-130 162,-130 162,-78 16,-78"/>
</g>
<!-- AlertModal -->
<g id="node1" class="node">
<title>AlertModal</title>
<polygon fill="#ffffb3" stroke="#000000" points="1150.8134,-122 1069.1866,-122 1069.1866,-86 1150.8134,-86 1150.8134,-122"/>
<text text-anchor="middle" x="1110" y="-99.8" font-family="Times,serif" font-size="14.00" fill="#000000">AlertModal</text>
</g>
<!-- ModalModule -->
<g id="node6" class="node">
<title>ModalModule</title>
<polygon fill="#8dd3c7" stroke="#000000" points="726.0997,-187 723.0997,-191 702.0997,-191 699.0997,-187 629.9003,-187 629.9003,-151 726.0997,-151 726.0997,-187"/>
<text text-anchor="middle" x="678" y="-164.8" font-family="Times,serif" font-size="14.00" fill="#000000">ModalModule</text>
</g>
<!-- AlertModal&#45;&gt;ModalModule -->
<g id="edge1" class="edge">
<title>AlertModal&#45;&gt;ModalModule</title>
<path fill="none" stroke="#000000" d="M1110,-122.2843C1110,-143.3211 1110,-175 1110,-175 1110,-175 736.2984,-175 736.2984,-175"/>
<polygon fill="#000000" stroke="#000000" points="736.2985,-171.5001 726.2984,-175 736.2984,-178.5001 736.2985,-171.5001"/>
</g>
<!-- Modal -->
<g id="node2" class="node">
<title>Modal</title>
<polygon fill="#ffffb3" stroke="#000000" points="1051,-122 997,-122 997,-86 1051,-86 1051,-122"/>
<text text-anchor="middle" x="1024" y="-99.8" font-family="Times,serif" font-size="14.00" fill="#000000">Modal</text>
</g>
<!-- Modal&#45;&gt;ModalModule -->
<g id="edge2" class="edge">
<title>Modal&#45;&gt;ModalModule</title>
<path fill="none" stroke="#000000" d="M1024,-122.1061C1024,-141.3391 1024,-169 1024,-169 1024,-169 736.1098,-169 736.1098,-169"/>
<polygon fill="#000000" stroke="#000000" points="736.1099,-165.5001 726.1098,-169 736.1098,-172.5001 736.1099,-165.5001"/>
</g>
<!-- ModalFooter -->
<g id="node3" class="node">
<title>ModalFooter</title>
<polygon fill="#ffffb3" stroke="#000000" points="978.5983,-122 889.4017,-122 889.4017,-86 978.5983,-86 978.5983,-122"/>
<text text-anchor="middle" x="934" y="-99.8" font-family="Times,serif" font-size="14.00" fill="#000000">ModalFooter</text>
</g>
<!-- ModalFooter&#45;&gt;ModalModule -->
<g id="edge3" class="edge">
<title>ModalFooter&#45;&gt;ModalModule</title>
<path fill="none" stroke="#000000" d="M934,-122.0225C934,-139.3734 934,-163 934,-163 934,-163 736.1516,-163 736.1516,-163"/>
<polygon fill="#000000" stroke="#000000" points="736.1517,-159.5001 726.1516,-163 736.1516,-166.5001 736.1517,-159.5001"/>
</g>
<!-- ModalHeader -->
<g id="node4" class="node">
<title>ModalHeader</title>
<polygon fill="#ffffb3" stroke="#000000" points="871.4608,-122 778.5392,-122 778.5392,-86 871.4608,-86 871.4608,-122"/>
<text text-anchor="middle" x="825" y="-99.8" font-family="Times,serif" font-size="14.00" fill="#000000">ModalHeader</text>
</g>
<!-- ModalHeader&#45;&gt;ModalModule -->
<g id="edge4" class="edge">
<title>ModalHeader&#45;&gt;ModalModule</title>
<path fill="none" stroke="#000000" d="M816.463,-122.2396C816.463,-137.5706 816.463,-157 816.463,-157 816.463,-157 736.4276,-157 736.4276,-157"/>
<polygon fill="#000000" stroke="#000000" points="736.4277,-153.5001 726.4276,-157 736.4276,-160.5001 736.4277,-153.5001"/>
</g>
<!-- Overlay -->
<g id="node5" class="node">
<title>Overlay</title>
<polygon fill="#ffffb3" stroke="#000000" points="760.5871,-122 699.4129,-122 699.4129,-86 760.5871,-86 760.5871,-122"/>
<text text-anchor="middle" x="730" y="-99.8" font-family="Times,serif" font-size="14.00" fill="#000000">Overlay</text>
</g>
<!-- Overlay&#45;&gt;ModalModule -->
<g id="edge5" class="edge">
<title>Overlay&#45;&gt;ModalModule</title>
<path fill="none" stroke="#000000" d="M712.7532,-122.1061C712.7532,-122.1061 712.7532,-140.991 712.7532,-140.991"/>
<polygon fill="#000000" stroke="#000000" points="709.2532,-140.9909 712.7532,-150.991 716.2532,-140.991 709.2532,-140.9909"/>
</g>
<!-- AlertModal  -->
<g id="node11" class="node">
<title>AlertModal </title>
<polygon fill="#fb8072" stroke="#000000" points="854.313,-252 769.687,-252 769.687,-216 854.313,-216 854.313,-252"/>
<text text-anchor="middle" x="812" y="-229.8" font-family="Times,serif" font-size="14.00" fill="#000000">AlertModal </text>
</g>
<!-- ModalModule&#45;&gt;AlertModal  -->
<g id="edge10" class="edge">
<title>ModalModule&#45;&gt;AlertModal </title>
<path fill="none" stroke="#000000" stroke-dasharray="5,2" d="M726.3097,-181C750.2297,-181 774.0566,-181 774.0566,-181 774.0566,-181 774.0566,-205.7604 774.0566,-205.7604"/>
<polygon fill="#000000" stroke="#000000" points="770.5567,-205.7604 774.0566,-215.7604 777.5567,-205.7604 770.5567,-205.7604"/>
</g>
<!-- Modal  -->
<g id="node12" class="node">
<title>Modal </title>
<polygon fill="#fb8072" stroke="#000000" points="752.0498,-252 695.9502,-252 695.9502,-216 752.0498,-216 752.0498,-252"/>
<text text-anchor="middle" x="724" y="-229.8" font-family="Times,serif" font-size="14.00" fill="#000000">Modal </text>
</g>
<!-- ModalModule&#45;&gt;Modal  -->
<g id="edge11" class="edge">
<title>ModalModule&#45;&gt;Modal </title>
<path fill="none" stroke="#000000" stroke-dasharray="5,2" d="M711.0124,-187.1061C711.0124,-187.1061 711.0124,-205.991 711.0124,-205.991"/>
<polygon fill="#000000" stroke="#000000" points="707.5125,-205.9909 711.0124,-215.991 714.5125,-205.991 707.5125,-205.9909"/>
</g>
<!-- ModalFooter  -->
<g id="node13" class="node">
<title>ModalFooter </title>
<polygon fill="#fb8072" stroke="#000000" points="678.0991,-252 585.9009,-252 585.9009,-216 678.0991,-216 678.0991,-252"/>
<text text-anchor="middle" x="632" y="-229.8" font-family="Times,serif" font-size="14.00" fill="#000000">ModalFooter </text>
</g>
<!-- ModalModule&#45;&gt;ModalFooter  -->
<g id="edge12" class="edge">
<title>ModalModule&#45;&gt;ModalFooter </title>
<path fill="none" stroke="#000000" stroke-dasharray="5,2" d="M654.1247,-187.1061C654.1247,-187.1061 654.1247,-205.991 654.1247,-205.991"/>
<polygon fill="#000000" stroke="#000000" points="650.6247,-205.9909 654.1247,-215.991 657.6247,-205.991 650.6247,-205.9909"/>
</g>
<!-- ModalHeader  -->
<g id="node14" class="node">
<title>ModalHeader </title>
<polygon fill="#fb8072" stroke="#000000" points="567.4619,-252 470.5381,-252 470.5381,-216 567.4619,-216 567.4619,-252"/>
<text text-anchor="middle" x="519" y="-229.8" font-family="Times,serif" font-size="14.00" fill="#000000">ModalHeader </text>
</g>
<!-- ModalModule&#45;&gt;ModalHeader  -->
<g id="edge13" class="edge">
<title>ModalModule&#45;&gt;ModalHeader </title>
<path fill="none" stroke="#000000" stroke-dasharray="5,2" d="M629.7135,-181C598.3825,-181 563.3575,-181 563.3575,-181 563.3575,-181 563.3575,-205.7604 563.3575,-205.7604"/>
<polygon fill="#000000" stroke="#000000" points="559.8576,-205.7604 563.3575,-215.7604 566.8576,-205.7604 559.8576,-205.7604"/>
</g>
<!-- ButtonModule -->
<g id="node7" class="node">
<title>ButtonModule</title>
<polygon fill="#8dd3c7" stroke="#000000" points="674.6682,-122 671.6682,-126 650.6682,-126 647.6682,-122 577.3318,-122 577.3318,-86 674.6682,-86 674.6682,-122"/>
<text text-anchor="middle" x="626" y="-99.8" font-family="Times,serif" font-size="14.00" fill="#000000">ButtonModule</text>
</g>
<!-- ButtonModule&#45;&gt;ModalModule -->
<g id="edge6" class="edge">
<title>ButtonModule&#45;&gt;ModalModule</title>
<path fill="none" stroke="#000000" d="M652.392,-122.1061C652.392,-122.1061 652.392,-140.991 652.392,-140.991"/>
<polygon fill="#000000" stroke="#000000" points="648.8921,-140.9909 652.392,-150.991 655.8921,-140.991 648.8921,-140.9909"/>
</g>
<!-- ExperimentalModule -->
<g id="node8" class="node">
<title>ExperimentalModule</title>
<polygon fill="#8dd3c7" stroke="#000000" points="559.4692,-122 556.4692,-126 535.4692,-126 532.4692,-122 424.5308,-122 424.5308,-86 559.4692,-86 559.4692,-122"/>
<text text-anchor="middle" x="492" y="-99.8" font-family="Times,serif" font-size="14.00" fill="#000000">ExperimentalModule</text>
</g>
<!-- ExperimentalModule&#45;&gt;ModalModule -->
<g id="edge7" class="edge">
<title>ExperimentalModule&#45;&gt;ModalModule</title>
<path fill="none" stroke="#000000" d="M515.1271,-122.2396C515.1271,-137.5706 515.1271,-157 515.1271,-157 515.1271,-157 619.5737,-157 619.5737,-157"/>
<polygon fill="#000000" stroke="#000000" points="619.5738,-160.5001 629.5737,-157 619.5737,-153.5001 619.5738,-160.5001"/>
</g>
<!-- I18nModule -->
<g id="node9" class="node">
<title>I18nModule</title>
<polygon fill="#8dd3c7" stroke="#000000" points="406.7107,-122 403.7107,-126 382.7107,-126 379.7107,-122 321.2893,-122 321.2893,-86 406.7107,-86 406.7107,-122"/>
<text text-anchor="middle" x="364" y="-99.8" font-family="Times,serif" font-size="14.00" fill="#000000">I18nModule</text>
</g>
<!-- I18nModule&#45;&gt;ModalModule -->
<g id="edge8" class="edge">
<title>I18nModule&#45;&gt;ModalModule</title>
<path fill="none" stroke="#000000" d="M364,-122.0225C364,-139.3734 364,-163 364,-163 364,-163 619.6256,-163 619.6256,-163"/>
<polygon fill="#000000" stroke="#000000" points="619.6257,-166.5001 629.6256,-163 619.6256,-159.5001 619.6257,-166.5001"/>
</g>
<!-- PlaceholderModule -->
<g id="node10" class="node">
<title>PlaceholderModule</title>
<polygon fill="#8dd3c7" stroke="#000000" points="303.6331,-122 300.6331,-126 279.6331,-126 276.6331,-122 178.3669,-122 178.3669,-86 303.6331,-86 303.6331,-122"/>
<text text-anchor="middle" x="241" y="-99.8" font-family="Times,serif" font-size="14.00" fill="#000000">PlaceholderModule</text>
</g>
<!-- PlaceholderModule&#45;&gt;ModalModule -->
<g id="edge9" class="edge">
<title>PlaceholderModule&#45;&gt;ModalModule</title>
<path fill="none" stroke="#000000" d="M241,-122.1061C241,-141.3391 241,-169 241,-169 241,-169 619.5637,-169 619.5637,-169"/>
<polygon fill="#000000" stroke="#000000" points="619.5637,-172.5001 629.5637,-169 619.5636,-165.5001 619.5637,-172.5001"/>
</g>
<!-- ModalService -->
<g id="node15" class="node">
<title>ModalService</title>
<ellipse fill="#fdb462" stroke="#000000" cx="89" cy="-104" rx="65.4072" ry="18"/>
<text text-anchor="middle" x="89" y="-99.8" font-family="Times,serif" font-size="14.00" fill="#000000">ModalService</text>
</g>
<!-- ModalService&#45;&gt;ModalModule -->
<g id="edge14" class="edge">
<title>ModalService&#45;&gt;ModalModule</title>
<path fill="none" stroke="#000000" d="M89,-122.2843C89,-143.3211 89,-175 89,-175 89,-175 619.7997,-175 619.7997,-175"/>
<polygon fill="#000000" stroke="#000000" points="619.7997,-178.5001 629.7997,-175 619.7996,-171.5001 619.7997,-178.5001"/>
</g>
</g>
</svg>
