<?xml version="1.0" encoding="UTF-8" standalone="no"?>
<!DOCTYPE svg PUBLIC "-//W3C//DTD SVG 1.1//EN"
 "http://www.w3.org/Graphics/SVG/1.1/DTD/svg11.dtd">
<!-- Generated by graphviz version 2.40.1 (20161225.0304)
 -->
<!-- Title: dependencies Pages: 1 -->
<svg width="1454pt" height="284pt"
 viewBox="0.00 0.00 1454.00 284.00" xmlns="http://www.w3.org/2000/svg" xmlns:xlink="http://www.w3.org/1999/xlink">
<g id="graph0" class="graph" transform="scale(1 1) rotate(0) translate(4 280)">
<title>dependencies</title>
<polygon fill="#ffffff" stroke="transparent" points="-4,4 -4,-280 1450,-280 1450,4 -4,4"/>
<text text-anchor="start" x="702.0091" y="-42.4" font-family="sans-serif" font-weight="bold" font-size="14.00" fill="#000000">Legend</text>
<polygon fill="#ffffb3" stroke="transparent" points="489,-10 489,-30 509,-30 509,-10 489,-10"/>
<text text-anchor="start" x="512.629" y="-15.4" font-family="sans-serif" font-size="14.00" fill="#000000"> &#160;Declarations</text>
<polygon fill="#8dd3c7" stroke="transparent" points="602,-10 602,-30 622,-30 622,-10 602,-10"/>
<text text-anchor="start" x="625.7251" y="-15.4" font-family="sans-serif" font-size="14.00" fill="#000000"> &#160;Module</text>
<polygon fill="#80b1d3" stroke="transparent" points="688,-10 688,-30 708,-30 708,-10 688,-10"/>
<text text-anchor="start" x="711.7812" y="-15.4" font-family="sans-serif" font-size="14.00" fill="#000000"> &#160;Bootstrap</text>
<polygon fill="#fdb462" stroke="transparent" points="785,-10 785,-30 805,-30 805,-10 785,-10"/>
<text text-anchor="start" x="808.6732" y="-15.4" font-family="sans-serif" font-size="14.00" fill="#000000"> &#160;Providers</text>
<polygon fill="#fb8072" stroke="transparent" points="881,-10 881,-30 901,-30 901,-10 881,-10"/>
<text text-anchor="start" x="904.7258" y="-15.4" font-family="sans-serif" font-size="14.00" fill="#000000"> &#160;Exports</text>
<g id="clust1" class="cluster">
<title>cluster_ModalModule</title>
<polygon fill="none" stroke="#000000" stroke-dasharray="1,5" points="8,-70 8,-268 1438,-268 1438,-70 8,-70"/>
</g>
<g id="clust2" class="cluster">
<title>cluster_ModalModule_declarations</title>
<polygon fill="none" stroke="#000000" points="825,-78 825,-130 1430,-130 1430,-78 825,-78"/>
</g>
<g id="clust9" class="cluster">
<title>cluster_ModalModule_imports</title>
<polygon fill="none" stroke="#000000" points="170,-78 170,-130 817,-130 817,-78 170,-78"/>
</g>
<g id="clust10" class="cluster">
<title>cluster_ModalModule_exports</title>
<polygon fill="none" stroke="#000000" points="503,-208 503,-260 1042,-260 1042,-208 503,-208"/>
</g>
<g id="clust12" class="cluster">
<title>cluster_ModalModule_providers</title>
<polygon fill="none" stroke="#000000" points="16,-78 16,-130 162,-130 162,-78 16,-78"/>
</g>
<!-- AlertModal -->
<g id="node1" class="node">
<title>AlertModal</title>
<polygon fill="#ffffb3" stroke="#000000" points="1421.8134,-122 1340.1866,-122 1340.1866,-86 1421.8134,-86 1421.8134,-122"/>
<text text-anchor="middle" x="1381" y="-99.8" font-family="Times,serif" font-size="14.00" fill="#000000">AlertModal</text>
</g>
<!-- ModalModule -->
<g id="node7" class="node">
<title>ModalModule</title>
<polygon fill="#8dd3c7" stroke="#000000" points="860.0997,-187 857.0997,-191 836.0997,-191 833.0997,-187 763.9003,-187 763.9003,-151 860.0997,-151 860.0997,-187"/>
<text text-anchor="middle" x="812" y="-164.8" font-family="Times,serif" font-size="14.00" fill="#000000">ModalModule</text>
</g>
<!-- AlertModal&#45;&gt;ModalModule -->
<g id="edge1" class="edge">
<title>AlertModal&#45;&gt;ModalModule</title>
<path fill="none" stroke="#000000" d="M1381,-122.0267C1381,-142.7672 1381,-174 1381,-174 1381,-174 870.5126,-174 870.5126,-174"/>
<polygon fill="#000000" stroke="#000000" points="870.5127,-170.5001 860.5126,-174 870.5126,-177.5001 870.5127,-170.5001"/>
</g>
<!-- Modal -->
<g id="node2" class="node">
<title>Modal</title>
<polygon fill="#ffffb3" stroke="#000000" points="1322,-122 1268,-122 1268,-86 1322,-86 1322,-122"/>
<text text-anchor="middle" x="1295" y="-99.8" font-family="Times,serif" font-size="14.00" fill="#000000">Modal</text>
</g>
<!-- Modal&#45;&gt;ModalModule -->
<g id="edge2" class="edge">
<title>Modal&#45;&gt;ModalModule</title>
<path fill="none" stroke="#000000" d="M1295,-122.1061C1295,-141.3391 1295,-169 1295,-169 1295,-169 870.0777,-169 870.0777,-169"/>
<polygon fill="#000000" stroke="#000000" points="870.0777,-165.5001 860.0777,-169 870.0777,-172.5001 870.0777,-165.5001"/>
</g>
<!-- ModalFooter -->
<g id="node3" class="node">
<title>ModalFooter</title>
<polygon fill="#ffffb3" stroke="#000000" points="1249.5983,-122 1160.4017,-122 1160.4017,-86 1249.5983,-86 1249.5983,-122"/>
<text text-anchor="middle" x="1205" y="-99.8" font-family="Times,serif" font-size="14.00" fill="#000000">ModalFooter</text>
</g>
<!-- ModalFooter&#45;&gt;ModalModule -->
<g id="edge3" class="edge">
<title>ModalFooter&#45;&gt;ModalModule</title>
<path fill="none" stroke="#000000" d="M1205,-122.302C1205,-140.2699 1205,-165 1205,-165 1205,-165 870.1895,-165 870.1895,-165"/>
<polygon fill="#000000" stroke="#000000" points="870.1895,-161.5001 860.1895,-165 870.1895,-168.5001 870.1895,-161.5001"/>
</g>
<!-- ModalHeader -->
<g id="node4" class="node">
<title>ModalHeader</title>
<polygon fill="#ffffb3" stroke="#000000" points="1142.4608,-122 1049.5392,-122 1049.5392,-86 1142.4608,-86 1142.4608,-122"/>
<text text-anchor="middle" x="1096" y="-99.8" font-family="Times,serif" font-size="14.00" fill="#000000">ModalHeader</text>
</g>
<!-- ModalHeader&#45;&gt;ModalModule -->
<g id="edge4" class="edge">
<title>ModalHeader&#45;&gt;ModalModule</title>
<path fill="none" stroke="#000000" d="M1096,-122.027C1096,-138.3976 1096,-160 1096,-160 1096,-160 870.1767,-160 870.1767,-160"/>
<polygon fill="#000000" stroke="#000000" points="870.1768,-156.5001 860.1767,-160 870.1767,-163.5001 870.1768,-156.5001"/>
</g>
<!-- ModalPlaceholder -->
<g id="node5" class="node">
<title>ModalPlaceholder</title>
<polygon fill="#ffffb3" stroke="#000000" points="1031.1332,-122 912.8668,-122 912.8668,-86 1031.1332,-86 1031.1332,-122"/>
<text text-anchor="middle" x="972" y="-99.8" font-family="Times,serif" font-size="14.00" fill="#000000">ModalPlaceholder</text>
</g>
<!-- ModalPlaceholder&#45;&gt;ModalModule -->
<g id="edge5" class="edge">
<title>ModalPlaceholder&#45;&gt;ModalModule</title>
<path fill="none" stroke="#000000" d="M922.3543,-122.1871C922.3543,-137.1824 922.3543,-156 922.3543,-156 922.3543,-156 870.082,-156 870.082,-156"/>
<polygon fill="#000000" stroke="#000000" points="870.082,-152.5001 860.082,-156 870.0819,-159.5001 870.082,-152.5001"/>
</g>
<!-- Overlay -->
<g id="node6" class="node">
<title>Overlay</title>
<polygon fill="#ffffb3" stroke="#000000" points="894.5871,-122 833.4129,-122 833.4129,-86 894.5871,-86 894.5871,-122"/>
<text text-anchor="middle" x="864" y="-99.8" font-family="Times,serif" font-size="14.00" fill="#000000">Overlay</text>
</g>
<!-- Overlay&#45;&gt;ModalModule -->
<g id="edge6" class="edge">
<title>Overlay&#45;&gt;ModalModule</title>
<path fill="none" stroke="#000000" d="M846.7532,-122.1061C846.7532,-122.1061 846.7532,-140.991 846.7532,-140.991"/>
<polygon fill="#000000" stroke="#000000" points="843.2532,-140.9909 846.7532,-150.991 850.2532,-140.991 843.2532,-140.9909"/>
</g>
<!-- AlertModal  -->
<g id="node13" class="node">
<title>AlertModal </title>
<polygon fill="#fb8072" stroke="#000000" points="1034.313,-252 949.687,-252 949.687,-216 1034.313,-216 1034.313,-252"/>
<text text-anchor="middle" x="992" y="-229.8" font-family="Times,serif" font-size="14.00" fill="#000000">AlertModal </text>
</g>
<!-- ModalModule&#45;&gt;AlertModal  -->
<g id="edge12" class="edge">
<title>ModalModule&#45;&gt;AlertModal </title>
<path fill="none" stroke="#000000" stroke-dasharray="5,2" d="M860.2925,-178C913.1427,-178 990.455,-178 990.455,-178 990.455,-178 990.455,-205.973 990.455,-205.973"/>
<polygon fill="#000000" stroke="#000000" points="986.955,-205.973 990.455,-215.973 993.955,-205.973 986.955,-205.973"/>
</g>
<!-- Modal  -->
<g id="node14" class="node">
<title>Modal </title>
<polygon fill="#fb8072" stroke="#000000" points="932.0498,-252 875.9502,-252 875.9502,-216 932.0498,-216 932.0498,-252"/>
<text text-anchor="middle" x="904" y="-229.8" font-family="Times,serif" font-size="14.00" fill="#000000">Modal </text>
</g>
<!-- ModalModule&#45;&gt;Modal  -->
<g id="edge13" class="edge">
<title>ModalModule&#45;&gt;Modal </title>
<path fill="none" stroke="#000000" stroke-dasharray="5,2" d="M860.457,-183C874.0808,-183 885.2593,-183 885.2593,-183 885.2593,-183 885.2593,-205.8757 885.2593,-205.8757"/>
<polygon fill="#000000" stroke="#000000" points="881.7594,-205.8757 885.2593,-215.8757 888.7594,-205.8757 881.7594,-205.8757"/>
</g>
<!-- ModalFooter  -->
<g id="node15" class="node">
<title>ModalFooter </title>
<polygon fill="#fb8072" stroke="#000000" points="858.0991,-252 765.9009,-252 765.9009,-216 858.0991,-216 858.0991,-252"/>
<text text-anchor="middle" x="812" y="-229.8" font-family="Times,serif" font-size="14.00" fill="#000000">ModalFooter </text>
</g>
<!-- ModalModule&#45;&gt;ModalFooter  -->
<g id="edge14" class="edge">
<title>ModalModule&#45;&gt;ModalFooter </title>
<path fill="none" stroke="#000000" stroke-dasharray="5,2" d="M812,-187.1061C812,-187.1061 812,-205.991 812,-205.991"/>
<polygon fill="#000000" stroke="#000000" points="808.5001,-205.9909 812,-215.991 815.5001,-205.991 808.5001,-205.9909"/>
</g>
<!-- ModalHeader  -->
<g id="node16" class="node">
<title>ModalHeader </title>
<polygon fill="#fb8072" stroke="#000000" points="747.4619,-252 650.5381,-252 650.5381,-216 747.4619,-216 747.4619,-252"/>
<text text-anchor="middle" x="699" y="-229.8" font-family="Times,serif" font-size="14.00" fill="#000000">ModalHeader </text>
</g>
<!-- ModalModule&#45;&gt;ModalHeader  -->
<g id="edge15" class="edge">
<title>ModalModule&#45;&gt;ModalHeader </title>
<path fill="none" stroke="#000000" stroke-dasharray="5,2" d="M763.8339,-183C745.6181,-183 729.1983,-183 729.1983,-183 729.1983,-183 729.1983,-205.8757 729.1983,-205.8757"/>
<polygon fill="#000000" stroke="#000000" points="725.6984,-205.8757 729.1983,-215.8757 732.6984,-205.8757 725.6984,-205.8757"/>
</g>
<!-- ModalPlaceholder  -->
<g id="node17" class="node">
<title>ModalPlaceholder </title>
<polygon fill="#fb8072" stroke="#000000" points="633.1327,-252 510.8673,-252 510.8673,-216 633.1327,-216 633.1327,-252"/>
<text text-anchor="middle" x="572" y="-229.8" font-family="Times,serif" font-size="14.00" fill="#000000">ModalPlaceholder </text>
</g>
<!-- ModalModule&#45;&gt;ModalPlaceholder  -->
<g id="edge16" class="edge">
<title>ModalModule&#45;&gt;ModalPlaceholder </title>
<path fill="none" stroke="#000000" stroke-dasharray="5,2" d="M763.7476,-178C700.0258,-178 595.7909,-178 595.7909,-178 595.7909,-178 595.7909,-205.973 595.7909,-205.973"/>
<polygon fill="#000000" stroke="#000000" points="592.2909,-205.973 595.7909,-215.973 599.2909,-205.973 592.2909,-205.973"/>
</g>
<!-- ButtonModule -->
<g id="node8" class="node">
<title>ButtonModule</title>
<polygon fill="#8dd3c7" stroke="#000000" points="808.6682,-122 805.6682,-126 784.6682,-126 781.6682,-122 711.3318,-122 711.3318,-86 808.6682,-86 808.6682,-122"/>
<text text-anchor="middle" x="760" y="-99.8" font-family="Times,serif" font-size="14.00" fill="#000000">ButtonModule</text>
</g>
<!-- ButtonModule&#45;&gt;ModalModule -->
<g id="edge7" class="edge">
<title>ButtonModule&#45;&gt;ModalModule</title>
<path fill="none" stroke="#000000" d="M786.392,-122.1061C786.392,-122.1061 786.392,-140.991 786.392,-140.991"/>
<polygon fill="#000000" stroke="#000000" points="782.8921,-140.9909 786.392,-150.991 789.8921,-140.991 782.8921,-140.9909"/>
</g>
<!-- ExperimentalModule -->
<g id="node9" class="node">
<title>ExperimentalModule</title>
<polygon fill="#8dd3c7" stroke="#000000" points="693.4692,-122 690.4692,-126 669.4692,-126 666.4692,-122 558.5308,-122 558.5308,-86 693.4692,-86 693.4692,-122"/>
<text text-anchor="middle" x="626" y="-99.8" font-family="Times,serif" font-size="14.00" fill="#000000">ExperimentalModule</text>
</g>
<!-- ExperimentalModule&#45;&gt;ModalModule -->
<g id="edge8" class="edge">
<title>ExperimentalModule&#45;&gt;ModalModule</title>
<path fill="none" stroke="#000000" d="M672.1271,-122.1871C672.1271,-137.1824 672.1271,-156 672.1271,-156 672.1271,-156 753.8637,-156 753.8637,-156"/>
<polygon fill="#000000" stroke="#000000" points="753.8637,-159.5001 763.8637,-156 753.8636,-152.5001 753.8637,-159.5001"/>
</g>
<!-- I18nModule -->
<g id="node10" class="node">
<title>I18nModule</title>
<polygon fill="#8dd3c7" stroke="#000000" points="540.7107,-122 537.7107,-126 516.7107,-126 513.7107,-122 455.2893,-122 455.2893,-86 540.7107,-86 540.7107,-122"/>
<text text-anchor="middle" x="498" y="-99.8" font-family="Times,serif" font-size="14.00" fill="#000000">I18nModule</text>
</g>
<!-- I18nModule&#45;&gt;ModalModule -->
<g id="edge9" class="edge">
<title>I18nModule&#45;&gt;ModalModule</title>
<path fill="none" stroke="#000000" d="M525.7695,-122.027C525.7695,-138.3976 525.7695,-160 525.7695,-160 525.7695,-160 753.7686,-160 753.7686,-160"/>
<polygon fill="#000000" stroke="#000000" points="753.7686,-163.5001 763.7686,-160 753.7685,-156.5001 753.7686,-163.5001"/>
</g>
<!-- PlaceholderModule -->
<g id="node11" class="node">
<title>PlaceholderModule</title>
<polygon fill="#8dd3c7" stroke="#000000" points="437.6331,-122 434.6331,-126 413.6331,-126 410.6331,-122 312.3669,-122 312.3669,-86 437.6331,-86 437.6331,-122"/>
<text text-anchor="middle" x="375" y="-99.8" font-family="Times,serif" font-size="14.00" fill="#000000">PlaceholderModule</text>
</g>
<!-- PlaceholderModule&#45;&gt;ModalModule -->
<g id="edge10" class="edge">
<title>PlaceholderModule&#45;&gt;ModalModule</title>
<path fill="none" stroke="#000000" d="M375,-122.302C375,-140.2699 375,-165 375,-165 375,-165 753.5637,-165 753.5637,-165"/>
<polygon fill="#000000" stroke="#000000" points="753.5637,-168.5001 763.5637,-165 753.5636,-161.5001 753.5637,-168.5001"/>
</g>
<!-- StaticIconModule -->
<g id="node12" class="node">
<title>StaticIconModule</title>
<polygon fill="#8dd3c7" stroke="#000000" points="294.309,-122 291.309,-126 270.309,-126 267.309,-122 177.691,-122 177.691,-86 294.309,-86 294.309,-122"/>
<text text-anchor="middle" x="236" y="-99.8" font-family="Times,serif" font-size="14.00" fill="#000000">StaticIconModule</text>
</g>
<!-- StaticIconModule&#45;&gt;ModalModule -->
<g id="edge11" class="edge">
<title>StaticIconModule&#45;&gt;ModalModule</title>
<path fill="none" stroke="#000000" d="M236,-122.1061C236,-141.3391 236,-169 236,-169 236,-169 753.8813,-169 753.8813,-169"/>
<polygon fill="#000000" stroke="#000000" points="753.8813,-172.5001 763.8813,-169 753.8812,-165.5001 753.8813,-172.5001"/>
</g>
<!-- ModalService -->
<g id="node18" class="node">
<title>ModalService</title>
<ellipse fill="#fdb462" stroke="#000000" cx="89" cy="-104" rx="65.4072" ry="18"/>
<text text-anchor="middle" x="89" y="-99.8" font-family="Times,serif" font-size="14.00" fill="#000000">ModalService</text>
</g>
<!-- ModalService&#45;&gt;ModalModule -->
<g id="edge17" class="edge">
<title>ModalService&#45;&gt;ModalModule</title>
<path fill="none" stroke="#000000" d="M89,-122.0267C89,-142.7672 89,-174 89,-174 89,-174 753.721,-174 753.721,-174"/>
<polygon fill="#000000" stroke="#000000" points="753.721,-177.5001 763.721,-174 753.721,-170.5001 753.721,-177.5001"/>
</g>
</g>
</svg>
