<?xml version="1.0" encoding="UTF-8" standalone="no"?>
<!DOCTYPE svg PUBLIC "-//W3C//DTD SVG 1.1//EN"
 "http://www.w3.org/Graphics/SVG/1.1/DTD/svg11.dtd">
<!-- Generated by graphviz version 2.40.1 (20161225.0304)
 -->
<!-- Title: dependencies Pages: 1 -->
<svg width="504pt" height="396pt"
 viewBox="0.00 0.00 504.00 395.59" xmlns="http://www.w3.org/2000/svg" xmlns:xlink="http://www.w3.org/1999/xlink">
<g id="graph0" class="graph" transform="scale(1 1) rotate(0) translate(4 391.5901)">
<title>dependencies</title>
<polygon fill="#ffffff" stroke="transparent" points="-4,4 -4,-391.5901 500,-391.5901 500,4 -4,4"/>
<text text-anchor="start" x="227.0091" y="-42.4" font-family="sans-serif" font-weight="bold" font-size="14.00" fill="#000000">Legend</text>
<polygon fill="#ffffb3" stroke="transparent" points="14,-10 14,-30 34,-30 34,-10 14,-10"/>
<text text-anchor="start" x="37.629" y="-15.4" font-family="sans-serif" font-size="14.00" fill="#000000"> &#160;Declarations</text>
<polygon fill="#8dd3c7" stroke="transparent" points="127,-10 127,-30 147,-30 147,-10 127,-10"/>
<text text-anchor="start" x="150.7251" y="-15.4" font-family="sans-serif" font-size="14.00" fill="#000000"> &#160;Module</text>
<polygon fill="#80b1d3" stroke="transparent" points="213,-10 213,-30 233,-30 233,-10 213,-10"/>
<text text-anchor="start" x="236.7812" y="-15.4" font-family="sans-serif" font-size="14.00" fill="#000000"> &#160;Bootstrap</text>
<polygon fill="#fdb462" stroke="transparent" points="310,-10 310,-30 330,-30 330,-10 310,-10"/>
<text text-anchor="start" x="333.6732" y="-15.4" font-family="sans-serif" font-size="14.00" fill="#000000"> &#160;Providers</text>
<polygon fill="#fb8072" stroke="transparent" points="406,-10 406,-30 426,-30 426,-10 406,-10"/>
<text text-anchor="start" x="429.7258" y="-15.4" font-family="sans-serif" font-size="14.00" fill="#000000"> &#160;Exports</text>
<g id="clust1" class="cluster">
<title>cluster_RadioModule</title>
<polygon fill="none" stroke="#000000" stroke-dasharray="1,5" points="120,-70 120,-379.5901 376,-379.5901 376,-70 120,-70"/>
</g>
<g id="clust2" class="cluster">
<title>cluster_RadioModule_declarations</title>
<polygon fill="none" stroke="#000000" points="131,-189.5901 131,-241.5901 365,-241.5901 365,-189.5901 131,-189.5901"/>
</g>
<g id="clust3" class="cluster">
<title>cluster_RadioModule_RadioComponent_providers</title>
<polygon fill="none" stroke="#000000" points="178,-78 178,-176.5901 318,-176.5901 318,-78 178,-78"/>
</g>
<g id="clust6" class="cluster">
<title>cluster_RadioModule_exports</title>
<polygon fill="none" stroke="#000000" points="128,-319.5901 128,-371.5901 368,-371.5901 368,-319.5901 128,-319.5901"/>
</g>
<!-- RadioComponent -->
<g id="node1" class="node">
<title>RadioComponent</title>
<polygon fill="#ffffb3" stroke="#000000" points="357.2744,-233.5901 242.7256,-233.5901 242.7256,-197.5901 357.2744,-197.5901 357.2744,-233.5901"/>
<text text-anchor="middle" x="300" y="-211.3901" font-family="Times,serif" font-size="14.00" fill="#000000">RadioComponent</text>
</g>
<!-- RadioModule -->
<g id="node3" class="node">
<title>RadioModule</title>
<polygon fill="#8dd3c7" stroke="#000000" points="228.4916,-298.5901 225.4916,-302.5901 204.4916,-302.5901 201.4916,-298.5901 135.5084,-298.5901 135.5084,-262.5901 228.4916,-262.5901 228.4916,-298.5901"/>
<text text-anchor="middle" x="182" y="-276.3901" font-family="Times,serif" font-size="14.00" fill="#000000">RadioModule</text>
</g>
<!-- RadioComponent&#45;&gt;RadioModule -->
<g id="edge1" class="edge">
<title>RadioComponent&#45;&gt;RadioModule</title>
<path fill="none" stroke="#000000" d="M319.129,-233.6126C319.129,-250.9634 319.129,-274.5901 319.129,-274.5901 319.129,-274.5901 238.8085,-274.5901 238.8085,-274.5901"/>
<polygon fill="#000000" stroke="#000000" points="238.8085,-271.0902 228.8085,-274.5901 238.8085,-278.0902 238.8085,-271.0902"/>
</g>
<!-- RadioGroup -->
<g id="node2" class="node">
<title>RadioGroup</title>
<polygon fill="#ffffb3" stroke="#000000" points="224.7093,-233.5901 139.2907,-233.5901 139.2907,-197.5901 224.7093,-197.5901 224.7093,-233.5901"/>
<text text-anchor="middle" x="182" y="-211.3901" font-family="Times,serif" font-size="14.00" fill="#000000">RadioGroup</text>
</g>
<!-- RadioGroup&#45;&gt;RadioModule -->
<g id="edge3" class="edge">
<title>RadioGroup&#45;&gt;RadioModule</title>
<path fill="none" stroke="#000000" d="M182,-233.6962C182,-233.6962 182,-252.581 182,-252.581"/>
<polygon fill="#000000" stroke="#000000" points="178.5001,-252.581 182,-262.581 185.5001,-252.5811 178.5001,-252.581"/>
</g>
<!-- RadioComponent  -->
<g id="node5" class="node">
<title>RadioComponent </title>
<polygon fill="#fb8072" stroke="#000000" points="360.2745,-363.5901 241.7255,-363.5901 241.7255,-327.5901 360.2745,-327.5901 360.2745,-363.5901"/>
<text text-anchor="middle" x="301" y="-341.3901" font-family="Times,serif" font-size="14.00" fill="#000000">RadioComponent </text>
</g>
<!-- RadioModule&#45;&gt;RadioComponent  -->
<g id="edge5" class="edge">
<title>RadioModule&#45;&gt;RadioComponent </title>
<path fill="none" stroke="#000000" stroke-dasharray="5,2" d="M228.5403,-286.5901C254.1844,-286.5901 280.871,-286.5901 280.871,-286.5901 280.871,-286.5901 280.871,-317.5675 280.871,-317.5675"/>
<polygon fill="#000000" stroke="#000000" points="277.3711,-317.5675 280.871,-327.5675 284.3711,-317.5676 277.3711,-317.5675"/>
</g>
<!-- RadioGroup  -->
<g id="node6" class="node">
<title>RadioGroup </title>
<polygon fill="#fb8072" stroke="#000000" points="224.2095,-363.5901 135.7905,-363.5901 135.7905,-327.5901 224.2095,-327.5901 224.2095,-363.5901"/>
<text text-anchor="middle" x="180" y="-341.3901" font-family="Times,serif" font-size="14.00" fill="#000000">RadioGroup </text>
</g>
<!-- RadioModule&#45;&gt;RadioGroup  -->
<g id="edge6" class="edge">
<title>RadioModule&#45;&gt;RadioGroup </title>
<path fill="none" stroke="#000000" stroke-dasharray="5,2" d="M180,-298.6962C180,-298.6962 180,-317.581 180,-317.581"/>
<polygon fill="#000000" stroke="#000000" points="176.5001,-317.581 180,-327.581 183.5001,-317.5811 176.5001,-317.581"/>
</g>
<!-- {
 &#160;&#160;&#160;: , : , : true
} -->
<g id="node4" class="node">
<title>{
 &#160;&#160;&#160;: , : , : true
}</title>
<ellipse fill="#fdb462" stroke="#000000" cx="248" cy="-127.295" rx="62.3631" ry="41.0911"/>
<text text-anchor="middle" x="248" y="-139.895" font-family="Times,serif" font-size="14.00" fill="#000000">{</text>
<text text-anchor="middle" x="248" y="-123.095" font-family="Times,serif" font-size="14.00" fill="#000000"> &#160;&#160;&#160;: , : , : true</text>
<text text-anchor="middle" x="248" y="-106.295" font-family="Times,serif" font-size="14.00" fill="#000000">}</text>
</g>
<!-- {
 &#160;&#160;&#160;: , : , : true
}&#45;&gt;RadioComponent -->
<g id="edge2" class="edge">
<title>{
 &#160;&#160;&#160;: , : , : true
}&#45;&gt;RadioComponent</title>
<path fill="none" stroke="#000000" d="M276.3971,-164.2285C276.3971,-164.2285 276.3971,-187.5825 276.3971,-187.5825"/>
<polygon fill="#000000" stroke="#000000" points="272.8972,-187.5825 276.3971,-197.5825 279.8972,-187.5826 272.8972,-187.5825"/>
</g>
<!-- {
 &#160;&#160;&#160;: , : , : true
}&#45;&gt;RadioGroup -->
<g id="edge4" class="edge">
<title>{
 &#160;&#160;&#160;: , : , : true
}&#45;&gt;RadioGroup</title>
<path fill="none" stroke="#000000" d="M205.2116,-157.6812C205.2116,-157.6812 205.2116,-187.5209 205.2116,-187.5209"/>
<polygon fill="#000000" stroke="#000000" points="201.7117,-187.5208 205.2116,-197.5209 208.7117,-187.5209 201.7117,-187.5208"/>
</g>
</g>
</svg>
