<?xml version="1.0" encoding="UTF-8" standalone="no"?>
<!DOCTYPE svg PUBLIC "-//W3C//DTD SVG 1.1//EN"
 "http://www.w3.org/Graphics/SVG/1.1/DTD/svg11.dtd">
<!-- Generated by graphviz version 2.40.1 (20161225.0304)
 -->
<!-- Title: dependencies Pages: 1 -->
<svg width="504pt" height="284pt"
 viewBox="0.00 0.00 504.00 284.00" xmlns="http://www.w3.org/2000/svg" xmlns:xlink="http://www.w3.org/1999/xlink">
<g id="graph0" class="graph" transform="scale(1 1) rotate(0) translate(4 280)">
<title>dependencies</title>
<polygon fill="#ffffff" stroke="transparent" points="-4,4 -4,-280 500,-280 500,4 -4,4"/>
<text text-anchor="start" x="227.0091" y="-42.4" font-family="sans-serif" font-weight="bold" font-size="14.00" fill="#000000">Legend</text>
<polygon fill="#ffffb3" stroke="transparent" points="14,-10 14,-30 34,-30 34,-10 14,-10"/>
<text text-anchor="start" x="37.629" y="-15.4" font-family="sans-serif" font-size="14.00" fill="#000000"> &#160;Declarations</text>
<polygon fill="#8dd3c7" stroke="transparent" points="127,-10 127,-30 147,-30 147,-10 127,-10"/>
<text text-anchor="start" x="150.7251" y="-15.4" font-family="sans-serif" font-size="14.00" fill="#000000"> &#160;Module</text>
<polygon fill="#80b1d3" stroke="transparent" points="213,-10 213,-30 233,-30 233,-10 213,-10"/>
<text text-anchor="start" x="236.7812" y="-15.4" font-family="sans-serif" font-size="14.00" fill="#000000"> &#160;Bootstrap</text>
<polygon fill="#fdb462" stroke="transparent" points="310,-10 310,-30 330,-30 330,-10 310,-10"/>
<text text-anchor="start" x="333.6732" y="-15.4" font-family="sans-serif" font-size="14.00" fill="#000000"> &#160;Providers</text>
<polygon fill="#fb8072" stroke="transparent" points="406,-10 406,-30 426,-30 426,-10 406,-10"/>
<text text-anchor="start" x="429.7258" y="-15.4" font-family="sans-serif" font-size="14.00" fill="#000000"> &#160;Exports</text>
<g id="clust1" class="cluster">
<title>cluster_ListModule</title>
<polygon fill="none" stroke="#000000" stroke-dasharray="1,5" points="136,-70 136,-268 360,-268 360,-70 136,-70"/>
</g>
<g id="clust2" class="cluster">
<title>cluster_ListModule_declarations</title>
<polygon fill="none" stroke="#000000" points="146,-78 146,-130 350,-130 350,-78 146,-78"/>
</g>
<g id="clust6" class="cluster">
<title>cluster_ListModule_exports</title>
<polygon fill="none" stroke="#000000" points="144,-208 144,-260 352,-260 352,-208 144,-208"/>
</g>
<!-- List -->
<g id="node1" class="node">
<title>List</title>
<polygon fill="#ffffb3" stroke="#000000" points="342,-122 288,-122 288,-86 342,-86 342,-122"/>
<text text-anchor="middle" x="315" y="-99.8" font-family="Times,serif" font-size="14.00" fill="#000000">List</text>
</g>
<!-- ListModule -->
<g id="node3" class="node">
<title>ListModule</title>
<polygon fill="#8dd3c7" stroke="#000000" points="253.8289,-187 250.8289,-191 229.8289,-191 226.8289,-187 172.1711,-187 172.1711,-151 253.8289,-151 253.8289,-187"/>
<text text-anchor="middle" x="213" y="-164.8" font-family="Times,serif" font-size="14.00" fill="#000000">ListModule</text>
</g>
<!-- List&#45;&gt;ListModule -->
<g id="edge1" class="edge">
<title>List&#45;&gt;ListModule</title>
<path fill="none" stroke="#000000" d="M324.6667,-122.0225C324.6667,-139.3734 324.6667,-163 324.6667,-163 324.6667,-163 263.9465,-163 263.9465,-163"/>
<polygon fill="#000000" stroke="#000000" points="263.9465,-159.5001 253.9465,-163 263.9464,-166.5001 263.9465,-159.5001"/>
</g>
<!-- ListItemDirective -->
<g id="node2" class="node">
<title>ListItemDirective</title>
<polygon fill="#ffffb3" stroke="#000000" points="269.5186,-122 154.4814,-122 154.4814,-86 269.5186,-86 269.5186,-122"/>
<text text-anchor="middle" x="212" y="-99.8" font-family="Times,serif" font-size="14.00" fill="#000000">ListItemDirective</text>
</g>
<!-- ListItemDirective&#45;&gt;ListModule -->
<g id="edge2" class="edge">
<title>ListItemDirective&#45;&gt;ListModule</title>
<path fill="none" stroke="#000000" d="M213,-122.1061C213,-122.1061 213,-140.991 213,-140.991"/>
<polygon fill="#000000" stroke="#000000" points="209.5001,-140.9909 213,-150.991 216.5001,-140.991 209.5001,-140.9909"/>
</g>
<!-- List  -->
<g id="node4" class="node">
<title>List </title>
<polygon fill="#fb8072" stroke="#000000" points="344,-252 290,-252 290,-216 344,-216 344,-252"/>
<text text-anchor="middle" x="317" y="-229.8" font-family="Times,serif" font-size="14.00" fill="#000000">List </text>
</g>
<!-- ListModule&#45;&gt;List  -->
<g id="edge3" class="edge">
<title>ListModule&#45;&gt;List </title>
<path fill="none" stroke="#000000" stroke-dasharray="5,2" d="M253.8273,-175C279.322,-175 307.3333,-175 307.3333,-175 307.3333,-175 307.3333,-205.9775 307.3333,-205.9775"/>
<polygon fill="#000000" stroke="#000000" points="303.8334,-205.9774 307.3333,-215.9775 310.8334,-205.9775 303.8334,-205.9774"/>
</g>
<!-- ListItemDirective  -->
<g id="node5" class="node">
<title>ListItemDirective </title>
<polygon fill="#fb8072" stroke="#000000" points="271.5176,-252 152.4824,-252 152.4824,-216 271.5176,-216 271.5176,-252"/>
<text text-anchor="middle" x="212" y="-229.8" font-family="Times,serif" font-size="14.00" fill="#000000">ListItemDirective </text>
</g>
<!-- ListModule&#45;&gt;ListItemDirective  -->
<g id="edge4" class="edge">
<title>ListModule&#45;&gt;ListItemDirective </title>
<path fill="none" stroke="#000000" stroke-dasharray="5,2" d="M213,-187.1061C213,-187.1061 213,-205.991 213,-205.991"/>
<polygon fill="#000000" stroke="#000000" points="209.5001,-205.9909 213,-215.991 216.5001,-205.991 209.5001,-205.9909"/>
</g>
</g>
</svg>
