<?xml version="1.0" encoding="UTF-8" standalone="no"?>
<!DOCTYPE svg PUBLIC "-//W3C//DTD SVG 1.1//EN"
 "http://www.w3.org/Graphics/SVG/1.1/DTD/svg11.dtd">
<!-- Generated by graphviz version 2.40.1 (20161225.0304)
 -->
<!-- Title: dependencies Pages: 1 -->
<svg width="923pt" height="284pt"
 viewBox="0.00 0.00 923.00 284.00" xmlns="http://www.w3.org/2000/svg" xmlns:xlink="http://www.w3.org/1999/xlink">
<g id="graph0" class="graph" transform="scale(1 1) rotate(0) translate(4 280)">
<title>dependencies</title>
<polygon fill="#ffffff" stroke="transparent" points="-4,4 -4,-280 919,-280 919,4 -4,4"/>
<text text-anchor="start" x="436.5091" y="-42.4" font-family="sans-serif" font-weight="bold" font-size="14.00" fill="#000000">Legend</text>
<polygon fill="#ffffb3" stroke="transparent" points="223.5,-10 223.5,-30 243.5,-30 243.5,-10 223.5,-10"/>
<text text-anchor="start" x="247.129" y="-15.4" font-family="sans-serif" font-size="14.00" fill="#000000"> &#160;Declarations</text>
<polygon fill="#8dd3c7" stroke="transparent" points="336.5,-10 336.5,-30 356.5,-30 356.5,-10 336.5,-10"/>
<text text-anchor="start" x="360.2251" y="-15.4" font-family="sans-serif" font-size="14.00" fill="#000000"> &#160;Module</text>
<polygon fill="#80b1d3" stroke="transparent" points="422.5,-10 422.5,-30 442.5,-30 442.5,-10 422.5,-10"/>
<text text-anchor="start" x="446.2812" y="-15.4" font-family="sans-serif" font-size="14.00" fill="#000000"> &#160;Bootstrap</text>
<polygon fill="#fdb462" stroke="transparent" points="519.5,-10 519.5,-30 539.5,-30 539.5,-10 519.5,-10"/>
<text text-anchor="start" x="543.1732" y="-15.4" font-family="sans-serif" font-size="14.00" fill="#000000"> &#160;Providers</text>
<polygon fill="#fb8072" stroke="transparent" points="615.5,-10 615.5,-30 635.5,-30 635.5,-10 615.5,-10"/>
<text text-anchor="start" x="639.2258" y="-15.4" font-family="sans-serif" font-size="14.00" fill="#000000"> &#160;Exports</text>
<g id="clust1" class="cluster">
<title>cluster_NotificationModule</title>
<polygon fill="none" stroke="#000000" stroke-dasharray="1,5" points="8,-70 8,-268 907,-268 907,-70 8,-70"/>
</g>
<g id="clust2" class="cluster">
<title>cluster_NotificationModule_declarations</title>
<polygon fill="none" stroke="#000000" points="727,-78 727,-130 899,-130 899,-78 727,-78"/>
</g>
<g id="clust5" class="cluster">
<title>cluster_NotificationModule_imports</title>
<polygon fill="none" stroke="#000000" points="465,-78 465,-130 719,-130 719,-78 465,-78"/>
</g>
<g id="clust6" class="cluster">
<title>cluster_NotificationModule_exports</title>
<polygon fill="none" stroke="#000000" points="500,-208 500,-260 676,-260 676,-208 500,-208"/>
</g>
<g id="clust8" class="cluster">
<title>cluster_NotificationModule_providers</title>
<polygon fill="none" stroke="#000000" points="16,-78 16,-130 457,-130 457,-78 16,-78"/>
</g>
<!-- Notification -->
<g id="node1" class="node">
<title>Notification</title>
<polygon fill="#ffffb3" stroke="#000000" points="890.6501,-122 807.3499,-122 807.3499,-86 890.6501,-86 890.6501,-122"/>
<text text-anchor="middle" x="849" y="-99.8" font-family="Times,serif" font-size="14.00" fill="#000000">Notification</text>
</g>
<!-- NotificationModule -->
<g id="node3" class="node">
<title>NotificationModule</title>
<polygon fill="#8dd3c7" stroke="#000000" points="643.6994,-187 640.6994,-191 619.6994,-191 616.6994,-187 516.3006,-187 516.3006,-151 643.6994,-151 643.6994,-187"/>
<text text-anchor="middle" x="580" y="-164.8" font-family="Times,serif" font-size="14.00" fill="#000000">NotificationModule</text>
</g>
<!-- Notification&#45;&gt;NotificationModule -->
<g id="edge1" class="edge">
<title>Notification&#45;&gt;NotificationModule</title>
<path fill="none" stroke="#000000" d="M849,-122.2843C849,-143.3211 849,-175 849,-175 849,-175 653.7492,-175 653.7492,-175"/>
<polygon fill="#000000" stroke="#000000" points="653.7493,-171.5001 643.7492,-175 653.7492,-178.5001 653.7493,-171.5001"/>
</g>
<!-- Toast -->
<g id="node2" class="node">
<title>Toast</title>
<polygon fill="#ffffb3" stroke="#000000" points="789,-122 735,-122 735,-86 789,-86 789,-122"/>
<text text-anchor="middle" x="762" y="-99.8" font-family="Times,serif" font-size="14.00" fill="#000000">Toast</text>
</g>
<!-- Toast&#45;&gt;NotificationModule -->
<g id="edge2" class="edge">
<title>Toast&#45;&gt;NotificationModule</title>
<path fill="none" stroke="#000000" d="M762,-122.0225C762,-139.3734 762,-163 762,-163 762,-163 653.6548,-163 653.6548,-163"/>
<polygon fill="#000000" stroke="#000000" points="653.6548,-159.5001 643.6548,-163 653.6547,-166.5001 653.6548,-159.5001"/>
</g>
<!-- Notification  -->
<g id="node6" class="node">
<title>Notification </title>
<polygon fill="#fb8072" stroke="#000000" points="667.6495,-252 580.3505,-252 580.3505,-216 667.6495,-216 667.6495,-252"/>
<text text-anchor="middle" x="624" y="-229.8" font-family="Times,serif" font-size="14.00" fill="#000000">Notification </text>
</g>
<!-- NotificationModule&#45;&gt;Notification  -->
<g id="edge5" class="edge">
<title>NotificationModule&#45;&gt;Notification </title>
<path fill="none" stroke="#000000" stroke-dasharray="5,2" d="M612.0124,-187.1061C612.0124,-187.1061 612.0124,-205.991 612.0124,-205.991"/>
<polygon fill="#000000" stroke="#000000" points="608.5125,-205.9909 612.0124,-215.991 615.5125,-205.991 608.5125,-205.9909"/>
</g>
<!-- Toast  -->
<g id="node7" class="node">
<title>Toast </title>
<polygon fill="#fb8072" stroke="#000000" points="562,-252 508,-252 508,-216 562,-216 562,-252"/>
<text text-anchor="middle" x="535" y="-229.8" font-family="Times,serif" font-size="14.00" fill="#000000">Toast </text>
</g>
<!-- NotificationModule&#45;&gt;Toast  -->
<g id="edge6" class="edge">
<title>NotificationModule&#45;&gt;Toast </title>
<path fill="none" stroke="#000000" stroke-dasharray="5,2" d="M539.2002,-187.1061C539.2002,-187.1061 539.2002,-205.991 539.2002,-205.991"/>
<polygon fill="#000000" stroke="#000000" points="535.7003,-205.9909 539.2002,-215.991 542.7003,-205.991 535.7003,-205.9909"/>
</g>
<!-- ExperimentalModule -->
<g id="node4" class="node">
<title>ExperimentalModule</title>
<polygon fill="#8dd3c7" stroke="#000000" points="711.4692,-122 708.4692,-126 687.4692,-126 684.4692,-122 576.5308,-122 576.5308,-86 711.4692,-86 711.4692,-122"/>
<text text-anchor="middle" x="644" y="-99.8" font-family="Times,serif" font-size="14.00" fill="#000000">ExperimentalModule</text>
</g>
<!-- ExperimentalModule&#45;&gt;NotificationModule -->
<g id="edge3" class="edge">
<title>ExperimentalModule&#45;&gt;NotificationModule</title>
<path fill="none" stroke="#000000" d="M610.0575,-122.1061C610.0575,-122.1061 610.0575,-140.991 610.0575,-140.991"/>
<polygon fill="#000000" stroke="#000000" points="606.5576,-140.9909 610.0575,-150.991 613.5576,-140.991 606.5576,-140.9909"/>
</g>
<!-- I18nModule -->
<g id="node5" class="node">
<title>I18nModule</title>
<polygon fill="#8dd3c7" stroke="#000000" points="558.7107,-122 555.7107,-126 534.7107,-126 531.7107,-122 473.2893,-122 473.2893,-86 558.7107,-86 558.7107,-122"/>
<text text-anchor="middle" x="516" y="-99.8" font-family="Times,serif" font-size="14.00" fill="#000000">I18nModule</text>
</g>
<!-- I18nModule&#45;&gt;NotificationModule -->
<g id="edge4" class="edge">
<title>I18nModule&#45;&gt;NotificationModule</title>
<path fill="none" stroke="#000000" d="M537.5028,-122.1061C537.5028,-122.1061 537.5028,-140.991 537.5028,-140.991"/>
<polygon fill="#000000" stroke="#000000" points="534.0029,-140.9909 537.5028,-150.991 541.0029,-140.991 534.0029,-140.9909"/>
</g>
<!-- NotificationDisplayService -->
<g id="node8" class="node">
<title>NotificationDisplayService</title>
<ellipse fill="#fdb462" stroke="#000000" cx="332" cy="-104" rx="116.8866" ry="18"/>
<text text-anchor="middle" x="332" y="-99.8" font-family="Times,serif" font-size="14.00" fill="#000000">NotificationDisplayService</text>
</g>
<!-- NotificationDisplayService&#45;&gt;NotificationModule -->
<g id="edge7" class="edge">
<title>NotificationDisplayService&#45;&gt;NotificationModule</title>
<path fill="none" stroke="#000000" d="M332,-122.0225C332,-139.3734 332,-163 332,-163 332,-163 506.1338,-163 506.1338,-163"/>
<polygon fill="#000000" stroke="#000000" points="506.1339,-166.5001 516.1338,-163 506.1338,-159.5001 506.1339,-166.5001"/>
</g>
<!-- NotificationService -->
<g id="node9" class="node">
<title>NotificationService</title>
<ellipse fill="#fdb462" stroke="#000000" cx="111" cy="-104" rx="86.8107" ry="18"/>
<text text-anchor="middle" x="111" y="-99.8" font-family="Times,serif" font-size="14.00" fill="#000000">NotificationService</text>
</g>
<!-- NotificationService&#45;&gt;NotificationModule -->
<g id="edge8" class="edge">
<title>NotificationService&#45;&gt;NotificationModule</title>
<path fill="none" stroke="#000000" d="M111,-122.2843C111,-143.3211 111,-175 111,-175 111,-175 506.2605,-175 506.2605,-175"/>
<polygon fill="#000000" stroke="#000000" points="506.2605,-178.5001 516.2605,-175 506.2604,-171.5001 506.2605,-178.5001"/>
</g>
</g>
</svg>
