<?xml version="1.0" encoding="UTF-8" standalone="no"?>
<!DOCTYPE svg PUBLIC "-//W3C//DTD SVG 1.1//EN"
 "http://www.w3.org/Graphics/SVG/1.1/DTD/svg11.dtd">
<!-- Generated by graphviz version 2.47.0 (20210316.0004)
 -->
<!-- Title: dependencies Pages: 1 -->
<svg width="504pt" height="284pt"
 viewBox="0.00 0.00 504.00 284.00" xmlns="http://www.w3.org/2000/svg" xmlns:xlink="http://www.w3.org/1999/xlink">
<g id="graph0" class="graph" transform="scale(1 1) rotate(0) translate(4 280)">
<title>dependencies</title>
<polygon fill="white" stroke="transparent" points="-4,4 -4,-280 500,-280 500,4 -4,4"/>
<text text-anchor="start" x="227.01" y="-42.4" font-family="Times-12" font-weight="bold" font-size="14.00">Legend</text>
<polygon fill="#ffffb3" stroke="transparent" points="14,-10 14,-30 34,-30 34,-10 14,-10"/>
<text text-anchor="start" x="37.63" y="-15.4" font-family="Times-12" font-size="14.00"> &#160;Declarations</text>
<polygon fill="#8dd3c7" stroke="transparent" points="127,-10 127,-30 147,-30 147,-10 127,-10"/>
<text text-anchor="start" x="150.73" y="-15.4" font-family="Times-12" font-size="14.00"> &#160;Module</text>
<polygon fill="#80b1d3" stroke="transparent" points="213,-10 213,-30 233,-30 233,-10 213,-10"/>
<text text-anchor="start" x="236.78" y="-15.4" font-family="Times-12" font-size="14.00"> &#160;Bootstrap</text>
<polygon fill="#fdb462" stroke="transparent" points="310,-10 310,-30 330,-30 330,-10 310,-10"/>
<text text-anchor="start" x="333.67" y="-15.4" font-family="Times-12" font-size="14.00"> &#160;Providers</text>
<polygon fill="#fb8072" stroke="transparent" points="406,-10 406,-30 426,-30 426,-10 406,-10"/>
<text text-anchor="start" x="429.73" y="-15.4" font-family="Times-12" font-size="14.00"> &#160;Exports</text>
<g id="clust1" class="cluster">
<title>cluster_SkeletonModule</title>
<polygon fill="none" stroke="black" stroke-dasharray="1,5" points="109,-70 109,-268 387,-268 387,-70 109,-70"/>
</g>
<g id="clust2" class="cluster">
<title>cluster_SkeletonModule_declarations</title>
<polygon fill="none" stroke="black" points="118,-78 118,-130 374,-130 374,-78 118,-78"/>
</g>
<g id="clust6" class="cluster">
<title>cluster_SkeletonModule_exports</title>
<polygon fill="none" stroke="black" points="117,-208 117,-260 379,-260 379,-208 117,-208"/>
</g>
<!-- SkeletonPlaceholder -->
<g id="node1" class="node">
<title>SkeletonPlaceholder</title>
<polygon fill="#ffffb3" stroke="black" points="365.58,-122 234.42,-122 234.42,-86 365.58,-86 365.58,-122"/>
<text text-anchor="middle" x="300" y="-99.8" font-family="Times,serif" font-size="14.00">SkeletonPlaceholder</text>
</g>
<!-- SkeletonModule -->
<g id="node3" class="node">
<title>SkeletonModule</title>
<polygon fill="#8dd3c7" stroke="black" points="290.04,-187 287.04,-191 266.04,-191 263.04,-187 181.96,-187 181.96,-151 290.04,-151 290.04,-187"/>
<text text-anchor="middle" x="236" y="-164.8" font-family="Times,serif" font-size="14.00">SkeletonModule</text>
</g>
<!-- SkeletonPlaceholder&#45;&gt;SkeletonModule -->
<g id="edge1" class="edge">
<title>SkeletonPlaceholder&#45;&gt;SkeletonModule</title>
<path fill="none" stroke="black" d="M262.37,-122.11C262.37,-122.11 262.37,-140.99 262.37,-140.99"/>
<polygon fill="black" stroke="black" points="258.87,-140.99 262.37,-150.99 265.87,-140.99 258.87,-140.99"/>
</g>
<!-- SkeletonText -->
<g id="node2" class="node">
<title>SkeletonText</title>
<polygon fill="#ffffb3" stroke="black" points="216.15,-122 125.85,-122 125.85,-86 216.15,-86 216.15,-122"/>
<text text-anchor="middle" x="171" y="-99.8" font-family="Times,serif" font-size="14.00">SkeletonText</text>
</g>
<!-- SkeletonText&#45;&gt;SkeletonModule -->
<g id="edge2" class="edge">
<title>SkeletonText&#45;&gt;SkeletonModule</title>
<path fill="none" stroke="black" d="M199.03,-122.11C199.03,-122.11 199.03,-140.99 199.03,-140.99"/>
<polygon fill="black" stroke="black" points="195.53,-140.99 199.03,-150.99 202.53,-140.99 195.53,-140.99"/>
</g>
<!-- SkeletonPlaceholder  -->
<g id="node4" class="node">
<title>SkeletonPlaceholder </title>
<polygon fill="#fb8072" stroke="black" points="371.08,-252 236.92,-252 236.92,-216 371.08,-216 371.08,-252"/>
<text text-anchor="middle" x="304" y="-229.8" font-family="Times,serif" font-size="14.00">SkeletonPlaceholder </text>
</g>
<!-- SkeletonModule&#45;&gt;SkeletonPlaceholder  -->
<g id="edge3" class="edge">
<title>SkeletonModule&#45;&gt;SkeletonPlaceholder </title>
<path fill="none" stroke="black" stroke-dasharray="5,2" d="M263.49,-187.11C263.49,-187.11 263.49,-205.99 263.49,-205.99"/>
<polygon fill="black" stroke="black" points="259.99,-205.99 263.49,-215.99 266.99,-205.99 259.99,-205.99"/>
</g>
<!-- SkeletonText  -->
<g id="node5" class="node">
<title>SkeletonText </title>
<polygon fill="#fb8072" stroke="black" points="219.15,-252 124.85,-252 124.85,-216 219.15,-216 219.15,-252"/>
<text text-anchor="middle" x="172" y="-229.8" font-family="Times,serif" font-size="14.00">SkeletonText </text>
</g>
<!-- SkeletonModule&#45;&gt;SkeletonText  -->
<g id="edge4" class="edge">
<title>SkeletonModule&#45;&gt;SkeletonText </title>
<path fill="none" stroke="black" stroke-dasharray="5,2" d="M200.4,-187.11C200.4,-187.11 200.4,-205.99 200.4,-205.99"/>
<polygon fill="black" stroke="black" points="196.9,-205.99 200.4,-215.99 203.9,-205.99 196.9,-205.99"/>
</g>
</g>
</svg>
