<?xml version="1.0" encoding="UTF-8" standalone="no"?>
<!DOCTYPE svg PUBLIC "-//W3C//DTD SVG 1.1//EN"
 "http://www.w3.org/Graphics/SVG/1.1/DTD/svg11.dtd">
<!-- Generated by graphviz version 2.40.1 (20161225.0304)
 -->
<!-- Title: dependencies Pages: 1 -->
<svg width="648pt" height="396pt"
 viewBox="0.00 0.00 648.00 395.59" xmlns="http://www.w3.org/2000/svg" xmlns:xlink="http://www.w3.org/1999/xlink">
<g id="graph0" class="graph" transform="scale(1 1) rotate(0) translate(4 391.5901)">
<title>dependencies</title>
<polygon fill="#ffffff" stroke="transparent" points="-4,4 -4,-391.5901 644,-391.5901 644,4 -4,4"/>
<text text-anchor="start" x="299.0091" y="-42.4" font-family="sans-serif" font-weight="bold" font-size="14.00" fill="#000000">Legend</text>
<polygon fill="#ffffb3" stroke="transparent" points="86,-10 86,-30 106,-30 106,-10 86,-10"/>
<text text-anchor="start" x="109.629" y="-15.4" font-family="sans-serif" font-size="14.00" fill="#000000"> &#160;Declarations</text>
<polygon fill="#8dd3c7" stroke="transparent" points="199,-10 199,-30 219,-30 219,-10 199,-10"/>
<text text-anchor="start" x="222.7251" y="-15.4" font-family="sans-serif" font-size="14.00" fill="#000000"> &#160;Module</text>
<polygon fill="#80b1d3" stroke="transparent" points="285,-10 285,-30 305,-30 305,-10 285,-10"/>
<text text-anchor="start" x="308.7812" y="-15.4" font-family="sans-serif" font-size="14.00" fill="#000000"> &#160;Bootstrap</text>
<polygon fill="#fdb462" stroke="transparent" points="382,-10 382,-30 402,-30 402,-10 382,-10"/>
<text text-anchor="start" x="405.6732" y="-15.4" font-family="sans-serif" font-size="14.00" fill="#000000"> &#160;Providers</text>
<polygon fill="#fb8072" stroke="transparent" points="478,-10 478,-30 498,-30 498,-10 478,-10"/>
<text text-anchor="start" x="501.7258" y="-15.4" font-family="sans-serif" font-size="14.00" fill="#000000"> &#160;Exports</text>
<g id="clust1" class="cluster">
<title>cluster_ToggleModule</title>
<polygon fill="none" stroke="#000000" stroke-dasharray="1,5" points="8,-70 8,-379.5901 632,-379.5901 632,-70 8,-70"/>
</g>
<g id="clust2" class="cluster">
<title>cluster_ToggleModule_declarations</title>
<polygon fill="none" stroke="#000000" points="284,-189.5901 284,-241.5901 356,-241.5901 356,-189.5901 284,-189.5901"/>
</g>
<g id="clust3" class="cluster">
<title>cluster_ToggleModule_Toggle_providers</title>
<polygon fill="none" stroke="#000000" points="16,-78 16,-176.5901 624,-176.5901 624,-78 16,-78"/>
</g>
<g id="clust5" class="cluster">
<title>cluster_ToggleModule_exports</title>
<polygon fill="none" stroke="#000000" points="282,-319.5901 282,-371.5901 358,-371.5901 358,-319.5901 282,-319.5901"/>
</g>
<!-- Toggle -->
<g id="node1" class="node">
<title>Toggle</title>
<polygon fill="#ffffb3" stroke="#000000" points="347.6588,-233.5901 292.3412,-233.5901 292.3412,-197.5901 347.6588,-197.5901 347.6588,-233.5901"/>
<text text-anchor="middle" x="320" y="-211.3901" font-family="Times,serif" font-size="14.00" fill="#000000">Toggle</text>
</g>
<!-- ToggleModule -->
<g id="node2" class="node">
<title>ToggleModule</title>
<polygon fill="#8dd3c7" stroke="#000000" points="369.7078,-298.5901 366.7078,-302.5901 345.7078,-302.5901 342.7078,-298.5901 270.2922,-298.5901 270.2922,-262.5901 369.7078,-262.5901 369.7078,-298.5901"/>
<text text-anchor="middle" x="320" y="-276.3901" font-family="Times,serif" font-size="14.00" fill="#000000">ToggleModule</text>
</g>
<!-- Toggle&#45;&gt;ToggleModule -->
<g id="edge1" class="edge">
<title>Toggle&#45;&gt;ToggleModule</title>
<path fill="none" stroke="#000000" d="M320,-233.6962C320,-233.6962 320,-252.581 320,-252.581"/>
<polygon fill="#000000" stroke="#000000" points="316.5001,-252.581 320,-262.581 323.5001,-252.5811 316.5001,-252.581"/>
</g>
<!-- Toggle  -->
<g id="node4" class="node">
<title>Toggle </title>
<polygon fill="#fb8072" stroke="#000000" points="349.658,-363.5901 290.342,-363.5901 290.342,-327.5901 349.658,-327.5901 349.658,-363.5901"/>
<text text-anchor="middle" x="320" y="-341.3901" font-family="Times,serif" font-size="14.00" fill="#000000">Toggle </text>
</g>
<!-- ToggleModule&#45;&gt;Toggle  -->
<g id="edge3" class="edge">
<title>ToggleModule&#45;&gt;Toggle </title>
<path fill="none" stroke="#000000" stroke-dasharray="5,2" d="M320,-298.6962C320,-298.6962 320,-317.581 320,-317.581"/>
<polygon fill="#000000" stroke="#000000" points="316.5001,-317.581 320,-327.581 323.5001,-317.5811 316.5001,-317.581"/>
</g>
<!-- {
 &#160;&#160;&#160;provide: NG_VALUE_ACCESSOR, useExisting: Toggle, multi: true
} -->
<g id="node3" class="node">
<title>{
 &#160;&#160;&#160;provide: NG_VALUE_ACCESSOR, useExisting: Toggle, multi: true
}</title>
<ellipse fill="#fdb462" stroke="#000000" cx="320" cy="-127.295" rx="296.3819" ry="41.0911"/>
<text text-anchor="middle" x="320" y="-139.895" font-family="Times,serif" font-size="14.00" fill="#000000">{</text>
<text text-anchor="middle" x="320" y="-123.095" font-family="Times,serif" font-size="14.00" fill="#000000"> &#160;&#160;&#160;provide: NG_VALUE_ACCESSOR, useExisting: Toggle, multi: true</text>
<text text-anchor="middle" x="320" y="-106.295" font-family="Times,serif" font-size="14.00" fill="#000000">}</text>
</g>
<!-- {
 &#160;&#160;&#160;provide: NG_VALUE_ACCESSOR, useExisting: Toggle, multi: true
}&#45;&gt;Toggle -->
<g id="edge2" class="edge">
<title>{
 &#160;&#160;&#160;provide: NG_VALUE_ACCESSOR, useExisting: Toggle, multi: true
}&#45;&gt;Toggle</title>
<path fill="none" stroke="#000000" d="M320,-168.5989C320,-168.5989 320,-187.2551 320,-187.2551"/>
<polygon fill="#000000" stroke="#000000" points="316.5001,-187.255 320,-197.2551 323.5001,-187.2551 316.5001,-187.255"/>
</g>
</g>
</svg>
