<?xml version="1.0" encoding="UTF-8" standalone="no"?>
<!DOCTYPE svg PUBLIC "-//W3C//DTD SVG 1.1//EN"
 "http://www.w3.org/Graphics/SVG/1.1/DTD/svg11.dtd">
<!-- Generated by graphviz version 2.47.0 (20210316.0004)
 -->
<!-- Title: dependencies Pages: 1 -->
<svg width="504pt" height="284pt"
 viewBox="0.00 0.00 504.00 284.00" xmlns="http://www.w3.org/2000/svg" xmlns:xlink="http://www.w3.org/1999/xlink">
<g id="graph0" class="graph" transform="scale(1 1) rotate(0) translate(4 280)">
<title>dependencies</title>
<polygon fill="white" stroke="transparent" points="-4,4 -4,-280 500,-280 500,4 -4,4"/>
<text text-anchor="start" x="227.01" y="-42.4" font-family="Times-12" font-weight="bold" font-size="14.00">Legend</text>
<polygon fill="#ffffb3" stroke="transparent" points="14,-10 14,-30 34,-30 34,-10 14,-10"/>
<text text-anchor="start" x="37.63" y="-15.4" font-family="Times-12" font-size="14.00"> &#160;Declarations</text>
<polygon fill="#8dd3c7" stroke="transparent" points="127,-10 127,-30 147,-30 147,-10 127,-10"/>
<text text-anchor="start" x="150.73" y="-15.4" font-family="Times-12" font-size="14.00"> &#160;Module</text>
<polygon fill="#80b1d3" stroke="transparent" points="213,-10 213,-30 233,-30 233,-10 213,-10"/>
<text text-anchor="start" x="236.78" y="-15.4" font-family="Times-12" font-size="14.00"> &#160;Bootstrap</text>
<polygon fill="#fdb462" stroke="transparent" points="310,-10 310,-30 330,-30 330,-10 310,-10"/>
<text text-anchor="start" x="333.67" y="-15.4" font-family="Times-12" font-size="14.00"> &#160;Providers</text>
<polygon fill="#fb8072" stroke="transparent" points="406,-10 406,-30 426,-30 426,-10 406,-10"/>
<text text-anchor="start" x="429.73" y="-15.4" font-family="Times-12" font-size="14.00"> &#160;Exports</text>
<g id="clust1" class="cluster">
<title>cluster_ProgressBarModule</title>
<polygon fill="none" stroke="black" stroke-dasharray="1,5" points="136,-70 136,-268 360,-268 360,-70 136,-70"/>
</g>
<g id="clust5" class="cluster">
<title>cluster_ProgressBarModule_exports</title>
<polygon fill="none" stroke="black" points="196,-208 196,-260 300,-260 300,-208 196,-208"/>
</g>
<g id="clust2" class="cluster">
<title>cluster_ProgressBarModule_declarations</title>
<polygon fill="none" stroke="black" points="252,-78 252,-130 352,-130 352,-78 252,-78"/>
</g>
<g id="clust4" class="cluster">
<title>cluster_ProgressBarModule_imports</title>
<polygon fill="none" stroke="black" points="144,-78 144,-130 244,-130 244,-78 144,-78"/>
</g>
<!-- ProgressBar -->
<g id="node1" class="node">
<title>ProgressBar</title>
<polygon fill="#ffffb3" stroke="black" points="344.42,-122 259.58,-122 259.58,-86 344.42,-86 344.42,-122"/>
<text text-anchor="middle" x="302" y="-99.8" font-family="Times,serif" font-size="14.00">ProgressBar</text>
</g>
<!-- ProgressBarModule -->
<g id="node2" class="node">
<title>ProgressBarModule</title>
<polygon fill="#8dd3c7" stroke="black" points="311.97,-187 308.97,-191 287.97,-191 284.97,-187 184.03,-187 184.03,-151 311.97,-151 311.97,-187"/>
<text text-anchor="middle" x="248" y="-164.8" font-family="Times,serif" font-size="14.00">ProgressBarModule</text>
</g>
<!-- ProgressBar&#45;&gt;ProgressBarModule -->
<g id="edge1" class="edge">
<title>ProgressBar&#45;&gt;ProgressBarModule</title>
<path fill="none" stroke="black" d="M285.89,-122.11C285.89,-122.11 285.89,-140.99 285.89,-140.99"/>
<polygon fill="black" stroke="black" points="282.39,-140.99 285.89,-150.99 289.39,-140.99 282.39,-140.99"/>
</g>
<!-- ProgressBar  -->
<g id="node4" class="node">
<title>ProgressBar </title>
<polygon fill="#fb8072" stroke="black" points="291.92,-252 204.08,-252 204.08,-216 291.92,-216 291.92,-252"/>
<text text-anchor="middle" x="248" y="-229.8" font-family="Times,serif" font-size="14.00">ProgressBar </text>
</g>
<!-- ProgressBarModule&#45;&gt;ProgressBar  -->
<g id="edge3" class="edge">
<title>ProgressBarModule&#45;&gt;ProgressBar </title>
<path fill="none" stroke="black" stroke-dasharray="5,2" d="M248,-187.11C248,-187.11 248,-205.99 248,-205.99"/>
<polygon fill="black" stroke="black" points="244.5,-205.99 248,-215.99 251.5,-205.99 244.5,-205.99"/>
</g>
<!-- IconModule -->
<g id="node3" class="node">
<title>IconModule</title>
<polygon fill="#8dd3c7" stroke="black" points="236.43,-122 233.43,-126 212.43,-126 209.43,-122 151.57,-122 151.57,-86 236.43,-86 236.43,-122"/>
<text text-anchor="middle" x="194" y="-99.8" font-family="Times,serif" font-size="14.00">IconModule</text>
</g>
<!-- IconModule&#45;&gt;ProgressBarModule -->
<g id="edge2" class="edge">
<title>IconModule&#45;&gt;ProgressBarModule</title>
<path fill="none" stroke="black" d="M210.11,-122.11C210.11,-122.11 210.11,-140.99 210.11,-140.99"/>
<polygon fill="black" stroke="black" points="206.61,-140.99 210.11,-150.99 213.61,-140.99 206.61,-140.99"/>
</g>
</g>
</svg>
