<?xml version="1.0" encoding="UTF-8" standalone="no"?>
<!DOCTYPE svg PUBLIC "-//W3C//DTD SVG 1.1//EN"
 "http://www.w3.org/Graphics/SVG/1.1/DTD/svg11.dtd">
<!-- Generated by graphviz version 2.47.0 (20210316.0004)
 -->
<!-- Title: dependencies Pages: 1 -->
<svg width="1174pt" height="396pt"
 viewBox="0.00 0.00 1174.00 395.59" xmlns="http://www.w3.org/2000/svg" xmlns:xlink="http://www.w3.org/1999/xlink">
<g id="graph0" class="graph" transform="scale(1 1) rotate(0) translate(4 391.59)">
<title>dependencies</title>
<polygon fill="white" stroke="transparent" points="-4,4 -4,-391.59 1170,-391.59 1170,4 -4,4"/>
<text text-anchor="start" x="562.01" y="-42.4" font-family="Times-12" font-weight="bold" font-size="14.00">Legend</text>
<polygon fill="#ffffb3" stroke="transparent" points="349,-10 349,-30 369,-30 369,-10 349,-10"/>
<text text-anchor="start" x="372.63" y="-15.4" font-family="Times-12" font-size="14.00"> &#160;Declarations</text>
<polygon fill="#8dd3c7" stroke="transparent" points="462,-10 462,-30 482,-30 482,-10 462,-10"/>
<text text-anchor="start" x="485.73" y="-15.4" font-family="Times-12" font-size="14.00"> &#160;Module</text>
<polygon fill="#80b1d3" stroke="transparent" points="548,-10 548,-30 568,-30 568,-10 548,-10"/>
<text text-anchor="start" x="571.78" y="-15.4" font-family="Times-12" font-size="14.00"> &#160;Bootstrap</text>
<polygon fill="#fdb462" stroke="transparent" points="645,-10 645,-30 665,-30 665,-10 645,-10"/>
<text text-anchor="start" x="668.67" y="-15.4" font-family="Times-12" font-size="14.00"> &#160;Providers</text>
<polygon fill="#fb8072" stroke="transparent" points="741,-10 741,-30 761,-30 761,-10 741,-10"/>
<text text-anchor="start" x="764.73" y="-15.4" font-family="Times-12" font-size="14.00"> &#160;Exports</text>
<g id="clust1" class="cluster">
<title>cluster_FileUploaderModule</title>
<polygon fill="none" stroke="black" stroke-dasharray="1,5" points="8,-70 8,-379.59 1158,-379.59 1158,-70 8,-70"/>
</g>
<g id="clust4" class="cluster">
<title>cluster_FileUploaderModule_FileUploader_providers</title>
<polygon fill="none" stroke="black" points="492,-78 492,-241.59 1150,-241.59 1150,-78 492,-78"/>
</g>
<g id="clust6" class="cluster">
<title>cluster_FileUploaderModule_exports</title>
<polygon fill="none" stroke="black" points="185,-319.59 185,-371.59 419,-371.59 419,-319.59 185,-319.59"/>
</g>
<g id="clust2" class="cluster">
<title>cluster_FileUploaderModule_declarations</title>
<polygon fill="none" stroke="black" points="364,-189.59 364,-241.59 484,-241.59 484,-189.59 364,-189.59"/>
</g>
<g id="clust5" class="cluster">
<title>cluster_FileUploaderModule_imports</title>
<polygon fill="none" stroke="black" points="16,-189.59 16,-241.59 356,-241.59 356,-189.59 16,-189.59"/>
</g>
<!-- FileComponent -->
<g id="node1" class="node">
<title>FileComponent</title>
<polygon fill="#ffffb3" stroke="black" points="475.61,-233.59 372.39,-233.59 372.39,-197.59 475.61,-197.59 475.61,-233.59"/>
<text text-anchor="middle" x="424" y="-211.39" font-family="Times,serif" font-size="14.00">FileComponent</text>
</g>
<!-- FileUploaderModule -->
<g id="node3" class="node">
<title>FileUploaderModule</title>
<polygon fill="#8dd3c7" stroke="black" points="365.92,-298.59 362.92,-302.59 341.92,-302.59 338.92,-298.59 232.08,-298.59 232.08,-262.59 365.92,-262.59 365.92,-298.59"/>
<text text-anchor="middle" x="299" y="-276.39" font-family="Times,serif" font-size="14.00">FileUploaderModule</text>
</g>
<!-- FileComponent&#45;&gt;FileUploaderModule -->
<g id="edge1" class="edge">
<title>FileComponent&#45;&gt;FileUploaderModule</title>
<path fill="none" stroke="black" d="M372.36,-215.59C363.34,-215.59 356.77,-215.59 356.77,-215.59 356.77,-215.59 356.77,-252.48 356.77,-252.48"/>
<polygon fill="black" stroke="black" points="353.27,-252.48 356.77,-262.48 360.27,-252.48 353.27,-252.48"/>
</g>
<!-- FileUploader -->
<g id="node2" class="node">
<title>FileUploader</title>
<polygon fill="#ffffb3" stroke="black" points="727.87,-233.59 638.13,-233.59 638.13,-197.59 727.87,-197.59 727.87,-233.59"/>
<text text-anchor="middle" x="683" y="-211.39" font-family="Times,serif" font-size="14.00">FileUploader</text>
</g>
<!-- FileUploader&#45;&gt;FileUploaderModule -->
<g id="edge2" class="edge">
<title>FileUploader&#45;&gt;FileUploaderModule</title>
<path fill="none" stroke="black" d="M683,-233.7C683,-252.93 683,-280.59 683,-280.59 683,-280.59 375.89,-280.59 375.89,-280.59"/>
<polygon fill="black" stroke="black" points="375.89,-277.09 365.89,-280.59 375.89,-284.09 375.89,-277.09"/>
</g>
<!-- FileComponent  -->
<g id="node8" class="node">
<title>FileComponent </title>
<polygon fill="#fb8072" stroke="black" points="411.11,-363.59 304.89,-363.59 304.89,-327.59 411.11,-327.59 411.11,-363.59"/>
<text text-anchor="middle" x="358" y="-341.39" font-family="Times,serif" font-size="14.00">FileComponent </text>
</g>
<!-- FileUploaderModule&#45;&gt;FileComponent  -->
<g id="edge7" class="edge">
<title>FileUploaderModule&#45;&gt;FileComponent </title>
<path fill="none" stroke="black" stroke-dasharray="5,2" d="M335.2,-298.7C335.2,-298.7 335.2,-317.58 335.2,-317.58"/>
<polygon fill="black" stroke="black" points="331.7,-317.58 335.2,-327.58 338.7,-317.58 331.7,-317.58"/>
</g>
<!-- FileUploader  -->
<g id="node9" class="node">
<title>FileUploader </title>
<polygon fill="#fb8072" stroke="black" points="286.87,-363.59 193.13,-363.59 193.13,-327.59 286.87,-327.59 286.87,-363.59"/>
<text text-anchor="middle" x="240" y="-341.39" font-family="Times,serif" font-size="14.00">FileUploader </text>
</g>
<!-- FileUploaderModule&#45;&gt;FileUploader  -->
<g id="edge8" class="edge">
<title>FileUploaderModule&#45;&gt;FileUploader </title>
<path fill="none" stroke="black" stroke-dasharray="5,2" d="M259.49,-298.7C259.49,-298.7 259.49,-317.58 259.49,-317.58"/>
<polygon fill="black" stroke="black" points="255.99,-317.58 259.49,-327.58 262.99,-317.58 255.99,-317.58"/>
</g>
<!-- {
 &#160;&#160;&#160;provide: NG_VALUE_ACCESSOR, useExisting: FileUploader, multi: true
} -->
<g id="node4" class="node">
<title>{
 &#160;&#160;&#160;provide: NG_VALUE_ACCESSOR, useExisting: FileUploader, multi: true
}</title>
<ellipse fill="#fdb462" stroke="black" cx="821" cy="-127.3" rx="320.76" ry="41.09"/>
<text text-anchor="middle" x="821" y="-139.9" font-family="Times,serif" font-size="14.00">{</text>
<text text-anchor="middle" x="821" y="-123.1" font-family="Times,serif" font-size="14.00"> &#160;&#160;&#160;provide: NG_VALUE_ACCESSOR, useExisting: FileUploader, multi: true</text>
<text text-anchor="middle" x="821" y="-106.3" font-family="Times,serif" font-size="14.00">}</text>
</g>
<!-- {
 &#160;&#160;&#160;provide: NG_VALUE_ACCESSOR, useExisting: FileUploader, multi: true
}&#45;&gt;FileUploader -->
<g id="edge3" class="edge">
<title>{
 &#160;&#160;&#160;provide: NG_VALUE_ACCESSOR, useExisting: FileUploader, multi: true
}&#45;&gt;FileUploader</title>
<path fill="none" stroke="black" d="M683,-164.74C683,-164.74 683,-187.34 683,-187.34"/>
<polygon fill="black" stroke="black" points="679.5,-187.34 683,-197.34 686.5,-187.34 679.5,-187.34"/>
</g>
<!-- ButtonModule -->
<g id="node5" class="node">
<title>ButtonModule</title>
<polygon fill="#8dd3c7" stroke="black" points="347.67,-233.59 344.67,-237.59 323.67,-237.59 320.67,-233.59 250.33,-233.59 250.33,-197.59 347.67,-197.59 347.67,-233.59"/>
<text text-anchor="middle" x="299" y="-211.39" font-family="Times,serif" font-size="14.00">ButtonModule</text>
</g>
<!-- ButtonModule&#45;&gt;FileUploaderModule -->
<g id="edge4" class="edge">
<title>ButtonModule&#45;&gt;FileUploaderModule</title>
<path fill="none" stroke="black" d="M299,-233.7C299,-233.7 299,-252.58 299,-252.58"/>
<polygon fill="black" stroke="black" points="295.5,-252.58 299,-262.58 302.5,-252.58 295.5,-252.58"/>
</g>
<!-- IconModule -->
<g id="node6" class="node">
<title>IconModule</title>
<polygon fill="#8dd3c7" stroke="black" points="232.43,-233.59 229.43,-237.59 208.43,-237.59 205.43,-233.59 147.57,-233.59 147.57,-197.59 232.43,-197.59 232.43,-233.59"/>
<text text-anchor="middle" x="190" y="-211.39" font-family="Times,serif" font-size="14.00">IconModule</text>
</g>
<!-- IconModule&#45;&gt;FileUploaderModule -->
<g id="edge5" class="edge">
<title>IconModule&#45;&gt;FileUploaderModule</title>
<path fill="none" stroke="black" d="M232.31,-215.59C237.61,-215.59 241.23,-215.59 241.23,-215.59 241.23,-215.59 241.23,-252.48 241.23,-252.48"/>
<polygon fill="black" stroke="black" points="237.73,-252.48 241.23,-262.48 244.73,-252.48 237.73,-252.48"/>
</g>
<!-- LoadingModule -->
<g id="node7" class="node">
<title>LoadingModule</title>
<polygon fill="#8dd3c7" stroke="black" points="130.21,-233.59 127.21,-237.59 106.21,-237.59 103.21,-233.59 23.79,-233.59 23.79,-197.59 130.21,-197.59 130.21,-233.59"/>
<text text-anchor="middle" x="77" y="-211.39" font-family="Times,serif" font-size="14.00">LoadingModule</text>
</g>
<!-- LoadingModule&#45;&gt;FileUploaderModule -->
<g id="edge6" class="edge">
<title>LoadingModule&#45;&gt;FileUploaderModule</title>
<path fill="none" stroke="black" d="M77,-233.7C77,-252.93 77,-280.59 77,-280.59 77,-280.59 222.09,-280.59 222.09,-280.59"/>
<polygon fill="black" stroke="black" points="222.09,-284.09 232.09,-280.59 222.09,-277.09 222.09,-284.09"/>
</g>
</g>
</svg>
