<?xml version="1.0" encoding="UTF-8" standalone="no"?>
<!DOCTYPE svg PUBLIC "-//W3C//DTD SVG 1.1//EN"
 "http://www.w3.org/Graphics/SVG/1.1/DTD/svg11.dtd">
<!-- Generated by graphviz version 2.40.1 (20161225.0304)
 -->
<!-- Title: dependencies Pages: 1 -->
<svg width="680pt" height="396pt"
 viewBox="0.00 0.00 680.00 395.59" xmlns="http://www.w3.org/2000/svg" xmlns:xlink="http://www.w3.org/1999/xlink">
<g id="graph0" class="graph" transform="scale(1 1) rotate(0) translate(4 391.5901)">
<title>dependencies</title>
<polygon fill="#ffffff" stroke="transparent" points="-4,4 -4,-391.5901 676,-391.5901 676,4 -4,4"/>
<text text-anchor="start" x="315.0091" y="-42.4" font-family="sans-serif" font-weight="bold" font-size="14.00" fill="#000000">Legend</text>
<polygon fill="#ffffb3" stroke="transparent" points="102,-10 102,-30 122,-30 122,-10 102,-10"/>
<text text-anchor="start" x="125.629" y="-15.4" font-family="sans-serif" font-size="14.00" fill="#000000"> &#160;Declarations</text>
<polygon fill="#8dd3c7" stroke="transparent" points="215,-10 215,-30 235,-30 235,-10 215,-10"/>
<text text-anchor="start" x="238.7251" y="-15.4" font-family="sans-serif" font-size="14.00" fill="#000000"> &#160;Module</text>
<polygon fill="#80b1d3" stroke="transparent" points="301,-10 301,-30 321,-30 321,-10 301,-10"/>
<text text-anchor="start" x="324.7812" y="-15.4" font-family="sans-serif" font-size="14.00" fill="#000000"> &#160;Bootstrap</text>
<polygon fill="#fdb462" stroke="transparent" points="398,-10 398,-30 418,-30 418,-10 398,-10"/>
<text text-anchor="start" x="421.6732" y="-15.4" font-family="sans-serif" font-size="14.00" fill="#000000"> &#160;Providers</text>
<polygon fill="#fb8072" stroke="transparent" points="494,-10 494,-30 514,-30 514,-10 494,-10"/>
<text text-anchor="start" x="517.7258" y="-15.4" font-family="sans-serif" font-size="14.00" fill="#000000"> &#160;Exports</text>
<g id="clust1" class="cluster">
<title>cluster_DatePickerModule</title>
<polygon fill="none" stroke="#000000" stroke-dasharray="1,5" points="8,-70 8,-379.5901 664,-379.5901 664,-70 8,-70"/>
</g>
<g id="clust2" class="cluster">
<title>cluster_DatePickerModule_declarations</title>
<polygon fill="none" stroke="#000000" points="289,-189.5901 289,-241.5901 383,-241.5901 383,-189.5901 289,-189.5901"/>
</g>
<g id="clust3" class="cluster">
<title>cluster_DatePickerModule_DatePicker_providers</title>
<polygon fill="none" stroke="#000000" points="16,-78 16,-176.5901 656,-176.5901 656,-78 16,-78"/>
</g>
<g id="clust4" class="cluster">
<title>cluster_DatePickerModule_imports</title>
<polygon fill="none" stroke="#000000" points="113,-189.5901 113,-241.5901 281,-241.5901 281,-189.5901 113,-189.5901"/>
</g>
<g id="clust5" class="cluster">
<title>cluster_DatePickerModule_exports</title>
<polygon fill="none" stroke="#000000" points="113,-319.5901 113,-371.5901 383,-371.5901 383,-319.5901 113,-319.5901"/>
</g>
<!-- DatePicker -->
<g id="node1" class="node">
<title>DatePicker</title>
<polygon fill="#ffffb3" stroke="#000000" points="375.1896,-233.5901 296.8104,-233.5901 296.8104,-197.5901 375.1896,-197.5901 375.1896,-233.5901"/>
<text text-anchor="middle" x="336" y="-211.3901" font-family="Times,serif" font-size="14.00" fill="#000000">DatePicker</text>
</g>
<!-- DatePickerModule -->
<g id="node2" class="node">
<title>DatePickerModule</title>
<polygon fill="#8dd3c7" stroke="#000000" points="326.7395,-298.5901 323.7395,-302.5901 302.7395,-302.5901 299.7395,-298.5901 205.2605,-298.5901 205.2605,-262.5901 326.7395,-262.5901 326.7395,-298.5901"/>
<text text-anchor="middle" x="266" y="-276.3901" font-family="Times,serif" font-size="14.00" fill="#000000">DatePickerModule</text>
</g>
<!-- DatePicker&#45;&gt;DatePickerModule -->
<g id="edge1" class="edge">
<title>DatePicker&#45;&gt;DatePickerModule</title>
<path fill="none" stroke="#000000" d="M311.8875,-233.6962C311.8875,-233.6962 311.8875,-252.581 311.8875,-252.581"/>
<polygon fill="#000000" stroke="#000000" points="308.3875,-252.581 311.8875,-262.581 315.3875,-252.5811 308.3875,-252.581"/>
</g>
<!-- DatePicker  -->
<g id="node5" class="node">
<title>DatePicker </title>
<polygon fill="#fb8072" stroke="#000000" points="374.69,-363.5901 293.31,-363.5901 293.31,-327.5901 374.69,-327.5901 374.69,-363.5901"/>
<text text-anchor="middle" x="334" y="-341.3901" font-family="Times,serif" font-size="14.00" fill="#000000">DatePicker </text>
</g>
<!-- DatePickerModule&#45;&gt;DatePicker  -->
<g id="edge4" class="edge">
<title>DatePickerModule&#45;&gt;DatePicker </title>
<path fill="none" stroke="#000000" stroke-dasharray="5,2" d="M310.0125,-298.6962C310.0125,-298.6962 310.0125,-317.581 310.0125,-317.581"/>
<polygon fill="#000000" stroke="#000000" points="306.5125,-317.581 310.0125,-327.581 313.5125,-317.5811 306.5125,-317.581"/>
</g>
<!-- DatePickerInputModule  -->
<g id="node6" class="node">
<title>DatePickerInputModule </title>
<polygon fill="#fb8072" stroke="#000000" points="275.2905,-363.5901 120.7095,-363.5901 120.7095,-327.5901 275.2905,-327.5901 275.2905,-363.5901"/>
<text text-anchor="middle" x="198" y="-341.3901" font-family="Times,serif" font-size="14.00" fill="#000000">DatePickerInputModule </text>
</g>
<!-- DatePickerModule&#45;&gt;DatePickerInputModule  -->
<g id="edge5" class="edge">
<title>DatePickerModule&#45;&gt;DatePickerInputModule </title>
<path fill="none" stroke="#000000" stroke-dasharray="5,2" d="M240.2628,-298.6962C240.2628,-298.6962 240.2628,-317.581 240.2628,-317.581"/>
<polygon fill="#000000" stroke="#000000" points="236.7629,-317.581 240.2628,-327.581 243.7629,-317.5811 236.7629,-317.581"/>
</g>
<!-- {
 &#160;&#160;&#160;provide: NG_VALUE_ACCESSOR, useExisting: DatePicker, multi: true
} -->
<g id="node3" class="node">
<title>{
 &#160;&#160;&#160;provide: NG_VALUE_ACCESSOR, useExisting: DatePicker, multi: true
}</title>
<ellipse fill="#fdb462" stroke="#000000" cx="336" cy="-127.295" rx="312.2464" ry="41.0911"/>
<text text-anchor="middle" x="336" y="-139.895" font-family="Times,serif" font-size="14.00" fill="#000000">{</text>
<text text-anchor="middle" x="336" y="-123.095" font-family="Times,serif" font-size="14.00" fill="#000000"> &#160;&#160;&#160;provide: NG_VALUE_ACCESSOR, useExisting: DatePicker, multi: true</text>
<text text-anchor="middle" x="336" y="-106.295" font-family="Times,serif" font-size="14.00" fill="#000000">}</text>
</g>
<!-- {
 &#160;&#160;&#160;provide: NG_VALUE_ACCESSOR, useExisting: DatePicker, multi: true
}&#45;&gt;DatePicker -->
<g id="edge2" class="edge">
<title>{
 &#160;&#160;&#160;provide: NG_VALUE_ACCESSOR, useExisting: DatePicker, multi: true
}&#45;&gt;DatePicker</title>
<path fill="none" stroke="#000000" d="M336,-168.5989C336,-168.5989 336,-187.2551 336,-187.2551"/>
<polygon fill="#000000" stroke="#000000" points="332.5001,-187.255 336,-197.2551 339.5001,-187.2551 332.5001,-187.255"/>
</g>
<!-- DatePickerInputModule -->
<g id="node4" class="node">
<title>DatePickerInputModule</title>
<polygon fill="#8dd3c7" stroke="#000000" points="272.7907,-233.5901 269.7907,-237.5901 248.7907,-237.5901 245.7907,-233.5901 121.2093,-233.5901 121.2093,-197.5901 272.7907,-197.5901 272.7907,-233.5901"/>
<text text-anchor="middle" x="197" y="-211.3901" font-family="Times,serif" font-size="14.00" fill="#000000">DatePickerInputModule</text>
</g>
<!-- DatePickerInputModule&#45;&gt;DatePickerModule -->
<g id="edge3" class="edge">
<title>DatePickerInputModule&#45;&gt;DatePickerModule</title>
<path fill="none" stroke="#000000" d="M238.8878,-233.6962C238.8878,-233.6962 238.8878,-252.581 238.8878,-252.581"/>
<polygon fill="#000000" stroke="#000000" points="235.3879,-252.581 238.8878,-262.581 242.3879,-252.5811 235.3879,-252.581"/>
</g>
</g>
</svg>
