<?xml version="1.0" encoding="UTF-8" standalone="no"?>
<!DOCTYPE svg PUBLIC "-//W3C//DTD SVG 1.1//EN"
 "http://www.w3.org/Graphics/SVG/1.1/DTD/svg11.dtd">
<!-- Generated by graphviz version 2.40.1 (20161225.0304)
 -->
<!-- Title: dependencies Pages: 1 -->
<svg width="977pt" height="284pt"
 viewBox="0.00 0.00 977.00 284.00" xmlns="http://www.w3.org/2000/svg" xmlns:xlink="http://www.w3.org/1999/xlink">
<g id="graph0" class="graph" transform="scale(1 1) rotate(0) translate(4 280)">
<title>dependencies</title>
<polygon fill="#ffffff" stroke="transparent" points="-4,4 -4,-280 973,-280 973,4 -4,4"/>
<text text-anchor="start" x="463.5091" y="-42.4" font-family="sans-serif" font-weight="bold" font-size="14.00" fill="#000000">Legend</text>
<polygon fill="#ffffb3" stroke="transparent" points="250.5,-10 250.5,-30 270.5,-30 270.5,-10 250.5,-10"/>
<text text-anchor="start" x="274.129" y="-15.4" font-family="sans-serif" font-size="14.00" fill="#000000"> &#160;Declarations</text>
<polygon fill="#8dd3c7" stroke="transparent" points="363.5,-10 363.5,-30 383.5,-30 383.5,-10 363.5,-10"/>
<text text-anchor="start" x="387.2251" y="-15.4" font-family="sans-serif" font-size="14.00" fill="#000000"> &#160;Module</text>
<polygon fill="#80b1d3" stroke="transparent" points="449.5,-10 449.5,-30 469.5,-30 469.5,-10 449.5,-10"/>
<text text-anchor="start" x="473.2812" y="-15.4" font-family="sans-serif" font-size="14.00" fill="#000000"> &#160;Bootstrap</text>
<polygon fill="#fdb462" stroke="transparent" points="546.5,-10 546.5,-30 566.5,-30 566.5,-10 546.5,-10"/>
<text text-anchor="start" x="570.1732" y="-15.4" font-family="sans-serif" font-size="14.00" fill="#000000"> &#160;Providers</text>
<polygon fill="#fb8072" stroke="transparent" points="642.5,-10 642.5,-30 662.5,-30 662.5,-10 642.5,-10"/>
<text text-anchor="start" x="666.2258" y="-15.4" font-family="sans-serif" font-size="14.00" fill="#000000"> &#160;Exports</text>
<g id="clust1" class="cluster">
<title>cluster_CalendarModule</title>
<polygon fill="none" stroke="#000000" stroke-dasharray="1,5" points="8,-70 8,-268 961,-268 961,-70 8,-70"/>
</g>
<g id="clust2" class="cluster">
<title>cluster_CalendarModule_declarations</title>
<polygon fill="none" stroke="#000000" points="258,-78 258,-130 953,-130 953,-78 258,-78"/>
</g>
<g id="clust9" class="cluster">
<title>cluster_CalendarModule_imports</title>
<polygon fill="none" stroke="#000000" points="16,-78 16,-130 250,-130 250,-78 16,-78"/>
</g>
<g id="clust10" class="cluster">
<title>cluster_CalendarModule_exports</title>
<polygon fill="none" stroke="#000000" points="117,-208 117,-260 834,-260 834,-208 117,-208"/>
</g>
<!-- Calendar -->
<g id="node1" class="node">
<title>Calendar</title>
<polygon fill="#ffffb3" stroke="#000000" points="945.0332,-122 878.9668,-122 878.9668,-86 945.0332,-86 945.0332,-122"/>
<text text-anchor="middle" x="912" y="-99.8" font-family="Times,serif" font-size="14.00" fill="#000000">Calendar</text>
</g>
<!-- CalendarModule -->
<g id="node7" class="node">
<title>CalendarModule</title>
<polygon fill="#8dd3c7" stroke="#000000" points="545.0814,-187 542.0814,-191 521.0814,-191 518.0814,-187 434.9186,-187 434.9186,-151 545.0814,-151 545.0814,-187"/>
<text text-anchor="middle" x="490" y="-164.8" font-family="Times,serif" font-size="14.00" fill="#000000">CalendarModule</text>
</g>
<!-- Calendar&#45;&gt;CalendarModule -->
<g id="edge1" class="edge">
<title>Calendar&#45;&gt;CalendarModule</title>
<path fill="none" stroke="#000000" d="M912,-122.1061C912,-141.3391 912,-169 912,-169 912,-169 555.1691,-169 555.1691,-169"/>
<polygon fill="#000000" stroke="#000000" points="555.1692,-165.5001 545.1691,-169 555.1691,-172.5001 555.1692,-165.5001"/>
</g>
<!-- CalendarMonth -->
<g id="node2" class="node">
<title>CalendarMonth</title>
<polygon fill="#ffffb3" stroke="#000000" points="860.8669,-122 757.1331,-122 757.1331,-86 860.8669,-86 860.8669,-122"/>
<text text-anchor="middle" x="809" y="-99.8" font-family="Times,serif" font-size="14.00" fill="#000000">CalendarMonth</text>
</g>
<!-- CalendarMonth&#45;&gt;CalendarModule -->
<g id="edge2" class="edge">
<title>CalendarMonth&#45;&gt;CalendarModule</title>
<path fill="none" stroke="#000000" d="M780.0497,-122.0225C780.0497,-139.3734 780.0497,-163 780.0497,-163 780.0497,-163 555.2388,-163 555.2388,-163"/>
<polygon fill="#000000" stroke="#000000" points="555.2389,-159.5001 545.2388,-163 555.2388,-166.5001 555.2389,-159.5001"/>
</g>
<!-- CalendarMonths -->
<g id="node3" class="node">
<title>CalendarMonths</title>
<polygon fill="#ffffb3" stroke="#000000" points="738.8118,-122 629.1882,-122 629.1882,-86 738.8118,-86 738.8118,-122"/>
<text text-anchor="middle" x="684" y="-99.8" font-family="Times,serif" font-size="14.00" fill="#000000">CalendarMonths</text>
</g>
<!-- CalendarMonths&#45;&gt;CalendarModule -->
<g id="edge3" class="edge">
<title>CalendarMonths&#45;&gt;CalendarModule</title>
<path fill="none" stroke="#000000" d="M701.8945,-122.2396C701.8945,-137.5706 701.8945,-157 701.8945,-157 701.8945,-157 555.1196,-157 555.1196,-157"/>
<polygon fill="#000000" stroke="#000000" points="555.1197,-153.5001 545.1196,-157 555.1196,-160.5001 555.1197,-153.5001"/>
</g>
<!-- CalendarQuarter -->
<g id="node4" class="node">
<title>CalendarQuarter</title>
<polygon fill="#ffffb3" stroke="#000000" points="611.7796,-122 502.2204,-122 502.2204,-86 611.7796,-86 611.7796,-122"/>
<text text-anchor="middle" x="557" y="-99.8" font-family="Times,serif" font-size="14.00" fill="#000000">CalendarQuarter</text>
</g>
<!-- CalendarQuarter&#45;&gt;CalendarModule -->
<g id="edge4" class="edge">
<title>CalendarQuarter&#45;&gt;CalendarModule</title>
<path fill="none" stroke="#000000" d="M523.7006,-122.1061C523.7006,-122.1061 523.7006,-140.991 523.7006,-140.991"/>
<polygon fill="#000000" stroke="#000000" points="520.2006,-140.9909 523.7006,-150.991 527.2006,-140.991 520.2006,-140.9909"/>
</g>
<!-- CalendarYear -->
<g id="node5" class="node">
<title>CalendarYear</title>
<polygon fill="#ffffb3" stroke="#000000" points="483.7284,-122 390.2716,-122 390.2716,-86 483.7284,-86 483.7284,-122"/>
<text text-anchor="middle" x="437" y="-99.8" font-family="Times,serif" font-size="14.00" fill="#000000">CalendarYear</text>
</g>
<!-- CalendarYear&#45;&gt;CalendarModule -->
<g id="edge5" class="edge">
<title>CalendarYear&#45;&gt;CalendarModule</title>
<path fill="none" stroke="#000000" d="M459.4117,-122.1061C459.4117,-122.1061 459.4117,-140.991 459.4117,-140.991"/>
<polygon fill="#000000" stroke="#000000" points="455.9117,-140.9909 459.4117,-150.991 462.9117,-140.991 455.9117,-140.9909"/>
</g>
<!-- CalendarHeader -->
<g id="node6" class="node">
<title>CalendarHeader</title>
<polygon fill="#ffffb3" stroke="#000000" points="372.4426,-122 265.5574,-122 265.5574,-86 372.4426,-86 372.4426,-122"/>
<text text-anchor="middle" x="319" y="-99.8" font-family="Times,serif" font-size="14.00" fill="#000000">CalendarHeader</text>
</g>
<!-- CalendarHeader&#45;&gt;CalendarModule -->
<g id="edge6" class="edge">
<title>CalendarHeader&#45;&gt;CalendarModule</title>
<path fill="none" stroke="#000000" d="M359.6122,-122.2396C359.6122,-137.5706 359.6122,-157 359.6122,-157 359.6122,-157 424.7038,-157 424.7038,-157"/>
<polygon fill="#000000" stroke="#000000" points="424.7039,-160.5001 434.7038,-157 424.7038,-153.5001 424.7039,-160.5001"/>
</g>
<!-- Calendar  -->
<g id="node10" class="node">
<title>Calendar </title>
<polygon fill="#fb8072" stroke="#000000" points="826.0316,-252 755.9684,-252 755.9684,-216 826.0316,-216 826.0316,-252"/>
<text text-anchor="middle" x="791" y="-229.8" font-family="Times,serif" font-size="14.00" fill="#000000">Calendar </text>
</g>
<!-- CalendarModule&#45;&gt;Calendar  -->
<g id="edge9" class="edge">
<title>CalendarModule&#45;&gt;Calendar </title>
<path fill="none" stroke="#000000" stroke-dasharray="5,2" d="M545.2434,-175C635.1089,-175 803.0327,-175 803.0327,-175 803.0327,-175 803.0327,-205.9775 803.0327,-205.9775"/>
<polygon fill="#000000" stroke="#000000" points="799.5328,-205.9774 803.0327,-215.9775 806.5328,-205.9775 799.5328,-205.9774"/>
</g>
<!-- CalendarMonth  -->
<g id="node11" class="node">
<title>CalendarMonth </title>
<polygon fill="#fb8072" stroke="#000000" points="737.8674,-252 630.1326,-252 630.1326,-216 737.8674,-216 737.8674,-252"/>
<text text-anchor="middle" x="684" y="-229.8" font-family="Times,serif" font-size="14.00" fill="#000000">CalendarMonth </text>
</g>
<!-- CalendarModule&#45;&gt;CalendarMonth  -->
<g id="edge10" class="edge">
<title>CalendarModule&#45;&gt;CalendarMonth </title>
<path fill="none" stroke="#000000" stroke-dasharray="5,2" d="M545.2377,-181C596.8837,-181 666.1055,-181 666.1055,-181 666.1055,-181 666.1055,-205.7604 666.1055,-205.7604"/>
<polygon fill="#000000" stroke="#000000" points="662.6056,-205.7604 666.1055,-215.7604 669.6056,-205.7604 662.6056,-205.7604"/>
</g>
<!-- CalendarMonths  -->
<g id="node12" class="node">
<title>CalendarMonths </title>
<polygon fill="#fb8072" stroke="#000000" points="612.3116,-252 499.6884,-252 499.6884,-216 612.3116,-216 612.3116,-252"/>
<text text-anchor="middle" x="556" y="-229.8" font-family="Times,serif" font-size="14.00" fill="#000000">CalendarMonths </text>
</g>
<!-- CalendarModule&#45;&gt;CalendarMonths  -->
<g id="edge11" class="edge">
<title>CalendarModule&#45;&gt;CalendarMonths </title>
<path fill="none" stroke="#000000" stroke-dasharray="5,2" d="M522.3175,-187.1061C522.3175,-187.1061 522.3175,-205.991 522.3175,-205.991"/>
<polygon fill="#000000" stroke="#000000" points="518.8176,-205.9909 522.3175,-215.991 525.8176,-205.991 518.8176,-205.9909"/>
</g>
<!-- CalendarQuarter  -->
<g id="node13" class="node">
<title>CalendarQuarter </title>
<polygon fill="#fb8072" stroke="#000000" points="481.2794,-252 368.7206,-252 368.7206,-216 481.2794,-216 481.2794,-252"/>
<text text-anchor="middle" x="425" y="-229.8" font-family="Times,serif" font-size="14.00" fill="#000000">CalendarQuarter </text>
</g>
<!-- CalendarModule&#45;&gt;CalendarQuarter  -->
<g id="edge12" class="edge">
<title>CalendarModule&#45;&gt;CalendarQuarter </title>
<path fill="none" stroke="#000000" stroke-dasharray="5,2" d="M458.1745,-187.1061C458.1745,-187.1061 458.1745,-205.991 458.1745,-205.991"/>
<polygon fill="#000000" stroke="#000000" points="454.6745,-205.9909 458.1745,-215.991 461.6745,-205.991 454.6745,-205.9909"/>
</g>
<!-- CalendarYear  -->
<g id="node14" class="node">
<title>CalendarYear </title>
<polygon fill="#fb8072" stroke="#000000" points="350.7283,-252 253.2717,-252 253.2717,-216 350.7283,-216 350.7283,-252"/>
<text text-anchor="middle" x="302" y="-229.8" font-family="Times,serif" font-size="14.00" fill="#000000">CalendarYear </text>
</g>
<!-- CalendarModule&#45;&gt;CalendarYear  -->
<g id="edge13" class="edge">
<title>CalendarModule&#45;&gt;CalendarYear </title>
<path fill="none" stroke="#000000" stroke-dasharray="5,2" d="M434.9217,-181C381.3754,-181 308.0714,-181 308.0714,-181 308.0714,-181 308.0714,-205.7604 308.0714,-205.7604"/>
<polygon fill="#000000" stroke="#000000" points="304.5714,-205.7604 308.0714,-215.7604 311.5714,-205.7604 304.5714,-205.7604"/>
</g>
<!-- CalendarHeader  -->
<g id="node15" class="node">
<title>CalendarHeader </title>
<polygon fill="#fb8072" stroke="#000000" points="235.4435,-252 124.5565,-252 124.5565,-216 235.4435,-216 235.4435,-252"/>
<text text-anchor="middle" x="180" y="-229.8" font-family="Times,serif" font-size="14.00" fill="#000000">CalendarHeader </text>
</g>
<!-- CalendarModule&#45;&gt;CalendarHeader  -->
<g id="edge14" class="edge">
<title>CalendarModule&#45;&gt;CalendarHeader </title>
<path fill="none" stroke="#000000" stroke-dasharray="5,2" d="M434.8677,-175C346.6529,-175 183.5988,-175 183.5988,-175 183.5988,-175 183.5988,-205.9775 183.5988,-205.9775"/>
<polygon fill="#000000" stroke="#000000" points="180.0989,-205.9774 183.5988,-215.9775 187.0989,-205.9775 180.0989,-205.9774"/>
</g>
<!-- IconModule -->
<g id="node8" class="node">
<title>IconModule</title>
<polygon fill="#8dd3c7" stroke="#000000" points="242.4261,-122 239.4261,-126 218.4261,-126 215.4261,-122 157.5739,-122 157.5739,-86 242.4261,-86 242.4261,-122"/>
<text text-anchor="middle" x="200" y="-99.8" font-family="Times,serif" font-size="14.00" fill="#000000">IconModule</text>
</g>
<!-- IconModule&#45;&gt;CalendarModule -->
<g id="edge7" class="edge">
<title>IconModule&#45;&gt;CalendarModule</title>
<path fill="none" stroke="#000000" d="M209.41,-122.0225C209.41,-139.3734 209.41,-163 209.41,-163 209.41,-163 424.8992,-163 424.8992,-163"/>
<polygon fill="#000000" stroke="#000000" points="424.8993,-166.5001 434.8992,-163 424.8992,-159.5001 424.8993,-166.5001"/>
</g>
<!-- StaticIconModule -->
<g id="node9" class="node">
<title>StaticIconModule</title>
<polygon fill="#8dd3c7" stroke="#000000" points="140.309,-122 137.309,-126 116.309,-126 113.309,-122 23.691,-122 23.691,-86 140.309,-86 140.309,-122"/>
<text text-anchor="middle" x="82" y="-99.8" font-family="Times,serif" font-size="14.00" fill="#000000">StaticIconModule</text>
</g>
<!-- StaticIconModule&#45;&gt;CalendarModule -->
<g id="edge8" class="edge">
<title>StaticIconModule&#45;&gt;CalendarModule</title>
<path fill="none" stroke="#000000" d="M132.4665,-122.1061C132.4665,-141.3391 132.4665,-169 132.4665,-169 132.4665,-169 424.9189,-169 424.9189,-169"/>
<polygon fill="#000000" stroke="#000000" points="424.919,-172.5001 434.9189,-169 424.9189,-165.5001 424.919,-172.5001"/>
</g>
</g>
</svg>
