<?xml version="1.0" encoding="UTF-8" standalone="no"?>
<!DOCTYPE svg PUBLIC "-//W3C//DTD SVG 1.1//EN"
 "http://www.w3.org/Graphics/SVG/1.1/DTD/svg11.dtd">
<!-- Generated by graphviz version 2.47.0 (20210316.0004)
 -->
<!-- Title: dependencies Pages: 1 -->
<svg width="504pt" height="284pt"
 viewBox="0.00 0.00 504.00 284.00" xmlns="http://www.w3.org/2000/svg" xmlns:xlink="http://www.w3.org/1999/xlink">
<g id="graph0" class="graph" transform="scale(1 1) rotate(0) translate(4 280)">
<title>dependencies</title>
<polygon fill="white" stroke="transparent" points="-4,4 -4,-280 500,-280 500,4 -4,4"/>
<text text-anchor="start" x="227.01" y="-42.4" font-family="Times-12" font-weight="bold" font-size="14.00">Legend</text>
<polygon fill="#ffffb3" stroke="transparent" points="14,-10 14,-30 34,-30 34,-10 14,-10"/>
<text text-anchor="start" x="37.63" y="-15.4" font-family="Times-12" font-size="14.00"> &#160;Declarations</text>
<polygon fill="#8dd3c7" stroke="transparent" points="127,-10 127,-30 147,-30 147,-10 127,-10"/>
<text text-anchor="start" x="150.73" y="-15.4" font-family="Times-12" font-size="14.00"> &#160;Module</text>
<polygon fill="#80b1d3" stroke="transparent" points="213,-10 213,-30 233,-30 233,-10 213,-10"/>
<text text-anchor="start" x="236.78" y="-15.4" font-family="Times-12" font-size="14.00"> &#160;Bootstrap</text>
<polygon fill="#fdb462" stroke="transparent" points="310,-10 310,-30 330,-30 330,-10 310,-10"/>
<text text-anchor="start" x="333.67" y="-15.4" font-family="Times-12" font-size="14.00"> &#160;Providers</text>
<polygon fill="#fb8072" stroke="transparent" points="406,-10 406,-30 426,-30 426,-10 406,-10"/>
<text text-anchor="start" x="429.73" y="-15.4" font-family="Times-12" font-size="14.00"> &#160;Exports</text>
<g id="clust1" class="cluster">
<title>cluster_SideNavModule</title>
<polygon fill="none" stroke="black" stroke-dasharray="1,5" points="34,-70 34,-268 462,-268 462,-70 34,-70"/>
</g>
<g id="clust2" class="cluster">
<title>cluster_SideNavModule_declarations</title>
<polygon fill="none" stroke="black" points="152,-78 152,-130 454,-130 454,-78 152,-78"/>
</g>
<g id="clust7" class="cluster">
<title>cluster_SideNavModule_exports</title>
<polygon fill="none" stroke="black" points="91,-208 91,-260 405,-260 405,-208 91,-208"/>
</g>
<g id="clust6" class="cluster">
<title>cluster_SideNavModule_imports</title>
<polygon fill="none" stroke="black" points="42,-78 42,-130 144,-130 144,-78 42,-78"/>
</g>
<!-- SideNav -->
<g id="node1" class="node">
<title>SideNav</title>
<polygon fill="#ffffb3" stroke="black" points="446.21,-122 381.79,-122 381.79,-86 446.21,-86 446.21,-122"/>
<text text-anchor="middle" x="414" y="-99.8" font-family="Times,serif" font-size="14.00">SideNav</text>
</g>
<!-- SideNavModule -->
<g id="node4" class="node">
<title>SideNavModule</title>
<polygon fill="#8dd3c7" stroke="black" points="317.76,-187 314.76,-191 293.76,-191 290.76,-187 210.24,-187 210.24,-151 317.76,-151 317.76,-187"/>
<text text-anchor="middle" x="264" y="-164.8" font-family="Times,serif" font-size="14.00">SideNavModule</text>
</g>
<!-- SideNav&#45;&gt;SideNavModule -->
<g id="edge1" class="edge">
<title>SideNav&#45;&gt;SideNavModule</title>
<path fill="none" stroke="black" d="M389.38,-122.11C389.38,-141.34 389.38,-169 389.38,-169 389.38,-169 327.9,-169 327.9,-169"/>
<polygon fill="black" stroke="black" points="327.9,-165.5 317.9,-169 327.9,-172.5 327.9,-165.5"/>
</g>
<!-- SideNavItem -->
<g id="node2" class="node">
<title>SideNavItem</title>
<polygon fill="#ffffb3" stroke="black" points="363.87,-122 274.13,-122 274.13,-86 363.87,-86 363.87,-122"/>
<text text-anchor="middle" x="319" y="-99.8" font-family="Times,serif" font-size="14.00">SideNavItem</text>
</g>
<!-- SideNavItem&#45;&gt;SideNavModule -->
<g id="edge2" class="edge">
<title>SideNavItem&#45;&gt;SideNavModule</title>
<path fill="none" stroke="black" d="M295.97,-122.11C295.97,-122.11 295.97,-140.99 295.97,-140.99"/>
<polygon fill="black" stroke="black" points="292.47,-140.99 295.97,-150.99 299.47,-140.99 292.47,-140.99"/>
</g>
<!-- SideNavMenu -->
<g id="node3" class="node">
<title>SideNavMenu</title>
<polygon fill="#ffffb3" stroke="black" points="256.37,-122 159.63,-122 159.63,-86 256.37,-86 256.37,-122"/>
<text text-anchor="middle" x="208" y="-99.8" font-family="Times,serif" font-size="14.00">SideNavMenu</text>
</g>
<!-- SideNavMenu&#45;&gt;SideNavModule -->
<g id="edge3" class="edge">
<title>SideNavMenu&#45;&gt;SideNavModule</title>
<path fill="none" stroke="black" d="M233.28,-122.11C233.28,-122.11 233.28,-140.99 233.28,-140.99"/>
<polygon fill="black" stroke="black" points="229.78,-140.99 233.28,-150.99 236.78,-140.99 229.78,-140.99"/>
</g>
<!-- SideNav  -->
<g id="node6" class="node">
<title>SideNav </title>
<polygon fill="#fb8072" stroke="black" points="396.71,-252 329.29,-252 329.29,-216 396.71,-216 396.71,-252"/>
<text text-anchor="middle" x="363" y="-229.8" font-family="Times,serif" font-size="14.00">SideNav </text>
</g>
<!-- SideNavModule&#45;&gt;SideNav  -->
<g id="edge5" class="edge">
<title>SideNavModule&#45;&gt;SideNav </title>
<path fill="none" stroke="black" stroke-dasharray="5,2" d="M314.28,-187.11C314.28,-206.34 314.28,-234 314.28,-234 314.28,-234 319.16,-234 319.16,-234"/>
<polygon fill="black" stroke="black" points="319.16,-237.5 329.16,-234 319.16,-230.5 319.16,-237.5"/>
</g>
<!-- SideNavItem  -->
<g id="node7" class="node">
<title>SideNavItem </title>
<polygon fill="#fb8072" stroke="black" points="310.87,-252 217.13,-252 217.13,-216 310.87,-216 310.87,-252"/>
<text text-anchor="middle" x="264" y="-229.8" font-family="Times,serif" font-size="14.00">SideNavItem </text>
</g>
<!-- SideNavModule&#45;&gt;SideNavItem  -->
<g id="edge6" class="edge">
<title>SideNavModule&#45;&gt;SideNavItem </title>
<path fill="none" stroke="black" stroke-dasharray="5,2" d="M264,-187.11C264,-187.11 264,-205.99 264,-205.99"/>
<polygon fill="black" stroke="black" points="260.5,-205.99 264,-215.99 267.5,-205.99 260.5,-205.99"/>
</g>
<!-- SideNavMenu  -->
<g id="node8" class="node">
<title>SideNavMenu </title>
<polygon fill="#fb8072" stroke="black" points="199.37,-252 98.63,-252 98.63,-216 199.37,-216 199.37,-252"/>
<text text-anchor="middle" x="149" y="-229.8" font-family="Times,serif" font-size="14.00">SideNavMenu </text>
</g>
<!-- SideNavModule&#45;&gt;SideNavMenu  -->
<g id="edge7" class="edge">
<title>SideNavModule&#45;&gt;SideNavMenu </title>
<path fill="none" stroke="black" stroke-dasharray="5,2" d="M213.72,-187.11C213.72,-206.34 213.72,-234 213.72,-234 213.72,-234 209.36,-234 209.36,-234"/>
<polygon fill="black" stroke="black" points="209.36,-230.5 199.36,-234 209.36,-237.5 209.36,-230.5"/>
</g>
<!-- I18nModule -->
<g id="node5" class="node">
<title>I18nModule</title>
<polygon fill="#8dd3c7" stroke="black" points="135.71,-122 132.71,-126 111.71,-126 108.71,-122 50.29,-122 50.29,-86 135.71,-86 135.71,-122"/>
<text text-anchor="middle" x="93" y="-99.8" font-family="Times,serif" font-size="14.00">I18nModule</text>
</g>
<!-- I18nModule&#45;&gt;SideNavModule -->
<g id="edge4" class="edge">
<title>I18nModule&#45;&gt;SideNavModule</title>
<path fill="none" stroke="black" d="M117.21,-122.11C117.21,-141.34 117.21,-169 117.21,-169 117.21,-169 200.17,-169 200.17,-169"/>
<polygon fill="black" stroke="black" points="200.17,-172.5 210.17,-169 200.17,-165.5 200.17,-172.5"/>
</g>
</g>
</svg>
