<?xml version="1.0" encoding="UTF-8" standalone="no"?>
<!DOCTYPE svg PUBLIC "-//W3C//DTD SVG 1.1//EN"
 "http://www.w3.org/Graphics/SVG/1.1/DTD/svg11.dtd">
<!-- Generated by graphviz version 2.40.1 (20161225.0304)
 -->
<!-- Title: dependencies Pages: 1 -->
<svg width="2059pt" height="284pt"
 viewBox="0.00 0.00 2059.00 284.00" xmlns="http://www.w3.org/2000/svg" xmlns:xlink="http://www.w3.org/1999/xlink">
<g id="graph0" class="graph" transform="scale(1 1) rotate(0) translate(4 280)">
<title>dependencies</title>
<polygon fill="#ffffff" stroke="transparent" points="-4,4 -4,-280 2055,-280 2055,4 -4,4"/>
<text text-anchor="start" x="1004.5091" y="-42.4" font-family="sans-serif" font-weight="bold" font-size="14.00" fill="#000000">Legend</text>
<polygon fill="#ffffb3" stroke="transparent" points="791.5,-10 791.5,-30 811.5,-30 811.5,-10 791.5,-10"/>
<text text-anchor="start" x="815.129" y="-15.4" font-family="sans-serif" font-size="14.00" fill="#000000"> &#160;Declarations</text>
<polygon fill="#8dd3c7" stroke="transparent" points="904.5,-10 904.5,-30 924.5,-30 924.5,-10 904.5,-10"/>
<text text-anchor="start" x="928.2251" y="-15.4" font-family="sans-serif" font-size="14.00" fill="#000000"> &#160;Module</text>
<polygon fill="#80b1d3" stroke="transparent" points="990.5,-10 990.5,-30 1010.5,-30 1010.5,-10 990.5,-10"/>
<text text-anchor="start" x="1014.2812" y="-15.4" font-family="sans-serif" font-size="14.00" fill="#000000"> &#160;Bootstrap</text>
<polygon fill="#fdb462" stroke="transparent" points="1087.5,-10 1087.5,-30 1107.5,-30 1107.5,-10 1087.5,-10"/>
<text text-anchor="start" x="1111.1732" y="-15.4" font-family="sans-serif" font-size="14.00" fill="#000000"> &#160;Providers</text>
<polygon fill="#fb8072" stroke="transparent" points="1183.5,-10 1183.5,-30 1203.5,-30 1203.5,-10 1183.5,-10"/>
<text text-anchor="start" x="1207.2258" y="-15.4" font-family="sans-serif" font-size="14.00" fill="#000000"> &#160;Exports</text>
<g id="clust1" class="cluster">
<title>cluster_TableModule</title>
<polygon fill="none" stroke="#000000" stroke-dasharray="1,5" points="8,-70 8,-268 2043,-268 2043,-70 8,-70"/>
</g>
<g id="clust2" class="cluster">
<title>cluster_TableModule_declarations</title>
<polygon fill="none" stroke="#000000" points="596,-78 596,-130 2035,-130 2035,-78 596,-78"/>
</g>
<g id="clust14" class="cluster">
<title>cluster_TableModule_imports</title>
<polygon fill="none" stroke="#000000" points="16,-78 16,-130 588,-130 588,-78 16,-78"/>
</g>
<g id="clust15" class="cluster">
<title>cluster_TableModule_exports</title>
<polygon fill="none" stroke="#000000" points="236,-208 236,-260 1710,-260 1710,-208 236,-208"/>
</g>
<!-- DataGridFocus -->
<g id="node1" class="node">
<title>DataGridFocus</title>
<polygon fill="#ffffb3" stroke="#000000" points="2026.5271,-122 1925.4729,-122 1925.4729,-86 2026.5271,-86 2026.5271,-122"/>
<text text-anchor="middle" x="1976" y="-99.8" font-family="Times,serif" font-size="14.00" fill="#000000">DataGridFocus</text>
</g>
<!-- TableModule -->
<g id="node12" class="node">
<title>TableModule</title>
<polygon fill="#8dd3c7" stroke="#000000" points="1085.9232,-187 1082.9232,-191 1061.9232,-191 1058.9232,-187 994.0768,-187 994.0768,-151 1085.9232,-151 1085.9232,-187"/>
<text text-anchor="middle" x="1040" y="-164.8" font-family="Times,serif" font-size="14.00" fill="#000000">TableModule</text>
</g>
<!-- DataGridFocus&#45;&gt;TableModule -->
<g id="edge1" class="edge">
<title>DataGridFocus&#45;&gt;TableModule</title>
<path fill="none" stroke="#000000" d="M1976,-122.308C1976,-142.1455 1976,-171 1976,-171 1976,-171 1095.7788,-171 1095.7788,-171"/>
<polygon fill="#000000" stroke="#000000" points="1095.7789,-167.5001 1085.7788,-171 1095.7788,-174.5001 1095.7789,-167.5001"/>
</g>
<!-- ExpandedRowHover -->
<g id="node2" class="node">
<title>ExpandedRowHover</title>
<polygon fill="#ffffb3" stroke="#000000" points="1907.9074,-122 1774.0926,-122 1774.0926,-86 1907.9074,-86 1907.9074,-122"/>
<text text-anchor="middle" x="1841" y="-99.8" font-family="Times,serif" font-size="14.00" fill="#000000">ExpandedRowHover</text>
</g>
<!-- ExpandedRowHover&#45;&gt;TableModule -->
<g id="edge2" class="edge">
<title>ExpandedRowHover&#45;&gt;TableModule</title>
<path fill="none" stroke="#000000" d="M1841,-122.1686C1841,-141.0898 1841,-168 1841,-168 1841,-168 1095.9422,-168 1095.9422,-168"/>
<polygon fill="#000000" stroke="#000000" points="1095.9422,-164.5001 1085.9422,-168 1095.9421,-171.5001 1095.9422,-164.5001"/>
</g>
<!-- Table -->
<g id="node3" class="node">
<title>Table</title>
<polygon fill="#ffffb3" stroke="#000000" points="1756,-122 1702,-122 1702,-86 1756,-86 1756,-122"/>
<text text-anchor="middle" x="1729" y="-99.8" font-family="Times,serif" font-size="14.00" fill="#000000">Table</text>
</g>
<!-- Table&#45;&gt;TableModule -->
<g id="edge3" class="edge">
<title>Table&#45;&gt;TableModule</title>
<path fill="none" stroke="#000000" d="M1729,-122.302C1729,-140.2699 1729,-165 1729,-165 1729,-165 1095.7408,-165 1095.7408,-165"/>
<polygon fill="#000000" stroke="#000000" points="1095.7408,-161.5001 1085.7408,-165 1095.7408,-168.5001 1095.7408,-161.5001"/>
</g>
<!-- TableContainer -->
<g id="node4" class="node">
<title>TableContainer</title>
<polygon fill="#ffffb3" stroke="#000000" points="1683.58,-122 1580.42,-122 1580.42,-86 1683.58,-86 1683.58,-122"/>
<text text-anchor="middle" x="1632" y="-99.8" font-family="Times,serif" font-size="14.00" fill="#000000">TableContainer</text>
</g>
<!-- TableContainer&#45;&gt;TableModule -->
<g id="edge4" class="edge">
<title>TableContainer&#45;&gt;TableModule</title>
<path fill="none" stroke="#000000" d="M1588.4735,-122.0225C1588.4735,-139.3734 1588.4735,-163 1588.4735,-163 1588.4735,-163 1095.8192,-163 1095.8192,-163"/>
<polygon fill="#000000" stroke="#000000" points="1095.8192,-159.5001 1085.8192,-163 1095.8191,-166.5001 1095.8192,-159.5001"/>
</g>
<!-- TableHeader -->
<g id="node5" class="node">
<title>TableHeader</title>
<polygon fill="#ffffb3" stroke="#000000" points="1562.2839,-122 1473.7161,-122 1473.7161,-86 1562.2839,-86 1562.2839,-122"/>
<text text-anchor="middle" x="1518" y="-99.8" font-family="Times,serif" font-size="14.00" fill="#000000">TableHeader</text>
</g>
<!-- TableHeader&#45;&gt;TableModule -->
<g id="edge5" class="edge">
<title>TableHeader&#45;&gt;TableModule</title>
<path fill="none" stroke="#000000" d="M1518,-122.027C1518,-138.3976 1518,-160 1518,-160 1518,-160 1095.8326,-160 1095.8326,-160"/>
<polygon fill="#000000" stroke="#000000" points="1095.8327,-156.5001 1085.8326,-160 1095.8326,-163.5001 1095.8327,-156.5001"/>
</g>
<!-- TableHeaderDescription -->
<g id="node6" class="node">
<title>TableHeaderDescription</title>
<polygon fill="#ffffb3" stroke="#000000" points="1455.5967,-122 1302.4033,-122 1302.4033,-86 1455.5967,-86 1455.5967,-122"/>
<text text-anchor="middle" x="1379" y="-99.8" font-family="Times,serif" font-size="14.00" fill="#000000">TableHeaderDescription</text>
</g>
<!-- TableHeaderDescription&#45;&gt;TableModule -->
<g id="edge6" class="edge">
<title>TableHeaderDescription&#45;&gt;TableModule</title>
<path fill="none" stroke="#000000" d="M1327.246,-122.2396C1327.246,-137.5706 1327.246,-157 1327.246,-157 1327.246,-157 1095.8326,-157 1095.8326,-157"/>
<polygon fill="#000000" stroke="#000000" points="1095.8326,-153.5001 1085.8326,-157 1095.8326,-160.5001 1095.8326,-153.5001"/>
</g>
<!-- TableHeaderTitle -->
<g id="node7" class="node">
<title>TableHeaderTitle</title>
<polygon fill="#ffffb3" stroke="#000000" points="1284.2227,-122 1169.7773,-122 1169.7773,-86 1284.2227,-86 1284.2227,-122"/>
<text text-anchor="middle" x="1227" y="-99.8" font-family="Times,serif" font-size="14.00" fill="#000000">TableHeaderTitle</text>
</g>
<!-- TableHeaderTitle&#45;&gt;TableModule -->
<g id="edge7" class="edge">
<title>TableHeaderTitle&#45;&gt;TableModule</title>
<path fill="none" stroke="#000000" d="M1198.7653,-122.0511C1198.7653,-136.373 1198.7653,-154 1198.7653,-154 1198.7653,-154 1095.9215,-154 1095.9215,-154"/>
<polygon fill="#000000" stroke="#000000" points="1095.9215,-150.5001 1085.9215,-154 1095.9215,-157.5001 1095.9215,-150.5001"/>
</g>
<!-- TableToolbar -->
<g id="node8" class="node">
<title>TableToolbar</title>
<polygon fill="#ffffb3" stroke="#000000" points="1152.191,-122 1059.809,-122 1059.809,-86 1152.191,-86 1152.191,-122"/>
<text text-anchor="middle" x="1106" y="-99.8" font-family="Times,serif" font-size="14.00" fill="#000000">TableToolbar</text>
</g>
<!-- TableToolbar&#45;&gt;TableModule -->
<g id="edge8" class="edge">
<title>TableToolbar&#45;&gt;TableModule</title>
<path fill="none" stroke="#000000" d="M1072.8079,-122.1061C1072.8079,-122.1061 1072.8079,-140.991 1072.8079,-140.991"/>
<polygon fill="#000000" stroke="#000000" points="1069.3079,-140.9909 1072.8079,-150.991 1076.3079,-140.991 1069.3079,-140.9909"/>
</g>
<!-- TableToolbarActions -->
<g id="node9" class="node">
<title>TableToolbarActions</title>
<polygon fill="#ffffb3" stroke="#000000" points="1041.7381,-122 906.2619,-122 906.2619,-86 1041.7381,-86 1041.7381,-122"/>
<text text-anchor="middle" x="974" y="-99.8" font-family="Times,serif" font-size="14.00" fill="#000000">TableToolbarActions</text>
</g>
<!-- TableToolbarActions&#45;&gt;TableModule -->
<g id="edge9" class="edge">
<title>TableToolbarActions&#45;&gt;TableModule</title>
<path fill="none" stroke="#000000" d="M1018.0789,-122.1061C1018.0789,-122.1061 1018.0789,-140.991 1018.0789,-140.991"/>
<polygon fill="#000000" stroke="#000000" points="1014.579,-140.9909 1018.0789,-150.991 1021.579,-140.991 1014.579,-140.9909"/>
</g>
<!-- TableToolbarContent -->
<g id="node10" class="node">
<title>TableToolbarContent</title>
<polygon fill="#ffffb3" stroke="#000000" points="888.024,-122 751.976,-122 751.976,-86 888.024,-86 888.024,-122"/>
<text text-anchor="middle" x="820" y="-99.8" font-family="Times,serif" font-size="14.00" fill="#000000">TableToolbarContent</text>
</g>
<!-- TableToolbarContent&#45;&gt;TableModule -->
<g id="edge10" class="edge">
<title>TableToolbarContent&#45;&gt;TableModule</title>
<path fill="none" stroke="#000000" d="M856.5752,-122.0511C856.5752,-136.373 856.5752,-154 856.5752,-154 856.5752,-154 984.1873,-154 984.1873,-154"/>
<polygon fill="#000000" stroke="#000000" points="984.1874,-157.5001 994.1873,-154 984.1873,-150.5001 984.1874,-157.5001"/>
</g>
<!-- TableToolbarSearch -->
<g id="node11" class="node">
<title>TableToolbarSearch</title>
<polygon fill="#ffffb3" stroke="#000000" points="734.2781,-122 603.7219,-122 603.7219,-86 734.2781,-86 734.2781,-122"/>
<text text-anchor="middle" x="669" y="-99.8" font-family="Times,serif" font-size="14.00" fill="#000000">TableToolbarSearch</text>
</g>
<!-- TableToolbarSearch&#45;&gt;TableModule -->
<g id="edge11" class="edge">
<title>TableToolbarSearch&#45;&gt;TableModule</title>
<path fill="none" stroke="#000000" d="M722.6468,-122.2396C722.6468,-137.5706 722.6468,-157 722.6468,-157 722.6468,-157 984.193,-157 984.193,-157"/>
<polygon fill="#000000" stroke="#000000" points="984.1931,-160.5001 994.193,-157 984.193,-153.5001 984.1931,-160.5001"/>
</g>
<!-- DataGridFocus  -->
<g id="node18" class="node">
<title>DataGridFocus </title>
<polygon fill="#fb8072" stroke="#000000" points="1701.526,-252 1596.474,-252 1596.474,-216 1701.526,-216 1701.526,-252"/>
<text text-anchor="middle" x="1649" y="-229.8" font-family="Times,serif" font-size="14.00" fill="#000000">DataGridFocus </text>
</g>
<!-- TableModule&#45;&gt;DataGridFocus  -->
<g id="edge17" class="edge">
<title>TableModule&#45;&gt;DataGridFocus </title>
<path fill="none" stroke="#000000" stroke-dasharray="5,2" d="M1086.0858,-174C1226.5864,-174 1640.0135,-174 1640.0135,-174 1640.0135,-174 1640.0135,-205.998 1640.0135,-205.998"/>
<polygon fill="#000000" stroke="#000000" points="1636.5136,-205.998 1640.0135,-215.998 1643.5136,-205.9981 1636.5136,-205.998"/>
</g>
<!-- ExpandedRowHover  -->
<g id="node19" class="node">
<title>ExpandedRowHover </title>
<polygon fill="#fb8072" stroke="#000000" points="1578.4068,-252 1441.5932,-252 1441.5932,-216 1578.4068,-216 1578.4068,-252"/>
<text text-anchor="middle" x="1510" y="-229.8" font-family="Times,serif" font-size="14.00" fill="#000000">ExpandedRowHover </text>
</g>
<!-- TableModule&#45;&gt;ExpandedRowHover  -->
<g id="edge18" class="edge">
<title>TableModule&#45;&gt;ExpandedRowHover </title>
<path fill="none" stroke="#000000" stroke-dasharray="5,2" d="M1086.0855,-176C1192.9637,-176 1448.6724,-176 1448.6724,-176 1448.6724,-176 1448.6724,-205.9664 1448.6724,-205.9664"/>
<polygon fill="#000000" stroke="#000000" points="1445.1724,-205.9663 1448.6724,-215.9664 1452.1724,-205.9664 1445.1724,-205.9663"/>
</g>
<!-- Table  -->
<g id="node20" class="node">
<title>Table </title>
<polygon fill="#fb8072" stroke="#000000" points="1424,-252 1370,-252 1370,-216 1424,-216 1424,-252"/>
<text text-anchor="middle" x="1397" y="-229.8" font-family="Times,serif" font-size="14.00" fill="#000000">Table </text>
</g>
<!-- TableModule&#45;&gt;Table  -->
<g id="edge19" class="edge">
<title>TableModule&#45;&gt;Table </title>
<path fill="none" stroke="#000000" stroke-dasharray="5,2" d="M1085.9407,-179C1182.3607,-179 1397,-179 1397,-179 1397,-179 1397,-205.9909 1397,-205.9909"/>
<polygon fill="#000000" stroke="#000000" points="1393.5001,-205.9909 1397,-215.9909 1400.5001,-205.991 1393.5001,-205.9909"/>
</g>
<!-- TableContainer  -->
<g id="node21" class="node">
<title>TableContainer </title>
<polygon fill="#fb8072" stroke="#000000" points="1352.0808,-252 1245.9192,-252 1245.9192,-216 1352.0808,-216 1352.0808,-252"/>
<text text-anchor="middle" x="1299" y="-229.8" font-family="Times,serif" font-size="14.00" fill="#000000">TableContainer </text>
</g>
<!-- TableModule&#45;&gt;TableContainer  -->
<g id="edge20" class="edge">
<title>TableModule&#45;&gt;TableContainer </title>
<path fill="none" stroke="#000000" stroke-dasharray="5,2" d="M1085.8106,-182C1151.6076,-182 1265.0356,-182 1265.0356,-182 1265.0356,-182 1265.0356,-205.8129 1265.0356,-205.8129"/>
<polygon fill="#000000" stroke="#000000" points="1261.5357,-205.8129 1265.0356,-215.8129 1268.5357,-205.813 1261.5357,-205.8129"/>
</g>
<!-- TableHeader  -->
<g id="node22" class="node">
<title>TableHeader </title>
<polygon fill="#fb8072" stroke="#000000" points="1227.7837,-252 1136.2163,-252 1136.2163,-216 1227.7837,-216 1227.7837,-252"/>
<text text-anchor="middle" x="1182" y="-229.8" font-family="Times,serif" font-size="14.00" fill="#000000">TableHeader </text>
</g>
<!-- TableModule&#45;&gt;TableHeader  -->
<g id="edge21" class="edge">
<title>TableModule&#45;&gt;TableHeader </title>
<path fill="none" stroke="#000000" stroke-dasharray="5,2" d="M1085.9636,-185C1113.8511,-185 1144.1019,-185 1144.1019,-185 1144.1019,-185 1144.1019,-205.7542 1144.1019,-205.7542"/>
<polygon fill="#000000" stroke="#000000" points="1140.6019,-205.7542 1144.1019,-215.7542 1147.6019,-205.7542 1140.6019,-205.7542"/>
</g>
<!-- TableHeaderDescription  -->
<g id="node23" class="node">
<title>TableHeaderDescription </title>
<polygon fill="#fb8072" stroke="#000000" points="1118.5962,-252 961.4038,-252 961.4038,-216 1118.5962,-216 1118.5962,-252"/>
<text text-anchor="middle" x="1040" y="-229.8" font-family="Times,serif" font-size="14.00" fill="#000000">TableHeaderDescription </text>
</g>
<!-- TableModule&#45;&gt;TableHeaderDescription  -->
<g id="edge22" class="edge">
<title>TableModule&#45;&gt;TableHeaderDescription </title>
<path fill="none" stroke="#000000" stroke-dasharray="5,2" d="M1040,-187.1061C1040,-187.1061 1040,-205.991 1040,-205.991"/>
<polygon fill="#000000" stroke="#000000" points="1036.5001,-205.9909 1040,-215.991 1043.5001,-205.991 1036.5001,-205.9909"/>
</g>
<!-- TableHeaderTitle  -->
<g id="node24" class="node">
<title>TableHeaderTitle </title>
<polygon fill="#fb8072" stroke="#000000" points="943.2226,-252 824.7774,-252 824.7774,-216 943.2226,-216 943.2226,-252"/>
<text text-anchor="middle" x="884" y="-229.8" font-family="Times,serif" font-size="14.00" fill="#000000">TableHeaderTitle </text>
</g>
<!-- TableModule&#45;&gt;TableHeaderTitle  -->
<g id="edge23" class="edge">
<title>TableModule&#45;&gt;TableHeaderTitle </title>
<path fill="none" stroke="#000000" stroke-dasharray="5,2" d="M994.0677,-185C961.8923,-185 924.6212,-185 924.6212,-185 924.6212,-185 924.6212,-205.7542 924.6212,-205.7542"/>
<polygon fill="#000000" stroke="#000000" points="921.1212,-205.7542 924.6212,-215.7542 928.1212,-205.7542 921.1212,-205.7542"/>
</g>
<!-- TableToolbar  -->
<g id="node25" class="node">
<title>TableToolbar </title>
<polygon fill="#fb8072" stroke="#000000" points="806.6913,-252 711.3087,-252 711.3087,-216 806.6913,-216 806.6913,-252"/>
<text text-anchor="middle" x="759" y="-229.8" font-family="Times,serif" font-size="14.00" fill="#000000">TableToolbar </text>
</g>
<!-- TableModule&#45;&gt;TableToolbar  -->
<g id="edge24" class="edge">
<title>TableModule&#45;&gt;TableToolbar </title>
<path fill="none" stroke="#000000" stroke-dasharray="5,2" d="M993.9908,-182C919.1466,-182 779.2919,-182 779.2919,-182 779.2919,-182 779.2919,-205.8129 779.2919,-205.8129"/>
<polygon fill="#000000" stroke="#000000" points="775.792,-205.8129 779.2919,-215.8129 782.792,-205.813 775.792,-205.8129"/>
</g>
<!-- TableToolbarActions  -->
<g id="node26" class="node">
<title>TableToolbarActions </title>
<polygon fill="#fb8072" stroke="#000000" points="693.738,-252 554.262,-252 554.262,-216 693.738,-216 693.738,-252"/>
<text text-anchor="middle" x="624" y="-229.8" font-family="Times,serif" font-size="14.00" fill="#000000">TableToolbarActions </text>
</g>
<!-- TableModule&#45;&gt;TableToolbarActions  -->
<g id="edge25" class="edge">
<title>TableModule&#45;&gt;TableToolbarActions </title>
<path fill="none" stroke="#000000" stroke-dasharray="5,2" d="M993.967,-179C890.5406,-179 648.74,-179 648.74,-179 648.74,-179 648.74,-205.9909 648.74,-205.9909"/>
<polygon fill="#000000" stroke="#000000" points="645.2401,-205.9909 648.74,-215.9909 652.2401,-205.991 645.2401,-205.9909"/>
</g>
<!-- TableToolbarContent  -->
<g id="node27" class="node">
<title>TableToolbarContent </title>
<polygon fill="#fb8072" stroke="#000000" points="536.0232,-252 395.9768,-252 395.9768,-216 536.0232,-216 536.0232,-252"/>
<text text-anchor="middle" x="466" y="-229.8" font-family="Times,serif" font-size="14.00" fill="#000000">TableToolbarContent </text>
</g>
<!-- TableModule&#45;&gt;TableToolbarContent  -->
<g id="edge26" class="edge">
<title>TableModule&#45;&gt;TableToolbarContent </title>
<path fill="none" stroke="#000000" stroke-dasharray="5,2" d="M994.2753,-176C865.4956,-176 509.0889,-176 509.0889,-176 509.0889,-176 509.0889,-205.9664 509.0889,-205.9664"/>
<polygon fill="#000000" stroke="#000000" points="505.589,-205.9663 509.0889,-215.9664 512.589,-205.9664 505.589,-205.9663"/>
</g>
<!-- TableToolbarSearch  -->
<g id="node28" class="node">
<title>TableToolbarSearch </title>
<polygon fill="#fb8072" stroke="#000000" points="377.778,-252 244.222,-252 244.222,-216 377.778,-216 377.778,-252"/>
<text text-anchor="middle" x="311" y="-229.8" font-family="Times,serif" font-size="14.00" fill="#000000">TableToolbarSearch </text>
</g>
<!-- TableModule&#45;&gt;TableToolbarSearch  -->
<g id="edge27" class="edge">
<title>TableModule&#45;&gt;TableToolbarSearch </title>
<path fill="none" stroke="#000000" stroke-dasharray="5,2" d="M994.0878,-174C843.1747,-174 372.0314,-174 372.0314,-174 372.0314,-174 372.0314,-205.998 372.0314,-205.998"/>
<polygon fill="#000000" stroke="#000000" points="368.5315,-205.998 372.0314,-215.998 375.5315,-205.9981 368.5315,-205.998"/>
</g>
<!-- ButtonModule -->
<g id="node13" class="node">
<title>ButtonModule</title>
<polygon fill="#8dd3c7" stroke="#000000" points="579.6682,-122 576.6682,-126 555.6682,-126 552.6682,-122 482.3318,-122 482.3318,-86 579.6682,-86 579.6682,-122"/>
<text text-anchor="middle" x="531" y="-99.8" font-family="Times,serif" font-size="14.00" fill="#000000">ButtonModule</text>
</g>
<!-- ButtonModule&#45;&gt;TableModule -->
<g id="edge12" class="edge">
<title>ButtonModule&#45;&gt;TableModule</title>
<path fill="none" stroke="#000000" d="M567.1075,-122.027C567.1075,-138.3976 567.1075,-160 567.1075,-160 567.1075,-160 984.2274,-160 984.2274,-160"/>
<polygon fill="#000000" stroke="#000000" points="984.2274,-163.5001 994.2274,-160 984.2274,-156.5001 984.2274,-163.5001"/>
</g>
<!-- DialogModule -->
<g id="node14" class="node">
<title>DialogModule</title>
<polygon fill="#8dd3c7" stroke="#000000" points="463.6528,-122 460.6528,-126 439.6528,-126 436.6528,-122 366.3472,-122 366.3472,-86 463.6528,-86 463.6528,-122"/>
<text text-anchor="middle" x="415" y="-99.8" font-family="Times,serif" font-size="14.00" fill="#000000">DialogModule</text>
</g>
<!-- DialogModule&#45;&gt;TableModule -->
<g id="edge13" class="edge">
<title>DialogModule&#45;&gt;TableModule</title>
<path fill="none" stroke="#000000" d="M429.9073,-122.0225C429.9073,-139.3734 429.9073,-163 429.9073,-163 429.9073,-163 984.1439,-163 984.1439,-163"/>
<polygon fill="#000000" stroke="#000000" points="984.1439,-166.5001 994.1439,-163 984.1439,-159.5001 984.1439,-166.5001"/>
</g>
<!-- I18nModule -->
<g id="node15" class="node">
<title>I18nModule</title>
<polygon fill="#8dd3c7" stroke="#000000" points="348.7107,-122 345.7107,-126 324.7107,-126 321.7107,-122 263.2893,-122 263.2893,-86 348.7107,-86 348.7107,-122"/>
<text text-anchor="middle" x="306" y="-99.8" font-family="Times,serif" font-size="14.00" fill="#000000">I18nModule</text>
</g>
<!-- I18nModule&#45;&gt;TableModule -->
<g id="edge14" class="edge">
<title>I18nModule&#45;&gt;TableModule</title>
<path fill="none" stroke="#000000" d="M306,-122.302C306,-140.2699 306,-165 306,-165 306,-165 984.085,-165 984.085,-165"/>
<polygon fill="#000000" stroke="#000000" points="984.085,-168.5001 994.085,-165 984.085,-161.5001 984.085,-168.5001"/>
</g>
<!-- NFormsModule -->
<g id="node16" class="node">
<title>NFormsModule</title>
<polygon fill="#8dd3c7" stroke="#000000" points="245.9357,-122 242.9357,-126 221.9357,-126 218.9357,-122 140.0643,-122 140.0643,-86 245.9357,-86 245.9357,-122"/>
<text text-anchor="middle" x="193" y="-99.8" font-family="Times,serif" font-size="14.00" fill="#000000">NFormsModule</text>
</g>
<!-- NFormsModule&#45;&gt;TableModule -->
<g id="edge15" class="edge">
<title>NFormsModule&#45;&gt;TableModule</title>
<path fill="none" stroke="#000000" d="M192.1968,-122.1686C192.1968,-141.0898 192.1968,-168 192.1969,-168 192.1969,-168 984.1178,-168 984.1178,-168"/>
<polygon fill="#000000" stroke="#000000" points="984.1179,-171.5001 994.1178,-168 984.1178,-164.5001 984.1179,-171.5001"/>
</g>
<!-- SearchModule -->
<g id="node17" class="node">
<title>SearchModule</title>
<polygon fill="#8dd3c7" stroke="#000000" points="121.6375,-122 118.6375,-126 97.6375,-126 94.6375,-122 24.3625,-122 24.3625,-86 121.6375,-86 121.6375,-122"/>
<text text-anchor="middle" x="73" y="-99.8" font-family="Times,serif" font-size="14.00" fill="#000000">SearchModule</text>
</g>
<!-- SearchModule&#45;&gt;TableModule -->
<g id="edge16" class="edge">
<title>SearchModule&#45;&gt;TableModule</title>
<path fill="none" stroke="#000000" d="M73,-122.308C73,-142.1455 73,-171 73,-171 73,-171 984.0101,-171 984.0101,-171"/>
<polygon fill="#000000" stroke="#000000" points="984.0102,-174.5001 994.0101,-171 984.0101,-167.5001 984.0102,-174.5001"/>
</g>
</g>
</svg>
