<?xml version="1.0" encoding="UTF-8" standalone="no"?>
<!DOCTYPE svg PUBLIC "-//W3C//DTD SVG 1.1//EN"
 "http://www.w3.org/Graphics/SVG/1.1/DTD/svg11.dtd">
<!-- Generated by graphviz version 2.40.1 (20161225.0304)
 -->
<!-- Title: dependencies Pages: 1 -->
<svg width="686pt" height="396pt"
 viewBox="0.00 0.00 686.00 395.59" xmlns="http://www.w3.org/2000/svg" xmlns:xlink="http://www.w3.org/1999/xlink">
<g id="graph0" class="graph" transform="scale(1 1) rotate(0) translate(4 391.5901)">
<title>dependencies</title>
<polygon fill="#ffffff" stroke="transparent" points="-4,4 -4,-391.5901 682,-391.5901 682,4 -4,4"/>
<text text-anchor="start" x="318.0091" y="-42.4" font-family="sans-serif" font-weight="bold" font-size="14.00" fill="#000000">Legend</text>
<polygon fill="#ffffb3" stroke="transparent" points="105,-10 105,-30 125,-30 125,-10 105,-10"/>
<text text-anchor="start" x="128.629" y="-15.4" font-family="sans-serif" font-size="14.00" fill="#000000"> &#160;Declarations</text>
<polygon fill="#8dd3c7" stroke="transparent" points="218,-10 218,-30 238,-30 238,-10 218,-10"/>
<text text-anchor="start" x="241.7251" y="-15.4" font-family="sans-serif" font-size="14.00" fill="#000000"> &#160;Module</text>
<polygon fill="#80b1d3" stroke="transparent" points="304,-10 304,-30 324,-30 324,-10 304,-10"/>
<text text-anchor="start" x="327.7812" y="-15.4" font-family="sans-serif" font-size="14.00" fill="#000000"> &#160;Bootstrap</text>
<polygon fill="#fdb462" stroke="transparent" points="401,-10 401,-30 421,-30 421,-10 401,-10"/>
<text text-anchor="start" x="424.6732" y="-15.4" font-family="sans-serif" font-size="14.00" fill="#000000"> &#160;Providers</text>
<polygon fill="#fb8072" stroke="transparent" points="497,-10 497,-30 517,-30 517,-10 497,-10"/>
<text text-anchor="start" x="520.7258" y="-15.4" font-family="sans-serif" font-size="14.00" fill="#000000"> &#160;Exports</text>
<g id="clust1" class="cluster">
<title>cluster_TimePickerModule</title>
<polygon fill="none" stroke="#000000" stroke-dasharray="1,5" points="8,-70 8,-379.5901 670,-379.5901 670,-70 8,-70"/>
</g>
<g id="clust2" class="cluster">
<title>cluster_TimePickerModule_declarations</title>
<polygon fill="none" stroke="#000000" points="290,-189.5901 290,-241.5901 388,-241.5901 388,-189.5901 290,-189.5901"/>
</g>
<g id="clust3" class="cluster">
<title>cluster_TimePickerModule_TimePicker_providers</title>
<polygon fill="none" stroke="#000000" points="16,-78 16,-176.5901 662,-176.5901 662,-78 16,-78"/>
</g>
<g id="clust4" class="cluster">
<title>cluster_TimePickerModule_imports</title>
<polygon fill="none" stroke="#000000" points="106,-189.5901 106,-241.5901 282,-241.5901 282,-189.5901 106,-189.5901"/>
</g>
<g id="clust5" class="cluster">
<title>cluster_TimePickerModule_exports</title>
<polygon fill="none" stroke="#000000" points="216,-319.5901 216,-371.5901 316,-371.5901 316,-319.5901 216,-319.5901"/>
</g>
<!-- TimePicker -->
<g id="node1" class="node">
<title>TimePicker</title>
<polygon fill="#ffffb3" stroke="#000000" points="379.812,-233.5901 298.188,-233.5901 298.188,-197.5901 379.812,-197.5901 379.812,-233.5901"/>
<text text-anchor="middle" x="339" y="-211.3901" font-family="Times,serif" font-size="14.00" fill="#000000">TimePicker</text>
</g>
<!-- TimePickerModule -->
<g id="node2" class="node">
<title>TimePickerModule</title>
<polygon fill="#8dd3c7" stroke="#000000" points="328.3613,-298.5901 325.3613,-302.5901 304.3613,-302.5901 301.3613,-298.5901 203.6387,-298.5901 203.6387,-262.5901 328.3613,-262.5901 328.3613,-298.5901"/>
<text text-anchor="middle" x="266" y="-276.3901" font-family="Times,serif" font-size="14.00" fill="#000000">TimePickerModule</text>
</g>
<!-- TimePicker&#45;&gt;TimePickerModule -->
<g id="edge1" class="edge">
<title>TimePicker&#45;&gt;TimePickerModule</title>
<path fill="none" stroke="#000000" d="M313.3875,-233.6962C313.3875,-233.6962 313.3875,-252.581 313.3875,-252.581"/>
<polygon fill="#000000" stroke="#000000" points="309.8875,-252.581 313.3875,-262.581 316.8875,-252.5811 309.8875,-252.581"/>
</g>
<!-- TimePicker  -->
<g id="node5" class="node">
<title>TimePicker </title>
<polygon fill="#fb8072" stroke="#000000" points="308.3116,-363.5901 223.6884,-363.5901 223.6884,-327.5901 308.3116,-327.5901 308.3116,-363.5901"/>
<text text-anchor="middle" x="266" y="-341.3901" font-family="Times,serif" font-size="14.00" fill="#000000">TimePicker </text>
</g>
<!-- TimePickerModule&#45;&gt;TimePicker  -->
<g id="edge4" class="edge">
<title>TimePickerModule&#45;&gt;TimePicker </title>
<path fill="none" stroke="#000000" stroke-dasharray="5,2" d="M266,-298.6962C266,-298.6962 266,-317.581 266,-317.581"/>
<polygon fill="#000000" stroke="#000000" points="262.5001,-317.581 266,-327.581 269.5001,-317.5811 262.5001,-317.581"/>
</g>
<!-- {
 &#160;&#160;&#160;provide: NG_VALUE_ACCESSOR, useExisting: TimePicker, multi: true
} -->
<g id="node3" class="node">
<title>{
 &#160;&#160;&#160;provide: NG_VALUE_ACCESSOR, useExisting: TimePicker, multi: true
}</title>
<ellipse fill="#fdb462" stroke="#000000" cx="339" cy="-127.295" rx="314.6616" ry="41.0911"/>
<text text-anchor="middle" x="339" y="-139.895" font-family="Times,serif" font-size="14.00" fill="#000000">{</text>
<text text-anchor="middle" x="339" y="-123.095" font-family="Times,serif" font-size="14.00" fill="#000000"> &#160;&#160;&#160;provide: NG_VALUE_ACCESSOR, useExisting: TimePicker, multi: true</text>
<text text-anchor="middle" x="339" y="-106.295" font-family="Times,serif" font-size="14.00" fill="#000000">}</text>
</g>
<!-- {
 &#160;&#160;&#160;provide: NG_VALUE_ACCESSOR, useExisting: TimePicker, multi: true
}&#45;&gt;TimePicker -->
<g id="edge2" class="edge">
<title>{
 &#160;&#160;&#160;provide: NG_VALUE_ACCESSOR, useExisting: TimePicker, multi: true
}&#45;&gt;TimePicker</title>
<path fill="none" stroke="#000000" d="M339,-168.5989C339,-168.5989 339,-187.2551 339,-187.2551"/>
<polygon fill="#000000" stroke="#000000" points="335.5001,-187.255 339,-197.2551 342.5001,-187.2551 335.5001,-187.255"/>
</g>
<!-- TimePickerSelectModule -->
<g id="node4" class="node">
<title>TimePickerSelectModule</title>
<polygon fill="#8dd3c7" stroke="#000000" points="273.5688,-233.5901 270.5688,-237.5901 249.5688,-237.5901 246.5688,-233.5901 114.4312,-233.5901 114.4312,-197.5901 273.5688,-197.5901 273.5688,-233.5901"/>
<text text-anchor="middle" x="194" y="-211.3901" font-family="Times,serif" font-size="14.00" fill="#000000">TimePickerSelectModule</text>
</g>
<!-- TimePickerSelectModule&#45;&gt;TimePickerModule -->
<g id="edge3" class="edge">
<title>TimePickerSelectModule&#45;&gt;TimePickerModule</title>
<path fill="none" stroke="#000000" d="M238.5519,-233.6962C238.5519,-233.6962 238.5519,-252.581 238.5519,-252.581"/>
<polygon fill="#000000" stroke="#000000" points="235.052,-252.581 238.5519,-262.581 242.052,-252.5811 235.052,-252.581"/>
</g>
</g>
</svg>
