<?xml version="1.0" encoding="UTF-8" standalone="no"?>
<!DOCTYPE svg PUBLIC "-//W3C//DTD SVG 1.1//EN"
 "http://www.w3.org/Graphics/SVG/1.1/DTD/svg11.dtd">
<!-- Generated by graphviz version 2.47.0 (20210316.0004)
 -->
<!-- Title: dependencies Pages: 1 -->
<svg width="954pt" height="284pt"
 viewBox="0.00 0.00 954.00 284.00" xmlns="http://www.w3.org/2000/svg" xmlns:xlink="http://www.w3.org/1999/xlink">
<g id="graph0" class="graph" transform="scale(1 1) rotate(0) translate(4 280)">
<title>dependencies</title>
<polygon fill="white" stroke="transparent" points="-4,4 -4,-280 950,-280 950,4 -4,4"/>
<text text-anchor="start" x="452.01" y="-42.4" font-family="Times-12" font-weight="bold" font-size="14.00">Legend</text>
<polygon fill="#ffffb3" stroke="transparent" points="239,-10 239,-30 259,-30 259,-10 239,-10"/>
<text text-anchor="start" x="262.63" y="-15.4" font-family="Times-12" font-size="14.00"> &#160;Declarations</text>
<polygon fill="#8dd3c7" stroke="transparent" points="352,-10 352,-30 372,-30 372,-10 352,-10"/>
<text text-anchor="start" x="375.73" y="-15.4" font-family="Times-12" font-size="14.00"> &#160;Module</text>
<polygon fill="#80b1d3" stroke="transparent" points="438,-10 438,-30 458,-30 458,-10 438,-10"/>
<text text-anchor="start" x="461.78" y="-15.4" font-family="Times-12" font-size="14.00"> &#160;Bootstrap</text>
<polygon fill="#fdb462" stroke="transparent" points="535,-10 535,-30 555,-30 555,-10 535,-10"/>
<text text-anchor="start" x="558.67" y="-15.4" font-family="Times-12" font-size="14.00"> &#160;Providers</text>
<polygon fill="#fb8072" stroke="transparent" points="631,-10 631,-30 651,-30 651,-10 631,-10"/>
<text text-anchor="start" x="654.73" y="-15.4" font-family="Times-12" font-size="14.00"> &#160;Exports</text>
<g id="clust1" class="cluster">
<title>cluster_TabsModule</title>
<polygon fill="none" stroke="black" stroke-dasharray="1,5" points="8,-70 8,-268 938,-268 938,-70 8,-70"/>
</g>
<g id="clust11" class="cluster">
<title>cluster_TabsModule_exports</title>
<polygon fill="none" stroke="black" points="181,-208 181,-260 772,-260 772,-208 181,-208"/>
</g>
<g id="clust10" class="cluster">
<title>cluster_TabsModule_imports</title>
<polygon fill="none" stroke="black" points="724,-78 724,-130 930,-130 930,-78 724,-78"/>
</g>
<g id="clust2" class="cluster">
<title>cluster_TabsModule_declarations</title>
<polygon fill="none" stroke="black" points="16,-78 16,-130 716,-130 716,-78 16,-78"/>
</g>
<!-- BaseTabHeader -->
<g id="node1" class="node">
<title>BaseTabHeader</title>
<polygon fill="#ffffb3" stroke="black" points="707.89,-122 602.11,-122 602.11,-86 707.89,-86 707.89,-122"/>
<text text-anchor="middle" x="655" y="-99.8" font-family="Times,serif" font-size="14.00">BaseTabHeader</text>
</g>
<!-- TabsModule -->
<g id="node8" class="node">
<title>TabsModule</title>
<polygon fill="#8dd3c7" stroke="black" points="516.26,-187 513.26,-191 492.26,-191 489.26,-187 429.74,-187 429.74,-151 516.26,-151 516.26,-187"/>
<text text-anchor="middle" x="473" y="-164.8" font-family="Times,serif" font-size="14.00">TabsModule</text>
</g>
<!-- BaseTabHeader&#45;&gt;TabsModule -->
<g id="edge1" class="edge">
<title>BaseTabHeader&#45;&gt;TabsModule</title>
<path fill="none" stroke="black" d="M606.23,-122.03C606.23,-139.06 606.23,-162 606.23,-162 606.23,-162 526.63,-162 526.63,-162"/>
<polygon fill="black" stroke="black" points="526.63,-158.5 516.63,-162 526.63,-165.5 526.63,-158.5"/>
</g>
<!-- Tab -->
<g id="node2" class="node">
<title>Tab</title>
<polygon fill="#ffffb3" stroke="black" points="584,-122 530,-122 530,-86 584,-86 584,-122"/>
<text text-anchor="middle" x="557" y="-99.8" font-family="Times,serif" font-size="14.00">Tab</text>
</g>
<!-- Tab&#45;&gt;TabsModule -->
<g id="edge2" class="edge">
<title>Tab&#45;&gt;TabsModule</title>
<path fill="none" stroke="black" d="M557,-122.24C557,-137.57 557,-157 557,-157 557,-157 526.48,-157 526.48,-157"/>
<polygon fill="black" stroke="black" points="526.48,-153.5 516.48,-157 526.48,-160.5 526.48,-153.5"/>
</g>
<!-- TabHeader -->
<g id="node3" class="node">
<title>TabHeader</title>
<polygon fill="#ffffb3" stroke="black" points="512.18,-122 433.82,-122 433.82,-86 512.18,-86 512.18,-122"/>
<text text-anchor="middle" x="473" y="-99.8" font-family="Times,serif" font-size="14.00">TabHeader</text>
</g>
<!-- TabHeader&#45;&gt;TabsModule -->
<g id="edge3" class="edge">
<title>TabHeader&#45;&gt;TabsModule</title>
<path fill="none" stroke="black" d="M473,-122.11C473,-122.11 473,-140.99 473,-140.99"/>
<polygon fill="black" stroke="black" points="469.5,-140.99 473,-150.99 476.5,-140.99 469.5,-140.99"/>
</g>
<!-- TabHeaderGroup -->
<g id="node4" class="node">
<title>TabHeaderGroup</title>
<polygon fill="#ffffb3" stroke="black" points="415.95,-122 302.05,-122 302.05,-86 415.95,-86 415.95,-122"/>
<text text-anchor="middle" x="359" y="-99.8" font-family="Times,serif" font-size="14.00">TabHeaderGroup</text>
</g>
<!-- TabHeaderGroup&#45;&gt;TabsModule -->
<g id="edge4" class="edge">
<title>TabHeaderGroup&#45;&gt;TabsModule</title>
<path fill="none" stroke="black" d="M392.71,-122.24C392.71,-137.57 392.71,-157 392.71,-157 392.71,-157 419.56,-157 419.56,-157"/>
<polygon fill="black" stroke="black" points="419.56,-160.5 429.56,-157 419.56,-153.5 419.56,-160.5"/>
</g>
<!-- TabHeaders -->
<g id="node5" class="node">
<title>TabHeaders</title>
<polygon fill="#ffffb3" stroke="black" points="283.62,-122 200.38,-122 200.38,-86 283.62,-86 283.62,-122"/>
<text text-anchor="middle" x="242" y="-99.8" font-family="Times,serif" font-size="14.00">TabHeaders</text>
</g>
<!-- TabHeaders&#45;&gt;TabsModule -->
<g id="edge5" class="edge">
<title>TabHeaders&#45;&gt;TabsModule</title>
<path fill="none" stroke="black" d="M272.34,-122.03C272.34,-139.06 272.34,-162 272.34,-162 272.34,-162 419.46,-162 419.46,-162"/>
<polygon fill="black" stroke="black" points="419.46,-165.5 429.46,-162 419.46,-158.5 419.46,-165.5"/>
</g>
<!-- TabSkeleton -->
<g id="node6" class="node">
<title>TabSkeleton</title>
<polygon fill="#ffffb3" stroke="black" points="182.26,-122 95.74,-122 95.74,-86 182.26,-86 182.26,-122"/>
<text text-anchor="middle" x="139" y="-99.8" font-family="Times,serif" font-size="14.00">TabSkeleton</text>
</g>
<!-- TabSkeleton&#45;&gt;TabsModule -->
<g id="edge6" class="edge">
<title>TabSkeleton&#45;&gt;TabsModule</title>
<path fill="none" stroke="black" d="M139,-122.22C139,-140.83 139,-167 139,-167 139,-167 419.68,-167 419.68,-167"/>
<polygon fill="black" stroke="black" points="419.68,-170.5 429.68,-167 419.68,-163.5 419.68,-170.5"/>
</g>
<!-- Tabs -->
<g id="node7" class="node">
<title>Tabs</title>
<polygon fill="#ffffb3" stroke="black" points="78,-122 24,-122 24,-86 78,-86 78,-122"/>
<text text-anchor="middle" x="51" y="-99.8" font-family="Times,serif" font-size="14.00">Tabs</text>
</g>
<!-- Tabs&#45;&gt;TabsModule -->
<g id="edge7" class="edge">
<title>Tabs&#45;&gt;TabsModule</title>
<path fill="none" stroke="black" d="M51,-122.22C51,-142.37 51,-172 51,-172 51,-172 419.43,-172 419.43,-172"/>
<polygon fill="black" stroke="black" points="419.43,-175.5 429.43,-172 419.43,-168.5 419.43,-175.5"/>
</g>
<!-- Tab  -->
<g id="node11" class="node">
<title>Tab </title>
<polygon fill="#fb8072" stroke="black" points="764,-252 710,-252 710,-216 764,-216 764,-252"/>
<text text-anchor="middle" x="737" y="-229.8" font-family="Times,serif" font-size="14.00">Tab </text>
</g>
<!-- TabsModule&#45;&gt;Tab  -->
<g id="edge10" class="edge">
<title>TabsModule&#45;&gt;Tab </title>
<path fill="none" stroke="black" stroke-dasharray="5,2" d="M516.45,-177C587.52,-177 720.81,-177 720.81,-177 720.81,-177 720.81,-205.96 720.81,-205.96"/>
<polygon fill="black" stroke="black" points="717.31,-205.96 720.81,-215.96 724.31,-205.96 717.31,-205.96"/>
</g>
<!-- TabHeader  -->
<g id="node12" class="node">
<title>TabHeader </title>
<polygon fill="#fb8072" stroke="black" points="691.68,-252 610.32,-252 610.32,-216 691.68,-216 691.68,-252"/>
<text text-anchor="middle" x="651" y="-229.8" font-family="Times,serif" font-size="14.00">TabHeader </text>
</g>
<!-- TabsModule&#45;&gt;TabHeader  -->
<g id="edge11" class="edge">
<title>TabsModule&#45;&gt;TabHeader </title>
<path fill="none" stroke="black" stroke-dasharray="5,2" d="M516.54,-182C569.24,-182 651,-182 651,-182 651,-182 651,-205.81 651,-205.81"/>
<polygon fill="black" stroke="black" points="647.5,-205.81 651,-215.81 654.5,-205.81 647.5,-205.81"/>
</g>
<!-- TabHeaderGroup  -->
<g id="node13" class="node">
<title>TabHeaderGroup </title>
<polygon fill="#fb8072" stroke="black" points="591.95,-252 474.05,-252 474.05,-216 591.95,-216 591.95,-252"/>
<text text-anchor="middle" x="533" y="-229.8" font-family="Times,serif" font-size="14.00">TabHeaderGroup </text>
</g>
<!-- TabsModule&#45;&gt;TabHeaderGroup  -->
<g id="edge12" class="edge">
<title>TabsModule&#45;&gt;TabHeaderGroup </title>
<path fill="none" stroke="black" stroke-dasharray="5,2" d="M495.33,-187.11C495.33,-187.11 495.33,-205.99 495.33,-205.99"/>
<polygon fill="black" stroke="black" points="491.83,-205.99 495.33,-215.99 498.83,-205.99 491.83,-205.99"/>
</g>
<!-- TabHeaders  -->
<g id="node14" class="node">
<title>TabHeaders </title>
<polygon fill="#fb8072" stroke="black" points="456.62,-252 369.38,-252 369.38,-216 456.62,-216 456.62,-252"/>
<text text-anchor="middle" x="413" y="-229.8" font-family="Times,serif" font-size="14.00">TabHeaders </text>
</g>
<!-- TabsModule&#45;&gt;TabHeaders  -->
<g id="edge13" class="edge">
<title>TabsModule&#45;&gt;TabHeaders </title>
<path fill="none" stroke="black" stroke-dasharray="5,2" d="M443.09,-187.11C443.09,-187.11 443.09,-205.99 443.09,-205.99"/>
<polygon fill="black" stroke="black" points="439.59,-205.99 443.09,-215.99 446.59,-205.99 439.59,-205.99"/>
</g>
<!-- TabSkeleton  -->
<g id="node15" class="node">
<title>TabSkeleton </title>
<polygon fill="#fb8072" stroke="black" points="351.26,-252 260.74,-252 260.74,-216 351.26,-216 351.26,-252"/>
<text text-anchor="middle" x="306" y="-229.8" font-family="Times,serif" font-size="14.00">TabSkeleton </text>
</g>
<!-- TabsModule&#45;&gt;TabSkeleton  -->
<g id="edge14" class="edge">
<title>TabsModule&#45;&gt;TabSkeleton </title>
<path fill="none" stroke="black" stroke-dasharray="5,2" d="M429.47,-182C386.3,-182 326.58,-182 326.58,-182 326.58,-182 326.58,-205.81 326.58,-205.81"/>
<polygon fill="black" stroke="black" points="323.08,-205.81 326.58,-215.81 330.08,-205.81 323.08,-205.81"/>
</g>
<!-- Tabs  -->
<g id="node16" class="node">
<title>Tabs </title>
<polygon fill="#fb8072" stroke="black" points="243,-252 189,-252 189,-216 243,-216 243,-252"/>
<text text-anchor="middle" x="216" y="-229.8" font-family="Times,serif" font-size="14.00">Tabs </text>
</g>
<!-- TabsModule&#45;&gt;Tabs  -->
<g id="edge15" class="edge">
<title>TabsModule&#45;&gt;Tabs </title>
<path fill="none" stroke="black" stroke-dasharray="5,2" d="M429.5,-177C357.54,-177 221.59,-177 221.59,-177 221.59,-177 221.59,-205.96 221.59,-205.96"/>
<polygon fill="black" stroke="black" points="218.09,-205.96 221.59,-215.96 225.09,-205.96 218.09,-205.96"/>
</g>
<!-- I18nModule -->
<g id="node9" class="node">
<title>I18nModule</title>
<polygon fill="#8dd3c7" stroke="black" points="921.71,-122 918.71,-126 897.71,-126 894.71,-122 836.29,-122 836.29,-86 921.71,-86 921.71,-122"/>
<text text-anchor="middle" x="879" y="-99.8" font-family="Times,serif" font-size="14.00">I18nModule</text>
</g>
<!-- I18nModule&#45;&gt;TabsModule -->
<g id="edge8" class="edge">
<title>I18nModule&#45;&gt;TabsModule</title>
<path fill="none" stroke="black" d="M879,-122.22C879,-142.37 879,-172 879,-172 879,-172 526.45,-172 526.45,-172"/>
<polygon fill="black" stroke="black" points="526.45,-168.5 516.45,-172 526.45,-175.5 526.45,-168.5"/>
</g>
<!-- UtilsModule -->
<g id="node10" class="node">
<title>UtilsModule</title>
<polygon fill="#8dd3c7" stroke="black" points="818.27,-122 815.27,-126 794.27,-126 791.27,-122 731.73,-122 731.73,-86 818.27,-86 818.27,-122"/>
<text text-anchor="middle" x="775" y="-99.8" font-family="Times,serif" font-size="14.00">UtilsModule</text>
</g>
<!-- UtilsModule&#45;&gt;TabsModule -->
<g id="edge9" class="edge">
<title>UtilsModule&#45;&gt;TabsModule</title>
<path fill="none" stroke="black" d="M747.81,-122.22C747.81,-140.83 747.81,-167 747.81,-167 747.81,-167 526.54,-167 526.54,-167"/>
<polygon fill="black" stroke="black" points="526.54,-163.5 516.54,-167 526.54,-170.5 526.54,-163.5"/>
</g>
</g>
</svg>
