<?xml version="1.0" encoding="UTF-8" standalone="no"?>
<!DOCTYPE svg PUBLIC "-//W3C//DTD SVG 1.1//EN"
 "http://www.w3.org/Graphics/SVG/1.1/DTD/svg11.dtd">
<!-- Generated by graphviz version 2.40.1 (20161225.0304)
 -->
<!-- Title: dependencies Pages: 1 -->
<svg width="1740pt" height="284pt"
 viewBox="0.00 0.00 1740.00 284.00" xmlns="http://www.w3.org/2000/svg" xmlns:xlink="http://www.w3.org/1999/xlink">
<g id="graph0" class="graph" transform="scale(1 1) rotate(0) translate(4 280)">
<title>dependencies</title>
<polygon fill="#ffffff" stroke="transparent" points="-4,4 -4,-280 1736,-280 1736,4 -4,4"/>
<text text-anchor="start" x="845.0091" y="-42.4" font-family="sans-serif" font-weight="bold" font-size="14.00" fill="#000000">Legend</text>
<polygon fill="#ffffb3" stroke="transparent" points="632,-10 632,-30 652,-30 652,-10 632,-10"/>
<text text-anchor="start" x="655.629" y="-15.4" font-family="sans-serif" font-size="14.00" fill="#000000"> &#160;Declarations</text>
<polygon fill="#8dd3c7" stroke="transparent" points="745,-10 745,-30 765,-30 765,-10 745,-10"/>
<text text-anchor="start" x="768.7251" y="-15.4" font-family="sans-serif" font-size="14.00" fill="#000000"> &#160;Module</text>
<polygon fill="#80b1d3" stroke="transparent" points="831,-10 831,-30 851,-30 851,-10 831,-10"/>
<text text-anchor="start" x="854.7812" y="-15.4" font-family="sans-serif" font-size="14.00" fill="#000000"> &#160;Bootstrap</text>
<polygon fill="#fdb462" stroke="transparent" points="928,-10 928,-30 948,-30 948,-10 928,-10"/>
<text text-anchor="start" x="951.6732" y="-15.4" font-family="sans-serif" font-size="14.00" fill="#000000"> &#160;Providers</text>
<polygon fill="#fb8072" stroke="transparent" points="1024,-10 1024,-30 1044,-30 1044,-10 1024,-10"/>
<text text-anchor="start" x="1047.7258" y="-15.4" font-family="sans-serif" font-size="14.00" fill="#000000"> &#160;Exports</text>
<g id="clust1" class="cluster">
<title>cluster_ModalModule</title>
<polygon fill="none" stroke="#000000" stroke-dasharray="1,5" points="8,-70 8,-268 1724,-268 1724,-70 8,-70"/>
</g>
<g id="clust2" class="cluster">
<title>cluster_ModalModule_declarations</title>
<polygon fill="none" stroke="#000000" points="691,-78 691,-130 1716,-130 1716,-78 691,-78"/>
</g>
<g id="clust12" class="cluster">
<title>cluster_ModalModule_imports</title>
<polygon fill="none" stroke="#000000" points="170,-78 170,-130 683,-130 683,-78 170,-78"/>
</g>
<g id="clust13" class="cluster">
<title>cluster_ModalModule_exports</title>
<polygon fill="none" stroke="#000000" points="376,-208 376,-260 1345,-260 1345,-208 376,-208"/>
</g>
<g id="clust15" class="cluster">
<title>cluster_ModalModule_providers</title>
<polygon fill="none" stroke="#000000" points="16,-78 16,-130 162,-130 162,-78 16,-78"/>
</g>
<!-- AlertModal -->
<g id="node1" class="node">
<title>AlertModal</title>
<polygon fill="#ffffb3" stroke="#000000" points="1707.8134,-122 1626.1866,-122 1626.1866,-86 1707.8134,-86 1707.8134,-122"/>
<text text-anchor="middle" x="1667" y="-99.8" font-family="Times,serif" font-size="14.00" fill="#000000">AlertModal</text>
</g>
<!-- ModalModule -->
<g id="node10" class="node">
<title>ModalModule</title>
<polygon fill="#8dd3c7" stroke="#000000" points="964.0997,-187 961.0997,-191 940.0997,-191 937.0997,-187 867.9003,-187 867.9003,-151 964.0997,-151 964.0997,-187"/>
<text text-anchor="middle" x="916" y="-164.8" font-family="Times,serif" font-size="14.00" fill="#000000">ModalModule</text>
</g>
<!-- AlertModal&#45;&gt;ModalModule -->
<g id="edge1" class="edge">
<title>AlertModal&#45;&gt;ModalModule</title>
<path fill="none" stroke="#000000" d="M1667,-122.1289C1667,-142.5724 1667,-173 1667,-173 1667,-173 974.1209,-173 974.1209,-173"/>
<polygon fill="#000000" stroke="#000000" points="974.1209,-169.5001 964.1209,-173 974.1208,-176.5001 974.1209,-169.5001"/>
</g>
<!-- Modal -->
<g id="node2" class="node">
<title>Modal</title>
<polygon fill="#ffffb3" stroke="#000000" points="1608,-122 1554,-122 1554,-86 1608,-86 1608,-122"/>
<text text-anchor="middle" x="1581" y="-99.8" font-family="Times,serif" font-size="14.00" fill="#000000">Modal</text>
</g>
<!-- Modal&#45;&gt;ModalModule -->
<g id="edge2" class="edge">
<title>Modal&#45;&gt;ModalModule</title>
<path fill="none" stroke="#000000" d="M1581,-122.1061C1581,-141.3391 1581,-169 1581,-169 1581,-169 974.0927,-169 974.0927,-169"/>
<polygon fill="#000000" stroke="#000000" points="974.0927,-165.5001 964.0927,-169 974.0926,-172.5001 974.0927,-165.5001"/>
</g>
<!-- ModalContent -->
<g id="node3" class="node">
<title>ModalContent</title>
<polygon fill="#ffffb3" stroke="#000000" points="1536.3823,-122 1439.6177,-122 1439.6177,-86 1536.3823,-86 1536.3823,-122"/>
<text text-anchor="middle" x="1488" y="-99.8" font-family="Times,serif" font-size="14.00" fill="#000000">ModalContent</text>
</g>
<!-- ModalContent&#45;&gt;ModalModule -->
<g id="edge3" class="edge">
<title>ModalContent&#45;&gt;ModalModule</title>
<path fill="none" stroke="#000000" d="M1488,-122.2667C1488,-140.5552 1488,-166 1488,-166 1488,-166 974.2754,-166 974.2754,-166"/>
<polygon fill="#000000" stroke="#000000" points="974.2755,-162.5001 964.2754,-166 974.2754,-169.5001 974.2755,-162.5001"/>
</g>
<!-- ModalContentText -->
<g id="node4" class="node">
<title>ModalContentText</title>
<polygon fill="#ffffb3" stroke="#000000" points="1421.0409,-122 1298.9591,-122 1298.9591,-86 1421.0409,-86 1421.0409,-122"/>
<text text-anchor="middle" x="1360" y="-99.8" font-family="Times,serif" font-size="14.00" fill="#000000">ModalContentText</text>
</g>
<!-- ModalContentText&#45;&gt;ModalModule -->
<g id="edge4" class="edge">
<title>ModalContentText&#45;&gt;ModalModule</title>
<path fill="none" stroke="#000000" d="M1318.0682,-122.0336C1318.0682,-139.0597 1318.0682,-162 1318.0682,-162 1318.0682,-162 974.0995,-162 974.0995,-162"/>
<polygon fill="#000000" stroke="#000000" points="974.0995,-158.5001 964.0995,-162 974.0994,-165.5001 974.0995,-158.5001"/>
</g>
<!-- ModalFooter -->
<g id="node5" class="node">
<title>ModalFooter</title>
<polygon fill="#ffffb3" stroke="#000000" points="1280.5983,-122 1191.4017,-122 1191.4017,-86 1280.5983,-86 1280.5983,-122"/>
<text text-anchor="middle" x="1236" y="-99.8" font-family="Times,serif" font-size="14.00" fill="#000000">ModalFooter</text>
</g>
<!-- ModalFooter&#45;&gt;ModalModule -->
<g id="edge5" class="edge">
<title>ModalFooter&#45;&gt;ModalModule</title>
<path fill="none" stroke="#000000" d="M1213.2379,-122.0091C1213.2379,-138.0494 1213.2379,-159 1213.2379,-159 1213.2379,-159 974.0868,-159 974.0868,-159"/>
<polygon fill="#000000" stroke="#000000" points="974.0868,-155.5001 964.0868,-159 974.0867,-162.5001 974.0868,-155.5001"/>
</g>
<!-- ModalHeader -->
<g id="node6" class="node">
<title>ModalHeader</title>
<polygon fill="#ffffb3" stroke="#000000" points="1173.4608,-122 1080.5392,-122 1080.5392,-86 1173.4608,-86 1173.4608,-122"/>
<text text-anchor="middle" x="1127" y="-99.8" font-family="Times,serif" font-size="14.00" fill="#000000">ModalHeader</text>
</g>
<!-- ModalHeader&#45;&gt;ModalModule -->
<g id="edge6" class="edge">
<title>ModalHeader&#45;&gt;ModalModule</title>
<path fill="none" stroke="#000000" d="M1120.8554,-122.1243C1120.8554,-136.7832 1120.8554,-155 1120.8554,-155 1120.8554,-155 974.2885,-155 974.2885,-155"/>
<polygon fill="#000000" stroke="#000000" points="974.2885,-151.5001 964.2885,-155 974.2884,-158.5001 974.2885,-151.5001"/>
</g>
<!-- ModalHeaderHeading -->
<g id="node7" class="node">
<title>ModalHeaderHeading</title>
<polygon fill="#ffffb3" stroke="#000000" points="1062.3877,-122 921.6123,-122 921.6123,-86 1062.3877,-86 1062.3877,-122"/>
<text text-anchor="middle" x="992" y="-99.8" font-family="Times,serif" font-size="14.00" fill="#000000">ModalHeaderHeading</text>
</g>
<!-- ModalHeaderHeading&#45;&gt;ModalModule -->
<g id="edge7" class="edge">
<title>ModalHeaderHeading&#45;&gt;ModalModule</title>
<path fill="none" stroke="#000000" d="M942.9281,-122.1061C942.9281,-122.1061 942.9281,-140.991 942.9281,-140.991"/>
<polygon fill="#000000" stroke="#000000" points="939.4282,-140.9909 942.9281,-150.991 946.4282,-140.991 939.4282,-140.9909"/>
</g>
<!-- ModalHeaderLabel -->
<g id="node8" class="node">
<title>ModalHeaderLabel</title>
<polygon fill="#ffffb3" stroke="#000000" points="903.3333,-122 778.6667,-122 778.6667,-86 903.3333,-86 903.3333,-122"/>
<text text-anchor="middle" x="841" y="-99.8" font-family="Times,serif" font-size="14.00" fill="#000000">ModalHeaderLabel</text>
</g>
<!-- ModalHeaderLabel&#45;&gt;ModalModule -->
<g id="edge8" class="edge">
<title>ModalHeaderLabel&#45;&gt;ModalModule</title>
<path fill="none" stroke="#000000" d="M885.6834,-122.1061C885.6834,-122.1061 885.6834,-140.991 885.6834,-140.991"/>
<polygon fill="#000000" stroke="#000000" points="882.1835,-140.9909 885.6834,-150.991 889.1835,-140.991 882.1835,-140.9909"/>
</g>
<!-- Overlay -->
<g id="node9" class="node">
<title>Overlay</title>
<polygon fill="#ffffb3" stroke="#000000" points="760.5871,-122 699.4129,-122 699.4129,-86 760.5871,-86 760.5871,-122"/>
<text text-anchor="middle" x="730" y="-99.8" font-family="Times,serif" font-size="14.00" fill="#000000">Overlay</text>
</g>
<!-- Overlay&#45;&gt;ModalModule -->
<g id="edge9" class="edge">
<title>Overlay&#45;&gt;ModalModule</title>
<path fill="none" stroke="#000000" d="M730,-122.1243C730,-136.7832 730,-155 730,-155 730,-155 857.6162,-155 857.6162,-155"/>
<polygon fill="#000000" stroke="#000000" points="857.6163,-158.5001 867.6162,-155 857.6162,-151.5001 857.6163,-158.5001"/>
</g>
<!-- AlertModal  -->
<g id="node15" class="node">
<title>AlertModal </title>
<polygon fill="#fb8072" stroke="#000000" points="1337.313,-252 1252.687,-252 1252.687,-216 1337.313,-216 1337.313,-252"/>
<text text-anchor="middle" x="1295" y="-229.8" font-family="Times,serif" font-size="14.00" fill="#000000">AlertModal </text>
</g>
<!-- ModalModule&#45;&gt;AlertModal  -->
<g id="edge14" class="edge">
<title>ModalModule&#45;&gt;AlertModal </title>
<path fill="none" stroke="#000000" stroke-dasharray="5,2" d="M964.3774,-177C1060.5483,-177 1266.5714,-177 1266.5714,-177 1266.5714,-177 1266.5714,-205.9648 1266.5714,-205.9648"/>
<polygon fill="#000000" stroke="#000000" points="1263.0714,-205.9648 1266.5714,-215.9648 1270.0714,-205.9649 1263.0714,-205.9648"/>
</g>
<!-- Modal  -->
<g id="node16" class="node">
<title>Modal </title>
<polygon fill="#fb8072" stroke="#000000" points="1235.0498,-252 1178.9502,-252 1178.9502,-216 1235.0498,-216 1235.0498,-252"/>
<text text-anchor="middle" x="1207" y="-229.8" font-family="Times,serif" font-size="14.00" fill="#000000">Modal </text>
</g>
<!-- ModalModule&#45;&gt;Modal  -->
<g id="edge15" class="edge">
<title>ModalModule&#45;&gt;Modal </title>
<path fill="none" stroke="#000000" stroke-dasharray="5,2" d="M964.1299,-180C1041.5651,-180 1185.213,-180 1185.213,-180 1185.213,-180 1185.213,-205.7181 1185.213,-205.7181"/>
<polygon fill="#000000" stroke="#000000" points="1181.7131,-205.718 1185.213,-215.7181 1188.7131,-205.7181 1181.7131,-205.718"/>
</g>
<!-- ModalContent  -->
<g id="node17" class="node">
<title>ModalContent </title>
<polygon fill="#fb8072" stroke="#000000" points="1161.3829,-252 1060.6171,-252 1060.6171,-216 1161.3829,-216 1161.3829,-252"/>
<text text-anchor="middle" x="1111" y="-229.8" font-family="Times,serif" font-size="14.00" fill="#000000">ModalContent </text>
</g>
<!-- ModalModule&#45;&gt;ModalContent  -->
<g id="edge16" class="edge">
<title>ModalModule&#45;&gt;ModalContent </title>
<path fill="none" stroke="#000000" stroke-dasharray="5,2" d="M964.3042,-184C1009.9095,-184 1071.3566,-184 1071.3566,-184 1071.3566,-184 1071.3566,-205.9489 1071.3566,-205.9489"/>
<polygon fill="#000000" stroke="#000000" points="1067.8567,-205.9488 1071.3566,-215.9489 1074.8567,-205.9489 1067.8567,-205.9488"/>
</g>
<!-- ModalContentText  -->
<g id="node18" class="node">
<title>ModalContentText </title>
<polygon fill="#fb8072" stroke="#000000" points="1043.04,-252 916.96,-252 916.96,-216 1043.04,-216 1043.04,-252"/>
<text text-anchor="middle" x="980" y="-229.8" font-family="Times,serif" font-size="14.00" fill="#000000">ModalContentText </text>
</g>
<!-- ModalModule&#45;&gt;ModalContentText  -->
<g id="edge17" class="edge">
<title>ModalModule&#45;&gt;ModalContentText </title>
<path fill="none" stroke="#000000" stroke-dasharray="5,2" d="M940.5149,-187.1061C940.5149,-187.1061 940.5149,-205.991 940.5149,-205.991"/>
<polygon fill="#000000" stroke="#000000" points="937.015,-205.9909 940.5149,-215.991 944.015,-205.991 937.015,-205.9909"/>
</g>
<!-- ModalFooter  -->
<g id="node19" class="node">
<title>ModalFooter </title>
<polygon fill="#fb8072" stroke="#000000" points="899.0991,-252 806.9009,-252 806.9009,-216 899.0991,-216 899.0991,-252"/>
<text text-anchor="middle" x="853" y="-229.8" font-family="Times,serif" font-size="14.00" fill="#000000">ModalFooter </text>
</g>
<!-- ModalModule&#45;&gt;ModalFooter  -->
<g id="edge18" class="edge">
<title>ModalModule&#45;&gt;ModalFooter </title>
<path fill="none" stroke="#000000" stroke-dasharray="5,2" d="M883.6247,-187.1061C883.6247,-187.1061 883.6247,-205.991 883.6247,-205.991"/>
<polygon fill="#000000" stroke="#000000" points="880.1247,-205.9909 883.6247,-215.991 887.1247,-205.991 880.1247,-205.9909"/>
</g>
<!-- ModalHeader  -->
<g id="node20" class="node">
<title>ModalHeader </title>
<polygon fill="#fb8072" stroke="#000000" points="788.4619,-252 691.5381,-252 691.5381,-216 788.4619,-216 788.4619,-252"/>
<text text-anchor="middle" x="740" y="-229.8" font-family="Times,serif" font-size="14.00" fill="#000000">ModalHeader </text>
</g>
<!-- ModalModule&#45;&gt;ModalHeader  -->
<g id="edge19" class="edge">
<title>ModalModule&#45;&gt;ModalHeader </title>
<path fill="none" stroke="#000000" stroke-dasharray="5,2" d="M867.7558,-184C829.8441,-184 783.4069,-184 783.4069,-184 783.4069,-184 783.4069,-205.9489 783.4069,-205.9489"/>
<polygon fill="#000000" stroke="#000000" points="779.907,-205.9488 783.4069,-215.9489 786.907,-205.9489 779.907,-205.9488"/>
</g>
<!-- ModalHeaderHeading  -->
<g id="node21" class="node">
<title>ModalHeaderHeading </title>
<polygon fill="#fb8072" stroke="#000000" points="673.8872,-252 530.1128,-252 530.1128,-216 673.8872,-216 673.8872,-252"/>
<text text-anchor="middle" x="602" y="-229.8" font-family="Times,serif" font-size="14.00" fill="#000000">ModalHeaderHeading </text>
</g>
<!-- ModalModule&#45;&gt;ModalHeaderHeading  -->
<g id="edge20" class="edge">
<title>ModalModule&#45;&gt;ModalHeaderHeading </title>
<path fill="none" stroke="#000000" stroke-dasharray="5,2" d="M867.7605,-180C781.4248,-180 609.4253,-180 609.4253,-180 609.4253,-180 609.4253,-205.7181 609.4253,-205.7181"/>
<polygon fill="#000000" stroke="#000000" points="605.9254,-205.718 609.4253,-215.7181 612.9254,-205.7181 605.9254,-205.718"/>
</g>
<!-- ModalHeaderLabel  -->
<g id="node22" class="node">
<title>ModalHeaderLabel </title>
<polygon fill="#fb8072" stroke="#000000" points="512.3336,-252 383.6664,-252 383.6664,-216 512.3336,-216 512.3336,-252"/>
<text text-anchor="middle" x="448" y="-229.8" font-family="Times,serif" font-size="14.00" fill="#000000">ModalHeaderLabel </text>
</g>
<!-- ModalModule&#45;&gt;ModalHeaderLabel  -->
<g id="edge21" class="edge">
<title>ModalModule&#45;&gt;ModalHeaderLabel </title>
<path fill="none" stroke="#000000" stroke-dasharray="5,2" d="M867.6673,-177C751.9125,-177 468.341,-177 468.341,-177 468.341,-177 468.341,-205.9648 468.341,-205.9648"/>
<polygon fill="#000000" stroke="#000000" points="464.8411,-205.9648 468.341,-215.9648 471.8411,-205.9649 464.8411,-205.9648"/>
</g>
<!-- ButtonModule -->
<g id="node11" class="node">
<title>ButtonModule</title>
<polygon fill="#8dd3c7" stroke="#000000" points="674.6682,-122 671.6682,-126 650.6682,-126 647.6682,-122 577.3318,-122 577.3318,-86 674.6682,-86 674.6682,-122"/>
<text text-anchor="middle" x="626" y="-99.8" font-family="Times,serif" font-size="14.00" fill="#000000">ButtonModule</text>
</g>
<!-- ButtonModule&#45;&gt;ModalModule -->
<g id="edge10" class="edge">
<title>ButtonModule&#45;&gt;ModalModule</title>
<path fill="none" stroke="#000000" d="M641.6845,-122.0091C641.6845,-138.0494 641.6845,-159 641.6845,-159 641.6845,-159 857.904,-159 857.904,-159"/>
<polygon fill="#000000" stroke="#000000" points="857.904,-162.5001 867.904,-159 857.9039,-155.5001 857.904,-162.5001"/>
</g>
<!-- ExperimentalModule -->
<g id="node12" class="node">
<title>ExperimentalModule</title>
<polygon fill="#8dd3c7" stroke="#000000" points="559.4692,-122 556.4692,-126 535.4692,-126 532.4692,-122 424.5308,-122 424.5308,-86 559.4692,-86 559.4692,-122"/>
<text text-anchor="middle" x="492" y="-99.8" font-family="Times,serif" font-size="14.00" fill="#000000">ExperimentalModule</text>
</g>
<!-- ExperimentalModule&#45;&gt;ModalModule -->
<g id="edge11" class="edge">
<title>ExperimentalModule&#45;&gt;ModalModule</title>
<path fill="none" stroke="#000000" d="M544.7705,-122.0336C544.7705,-139.0597 544.7705,-162 544.7705,-162 544.7705,-162 857.8488,-162 857.8488,-162"/>
<polygon fill="#000000" stroke="#000000" points="857.8488,-165.5001 867.8488,-162 857.8488,-158.5001 857.8488,-165.5001"/>
</g>
<!-- I18nModule -->
<g id="node13" class="node">
<title>I18nModule</title>
<polygon fill="#8dd3c7" stroke="#000000" points="406.7107,-122 403.7107,-126 382.7107,-126 379.7107,-122 321.2893,-122 321.2893,-86 406.7107,-86 406.7107,-122"/>
<text text-anchor="middle" x="364" y="-99.8" font-family="Times,serif" font-size="14.00" fill="#000000">I18nModule</text>
</g>
<!-- I18nModule&#45;&gt;ModalModule -->
<g id="edge12" class="edge">
<title>I18nModule&#45;&gt;ModalModule</title>
<path fill="none" stroke="#000000" d="M395.2193,-122.2667C395.2193,-140.5552 395.2193,-166 395.2193,-166 395.2193,-166 857.9397,-166 857.9397,-166"/>
<polygon fill="#000000" stroke="#000000" points="857.9397,-169.5001 867.9397,-166 857.9396,-162.5001 857.9397,-169.5001"/>
</g>
<!-- PlaceholderModule -->
<g id="node14" class="node">
<title>PlaceholderModule</title>
<polygon fill="#8dd3c7" stroke="#000000" points="303.6331,-122 300.6331,-126 279.6331,-126 276.6331,-122 178.3669,-122 178.3669,-86 303.6331,-86 303.6331,-122"/>
<text text-anchor="middle" x="241" y="-99.8" font-family="Times,serif" font-size="14.00" fill="#000000">PlaceholderModule</text>
</g>
<!-- PlaceholderModule&#45;&gt;ModalModule -->
<g id="edge13" class="edge">
<title>PlaceholderModule&#45;&gt;ModalModule</title>
<path fill="none" stroke="#000000" d="M241,-122.1061C241,-141.3391 241,-169 241,-169 241,-169 857.7266,-169 857.7266,-169"/>
<polygon fill="#000000" stroke="#000000" points="857.7266,-172.5001 867.7266,-169 857.7265,-165.5001 857.7266,-172.5001"/>
</g>
<!-- ModalService -->
<g id="node23" class="node">
<title>ModalService</title>
<ellipse fill="#fdb462" stroke="#000000" cx="89" cy="-104" rx="65.4072" ry="18"/>
<text text-anchor="middle" x="89" y="-99.8" font-family="Times,serif" font-size="14.00" fill="#000000">ModalService</text>
</g>
<!-- ModalService&#45;&gt;ModalModule -->
<g id="edge22" class="edge">
<title>ModalService&#45;&gt;ModalModule</title>
<path fill="none" stroke="#000000" d="M89,-122.1289C89,-142.5724 89,-173 89,-173 89,-173 857.6591,-173 857.6591,-173"/>
<polygon fill="#000000" stroke="#000000" points="857.6591,-176.5001 867.6591,-173 857.659,-169.5001 857.6591,-176.5001"/>
</g>
</g>
</svg>
