<?xml version="1.0" encoding="UTF-8" standalone="no"?>
<!DOCTYPE svg PUBLIC "-//W3C//DTD SVG 1.1//EN"
 "http://www.w3.org/Graphics/SVG/1.1/DTD/svg11.dtd">
<!-- Generated by graphviz version 2.40.1 (20161225.0304)
 -->
<!-- Title: dependencies Pages: 1 -->
<svg width="1295pt" height="284pt"
 viewBox="0.00 0.00 1295.00 284.00" xmlns="http://www.w3.org/2000/svg" xmlns:xlink="http://www.w3.org/1999/xlink">
<g id="graph0" class="graph" transform="scale(1 1) rotate(0) translate(4 280)">
<title>dependencies</title>
<polygon fill="#ffffff" stroke="transparent" points="-4,4 -4,-280 1291,-280 1291,4 -4,4"/>
<text text-anchor="start" x="622.5091" y="-42.4" font-family="sans-serif" font-weight="bold" font-size="14.00" fill="#000000">Legend</text>
<polygon fill="#ffffb3" stroke="transparent" points="409.5,-10 409.5,-30 429.5,-30 429.5,-10 409.5,-10"/>
<text text-anchor="start" x="433.129" y="-15.4" font-family="sans-serif" font-size="14.00" fill="#000000"> &#160;Declarations</text>
<polygon fill="#8dd3c7" stroke="transparent" points="522.5,-10 522.5,-30 542.5,-30 542.5,-10 522.5,-10"/>
<text text-anchor="start" x="546.2251" y="-15.4" font-family="sans-serif" font-size="14.00" fill="#000000"> &#160;Module</text>
<polygon fill="#80b1d3" stroke="transparent" points="608.5,-10 608.5,-30 628.5,-30 628.5,-10 608.5,-10"/>
<text text-anchor="start" x="632.2812" y="-15.4" font-family="sans-serif" font-size="14.00" fill="#000000"> &#160;Bootstrap</text>
<polygon fill="#fdb462" stroke="transparent" points="705.5,-10 705.5,-30 725.5,-30 725.5,-10 705.5,-10"/>
<text text-anchor="start" x="729.1732" y="-15.4" font-family="sans-serif" font-size="14.00" fill="#000000"> &#160;Providers</text>
<polygon fill="#fb8072" stroke="transparent" points="801.5,-10 801.5,-30 821.5,-30 821.5,-10 801.5,-10"/>
<text text-anchor="start" x="825.2258" y="-15.4" font-family="sans-serif" font-size="14.00" fill="#000000"> &#160;Exports</text>
<g id="clust1" class="cluster">
<title>cluster_TableModule</title>
<polygon fill="none" stroke="#000000" stroke-dasharray="1,5" points="8,-70 8,-268 1279,-268 1279,-70 8,-70"/>
</g>
<g id="clust2" class="cluster">
<title>cluster_TableModule_declarations</title>
<polygon fill="none" stroke="#000000" points="364,-78 364,-130 1271,-130 1271,-78 364,-78"/>
</g>
<g id="clust10" class="cluster">
<title>cluster_TableModule_imports</title>
<polygon fill="none" stroke="#000000" points="16,-78 16,-130 356,-130 356,-78 16,-78"/>
</g>
<g id="clust11" class="cluster">
<title>cluster_TableModule_exports</title>
<polygon fill="none" stroke="#000000" points="142,-208 142,-260 1071,-260 1071,-208 142,-208"/>
</g>
<!-- DataGridFocus -->
<g id="node1" class="node">
<title>DataGridFocus</title>
<polygon fill="#ffffb3" stroke="#000000" points="1262.5271,-122 1161.4729,-122 1161.4729,-86 1262.5271,-86 1262.5271,-122"/>
<text text-anchor="middle" x="1212" y="-99.8" font-family="Times,serif" font-size="14.00" fill="#000000">DataGridFocus</text>
</g>
<!-- TableModule -->
<g id="node8" class="node">
<title>TableModule</title>
<polygon fill="#8dd3c7" stroke="#000000" points="710.9232,-187 707.9232,-191 686.9232,-191 683.9232,-187 619.0768,-187 619.0768,-151 710.9232,-151 710.9232,-187"/>
<text text-anchor="middle" x="665" y="-164.8" font-family="Times,serif" font-size="14.00" fill="#000000">TableModule</text>
</g>
<!-- DataGridFocus&#45;&gt;TableModule -->
<g id="edge1" class="edge">
<title>DataGridFocus&#45;&gt;TableModule</title>
<path fill="none" stroke="#000000" d="M1212,-122.1061C1212,-141.3391 1212,-169 1212,-169 1212,-169 721.1655,-169 721.1655,-169"/>
<polygon fill="#000000" stroke="#000000" points="721.1655,-165.5001 711.1655,-169 721.1655,-172.5001 721.1655,-165.5001"/>
</g>
<!-- ExpandedRowHover -->
<g id="node2" class="node">
<title>ExpandedRowHover</title>
<polygon fill="#ffffb3" stroke="#000000" points="1143.9074,-122 1010.0926,-122 1010.0926,-86 1143.9074,-86 1143.9074,-122"/>
<text text-anchor="middle" x="1077" y="-99.8" font-family="Times,serif" font-size="14.00" fill="#000000">ExpandedRowHover</text>
</g>
<!-- ExpandedRowHover&#45;&gt;TableModule -->
<g id="edge2" class="edge">
<title>ExpandedRowHover&#45;&gt;TableModule</title>
<path fill="none" stroke="#000000" d="M1036.4048,-122.302C1036.4048,-140.2699 1036.4048,-165 1036.4048,-165 1036.4048,-165 720.914,-165 720.914,-165"/>
<polygon fill="#000000" stroke="#000000" points="720.9141,-161.5001 710.914,-165 720.914,-168.5001 720.9141,-161.5001"/>
</g>
<!-- Table -->
<g id="node3" class="node">
<title>Table</title>
<polygon fill="#ffffb3" stroke="#000000" points="992,-122 938,-122 938,-86 992,-86 992,-122"/>
<text text-anchor="middle" x="965" y="-99.8" font-family="Times,serif" font-size="14.00" fill="#000000">Table</text>
</g>
<!-- Table&#45;&gt;TableModule -->
<g id="edge3" class="edge">
<title>Table&#45;&gt;TableModule</title>
<path fill="none" stroke="#000000" d="M948.4702,-122.027C948.4702,-138.3976 948.4702,-160 948.4702,-160 948.4702,-160 720.8594,-160 720.8594,-160"/>
<polygon fill="#000000" stroke="#000000" points="720.8595,-156.5001 710.8594,-160 720.8594,-163.5001 720.8595,-156.5001"/>
</g>
<!-- TableToolbar -->
<g id="node4" class="node">
<title>TableToolbar</title>
<polygon fill="#ffffb3" stroke="#000000" points="920.191,-122 827.809,-122 827.809,-86 920.191,-86 920.191,-122"/>
<text text-anchor="middle" x="874" y="-99.8" font-family="Times,serif" font-size="14.00" fill="#000000">TableToolbar</text>
</g>
<!-- TableToolbar&#45;&gt;TableModule -->
<g id="edge4" class="edge">
<title>TableToolbar&#45;&gt;TableModule</title>
<path fill="none" stroke="#000000" d="M874,-122.1871C874,-137.1824 874,-156 874,-156 874,-156 720.8659,-156 720.8659,-156"/>
<polygon fill="#000000" stroke="#000000" points="720.866,-152.5001 710.8659,-156 720.8659,-159.5001 720.866,-152.5001"/>
</g>
<!-- TableToolbarActions -->
<g id="node5" class="node">
<title>TableToolbarActions</title>
<polygon fill="#ffffb3" stroke="#000000" points="809.7381,-122 674.2619,-122 674.2619,-86 809.7381,-86 809.7381,-122"/>
<text text-anchor="middle" x="742" y="-99.8" font-family="Times,serif" font-size="14.00" fill="#000000">TableToolbarActions</text>
</g>
<!-- TableToolbarActions&#45;&gt;TableModule -->
<g id="edge5" class="edge">
<title>TableToolbarActions&#45;&gt;TableModule</title>
<path fill="none" stroke="#000000" d="M692.4211,-122.1061C692.4211,-122.1061 692.4211,-140.991 692.4211,-140.991"/>
<polygon fill="#000000" stroke="#000000" points="688.9212,-140.9909 692.4211,-150.991 695.9212,-140.991 688.9212,-140.9909"/>
</g>
<!-- TableToolbarContent -->
<g id="node6" class="node">
<title>TableToolbarContent</title>
<polygon fill="#ffffb3" stroke="#000000" points="656.024,-122 519.976,-122 519.976,-86 656.024,-86 656.024,-122"/>
<text text-anchor="middle" x="588" y="-99.8" font-family="Times,serif" font-size="14.00" fill="#000000">TableToolbarContent</text>
</g>
<!-- TableToolbarContent&#45;&gt;TableModule -->
<g id="edge6" class="edge">
<title>TableToolbarContent&#45;&gt;TableModule</title>
<path fill="none" stroke="#000000" d="M637.7753,-122.1061C637.7753,-122.1061 637.7753,-140.991 637.7753,-140.991"/>
<polygon fill="#000000" stroke="#000000" points="634.2753,-140.9909 637.7753,-150.991 641.2753,-140.991 634.2753,-140.9909"/>
</g>
<!-- TableToolbarSearch -->
<g id="node7" class="node">
<title>TableToolbarSearch</title>
<polygon fill="#ffffb3" stroke="#000000" points="502.2781,-122 371.7219,-122 371.7219,-86 502.2781,-86 502.2781,-122"/>
<text text-anchor="middle" x="437" y="-99.8" font-family="Times,serif" font-size="14.00" fill="#000000">TableToolbarSearch</text>
</g>
<!-- TableToolbarSearch&#45;&gt;TableModule -->
<g id="edge7" class="edge">
<title>TableToolbarSearch&#45;&gt;TableModule</title>
<path fill="none" stroke="#000000" d="M481.26,-122.1871C481.26,-137.1824 481.26,-156 481.26,-156 481.26,-156 609.1086,-156 609.1086,-156"/>
<polygon fill="#000000" stroke="#000000" points="609.1086,-159.5001 619.1086,-156 609.1086,-152.5001 609.1086,-159.5001"/>
</g>
<!-- DataGridFocus  -->
<g id="node12" class="node">
<title>DataGridFocus </title>
<polygon fill="#fb8072" stroke="#000000" points="1062.526,-252 957.474,-252 957.474,-216 1062.526,-216 1062.526,-252"/>
<text text-anchor="middle" x="1010" y="-229.8" font-family="Times,serif" font-size="14.00" fill="#000000">DataGridFocus </text>
</g>
<!-- TableModule&#45;&gt;DataGridFocus  -->
<g id="edge11" class="edge">
<title>TableModule&#45;&gt;DataGridFocus </title>
<path fill="none" stroke="#000000" stroke-dasharray="5,2" d="M711.0373,-174C797.3222,-174 974.7435,-174 974.7435,-174 974.7435,-174 974.7435,-205.998 974.7435,-205.998"/>
<polygon fill="#000000" stroke="#000000" points="971.2436,-205.998 974.7435,-215.998 978.2436,-205.9981 971.2436,-205.998"/>
</g>
<!-- ExpandedRowHover  -->
<g id="node13" class="node">
<title>ExpandedRowHover </title>
<polygon fill="#fb8072" stroke="#000000" points="939.4068,-252 802.5932,-252 802.5932,-216 939.4068,-216 939.4068,-252"/>
<text text-anchor="middle" x="871" y="-229.8" font-family="Times,serif" font-size="14.00" fill="#000000">ExpandedRowHover </text>
</g>
<!-- TableModule&#45;&gt;ExpandedRowHover  -->
<g id="edge12" class="edge">
<title>TableModule&#45;&gt;ExpandedRowHover </title>
<path fill="none" stroke="#000000" stroke-dasharray="5,2" d="M710.8461,-178C752.0779,-178 806.2078,-178 806.2078,-178 806.2078,-178 806.2078,-205.973 806.2078,-205.973"/>
<polygon fill="#000000" stroke="#000000" points="802.7078,-205.973 806.2078,-215.973 809.7078,-205.973 802.7078,-205.973"/>
</g>
<!-- Table  -->
<g id="node14" class="node">
<title>Table </title>
<polygon fill="#fb8072" stroke="#000000" points="785,-252 731,-252 731,-216 785,-216 785,-252"/>
<text text-anchor="middle" x="758" y="-229.8" font-family="Times,serif" font-size="14.00" fill="#000000">Table </text>
</g>
<!-- TableModule&#45;&gt;Table  -->
<g id="edge13" class="edge">
<title>TableModule&#45;&gt;Table </title>
<path fill="none" stroke="#000000" stroke-dasharray="5,2" d="M710.9551,-183C734.3853,-183 758,-183 758,-183 758,-183 758,-205.8757 758,-205.8757"/>
<polygon fill="#000000" stroke="#000000" points="754.5001,-205.8757 758,-215.8757 761.5001,-205.8757 754.5001,-205.8757"/>
</g>
<!-- TableToolbar  -->
<g id="node15" class="node">
<title>TableToolbar </title>
<polygon fill="#fb8072" stroke="#000000" points="712.6913,-252 617.3087,-252 617.3087,-216 712.6913,-216 712.6913,-252"/>
<text text-anchor="middle" x="665" y="-229.8" font-family="Times,serif" font-size="14.00" fill="#000000">TableToolbar </text>
</g>
<!-- TableModule&#45;&gt;TableToolbar  -->
<g id="edge14" class="edge">
<title>TableModule&#45;&gt;TableToolbar </title>
<path fill="none" stroke="#000000" stroke-dasharray="5,2" d="M665,-187.1061C665,-187.1061 665,-205.991 665,-205.991"/>
<polygon fill="#000000" stroke="#000000" points="661.5001,-205.9909 665,-215.991 668.5001,-205.991 661.5001,-205.9909"/>
</g>
<!-- TableToolbarActions  -->
<g id="node16" class="node">
<title>TableToolbarActions </title>
<polygon fill="#fb8072" stroke="#000000" points="599.738,-252 460.262,-252 460.262,-216 599.738,-216 599.738,-252"/>
<text text-anchor="middle" x="530" y="-229.8" font-family="Times,serif" font-size="14.00" fill="#000000">TableToolbarActions </text>
</g>
<!-- TableModule&#45;&gt;TableToolbarActions  -->
<g id="edge15" class="edge">
<title>TableModule&#45;&gt;TableToolbarActions </title>
<path fill="none" stroke="#000000" stroke-dasharray="5,2" d="M619.1109,-183C590.729,-183 559.6786,-183 559.6786,-183 559.6786,-183 559.6786,-205.8757 559.6786,-205.8757"/>
<polygon fill="#000000" stroke="#000000" points="556.1787,-205.8757 559.6786,-215.8757 563.1787,-205.8757 556.1787,-205.8757"/>
</g>
<!-- TableToolbarContent  -->
<g id="node17" class="node">
<title>TableToolbarContent </title>
<polygon fill="#fb8072" stroke="#000000" points="442.0232,-252 301.9768,-252 301.9768,-216 442.0232,-216 442.0232,-252"/>
<text text-anchor="middle" x="372" y="-229.8" font-family="Times,serif" font-size="14.00" fill="#000000">TableToolbarContent </text>
</g>
<!-- TableModule&#45;&gt;TableToolbarContent  -->
<g id="edge16" class="edge">
<title>TableModule&#45;&gt;TableToolbarContent </title>
<path fill="none" stroke="#000000" stroke-dasharray="5,2" d="M619.1608,-178C545.0036,-178 406.9363,-178 406.9363,-178 406.9363,-178 406.9363,-205.973 406.9363,-205.973"/>
<polygon fill="#000000" stroke="#000000" points="403.4364,-205.973 406.9363,-215.973 410.4364,-205.973 403.4364,-205.973"/>
</g>
<!-- TableToolbarSearch  -->
<g id="node18" class="node">
<title>TableToolbarSearch </title>
<polygon fill="#fb8072" stroke="#000000" points="283.778,-252 150.222,-252 150.222,-216 283.778,-216 283.778,-252"/>
<text text-anchor="middle" x="217" y="-229.8" font-family="Times,serif" font-size="14.00" fill="#000000">TableToolbarSearch </text>
</g>
<!-- TableModule&#45;&gt;TableToolbarSearch  -->
<g id="edge17" class="edge">
<title>TableModule&#45;&gt;TableToolbarSearch </title>
<path fill="none" stroke="#000000" stroke-dasharray="5,2" d="M618.9592,-174C514.2015,-174 267.0314,-174 267.0314,-174 267.0314,-174 267.0314,-205.998 267.0314,-205.998"/>
<polygon fill="#000000" stroke="#000000" points="263.5315,-205.998 267.0314,-215.998 270.5315,-205.9981 263.5315,-205.998"/>
</g>
<!-- DialogModule -->
<g id="node9" class="node">
<title>DialogModule</title>
<polygon fill="#8dd3c7" stroke="#000000" points="347.6528,-122 344.6528,-126 323.6528,-126 320.6528,-122 250.3472,-122 250.3472,-86 347.6528,-86 347.6528,-122"/>
<text text-anchor="middle" x="299" y="-99.8" font-family="Times,serif" font-size="14.00" fill="#000000">DialogModule</text>
</g>
<!-- DialogModule&#45;&gt;TableModule -->
<g id="edge8" class="edge">
<title>DialogModule&#45;&gt;TableModule</title>
<path fill="none" stroke="#000000" d="M324.9072,-122.027C324.9072,-138.3976 324.9072,-160 324.9072,-160 324.9072,-160 609.1336,-160 609.1336,-160"/>
<polygon fill="#000000" stroke="#000000" points="609.1336,-163.5001 619.1336,-160 609.1335,-156.5001 609.1336,-163.5001"/>
</g>
<!-- I18nModule -->
<g id="node10" class="node">
<title>I18nModule</title>
<polygon fill="#8dd3c7" stroke="#000000" points="232.7107,-122 229.7107,-126 208.7107,-126 205.7107,-122 147.2893,-122 147.2893,-86 232.7107,-86 232.7107,-122"/>
<text text-anchor="middle" x="190" y="-99.8" font-family="Times,serif" font-size="14.00" fill="#000000">I18nModule</text>
</g>
<!-- I18nModule&#45;&gt;TableModule -->
<g id="edge9" class="edge">
<title>I18nModule&#45;&gt;TableModule</title>
<path fill="none" stroke="#000000" d="M191.3582,-122.302C191.3582,-140.2699 191.3582,-165 191.3582,-165 191.3582,-165 609.1549,-165 609.1549,-165"/>
<polygon fill="#000000" stroke="#000000" points="609.1549,-168.5001 619.1549,-165 609.1548,-161.5001 609.1549,-168.5001"/>
</g>
<!-- NFormsModule -->
<g id="node11" class="node">
<title>NFormsModule</title>
<polygon fill="#8dd3c7" stroke="#000000" points="129.9357,-122 126.9357,-126 105.9357,-126 102.9357,-122 24.0643,-122 24.0643,-86 129.9357,-86 129.9357,-122"/>
<text text-anchor="middle" x="77" y="-99.8" font-family="Times,serif" font-size="14.00" fill="#000000">NFormsModule</text>
</g>
<!-- NFormsModule&#45;&gt;TableModule -->
<g id="edge10" class="edge">
<title>NFormsModule&#45;&gt;TableModule</title>
<path fill="none" stroke="#000000" d="M77,-122.1061C77,-141.3391 77,-169 77,-169 77,-169 608.8606,-169 608.8606,-169"/>
<polygon fill="#000000" stroke="#000000" points="608.8607,-172.5001 618.8606,-169 608.8606,-165.5001 608.8607,-172.5001"/>
</g>
</g>
</svg>
