<?xml version="1.0" encoding="UTF-8" standalone="no"?>
<!DOCTYPE svg PUBLIC "-//W3C//DTD SVG 1.1//EN"
 "http://www.w3.org/Graphics/SVG/1.1/DTD/svg11.dtd">
<!-- Generated by graphviz version 2.40.1 (20161225.0304)
 -->
<!-- Title: dependencies Pages: 1 -->
<svg width="504pt" height="284pt"
 viewBox="0.00 0.00 504.00 284.00" xmlns="http://www.w3.org/2000/svg" xmlns:xlink="http://www.w3.org/1999/xlink">
<g id="graph0" class="graph" transform="scale(1 1) rotate(0) translate(4 280)">
<title>dependencies</title>
<polygon fill="#ffffff" stroke="transparent" points="-4,4 -4,-280 500,-280 500,4 -4,4"/>
<text text-anchor="start" x="227.0091" y="-42.4" font-family="sans-serif" font-weight="bold" font-size="14.00" fill="#000000">Legend</text>
<polygon fill="#ffffb3" stroke="transparent" points="14,-10 14,-30 34,-30 34,-10 14,-10"/>
<text text-anchor="start" x="37.629" y="-15.4" font-family="sans-serif" font-size="14.00" fill="#000000"> &#160;Declarations</text>
<polygon fill="#8dd3c7" stroke="transparent" points="127,-10 127,-30 147,-30 147,-10 127,-10"/>
<text text-anchor="start" x="150.7251" y="-15.4" font-family="sans-serif" font-size="14.00" fill="#000000"> &#160;Module</text>
<polygon fill="#80b1d3" stroke="transparent" points="213,-10 213,-30 233,-30 233,-10 213,-10"/>
<text text-anchor="start" x="236.7812" y="-15.4" font-family="sans-serif" font-size="14.00" fill="#000000"> &#160;Bootstrap</text>
<polygon fill="#fdb462" stroke="transparent" points="310,-10 310,-30 330,-30 330,-10 310,-10"/>
<text text-anchor="start" x="333.6732" y="-15.4" font-family="sans-serif" font-size="14.00" fill="#000000"> &#160;Providers</text>
<polygon fill="#fb8072" stroke="transparent" points="406,-10 406,-30 426,-30 426,-10 406,-10"/>
<text text-anchor="start" x="429.7258" y="-15.4" font-family="sans-serif" font-size="14.00" fill="#000000"> &#160;Exports</text>
<g id="clust1" class="cluster">
<title>cluster_IconModule</title>
<polygon fill="none" stroke="#000000" stroke-dasharray="1,5" points="99,-70 99,-268 397,-268 397,-70 99,-70"/>
</g>
<g id="clust2" class="cluster">
<title>cluster_IconModule_declarations</title>
<polygon fill="none" stroke="#000000" points="247,-78 247,-130 389,-130 389,-78 247,-78"/>
</g>
<g id="clust5" class="cluster">
<title>cluster_IconModule_imports</title>
<polygon fill="none" stroke="#000000" points="107,-78 107,-130 239,-130 239,-78 107,-78"/>
</g>
<g id="clust6" class="cluster">
<title>cluster_IconModule_exports</title>
<polygon fill="none" stroke="#000000" points="211,-208 211,-260 353,-260 353,-208 211,-208"/>
</g>
<!-- Icon -->
<g id="node1" class="node">
<title>Icon</title>
<polygon fill="#ffffb3" stroke="#000000" points="381,-122 327,-122 327,-86 381,-86 381,-122"/>
<text text-anchor="middle" x="354" y="-99.8" font-family="Times,serif" font-size="14.00" fill="#000000">Icon</text>
</g>
<!-- IconModule -->
<g id="node3" class="node">
<title>IconModule</title>
<polygon fill="#8dd3c7" stroke="#000000" points="324.4261,-187 321.4261,-191 300.4261,-191 297.4261,-187 239.5739,-187 239.5739,-151 324.4261,-151 324.4261,-187"/>
<text text-anchor="middle" x="282" y="-164.8" font-family="Times,serif" font-size="14.00" fill="#000000">IconModule</text>
</g>
<!-- Icon&#45;&gt;IconModule -->
<g id="edge1" class="edge">
<title>Icon&#45;&gt;IconModule</title>
<path fill="none" stroke="#000000" d="M326.8243,-104C321.0248,-104 316.6063,-104 316.6063,-104 316.6063,-104 316.6063,-140.8939 316.6063,-140.8939"/>
<polygon fill="#000000" stroke="#000000" points="313.1063,-140.8938 316.6063,-150.8939 320.1063,-140.8939 313.1063,-140.8938"/>
</g>
<!-- Sprite -->
<g id="node2" class="node">
<title>Sprite</title>
<polygon fill="#ffffb3" stroke="#000000" points="309,-122 255,-122 255,-86 309,-86 309,-122"/>
<text text-anchor="middle" x="282" y="-99.8" font-family="Times,serif" font-size="14.00" fill="#000000">Sprite</text>
</g>
<!-- Sprite&#45;&gt;IconModule -->
<g id="edge2" class="edge">
<title>Sprite&#45;&gt;IconModule</title>
<path fill="none" stroke="#000000" d="M282,-122.1061C282,-122.1061 282,-140.991 282,-140.991"/>
<polygon fill="#000000" stroke="#000000" points="278.5001,-140.9909 282,-150.991 285.5001,-140.991 278.5001,-140.9909"/>
</g>
<!-- Icon  -->
<g id="node5" class="node">
<title>Icon </title>
<polygon fill="#fb8072" stroke="#000000" points="345,-252 291,-252 291,-216 345,-216 345,-252"/>
<text text-anchor="middle" x="318" y="-229.8" font-family="Times,serif" font-size="14.00" fill="#000000">Icon </text>
</g>
<!-- IconModule&#45;&gt;Icon  -->
<g id="edge4" class="edge">
<title>IconModule&#45;&gt;Icon </title>
<path fill="none" stroke="#000000" stroke-dasharray="5,2" d="M307.6063,-187.1061C307.6063,-187.1061 307.6063,-205.991 307.6063,-205.991"/>
<polygon fill="#000000" stroke="#000000" points="304.1063,-205.9909 307.6063,-215.991 311.1063,-205.991 304.1063,-205.9909"/>
</g>
<!-- Sprite  -->
<g id="node6" class="node">
<title>Sprite </title>
<polygon fill="#fb8072" stroke="#000000" points="273,-252 219,-252 219,-216 273,-216 273,-252"/>
<text text-anchor="middle" x="246" y="-229.8" font-family="Times,serif" font-size="14.00" fill="#000000">Sprite </text>
</g>
<!-- IconModule&#45;&gt;Sprite  -->
<g id="edge5" class="edge">
<title>IconModule&#45;&gt;Sprite </title>
<path fill="none" stroke="#000000" stroke-dasharray="5,2" d="M256.3938,-187.1061C256.3938,-187.1061 256.3938,-205.991 256.3938,-205.991"/>
<polygon fill="#000000" stroke="#000000" points="252.8938,-205.9909 256.3938,-215.991 259.8938,-205.991 252.8938,-205.9909"/>
</g>
<!-- StaticIconModule -->
<g id="node4" class="node">
<title>StaticIconModule</title>
<polygon fill="#8dd3c7" stroke="#000000" points="231.309,-122 228.309,-126 207.309,-126 204.309,-122 114.691,-122 114.691,-86 231.309,-86 231.309,-122"/>
<text text-anchor="middle" x="173" y="-99.8" font-family="Times,serif" font-size="14.00" fill="#000000">StaticIconModule</text>
</g>
<!-- StaticIconModule&#45;&gt;IconModule -->
<g id="edge3" class="edge">
<title>StaticIconModule&#45;&gt;IconModule</title>
<path fill="none" stroke="#000000" d="M225.0772,-122.1061C225.0772,-141.3391 225.0772,-169 225.0772,-169 225.0772,-169 229.7362,-169 229.7362,-169"/>
<polygon fill="#000000" stroke="#000000" points="229.7362,-172.5001 239.7362,-169 229.7362,-165.5001 229.7362,-172.5001"/>
</g>
</g>
</svg>
