<?xml version="1.0" encoding="UTF-8" standalone="no"?>
<!DOCTYPE svg PUBLIC "-//W3C//DTD SVG 1.1//EN"
 "http://www.w3.org/Graphics/SVG/1.1/DTD/svg11.dtd">
<!-- Generated by graphviz version 2.47.0 (20210316.0004)
 -->
<!-- Title: dependencies Pages: 1 -->
<svg width="504pt" height="284pt"
 viewBox="0.00 0.00 504.00 284.00" xmlns="http://www.w3.org/2000/svg" xmlns:xlink="http://www.w3.org/1999/xlink">
<g id="graph0" class="graph" transform="scale(1 1) rotate(0) translate(4 280)">
<title>dependencies</title>
<polygon fill="white" stroke="transparent" points="-4,4 -4,-280 500,-280 500,4 -4,4"/>
<text text-anchor="start" x="227.01" y="-42.4" font-family="Times-12" font-weight="bold" font-size="14.00">Legend</text>
<polygon fill="#ffffb3" stroke="transparent" points="14,-10 14,-30 34,-30 34,-10 14,-10"/>
<text text-anchor="start" x="37.63" y="-15.4" font-family="Times-12" font-size="14.00"> &#160;Declarations</text>
<polygon fill="#8dd3c7" stroke="transparent" points="127,-10 127,-30 147,-30 147,-10 127,-10"/>
<text text-anchor="start" x="150.73" y="-15.4" font-family="Times-12" font-size="14.00"> &#160;Module</text>
<polygon fill="#80b1d3" stroke="transparent" points="213,-10 213,-30 233,-30 233,-10 213,-10"/>
<text text-anchor="start" x="236.78" y="-15.4" font-family="Times-12" font-size="14.00"> &#160;Bootstrap</text>
<polygon fill="#fdb462" stroke="transparent" points="310,-10 310,-30 330,-30 330,-10 310,-10"/>
<text text-anchor="start" x="333.67" y="-15.4" font-family="Times-12" font-size="14.00"> &#160;Providers</text>
<polygon fill="#fb8072" stroke="transparent" points="406,-10 406,-30 426,-30 426,-10 406,-10"/>
<text text-anchor="start" x="429.73" y="-15.4" font-family="Times-12" font-size="14.00"> &#160;Exports</text>
<g id="clust1" class="cluster">
<title>cluster_LinkModule</title>
<polygon fill="none" stroke="black" stroke-dasharray="1,5" points="135,-70 135,-268 361,-268 361,-70 135,-70"/>
</g>
<g id="clust2" class="cluster">
<title>cluster_LinkModule_declarations</title>
<polygon fill="none" stroke="black" points="144,-78 144,-130 352,-130 352,-78 144,-78"/>
</g>
<g id="clust6" class="cluster">
<title>cluster_LinkModule_exports</title>
<polygon fill="none" stroke="black" points="143,-208 143,-260 353,-260 353,-208 143,-208"/>
</g>
<!-- Link -->
<g id="node1" class="node">
<title>Link</title>
<polygon fill="#ffffb3" stroke="black" points="344,-122 290,-122 290,-86 344,-86 344,-122"/>
<text text-anchor="middle" x="317" y="-99.8" font-family="Times,serif" font-size="14.00">Link</text>
</g>
<!-- LinkModule -->
<g id="node3" class="node">
<title>LinkModule</title>
<polygon fill="#8dd3c7" stroke="black" points="254.99,-187 251.99,-191 230.99,-191 227.99,-187 169.01,-187 169.01,-151 254.99,-151 254.99,-187"/>
<text text-anchor="middle" x="212" y="-164.8" font-family="Times,serif" font-size="14.00">LinkModule</text>
</g>
<!-- Link&#45;&gt;LinkModule -->
<g id="edge1" class="edge">
<title>Link&#45;&gt;LinkModule</title>
<path fill="none" stroke="black" d="M326.33,-122.02C326.33,-139.37 326.33,-163 326.33,-163 326.33,-163 265.22,-163 265.22,-163"/>
<polygon fill="black" stroke="black" points="265.22,-159.5 255.22,-163 265.22,-166.5 265.22,-159.5"/>
</g>
<!-- LinkIconDirective -->
<g id="node2" class="node">
<title>LinkIconDirective</title>
<polygon fill="#ffffb3" stroke="black" points="271.9,-122 152.1,-122 152.1,-86 271.9,-86 271.9,-122"/>
<text text-anchor="middle" x="212" y="-99.8" font-family="Times,serif" font-size="14.00">LinkIconDirective</text>
</g>
<!-- LinkIconDirective&#45;&gt;LinkModule -->
<g id="edge2" class="edge">
<title>LinkIconDirective&#45;&gt;LinkModule</title>
<path fill="none" stroke="black" d="M212,-122.11C212,-122.11 212,-140.99 212,-140.99"/>
<polygon fill="black" stroke="black" points="208.5,-140.99 212,-150.99 215.5,-140.99 208.5,-140.99"/>
</g>
<!-- Link  -->
<g id="node4" class="node">
<title>Link </title>
<polygon fill="#fb8072" stroke="black" points="345,-252 291,-252 291,-216 345,-216 345,-252"/>
<text text-anchor="middle" x="318" y="-229.8" font-family="Times,serif" font-size="14.00">Link </text>
</g>
<!-- LinkModule&#45;&gt;Link  -->
<g id="edge3" class="edge">
<title>LinkModule&#45;&gt;Link </title>
<path fill="none" stroke="black" stroke-dasharray="5,2" d="M255.24,-175C280.98,-175 308.67,-175 308.67,-175 308.67,-175 308.67,-205.98 308.67,-205.98"/>
<polygon fill="black" stroke="black" points="305.17,-205.98 308.67,-215.98 312.17,-205.98 305.17,-205.98"/>
</g>
<!-- LinkIconDirective  -->
<g id="node5" class="node">
<title>LinkIconDirective </title>
<polygon fill="#fb8072" stroke="black" points="273.4,-252 150.6,-252 150.6,-216 273.4,-216 273.4,-252"/>
<text text-anchor="middle" x="212" y="-229.8" font-family="Times,serif" font-size="14.00">LinkIconDirective </text>
</g>
<!-- LinkModule&#45;&gt;LinkIconDirective  -->
<g id="edge4" class="edge">
<title>LinkModule&#45;&gt;LinkIconDirective </title>
<path fill="none" stroke="black" stroke-dasharray="5,2" d="M212,-187.11C212,-187.11 212,-205.99 212,-205.99"/>
<polygon fill="black" stroke="black" points="208.5,-205.99 212,-215.99 215.5,-205.99 208.5,-205.99"/>
</g>
</g>
</svg>
