<?xml version="1.0" encoding="UTF-8" standalone="no"?>
<!DOCTYPE svg PUBLIC "-//W3C//DTD SVG 1.1//EN"
 "http://www.w3.org/Graphics/SVG/1.1/DTD/svg11.dtd">
<!-- Generated by graphviz version 2.47.0 (20210316.0004)
 -->
<!-- Title: dependencies Pages: 1 -->
<svg width="1406pt" height="396pt"
 viewBox="0.00 0.00 1406.00 395.59" xmlns="http://www.w3.org/2000/svg" xmlns:xlink="http://www.w3.org/1999/xlink">
<g id="graph0" class="graph" transform="scale(1 1) rotate(0) translate(4 391.59)">
<title>dependencies</title>
<polygon fill="white" stroke="transparent" points="-4,4 -4,-391.59 1402,-391.59 1402,4 -4,4"/>
<text text-anchor="start" x="678.01" y="-42.4" font-family="Times-12" font-weight="bold" font-size="14.00">Legend</text>
<polygon fill="#ffffb3" stroke="transparent" points="465,-10 465,-30 485,-30 485,-10 465,-10"/>
<text text-anchor="start" x="488.63" y="-15.4" font-family="Times-12" font-size="14.00"> &#160;Declarations</text>
<polygon fill="#8dd3c7" stroke="transparent" points="578,-10 578,-30 598,-30 598,-10 578,-10"/>
<text text-anchor="start" x="601.73" y="-15.4" font-family="Times-12" font-size="14.00"> &#160;Module</text>
<polygon fill="#80b1d3" stroke="transparent" points="664,-10 664,-30 684,-30 684,-10 664,-10"/>
<text text-anchor="start" x="687.78" y="-15.4" font-family="Times-12" font-size="14.00"> &#160;Bootstrap</text>
<polygon fill="#fdb462" stroke="transparent" points="761,-10 761,-30 781,-30 781,-10 761,-10"/>
<text text-anchor="start" x="784.67" y="-15.4" font-family="Times-12" font-size="14.00"> &#160;Providers</text>
<polygon fill="#fb8072" stroke="transparent" points="857,-10 857,-30 877,-30 877,-10 857,-10"/>
<text text-anchor="start" x="880.73" y="-15.4" font-family="Times-12" font-size="14.00"> &#160;Exports</text>
<g id="clust1" class="cluster">
<title>cluster_RadioModule</title>
<polygon fill="none" stroke="black" stroke-dasharray="1,5" points="8,-70 8,-379.59 1390,-379.59 1390,-70 8,-70"/>
</g>
<g id="clust4" class="cluster">
<title>cluster_RadioModule_RadioGroup_providers</title>
<polygon fill="none" stroke="black" points="732,-78 732,-241.59 1382,-241.59 1382,-78 732,-78"/>
</g>
<g id="clust3" class="cluster">
<title>cluster_RadioModule_Radio_providers</title>
<polygon fill="none" stroke="black" points="124,-78 124,-241.59 724,-241.59 724,-78 124,-78"/>
</g>
<g id="clust6" class="cluster">
<title>cluster_RadioModule_exports</title>
<polygon fill="none" stroke="black" points="328,-319.59 328,-371.59 504,-371.59 504,-319.59 328,-319.59"/>
</g>
<g id="clust5" class="cluster">
<title>cluster_RadioModule_imports</title>
<polygon fill="none" stroke="black" points="16,-189.59 16,-241.59 116,-241.59 116,-189.59 16,-189.59"/>
</g>
<!-- Radio -->
<g id="node1" class="node">
<title>Radio</title>
<polygon fill="#ffffb3" stroke="black" points="451,-233.59 397,-233.59 397,-197.59 451,-197.59 451,-233.59"/>
<text text-anchor="middle" x="424" y="-211.39" font-family="Times,serif" font-size="14.00">Radio</text>
</g>
<!-- RadioModule -->
<g id="node3" class="node">
<title>RadioModule</title>
<polygon fill="#8dd3c7" stroke="black" points="470.49,-298.59 467.49,-302.59 446.49,-302.59 443.49,-298.59 377.51,-298.59 377.51,-262.59 470.49,-262.59 470.49,-298.59"/>
<text text-anchor="middle" x="424" y="-276.39" font-family="Times,serif" font-size="14.00">RadioModule</text>
</g>
<!-- Radio&#45;&gt;RadioModule -->
<g id="edge1" class="edge">
<title>Radio&#45;&gt;RadioModule</title>
<path fill="none" stroke="black" d="M424,-233.7C424,-233.7 424,-252.58 424,-252.58"/>
<polygon fill="black" stroke="black" points="420.5,-252.58 424,-262.58 427.5,-252.58 420.5,-252.58"/>
</g>
<!-- RadioGroup -->
<g id="node2" class="node">
<title>RadioGroup</title>
<polygon fill="#ffffb3" stroke="black" points="962.71,-233.59 877.29,-233.59 877.29,-197.59 962.71,-197.59 962.71,-233.59"/>
<text text-anchor="middle" x="920" y="-211.39" font-family="Times,serif" font-size="14.00">RadioGroup</text>
</g>
<!-- RadioGroup&#45;&gt;RadioModule -->
<g id="edge3" class="edge">
<title>RadioGroup&#45;&gt;RadioModule</title>
<path fill="none" stroke="black" d="M877.21,-215.59C763.2,-215.59 460.75,-215.59 460.75,-215.59 460.75,-215.59 460.75,-252.48 460.75,-252.48"/>
<polygon fill="black" stroke="black" points="457.25,-252.48 460.75,-262.48 464.25,-252.48 457.25,-252.48"/>
</g>
<!-- Radio  -->
<g id="node7" class="node">
<title>Radio </title>
<polygon fill="#fb8072" stroke="black" points="496,-363.59 442,-363.59 442,-327.59 496,-327.59 496,-363.59"/>
<text text-anchor="middle" x="469" y="-341.39" font-family="Times,serif" font-size="14.00">Radio </text>
</g>
<!-- RadioModule&#45;&gt;Radio  -->
<g id="edge6" class="edge">
<title>RadioModule&#45;&gt;Radio </title>
<path fill="none" stroke="black" stroke-dasharray="5,2" d="M456.25,-298.7C456.25,-298.7 456.25,-317.58 456.25,-317.58"/>
<polygon fill="black" stroke="black" points="452.75,-317.58 456.25,-327.58 459.75,-317.58 452.75,-317.58"/>
</g>
<!-- RadioGroup  -->
<g id="node8" class="node">
<title>RadioGroup </title>
<polygon fill="#fb8072" stroke="black" points="424.21,-363.59 335.79,-363.59 335.79,-327.59 424.21,-327.59 424.21,-363.59"/>
<text text-anchor="middle" x="380" y="-341.39" font-family="Times,serif" font-size="14.00">RadioGroup </text>
</g>
<!-- RadioModule&#45;&gt;RadioGroup  -->
<g id="edge7" class="edge">
<title>RadioModule&#45;&gt;RadioGroup </title>
<path fill="none" stroke="black" stroke-dasharray="5,2" d="M400.93,-298.7C400.93,-298.7 400.93,-317.58 400.93,-317.58"/>
<polygon fill="black" stroke="black" points="397.43,-317.58 400.93,-327.58 404.43,-317.58 397.43,-317.58"/>
</g>
<!-- {
 &#160;&#160;&#160;provide: NG_VALUE_ACCESSOR, useExisting: Radio, multi: true
} -->
<g id="node4" class="node">
<title>{
 &#160;&#160;&#160;provide: NG_VALUE_ACCESSOR, useExisting: Radio, multi: true
}</title>
<ellipse fill="#fdb462" stroke="black" cx="424" cy="-127.3" rx="292.09" ry="41.09"/>
<text text-anchor="middle" x="424" y="-139.9" font-family="Times,serif" font-size="14.00">{</text>
<text text-anchor="middle" x="424" y="-123.1" font-family="Times,serif" font-size="14.00"> &#160;&#160;&#160;provide: NG_VALUE_ACCESSOR, useExisting: Radio, multi: true</text>
<text text-anchor="middle" x="424" y="-106.3" font-family="Times,serif" font-size="14.00">}</text>
</g>
<!-- {
 &#160;&#160;&#160;provide: NG_VALUE_ACCESSOR, useExisting: Radio, multi: true
}&#45;&gt;Radio -->
<g id="edge2" class="edge">
<title>{
 &#160;&#160;&#160;provide: NG_VALUE_ACCESSOR, useExisting: Radio, multi: true
}&#45;&gt;Radio</title>
<path fill="none" stroke="black" d="M424,-168.6C424,-168.6 424,-187.26 424,-187.26"/>
<polygon fill="black" stroke="black" points="420.5,-187.26 424,-197.26 427.5,-187.26 420.5,-187.26"/>
</g>
<!-- {
 &#160;&#160;&#160;provide: NG_VALUE_ACCESSOR, useExisting: RadioGroup, multi: true
} -->
<g id="node5" class="node">
<title>{
 &#160;&#160;&#160;provide: NG_VALUE_ACCESSOR, useExisting: RadioGroup, multi: true
}</title>
<ellipse fill="#fdb462" stroke="black" cx="1057" cy="-127.3" rx="317.17" ry="41.09"/>
<text text-anchor="middle" x="1057" y="-139.9" font-family="Times,serif" font-size="14.00">{</text>
<text text-anchor="middle" x="1057" y="-123.1" font-family="Times,serif" font-size="14.00"> &#160;&#160;&#160;provide: NG_VALUE_ACCESSOR, useExisting: RadioGroup, multi: true</text>
<text text-anchor="middle" x="1057" y="-106.3" font-family="Times,serif" font-size="14.00">}</text>
</g>
<!-- {
 &#160;&#160;&#160;provide: NG_VALUE_ACCESSOR, useExisting: RadioGroup, multi: true
}&#45;&gt;RadioGroup -->
<g id="edge4" class="edge">
<title>{
 &#160;&#160;&#160;provide: NG_VALUE_ACCESSOR, useExisting: RadioGroup, multi: true
}&#45;&gt;RadioGroup</title>
<path fill="none" stroke="black" d="M920,-164.74C920,-164.74 920,-187.34 920,-187.34"/>
<polygon fill="black" stroke="black" points="916.5,-187.34 920,-197.34 923.5,-187.34 916.5,-187.34"/>
</g>
<!-- IconModule -->
<g id="node6" class="node">
<title>IconModule</title>
<polygon fill="#8dd3c7" stroke="black" points="108.43,-233.59 105.43,-237.59 84.43,-237.59 81.43,-233.59 23.57,-233.59 23.57,-197.59 108.43,-197.59 108.43,-233.59"/>
<text text-anchor="middle" x="66" y="-211.39" font-family="Times,serif" font-size="14.00">IconModule</text>
</g>
<!-- IconModule&#45;&gt;RadioModule -->
<g id="edge5" class="edge">
<title>IconModule&#45;&gt;RadioModule</title>
<path fill="none" stroke="black" d="M108.33,-215.59C195.56,-215.59 387.25,-215.59 387.25,-215.59 387.25,-215.59 387.25,-252.48 387.25,-252.48"/>
<polygon fill="black" stroke="black" points="383.75,-252.48 387.25,-262.48 390.75,-252.48 383.75,-252.48"/>
</g>
</g>
</svg>
