<?xml version="1.0" encoding="UTF-8" standalone="no"?>
<!DOCTYPE svg PUBLIC "-//W3C//DTD SVG 1.1//EN"
 "http://www.w3.org/Graphics/SVG/1.1/DTD/svg11.dtd">
<!-- Generated by graphviz version 2.40.1 (20161225.0304)
 -->
<!-- Title: dependencies Pages: 1 -->
<svg width="604pt" height="284pt"
 viewBox="0.00 0.00 604.00 284.00" xmlns="http://www.w3.org/2000/svg" xmlns:xlink="http://www.w3.org/1999/xlink">
<g id="graph0" class="graph" transform="scale(1 1) rotate(0) translate(4 280)">
<title>dependencies</title>
<polygon fill="#ffffff" stroke="transparent" points="-4,4 -4,-280 600,-280 600,4 -4,4"/>
<text text-anchor="start" x="277.0091" y="-42.4" font-family="sans-serif" font-weight="bold" font-size="14.00" fill="#000000">Legend</text>
<polygon fill="#ffffb3" stroke="transparent" points="64,-10 64,-30 84,-30 84,-10 64,-10"/>
<text text-anchor="start" x="87.629" y="-15.4" font-family="sans-serif" font-size="14.00" fill="#000000"> &#160;Declarations</text>
<polygon fill="#8dd3c7" stroke="transparent" points="177,-10 177,-30 197,-30 197,-10 177,-10"/>
<text text-anchor="start" x="200.7251" y="-15.4" font-family="sans-serif" font-size="14.00" fill="#000000"> &#160;Module</text>
<polygon fill="#80b1d3" stroke="transparent" points="263,-10 263,-30 283,-30 283,-10 263,-10"/>
<text text-anchor="start" x="286.7812" y="-15.4" font-family="sans-serif" font-size="14.00" fill="#000000"> &#160;Bootstrap</text>
<polygon fill="#fdb462" stroke="transparent" points="360,-10 360,-30 380,-30 380,-10 360,-10"/>
<text text-anchor="start" x="383.6732" y="-15.4" font-family="sans-serif" font-size="14.00" fill="#000000"> &#160;Providers</text>
<polygon fill="#fb8072" stroke="transparent" points="456,-10 456,-30 476,-30 476,-10 456,-10"/>
<text text-anchor="start" x="479.7258" y="-15.4" font-family="sans-serif" font-size="14.00" fill="#000000"> &#160;Exports</text>
<g id="clust1" class="cluster">
<title>cluster_DropdownModule</title>
<polygon fill="none" stroke="#000000" stroke-dasharray="1,5" points="8,-70 8,-268 588,-268 588,-70 8,-70"/>
</g>
<g id="clust2" class="cluster">
<title>cluster_DropdownModule_declarations</title>
<polygon fill="none" stroke="#000000" points="260,-78 260,-130 580,-130 580,-78 260,-78"/>
</g>
<g id="clust6" class="cluster">
<title>cluster_DropdownModule_imports</title>
<polygon fill="none" stroke="#000000" points="16,-78 16,-130 252,-130 252,-78 16,-78"/>
</g>
<g id="clust7" class="cluster">
<title>cluster_DropdownModule_exports</title>
<polygon fill="none" stroke="#000000" points="140,-208 140,-260 471,-260 471,-208 140,-208"/>
</g>
<!-- Dropdown -->
<g id="node1" class="node">
<title>Dropdown</title>
<polygon fill="#ffffb3" stroke="#000000" points="571.8739,-122 496.1261,-122 496.1261,-86 571.8739,-86 571.8739,-122"/>
<text text-anchor="middle" x="534" y="-99.8" font-family="Times,serif" font-size="14.00" fill="#000000">Dropdown</text>
</g>
<!-- DropdownModule -->
<g id="node4" class="node">
<title>DropdownModule</title>
<polygon fill="#8dd3c7" stroke="#000000" points="374.9244,-187 371.9244,-191 350.9244,-191 347.9244,-187 255.0756,-187 255.0756,-151 374.9244,-151 374.9244,-187"/>
<text text-anchor="middle" x="315" y="-164.8" font-family="Times,serif" font-size="14.00" fill="#000000">DropdownModule</text>
</g>
<!-- Dropdown&#45;&gt;DropdownModule -->
<g id="edge1" class="edge">
<title>Dropdown&#45;&gt;DropdownModule</title>
<path fill="none" stroke="#000000" d="M534,-122.1061C534,-141.3391 534,-169 534,-169 534,-169 384.8427,-169 384.8427,-169"/>
<polygon fill="#000000" stroke="#000000" points="384.8427,-165.5001 374.8427,-169 384.8427,-172.5001 384.8427,-165.5001"/>
</g>
<!-- DropdownList -->
<g id="node2" class="node">
<title>DropdownList</title>
<polygon fill="#ffffb3" stroke="#000000" points="477.6528,-122 380.3472,-122 380.3472,-86 477.6528,-86 477.6528,-122"/>
<text text-anchor="middle" x="429" y="-99.8" font-family="Times,serif" font-size="14.00" fill="#000000">DropdownList</text>
</g>
<!-- DropdownList&#45;&gt;DropdownModule -->
<g id="edge2" class="edge">
<title>DropdownList&#45;&gt;DropdownModule</title>
<path fill="none" stroke="#000000" d="M380.1571,-104C373.2766,-104 368.4902,-104 368.4902,-104 368.4902,-104 368.4902,-140.8939 368.4902,-140.8939"/>
<polygon fill="#000000" stroke="#000000" points="364.9903,-140.8938 368.4902,-150.8939 371.9903,-140.8939 364.9903,-140.8938"/>
</g>
<!-- ScrollableList -->
<g id="node3" class="node">
<title>ScrollableList</title>
<polygon fill="#ffffb3" stroke="#000000" points="362.0383,-122 267.9617,-122 267.9617,-86 362.0383,-86 362.0383,-122"/>
<text text-anchor="middle" x="315" y="-99.8" font-family="Times,serif" font-size="14.00" fill="#000000">ScrollableList</text>
</g>
<!-- ScrollableList&#45;&gt;DropdownModule -->
<g id="edge3" class="edge">
<title>ScrollableList&#45;&gt;DropdownModule</title>
<path fill="none" stroke="#000000" d="M315,-122.1061C315,-122.1061 315,-140.991 315,-140.991"/>
<polygon fill="#000000" stroke="#000000" points="311.5001,-140.9909 315,-150.991 318.5001,-140.991 311.5001,-140.9909"/>
</g>
<!-- Dropdown  -->
<g id="node7" class="node">
<title>Dropdown </title>
<polygon fill="#fb8072" stroke="#000000" points="462.8747,-252 383.1253,-252 383.1253,-216 462.8747,-216 462.8747,-252"/>
<text text-anchor="middle" x="423" y="-229.8" font-family="Times,serif" font-size="14.00" fill="#000000">Dropdown </text>
</g>
<!-- DropdownModule&#45;&gt;Dropdown  -->
<g id="edge6" class="edge">
<title>DropdownModule&#45;&gt;Dropdown </title>
<path fill="none" stroke="#000000" stroke-dasharray="5,2" d="M370.144,-187.1061C370.144,-206.3391 370.144,-234 370.144,-234 370.144,-234 373.2095,-234 373.2095,-234"/>
<polygon fill="#000000" stroke="#000000" points="373.2095,-237.5001 383.2095,-234 373.2095,-230.5001 373.2095,-237.5001"/>
</g>
<!-- DropdownList  -->
<g id="node8" class="node">
<title>DropdownList </title>
<polygon fill="#fb8072" stroke="#000000" points="365.6523,-252 264.3477,-252 264.3477,-216 365.6523,-216 365.6523,-252"/>
<text text-anchor="middle" x="315" y="-229.8" font-family="Times,serif" font-size="14.00" fill="#000000">DropdownList </text>
</g>
<!-- DropdownModule&#45;&gt;DropdownList  -->
<g id="edge7" class="edge">
<title>DropdownModule&#45;&gt;DropdownList </title>
<path fill="none" stroke="#000000" stroke-dasharray="5,2" d="M315,-187.1061C315,-187.1061 315,-205.991 315,-205.991"/>
<polygon fill="#000000" stroke="#000000" points="311.5001,-205.9909 315,-215.991 318.5001,-205.991 311.5001,-205.9909"/>
</g>
<!-- ScrollableList  -->
<g id="node9" class="node">
<title>ScrollableList </title>
<polygon fill="#fb8072" stroke="#000000" points="246.0372,-252 147.9628,-252 147.9628,-216 246.0372,-216 246.0372,-252"/>
<text text-anchor="middle" x="197" y="-229.8" font-family="Times,serif" font-size="14.00" fill="#000000">ScrollableList </text>
</g>
<!-- DropdownModule&#45;&gt;ScrollableList  -->
<g id="edge8" class="edge">
<title>DropdownModule&#45;&gt;ScrollableList </title>
<path fill="none" stroke="#000000" stroke-dasharray="5,2" d="M259.8561,-187.1061C259.8561,-206.3391 259.8561,-234 259.8561,-234 259.8561,-234 256.2172,-234 256.2172,-234"/>
<polygon fill="#000000" stroke="#000000" points="256.2173,-230.5001 246.2172,-234 256.2172,-237.5001 256.2173,-230.5001"/>
</g>
<!-- I18nModule -->
<g id="node5" class="node">
<title>I18nModule</title>
<polygon fill="#8dd3c7" stroke="#000000" points="243.7107,-122 240.7107,-126 219.7107,-126 216.7107,-122 158.2893,-122 158.2893,-86 243.7107,-86 243.7107,-122"/>
<text text-anchor="middle" x="201" y="-99.8" font-family="Times,serif" font-size="14.00" fill="#000000">I18nModule</text>
</g>
<!-- I18nModule&#45;&gt;DropdownModule -->
<g id="edge4" class="edge">
<title>I18nModule&#45;&gt;DropdownModule</title>
<path fill="none" stroke="#000000" d="M243.6821,-104C253.6949,-104 261.5098,-104 261.5098,-104 261.5098,-104 261.5098,-140.8939 261.5098,-140.8939"/>
<polygon fill="#000000" stroke="#000000" points="258.0099,-140.8938 261.5098,-150.8939 265.0099,-140.8939 258.0099,-140.8938"/>
</g>
<!-- StaticIconModule -->
<g id="node6" class="node">
<title>StaticIconModule</title>
<polygon fill="#8dd3c7" stroke="#000000" points="140.309,-122 137.309,-126 116.309,-126 113.309,-122 23.691,-122 23.691,-86 140.309,-86 140.309,-122"/>
<text text-anchor="middle" x="82" y="-99.8" font-family="Times,serif" font-size="14.00" fill="#000000">StaticIconModule</text>
</g>
<!-- StaticIconModule&#45;&gt;DropdownModule -->
<g id="edge5" class="edge">
<title>StaticIconModule&#45;&gt;DropdownModule</title>
<path fill="none" stroke="#000000" d="M82,-122.1061C82,-141.3391 82,-169 82,-169 82,-169 244.9967,-169 244.9967,-169"/>
<polygon fill="#000000" stroke="#000000" points="244.9967,-172.5001 254.9967,-169 244.9967,-165.5001 244.9967,-172.5001"/>
</g>
</g>
</svg>
