<?xml version="1.0" encoding="UTF-8" standalone="no"?>
<!DOCTYPE svg PUBLIC "-//W3C//DTD SVG 1.1//EN"
 "http://www.w3.org/Graphics/SVG/1.1/DTD/svg11.dtd">
<!-- Generated by graphviz version 2.40.1 (20161225.0304)
 -->
<!-- Title: dependencies Pages: 1 -->
<svg width="640pt" height="396pt"
 viewBox="0.00 0.00 640.00 395.59" xmlns="http://www.w3.org/2000/svg" xmlns:xlink="http://www.w3.org/1999/xlink">
<g id="graph0" class="graph" transform="scale(1 1) rotate(0) translate(4 391.5901)">
<title>dependencies</title>
<polygon fill="#ffffff" stroke="transparent" points="-4,4 -4,-391.5901 636,-391.5901 636,4 -4,4"/>
<text text-anchor="start" x="295.0091" y="-42.4" font-family="sans-serif" font-weight="bold" font-size="14.00" fill="#000000">Legend</text>
<polygon fill="#ffffb3" stroke="transparent" points="82,-10 82,-30 102,-30 102,-10 82,-10"/>
<text text-anchor="start" x="105.629" y="-15.4" font-family="sans-serif" font-size="14.00" fill="#000000"> &#160;Declarations</text>
<polygon fill="#8dd3c7" stroke="transparent" points="195,-10 195,-30 215,-30 215,-10 195,-10"/>
<text text-anchor="start" x="218.7251" y="-15.4" font-family="sans-serif" font-size="14.00" fill="#000000"> &#160;Module</text>
<polygon fill="#80b1d3" stroke="transparent" points="281,-10 281,-30 301,-30 301,-10 281,-10"/>
<text text-anchor="start" x="304.7812" y="-15.4" font-family="sans-serif" font-size="14.00" fill="#000000"> &#160;Bootstrap</text>
<polygon fill="#fdb462" stroke="transparent" points="378,-10 378,-30 398,-30 398,-10 378,-10"/>
<text text-anchor="start" x="401.6732" y="-15.4" font-family="sans-serif" font-size="14.00" fill="#000000"> &#160;Providers</text>
<polygon fill="#fb8072" stroke="transparent" points="474,-10 474,-30 494,-30 494,-10 474,-10"/>
<text text-anchor="start" x="497.7258" y="-15.4" font-family="sans-serif" font-size="14.00" fill="#000000"> &#160;Exports</text>
<g id="clust1" class="cluster">
<title>cluster_SliderModule</title>
<polygon fill="none" stroke="#000000" stroke-dasharray="1,5" points="8,-70 8,-379.5901 624,-379.5901 624,-70 8,-70"/>
</g>
<g id="clust2" class="cluster">
<title>cluster_SliderModule_declarations</title>
<polygon fill="none" stroke="#000000" points="281,-189.5901 281,-241.5901 351,-241.5901 351,-189.5901 281,-189.5901"/>
</g>
<g id="clust3" class="cluster">
<title>cluster_SliderModule_Slider_providers</title>
<polygon fill="none" stroke="#000000" points="16,-78 16,-176.5901 616,-176.5901 616,-78 16,-78"/>
</g>
<g id="clust5" class="cluster">
<title>cluster_SliderModule_exports</title>
<polygon fill="none" stroke="#000000" points="281,-319.5901 281,-371.5901 351,-371.5901 351,-319.5901 281,-319.5901"/>
</g>
<!-- Slider -->
<g id="node1" class="node">
<title>Slider</title>
<polygon fill="#ffffb3" stroke="#000000" points="343,-233.5901 289,-233.5901 289,-197.5901 343,-197.5901 343,-233.5901"/>
<text text-anchor="middle" x="316" y="-211.3901" font-family="Times,serif" font-size="14.00" fill="#000000">Slider</text>
</g>
<!-- SliderModule -->
<g id="node2" class="node">
<title>SliderModule</title>
<polygon fill="#8dd3c7" stroke="#000000" points="362.4888,-298.5901 359.4888,-302.5901 338.4888,-302.5901 335.4888,-298.5901 269.5112,-298.5901 269.5112,-262.5901 362.4888,-262.5901 362.4888,-298.5901"/>
<text text-anchor="middle" x="316" y="-276.3901" font-family="Times,serif" font-size="14.00" fill="#000000">SliderModule</text>
</g>
<!-- Slider&#45;&gt;SliderModule -->
<g id="edge1" class="edge">
<title>Slider&#45;&gt;SliderModule</title>
<path fill="none" stroke="#000000" d="M316,-233.6962C316,-233.6962 316,-252.581 316,-252.581"/>
<polygon fill="#000000" stroke="#000000" points="312.5001,-252.581 316,-262.581 319.5001,-252.5811 312.5001,-252.581"/>
</g>
<!-- Slider  -->
<g id="node4" class="node">
<title>Slider </title>
<polygon fill="#fb8072" stroke="#000000" points="343,-363.5901 289,-363.5901 289,-327.5901 343,-327.5901 343,-363.5901"/>
<text text-anchor="middle" x="316" y="-341.3901" font-family="Times,serif" font-size="14.00" fill="#000000">Slider </text>
</g>
<!-- SliderModule&#45;&gt;Slider  -->
<g id="edge3" class="edge">
<title>SliderModule&#45;&gt;Slider </title>
<path fill="none" stroke="#000000" stroke-dasharray="5,2" d="M316,-298.6962C316,-298.6962 316,-317.581 316,-317.581"/>
<polygon fill="#000000" stroke="#000000" points="312.5001,-317.581 316,-327.581 319.5001,-317.5811 312.5001,-317.581"/>
</g>
<!-- {
 &#160;&#160;&#160;provide: NG_VALUE_ACCESSOR, useExisting: Slider, multi: true
} -->
<g id="node3" class="node">
<title>{
 &#160;&#160;&#160;provide: NG_VALUE_ACCESSOR, useExisting: Slider, multi: true
}</title>
<ellipse fill="#fdb462" stroke="#000000" cx="316" cy="-127.295" rx="292.0872" ry="41.0911"/>
<text text-anchor="middle" x="316" y="-139.895" font-family="Times,serif" font-size="14.00" fill="#000000">{</text>
<text text-anchor="middle" x="316" y="-123.095" font-family="Times,serif" font-size="14.00" fill="#000000"> &#160;&#160;&#160;provide: NG_VALUE_ACCESSOR, useExisting: Slider, multi: true</text>
<text text-anchor="middle" x="316" y="-106.295" font-family="Times,serif" font-size="14.00" fill="#000000">}</text>
</g>
<!-- {
 &#160;&#160;&#160;provide: NG_VALUE_ACCESSOR, useExisting: Slider, multi: true
}&#45;&gt;Slider -->
<g id="edge2" class="edge">
<title>{
 &#160;&#160;&#160;provide: NG_VALUE_ACCESSOR, useExisting: Slider, multi: true
}&#45;&gt;Slider</title>
<path fill="none" stroke="#000000" d="M316,-168.5989C316,-168.5989 316,-187.2551 316,-187.2551"/>
<polygon fill="#000000" stroke="#000000" points="312.5001,-187.255 316,-197.2551 319.5001,-187.2551 312.5001,-187.255"/>
</g>
</g>
</svg>
