<?xml version="1.0" encoding="UTF-8" standalone="no"?>
<!DOCTYPE svg PUBLIC "-//W3C//DTD SVG 1.1//EN"
 "http://www.w3.org/Graphics/SVG/1.1/DTD/svg11.dtd">
<!-- Generated by graphviz version 2.40.1 (20161225.0304)
 -->
<!-- Title: dependencies Pages: 1 -->
<svg width="678pt" height="396pt"
 viewBox="0.00 0.00 678.00 395.59" xmlns="http://www.w3.org/2000/svg" xmlns:xlink="http://www.w3.org/1999/xlink">
<g id="graph0" class="graph" transform="scale(1 1) rotate(0) translate(4 391.5901)">
<title>dependencies</title>
<polygon fill="#ffffff" stroke="transparent" points="-4,4 -4,-391.5901 674,-391.5901 674,4 -4,4"/>
<text text-anchor="start" x="314.0091" y="-42.4" font-family="sans-serif" font-weight="bold" font-size="14.00" fill="#000000">Legend</text>
<polygon fill="#ffffb3" stroke="transparent" points="101,-10 101,-30 121,-30 121,-10 101,-10"/>
<text text-anchor="start" x="124.629" y="-15.4" font-family="sans-serif" font-size="14.00" fill="#000000"> &#160;Declarations</text>
<polygon fill="#8dd3c7" stroke="transparent" points="214,-10 214,-30 234,-30 234,-10 214,-10"/>
<text text-anchor="start" x="237.7251" y="-15.4" font-family="sans-serif" font-size="14.00" fill="#000000"> &#160;Module</text>
<polygon fill="#80b1d3" stroke="transparent" points="300,-10 300,-30 320,-30 320,-10 300,-10"/>
<text text-anchor="start" x="323.7812" y="-15.4" font-family="sans-serif" font-size="14.00" fill="#000000"> &#160;Bootstrap</text>
<polygon fill="#fdb462" stroke="transparent" points="397,-10 397,-30 417,-30 417,-10 397,-10"/>
<text text-anchor="start" x="420.6732" y="-15.4" font-family="sans-serif" font-size="14.00" fill="#000000"> &#160;Providers</text>
<polygon fill="#fb8072" stroke="transparent" points="493,-10 493,-30 513,-30 513,-10 493,-10"/>
<text text-anchor="start" x="516.7258" y="-15.4" font-family="sans-serif" font-size="14.00" fill="#000000"> &#160;Exports</text>
<g id="clust1" class="cluster">
<title>cluster_DropdownModule</title>
<polygon fill="none" stroke="#000000" stroke-dasharray="1,5" points="8,-70 8,-379.5901 662,-379.5901 662,-70 8,-70"/>
</g>
<g id="clust2" class="cluster">
<title>cluster_DropdownModule_declarations</title>
<polygon fill="none" stroke="#000000" points="260,-189.5901 260,-241.5901 580,-241.5901 580,-189.5901 260,-189.5901"/>
</g>
<g id="clust3" class="cluster">
<title>cluster_DropdownModule_Dropdown_providers</title>
<polygon fill="none" stroke="#000000" points="16,-78 16,-176.5901 654,-176.5901 654,-78 16,-78"/>
</g>
<g id="clust6" class="cluster">
<title>cluster_DropdownModule_imports</title>
<polygon fill="none" stroke="#000000" points="16,-189.5901 16,-241.5901 252,-241.5901 252,-189.5901 16,-189.5901"/>
</g>
<g id="clust7" class="cluster">
<title>cluster_DropdownModule_exports</title>
<polygon fill="none" stroke="#000000" points="140,-319.5901 140,-371.5901 471,-371.5901 471,-319.5901 140,-319.5901"/>
</g>
<!-- Dropdown -->
<g id="node1" class="node">
<title>Dropdown</title>
<polygon fill="#ffffb3" stroke="#000000" points="571.8739,-233.5901 496.1261,-233.5901 496.1261,-197.5901 571.8739,-197.5901 571.8739,-233.5901"/>
<text text-anchor="middle" x="534" y="-211.3901" font-family="Times,serif" font-size="14.00" fill="#000000">Dropdown</text>
</g>
<!-- DropdownModule -->
<g id="node4" class="node">
<title>DropdownModule</title>
<polygon fill="#8dd3c7" stroke="#000000" points="374.9244,-298.5901 371.9244,-302.5901 350.9244,-302.5901 347.9244,-298.5901 255.0756,-298.5901 255.0756,-262.5901 374.9244,-262.5901 374.9244,-298.5901"/>
<text text-anchor="middle" x="315" y="-276.3901" font-family="Times,serif" font-size="14.00" fill="#000000">DropdownModule</text>
</g>
<!-- Dropdown&#45;&gt;DropdownModule -->
<g id="edge1" class="edge">
<title>Dropdown&#45;&gt;DropdownModule</title>
<path fill="none" stroke="#000000" d="M534,-233.6962C534,-252.9292 534,-280.5901 534,-280.5901 534,-280.5901 384.8427,-280.5901 384.8427,-280.5901"/>
<polygon fill="#000000" stroke="#000000" points="384.8427,-277.0902 374.8427,-280.5901 384.8427,-284.0902 384.8427,-277.0902"/>
</g>
<!-- DropdownList -->
<g id="node2" class="node">
<title>DropdownList</title>
<polygon fill="#ffffb3" stroke="#000000" points="477.6528,-233.5901 380.3472,-233.5901 380.3472,-197.5901 477.6528,-197.5901 477.6528,-233.5901"/>
<text text-anchor="middle" x="429" y="-211.3901" font-family="Times,serif" font-size="14.00" fill="#000000">DropdownList</text>
</g>
<!-- DropdownList&#45;&gt;DropdownModule -->
<g id="edge3" class="edge">
<title>DropdownList&#45;&gt;DropdownModule</title>
<path fill="none" stroke="#000000" d="M380.1571,-215.5901C373.2766,-215.5901 368.4902,-215.5901 368.4902,-215.5901 368.4902,-215.5901 368.4902,-252.4839 368.4902,-252.4839"/>
<polygon fill="#000000" stroke="#000000" points="364.9903,-252.4839 368.4902,-262.4839 371.9903,-252.484 364.9903,-252.4839"/>
</g>
<!-- ScrollableList -->
<g id="node3" class="node">
<title>ScrollableList</title>
<polygon fill="#ffffb3" stroke="#000000" points="362.0383,-233.5901 267.9617,-233.5901 267.9617,-197.5901 362.0383,-197.5901 362.0383,-233.5901"/>
<text text-anchor="middle" x="315" y="-211.3901" font-family="Times,serif" font-size="14.00" fill="#000000">ScrollableList</text>
</g>
<!-- ScrollableList&#45;&gt;DropdownModule -->
<g id="edge4" class="edge">
<title>ScrollableList&#45;&gt;DropdownModule</title>
<path fill="none" stroke="#000000" d="M315,-233.6962C315,-233.6962 315,-252.581 315,-252.581"/>
<polygon fill="#000000" stroke="#000000" points="311.5001,-252.581 315,-262.581 318.5001,-252.5811 311.5001,-252.581"/>
</g>
<!-- Dropdown  -->
<g id="node8" class="node">
<title>Dropdown </title>
<polygon fill="#fb8072" stroke="#000000" points="462.8747,-363.5901 383.1253,-363.5901 383.1253,-327.5901 462.8747,-327.5901 462.8747,-363.5901"/>
<text text-anchor="middle" x="423" y="-341.3901" font-family="Times,serif" font-size="14.00" fill="#000000">Dropdown </text>
</g>
<!-- DropdownModule&#45;&gt;Dropdown  -->
<g id="edge7" class="edge">
<title>DropdownModule&#45;&gt;Dropdown </title>
<path fill="none" stroke="#000000" stroke-dasharray="5,2" d="M370.144,-298.6962C370.144,-317.9292 370.144,-345.5901 370.144,-345.5901 370.144,-345.5901 373.2095,-345.5901 373.2095,-345.5901"/>
<polygon fill="#000000" stroke="#000000" points="373.2095,-349.0902 383.2095,-345.5901 373.2095,-342.0902 373.2095,-349.0902"/>
</g>
<!-- DropdownList  -->
<g id="node9" class="node">
<title>DropdownList </title>
<polygon fill="#fb8072" stroke="#000000" points="365.6523,-363.5901 264.3477,-363.5901 264.3477,-327.5901 365.6523,-327.5901 365.6523,-363.5901"/>
<text text-anchor="middle" x="315" y="-341.3901" font-family="Times,serif" font-size="14.00" fill="#000000">DropdownList </text>
</g>
<!-- DropdownModule&#45;&gt;DropdownList  -->
<g id="edge8" class="edge">
<title>DropdownModule&#45;&gt;DropdownList </title>
<path fill="none" stroke="#000000" stroke-dasharray="5,2" d="M315,-298.6962C315,-298.6962 315,-317.581 315,-317.581"/>
<polygon fill="#000000" stroke="#000000" points="311.5001,-317.581 315,-327.581 318.5001,-317.5811 311.5001,-317.581"/>
</g>
<!-- ScrollableList  -->
<g id="node10" class="node">
<title>ScrollableList </title>
<polygon fill="#fb8072" stroke="#000000" points="246.0372,-363.5901 147.9628,-363.5901 147.9628,-327.5901 246.0372,-327.5901 246.0372,-363.5901"/>
<text text-anchor="middle" x="197" y="-341.3901" font-family="Times,serif" font-size="14.00" fill="#000000">ScrollableList </text>
</g>
<!-- DropdownModule&#45;&gt;ScrollableList  -->
<g id="edge9" class="edge">
<title>DropdownModule&#45;&gt;ScrollableList </title>
<path fill="none" stroke="#000000" stroke-dasharray="5,2" d="M259.8561,-298.6962C259.8561,-317.9292 259.8561,-345.5901 259.8561,-345.5901 259.8561,-345.5901 256.2172,-345.5901 256.2172,-345.5901"/>
<polygon fill="#000000" stroke="#000000" points="256.2173,-342.0902 246.2172,-345.5901 256.2172,-349.0902 256.2173,-342.0902"/>
</g>
<!-- {
 &#160;&#160;&#160;provide: NG_VALUE_ACCESSOR, useExisting: Dropdown, multi: true
} -->
<g id="node5" class="node">
<title>{
 &#160;&#160;&#160;provide: NG_VALUE_ACCESSOR, useExisting: Dropdown, multi: true
}</title>
<ellipse fill="#fdb462" stroke="#000000" cx="335" cy="-127.295" rx="310.9718" ry="41.0911"/>
<text text-anchor="middle" x="335" y="-139.895" font-family="Times,serif" font-size="14.00" fill="#000000">{</text>
<text text-anchor="middle" x="335" y="-123.095" font-family="Times,serif" font-size="14.00" fill="#000000"> &#160;&#160;&#160;provide: NG_VALUE_ACCESSOR, useExisting: Dropdown, multi: true</text>
<text text-anchor="middle" x="335" y="-106.295" font-family="Times,serif" font-size="14.00" fill="#000000">}</text>
</g>
<!-- {
 &#160;&#160;&#160;provide: NG_VALUE_ACCESSOR, useExisting: Dropdown, multi: true
}&#45;&gt;Dropdown -->
<g id="edge2" class="edge">
<title>{
 &#160;&#160;&#160;provide: NG_VALUE_ACCESSOR, useExisting: Dropdown, multi: true
}&#45;&gt;Dropdown</title>
<path fill="none" stroke="#000000" d="M534,-159.1716C534,-159.1716 534,-187.3756 534,-187.3756"/>
<polygon fill="#000000" stroke="#000000" points="530.5001,-187.3756 534,-197.3756 537.5001,-187.3756 530.5001,-187.3756"/>
</g>
<!-- I18nModule -->
<g id="node6" class="node">
<title>I18nModule</title>
<polygon fill="#8dd3c7" stroke="#000000" points="243.7107,-233.5901 240.7107,-237.5901 219.7107,-237.5901 216.7107,-233.5901 158.2893,-233.5901 158.2893,-197.5901 243.7107,-197.5901 243.7107,-233.5901"/>
<text text-anchor="middle" x="201" y="-211.3901" font-family="Times,serif" font-size="14.00" fill="#000000">I18nModule</text>
</g>
<!-- I18nModule&#45;&gt;DropdownModule -->
<g id="edge5" class="edge">
<title>I18nModule&#45;&gt;DropdownModule</title>
<path fill="none" stroke="#000000" d="M243.6821,-215.5901C253.6949,-215.5901 261.5098,-215.5901 261.5098,-215.5901 261.5098,-215.5901 261.5098,-252.4839 261.5098,-252.4839"/>
<polygon fill="#000000" stroke="#000000" points="258.0099,-252.4839 261.5098,-262.4839 265.0099,-252.484 258.0099,-252.4839"/>
</g>
<!-- StaticIconModule -->
<g id="node7" class="node">
<title>StaticIconModule</title>
<polygon fill="#8dd3c7" stroke="#000000" points="140.309,-233.5901 137.309,-237.5901 116.309,-237.5901 113.309,-233.5901 23.691,-233.5901 23.691,-197.5901 140.309,-197.5901 140.309,-233.5901"/>
<text text-anchor="middle" x="82" y="-211.3901" font-family="Times,serif" font-size="14.00" fill="#000000">StaticIconModule</text>
</g>
<!-- StaticIconModule&#45;&gt;DropdownModule -->
<g id="edge6" class="edge">
<title>StaticIconModule&#45;&gt;DropdownModule</title>
<path fill="none" stroke="#000000" d="M82,-233.6962C82,-252.9292 82,-280.5901 82,-280.5901 82,-280.5901 244.9967,-280.5901 244.9967,-280.5901"/>
<polygon fill="#000000" stroke="#000000" points="244.9967,-284.0902 254.9967,-280.5901 244.9967,-277.0902 244.9967,-284.0902"/>
</g>
</g>
</svg>
