<?xml version="1.0" encoding="UTF-8" standalone="no"?>
<!DOCTYPE svg PUBLIC "-//W3C//DTD SVG 1.1//EN"
 "http://www.w3.org/Graphics/SVG/1.1/DTD/svg11.dtd">
<!-- Generated by graphviz version 2.47.0 (20210316.0004)
 -->
<!-- Title: dependencies Pages: 1 -->
<svg width="2073pt" height="396pt"
 viewBox="0.00 0.00 2073.00 395.59" xmlns="http://www.w3.org/2000/svg" xmlns:xlink="http://www.w3.org/1999/xlink">
<g id="graph0" class="graph" transform="scale(1 1) rotate(0) translate(4 391.59)">
<title>dependencies</title>
<polygon fill="white" stroke="transparent" points="-4,4 -4,-391.59 2069,-391.59 2069,4 -4,4"/>
<text text-anchor="start" x="1011.51" y="-42.4" font-family="Times-12" font-weight="bold" font-size="14.00">Legend</text>
<polygon fill="#ffffb3" stroke="transparent" points="798.5,-10 798.5,-30 818.5,-30 818.5,-10 798.5,-10"/>
<text text-anchor="start" x="822.13" y="-15.4" font-family="Times-12" font-size="14.00"> &#160;Declarations</text>
<polygon fill="#8dd3c7" stroke="transparent" points="911.5,-10 911.5,-30 931.5,-30 931.5,-10 911.5,-10"/>
<text text-anchor="start" x="935.23" y="-15.4" font-family="Times-12" font-size="14.00"> &#160;Module</text>
<polygon fill="#80b1d3" stroke="transparent" points="997.5,-10 997.5,-30 1017.5,-30 1017.5,-10 997.5,-10"/>
<text text-anchor="start" x="1021.28" y="-15.4" font-family="Times-12" font-size="14.00"> &#160;Bootstrap</text>
<polygon fill="#fdb462" stroke="transparent" points="1094.5,-10 1094.5,-30 1114.5,-30 1114.5,-10 1094.5,-10"/>
<text text-anchor="start" x="1118.17" y="-15.4" font-family="Times-12" font-size="14.00"> &#160;Providers</text>
<polygon fill="#fb8072" stroke="transparent" points="1190.5,-10 1190.5,-30 1210.5,-30 1210.5,-10 1190.5,-10"/>
<text text-anchor="start" x="1214.23" y="-15.4" font-family="Times-12" font-size="14.00"> &#160;Exports</text>
<g id="clust1" class="cluster">
<title>cluster_TilesModule</title>
<polygon fill="none" stroke="black" stroke-dasharray="1,5" points="8,-70 8,-379.59 2057,-379.59 2057,-70 8,-70"/>
</g>
<g id="clust11" class="cluster">
<title>cluster_TilesModule_imports</title>
<polygon fill="none" stroke="black" points="1741,-189.59 1741,-241.59 2049,-241.59 2049,-189.59 1741,-189.59"/>
</g>
<g id="clust10" class="cluster">
<title>cluster_TilesModule_TileGroup_providers</title>
<polygon fill="none" stroke="black" points="1097,-78 1097,-241.59 1733,-241.59 1733,-78 1097,-78"/>
</g>
<g id="clust12" class="cluster">
<title>cluster_TilesModule_exports</title>
<polygon fill="none" stroke="black" points="367,-319.59 367,-371.59 1557,-371.59 1557,-319.59 367,-319.59"/>
</g>
<g id="clust2" class="cluster">
<title>cluster_TilesModule_declarations</title>
<polygon fill="none" stroke="black" points="16,-189.59 16,-241.59 1089,-241.59 1089,-189.59 16,-189.59"/>
</g>
<!-- ClickableTile -->
<g id="node1" class="node">
<title>ClickableTile</title>
<polygon fill="#ffffb3" stroke="black" points="1081.2,-233.59 988.8,-233.59 988.8,-197.59 1081.2,-197.59 1081.2,-233.59"/>
<text text-anchor="middle" x="1035" y="-211.39" font-family="Times,serif" font-size="14.00">ClickableTile</text>
</g>
<!-- TilesModule -->
<g id="node9" class="node">
<title>TilesModule</title>
<polygon fill="#8dd3c7" stroke="black" points="929.54,-298.59 926.54,-302.59 905.54,-302.59 902.54,-298.59 842.46,-298.59 842.46,-262.59 929.54,-262.59 929.54,-298.59"/>
<text text-anchor="middle" x="886" y="-276.39" font-family="Times,serif" font-size="14.00">TilesModule</text>
</g>
<!-- ClickableTile&#45;&gt;TilesModule -->
<g id="edge1" class="edge">
<title>ClickableTile&#45;&gt;TilesModule</title>
<path fill="none" stroke="black" d="M1035,-233.71C1035,-248.37 1035,-266.59 1035,-266.59 1035,-266.59 939.9,-266.59 939.9,-266.59"/>
<polygon fill="black" stroke="black" points="939.9,-263.09 929.9,-266.59 939.9,-270.09 939.9,-263.09"/>
</g>
<!-- ClickableTileIconDirective -->
<g id="node2" class="node">
<title>ClickableTileIconDirective</title>
<polygon fill="#ffffb3" stroke="black" points="970.66,-233.59 801.34,-233.59 801.34,-197.59 970.66,-197.59 970.66,-233.59"/>
<text text-anchor="middle" x="886" y="-211.39" font-family="Times,serif" font-size="14.00">ClickableTileIconDirective</text>
</g>
<!-- ClickableTileIconDirective&#45;&gt;TilesModule -->
<g id="edge2" class="edge">
<title>ClickableTileIconDirective&#45;&gt;TilesModule</title>
<path fill="none" stroke="black" d="M886,-233.7C886,-233.7 886,-252.58 886,-252.58"/>
<polygon fill="black" stroke="black" points="882.5,-252.58 886,-262.58 889.5,-252.58 882.5,-252.58"/>
</g>
<!-- ExpandableTile -->
<g id="node3" class="node">
<title>ExpandableTile</title>
<polygon fill="#ffffb3" stroke="black" points="783.14,-233.59 678.86,-233.59 678.86,-197.59 783.14,-197.59 783.14,-233.59"/>
<text text-anchor="middle" x="731" y="-211.39" font-family="Times,serif" font-size="14.00">ExpandableTile</text>
</g>
<!-- ExpandableTile&#45;&gt;TilesModule -->
<g id="edge3" class="edge">
<title>ExpandableTile&#45;&gt;TilesModule</title>
<path fill="none" stroke="black" d="M731,-233.71C731,-248.37 731,-266.59 731,-266.59 731,-266.59 832.41,-266.59 832.41,-266.59"/>
<polygon fill="black" stroke="black" points="832.41,-270.09 842.41,-266.59 832.41,-263.09 832.41,-270.09"/>
</g>
<!-- ExpandableTileAboveFoldDirective -->
<g id="node4" class="node">
<title>ExpandableTileAboveFoldDirective</title>
<polygon fill="#ffffb3" stroke="black" points="660.71,-233.59 441.29,-233.59 441.29,-197.59 660.71,-197.59 660.71,-233.59"/>
<text text-anchor="middle" x="551" y="-211.39" font-family="Times,serif" font-size="14.00">ExpandableTileAboveFoldDirective</text>
</g>
<!-- ExpandableTileAboveFoldDirective&#45;&gt;TilesModule -->
<g id="edge4" class="edge">
<title>ExpandableTileAboveFoldDirective&#45;&gt;TilesModule</title>
<path fill="none" stroke="black" d="M645.93,-233.6C645.93,-249.64 645.93,-270.59 645.93,-270.59 645.93,-270.59 832.25,-270.59 832.25,-270.59"/>
<polygon fill="black" stroke="black" points="832.25,-274.09 842.25,-270.59 832.25,-267.09 832.25,-274.09"/>
</g>
<!-- ExpandableTileBelowFoldDirective -->
<g id="node5" class="node">
<title>ExpandableTileBelowFoldDirective</title>
<polygon fill="#ffffb3" stroke="black" points="423.44,-233.59 204.56,-233.59 204.56,-197.59 423.44,-197.59 423.44,-233.59"/>
<text text-anchor="middle" x="314" y="-211.39" font-family="Times,serif" font-size="14.00">ExpandableTileBelowFoldDirective</text>
</g>
<!-- ExpandableTileBelowFoldDirective&#45;&gt;TilesModule -->
<g id="edge5" class="edge">
<title>ExpandableTileBelowFoldDirective&#45;&gt;TilesModule</title>
<path fill="none" stroke="black" d="M399.28,-233.61C399.28,-250.96 399.28,-274.59 399.28,-274.59 399.28,-274.59 832.38,-274.59 832.38,-274.59"/>
<polygon fill="black" stroke="black" points="832.38,-278.09 842.38,-274.59 832.38,-271.09 832.38,-278.09"/>
</g>
<!-- SelectionTile -->
<g id="node6" class="node">
<title>SelectionTile</title>
<polygon fill="#ffffb3" stroke="black" points="186.15,-233.59 95.85,-233.59 95.85,-197.59 186.15,-197.59 186.15,-233.59"/>
<text text-anchor="middle" x="141" y="-211.39" font-family="Times,serif" font-size="14.00">SelectionTile</text>
</g>
<!-- SelectionTile&#45;&gt;TilesModule -->
<g id="edge6" class="edge">
<title>SelectionTile&#45;&gt;TilesModule</title>
<path fill="none" stroke="black" d="M141,-233.81C141,-252.42 141,-278.59 141,-278.59 141,-278.59 832.45,-278.59 832.45,-278.59"/>
<polygon fill="black" stroke="black" points="832.45,-282.09 842.45,-278.59 832.45,-275.09 832.45,-282.09"/>
</g>
<!-- Tile -->
<g id="node7" class="node">
<title>Tile</title>
<polygon fill="#ffffb3" stroke="black" points="78,-233.59 24,-233.59 24,-197.59 78,-197.59 78,-233.59"/>
<text text-anchor="middle" x="51" y="-211.39" font-family="Times,serif" font-size="14.00">Tile</text>
</g>
<!-- Tile&#45;&gt;TilesModule -->
<g id="edge7" class="edge">
<title>Tile&#45;&gt;TilesModule</title>
<path fill="none" stroke="black" d="M51,-233.9C51,-253.74 51,-282.59 51,-282.59 51,-282.59 832.28,-282.59 832.28,-282.59"/>
<polygon fill="black" stroke="black" points="832.28,-286.09 842.28,-282.59 832.28,-279.09 832.28,-286.09"/>
</g>
<!-- TileGroup -->
<g id="node8" class="node">
<title>TileGroup</title>
<polygon fill="#ffffb3" stroke="black" points="1315.32,-233.59 1240.68,-233.59 1240.68,-197.59 1315.32,-197.59 1315.32,-233.59"/>
<text text-anchor="middle" x="1278" y="-211.39" font-family="Times,serif" font-size="14.00">TileGroup</text>
</g>
<!-- TileGroup&#45;&gt;TilesModule -->
<g id="edge8" class="edge">
<title>TileGroup&#45;&gt;TilesModule</title>
<path fill="none" stroke="black" d="M1253.87,-233.6C1253.87,-249.64 1253.87,-270.59 1253.87,-270.59 1253.87,-270.59 939.64,-270.59 939.64,-270.59"/>
<polygon fill="black" stroke="black" points="939.64,-267.09 929.64,-270.59 939.64,-274.09 939.64,-267.09"/>
</g>
<!-- ClickableTile  -->
<g id="node14" class="node">
<title>ClickableTile </title>
<polygon fill="#fb8072" stroke="black" points="1548.7,-363.59 1453.3,-363.59 1453.3,-327.59 1548.7,-327.59 1548.7,-363.59"/>
<text text-anchor="middle" x="1501" y="-341.39" font-family="Times,serif" font-size="14.00">ClickableTile </text>
</g>
<!-- TilesModule&#45;&gt;ClickableTile  -->
<g id="edge13" class="edge">
<title>TilesModule&#45;&gt;ClickableTile </title>
<path fill="none" stroke="black" stroke-dasharray="5,2" d="M929.74,-286.59C1070.24,-286.59 1501,-286.59 1501,-286.59 1501,-286.59 1501,-317.57 1501,-317.57"/>
<polygon fill="black" stroke="black" points="1497.5,-317.57 1501,-327.57 1504.5,-317.57 1497.5,-317.57"/>
</g>
<!-- ClickableTileIconDirective  -->
<g id="node15" class="node">
<title>ClickableTileIconDirective </title>
<polygon fill="#fb8072" stroke="black" points="1435.16,-363.59 1262.84,-363.59 1262.84,-327.59 1435.16,-327.59 1435.16,-363.59"/>
<text text-anchor="middle" x="1349" y="-341.39" font-family="Times,serif" font-size="14.00">ClickableTileIconDirective </text>
</g>
<!-- TilesModule&#45;&gt;ClickableTileIconDirective  -->
<g id="edge14" class="edge">
<title>TilesModule&#45;&gt;ClickableTileIconDirective </title>
<path fill="none" stroke="black" stroke-dasharray="5,2" d="M929.89,-290.59C1034.31,-290.59 1288.91,-290.59 1288.91,-290.59 1288.91,-290.59 1288.91,-317.58 1288.91,-317.58"/>
<polygon fill="black" stroke="black" points="1285.41,-317.58 1288.91,-327.58 1292.41,-317.58 1285.41,-317.58"/>
</g>
<!-- ExpandableTile  -->
<g id="node16" class="node">
<title>ExpandableTile </title>
<polygon fill="#fb8072" stroke="black" points="1245.14,-363.59 1136.86,-363.59 1136.86,-327.59 1245.14,-327.59 1245.14,-363.59"/>
<text text-anchor="middle" x="1191" y="-341.39" font-family="Times,serif" font-size="14.00">ExpandableTile </text>
</g>
<!-- TilesModule&#45;&gt;ExpandableTile  -->
<g id="edge15" class="edge">
<title>TilesModule&#45;&gt;ExpandableTile </title>
<path fill="none" stroke="black" stroke-dasharray="5,2" d="M929.72,-294.59C1013.6,-294.59 1188.89,-294.59 1188.89,-294.59 1188.89,-294.59 1188.89,-317.47 1188.89,-317.47"/>
<polygon fill="black" stroke="black" points="1185.39,-317.47 1188.89,-327.47 1192.39,-317.47 1185.39,-317.47"/>
</g>
<!-- ExpandableTileAboveFoldDirective  -->
<g id="node17" class="node">
<title>ExpandableTileAboveFoldDirective </title>
<polygon fill="#fb8072" stroke="black" points="1118.71,-363.59 895.29,-363.59 895.29,-327.59 1118.71,-327.59 1118.71,-363.59"/>
<text text-anchor="middle" x="1007" y="-341.39" font-family="Times,serif" font-size="14.00">ExpandableTileAboveFoldDirective </text>
</g>
<!-- TilesModule&#45;&gt;ExpandableTileAboveFoldDirective  -->
<g id="edge16" class="edge">
<title>TilesModule&#45;&gt;ExpandableTileAboveFoldDirective </title>
<path fill="none" stroke="black" stroke-dasharray="5,2" d="M912.58,-298.7C912.58,-298.7 912.58,-317.58 912.58,-317.58"/>
<polygon fill="black" stroke="black" points="909.08,-317.58 912.58,-327.58 916.08,-317.58 909.08,-317.58"/>
</g>
<!-- ExpandableTileBelowFoldDirective  -->
<g id="node18" class="node">
<title>ExpandableTileBelowFoldDirective </title>
<polygon fill="#fb8072" stroke="black" points="877.44,-363.59 654.56,-363.59 654.56,-327.59 877.44,-327.59 877.44,-363.59"/>
<text text-anchor="middle" x="766" y="-341.39" font-family="Times,serif" font-size="14.00">ExpandableTileBelowFoldDirective </text>
</g>
<!-- TilesModule&#45;&gt;ExpandableTileBelowFoldDirective  -->
<g id="edge17" class="edge">
<title>TilesModule&#45;&gt;ExpandableTileBelowFoldDirective </title>
<path fill="none" stroke="black" stroke-dasharray="5,2" d="M859.72,-298.7C859.72,-298.7 859.72,-317.58 859.72,-317.58"/>
<polygon fill="black" stroke="black" points="856.22,-317.58 859.72,-327.58 863.22,-317.58 856.22,-317.58"/>
</g>
<!-- SelectionTile  -->
<g id="node19" class="node">
<title>SelectionTile </title>
<polygon fill="#fb8072" stroke="black" points="637.15,-363.59 542.85,-363.59 542.85,-327.59 637.15,-327.59 637.15,-363.59"/>
<text text-anchor="middle" x="590" y="-341.39" font-family="Times,serif" font-size="14.00">SelectionTile </text>
</g>
<!-- TilesModule&#45;&gt;SelectionTile  -->
<g id="edge18" class="edge">
<title>TilesModule&#45;&gt;SelectionTile </title>
<path fill="none" stroke="black" stroke-dasharray="5,2" d="M842.32,-294.59C759.99,-294.59 590,-294.59 590,-294.59 590,-294.59 590,-317.47 590,-317.47"/>
<polygon fill="black" stroke="black" points="586.5,-317.47 590,-327.47 593.5,-317.47 586.5,-317.47"/>
</g>
<!-- Tile  -->
<g id="node20" class="node">
<title>Tile </title>
<polygon fill="#fb8072" stroke="black" points="525,-363.59 471,-363.59 471,-327.59 525,-327.59 525,-363.59"/>
<text text-anchor="middle" x="498" y="-341.39" font-family="Times,serif" font-size="14.00">Tile </text>
</g>
<!-- TilesModule&#45;&gt;Tile  -->
<g id="edge19" class="edge">
<title>TilesModule&#45;&gt;Tile </title>
<path fill="none" stroke="black" stroke-dasharray="5,2" d="M842.25,-290.59C740.77,-290.59 498,-290.59 498,-290.59 498,-290.59 498,-317.58 498,-317.58"/>
<polygon fill="black" stroke="black" points="494.5,-317.58 498,-327.58 501.5,-317.58 494.5,-317.58"/>
</g>
<!-- TileGroup  -->
<g id="node21" class="node">
<title>TileGroup </title>
<polygon fill="#fb8072" stroke="black" points="452.82,-363.59 375.18,-363.59 375.18,-327.59 452.82,-327.59 452.82,-363.59"/>
<text text-anchor="middle" x="414" y="-341.39" font-family="Times,serif" font-size="14.00">TileGroup </text>
</g>
<!-- TilesModule&#45;&gt;TileGroup  -->
<g id="edge20" class="edge">
<title>TilesModule&#45;&gt;TileGroup </title>
<path fill="none" stroke="black" stroke-dasharray="5,2" d="M842.3,-286.59C731.27,-286.59 447.03,-286.59 447.03,-286.59 447.03,-286.59 447.03,-317.57 447.03,-317.57"/>
<polygon fill="black" stroke="black" points="443.53,-317.57 447.03,-327.57 450.53,-317.57 443.53,-317.57"/>
</g>
<!-- {
 &#160;&#160;&#160;provide: NG_VALUE_ACCESSOR, useExisting: TileGroup, multi: true
} -->
<g id="node10" class="node">
<title>{
 &#160;&#160;&#160;provide: NG_VALUE_ACCESSOR, useExisting: TileGroup, multi: true
}</title>
<ellipse fill="#fdb462" stroke="black" cx="1415" cy="-127.3" rx="309.77" ry="41.09"/>
<text text-anchor="middle" x="1415" y="-139.9" font-family="Times,serif" font-size="14.00">{</text>
<text text-anchor="middle" x="1415" y="-123.1" font-family="Times,serif" font-size="14.00"> &#160;&#160;&#160;provide: NG_VALUE_ACCESSOR, useExisting: TileGroup, multi: true</text>
<text text-anchor="middle" x="1415" y="-106.3" font-family="Times,serif" font-size="14.00">}</text>
</g>
<!-- {
 &#160;&#160;&#160;provide: NG_VALUE_ACCESSOR, useExisting: TileGroup, multi: true
}&#45;&gt;TileGroup -->
<g id="edge9" class="edge">
<title>{
 &#160;&#160;&#160;provide: NG_VALUE_ACCESSOR, useExisting: TileGroup, multi: true
}&#45;&gt;TileGroup</title>
<path fill="none" stroke="black" d="M1278,-164.48C1278,-164.48 1278,-187.22 1278,-187.22"/>
<polygon fill="black" stroke="black" points="1274.5,-187.22 1278,-197.22 1281.5,-187.22 1274.5,-187.22"/>
</g>
<!-- I18nModule -->
<g id="node11" class="node">
<title>I18nModule</title>
<polygon fill="#8dd3c7" stroke="black" points="2040.71,-233.59 2037.71,-237.59 2016.71,-237.59 2013.71,-233.59 1955.29,-233.59 1955.29,-197.59 2040.71,-197.59 2040.71,-233.59"/>
<text text-anchor="middle" x="1998" y="-211.39" font-family="Times,serif" font-size="14.00">I18nModule</text>
</g>
<!-- I18nModule&#45;&gt;TilesModule -->
<g id="edge10" class="edge">
<title>I18nModule&#45;&gt;TilesModule</title>
<path fill="none" stroke="black" d="M1998,-233.9C1998,-253.74 1998,-282.59 1998,-282.59 1998,-282.59 939.59,-282.59 939.59,-282.59"/>
<polygon fill="black" stroke="black" points="939.59,-279.09 929.59,-282.59 939.59,-286.09 939.59,-279.09"/>
</g>
<!-- IconModule -->
<g id="node12" class="node">
<title>IconModule</title>
<polygon fill="#8dd3c7" stroke="black" points="1937.43,-233.59 1934.43,-237.59 1913.43,-237.59 1910.43,-233.59 1852.57,-233.59 1852.57,-197.59 1937.43,-197.59 1937.43,-233.59"/>
<text text-anchor="middle" x="1895" y="-211.39" font-family="Times,serif" font-size="14.00">IconModule</text>
</g>
<!-- IconModule&#45;&gt;TilesModule -->
<g id="edge11" class="edge">
<title>IconModule&#45;&gt;TilesModule</title>
<path fill="none" stroke="black" d="M1895,-233.81C1895,-252.42 1895,-278.59 1895,-278.59 1895,-278.59 939.68,-278.59 939.68,-278.59"/>
<polygon fill="black" stroke="black" points="939.68,-275.09 929.68,-278.59 939.68,-282.09 939.68,-275.09"/>
</g>
<!-- LinkModule -->
<g id="node13" class="node">
<title>LinkModule</title>
<polygon fill="#8dd3c7" stroke="black" points="1834.99,-233.59 1831.99,-237.59 1810.99,-237.59 1807.99,-233.59 1749.01,-233.59 1749.01,-197.59 1834.99,-197.59 1834.99,-233.59"/>
<text text-anchor="middle" x="1792" y="-211.39" font-family="Times,serif" font-size="14.00">LinkModule</text>
</g>
<!-- LinkModule&#45;&gt;TilesModule -->
<g id="edge12" class="edge">
<title>LinkModule&#45;&gt;TilesModule</title>
<path fill="none" stroke="black" d="M1792,-233.61C1792,-250.96 1792,-274.59 1792,-274.59 1792,-274.59 939.7,-274.59 939.7,-274.59"/>
<polygon fill="black" stroke="black" points="939.7,-271.09 929.7,-274.59 939.7,-278.09 939.7,-271.09"/>
</g>
</g>
</svg>
