<?xml version="1.0" encoding="UTF-8" standalone="no"?>
<!DOCTYPE svg PUBLIC "-//W3C//DTD SVG 1.1//EN"
 "http://www.w3.org/Graphics/SVG/1.1/DTD/svg11.dtd">
<!-- Generated by graphviz version 2.40.1 (20161225.0304)
 -->
<!-- Title: dependencies Pages: 1 -->
<svg width="504pt" height="284pt"
 viewBox="0.00 0.00 504.00 284.00" xmlns="http://www.w3.org/2000/svg" xmlns:xlink="http://www.w3.org/1999/xlink">
<g id="graph0" class="graph" transform="scale(1 1) rotate(0) translate(4 280)">
<title>dependencies</title>
<polygon fill="#ffffff" stroke="transparent" points="-4,4 -4,-280 500,-280 500,4 -4,4"/>
<text text-anchor="start" x="227.0091" y="-42.4" font-family="sans-serif" font-weight="bold" font-size="14.00" fill="#000000">Legend</text>
<polygon fill="#ffffb3" stroke="transparent" points="14,-10 14,-30 34,-30 34,-10 14,-10"/>
<text text-anchor="start" x="37.629" y="-15.4" font-family="sans-serif" font-size="14.00" fill="#000000"> &#160;Declarations</text>
<polygon fill="#8dd3c7" stroke="transparent" points="127,-10 127,-30 147,-30 147,-10 127,-10"/>
<text text-anchor="start" x="150.7251" y="-15.4" font-family="sans-serif" font-size="14.00" fill="#000000"> &#160;Module</text>
<polygon fill="#80b1d3" stroke="transparent" points="213,-10 213,-30 233,-30 233,-10 213,-10"/>
<text text-anchor="start" x="236.7812" y="-15.4" font-family="sans-serif" font-size="14.00" fill="#000000"> &#160;Bootstrap</text>
<polygon fill="#fdb462" stroke="transparent" points="310,-10 310,-30 330,-30 330,-10 310,-10"/>
<text text-anchor="start" x="333.6732" y="-15.4" font-family="sans-serif" font-size="14.00" fill="#000000"> &#160;Providers</text>
<polygon fill="#fb8072" stroke="transparent" points="406,-10 406,-30 426,-30 426,-10 406,-10"/>
<text text-anchor="start" x="429.7258" y="-15.4" font-family="sans-serif" font-size="14.00" fill="#000000"> &#160;Exports</text>
<g id="clust1" class="cluster">
<title>cluster_DatePickerModule</title>
<polygon fill="none" stroke="#000000" stroke-dasharray="1,5" points="53,-70 53,-268 443,-268 443,-70 53,-70"/>
</g>
<g id="clust2" class="cluster">
<title>cluster_DatePickerModule_declarations</title>
<polygon fill="none" stroke="#000000" points="341,-78 341,-130 435,-130 435,-78 341,-78"/>
</g>
<g id="clust4" class="cluster">
<title>cluster_DatePickerModule_imports</title>
<polygon fill="none" stroke="#000000" points="61,-78 61,-130 333,-130 333,-78 61,-78"/>
</g>
<g id="clust5" class="cluster">
<title>cluster_DatePickerModule_exports</title>
<polygon fill="none" stroke="#000000" points="113,-208 113,-260 383,-260 383,-208 113,-208"/>
</g>
<!-- DatePicker -->
<g id="node1" class="node">
<title>DatePicker</title>
<polygon fill="#ffffb3" stroke="#000000" points="427.1896,-122 348.8104,-122 348.8104,-86 427.1896,-86 427.1896,-122"/>
<text text-anchor="middle" x="388" y="-99.8" font-family="Times,serif" font-size="14.00" fill="#000000">DatePicker</text>
</g>
<!-- DatePickerModule -->
<g id="node2" class="node">
<title>DatePickerModule</title>
<polygon fill="#8dd3c7" stroke="#000000" points="309.7395,-187 306.7395,-191 285.7395,-191 282.7395,-187 188.2605,-187 188.2605,-151 309.7395,-151 309.7395,-187"/>
<text text-anchor="middle" x="249" y="-164.8" font-family="Times,serif" font-size="14.00" fill="#000000">DatePickerModule</text>
</g>
<!-- DatePicker&#45;&gt;DatePickerModule -->
<g id="edge1" class="edge">
<title>DatePicker&#45;&gt;DatePickerModule</title>
<path fill="none" stroke="#000000" d="M361.875,-122.1061C361.875,-141.3391 361.875,-169 361.875,-169 361.875,-169 320.0625,-169 320.0625,-169"/>
<polygon fill="#000000" stroke="#000000" points="320.0626,-165.5001 310.0625,-169 320.0625,-172.5001 320.0626,-165.5001"/>
</g>
<!-- DatePicker  -->
<g id="node5" class="node">
<title>DatePicker </title>
<polygon fill="#fb8072" stroke="#000000" points="374.69,-252 293.31,-252 293.31,-216 374.69,-216 374.69,-252"/>
<text text-anchor="middle" x="334" y="-229.8" font-family="Times,serif" font-size="14.00" fill="#000000">DatePicker </text>
</g>
<!-- DatePickerModule&#45;&gt;DatePicker  -->
<g id="edge4" class="edge">
<title>DatePickerModule&#45;&gt;DatePicker </title>
<path fill="none" stroke="#000000" stroke-dasharray="5,2" d="M301.5125,-187.1061C301.5125,-187.1061 301.5125,-205.991 301.5125,-205.991"/>
<polygon fill="#000000" stroke="#000000" points="298.0125,-205.9909 301.5125,-215.991 305.0125,-205.991 298.0125,-205.9909"/>
</g>
<!-- DatePickerInputModule  -->
<g id="node6" class="node">
<title>DatePickerInputModule </title>
<polygon fill="#fb8072" stroke="#000000" points="275.2905,-252 120.7095,-252 120.7095,-216 275.2905,-216 275.2905,-252"/>
<text text-anchor="middle" x="198" y="-229.8" font-family="Times,serif" font-size="14.00" fill="#000000">DatePickerInputModule </text>
</g>
<!-- DatePickerModule&#45;&gt;DatePickerInputModule  -->
<g id="edge5" class="edge">
<title>DatePickerModule&#45;&gt;DatePickerInputModule </title>
<path fill="none" stroke="#000000" stroke-dasharray="5,2" d="M231.7628,-187.1061C231.7628,-187.1061 231.7628,-205.991 231.7628,-205.991"/>
<polygon fill="#000000" stroke="#000000" points="228.2629,-205.9909 231.7628,-215.991 235.2629,-205.991 228.2629,-205.9909"/>
</g>
<!-- DatePickerInputModule -->
<g id="node3" class="node">
<title>DatePickerInputModule</title>
<polygon fill="#8dd3c7" stroke="#000000" points="324.7907,-122 321.7907,-126 300.7907,-126 297.7907,-122 173.2093,-122 173.2093,-86 324.7907,-86 324.7907,-122"/>
<text text-anchor="middle" x="249" y="-99.8" font-family="Times,serif" font-size="14.00" fill="#000000">DatePickerInputModule</text>
</g>
<!-- DatePickerInputModule&#45;&gt;DatePickerModule -->
<g id="edge2" class="edge">
<title>DatePickerInputModule&#45;&gt;DatePickerModule</title>
<path fill="none" stroke="#000000" d="M249,-122.1061C249,-122.1061 249,-140.991 249,-140.991"/>
<polygon fill="#000000" stroke="#000000" points="245.5001,-140.9909 249,-150.991 252.5001,-140.991 245.5001,-140.9909"/>
</g>
<!-- UtilsModule -->
<g id="node4" class="node">
<title>UtilsModule</title>
<polygon fill="#8dd3c7" stroke="#000000" points="155.2731,-122 152.2731,-126 131.2731,-126 128.2731,-122 68.7269,-122 68.7269,-86 155.2731,-86 155.2731,-122"/>
<text text-anchor="middle" x="112" y="-99.8" font-family="Times,serif" font-size="14.00" fill="#000000">UtilsModule</text>
</g>
<!-- UtilsModule&#45;&gt;DatePickerModule -->
<g id="edge3" class="edge">
<title>UtilsModule&#45;&gt;DatePickerModule</title>
<path fill="none" stroke="#000000" d="M137.9956,-122.1061C137.9956,-141.3391 137.9956,-169 137.9956,-169 137.9956,-169 177.9774,-169 177.9774,-169"/>
<polygon fill="#000000" stroke="#000000" points="177.9774,-172.5001 187.9774,-169 177.9774,-165.5001 177.9774,-172.5001"/>
</g>
</g>
</svg>
