<?xml version="1.0" encoding="UTF-8" standalone="no"?>
<!DOCTYPE svg PUBLIC "-//W3C//DTD SVG 1.1//EN"
 "http://www.w3.org/Graphics/SVG/1.1/DTD/svg11.dtd">
<!-- Generated by graphviz version 2.47.0 (20210316.0004)
 -->
<!-- Title: dependencies Pages: 1 -->
<svg width="1063pt" height="396pt"
 viewBox="0.00 0.00 1063.00 395.59" xmlns="http://www.w3.org/2000/svg" xmlns:xlink="http://www.w3.org/1999/xlink">
<g id="graph0" class="graph" transform="scale(1 1) rotate(0) translate(4 391.59)">
<title>dependencies</title>
<polygon fill="white" stroke="transparent" points="-4,4 -4,-391.59 1059,-391.59 1059,4 -4,4"/>
<text text-anchor="start" x="506.51" y="-42.4" font-family="Times-12" font-weight="bold" font-size="14.00">Legend</text>
<polygon fill="#ffffb3" stroke="transparent" points="293.5,-10 293.5,-30 313.5,-30 313.5,-10 293.5,-10"/>
<text text-anchor="start" x="317.13" y="-15.4" font-family="Times-12" font-size="14.00"> &#160;Declarations</text>
<polygon fill="#8dd3c7" stroke="transparent" points="406.5,-10 406.5,-30 426.5,-30 426.5,-10 406.5,-10"/>
<text text-anchor="start" x="430.23" y="-15.4" font-family="Times-12" font-size="14.00"> &#160;Module</text>
<polygon fill="#80b1d3" stroke="transparent" points="492.5,-10 492.5,-30 512.5,-30 512.5,-10 492.5,-10"/>
<text text-anchor="start" x="516.28" y="-15.4" font-family="Times-12" font-size="14.00"> &#160;Bootstrap</text>
<polygon fill="#fdb462" stroke="transparent" points="589.5,-10 589.5,-30 609.5,-30 609.5,-10 589.5,-10"/>
<text text-anchor="start" x="613.17" y="-15.4" font-family="Times-12" font-size="14.00"> &#160;Providers</text>
<polygon fill="#fb8072" stroke="transparent" points="685.5,-10 685.5,-30 705.5,-30 705.5,-10 685.5,-10"/>
<text text-anchor="start" x="709.23" y="-15.4" font-family="Times-12" font-size="14.00"> &#160;Exports</text>
<g id="clust1" class="cluster">
<title>cluster_DatePickerModule</title>
<polygon fill="none" stroke="black" stroke-dasharray="1,5" points="8,-70 8,-379.59 1047,-379.59 1047,-70 8,-70"/>
</g>
<g id="clust3" class="cluster">
<title>cluster_DatePickerModule_DatePicker_providers</title>
<polygon fill="none" stroke="black" points="399,-78 399,-241.59 1039,-241.59 1039,-78 399,-78"/>
</g>
<g id="clust4" class="cluster">
<title>cluster_DatePickerModule_imports</title>
<polygon fill="none" stroke="black" points="16,-189.59 16,-241.59 391,-241.59 391,-189.59 16,-189.59"/>
</g>
<g id="clust5" class="cluster">
<title>cluster_DatePickerModule_exports</title>
<polygon fill="none" stroke="black" points="86,-319.59 86,-371.59 356,-371.59 356,-319.59 86,-319.59"/>
</g>
<!-- DatePicker -->
<g id="node1" class="node">
<title>DatePicker</title>
<polygon fill="#ffffb3" stroke="black" points="621.19,-233.59 542.81,-233.59 542.81,-197.59 621.19,-197.59 621.19,-233.59"/>
<text text-anchor="middle" x="582" y="-211.39" font-family="Times,serif" font-size="14.00">DatePicker</text>
</g>
<!-- DatePickerModule -->
<g id="node2" class="node">
<title>DatePickerModule</title>
<polygon fill="#8dd3c7" stroke="black" points="299.74,-298.59 296.74,-302.59 275.74,-302.59 272.74,-298.59 178.26,-298.59 178.26,-262.59 299.74,-262.59 299.74,-298.59"/>
<text text-anchor="middle" x="239" y="-276.39" font-family="Times,serif" font-size="14.00">DatePickerModule</text>
</g>
<!-- DatePicker&#45;&gt;DatePickerModule -->
<g id="edge1" class="edge">
<title>DatePicker&#45;&gt;DatePickerModule</title>
<path fill="none" stroke="black" d="M582,-233.7C582,-252.93 582,-280.59 582,-280.59 582,-280.59 309.93,-280.59 309.93,-280.59"/>
<polygon fill="black" stroke="black" points="309.93,-277.09 299.93,-280.59 309.93,-284.09 309.93,-277.09"/>
</g>
<!-- DatePicker  -->
<g id="node7" class="node">
<title>DatePicker </title>
<polygon fill="#fb8072" stroke="black" points="347.69,-363.59 266.31,-363.59 266.31,-327.59 347.69,-327.59 347.69,-363.59"/>
<text text-anchor="middle" x="307" y="-341.39" font-family="Times,serif" font-size="14.00">DatePicker </text>
</g>
<!-- DatePickerModule&#45;&gt;DatePicker  -->
<g id="edge6" class="edge">
<title>DatePickerModule&#45;&gt;DatePicker </title>
<path fill="none" stroke="black" stroke-dasharray="5,2" d="M283.01,-298.7C283.01,-298.7 283.01,-317.58 283.01,-317.58"/>
<polygon fill="black" stroke="black" points="279.51,-317.58 283.01,-327.58 286.51,-317.58 279.51,-317.58"/>
</g>
<!-- DatePickerInputModule  -->
<g id="node8" class="node">
<title>DatePickerInputModule </title>
<polygon fill="#fb8072" stroke="black" points="248.29,-363.59 93.71,-363.59 93.71,-327.59 248.29,-327.59 248.29,-363.59"/>
<text text-anchor="middle" x="171" y="-341.39" font-family="Times,serif" font-size="14.00">DatePickerInputModule </text>
</g>
<!-- DatePickerModule&#45;&gt;DatePickerInputModule  -->
<g id="edge7" class="edge">
<title>DatePickerModule&#45;&gt;DatePickerInputModule </title>
<path fill="none" stroke="black" stroke-dasharray="5,2" d="M213.26,-298.7C213.26,-298.7 213.26,-317.58 213.26,-317.58"/>
<polygon fill="black" stroke="black" points="209.76,-317.58 213.26,-327.58 216.76,-317.58 209.76,-317.58"/>
</g>
<!-- {
 &#160;&#160;&#160;provide: NG_VALUE_ACCESSOR, useExisting: DatePicker, multi: true
} -->
<g id="node3" class="node">
<title>{
 &#160;&#160;&#160;provide: NG_VALUE_ACCESSOR, useExisting: DatePicker, multi: true
}</title>
<ellipse fill="#fdb462" stroke="black" cx="719" cy="-127.3" rx="312.25" ry="41.09"/>
<text text-anchor="middle" x="719" y="-139.9" font-family="Times,serif" font-size="14.00">{</text>
<text text-anchor="middle" x="719" y="-123.1" font-family="Times,serif" font-size="14.00"> &#160;&#160;&#160;provide: NG_VALUE_ACCESSOR, useExisting: DatePicker, multi: true</text>
<text text-anchor="middle" x="719" y="-106.3" font-family="Times,serif" font-size="14.00">}</text>
</g>
<!-- {
 &#160;&#160;&#160;provide: NG_VALUE_ACCESSOR, useExisting: DatePicker, multi: true
}&#45;&gt;DatePicker -->
<g id="edge2" class="edge">
<title>{
 &#160;&#160;&#160;provide: NG_VALUE_ACCESSOR, useExisting: DatePicker, multi: true
}&#45;&gt;DatePicker</title>
<path fill="none" stroke="black" d="M582,-164.48C582,-164.48 582,-187.22 582,-187.22"/>
<polygon fill="black" stroke="black" points="578.5,-187.22 582,-197.22 585.5,-187.22 578.5,-187.22"/>
</g>
<!-- DatePickerInputModule -->
<g id="node4" class="node">
<title>DatePickerInputModule</title>
<polygon fill="#8dd3c7" stroke="black" points="382.79,-233.59 379.79,-237.59 358.79,-237.59 355.79,-233.59 231.21,-233.59 231.21,-197.59 382.79,-197.59 382.79,-233.59"/>
<text text-anchor="middle" x="307" y="-211.39" font-family="Times,serif" font-size="14.00">DatePickerInputModule</text>
</g>
<!-- DatePickerInputModule&#45;&gt;DatePickerModule -->
<g id="edge3" class="edge">
<title>DatePickerInputModule&#45;&gt;DatePickerModule</title>
<path fill="none" stroke="black" d="M265.61,-233.7C265.61,-233.7 265.61,-252.58 265.61,-252.58"/>
<polygon fill="black" stroke="black" points="262.11,-252.58 265.61,-262.58 269.11,-252.58 262.11,-252.58"/>
</g>
<!-- I18nModule -->
<g id="node5" class="node">
<title>I18nModule</title>
<polygon fill="#8dd3c7" stroke="black" points="213.71,-233.59 210.71,-237.59 189.71,-237.59 186.71,-233.59 128.29,-233.59 128.29,-197.59 213.71,-197.59 213.71,-233.59"/>
<text text-anchor="middle" x="171" y="-211.39" font-family="Times,serif" font-size="14.00">I18nModule</text>
</g>
<!-- I18nModule&#45;&gt;DatePickerModule -->
<g id="edge4" class="edge">
<title>I18nModule&#45;&gt;DatePickerModule</title>
<path fill="none" stroke="black" d="M195.87,-233.7C195.87,-233.7 195.87,-252.58 195.87,-252.58"/>
<polygon fill="black" stroke="black" points="192.37,-252.58 195.87,-262.58 199.37,-252.58 192.37,-252.58"/>
</g>
<!-- UtilsModule -->
<g id="node6" class="node">
<title>UtilsModule</title>
<polygon fill="#8dd3c7" stroke="black" points="110.27,-233.59 107.27,-237.59 86.27,-237.59 83.27,-233.59 23.73,-233.59 23.73,-197.59 110.27,-197.59 110.27,-233.59"/>
<text text-anchor="middle" x="67" y="-211.39" font-family="Times,serif" font-size="14.00">UtilsModule</text>
</g>
<!-- UtilsModule&#45;&gt;DatePickerModule -->
<g id="edge5" class="edge">
<title>UtilsModule&#45;&gt;DatePickerModule</title>
<path fill="none" stroke="black" d="M102,-233.7C102,-252.93 102,-280.59 102,-280.59 102,-280.59 168.11,-280.59 168.11,-280.59"/>
<polygon fill="black" stroke="black" points="168.11,-284.09 178.11,-280.59 168.11,-277.09 168.11,-284.09"/>
</g>
</g>
</svg>
